<!DOCTYPE svg PUBLIC "-//W3C//DTD SVG 1.1//EN" "http://www.w3.org/Graphics/SVG/1.1/DTD/svg11.dtd">
<!-- Uploaded to: SVG Repo, www.svgrepo.com, Transformed by: SVG Repo Mixer Tools -->
<svg version="1.1" id="Icons" xmlns="http://www.w3.org/2000/svg" xmlns:xlink="http://www.w3.org/1999/xlink" viewBox="0 0 32 32" xml:space="preserve" width="800px" height="800px" fill="#169218" stroke="#169218">
<g id="SVGRepo_bgCarrier" stroke-width="0"/>
<g id="SVGRepo_tracerCarrier" stroke-linecap="round" stroke-linejoin="round"/>
<g id="SVGRepo_iconCarrier"> <style type="text/css"> .st0{fill:none;stroke:#169218;stroke-width:2;stroke-linecap:round;stroke-linejoin:round;stroke-miterlimit:10;} .st1{fill:none;stroke:#169218;stroke-width:2;stroke-linejoin:round;stroke-miterlimit:10;} </style> <polyline class="st0" points="22,12 22,20 26,20 "/> <path class="st0" d="M29,24H3c-1.1,0-2-0.9-2-2V10c0-1.1,0.9-2,2-2h26c1.1,0,2,0.9,2,2v12C31,23.1,30.1,24,29,24z"/> <path class="st0" d="M10,14L10,14c0-1.1-0.9-2-2-2h0c-1.1,0-2,0.9-2,2v0c0,1.1,0.9,2,2,2h0c1.1,0,2,0.9,2,2v0c0,1.1-0.9,2-2,2h0 c-1.1,0-2-0.9-2-2v0"/> <path class="st0" d="M18,14L18,14c0-1.1-0.9-2-2-2h0c-1.1,0-2,0.9-2,2v0c0,1.1,0.9,2,2,2h0c1.1,0,2,0.9,2,2v0c0,1.1-0.9,2-2,2h0 c-1.1,0-2-0.9-2-2v0"/> </g>
</svg>