<svg xmlns="http://www.w3.org/2000/svg" xmlns:xlink="http://www.w3.org/1999/xlink" width="40" zoomAndPan="magnify" viewBox="0 0 30 30.000001" height="40" preserveAspectRatio="xMidYMid meet" version="1.0"><defs><filter x="0%" y="0%" width="100%" height="100%" id="97a591f57f"><feColorMatrix values="0 0 0 0 1 0 0 0 0 1 0 0 0 0 1 0 0 0 1 0" color-interpolation-filters="sRGB"/></filter><clipPath id="4c0fe76aba"><path d="M 1 2 L 29.515625 2 L 29.515625 26 L 1 26 Z M 1 2 " clip-rule="nonzero"/></clipPath><mask id="727d470887"><g filter="url(#97a591f57f)"><rect x="-3" width="36" fill="#000000" y="-3" height="36.000001" fill-opacity="0.26"/></g></mask><clipPath id="7416ad7f02"><path d="M 1 0.902344 L 28.515625 0.902344 L 28.515625 23.402344 L 1 23.402344 Z M 1 0.902344 " clip-rule="nonzero"/></clipPath><clipPath id="c43f4d042d"><rect x="0" width="29" y="0" height="24"/></clipPath><clipPath id="8207d4053f"><path d="M 4 3.175781 L 27 3.175781 L 27 25 L 4 25 Z M 4 3.175781 " clip-rule="nonzero"/></clipPath><clipPath id="9b2954bb69"><path d="M 16 3.175781 L 19 3.175781 L 19 7 L 16 7 Z M 16 3.175781 " clip-rule="nonzero"/></clipPath><clipPath id="aa039a51d8"><path d="M 15 3.175781 L 19 3.175781 L 19 7 L 15 7 Z M 15 3.175781 " clip-rule="nonzero"/></clipPath></defs><g clip-path="url(#4c0fe76aba)"><g mask="url(#727d470887)"><g transform="matrix(1, 0, 0, 1, 1, 2)"><g clip-path="url(#c43f4d042d)"><g clip-path="url(#7416ad7f02)"><path fill="#2cb2f1" d="M 1.570312 14.296875 C 2.070312 13.289062 2.902344 12.382812 2.96875 11.261719 C 3.066406 9.636719 1.507812 8.210938 1.734375 6.601562 C 1.914062 5.304688 3.199219 4.433594 4.476562 4.148438 C 5.75 3.867188 7.085938 4 8.378906 3.816406 C 10.003906 3.589844 11.515625 2.871094 13.019531 2.21875 C 14.523438 1.566406 16.101562 0.957031 17.742188 0.960938 C 19.382812 0.96875 21.117188 1.726562 21.855469 3.191406 C 22.292969 4.0625 22.335938 5.078125 22.679688 5.988281 C 23.320312 7.707031 24.902344 8.851562 26.171875 10.167969 C 27.449219 11.480469 28.503906 13.410156 27.765625 15.085938 C 26.960938 16.910156 24.558594 17.355469 23.191406 18.800781 C 21.914062 20.152344 21.535156 22.375 19.855469 23.167969 C 18.710938 23.707031 17.34375 23.363281 16.203125 22.820312 C 15.058594 22.277344 13.988281 21.539062 12.757812 21.261719 C 9.808594 20.605469 6.621094 22.214844 3.667969 21.1875 C 1.089844 20.28125 0.476562 16.496094 1.570312 14.296875 Z M 1.570312 14.296875 " fill-opacity="1" fill-rule="nonzero"/></g></g></g></g></g><g clip-path="url(#8207d4053f)"><path fill="#caddff" d="M 4.929688 20.917969 C 5.5625 22.445312 7.035156 23.167969 7.976562 23.632812 C 11.6875 25.453125 17.320312 25.246094 21.375 21.925781 C 22.324219 21.152344 27 17.085938 25.90625 11.574219 C 24.941406 6.703125 20.097656 3.871094 16.015625 3.492188 C 12.636719 3.179688 8.222656 4.40625 6.664062 7.375 C 5.6875 9.246094 6.863281 9.839844 6.066406 14.074219 C 5.375 17.738281 4.160156 19.050781 4.929688 20.917969 " fill-opacity="1" fill-rule="nonzero"/></g><path fill="#000000" d="M 8.144531 6.210938 C 8.125 6.210938 8.109375 6.191406 8.109375 6.171875 L 8.109375 5.972656 C 8.109375 5.949219 8.125 5.933594 8.144531 5.933594 C 8.167969 5.933594 8.183594 5.949219 8.183594 5.972656 L 8.183594 6.171875 C 8.183594 6.191406 8.167969 6.210938 8.144531 6.210938 " fill-opacity="1" fill-rule="nonzero"/><path fill="#000000" d="M 8.144531 6.675781 C 8.125 6.675781 8.109375 6.660156 8.109375 6.636719 L 8.109375 6.4375 C 8.109375 6.414062 8.125 6.398438 8.144531 6.398438 C 8.167969 6.398438 8.183594 6.414062 8.183594 6.4375 L 8.183594 6.636719 C 8.183594 6.660156 8.167969 6.675781 8.144531 6.675781 " fill-opacity="1" fill-rule="nonzero"/><path fill="#000000" d="M 8.011719 6.34375 L 7.8125 6.34375 C 7.792969 6.34375 7.773438 6.324219 7.773438 6.304688 C 7.773438 6.28125 7.792969 6.265625 7.8125 6.265625 L 8.011719 6.265625 C 8.035156 6.265625 8.050781 6.28125 8.050781 6.304688 C 8.050781 6.324219 8.035156 6.34375 8.011719 6.34375 " fill-opacity="1" fill-rule="nonzero"/><path fill="#000000" d="M 8.480469 6.34375 L 8.28125 6.34375 C 8.257812 6.34375 8.242188 6.324219 8.242188 6.304688 C 8.242188 6.28125 8.257812 6.265625 8.28125 6.265625 L 8.480469 6.265625 C 8.5 6.265625 8.519531 6.28125 8.519531 6.304688 C 8.519531 6.324219 8.5 6.34375 8.480469 6.34375 " fill-opacity="1" fill-rule="nonzero"/><path fill="#000000" d="M 25.085938 13.203125 C 25.066406 13.203125 25.050781 13.1875 25.050781 13.167969 L 25.019531 12.96875 C 25.019531 12.949219 25.03125 12.929688 25.054688 12.925781 C 25.074219 12.921875 25.09375 12.9375 25.097656 12.960938 L 25.125 13.15625 C 25.128906 13.179688 25.113281 13.199219 25.09375 13.203125 C 25.089844 13.203125 25.089844 13.203125 25.085938 13.203125 " fill-opacity="1" fill-rule="nonzero"/><path fill="#000000" d="M 25.152344 13.664062 C 25.132812 13.664062 25.117188 13.648438 25.113281 13.628906 L 25.085938 13.433594 C 25.082031 13.410156 25.097656 13.390625 25.117188 13.386719 C 25.140625 13.386719 25.160156 13.398438 25.164062 13.421875 L 25.191406 13.621094 C 25.191406 13.640625 25.179688 13.660156 25.15625 13.664062 C 25.15625 13.664062 25.152344 13.664062 25.152344 13.664062 " fill-opacity="1" fill-rule="nonzero"/><path fill="#000000" d="M 24.777344 13.378906 C 24.757812 13.378906 24.738281 13.367188 24.738281 13.347656 C 24.734375 13.324219 24.75 13.304688 24.769531 13.300781 L 24.96875 13.273438 C 24.988281 13.273438 25.007812 13.285156 25.011719 13.308594 C 25.015625 13.328125 25 13.347656 24.980469 13.351562 L 24.78125 13.378906 C 24.777344 13.378906 24.777344 13.378906 24.777344 13.378906 " fill-opacity="1" fill-rule="nonzero"/><path fill="#000000" d="M 25.238281 13.316406 C 25.21875 13.316406 25.203125 13.300781 25.199219 13.28125 C 25.195312 13.261719 25.210938 13.242188 25.230469 13.238281 L 25.429688 13.210938 C 25.449219 13.207031 25.46875 13.222656 25.472656 13.242188 C 25.476562 13.265625 25.460938 13.285156 25.441406 13.285156 L 25.242188 13.316406 C 25.242188 13.316406 25.238281 13.316406 25.238281 13.316406 " fill-opacity="1" fill-rule="nonzero"/><path fill="#000000" d="M 8.792969 5.359375 C 8.675781 5.410156 8.625 5.550781 8.675781 5.667969 C 8.699219 5.726562 8.746094 5.769531 8.804688 5.792969 C 8.859375 5.816406 8.921875 5.8125 8.976562 5.789062 C 9.09375 5.738281 9.144531 5.597656 9.09375 5.480469 C 9.070312 5.421875 9.023438 5.375 8.964844 5.355469 C 8.910156 5.332031 8.847656 5.335938 8.792969 5.359375 Z M 8.886719 5.886719 C 8.847656 5.886719 8.8125 5.878906 8.777344 5.867188 C 8.699219 5.835938 8.636719 5.777344 8.605469 5.699219 C 8.535156 5.542969 8.605469 5.359375 8.761719 5.289062 C 8.835938 5.253906 8.917969 5.253906 8.996094 5.28125 C 9.070312 5.3125 9.132812 5.371094 9.167969 5.449219 C 9.234375 5.605469 9.164062 5.789062 9.007812 5.859375 C 8.96875 5.878906 8.925781 5.886719 8.886719 5.886719 " fill-opacity="1" fill-rule="nonzero"/><path fill="#000000" d="M 25.261719 14.425781 Z M 25.332031 14.449219 C 25.316406 14.449219 25.296875 14.453125 25.277344 14.460938 C 25.207031 14.492188 25.175781 14.578125 25.207031 14.648438 C 25.222656 14.683594 25.25 14.710938 25.285156 14.722656 C 25.320312 14.738281 25.355469 14.734375 25.390625 14.71875 C 25.457031 14.6875 25.488281 14.605469 25.460938 14.535156 C 25.445312 14.5 25.417969 14.472656 25.382812 14.457031 C 25.367188 14.453125 25.351562 14.449219 25.332031 14.449219 Z M 25.332031 14.808594 C 25.308594 14.808594 25.28125 14.804688 25.257812 14.796875 C 25.203125 14.773438 25.160156 14.734375 25.136719 14.679688 C 25.089844 14.570312 25.136719 14.441406 25.246094 14.390625 C 25.296875 14.367188 25.355469 14.367188 25.410156 14.386719 C 25.464844 14.40625 25.507812 14.449219 25.53125 14.503906 C 25.578125 14.613281 25.527344 14.742188 25.421875 14.792969 C 25.390625 14.804688 25.363281 14.808594 25.332031 14.808594 " fill-opacity="1" fill-rule="nonzero"/><path fill="#2cb2f1" d="M 10.730469 23.964844 L 23.757812 23.964844 C 24.117188 23.964844 24.40625 23.691406 24.40625 23.355469 L 24.40625 6.25 C 24.398438 5.789062 24.164062 5.527344 23.757812 5.527344 L 10.730469 5.527344 C 10.40625 5.527344 10.132812 5.75 10.082031 6.050781 L 10.082031 23.355469 C 10.082031 23.691406 10.371094 23.964844 10.730469 23.964844 " fill-opacity="1" fill-rule="nonzero"/><path fill="#68cfff" d="M 10.355469 23.984375 L 23.382812 23.984375 C 23.742188 23.984375 24.035156 23.707031 24.035156 23.371094 L 24.03125 6.238281 C 24.023438 5.78125 23.789062 5.519531 23.382812 5.519531 L 10.351562 5.519531 C 10.03125 5.519531 9.757812 5.742188 9.703125 6.042969 L 9.703125 23.371094 C 9.703125 23.707031 9.996094 23.984375 10.355469 23.984375 " fill-opacity="1" fill-rule="nonzero"/><path fill="#000000" d="M 24.03125 6.753906 C 24.011719 6.753906 23.992188 6.734375 23.992188 6.714844 L 23.992188 6.238281 C 23.984375 5.800781 23.769531 5.558594 23.382812 5.558594 L 20.394531 5.558594 C 20.371094 5.558594 20.355469 5.542969 20.355469 5.519531 C 20.355469 5.5 20.371094 5.480469 20.394531 5.480469 L 23.382812 5.480469 C 23.8125 5.480469 24.0625 5.757812 24.070312 6.238281 L 24.070312 6.714844 C 24.070312 6.734375 24.054688 6.753906 24.03125 6.753906 " fill-opacity="1" fill-rule="nonzero"/><path fill="#000000" d="M 24.0625 23.019531 C 24.042969 23.019531 24.023438 23.003906 24.023438 22.984375 L 23.992188 10.359375 C 23.992188 10.335938 24.011719 10.320312 24.03125 10.320312 C 24.054688 10.320312 24.070312 10.335938 24.070312 10.359375 L 24.101562 22.980469 C 24.101562 23.003906 24.085938 23.019531 24.0625 23.019531 " fill-opacity="1" fill-rule="nonzero"/><path fill="#ffffff" d="M 10.839844 23.371094 L 22.894531 23.371094 C 23.226562 23.371094 23.496094 23.117188 23.496094 22.804688 L 23.496094 6.746094 C 23.488281 6.320312 23.269531 6.078125 22.894531 6.078125 L 10.839844 6.078125 C 10.542969 6.078125 10.289062 6.285156 10.242188 6.5625 L 10.242188 22.804688 C 10.242188 23.117188 10.511719 23.371094 10.839844 23.371094 " fill-opacity="1" fill-rule="nonzero"/><path fill="#68cfff" d="M 11.523438 9.664062 L 11.523438 12.074219 C 11.523438 12.085938 11.570312 12.121094 11.660156 12.121094 L 15.171875 12.121094 C 15.261719 12.121094 15.308594 12.085938 15.308594 12.074219 L 15.308594 9.683594 C 15.308594 9.628906 15.214844 9.621094 15.171875 9.621094 L 11.65625 9.621094 C 11.582031 9.621094 11.535156 9.648438 11.523438 9.664062 Z M 15.171875 12.195312 L 11.660156 12.195312 C 11.535156 12.195312 11.445312 12.144531 11.445312 12.074219 L 11.445312 9.65625 C 11.445312 9.652344 11.445312 9.648438 11.445312 9.644531 C 11.46875 9.574219 11.570312 9.542969 11.65625 9.542969 L 15.171875 9.542969 C 15.363281 9.542969 15.386719 9.640625 15.386719 9.679688 L 15.386719 12.074219 C 15.386719 12.144531 15.296875 12.195312 15.171875 12.195312 " fill-opacity="1" fill-rule="nonzero"/><path fill="#caddff" d="M 11.695312 13.621094 L 19.511719 13.621094 C 19.636719 13.621094 19.738281 13.519531 19.738281 13.394531 C 19.738281 13.269531 19.636719 13.167969 19.511719 13.167969 L 11.695312 13.167969 C 11.570312 13.167969 11.46875 13.269531 11.46875 13.394531 C 11.46875 13.519531 11.570312 13.621094 11.695312 13.621094 " fill-opacity="1" fill-rule="nonzero"/><path fill="#caddff" d="M 11.671875 14.675781 L 19.511719 14.675781 C 19.636719 14.675781 19.738281 14.574219 19.738281 14.449219 C 19.738281 14.324219 19.636719 14.222656 19.511719 14.222656 L 11.671875 14.222656 C 11.546875 14.222656 11.445312 14.324219 11.445312 14.449219 C 11.445312 14.574219 11.546875 14.675781 11.671875 14.675781 " fill-opacity="1" fill-rule="nonzero"/><path fill="#caddff" d="M 14.105469 16.15625 L 19.511719 16.15625 C 19.636719 16.15625 19.738281 16.054688 19.738281 15.929688 C 19.738281 15.804688 19.636719 15.703125 19.511719 15.703125 L 14.105469 15.703125 C 13.980469 15.703125 13.878906 15.804688 13.878906 15.929688 C 13.878906 16.054688 13.980469 16.15625 14.105469 16.15625 " fill-opacity="1" fill-rule="nonzero"/><path fill="#caddff" d="M 14.367188 17.210938 L 19.511719 17.210938 C 19.636719 17.210938 19.738281 17.109375 19.738281 16.984375 C 19.738281 16.859375 19.636719 16.757812 19.511719 16.757812 L 14.367188 16.757812 C 14.242188 16.757812 14.140625 16.859375 14.140625 16.984375 C 14.140625 17.109375 14.242188 17.210938 14.367188 17.210938 " fill-opacity="1" fill-rule="nonzero"/><path fill="#caddff" d="M 12.9375 18.691406 L 19.511719 18.691406 C 19.636719 18.691406 19.738281 18.589844 19.738281 18.464844 C 19.738281 18.339844 19.636719 18.242188 19.511719 18.242188 L 12.9375 18.242188 C 12.8125 18.242188 12.710938 18.339844 12.710938 18.464844 C 12.710938 18.589844 12.8125 18.691406 12.9375 18.691406 " fill-opacity="1" fill-rule="nonzero"/><path fill="#caddff" d="M 11.648438 19.746094 L 19.511719 19.746094 C 19.636719 19.746094 19.738281 19.644531 19.738281 19.519531 C 19.738281 19.394531 19.636719 19.292969 19.511719 19.292969 L 11.648438 19.292969 C 11.523438 19.292969 11.421875 19.394531 11.421875 19.519531 C 11.421875 19.644531 11.523438 19.746094 11.648438 19.746094 " fill-opacity="1" fill-rule="nonzero"/><path fill="#caddff" d="M 13.125 21.257812 L 19.511719 21.257812 C 19.636719 21.257812 19.738281 21.15625 19.738281 21.03125 C 19.738281 20.90625 19.636719 20.804688 19.511719 20.804688 L 13.125 20.804688 C 13 20.804688 12.898438 20.90625 12.898438 21.03125 C 12.898438 21.15625 13 21.257812 13.125 21.257812 " fill-opacity="1" fill-rule="nonzero"/><path fill="#caddff" d="M 12.570312 22.308594 L 19.511719 22.308594 C 19.636719 22.308594 19.738281 22.207031 19.738281 22.082031 C 19.738281 21.957031 19.636719 21.859375 19.511719 21.859375 L 12.570312 21.859375 C 12.445312 21.859375 12.34375 21.957031 12.34375 22.082031 C 12.34375 22.207031 12.445312 22.308594 12.570312 22.308594 " fill-opacity="1" fill-rule="nonzero"/><path fill="#caddff" d="M 16.117188 12.191406 L 22.242188 12.191406 C 22.347656 12.191406 22.433594 12.089844 22.433594 11.964844 C 22.433594 11.839844 22.347656 11.738281 22.242188 11.738281 L 16.117188 11.738281 C 16.011719 11.738281 15.925781 11.839844 15.925781 11.964844 C 15.925781 12.089844 16.011719 12.191406 16.117188 12.191406 " fill-opacity="1" fill-rule="nonzero"/><path fill="#caddff" d="M 16.109375 10.058594 L 22.234375 10.058594 C 22.339844 10.058594 22.425781 9.957031 22.425781 9.832031 C 22.425781 9.707031 22.339844 9.605469 22.234375 9.605469 L 16.109375 9.605469 C 16.003906 9.605469 15.917969 9.707031 15.917969 9.832031 C 15.917969 9.957031 16.003906 10.058594 16.109375 10.058594 " fill-opacity="1" fill-rule="nonzero"/><path fill="#caddff" d="M 16.117188 11.089844 L 22.242188 11.089844 C 22.347656 11.089844 22.433594 10.988281 22.433594 10.863281 C 22.433594 10.738281 22.347656 10.636719 22.242188 10.636719 L 16.117188 10.636719 C 16.011719 10.636719 15.925781 10.738281 15.925781 10.863281 C 15.925781 10.988281 16.011719 11.089844 16.117188 11.089844 " fill-opacity="1" fill-rule="nonzero"/><path fill="#68cfff" d="M 21.195312 13.222656 C 21.058594 13.222656 20.949219 13.335938 20.949219 13.472656 L 20.949219 14.378906 C 20.949219 14.515625 21.058594 14.628906 21.195312 14.628906 L 22.105469 14.628906 C 22.242188 14.628906 22.351562 14.515625 22.351562 14.378906 L 22.351562 13.472656 C 22.351562 13.335938 22.242188 13.222656 22.105469 13.222656 Z M 22.105469 14.703125 L 21.195312 14.703125 C 21.019531 14.703125 20.871094 14.558594 20.871094 14.378906 L 20.871094 13.472656 C 20.871094 13.292969 21.019531 13.148438 21.195312 13.148438 L 22.105469 13.148438 C 22.285156 13.148438 22.429688 13.292969 22.429688 13.472656 L 22.429688 14.378906 C 22.429688 14.558594 22.285156 14.703125 22.105469 14.703125 " fill-opacity="1" fill-rule="nonzero"/><path fill="#2cb2f1" d="M 21.507812 14.449219 C 21.496094 14.449219 21.484375 14.449219 21.472656 14.445312 C 21.402344 14.433594 21.347656 14.382812 21.324219 14.316406 L 21.144531 13.851562 C 21.117188 13.777344 21.152344 13.695312 21.226562 13.667969 C 21.296875 13.640625 21.378906 13.675781 21.410156 13.75 L 21.527344 14.058594 L 21.925781 13.417969 C 21.96875 13.351562 22.054688 13.332031 22.121094 13.375 C 22.1875 13.414062 22.210938 13.503906 22.167969 13.570312 L 21.664062 14.371094 L 21.660156 14.378906 C 21.621094 14.421875 21.566406 14.449219 21.507812 14.449219 " fill-opacity="1" fill-rule="nonzero"/><path fill="#68cfff" d="M 21.195312 15.761719 C 21.058594 15.761719 20.949219 15.871094 20.949219 16.007812 L 20.949219 16.914062 C 20.949219 17.054688 21.058594 17.164062 21.195312 17.164062 L 22.105469 17.164062 C 22.242188 17.164062 22.351562 17.054688 22.351562 16.914062 L 22.351562 16.007812 C 22.351562 15.871094 22.242188 15.761719 22.105469 15.761719 Z M 22.105469 17.242188 L 21.195312 17.242188 C 21.019531 17.242188 20.871094 17.09375 20.871094 16.914062 L 20.871094 16.007812 C 20.871094 15.828125 21.019531 15.683594 21.195312 15.683594 L 22.105469 15.683594 C 22.285156 15.683594 22.429688 15.828125 22.429688 16.007812 L 22.429688 16.914062 C 22.429688 17.09375 22.285156 17.242188 22.105469 17.242188 " fill-opacity="1" fill-rule="nonzero"/><path fill="#2cb2f1" d="M 21.507812 17.011719 C 21.496094 17.011719 21.484375 17.007812 21.472656 17.007812 C 21.402344 16.996094 21.347656 16.945312 21.324219 16.878906 L 21.144531 16.414062 C 21.117188 16.339844 21.152344 16.257812 21.226562 16.230469 C 21.296875 16.203125 21.378906 16.238281 21.410156 16.3125 L 21.527344 16.621094 L 21.925781 15.980469 C 21.96875 15.914062 22.054688 15.894531 22.121094 15.9375 C 22.1875 15.976562 22.210938 16.066406 22.167969 16.132812 L 21.664062 16.933594 L 21.660156 16.9375 C 21.621094 16.984375 21.566406 17.011719 21.507812 17.011719 " fill-opacity="1" fill-rule="nonzero"/><path fill="#68cfff" d="M 21.195312 18.296875 C 21.058594 18.296875 20.949219 18.410156 20.949219 18.546875 L 20.949219 19.453125 C 20.949219 19.589844 21.058594 19.699219 21.195312 19.699219 L 22.105469 19.699219 C 22.242188 19.699219 22.351562 19.589844 22.351562 19.453125 L 22.351562 18.546875 C 22.351562 18.410156 22.242188 18.296875 22.105469 18.296875 Z M 22.105469 19.777344 L 21.195312 19.777344 C 21.019531 19.777344 20.871094 19.632812 20.871094 19.453125 L 20.871094 18.546875 C 20.871094 18.367188 21.019531 18.21875 21.195312 18.21875 L 22.105469 18.21875 C 22.285156 18.21875 22.429688 18.367188 22.429688 18.546875 L 22.429688 19.453125 C 22.429688 19.632812 22.285156 19.777344 22.105469 19.777344 " fill-opacity="1" fill-rule="nonzero"/><path fill="#2cb2f1" d="M 21.507812 19.574219 C 21.496094 19.574219 21.484375 19.570312 21.472656 19.570312 C 21.402344 19.554688 21.347656 19.507812 21.324219 19.441406 L 21.144531 18.972656 C 21.117188 18.902344 21.152344 18.820312 21.226562 18.792969 C 21.296875 18.761719 21.378906 18.800781 21.410156 18.871094 L 21.527344 19.179688 L 21.925781 18.542969 C 21.96875 18.476562 22.054688 18.457031 22.121094 18.496094 C 22.1875 18.539062 22.210938 18.625 22.167969 18.691406 L 21.664062 19.492188 L 21.660156 19.5 C 21.621094 19.546875 21.566406 19.574219 21.507812 19.574219 " fill-opacity="1" fill-rule="nonzero"/><path fill="#2cb2f1" d="M 13.035156 8.402344 C 13.03125 8.484375 13.011719 8.554688 12.972656 8.617188 C 12.929688 8.679688 12.875 8.726562 12.800781 8.761719 C 12.730469 8.796875 12.648438 8.8125 12.554688 8.8125 C 12.402344 8.8125 12.28125 8.761719 12.191406 8.664062 C 12.105469 8.5625 12.058594 8.421875 12.058594 8.238281 L 12.058594 8.183594 C 12.058594 8.066406 12.078125 7.96875 12.121094 7.882812 C 12.160156 7.796875 12.214844 7.730469 12.292969 7.683594 C 12.367188 7.636719 12.453125 7.613281 12.550781 7.613281 C 12.691406 7.613281 12.804688 7.652344 12.890625 7.726562 C 12.976562 7.800781 13.027344 7.902344 13.039062 8.035156 L 12.757812 8.035156 C 12.757812 7.960938 12.738281 7.910156 12.703125 7.878906 C 12.671875 7.847656 12.621094 7.832031 12.550781 7.832031 C 12.480469 7.832031 12.429688 7.859375 12.398438 7.914062 C 12.363281 7.964844 12.347656 8.046875 12.347656 8.164062 L 12.347656 8.246094 C 12.347656 8.371094 12.363281 8.457031 12.394531 8.511719 C 12.425781 8.566406 12.476562 8.59375 12.554688 8.59375 C 12.617188 8.59375 12.667969 8.578125 12.703125 8.546875 C 12.738281 8.515625 12.753906 8.46875 12.757812 8.402344 L 13.035156 8.402344 " fill-opacity="1" fill-rule="nonzero"/><path fill="#2cb2f1" d="M 13.449219 8.582031 L 13.941406 8.582031 L 13.941406 8.796875 L 13.167969 8.796875 L 13.167969 7.628906 L 13.449219 7.628906 L 13.449219 8.582031 " fill-opacity="1" fill-rule="nonzero"/><path fill="#2cb2f1" d="M 14.417969 8.363281 L 14.667969 8.363281 L 14.542969 7.957031 Z M 14.734375 8.578125 L 14.351562 8.578125 L 14.285156 8.796875 L 13.984375 8.796875 L 14.410156 7.628906 L 14.675781 7.628906 L 15.105469 8.796875 L 14.804688 8.796875 L 14.734375 8.578125 " fill-opacity="1" fill-rule="nonzero"/><path fill="#2cb2f1" d="M 15.492188 8.796875 L 15.210938 8.796875 L 15.210938 7.628906 L 15.492188 7.628906 L 15.492188 8.796875 " fill-opacity="1" fill-rule="nonzero"/><path fill="#2cb2f1" d="M 16.054688 7.628906 L 16.316406 8.441406 L 16.574219 7.628906 L 16.945312 7.628906 L 16.945312 8.796875 L 16.664062 8.796875 L 16.664062 8.523438 L 16.691406 7.96875 L 16.410156 8.796875 L 16.222656 8.796875 L 15.941406 7.964844 L 15.96875 8.523438 L 15.96875 8.796875 L 15.6875 8.796875 L 15.6875 7.628906 L 16.054688 7.628906 " fill-opacity="1" fill-rule="nonzero"/><path fill="#2cb2f1" d="M 18.265625 8.332031 L 17.8125 8.332031 L 17.8125 8.796875 L 17.53125 8.796875 L 17.53125 7.628906 L 18.3125 7.628906 L 18.3125 7.847656 L 17.8125 7.847656 L 17.8125 8.117188 L 18.265625 8.117188 L 18.265625 8.332031 " fill-opacity="1" fill-rule="nonzero"/><path fill="#2cb2f1" d="M 19.132812 8.1875 C 19.132812 8.074219 19.113281 7.984375 19.074219 7.925781 C 19.035156 7.863281 18.980469 7.835938 18.90625 7.835938 C 18.765625 7.835938 18.691406 7.941406 18.683594 8.152344 L 18.683594 8.238281 C 18.683594 8.351562 18.703125 8.441406 18.738281 8.5 C 18.777344 8.5625 18.832031 8.59375 18.910156 8.59375 C 18.980469 8.59375 19.035156 8.5625 19.074219 8.503906 C 19.109375 8.441406 19.128906 8.355469 19.132812 8.242188 Z M 19.417969 8.238281 C 19.417969 8.351562 19.394531 8.453125 19.355469 8.539062 C 19.3125 8.628906 19.25 8.695312 19.175781 8.742188 C 19.097656 8.789062 19.007812 8.8125 18.910156 8.8125 C 18.808594 8.8125 18.722656 8.789062 18.644531 8.746094 C 18.566406 8.699219 18.507812 8.632812 18.464844 8.546875 C 18.421875 8.464844 18.398438 8.367188 18.398438 8.257812 L 18.398438 8.191406 C 18.398438 8.074219 18.417969 7.976562 18.460938 7.886719 C 18.5 7.800781 18.5625 7.734375 18.640625 7.6875 C 18.71875 7.636719 18.808594 7.613281 18.90625 7.613281 C 19.003906 7.613281 19.09375 7.636719 19.171875 7.683594 C 19.25 7.730469 19.308594 7.796875 19.351562 7.886719 C 19.394531 7.972656 19.417969 8.070312 19.417969 8.183594 L 19.417969 8.238281 " fill-opacity="1" fill-rule="nonzero"/><path fill="#2cb2f1" d="M 19.84375 8.167969 L 20.019531 8.167969 C 20.074219 8.167969 20.113281 8.152344 20.140625 8.125 C 20.167969 8.097656 20.183594 8.058594 20.183594 8.007812 C 20.183594 7.957031 20.167969 7.917969 20.140625 7.890625 C 20.113281 7.859375 20.074219 7.847656 20.019531 7.847656 L 19.84375 7.847656 Z M 19.996094 8.382812 L 19.84375 8.382812 L 19.84375 8.796875 L 19.5625 8.796875 L 19.5625 7.628906 L 20.019531 7.628906 C 20.160156 7.628906 20.269531 7.660156 20.34375 7.722656 C 20.421875 7.785156 20.460938 7.871094 20.460938 7.984375 C 20.460938 8.0625 20.445312 8.128906 20.414062 8.183594 C 20.378906 8.238281 20.328125 8.28125 20.257812 8.3125 L 20.503906 8.785156 L 20.503906 8.796875 L 20.203125 8.796875 L 19.996094 8.382812 " fill-opacity="1" fill-rule="nonzero"/><path fill="#2cb2f1" d="M 21 7.628906 L 21.261719 8.441406 L 21.523438 7.628906 L 21.890625 7.628906 L 21.890625 8.796875 L 21.609375 8.796875 L 21.609375 8.523438 L 21.636719 7.96875 L 21.355469 8.796875 L 21.167969 8.796875 L 20.886719 7.964844 L 20.914062 8.523438 L 20.914062 8.796875 L 20.632812 8.796875 L 20.632812 7.628906 L 21 7.628906 " fill-opacity="1" fill-rule="nonzero"/><path fill="#68cfff" d="M 14.125 6.714844 L 19.976562 6.714844 C 20.042969 6.714844 20.09375 6.664062 20.09375 6.601562 L 20.09375 5.019531 C 20.09375 4.957031 20.042969 4.90625 19.976562 4.90625 L 14.125 4.90625 C 14.0625 4.90625 14.011719 4.957031 14.011719 5.019531 L 14.011719 6.601562 C 14.011719 6.664062 14.0625 6.714844 14.125 6.714844 " fill-opacity="1" fill-rule="nonzero"/><path fill="#000000" d="M 14.265625 4.945312 C 14.144531 4.945312 14.050781 5.039062 14.050781 5.160156 L 14.050781 6.460938 C 14.050781 6.578125 14.144531 6.675781 14.265625 6.675781 L 19.839844 6.675781 C 19.957031 6.675781 20.054688 6.578125 20.054688 6.460938 L 20.054688 5.160156 C 20.054688 5.039062 19.957031 4.945312 19.839844 4.945312 Z M 19.839844 6.753906 L 14.265625 6.753906 C 14.105469 6.753906 13.972656 6.621094 13.972656 6.460938 L 13.972656 5.160156 C 13.972656 4.996094 14.105469 4.867188 14.265625 4.867188 L 19.839844 4.867188 C 20 4.867188 20.132812 4.996094 20.132812 5.160156 L 20.132812 6.460938 C 20.132812 6.621094 20 6.753906 19.839844 6.753906 " fill-opacity="1" fill-rule="nonzero"/><g clip-path="url(#9b2954bb69)"><path fill="#68cfff" d="M 17.105469 4.867188 C 16.832031 4.902344 16.597656 4.667969 16.632812 4.390625 C 16.65625 4.203125 16.808594 4.050781 16.996094 4.027344 C 17.273438 3.992188 17.507812 4.226562 17.472656 4.503906 C 17.449219 4.691406 17.296875 4.84375 17.105469 4.867188 Z M 17.050781 3.441406 C 16.472656 3.441406 16.011719 3.90625 16.011719 4.480469 L 16.011719 6.042969 C 16.011719 6.183594 16.125 6.296875 16.265625 6.296875 L 17.835938 6.296875 C 17.972656 6.296875 18.089844 6.183594 18.089844 6.042969 L 18.089844 4.480469 C 18.089844 3.90625 17.625 3.441406 17.050781 3.441406 " fill-opacity="1" fill-rule="nonzero"/></g><g clip-path="url(#aa039a51d8)"><path fill="#000000" d="M 17.050781 4.0625 C 17.035156 4.0625 17.019531 4.0625 17.003906 4.066406 C 16.832031 4.085938 16.691406 4.226562 16.671875 4.398438 C 16.65625 4.515625 16.695312 4.632812 16.78125 4.71875 C 16.863281 4.804688 16.980469 4.84375 17.101562 4.828125 C 17.273438 4.808594 17.410156 4.667969 17.433594 4.496094 C 17.449219 4.378906 17.410156 4.261719 17.324219 4.175781 C 17.25 4.101562 17.152344 4.0625 17.050781 4.0625 Z M 17.105469 4.867188 Z M 17.050781 4.910156 C 16.929688 4.910156 16.8125 4.859375 16.726562 4.773438 C 16.625 4.671875 16.578125 4.53125 16.59375 4.386719 C 16.621094 4.183594 16.789062 4.015625 16.992188 3.988281 C 17.136719 3.972656 17.277344 4.019531 17.378906 4.121094 C 17.480469 4.222656 17.527344 4.363281 17.511719 4.507812 C 17.484375 4.710938 17.316406 4.878906 17.113281 4.90625 C 17.09375 4.90625 17.070312 4.910156 17.050781 4.910156 Z M 17.050781 3.480469 C 16.496094 3.480469 16.050781 3.929688 16.050781 4.480469 L 16.050781 6.042969 C 16.050781 6.160156 16.144531 6.257812 16.265625 6.257812 L 17.835938 6.257812 C 17.953125 6.257812 18.050781 6.160156 18.050781 6.042969 L 18.050781 4.480469 C 18.050781 3.929688 17.601562 3.480469 17.050781 3.480469 Z M 17.835938 6.335938 L 16.265625 6.335938 C 16.101562 6.335938 15.972656 6.203125 15.972656 6.042969 L 15.972656 4.480469 C 15.972656 3.886719 16.453125 3.402344 17.050781 3.402344 C 17.644531 3.402344 18.125 3.886719 18.125 4.480469 L 18.125 6.042969 C 18.125 6.203125 17.996094 6.335938 17.835938 6.335938 " fill-opacity="1" fill-rule="nonzero"/></g><path fill="#000000" d="M 18.71875 14.632812 C 18.71875 15.738281 17.824219 16.628906 16.722656 16.628906 C 15.617188 16.628906 14.726562 15.734375 14.726562 14.632812 C 14.726562 13.527344 15.621094 12.636719 16.722656 12.636719 C 17.828125 12.636719 18.71875 13.53125 18.71875 14.632812 " fill-opacity="1" fill-rule="nonzero"/><path fill="#68cfff" d="M 18.746094 14.574219 C 18.746094 15.644531 17.875 16.511719 16.808594 16.511719 C 15.738281 16.511719 14.871094 15.640625 14.871094 14.570312 C 14.871094 13.503906 15.738281 12.636719 16.808594 12.636719 C 17.878906 12.636719 18.746094 13.503906 18.746094 14.574219 " fill-opacity="1" fill-rule="nonzero"/><path fill="#000000" d="M 16.808594 12.675781 C 16.300781 12.675781 15.824219 12.871094 15.464844 13.230469 C 15.105469 13.589844 14.910156 14.066406 14.910156 14.570312 C 14.910156 15.621094 15.757812 16.472656 16.808594 16.472656 C 17.855469 16.472656 18.707031 15.621094 18.707031 14.574219 C 18.707031 14.066406 18.507812 13.589844 18.152344 13.230469 C 17.792969 12.871094 17.316406 12.675781 16.808594 12.675781 Z M 16.808594 16.550781 C 16.808594 16.550781 16.808594 16.550781 16.804688 16.550781 C 15.71875 16.546875 14.832031 15.660156 14.832031 14.570312 C 14.832031 14.042969 15.039062 13.546875 15.410156 13.175781 C 15.785156 12.800781 16.28125 12.597656 16.808594 12.597656 C 17.335938 12.597656 17.832031 12.804688 18.207031 13.175781 C 18.578125 13.550781 18.785156 14.046875 18.785156 14.574219 C 18.785156 15.664062 17.898438 16.550781 16.808594 16.550781 " fill-opacity="1" fill-rule="nonzero"/><path fill="#ffffff" d="M 18.433594 14.574219 C 18.433594 15.472656 17.703125 16.199219 16.808594 16.199219 C 15.910156 16.199219 15.179688 15.46875 15.183594 14.574219 C 15.183594 13.675781 15.910156 12.945312 16.808594 12.949219 C 17.707031 12.949219 18.433594 13.675781 18.433594 14.574219 " fill-opacity="1" fill-rule="nonzero"/><path fill="#000000" d="M 18.175781 15.492188 C 18.167969 15.492188 18.160156 15.492188 18.152344 15.488281 C 18.136719 15.476562 18.128906 15.453125 18.140625 15.433594 C 18.222656 15.304688 18.289062 15.167969 18.332031 15.023438 C 18.335938 15.003906 18.359375 14.992188 18.378906 14.996094 C 18.398438 15.003906 18.410156 15.023438 18.40625 15.046875 C 18.359375 15.195312 18.292969 15.34375 18.207031 15.476562 C 18.199219 15.488281 18.1875 15.492188 18.175781 15.492188 " fill-opacity="1" fill-rule="nonzero"/><path fill="#000000" d="M 18.273438 13.902344 C 18.257812 13.902344 18.242188 13.894531 18.238281 13.882812 C 17.96875 13.328125 17.421875 12.988281 16.808594 12.984375 C 16.304688 12.984375 15.824219 13.230469 15.527344 13.636719 C 15.515625 13.652344 15.492188 13.65625 15.472656 13.644531 C 15.457031 13.628906 15.453125 13.605469 15.464844 13.589844 C 15.777344 13.164062 16.28125 12.910156 16.808594 12.910156 C 17.441406 12.910156 18.03125 13.277344 18.304688 13.847656 C 18.316406 13.867188 18.308594 13.890625 18.289062 13.898438 C 18.28125 13.902344 18.277344 13.902344 18.273438 13.902344 " fill-opacity="1" fill-rule="nonzero"/><path fill="#000000" d="M 16.808594 16.238281 C 16.363281 16.238281 15.945312 16.0625 15.628906 15.75 C 15.316406 15.433594 15.144531 15.015625 15.144531 14.574219 C 15.144531 14.289062 15.21875 14.007812 15.355469 13.757812 C 15.367188 13.742188 15.390625 13.734375 15.410156 13.746094 C 15.425781 13.753906 15.433594 13.777344 15.421875 13.796875 C 15.289062 14.03125 15.222656 14.300781 15.21875 14.574219 C 15.21875 14.996094 15.386719 15.394531 15.683594 15.695312 C 15.984375 15.996094 16.382812 16.160156 16.808594 16.160156 C 16.828125 16.160156 16.84375 16.179688 16.84375 16.199219 C 16.84375 16.21875 16.828125 16.238281 16.808594 16.238281 " fill-opacity="1" fill-rule="nonzero"/><path fill="#2cb2f1" d="M 16.65625 15.722656 L 16.65625 15.453125 C 16.46875 15.445312 16.285156 15.394531 16.179688 15.332031 L 16.265625 15.003906 C 16.382812 15.066406 16.546875 15.128906 16.730469 15.128906 C 16.890625 15.128906 17 15.066406 17 14.953125 C 17 14.847656 16.910156 14.777344 16.703125 14.707031 C 16.402344 14.605469 16.199219 14.464844 16.199219 14.191406 C 16.199219 13.945312 16.371094 13.75 16.671875 13.691406 L 16.671875 13.425781 L 16.949219 13.425781 L 16.949219 13.671875 C 17.136719 13.679688 17.265625 13.722656 17.355469 13.765625 L 17.273438 14.085938 C 17.203125 14.054688 17.074219 13.988281 16.871094 13.988281 C 16.6875 13.988281 16.628906 14.066406 16.628906 14.144531 C 16.628906 14.238281 16.726562 14.296875 16.964844 14.386719 C 17.300781 14.507812 17.433594 14.660156 17.433594 14.914062 C 17.433594 15.164062 17.257812 15.378906 16.933594 15.433594 L 16.933594 15.722656 L 16.65625 15.722656 " fill-opacity="1" fill-rule="nonzero"/><path fill="#000000" d="M 20.9375 11.882812 C 20.945312 12.648438 20.335938 13.277344 19.570312 13.289062 C 18.808594 13.300781 18.179688 12.6875 18.167969 11.925781 C 18.15625 11.160156 18.769531 10.53125 19.53125 10.519531 C 20.296875 10.511719 20.925781 11.121094 20.9375 11.882812 " fill-opacity="1" fill-rule="nonzero"/><path fill="#68cfff" d="M 20.953125 11.84375 C 20.964844 12.585938 20.371094 13.195312 19.628906 13.207031 C 18.886719 13.214844 18.277344 12.625 18.269531 11.882812 C 18.257812 11.140625 18.851562 10.53125 19.589844 10.519531 C 20.332031 10.507812 20.941406 11.101562 20.953125 11.84375 " fill-opacity="1" fill-rule="nonzero"/><path fill="#000000" d="M 19.609375 10.558594 C 19.605469 10.558594 19.597656 10.558594 19.589844 10.558594 C 18.871094 10.570312 18.296875 11.164062 18.308594 11.882812 C 18.3125 12.230469 18.453125 12.554688 18.703125 12.796875 C 18.953125 13.039062 19.28125 13.171875 19.628906 13.167969 C 19.976562 13.160156 20.304688 13.019531 20.546875 12.769531 C 20.789062 12.523438 20.917969 12.191406 20.914062 11.84375 C 20.910156 11.496094 20.769531 11.171875 20.519531 10.925781 C 20.273438 10.6875 19.953125 10.558594 19.609375 10.558594 Z M 19.609375 13.242188 C 19.25 13.242188 18.90625 13.105469 18.648438 12.851562 C 18.382812 12.597656 18.234375 12.25 18.230469 11.882812 C 18.21875 11.121094 18.828125 10.492188 19.589844 10.480469 C 19.960938 10.476562 20.308594 10.613281 20.574219 10.871094 C 20.835938 11.128906 20.988281 11.472656 20.992188 11.84375 C 20.996094 12.210938 20.859375 12.5625 20.601562 12.824219 C 20.34375 13.089844 20 13.238281 19.628906 13.242188 C 19.625 13.242188 19.617188 13.242188 19.609375 13.242188 " fill-opacity="1" fill-rule="nonzero"/><path fill="#ffffff" d="M 20.738281 11.847656 C 20.746094 12.46875 20.25 12.980469 19.625 12.988281 C 19.003906 13 18.492188 12.5 18.484375 11.878906 C 18.476562 11.257812 18.972656 10.746094 19.59375 10.734375 C 20.214844 10.726562 20.726562 11.222656 20.738281 11.847656 " fill-opacity="1" fill-rule="nonzero"/><path fill="#000000" d="M 20.566406 12.5 C 20.558594 12.5 20.550781 12.496094 20.546875 12.492188 C 20.527344 12.480469 20.523438 12.457031 20.535156 12.4375 C 20.589844 12.351562 20.632812 12.253906 20.660156 12.15625 C 20.664062 12.132812 20.6875 12.121094 20.707031 12.128906 C 20.726562 12.132812 20.738281 12.15625 20.734375 12.175781 C 20.703125 12.28125 20.660156 12.386719 20.597656 12.480469 C 20.59375 12.492188 20.578125 12.5 20.566406 12.5 " fill-opacity="1" fill-rule="nonzero"/><path fill="#000000" d="M 20.617188 11.394531 C 20.605469 11.394531 20.589844 11.386719 20.582031 11.375 C 20.394531 11 20.015625 10.769531 19.59375 10.773438 C 19.25 10.78125 18.925781 10.949219 18.722656 11.234375 C 18.710938 11.25 18.6875 11.253906 18.667969 11.242188 C 18.652344 11.230469 18.648438 11.207031 18.660156 11.1875 C 18.875 10.886719 19.222656 10.703125 19.59375 10.695312 C 20.035156 10.691406 20.453125 10.941406 20.652344 11.339844 C 20.660156 11.359375 20.652344 11.382812 20.636719 11.390625 C 20.628906 11.394531 20.625 11.394531 20.617188 11.394531 " fill-opacity="1" fill-rule="nonzero"/><path fill="#000000" d="M 19.609375 13.027344 C 18.976562 13.027344 18.453125 12.515625 18.445312 11.878906 C 18.441406 11.679688 18.492188 11.480469 18.585938 11.308594 C 18.597656 11.289062 18.621094 11.28125 18.636719 11.292969 C 18.65625 11.300781 18.664062 11.324219 18.652344 11.34375 C 18.566406 11.507812 18.519531 11.691406 18.523438 11.878906 C 18.53125 12.472656 19.019531 12.949219 19.609375 12.949219 C 19.617188 12.949219 19.621094 12.949219 19.625 12.949219 C 19.648438 12.949219 19.664062 12.96875 19.664062 12.988281 C 19.664062 13.011719 19.648438 13.027344 19.628906 13.027344 C 19.621094 13.027344 19.617188 13.027344 19.609375 13.027344 " fill-opacity="1" fill-rule="nonzero"/><path fill="#2cb2f1" d="M 19.519531 12.660156 L 19.515625 12.472656 C 19.386719 12.46875 19.257812 12.4375 19.183594 12.394531 L 19.238281 12.167969 C 19.320312 12.210938 19.4375 12.25 19.5625 12.246094 C 19.675781 12.246094 19.75 12.203125 19.75 12.125 C 19.746094 12.050781 19.683594 12.003906 19.539062 11.957031 C 19.332031 11.890625 19.1875 11.792969 19.183594 11.605469 C 19.179688 11.433594 19.300781 11.296875 19.507812 11.253906 L 19.503906 11.070312 L 19.695312 11.066406 L 19.699219 11.238281 C 19.828125 11.242188 19.917969 11.265625 19.984375 11.296875 L 19.929688 11.519531 C 19.878906 11.5 19.789062 11.453125 19.648438 11.457031 C 19.519531 11.457031 19.480469 11.511719 19.480469 11.566406 C 19.484375 11.632812 19.550781 11.671875 19.71875 11.730469 C 19.949219 11.8125 20.046875 11.917969 20.046875 12.09375 C 20.050781 12.265625 19.929688 12.414062 19.707031 12.457031 L 19.710938 12.65625 L 19.519531 12.660156 " fill-opacity="1" fill-rule="nonzero"/><path fill="#2cb2f1" d="M 13.199219 14.863281 L 12.640625 13.496094 C 12.621094 13.445312 12.667969 13.398438 12.71875 13.414062 L 14.597656 14.117188 C 14.644531 14.132812 14.648438 14.203125 14.601562 14.226562 L 13.285156 14.894531 C 13.253906 14.914062 13.214844 14.898438 13.199219 14.863281 " fill-opacity="1" fill-rule="nonzero"/><path fill="#2cb2f1" d="M 17.542969 12.378906 C 17.546875 12.378906 17.554688 12.382812 17.5625 12.382812 C 17.578125 12.378906 17.585938 12.371094 17.585938 12.359375 C 17.585938 12.355469 17.582031 12.351562 17.578125 12.347656 C 17.035156 12.0625 16.34375 11.929688 15.605469 12.011719 C 14.105469 12.183594 12.976562 13.183594 13.007812 14.289062 L 14.246094 14.113281 C 14.144531 13.226562 15.027344 12.34375 16.222656 12.210938 C 16.703125 12.15625 17.160156 12.222656 17.542969 12.378906 " fill-opacity="1" fill-rule="nonzero"/><path fill="#ffffff" d="M 15.472656 20.964844 C 15.472656 20.964844 11.910156 14.753906 11.417969 14.453125 C 10.929688 14.15625 11.417969 17.300781 11.417969 17.300781 L 14.082031 21.742188 L 15.472656 20.964844 " fill-opacity="1" fill-rule="nonzero"/><path fill="#000000" d="M 11.457031 17.289062 L 14.09375 21.691406 L 15.421875 20.949219 C 14.183594 18.796875 11.777344 14.71875 11.398438 14.488281 C 11.359375 14.464844 11.34375 14.476562 11.339844 14.480469 C 11.128906 14.621094 11.296875 16.273438 11.457031 17.289062 Z M 14.082031 21.78125 C 14.066406 21.78125 14.054688 21.777344 14.046875 21.765625 L 11.386719 17.320312 C 11.382812 17.316406 11.382812 17.3125 11.382812 17.308594 C 11.378906 17.300781 11.277344 16.636719 11.214844 15.957031 C 11.082031 14.558594 11.242188 14.449219 11.296875 14.414062 C 11.324219 14.394531 11.375 14.382812 11.441406 14.421875 C 11.933594 14.722656 15.363281 20.691406 15.507812 20.945312 C 15.511719 20.957031 15.515625 20.964844 15.511719 20.976562 C 15.507812 20.984375 15.5 20.996094 15.492188 21 L 14.101562 21.777344 C 14.09375 21.78125 14.085938 21.78125 14.082031 21.78125 " fill-opacity="1" fill-rule="nonzero"/><path fill="#2cb2f1" d="M 6.15625 14.328125 C 6.15625 14.328125 8.601562 13.128906 11.417969 14.453125 C 11.417969 14.453125 13.832031 22.59375 14.003906 23.441406 C 14.171875 24.285156 13.363281 24.675781 12.277344 24.503906 C 11.1875 24.328125 9.179688 24.542969 7.152344 24.808594 C 5.882812 24.976562 5.835938 23.625 5.960938 22.617188 C 6.085938 21.613281 6.15625 14.328125 6.15625 14.328125 " fill-opacity="1" fill-rule="nonzero"/><path fill="#000000" d="M 6.195312 14.355469 C 6.191406 14.820312 6.121094 21.65625 6 22.625 C 5.917969 23.277344 5.90625 24.144531 6.3125 24.550781 C 6.511719 24.746094 6.789062 24.820312 7.144531 24.773438 C 9.054688 24.519531 11.15625 24.285156 12.28125 24.464844 C 12.945312 24.570312 13.507812 24.460938 13.789062 24.167969 C 13.964844 23.984375 14.023438 23.742188 13.964844 23.449219 C 13.800781 22.628906 11.511719 14.894531 11.386719 14.484375 C 9.949219 13.808594 8.609375 13.8125 7.742188 13.933594 C 6.894531 14.050781 6.3125 14.300781 6.195312 14.355469 Z M 6.945312 24.863281 C 6.664062 24.863281 6.433594 24.777344 6.257812 24.605469 C 5.828125 24.175781 5.835938 23.285156 5.921875 22.613281 C 6.046875 21.621094 6.117188 14.402344 6.121094 14.328125 C 6.121094 14.3125 6.128906 14.300781 6.140625 14.292969 C 6.148438 14.292969 6.769531 13.992188 7.726562 13.855469 C 8.609375 13.734375 9.972656 13.730469 11.4375 14.421875 C 11.445312 14.425781 11.453125 14.433594 11.457031 14.445312 C 11.480469 14.527344 13.871094 22.59375 14.039062 23.433594 C 14.105469 23.75 14.035156 24.023438 13.84375 24.222656 C 13.542969 24.535156 12.96875 24.652344 12.269531 24.539062 C 11.152344 24.363281 9.058594 24.597656 7.15625 24.847656 C 7.082031 24.859375 7.011719 24.863281 6.945312 24.863281 " fill-opacity="1" fill-rule="nonzero"/><path fill="#ffffff" d="M 6.359375 20.863281 L 9.851562 18.785156 L 11.746094 19.417969 C 11.746094 19.417969 11.578125 19.601562 11.308594 19.511719 C 11.039062 19.421875 10.660156 19.449219 10.390625 19.667969 C 10.121094 19.890625 9.753906 19.667969 9.753906 19.667969 C 9.753906 19.667969 7.535156 22.953125 5.582031 23.023438 C 3.992188 23.078125 4.859375 17.492188 5.238281 15.402344 C 5.328125 14.921875 5.660156 14.523438 6.117188 14.347656 L 6.703125 14.125 L 6.359375 20.863281 " fill-opacity="1" fill-rule="nonzero"/><path fill="#000000" d="M 6.660156 14.179688 L 6.132812 14.382812 C 5.691406 14.550781 5.363281 14.945312 5.277344 15.410156 C 4.9375 17.28125 4.238281 21.75 5.128906 22.78125 C 5.253906 22.921875 5.402344 22.988281 5.578125 22.984375 C 6.578125 22.949219 7.648438 22.046875 8.371094 21.292969 C 9.160156 20.476562 9.71875 19.65625 9.722656 19.648438 C 9.734375 19.628906 9.757812 19.625 9.773438 19.636719 C 9.777344 19.636719 10.121094 19.839844 10.367188 19.636719 C 10.652344 19.402344 11.054688 19.386719 11.320312 19.476562 C 11.484375 19.527344 11.605469 19.476562 11.667969 19.433594 L 9.855469 18.824219 L 6.378906 20.898438 C 6.367188 20.90625 6.351562 20.90625 6.339844 20.898438 C 6.328125 20.890625 6.320312 20.875 6.320312 20.863281 Z M 5.558594 23.0625 C 5.367188 23.0625 5.203125 22.984375 5.070312 22.828125 C 4.160156 21.773438 4.859375 17.28125 5.203125 15.394531 C 5.292969 14.90625 5.636719 14.488281 6.105469 14.3125 L 6.6875 14.089844 C 6.699219 14.082031 6.714844 14.085938 6.726562 14.09375 C 6.734375 14.101562 6.742188 14.113281 6.742188 14.125 L 6.402344 20.792969 L 9.832031 18.75 C 9.839844 18.746094 9.851562 18.742188 9.863281 18.746094 L 11.757812 19.382812 C 11.769531 19.386719 11.78125 19.394531 11.785156 19.410156 C 11.785156 19.421875 11.785156 19.433594 11.773438 19.445312 C 11.765625 19.453125 11.589844 19.644531 11.296875 19.550781 C 11.050781 19.46875 10.679688 19.480469 10.414062 19.699219 C 10.171875 19.898438 9.867188 19.769531 9.765625 19.71875 C 9.660156 19.871094 9.136719 20.609375 8.429688 21.347656 C 7.359375 22.457031 6.402344 23.03125 5.582031 23.0625 C 5.574219 23.0625 5.566406 23.0625 5.558594 23.0625 " fill-opacity="1" fill-rule="nonzero"/><path fill="#000000" d="M 15.714844 21.652344 L 10.621094 21.859375 C 10.449219 21.859375 10.34375 21.667969 10.433594 21.523438 L 13.003906 17.339844 C 13.066406 17.234375 13.179688 17.171875 13.300781 17.171875 L 18.449219 17.289062 L 15.714844 21.652344 " fill-opacity="1" fill-rule="nonzero"/><path fill="#000000" d="M 13.300781 17.210938 C 13.195312 17.210938 13.09375 17.269531 13.039062 17.359375 L 10.46875 21.542969 C 10.433594 21.597656 10.429688 21.667969 10.464844 21.726562 C 10.496094 21.785156 10.554688 21.820312 10.621094 21.820312 L 15.695312 21.613281 L 18.378906 17.328125 Z M 10.625 21.894531 C 10.527344 21.894531 10.441406 21.847656 10.394531 21.765625 C 10.351562 21.679688 10.351562 21.582031 10.402344 21.5 L 12.972656 17.316406 C 13.039062 17.203125 13.167969 17.132812 13.300781 17.132812 L 18.519531 17.253906 L 18.480469 17.3125 L 15.738281 21.691406 L 15.71875 21.691406 L 10.625 21.894531 " fill-opacity="1" fill-rule="nonzero"/><path fill="#68cfff" d="M 16.082031 21.859375 L 10.585938 21.859375 L 13.460938 17.171875 L 18.960938 17.171875 L 16.082031 21.859375 " fill-opacity="1" fill-rule="nonzero"/><path fill="#000000" d="M 10.652344 21.820312 L 16.0625 21.820312 L 18.890625 17.210938 L 13.484375 17.210938 Z M 16.082031 21.898438 L 10.585938 21.898438 C 10.570312 21.898438 10.558594 21.890625 10.550781 21.875 C 10.542969 21.863281 10.542969 21.847656 10.550781 21.835938 L 13.429688 17.152344 C 13.4375 17.140625 13.449219 17.132812 13.460938 17.132812 L 18.960938 17.132812 C 18.976562 17.132812 18.988281 17.140625 18.996094 17.152344 C 19 17.164062 19 17.179688 18.992188 17.191406 L 16.117188 21.878906 C 16.109375 21.890625 16.097656 21.898438 16.082031 21.898438 " fill-opacity="1" fill-rule="nonzero"/><path fill="#ffffff" d="M 16.210938 21.652344 C 16.210938 21.652344 16.105469 21.109375 16.210938 20.75 C 16.3125 20.386719 16.953125 19.3125 17.136719 19.089844 C 17.320312 18.863281 17.476562 21.265625 16.210938 21.652344 " fill-opacity="1" fill-rule="nonzero"/><path fill="#000000" d="M 17.167969 19.109375 Z M 17.160156 19.121094 C 16.96875 19.363281 16.34375 20.417969 16.246094 20.761719 C 16.164062 21.050781 16.21875 21.464844 16.242188 21.601562 C 16.855469 21.382812 17.078125 20.664062 17.160156 20.25 C 17.265625 19.6875 17.214844 19.207031 17.160156 19.121094 Z M 16.210938 21.691406 C 16.203125 21.691406 16.195312 21.6875 16.191406 21.683594 C 16.179688 21.679688 16.175781 21.671875 16.171875 21.660156 C 16.167969 21.636719 16.066406 21.105469 16.171875 20.738281 C 16.277344 20.378906 16.914062 19.300781 17.105469 19.0625 C 17.136719 19.027344 17.167969 19.035156 17.183594 19.039062 C 17.3125 19.085938 17.296875 19.632812 17.296875 19.695312 C 17.273438 20.507812 16.976562 21.457031 16.222656 21.6875 C 16.21875 21.691406 16.214844 21.691406 16.210938 21.691406 " fill-opacity="1" fill-rule="nonzero"/><path fill="#000000" d="M 9.023438 12.625 C 8.757812 12.777344 8.480469 12.75 8.347656 12.738281 C 8.070312 12.707031 6.90625 12.476562 6.355469 11.414062 C 5.8125 10.371094 6.089844 8.976562 6.59375 8.804688 C 6.957031 8.683594 7.34375 9.222656 7.890625 9.03125 C 8.132812 8.945312 8.113281 8.820312 8.371094 8.730469 C 8.804688 8.574219 9.257812 8.792969 9.601562 8.964844 C 10.230469 9.28125 10.160156 9.457031 10.707031 9.753906 C 11.488281 10.179688 12.03125 10.035156 12.125 10.34375 C 12.199219 10.59375 11.933594 10.941406 11.652344 11.109375 C 11.066406 11.457031 10.589844 10.914062 10.121094 11.253906 C 9.828125 11.464844 9.765625 11.839844 9.265625 12.421875 C 9.226562 12.464844 9.148438 12.554688 9.023438 12.625 " fill-opacity="1" fill-rule="nonzero"/><path fill="#ffffff" d="M 9.566406 13.457031 C 9.5625 13.363281 9.558594 13.261719 9.558594 13.15625 C 9.730469 13.28125 9.921875 13.34375 10.054688 13.3125 C 10.21875 13.269531 10.285156 13.121094 10.390625 12.949219 C 10.4375 12.878906 10.480469 12.792969 10.582031 12.734375 C 10.636719 12.703125 10.691406 12.6875 10.742188 12.683594 C 10.804688 12.675781 10.851562 12.617188 10.851562 12.554688 L 10.847656 12.515625 C 10.800781 12.207031 10.8125 11.894531 10.886719 11.589844 L 11.035156 10.992188 C 10.742188 10.78125 10.617188 10.769531 10.5625 10.8125 C 10.539062 10.824219 10.511719 10.832031 10.488281 10.925781 C 10.382812 11.367188 9.996094 11.222656 9.683594 11.054688 C 9.371094 10.886719 9.328125 11.535156 9.328125 11.535156 C 9.328125 11.535156 9.191406 11.214844 8.898438 11.386719 C 8.691406 11.511719 8.941406 11.867188 9.101562 12.058594 L 8.640625 13.304688 C 8.519531 13.632812 8.222656 13.863281 7.875 13.898438 L 7.347656 13.949219 C 7.347656 13.949219 9.25 14.59375 10.816406 14.242188 L 9.96875 13.984375 C 9.734375 13.910156 9.574219 13.699219 9.566406 13.457031 " fill-opacity="1" fill-rule="nonzero"/><path fill="#000000" d="M 7.542969 13.96875 C 8.035156 14.113281 9.4375 14.460938 10.660156 14.234375 L 9.957031 14.019531 C 9.707031 13.945312 9.535156 13.71875 9.527344 13.457031 C 9.523438 13.355469 9.519531 13.253906 9.523438 13.15625 C 9.523438 13.140625 9.53125 13.128906 9.542969 13.121094 C 9.554688 13.117188 9.570312 13.117188 9.582031 13.125 C 9.746094 13.246094 9.925781 13.304688 10.046875 13.273438 C 10.171875 13.242188 10.234375 13.136719 10.316406 13 C 10.328125 12.976562 10.34375 12.953125 10.359375 12.929688 L 10.371094 12.910156 C 10.410156 12.84375 10.460938 12.757812 10.5625 12.703125 C 10.617188 12.671875 10.675781 12.652344 10.738281 12.644531 C 10.78125 12.636719 10.8125 12.601562 10.8125 12.558594 L 10.808594 12.523438 C 10.761719 12.207031 10.773438 11.890625 10.851562 11.582031 L 10.992188 11.007812 C 10.714844 10.808594 10.617188 10.820312 10.582031 10.84375 C 10.578125 10.84375 10.578125 10.847656 10.574219 10.847656 C 10.558594 10.859375 10.542969 10.867188 10.527344 10.933594 C 10.492188 11.082031 10.421875 11.183594 10.316406 11.226562 C 10.128906 11.3125 9.867188 11.199219 9.664062 11.085938 C 9.613281 11.0625 9.570312 11.058594 9.535156 11.078125 C 9.417969 11.144531 9.375 11.433594 9.367188 11.539062 C 9.367188 11.554688 9.351562 11.570312 9.335938 11.574219 C 9.316406 11.574219 9.300781 11.566406 9.292969 11.550781 C 9.292969 11.550781 9.234375 11.417969 9.121094 11.382812 C 9.0625 11.363281 8.992188 11.375 8.917969 11.421875 C 8.886719 11.441406 8.867188 11.46875 8.863281 11.503906 C 8.84375 11.609375 8.941406 11.804688 9.132812 12.03125 C 9.140625 12.042969 9.144531 12.058594 9.136719 12.070312 L 8.675781 13.316406 C 8.550781 13.65625 8.238281 13.902344 7.878906 13.9375 Z M 9.792969 14.386719 C 8.53125 14.386719 7.351562 13.992188 7.335938 13.988281 C 7.316406 13.980469 7.308594 13.964844 7.308594 13.945312 C 7.3125 13.929688 7.324219 13.914062 7.34375 13.914062 L 7.871094 13.859375 C 8.199219 13.828125 8.488281 13.605469 8.605469 13.292969 L 9.058594 12.066406 C 8.914062 11.890625 8.757812 11.652344 8.785156 11.488281 C 8.796875 11.429688 8.828125 11.386719 8.878906 11.355469 C 8.972656 11.296875 9.0625 11.285156 9.148438 11.3125 C 9.214844 11.332031 9.265625 11.378906 9.300781 11.421875 C 9.320312 11.289062 9.375 11.078125 9.496094 11.011719 C 9.558594 10.976562 9.625 10.980469 9.699219 11.019531 C 9.890625 11.121094 10.128906 11.226562 10.285156 11.15625 C 10.367188 11.121094 10.421875 11.042969 10.453125 10.914062 C 10.472656 10.828125 10.503906 10.800781 10.53125 10.785156 C 10.535156 10.78125 10.535156 10.78125 10.539062 10.777344 C 10.632812 10.714844 10.796875 10.769531 11.058594 10.960938 C 11.070312 10.96875 11.078125 10.984375 11.074219 11 L 10.925781 11.597656 C 10.851562 11.898438 10.839844 12.207031 10.882812 12.511719 L 10.890625 12.550781 C 10.890625 12.550781 10.890625 12.554688 10.890625 12.554688 C 10.890625 12.640625 10.832031 12.710938 10.75 12.71875 C 10.695312 12.726562 10.644531 12.742188 10.601562 12.769531 C 10.519531 12.816406 10.476562 12.882812 10.4375 12.949219 L 10.425781 12.96875 C 10.410156 12.992188 10.394531 13.019531 10.382812 13.039062 C 10.296875 13.183594 10.222656 13.308594 10.066406 13.347656 C 9.9375 13.382812 9.765625 13.335938 9.597656 13.230469 C 9.601562 13.304688 9.601562 13.378906 9.605469 13.453125 C 9.609375 13.683594 9.761719 13.878906 9.980469 13.945312 L 10.828125 14.207031 C 10.84375 14.210938 10.855469 14.226562 10.855469 14.246094 C 10.855469 14.261719 10.839844 14.277344 10.824219 14.28125 C 10.488281 14.355469 10.136719 14.386719 9.792969 14.386719 " fill-opacity="1" fill-rule="nonzero"/><path fill="#000000" d="M 9.558594 13.195312 C 9.554688 13.195312 9.546875 13.195312 9.539062 13.1875 C 9.199219 12.964844 9.175781 12.410156 9.175781 12.386719 C 9.175781 12.367188 9.191406 12.347656 9.214844 12.347656 C 9.234375 12.347656 9.253906 12.363281 9.253906 12.386719 C 9.253906 12.390625 9.273438 12.921875 9.582031 13.125 C 9.601562 13.136719 9.605469 13.160156 9.59375 13.179688 C 9.585938 13.1875 9.574219 13.195312 9.558594 13.195312 " fill-opacity="1" fill-rule="nonzero"/></svg>