<svg xmlns="http://www.w3.org/2000/svg" xmlns:xlink="http://www.w3.org/1999/xlink" width="40" zoomAndPan="magnify" viewBox="0 0 30 30.000001" height="40" preserveAspectRatio="xMidYMid meet" version="1.0"><defs><filter x="0%" y="0%" width="100%" height="100%" id="d63c717aa8"><feColorMatrix values="0 0 0 0 1 0 0 0 0 1 0 0 0 0 1 0 0 0 1 0" color-interpolation-filters="sRGB"/></filter><clipPath id="0e17e92081"><path d="M 0.484375 2 L 29.515625 2 L 29.515625 29.03125 L 0.484375 29.03125 Z M 0.484375 2 " clip-rule="nonzero"/></clipPath><mask id="289b4eaa9c"><g filter="url(#d63c717aa8)"><rect x="-3" width="36" fill="#000000" y="-3" height="36.000001" fill-opacity="0.26"/></g></mask><clipPath id="4bb8e38bc9"><path d="M 0.484375 2 L 29.515625 2 L 29.515625 27.03125 L 0.484375 27.03125 Z M 0.484375 2 " clip-rule="nonzero"/></clipPath><clipPath id="81cc094193"><path d="M 30.914062 25.359375 L 4.792969 31.589844 L -1.269531 6.175781 L 24.851562 -0.0546875 Z M 30.914062 25.359375 " clip-rule="nonzero"/></clipPath><clipPath id="b7ba924510"><path d="M 30.914062 25.359375 L 4.792969 31.589844 L -1.269531 6.175781 L 24.851562 -0.0546875 Z M 30.914062 25.359375 " clip-rule="nonzero"/></clipPath><clipPath id="4c2e80ccb7"><rect x="0" width="30" y="0" height="28"/></clipPath><clipPath id="3549b5d3d7"><path d="M 2.4375 1.40625 L 27.839844 1.40625 L 27.839844 27 L 2.4375 27 Z M 2.4375 1.40625 " clip-rule="nonzero"/></clipPath><clipPath id="18519049e2"><path d="M 20 1.40625 L 26 1.40625 L 26 7 L 20 7 Z M 20 1.40625 " clip-rule="nonzero"/></clipPath><clipPath id="42189e1c06"><path d="M 5.679688 18.554688 L 5.878906 18.554688 L 5.878906 19.648438 L 5.679688 19.648438 Z M 5.679688 18.554688 " clip-rule="nonzero"/></clipPath><clipPath id="79b15b375d"><path d="M 27.554688 13.230469 C 27.53125 9.75 25.933594 4.71875 21.613281 2.789062 C 19.566406 1.878906 16.332031 1.40625 14.023438 2.941406 C 11.867188 4.378906 12.800781 6.050781 10.425781 8.917969 C 7.6875 12.222656 5.484375 11.773438 3.648438 14.660156 C 2.4375 16.566406 2.972656 18.871094 3.125 19.535156 C 4.25 24.382812 10.152344 26.050781 10.816406 26.226562 C 14.082031 27.09375 16.992188 26.378906 18.9375 25.578125 C 18.957031 25.570312 18.972656 25.59375 18.992188 25.585938 C 20.148438 25.109375 20.992188 24.667969 21.324219 24.460938 C 22.242188 23.886719 23.011719 23.175781 23.679688 22.492188 C 23.6875 22.484375 23.675781 22.453125 23.683594 22.441406 C 27.496094 18.558594 27.554688 13.5 27.554688 13.230469 Z M 27.554688 13.230469 " clip-rule="nonzero"/></clipPath><clipPath id="061489cbcb"><path d="M 19.585938 9.875 L 23.105469 9.875 L 23.105469 12.707031 L 19.585938 12.707031 Z M 19.585938 9.875 " clip-rule="nonzero"/></clipPath><clipPath id="87ff6fa555"><path d="M 27.554688 13.230469 C 27.53125 9.75 25.933594 4.71875 21.613281 2.789062 C 19.566406 1.878906 16.332031 1.40625 14.023438 2.941406 C 11.867188 4.378906 12.800781 6.050781 10.425781 8.917969 C 7.6875 12.222656 5.484375 11.773438 3.648438 14.660156 C 2.4375 16.566406 2.972656 18.871094 3.125 19.535156 C 4.25 24.382812 10.152344 26.050781 10.816406 26.226562 C 14.082031 27.09375 16.992188 26.378906 18.9375 25.578125 C 18.957031 25.570312 18.972656 25.59375 18.992188 25.585938 C 20.148438 25.109375 20.992188 24.667969 21.324219 24.460938 C 22.242188 23.886719 23.011719 23.175781 23.679688 22.492188 C 23.6875 22.484375 23.675781 22.453125 23.683594 22.441406 C 27.496094 18.558594 27.554688 13.5 27.554688 13.230469 Z M 27.554688 13.230469 " clip-rule="nonzero"/></clipPath><clipPath id="4a576554b9"><path d="M 19.546875 9.835938 L 23.144531 9.835938 L 23.144531 12.761719 L 19.546875 12.761719 Z M 19.546875 9.835938 " clip-rule="nonzero"/></clipPath><clipPath id="aacac264e0"><path d="M 27.554688 13.230469 C 27.53125 9.75 25.933594 4.71875 21.613281 2.789062 C 19.566406 1.878906 16.332031 1.40625 14.023438 2.941406 C 11.867188 4.378906 12.800781 6.050781 10.425781 8.917969 C 7.6875 12.222656 5.484375 11.773438 3.648438 14.660156 C 2.4375 16.566406 2.972656 18.871094 3.125 19.535156 C 4.25 24.382812 10.152344 26.050781 10.816406 26.226562 C 14.082031 27.09375 16.992188 26.378906 18.9375 25.578125 C 18.957031 25.570312 18.972656 25.59375 18.992188 25.585938 C 20.148438 25.109375 20.992188 24.667969 21.324219 24.460938 C 22.242188 23.886719 23.011719 23.175781 23.679688 22.492188 C 23.6875 22.484375 23.675781 22.453125 23.683594 22.441406 C 27.496094 18.558594 27.554688 13.5 27.554688 13.230469 Z M 27.554688 13.230469 " clip-rule="nonzero"/></clipPath><clipPath id="cb62109806"><path d="M 21 10.941406 L 22.347656 10.941406 L 22.347656 11.34375 L 21 11.34375 Z M 21 10.941406 " clip-rule="nonzero"/></clipPath><clipPath id="6992ac35f4"><path d="M 27.554688 13.230469 C 27.53125 9.75 25.933594 4.71875 21.613281 2.789062 C 19.566406 1.878906 16.332031 1.40625 14.023438 2.941406 C 11.867188 4.378906 12.800781 6.050781 10.425781 8.917969 C 7.6875 12.222656 5.484375 11.773438 3.648438 14.660156 C 2.4375 16.566406 2.972656 18.871094 3.125 19.535156 C 4.25 24.382812 10.152344 26.050781 10.816406 26.226562 C 14.082031 27.09375 16.992188 26.378906 18.9375 25.578125 C 18.957031 25.570312 18.972656 25.59375 18.992188 25.585938 C 20.148438 25.109375 20.992188 24.667969 21.324219 24.460938 C 22.242188 23.886719 23.011719 23.175781 23.679688 22.492188 C 23.6875 22.484375 23.675781 22.453125 23.683594 22.441406 C 27.496094 18.558594 27.554688 13.5 27.554688 13.230469 Z M 27.554688 13.230469 " clip-rule="nonzero"/></clipPath><clipPath id="ecbfe70988"><path d="M 20.867188 10.578125 L 22.214844 10.578125 L 22.214844 10.980469 L 20.867188 10.980469 Z M 20.867188 10.578125 " clip-rule="nonzero"/></clipPath><clipPath id="6f93061c71"><path d="M 27.554688 13.230469 C 27.53125 9.75 25.933594 4.71875 21.613281 2.789062 C 19.566406 1.878906 16.332031 1.40625 14.023438 2.941406 C 11.867188 4.378906 12.800781 6.050781 10.425781 8.917969 C 7.6875 12.222656 5.484375 11.773438 3.648438 14.660156 C 2.4375 16.566406 2.972656 18.871094 3.125 19.535156 C 4.25 24.382812 10.152344 26.050781 10.816406 26.226562 C 14.082031 27.09375 16.992188 26.378906 18.9375 25.578125 C 18.957031 25.570312 18.972656 25.59375 18.992188 25.585938 C 20.148438 25.109375 20.992188 24.667969 21.324219 24.460938 C 22.242188 23.886719 23.011719 23.175781 23.679688 22.492188 C 23.6875 22.484375 23.675781 22.453125 23.683594 22.441406 C 27.496094 18.558594 27.554688 13.5 27.554688 13.230469 Z M 27.554688 13.230469 " clip-rule="nonzero"/></clipPath><clipPath id="a8efa6460c"><path d="M 3.507812 12.4375 L 21.917969 12.4375 L 21.917969 25.765625 L 3.507812 25.765625 Z M 3.507812 12.4375 " clip-rule="nonzero"/></clipPath><clipPath id="565bc922ca"><path d="M 27.554688 13.230469 C 27.53125 9.75 25.933594 4.71875 21.613281 2.789062 C 19.566406 1.878906 16.332031 1.40625 14.023438 2.941406 C 11.867188 4.378906 12.800781 6.050781 10.425781 8.917969 C 7.6875 12.222656 5.484375 11.773438 3.648438 14.660156 C 2.4375 16.566406 2.972656 18.871094 3.125 19.535156 C 4.25 24.382812 10.152344 26.050781 10.816406 26.226562 C 14.082031 27.09375 16.992188 26.378906 18.9375 25.578125 C 18.957031 25.570312 18.972656 25.59375 18.992188 25.585938 C 20.148438 25.109375 20.992188 24.667969 21.324219 24.460938 C 22.242188 23.886719 23.011719 23.175781 23.679688 22.492188 C 23.6875 22.484375 23.675781 22.453125 23.683594 22.441406 C 27.496094 18.558594 27.554688 13.5 27.554688 13.230469 Z M 27.554688 13.230469 " clip-rule="nonzero"/></clipPath><clipPath id="1f12c26651"><path d="M 3.46875 12.394531 L 21.972656 12.394531 L 21.972656 25.820312 L 3.46875 25.820312 Z M 3.46875 12.394531 " clip-rule="nonzero"/></clipPath><clipPath id="4e70ff2452"><path d="M 27.554688 13.230469 C 27.53125 9.75 25.933594 4.71875 21.613281 2.789062 C 19.566406 1.878906 16.332031 1.40625 14.023438 2.941406 C 11.867188 4.378906 12.800781 6.050781 10.425781 8.917969 C 7.6875 12.222656 5.484375 11.773438 3.648438 14.660156 C 2.4375 16.566406 2.972656 18.871094 3.125 19.535156 C 4.25 24.382812 10.152344 26.050781 10.816406 26.226562 C 14.082031 27.09375 16.992188 26.378906 18.9375 25.578125 C 18.957031 25.570312 18.972656 25.59375 18.992188 25.585938 C 20.148438 25.109375 20.992188 24.667969 21.324219 24.460938 C 22.242188 23.886719 23.011719 23.175781 23.679688 22.492188 C 23.6875 22.484375 23.675781 22.453125 23.683594 22.441406 C 27.496094 18.558594 27.554688 13.5 27.554688 13.230469 Z M 27.554688 13.230469 " clip-rule="nonzero"/></clipPath><clipPath id="6535e873f8"><path d="M 4.113281 13.136719 L 5.949219 13.136719 L 5.949219 16.265625 L 4.113281 16.265625 Z M 4.113281 13.136719 " clip-rule="nonzero"/></clipPath><clipPath id="e53a40ce2d"><path d="M 27.554688 13.230469 C 27.53125 9.75 25.933594 4.71875 21.613281 2.789062 C 19.566406 1.878906 16.332031 1.40625 14.023438 2.941406 C 11.867188 4.378906 12.800781 6.050781 10.425781 8.917969 C 7.6875 12.222656 5.484375 11.773438 3.648438 14.660156 C 2.4375 16.566406 2.972656 18.871094 3.125 19.535156 C 4.25 24.382812 10.152344 26.050781 10.816406 26.226562 C 14.082031 27.09375 16.992188 26.378906 18.9375 25.578125 C 18.957031 25.570312 18.972656 25.59375 18.992188 25.585938 C 20.148438 25.109375 20.992188 24.667969 21.324219 24.460938 C 22.242188 23.886719 23.011719 23.175781 23.679688 22.492188 C 23.6875 22.484375 23.675781 22.453125 23.683594 22.441406 C 27.496094 18.558594 27.554688 13.5 27.554688 13.230469 Z M 27.554688 13.230469 " clip-rule="nonzero"/></clipPath><clipPath id="720e383fd0"><path d="M 4.074219 13.097656 L 5.988281 13.097656 L 5.988281 16.304688 L 4.074219 16.304688 Z M 4.074219 13.097656 " clip-rule="nonzero"/></clipPath><clipPath id="67b5a8c2d6"><path d="M 27.554688 13.230469 C 27.53125 9.75 25.933594 4.71875 21.613281 2.789062 C 19.566406 1.878906 16.332031 1.40625 14.023438 2.941406 C 11.867188 4.378906 12.800781 6.050781 10.425781 8.917969 C 7.6875 12.222656 5.484375 11.773438 3.648438 14.660156 C 2.4375 16.566406 2.972656 18.871094 3.125 19.535156 C 4.25 24.382812 10.152344 26.050781 10.816406 26.226562 C 14.082031 27.09375 16.992188 26.378906 18.9375 25.578125 C 18.957031 25.570312 18.972656 25.59375 18.992188 25.585938 C 20.148438 25.109375 20.992188 24.667969 21.324219 24.460938 C 22.242188 23.886719 23.011719 23.175781 23.679688 22.492188 C 23.6875 22.484375 23.675781 22.453125 23.683594 22.441406 C 27.496094 18.558594 27.554688 13.5 27.554688 13.230469 Z M 27.554688 13.230469 " clip-rule="nonzero"/></clipPath><clipPath id="38b05484c3"><path d="M 4.75 14.160156 L 5.207031 14.160156 L 5.207031 14.945312 L 4.75 14.945312 Z M 4.75 14.160156 " clip-rule="nonzero"/></clipPath><clipPath id="8470928733"><path d="M 27.554688 13.230469 C 27.53125 9.75 25.933594 4.71875 21.613281 2.789062 C 19.566406 1.878906 16.332031 1.40625 14.023438 2.941406 C 11.867188 4.378906 12.800781 6.050781 10.425781 8.917969 C 7.6875 12.222656 5.484375 11.773438 3.648438 14.660156 C 2.4375 16.566406 2.972656 18.871094 3.125 19.535156 C 4.25 24.382812 10.152344 26.050781 10.816406 26.226562 C 14.082031 27.09375 16.992188 26.378906 18.9375 25.578125 C 18.957031 25.570312 18.972656 25.59375 18.992188 25.585938 C 20.148438 25.109375 20.992188 24.667969 21.324219 24.460938 C 22.242188 23.886719 23.011719 23.175781 23.679688 22.492188 C 23.6875 22.484375 23.675781 22.453125 23.683594 22.441406 C 27.496094 18.558594 27.554688 13.5 27.554688 13.230469 Z M 27.554688 13.230469 " clip-rule="nonzero"/></clipPath><clipPath id="01d895da77"><path d="M 4.707031 14.109375 L 5.246094 14.109375 L 5.246094 14.984375 L 4.707031 14.984375 Z M 4.707031 14.109375 " clip-rule="nonzero"/></clipPath><clipPath id="a8931359be"><path d="M 27.554688 13.230469 C 27.53125 9.75 25.933594 4.71875 21.613281 2.789062 C 19.566406 1.878906 16.332031 1.40625 14.023438 2.941406 C 11.867188 4.378906 12.800781 6.050781 10.425781 8.917969 C 7.6875 12.222656 5.484375 11.773438 3.648438 14.660156 C 2.4375 16.566406 2.972656 18.871094 3.125 19.535156 C 4.25 24.382812 10.152344 26.050781 10.816406 26.226562 C 14.082031 27.09375 16.992188 26.378906 18.9375 25.578125 C 18.957031 25.570312 18.972656 25.59375 18.992188 25.585938 C 20.148438 25.109375 20.992188 24.667969 21.324219 24.460938 C 22.242188 23.886719 23.011719 23.175781 23.679688 22.492188 C 23.6875 22.484375 23.675781 22.453125 23.683594 22.441406 C 27.496094 18.558594 27.554688 13.5 27.554688 13.230469 Z M 27.554688 13.230469 " clip-rule="nonzero"/></clipPath><clipPath id="02ad3abd5a"><path d="M 4.425781 14.269531 L 4.761719 14.269531 L 4.761719 15.039062 L 4.425781 15.039062 Z M 4.425781 14.269531 " clip-rule="nonzero"/></clipPath><clipPath id="c23f801025"><path d="M 27.554688 13.230469 C 27.53125 9.75 25.933594 4.71875 21.613281 2.789062 C 19.566406 1.878906 16.332031 1.40625 14.023438 2.941406 C 11.867188 4.378906 12.800781 6.050781 10.425781 8.917969 C 7.6875 12.222656 5.484375 11.773438 3.648438 14.660156 C 2.4375 16.566406 2.972656 18.871094 3.125 19.535156 C 4.25 24.382812 10.152344 26.050781 10.816406 26.226562 C 14.082031 27.09375 16.992188 26.378906 18.9375 25.578125 C 18.957031 25.570312 18.972656 25.59375 18.992188 25.585938 C 20.148438 25.109375 20.992188 24.667969 21.324219 24.460938 C 22.242188 23.886719 23.011719 23.175781 23.679688 22.492188 C 23.6875 22.484375 23.675781 22.453125 23.683594 22.441406 C 27.496094 18.558594 27.554688 13.5 27.554688 13.230469 Z M 27.554688 13.230469 " clip-rule="nonzero"/></clipPath><clipPath id="1f1e2d3e24"><path d="M 4.371094 14.214844 L 4.816406 14.214844 L 4.816406 15.078125 L 4.371094 15.078125 Z M 4.371094 14.214844 " clip-rule="nonzero"/></clipPath><clipPath id="c1a74764aa"><path d="M 27.554688 13.230469 C 27.53125 9.75 25.933594 4.71875 21.613281 2.789062 C 19.566406 1.878906 16.332031 1.40625 14.023438 2.941406 C 11.867188 4.378906 12.800781 6.050781 10.425781 8.917969 C 7.6875 12.222656 5.484375 11.773438 3.648438 14.660156 C 2.4375 16.566406 2.972656 18.871094 3.125 19.535156 C 4.25 24.382812 10.152344 26.050781 10.816406 26.226562 C 14.082031 27.09375 16.992188 26.378906 18.9375 25.578125 C 18.957031 25.570312 18.972656 25.59375 18.992188 25.585938 C 20.148438 25.109375 20.992188 24.667969 21.324219 24.460938 C 22.242188 23.886719 23.011719 23.175781 23.679688 22.492188 C 23.6875 22.484375 23.675781 22.453125 23.683594 22.441406 C 27.496094 18.558594 27.554688 13.5 27.554688 13.230469 Z M 27.554688 13.230469 " clip-rule="nonzero"/></clipPath><clipPath id="24c6d9384e"><path d="M 4.113281 14.390625 L 4.4375 14.390625 L 4.4375 15.160156 L 4.113281 15.160156 Z M 4.113281 14.390625 " clip-rule="nonzero"/></clipPath><clipPath id="fa57d9fe91"><path d="M 27.554688 13.230469 C 27.53125 9.75 25.933594 4.71875 21.613281 2.789062 C 19.566406 1.878906 16.332031 1.40625 14.023438 2.941406 C 11.867188 4.378906 12.800781 6.050781 10.425781 8.917969 C 7.6875 12.222656 5.484375 11.773438 3.648438 14.660156 C 2.4375 16.566406 2.972656 18.871094 3.125 19.535156 C 4.25 24.382812 10.152344 26.050781 10.816406 26.226562 C 14.082031 27.09375 16.992188 26.378906 18.9375 25.578125 C 18.957031 25.570312 18.972656 25.59375 18.992188 25.585938 C 20.148438 25.109375 20.992188 24.667969 21.324219 24.460938 C 22.242188 23.886719 23.011719 23.175781 23.679688 22.492188 C 23.6875 22.484375 23.675781 22.453125 23.683594 22.441406 C 27.496094 18.558594 27.554688 13.5 27.554688 13.230469 Z M 27.554688 13.230469 " clip-rule="nonzero"/></clipPath><clipPath id="8621f595fe"><path d="M 4.074219 14.335938 L 4.480469 14.335938 L 4.480469 15.199219 L 4.074219 15.199219 Z M 4.074219 14.335938 " clip-rule="nonzero"/></clipPath><clipPath id="a3d48d5925"><path d="M 27.554688 13.230469 C 27.53125 9.75 25.933594 4.71875 21.613281 2.789062 C 19.566406 1.878906 16.332031 1.40625 14.023438 2.941406 C 11.867188 4.378906 12.800781 6.050781 10.425781 8.917969 C 7.6875 12.222656 5.484375 11.773438 3.648438 14.660156 C 2.4375 16.566406 2.972656 18.871094 3.125 19.535156 C 4.25 24.382812 10.152344 26.050781 10.816406 26.226562 C 14.082031 27.09375 16.992188 26.378906 18.9375 25.578125 C 18.957031 25.570312 18.972656 25.59375 18.992188 25.585938 C 20.148438 25.109375 20.992188 24.667969 21.324219 24.460938 C 22.242188 23.886719 23.011719 23.175781 23.679688 22.492188 C 23.6875 22.484375 23.675781 22.453125 23.683594 22.441406 C 27.496094 18.558594 27.554688 13.5 27.554688 13.230469 Z M 27.554688 13.230469 " clip-rule="nonzero"/></clipPath><clipPath id="64c867bdc3"><path d="M 5.207031 14.550781 L 5.785156 14.550781 L 5.785156 14.984375 L 5.207031 14.984375 Z M 5.207031 14.550781 " clip-rule="nonzero"/></clipPath><clipPath id="3468e1b2a4"><path d="M 27.554688 13.230469 C 27.53125 9.75 25.933594 4.71875 21.613281 2.789062 C 19.566406 1.878906 16.332031 1.40625 14.023438 2.941406 C 11.867188 4.378906 12.800781 6.050781 10.425781 8.917969 C 7.6875 12.222656 5.484375 11.773438 3.648438 14.660156 C 2.4375 16.566406 2.972656 18.871094 3.125 19.535156 C 4.25 24.382812 10.152344 26.050781 10.816406 26.226562 C 14.082031 27.09375 16.992188 26.378906 18.9375 25.578125 C 18.957031 25.570312 18.972656 25.59375 18.992188 25.585938 C 20.148438 25.109375 20.992188 24.667969 21.324219 24.460938 C 22.242188 23.886719 23.011719 23.175781 23.679688 22.492188 C 23.6875 22.484375 23.675781 22.453125 23.683594 22.441406 C 27.496094 18.558594 27.554688 13.5 27.554688 13.230469 Z M 27.554688 13.230469 " clip-rule="nonzero"/></clipPath><clipPath id="95debe5c19"><path d="M 4.84375 14.890625 L 5.316406 14.890625 L 5.316406 15.777344 L 4.84375 15.777344 Z M 4.84375 14.890625 " clip-rule="nonzero"/></clipPath><clipPath id="3c9fd81006"><path d="M 27.554688 13.230469 C 27.53125 9.75 25.933594 4.71875 21.613281 2.789062 C 19.566406 1.878906 16.332031 1.40625 14.023438 2.941406 C 11.867188 4.378906 12.800781 6.050781 10.425781 8.917969 C 7.6875 12.222656 5.484375 11.773438 3.648438 14.660156 C 2.4375 16.566406 2.972656 18.871094 3.125 19.535156 C 4.25 24.382812 10.152344 26.050781 10.816406 26.226562 C 14.082031 27.09375 16.992188 26.378906 18.9375 25.578125 C 18.957031 25.570312 18.972656 25.59375 18.992188 25.585938 C 20.148438 25.109375 20.992188 24.667969 21.324219 24.460938 C 22.242188 23.886719 23.011719 23.175781 23.679688 22.492188 C 23.6875 22.484375 23.675781 22.453125 23.683594 22.441406 C 27.496094 18.558594 27.554688 13.5 27.554688 13.230469 Z M 27.554688 13.230469 " clip-rule="nonzero"/></clipPath><clipPath id="2c9af01174"><path d="M 9.652344 10.605469 L 13.402344 10.605469 L 13.402344 13.867188 L 9.652344 13.867188 Z M 9.652344 10.605469 " clip-rule="nonzero"/></clipPath><clipPath id="ce0464fabd"><path d="M 27.554688 13.230469 C 27.53125 9.75 25.933594 4.71875 21.613281 2.789062 C 19.566406 1.878906 16.332031 1.40625 14.023438 2.941406 C 11.867188 4.378906 12.800781 6.050781 10.425781 8.917969 C 7.6875 12.222656 5.484375 11.773438 3.648438 14.660156 C 2.4375 16.566406 2.972656 18.871094 3.125 19.535156 C 4.25 24.382812 10.152344 26.050781 10.816406 26.226562 C 14.082031 27.09375 16.992188 26.378906 18.9375 25.578125 C 18.957031 25.570312 18.972656 25.59375 18.992188 25.585938 C 20.148438 25.109375 20.992188 24.667969 21.324219 24.460938 C 22.242188 23.886719 23.011719 23.175781 23.679688 22.492188 C 23.6875 22.484375 23.675781 22.453125 23.683594 22.441406 C 27.496094 18.558594 27.554688 13.5 27.554688 13.230469 Z M 27.554688 13.230469 " clip-rule="nonzero"/></clipPath><clipPath id="5e42a15efa"><path d="M 10.773438 11.832031 L 12.984375 11.832031 L 12.984375 15.753906 L 10.773438 15.753906 Z M 10.773438 11.832031 " clip-rule="nonzero"/></clipPath><clipPath id="f524bbefa5"><path d="M 27.554688 13.230469 C 27.53125 9.75 25.933594 4.71875 21.613281 2.789062 C 19.566406 1.878906 16.332031 1.40625 14.023438 2.941406 C 11.867188 4.378906 12.800781 6.050781 10.425781 8.917969 C 7.6875 12.222656 5.484375 11.773438 3.648438 14.660156 C 2.4375 16.566406 2.972656 18.871094 3.125 19.535156 C 4.25 24.382812 10.152344 26.050781 10.816406 26.226562 C 14.082031 27.09375 16.992188 26.378906 18.9375 25.578125 C 18.957031 25.570312 18.972656 25.59375 18.992188 25.585938 C 20.148438 25.109375 20.992188 24.667969 21.324219 24.460938 C 22.242188 23.886719 23.011719 23.175781 23.679688 22.492188 C 23.6875 22.484375 23.675781 22.453125 23.683594 22.441406 C 27.496094 18.558594 27.554688 13.5 27.554688 13.230469 Z M 27.554688 13.230469 " clip-rule="nonzero"/></clipPath><clipPath id="f63c1692bd"><path d="M 10.730469 11.75 L 13.023438 11.75 L 13.023438 15.804688 L 10.730469 15.804688 Z M 10.730469 11.75 " clip-rule="nonzero"/></clipPath><clipPath id="63fddbd493"><path d="M 27.554688 13.230469 C 27.53125 9.75 25.933594 4.71875 21.613281 2.789062 C 19.566406 1.878906 16.332031 1.40625 14.023438 2.941406 C 11.867188 4.378906 12.800781 6.050781 10.425781 8.917969 C 7.6875 12.222656 5.484375 11.773438 3.648438 14.660156 C 2.4375 16.566406 2.972656 18.871094 3.125 19.535156 C 4.25 24.382812 10.152344 26.050781 10.816406 26.226562 C 14.082031 27.09375 16.992188 26.378906 18.9375 25.578125 C 18.957031 25.570312 18.972656 25.59375 18.992188 25.585938 C 20.148438 25.109375 20.992188 24.667969 21.324219 24.460938 C 22.242188 23.886719 23.011719 23.175781 23.679688 22.492188 C 23.6875 22.484375 23.675781 22.453125 23.683594 22.441406 C 27.496094 18.558594 27.554688 13.5 27.554688 13.230469 Z M 27.554688 13.230469 " clip-rule="nonzero"/></clipPath><clipPath id="a7a7a2dd5d"><path d="M 11.648438 13.757812 L 12.214844 13.757812 L 12.214844 14.082031 L 11.648438 14.082031 Z M 11.648438 13.757812 " clip-rule="nonzero"/></clipPath><clipPath id="f36b81af35"><path d="M 27.554688 13.230469 C 27.53125 9.75 25.933594 4.71875 21.613281 2.789062 C 19.566406 1.878906 16.332031 1.40625 14.023438 2.941406 C 11.867188 4.378906 12.800781 6.050781 10.425781 8.917969 C 7.6875 12.222656 5.484375 11.773438 3.648438 14.660156 C 2.4375 16.566406 2.972656 18.871094 3.125 19.535156 C 4.25 24.382812 10.152344 26.050781 10.816406 26.226562 C 14.082031 27.09375 16.992188 26.378906 18.9375 25.578125 C 18.957031 25.570312 18.972656 25.59375 18.992188 25.585938 C 20.148438 25.109375 20.992188 24.667969 21.324219 24.460938 C 22.242188 23.886719 23.011719 23.175781 23.679688 22.492188 C 23.6875 22.484375 23.675781 22.453125 23.683594 22.441406 C 27.496094 18.558594 27.554688 13.5 27.554688 13.230469 Z M 27.554688 13.230469 " clip-rule="nonzero"/></clipPath><clipPath id="f428bec08e"><path d="M 9.332031 23.378906 L 17.242188 23.378906 L 17.242188 26.628906 L 9.332031 26.628906 Z M 9.332031 23.378906 " clip-rule="nonzero"/></clipPath><clipPath id="7f990cf4fb"><path d="M 27.554688 13.230469 C 27.53125 9.75 25.933594 4.71875 21.613281 2.789062 C 19.566406 1.878906 16.332031 1.40625 14.023438 2.941406 C 11.867188 4.378906 12.800781 6.050781 10.425781 8.917969 C 7.6875 12.222656 5.484375 11.773438 3.648438 14.660156 C 2.4375 16.566406 2.972656 18.871094 3.125 19.535156 C 4.25 24.382812 10.152344 26.050781 10.816406 26.226562 C 14.082031 27.09375 16.992188 26.378906 18.9375 25.578125 C 18.957031 25.570312 18.972656 25.59375 18.992188 25.585938 C 20.148438 25.109375 20.992188 24.667969 21.324219 24.460938 C 22.242188 23.886719 23.011719 23.175781 23.679688 22.492188 C 23.6875 22.484375 23.675781 22.453125 23.683594 22.441406 C 27.496094 18.558594 27.554688 13.5 27.554688 13.230469 Z M 27.554688 13.230469 " clip-rule="nonzero"/></clipPath><clipPath id="e8425e91cc"><path d="M 17.863281 19.902344 L 19.976562 19.902344 L 19.976562 26.601562 L 17.863281 26.601562 Z M 17.863281 19.902344 " clip-rule="nonzero"/></clipPath><clipPath id="5d5fad0bb8"><path d="M 27.554688 13.230469 C 27.53125 9.75 25.933594 4.71875 21.613281 2.789062 C 19.566406 1.878906 16.332031 1.40625 14.023438 2.941406 C 11.867188 4.378906 12.800781 6.050781 10.425781 8.917969 C 7.6875 12.222656 5.484375 11.773438 3.648438 14.660156 C 2.4375 16.566406 2.972656 18.871094 3.125 19.535156 C 4.25 24.382812 10.152344 26.050781 10.816406 26.226562 C 14.082031 27.09375 16.992188 26.378906 18.9375 25.578125 C 18.957031 25.570312 18.972656 25.59375 18.992188 25.585938 C 20.148438 25.109375 20.992188 24.667969 21.324219 24.460938 C 22.242188 23.886719 23.011719 23.175781 23.679688 22.492188 C 23.6875 22.484375 23.675781 22.453125 23.683594 22.441406 C 27.496094 18.558594 27.554688 13.5 27.554688 13.230469 Z M 27.554688 13.230469 " clip-rule="nonzero"/></clipPath><clipPath id="ef1233b472"><path d="M 18.84375 17.53125 L 24.800781 17.53125 L 24.800781 26.628906 L 18.84375 26.628906 Z M 18.84375 17.53125 " clip-rule="nonzero"/></clipPath><clipPath id="0bf0f76d71"><path d="M 27.554688 13.230469 C 27.53125 9.75 25.933594 4.71875 21.613281 2.789062 C 19.566406 1.878906 16.332031 1.40625 14.023438 2.941406 C 11.867188 4.378906 12.800781 6.050781 10.425781 8.917969 C 7.6875 12.222656 5.484375 11.773438 3.648438 14.660156 C 2.4375 16.566406 2.972656 18.871094 3.125 19.535156 C 4.25 24.382812 10.152344 26.050781 10.816406 26.226562 C 14.082031 27.09375 16.992188 26.378906 18.9375 25.578125 C 18.957031 25.570312 18.972656 25.59375 18.992188 25.585938 C 20.148438 25.109375 20.992188 24.667969 21.324219 24.460938 C 22.242188 23.886719 23.011719 23.175781 23.679688 22.492188 C 23.6875 22.484375 23.675781 22.453125 23.683594 22.441406 C 27.496094 18.558594 27.554688 13.5 27.554688 13.230469 Z M 27.554688 13.230469 " clip-rule="nonzero"/></clipPath><clipPath id="95349e7098"><path d="M 19.601562 23.582031 L 20.949219 23.582031 L 20.949219 25.859375 L 19.601562 25.859375 Z M 19.601562 23.582031 " clip-rule="nonzero"/></clipPath><clipPath id="8dff63ae2d"><path d="M 27.554688 13.230469 C 27.53125 9.75 25.933594 4.71875 21.613281 2.789062 C 19.566406 1.878906 16.332031 1.40625 14.023438 2.941406 C 11.867188 4.378906 12.800781 6.050781 10.425781 8.917969 C 7.6875 12.222656 5.484375 11.773438 3.648438 14.660156 C 2.4375 16.566406 2.972656 18.871094 3.125 19.535156 C 4.25 24.382812 10.152344 26.050781 10.816406 26.226562 C 14.082031 27.09375 16.992188 26.378906 18.9375 25.578125 C 18.957031 25.570312 18.972656 25.59375 18.992188 25.585938 C 20.148438 25.109375 20.992188 24.667969 21.324219 24.460938 C 22.242188 23.886719 23.011719 23.175781 23.679688 22.492188 C 23.6875 22.484375 23.675781 22.453125 23.683594 22.441406 C 27.496094 18.558594 27.554688 13.5 27.554688 13.230469 Z M 27.554688 13.230469 " clip-rule="nonzero"/></clipPath><clipPath id="33d1454f43"><path d="M 21.539062 19.242188 L 23.65625 19.242188 L 23.65625 22.371094 L 21.539062 22.371094 Z M 21.539062 19.242188 " clip-rule="nonzero"/></clipPath><clipPath id="d5e0756a1c"><path d="M 27.554688 13.230469 C 27.53125 9.75 25.933594 4.71875 21.613281 2.789062 C 19.566406 1.878906 16.332031 1.40625 14.023438 2.941406 C 11.867188 4.378906 12.800781 6.050781 10.425781 8.917969 C 7.6875 12.222656 5.484375 11.773438 3.648438 14.660156 C 2.4375 16.566406 2.972656 18.871094 3.125 19.535156 C 4.25 24.382812 10.152344 26.050781 10.816406 26.226562 C 14.082031 27.09375 16.992188 26.378906 18.9375 25.578125 C 18.957031 25.570312 18.972656 25.59375 18.992188 25.585938 C 20.148438 25.109375 20.992188 24.667969 21.324219 24.460938 C 22.242188 23.886719 23.011719 23.175781 23.679688 22.492188 C 23.6875 22.484375 23.675781 22.453125 23.683594 22.441406 C 27.496094 18.558594 27.554688 13.5 27.554688 13.230469 Z M 27.554688 13.230469 " clip-rule="nonzero"/></clipPath></defs><g clip-path="url(#0e17e92081)"><g mask="url(#289b4eaa9c)"><g transform="matrix(1, 0, 0, 1, 0, 2)"><g clip-path="url(#4c2e80ccb7)"><g clip-path="url(#4bb8e38bc9)"><g clip-path="url(#81cc094193)"><g clip-path="url(#b7ba924510)"><path fill="#2cb2f1" d="M 18.835938 2.679688 C 20.5625 2.382812 22.417969 2.953125 23.6875 4.160156 C 25.453125 5.84375 25.941406 8.511719 25.65625 10.929688 C 25.574219 11.609375 25.441406 12.292969 25.507812 12.96875 C 25.652344 14.414062 26.65625 15.59375 27.5 16.769531 C 28.910156 18.738281 29.984375 21.375 28.859375 23.511719 C 28.179688 24.804688 26.839844 25.613281 25.488281 26.171875 C 23.359375 27.054688 20.84375 27.449219 18.800781 26.382812 C 18.09375 26.011719 17.457031 25.476562 16.679688 25.289062 C 15.882812 25.101562 15.046875 25.3125 14.234375 25.4375 C 11.585938 25.839844 8.445312 24.988281 7.328125 22.554688 C 6.914062 21.652344 6.828125 20.636719 6.511719 19.691406 C 5.835938 17.660156 4.191406 16.128906 2.8125 14.488281 C 1.4375 12.84375 0.230469 10.75 0.691406 8.660156 C 1.136719 6.660156 3.257812 5.1875 5.285156 5.472656 C 5.949219 5.570312 6.574219 5.820312 7.214844 6.011719 C 8.910156 6.523438 10.726562 6.601562 12.457031 6.261719 C 13.160156 6.125 14.164062 5.96875 14.75 5.519531 C 15.007812 5.324219 15.164062 4.996094 15.367188 4.742188 C 15.628906 4.417969 15.925781 4.125 16.246094 3.863281 C 16.988281 3.257812 17.886719 2.839844 18.835938 2.679688 Z M 18.835938 2.679688 " fill-opacity="1" fill-rule="nonzero"/></g></g></g></g></g></g></g><g clip-path="url(#3549b5d3d7)"><path fill="#7ccff6" d="M 27.554688 13.230469 C 27.53125 9.75 25.933594 4.71875 21.613281 2.789062 C 19.566406 1.878906 16.332031 1.40625 14.023438 2.941406 C 11.867188 4.378906 12.800781 6.050781 10.425781 8.917969 C 7.6875 12.222656 5.484375 11.773438 3.648438 14.660156 C 2.4375 16.566406 2.972656 18.871094 3.125 19.535156 C 4.25 24.382812 10.152344 26.050781 10.816406 26.226562 C 16.070312 27.625 20.398438 24.921875 21.285156 24.363281 C 27.472656 20.5 27.558594 13.550781 27.554688 13.230469 " fill-opacity="1" fill-rule="nonzero"/></g><path fill="#ffffff" d="M 22.0625 3.9375 L 8.1875 3.9375 C 7.652344 3.9375 7.21875 4.371094 7.21875 4.90625 L 7.21875 14.175781 C 7.21875 14.710938 7.652344 15.144531 8.1875 15.144531 L 22.0625 15.144531 C 22.597656 15.144531 23.03125 14.710938 23.03125 14.175781 L 23.03125 4.90625 C 23.03125 4.371094 22.597656 3.9375 22.0625 3.9375 " fill-opacity="1" fill-rule="nonzero"/><path fill="#000000" d="M 7.21875 12.125 C 7.195312 12.125 7.175781 12.105469 7.175781 12.082031 L 7.175781 4.90625 C 7.175781 4.347656 7.628906 3.890625 8.1875 3.890625 L 11.207031 3.890625 C 11.230469 3.890625 11.25 3.914062 11.25 3.9375 C 11.25 3.960938 11.230469 3.980469 11.207031 3.980469 L 8.1875 3.980469 C 7.679688 3.980469 7.265625 4.394531 7.265625 4.90625 L 7.265625 12.082031 C 7.265625 12.105469 7.246094 12.125 7.21875 12.125 " fill-opacity="1" fill-rule="nonzero"/><path fill="#000000" d="M 13.792969 3.980469 L 11.921875 3.980469 C 11.894531 3.980469 11.875 3.960938 11.875 3.9375 C 11.875 3.914062 11.894531 3.890625 11.921875 3.890625 L 13.792969 3.890625 C 13.816406 3.890625 13.839844 3.914062 13.839844 3.9375 C 13.839844 3.960938 13.816406 3.980469 13.792969 3.980469 " fill-opacity="1" fill-rule="nonzero"/><path fill="#7ccff6" d="M 21.6875 5.695312 L 8.554688 5.695312 C 8.527344 5.695312 8.507812 5.675781 8.507812 5.652344 C 8.507812 5.625 8.527344 5.605469 8.554688 5.605469 L 21.6875 5.605469 C 21.710938 5.605469 21.730469 5.625 21.730469 5.652344 C 21.730469 5.675781 21.710938 5.695312 21.6875 5.695312 " fill-opacity="1" fill-rule="nonzero"/><path fill="#57bfef" d="M 9.414062 4.890625 C 9.414062 5.015625 9.316406 5.113281 9.191406 5.113281 C 9.066406 5.113281 8.96875 5.015625 8.96875 4.890625 C 8.96875 4.765625 9.066406 4.667969 9.191406 4.667969 C 9.316406 4.667969 9.414062 4.765625 9.414062 4.890625 " fill-opacity="1" fill-rule="nonzero"/><path fill="#57bfef" d="M 10.308594 4.890625 C 10.308594 5.015625 10.210938 5.113281 10.085938 5.113281 C 9.960938 5.113281 9.863281 5.015625 9.863281 4.890625 C 9.863281 4.765625 9.960938 4.667969 10.085938 4.667969 C 10.210938 4.667969 10.308594 4.765625 10.308594 4.890625 " fill-opacity="1" fill-rule="nonzero"/><path fill="#57bfef" d="M 11.207031 4.890625 C 11.207031 5.015625 11.105469 5.113281 10.980469 5.113281 C 10.859375 5.113281 10.757812 5.015625 10.757812 4.890625 C 10.757812 4.765625 10.859375 4.667969 10.980469 4.667969 C 11.105469 4.667969 11.207031 4.765625 11.207031 4.890625 " fill-opacity="1" fill-rule="nonzero"/><path fill="#7ccff6" d="M 21.699219 4.933594 L 17.640625 4.933594 C 17.617188 4.933594 17.597656 4.914062 17.597656 4.890625 C 17.597656 4.867188 17.617188 4.84375 17.640625 4.84375 L 21.699219 4.84375 C 21.722656 4.84375 21.742188 4.867188 21.742188 4.890625 C 21.742188 4.914062 21.722656 4.933594 21.699219 4.933594 " fill-opacity="1" fill-rule="nonzero"/><path fill="#7ccff6" d="M 17.074219 4.933594 L 14.226562 4.933594 C 14.203125 4.933594 14.183594 4.914062 14.183594 4.890625 C 14.183594 4.867188 14.203125 4.84375 14.226562 4.84375 L 17.074219 4.84375 C 17.097656 4.84375 17.117188 4.867188 17.117188 4.890625 C 17.117188 4.914062 17.097656 4.933594 17.074219 4.933594 " fill-opacity="1" fill-rule="nonzero"/><path fill="#7ccff6" d="M 12.855469 4.933594 L 11.742188 4.933594 C 11.71875 4.933594 11.699219 4.914062 11.699219 4.890625 C 11.699219 4.867188 11.71875 4.84375 11.742188 4.84375 L 12.855469 4.84375 C 12.878906 4.84375 12.898438 4.867188 12.898438 4.890625 C 12.898438 4.914062 12.878906 4.933594 12.855469 4.933594 " fill-opacity="1" fill-rule="nonzero"/><path fill="#57bfef" d="M 21.699219 14.261719 L 8.554688 14.261719 L 8.554688 6.472656 L 21.699219 6.472656 L 21.699219 14.261719 " fill-opacity="1" fill-rule="nonzero"/><path fill="#ffffff" d="M 24.703125 13.589844 C 24.910156 13.589844 25.078125 13.757812 25.078125 13.964844 L 25.078125 16.546875 C 25.078125 16.753906 24.910156 16.921875 24.703125 16.921875 L 17.589844 16.921875 C 17.382812 16.921875 17.214844 16.753906 17.214844 16.546875 L 17.214844 13.964844 C 17.214844 13.757812 17.382812 13.589844 17.589844 13.589844 L 24.703125 13.589844 " fill-opacity="1" fill-rule="nonzero"/><path fill="#000000" d="M 24.703125 16.964844 L 17.589844 16.964844 C 17.355469 16.964844 17.167969 16.777344 17.167969 16.546875 L 17.167969 13.964844 C 17.167969 13.734375 17.355469 13.546875 17.589844 13.546875 L 18.992188 13.546875 C 19.015625 13.546875 19.039062 13.566406 19.039062 13.589844 C 19.039062 13.613281 19.015625 13.632812 18.992188 13.632812 L 17.589844 13.632812 C 17.40625 13.632812 17.257812 13.78125 17.257812 13.964844 L 17.257812 16.546875 C 17.257812 16.726562 17.40625 16.875 17.589844 16.875 L 24.703125 16.875 C 24.886719 16.875 25.035156 16.726562 25.035156 16.546875 L 25.035156 13.964844 C 25.035156 13.78125 24.886719 13.632812 24.703125 13.632812 L 22.375 13.632812 C 22.351562 13.632812 22.332031 13.613281 22.332031 13.589844 C 22.332031 13.566406 22.351562 13.546875 22.375 13.546875 L 24.703125 13.546875 C 24.933594 13.546875 25.125 13.734375 25.125 13.964844 L 25.125 16.546875 C 25.125 16.777344 24.933594 16.964844 24.703125 16.964844 " fill-opacity="1" fill-rule="nonzero"/><path fill="#7ccff6" d="M 24.039062 14.863281 L 18.386719 14.863281 C 18.359375 14.863281 18.339844 14.84375 18.339844 14.820312 C 18.339844 14.792969 18.359375 14.773438 18.386719 14.773438 L 24.039062 14.773438 C 24.066406 14.773438 24.085938 14.792969 24.085938 14.820312 C 24.085938 14.84375 24.066406 14.863281 24.039062 14.863281 " fill-opacity="1" fill-rule="nonzero"/><path fill="#7ccff6" d="M 24.039062 15.617188 L 22.859375 15.617188 C 22.832031 15.617188 22.8125 15.597656 22.8125 15.574219 C 22.8125 15.550781 22.832031 15.53125 22.859375 15.53125 L 24.039062 15.53125 C 24.066406 15.53125 24.085938 15.550781 24.085938 15.574219 C 24.085938 15.597656 24.066406 15.617188 24.039062 15.617188 " fill-opacity="1" fill-rule="nonzero"/><path fill="#7ccff6" d="M 21.144531 15.617188 L 18.386719 15.617188 C 18.359375 15.617188 18.339844 15.597656 18.339844 15.574219 C 18.339844 15.550781 18.359375 15.53125 18.386719 15.53125 L 21.144531 15.53125 C 21.171875 15.53125 21.191406 15.550781 21.191406 15.574219 C 21.191406 15.597656 21.171875 15.617188 21.144531 15.617188 " fill-opacity="1" fill-rule="nonzero"/><path fill="#ffffff" d="M 11.546875 6.269531 C 11.753906 6.269531 11.921875 6.4375 11.921875 6.644531 L 11.921875 9.226562 C 11.921875 9.433594 11.753906 9.601562 11.546875 9.601562 L 4.429688 9.601562 C 4.222656 9.601562 4.054688 9.433594 4.054688 9.226562 L 4.054688 6.644531 C 4.054688 6.4375 4.222656 6.269531 4.429688 6.269531 L 11.546875 6.269531 " fill-opacity="1" fill-rule="nonzero"/><path fill="#000000" d="M 11.546875 9.648438 L 4.429688 9.648438 C 4.199219 9.648438 4.011719 9.457031 4.011719 9.226562 L 4.011719 6.644531 C 4.011719 6.414062 4.199219 6.226562 4.429688 6.226562 L 5.835938 6.226562 C 5.859375 6.226562 5.878906 6.246094 5.878906 6.269531 C 5.878906 6.296875 5.859375 6.316406 5.835938 6.316406 L 4.429688 6.316406 C 4.25 6.316406 4.101562 6.464844 4.101562 6.644531 L 4.101562 9.226562 C 4.101562 9.410156 4.25 9.558594 4.429688 9.558594 L 11.546875 9.558594 C 11.726562 9.558594 11.875 9.410156 11.875 9.226562 L 11.875 6.644531 C 11.875 6.464844 11.726562 6.316406 11.546875 6.316406 L 9.21875 6.316406 C 9.191406 6.316406 9.171875 6.296875 9.171875 6.269531 C 9.171875 6.246094 9.191406 6.226562 9.21875 6.226562 L 11.546875 6.226562 C 11.777344 6.226562 11.964844 6.414062 11.964844 6.644531 L 11.964844 9.226562 C 11.964844 9.457031 11.777344 9.648438 11.546875 9.648438 " fill-opacity="1" fill-rule="nonzero"/><path fill="#000000" d="M 10.882812 7.542969 L 5.226562 7.542969 C 5.203125 7.542969 5.183594 7.523438 5.183594 7.5 C 5.183594 7.476562 5.203125 7.457031 5.226562 7.457031 L 10.882812 7.457031 C 10.90625 7.457031 10.925781 7.476562 10.925781 7.5 C 10.925781 7.523438 10.90625 7.542969 10.882812 7.542969 " fill-opacity="1" fill-rule="nonzero"/><path fill="#000000" d="M 10.882812 8.300781 L 9.699219 8.300781 C 9.675781 8.300781 9.65625 8.28125 9.65625 8.253906 C 9.65625 8.230469 9.675781 8.210938 9.699219 8.210938 L 10.882812 8.210938 C 10.90625 8.210938 10.925781 8.230469 10.925781 8.253906 C 10.925781 8.28125 10.90625 8.300781 10.882812 8.300781 " fill-opacity="1" fill-rule="nonzero"/><path fill="#000000" d="M 7.988281 8.300781 L 5.226562 8.300781 C 5.203125 8.300781 5.183594 8.28125 5.183594 8.253906 C 5.183594 8.230469 5.203125 8.210938 5.226562 8.210938 L 7.988281 8.210938 C 8.011719 8.210938 8.03125 8.230469 8.03125 8.253906 C 8.03125 8.28125 8.011719 8.300781 7.988281 8.300781 " fill-opacity="1" fill-rule="nonzero"/><path fill="#2cb2f1" d="M 16.109375 8.039062 L 15.578125 7.960938 L 15.339844 7.480469 C 15.289062 7.375 15.140625 7.375 15.089844 7.480469 L 14.851562 7.960938 L 14.320312 8.039062 C 14.207031 8.054688 14.160156 8.195312 14.242188 8.277344 L 14.628906 8.652344 L 14.535156 9.183594 C 14.515625 9.296875 14.636719 9.382812 14.738281 9.328125 L 15.214844 9.078125 L 15.691406 9.328125 C 15.792969 9.382812 15.914062 9.296875 15.894531 9.183594 L 15.804688 8.652344 L 16.1875 8.277344 C 16.269531 8.195312 16.226562 8.054688 16.109375 8.039062 " fill-opacity="1" fill-rule="nonzero"/><path fill="#2cb2f1" d="M 18.570312 8.039062 L 18.035156 7.960938 L 17.796875 7.480469 C 17.746094 7.375 17.597656 7.375 17.546875 7.480469 L 17.308594 7.960938 L 16.777344 8.039062 C 16.664062 8.054688 16.617188 8.195312 16.699219 8.277344 L 17.085938 8.652344 L 16.996094 9.183594 C 16.976562 9.296875 17.09375 9.382812 17.195312 9.328125 L 17.671875 9.078125 L 18.148438 9.328125 C 18.25 9.382812 18.371094 9.296875 18.351562 9.183594 L 18.261719 8.652344 L 18.644531 8.277344 C 18.730469 8.195312 18.683594 8.054688 18.570312 8.039062 " fill-opacity="1" fill-rule="nonzero"/><path fill="#2cb2f1" d="M 21.027344 8.039062 L 20.496094 7.960938 L 20.257812 7.480469 C 20.207031 7.375 20.058594 7.375 20.007812 7.480469 L 19.769531 7.960938 L 19.234375 8.039062 C 19.121094 8.054688 19.074219 8.195312 19.15625 8.277344 L 19.542969 8.652344 L 19.453125 9.183594 C 19.433594 9.296875 19.554688 9.382812 19.65625 9.328125 L 20.132812 9.078125 L 20.609375 9.328125 C 20.710938 9.382812 20.828125 9.296875 20.808594 9.183594 L 20.71875 8.652344 L 21.105469 8.277344 C 21.1875 8.195312 21.140625 8.054688 21.027344 8.039062 " fill-opacity="1" fill-rule="nonzero"/><path fill="#2cb2f1" d="M 23.484375 8.039062 L 22.953125 7.960938 L 22.714844 7.480469 C 22.664062 7.375 22.515625 7.375 22.464844 7.480469 L 22.226562 7.960938 L 21.695312 8.039062 C 21.578125 8.054688 21.535156 8.195312 21.617188 8.277344 L 22 8.652344 L 21.910156 9.183594 C 21.890625 9.296875 22.011719 9.382812 22.113281 9.332031 L 22.589844 9.078125 L 23.066406 9.332031 C 23.167969 9.382812 23.289062 9.296875 23.269531 9.183594 L 23.175781 8.652344 L 23.5625 8.277344 C 23.644531 8.195312 23.597656 8.054688 23.484375 8.039062 " fill-opacity="1" fill-rule="nonzero"/><path fill="#57bfef" d="M 25.941406 8.039062 L 25.410156 7.960938 L 25.171875 7.480469 C 25.121094 7.375 24.972656 7.375 24.921875 7.480469 L 24.683594 7.960938 L 24.152344 8.039062 C 24.039062 8.054688 23.992188 8.195312 24.074219 8.277344 L 24.460938 8.652344 L 24.367188 9.183594 C 24.347656 9.296875 24.46875 9.382812 24.570312 9.332031 L 25.046875 9.078125 L 25.523438 9.332031 C 25.625 9.382812 25.746094 9.296875 25.726562 9.183594 L 25.636719 8.652344 L 26.019531 8.277344 C 26.101562 8.195312 26.058594 8.054688 25.941406 8.039062 " fill-opacity="1" fill-rule="nonzero"/><path fill="#2cb2f1" d="M 24.503906 2.652344 L 23.34375 3.027344 L 22.375 2.28125 C 22.167969 2.121094 21.867188 2.269531 21.867188 2.53125 L 21.863281 3.753906 L 20.859375 4.441406 C 20.644531 4.589844 20.691406 4.921875 20.941406 5.003906 L 22.097656 5.382812 L 22.445312 6.554688 C 22.519531 6.804688 22.847656 6.863281 23.003906 6.648438 L 23.722656 5.664062 L 24.941406 5.699219 C 25.203125 5.703125 25.359375 5.40625 25.207031 5.195312 L 24.492188 4.207031 L 24.898438 3.058594 C 24.988281 2.8125 24.753906 2.570312 24.503906 2.652344 " fill-opacity="1" fill-rule="nonzero"/><g clip-path="url(#18519049e2)"><path fill="#000000" d="M 24.714844 2.460938 Z M 22.394531 2.070312 C 22.355469 2.070312 22.3125 2.078125 22.273438 2.097656 C 22.179688 2.144531 22.121094 2.238281 22.121094 2.34375 L 22.121094 3.5625 C 22.121094 3.578125 22.113281 3.589844 22.101562 3.597656 L 21.09375 4.289062 C 21.007812 4.347656 20.964844 4.449219 20.980469 4.550781 C 20.996094 4.65625 21.0625 4.738281 21.164062 4.773438 L 22.324219 5.152344 C 22.335938 5.15625 22.347656 5.167969 22.351562 5.179688 L 22.699219 6.351562 C 22.726562 6.453125 22.808594 6.523438 22.910156 6.542969 C 23.015625 6.558594 23.117188 6.519531 23.179688 6.433594 L 23.898438 5.449219 C 23.90625 5.4375 23.917969 5.429688 23.933594 5.429688 L 25.152344 5.460938 C 25.15625 5.460938 25.160156 5.460938 25.160156 5.460938 C 25.265625 5.460938 25.351562 5.410156 25.402344 5.316406 C 25.449219 5.222656 25.441406 5.117188 25.382812 5.03125 L 24.664062 4.042969 C 24.65625 4.03125 24.65625 4.015625 24.660156 4.003906 L 25.066406 2.851562 C 25.101562 2.753906 25.082031 2.648438 25.007812 2.570312 C 24.933594 2.496094 24.828125 2.46875 24.726562 2.503906 L 23.566406 2.878906 C 23.554688 2.882812 23.539062 2.878906 23.527344 2.871094 L 22.558594 2.128906 C 22.511719 2.089844 22.453125 2.070312 22.394531 2.070312 Z M 22.960938 6.632812 C 22.9375 6.632812 22.917969 6.632812 22.898438 6.628906 C 22.761719 6.605469 22.652344 6.507812 22.613281 6.375 L 22.273438 5.226562 L 21.136719 4.855469 C 21.003906 4.8125 20.910156 4.703125 20.890625 4.566406 C 20.871094 4.425781 20.929688 4.292969 21.042969 4.214844 L 22.03125 3.539062 L 22.03125 2.34375 C 22.03125 2.203125 22.109375 2.078125 22.234375 2.019531 C 22.359375 1.957031 22.503906 1.972656 22.613281 2.058594 L 23.5625 2.785156 L 24.699219 2.417969 C 24.832031 2.375 24.972656 2.410156 25.070312 2.511719 C 25.167969 2.609375 25.199219 2.753906 25.152344 2.882812 L 24.75 4.011719 L 25.453125 4.980469 C 25.535156 5.089844 25.542969 5.238281 25.480469 5.359375 C 25.414062 5.480469 25.289062 5.554688 25.152344 5.550781 L 23.953125 5.519531 L 23.25 6.484375 C 23.179688 6.582031 23.074219 6.632812 22.960938 6.632812 " fill-opacity="1" fill-rule="nonzero"/></g><path fill="#000000" d="M 25.71875 7.664062 C 25.710938 7.664062 25.699219 7.660156 25.691406 7.65625 C 25.671875 7.636719 25.667969 7.609375 25.6875 7.589844 C 26.164062 7.042969 26.375 6.457031 26.324219 5.855469 C 26.222656 4.757812 25.25 3.960938 25.238281 3.953125 C 25.21875 3.9375 25.21875 3.910156 25.234375 3.890625 C 25.25 3.871094 25.277344 3.867188 25.296875 3.882812 C 25.304688 3.890625 26.308594 4.710938 26.410156 5.847656 C 26.46875 6.472656 26.246094 7.082031 25.753906 7.648438 C 25.746094 7.660156 25.730469 7.664062 25.71875 7.664062 " fill-opacity="1" fill-rule="nonzero"/><path fill="#000000" d="M 24.367188 7.84375 C 24.363281 7.84375 24.355469 7.839844 24.351562 7.839844 C 24.328125 7.828125 24.316406 7.800781 24.328125 7.78125 C 24.75 6.789062 24.046875 5.984375 24.042969 5.976562 C 24.023438 5.957031 24.027344 5.929688 24.042969 5.914062 C 24.0625 5.898438 24.089844 5.898438 24.109375 5.917969 C 24.113281 5.925781 24.855469 6.773438 24.410156 7.816406 C 24.402344 7.832031 24.386719 7.84375 24.367188 7.84375 " fill-opacity="1" fill-rule="nonzero"/><g clip-path="url(#42189e1c06)"><g clip-path="url(#79b15b375d)"><path fill="#000000" d="M 5.730469 19.648438 C 5.730469 19.648438 5.726562 19.648438 5.726562 19.648438 C 5.703125 19.644531 5.683594 19.621094 5.6875 19.597656 L 5.785156 18.605469 C 5.785156 18.582031 5.808594 18.566406 5.832031 18.566406 C 5.855469 18.570312 5.875 18.589844 5.871094 18.617188 L 5.773438 19.605469 C 5.773438 19.628906 5.753906 19.648438 5.730469 19.648438 " fill-opacity="1" fill-rule="nonzero"/></g></g><g clip-path="url(#061489cbcb)"><g clip-path="url(#87ff6fa555)"><path fill="#ffffff" d="M 23.085938 10.621094 C 22.9375 10.480469 22.757812 10.472656 22.550781 10.5 L 22.480469 10.453125 C 22.320312 10.355469 22.125 10.324219 21.941406 10.367188 L 20.496094 10.722656 C 20.4375 10.738281 20.382812 10.683594 20.394531 10.625 C 20.421875 10.503906 20.464844 10.320312 20.496094 10.175781 C 20.527344 10.03125 20.472656 9.941406 20.421875 9.898438 C 20.394531 9.875 20.351562 9.875 20.324219 9.90625 C 20.164062 10.085938 19.574219 10.789062 19.59375 11.136719 C 19.617188 11.535156 19.890625 12.703125 19.890625 12.703125 L 21.117188 12.703125 L 20.878906 11.917969 C 20.859375 11.863281 20.890625 11.804688 20.945312 11.785156 L 22.699219 11.164062 C 22.730469 11.152344 22.738281 11.113281 22.71875 11.089844 C 22.679688 11.042969 22.617188 10.980469 22.550781 10.933594 L 23.046875 10.738281 C 23.09375 10.71875 23.113281 10.664062 23.085938 10.621094 " fill-opacity="1" fill-rule="nonzero"/></g></g><g clip-path="url(#4a576554b9)"><g clip-path="url(#aacac264e0)"><path fill="#000000" d="M 19.925781 12.660156 L 21.058594 12.660156 L 20.835938 11.929688 C 20.8125 11.851562 20.851562 11.769531 20.929688 11.742188 L 22.683594 11.125 L 22.71875 11.089844 L 22.683594 11.117188 C 22.644531 11.074219 22.585938 11.011719 22.523438 10.972656 L 22.457031 10.921875 L 23.03125 10.695312 C 23.046875 10.691406 23.050781 10.679688 23.050781 10.675781 C 23.054688 10.667969 23.054688 10.660156 23.050781 10.648438 C 22.917969 10.527344 22.761719 10.519531 22.558594 10.542969 L 22.542969 10.546875 L 22.453125 10.492188 C 22.304688 10.398438 22.121094 10.371094 21.953125 10.410156 L 20.507812 10.765625 C 20.464844 10.777344 20.417969 10.765625 20.386719 10.734375 C 20.355469 10.703125 20.34375 10.65625 20.351562 10.613281 C 20.378906 10.492188 20.421875 10.3125 20.453125 10.167969 C 20.480469 10.042969 20.433594 9.972656 20.390625 9.933594 C 20.386719 9.925781 20.378906 9.925781 20.375 9.925781 C 20.371094 9.925781 20.363281 9.929688 20.359375 9.933594 C 20 10.34375 19.625 10.875 19.640625 11.132812 C 19.65625 11.488281 19.882812 12.464844 19.925781 12.660156 Z M 21.179688 12.75 L 19.855469 12.75 L 19.847656 12.714844 C 19.835938 12.667969 19.570312 11.539062 19.550781 11.136719 C 19.53125 10.777344 20.113281 10.082031 20.292969 9.875 C 20.3125 9.851562 20.339844 9.839844 20.371094 9.835938 C 20.398438 9.835938 20.429688 9.84375 20.453125 9.867188 C 20.5 9.910156 20.578125 10.011719 20.539062 10.1875 C 20.507812 10.332031 20.464844 10.511719 20.4375 10.632812 C 20.433594 10.652344 20.445312 10.664062 20.449219 10.667969 C 20.453125 10.675781 20.46875 10.683594 20.484375 10.679688 L 21.929688 10.324219 C 22.125 10.277344 22.332031 10.3125 22.503906 10.417969 L 22.5625 10.453125 C 22.78125 10.429688 22.964844 10.445312 23.117188 10.589844 L 23.121094 10.59375 L 23.125 10.601562 C 23.144531 10.632812 23.148438 10.667969 23.136719 10.703125 C 23.125 10.738281 23.097656 10.765625 23.066406 10.777344 L 22.640625 10.945312 C 22.683594 10.984375 22.722656 11.027344 22.75 11.0625 C 22.769531 11.082031 22.777344 11.117188 22.769531 11.144531 C 22.761719 11.175781 22.742188 11.199219 22.710938 11.207031 L 20.960938 11.828125 C 20.925781 11.839844 20.910156 11.871094 20.921875 11.90625 L 21.179688 12.75 " fill-opacity="1" fill-rule="nonzero"/></g></g><g clip-path="url(#cb62109806)"><g clip-path="url(#6992ac35f4)"><path fill="#000000" d="M 21.050781 11.34375 C 21.03125 11.34375 21.011719 11.332031 21.007812 11.308594 C 21 11.285156 21.015625 11.261719 21.039062 11.257812 L 22.285156 10.945312 C 22.308594 10.9375 22.332031 10.953125 22.339844 10.976562 C 22.347656 11 22.332031 11.023438 22.308594 11.03125 L 21.0625 11.34375 C 21.058594 11.34375 21.054688 11.34375 21.050781 11.34375 " fill-opacity="1" fill-rule="nonzero"/></g></g><g clip-path="url(#ecbfe70988)"><g clip-path="url(#6f93061c71)"><path fill="#000000" d="M 20.925781 10.980469 C 20.902344 10.980469 20.886719 10.964844 20.882812 10.945312 C 20.875 10.921875 20.890625 10.898438 20.914062 10.890625 L 22.160156 10.578125 C 22.183594 10.574219 22.207031 10.589844 22.214844 10.613281 C 22.21875 10.636719 22.203125 10.660156 22.179688 10.664062 L 20.933594 10.976562 C 20.929688 10.976562 20.929688 10.980469 20.925781 10.980469 " fill-opacity="1" fill-rule="nonzero"/></g></g><g clip-path="url(#a8efa6460c)"><g clip-path="url(#565bc922ca)"><path fill="#2cb2f1" d="M 4.507812 16.058594 C 4.859375 16.078125 5.441406 16.109375 5.796875 16.125 C 5.960938 16.132812 6.085938 16.277344 6.066406 16.441406 L 5.828125 18.613281 C 5.984375 18.328125 6.269531 17.851562 6.742188 17.367188 C 8.847656 15.199219 12.316406 15.203125 13.851562 15.617188 C 15.550781 16.074219 15.929688 16.28125 15.929688 16.28125 C 16.386719 16.5625 17.066406 16.8125 17.921875 16.65625 C 19.496094 16.371094 20.207031 15.023438 19.550781 12.847656 C 19.492188 12.648438 19.640625 12.449219 19.847656 12.449219 L 21.183594 12.449219 C 21.328125 12.449219 21.457031 12.542969 21.496094 12.683594 C 21.800781 13.71875 22.816406 17.902344 19.890625 19.214844 C 18.164062 19.992188 16.347656 19.902344 16.347656 19.902344 C 16.464844 20.898438 16.578125 21.894531 16.691406 22.890625 C 17.039062 24.542969 16.722656 25.1875 16.386719 25.472656 C 15.605469 26.144531 14.53125 25.222656 11.871094 25.40625 C 10.175781 25.523438 9.757812 25.976562 9.097656 25.636719 C 8.394531 25.273438 7.761719 24.1875 7.917969 21.136719 C 7.917969 21.136719 6.90625 22.246094 4.980469 21.886719 C 2.601562 21.441406 3.753906 17.433594 4.121094 16.320312 C 4.175781 16.15625 4.335938 16.046875 4.507812 16.058594 " fill-opacity="1" fill-rule="nonzero"/></g></g><g clip-path="url(#1f12c26651)"><g clip-path="url(#4e70ff2452)"><path fill="#000000" d="M 7.917969 21.09375 C 7.921875 21.09375 7.929688 21.09375 7.933594 21.097656 C 7.949219 21.101562 7.960938 21.121094 7.960938 21.140625 C 7.835938 23.636719 8.222656 25.136719 9.117188 25.597656 C 9.484375 25.785156 9.765625 25.722656 10.277344 25.609375 C 10.644531 25.523438 11.144531 25.410156 11.867188 25.359375 C 13.132812 25.273438 14.058594 25.4375 14.730469 25.558594 C 15.472656 25.691406 15.964844 25.777344 16.359375 25.441406 C 16.820312 25.042969 16.921875 24.1875 16.648438 22.902344 C 16.648438 22.898438 16.648438 22.898438 16.648438 22.898438 L 16.304688 19.910156 C 16.304688 19.894531 16.308594 19.882812 16.316406 19.875 C 16.324219 19.863281 16.335938 19.859375 16.351562 19.859375 C 16.367188 19.859375 18.175781 19.9375 19.871094 19.175781 C 21.101562 18.625 21.769531 17.503906 21.859375 15.84375 C 21.933594 14.503906 21.601562 13.195312 21.453125 12.695312 C 21.417969 12.574219 21.308594 12.492188 21.183594 12.492188 L 19.847656 12.492188 C 19.765625 12.492188 19.6875 12.53125 19.636719 12.597656 C 19.585938 12.667969 19.570312 12.753906 19.59375 12.835938 C 19.953125 14.023438 19.917969 15.015625 19.492188 15.707031 C 19.171875 16.230469 18.632812 16.574219 17.929688 16.703125 C 17.035156 16.863281 16.335938 16.582031 15.90625 16.320312 C 15.90625 16.320312 15.507812 16.109375 13.839844 15.660156 C 12.191406 15.214844 8.816406 15.292969 6.773438 17.394531 C 6.417969 17.761719 6.113281 18.179688 5.867188 18.632812 C 5.855469 18.652344 5.835938 18.660156 5.8125 18.652344 C 5.792969 18.648438 5.78125 18.628906 5.785156 18.605469 L 6.023438 16.4375 C 6.03125 16.371094 6.011719 16.304688 5.96875 16.253906 C 5.921875 16.203125 5.863281 16.171875 5.796875 16.171875 C 5.46875 16.152344 4.863281 16.125 4.507812 16.101562 C 4.351562 16.09375 4.210938 16.1875 4.164062 16.335938 C 3.90625 17.117188 3.121094 19.777344 3.902344 21.101562 C 4.140625 21.503906 4.503906 21.753906 4.988281 21.84375 C 6.863281 22.191406 7.875 21.117188 7.882812 21.105469 C 7.890625 21.097656 7.902344 21.09375 7.917969 21.09375 Z M 9.597656 25.808594 C 9.421875 25.808594 9.257812 25.769531 9.078125 25.675781 C 8.660156 25.460938 8.347656 25.035156 8.144531 24.410156 C 7.898438 23.65625 7.804688 22.59375 7.867188 21.246094 C 7.753906 21.347656 7.527344 21.527344 7.1875 21.6875 C 6.734375 21.902344 5.976562 22.117188 4.972656 21.929688 C 4.460938 21.835938 4.078125 21.570312 3.828125 21.148438 C 3.484375 20.566406 3.390625 19.691406 3.546875 18.542969 C 3.675781 17.613281 3.933594 16.742188 4.078125 16.308594 C 4.140625 16.121094 4.316406 16.003906 4.511719 16.015625 C 4.867188 16.035156 5.472656 16.066406 5.800781 16.082031 C 5.890625 16.085938 5.976562 16.125 6.035156 16.195312 C 6.09375 16.265625 6.121094 16.355469 6.113281 16.449219 L 5.894531 18.402344 C 6.125 18.011719 6.398438 17.652344 6.710938 17.335938 C 7.886719 16.125 9.421875 15.65625 10.503906 15.480469 C 11.878906 15.25 13.140625 15.378906 13.863281 15.574219 C 15.550781 16.027344 15.9375 16.234375 15.953125 16.242188 C 16.371094 16.5 17.046875 16.773438 17.914062 16.613281 C 18.589844 16.492188 19.109375 16.160156 19.417969 15.660156 C 19.828125 14.992188 19.859375 14.023438 19.507812 12.859375 C 19.476562 12.75 19.496094 12.636719 19.5625 12.546875 C 19.632812 12.453125 19.734375 12.402344 19.847656 12.402344 L 21.183594 12.402344 C 21.347656 12.402344 21.492188 12.511719 21.539062 12.667969 C 21.6875 13.175781 22.023438 14.496094 21.949219 15.847656 C 21.855469 17.542969 21.171875 18.691406 19.910156 19.257812 C 18.355469 19.957031 16.710938 19.957031 16.398438 19.949219 L 16.738281 22.886719 C 17.015625 24.203125 16.90625 25.085938 16.417969 25.507812 C 15.988281 25.875 15.480469 25.785156 14.714844 25.648438 C 14.046875 25.527344 13.128906 25.363281 11.871094 25.449219 C 11.15625 25.5 10.679688 25.609375 10.296875 25.695312 C 10.019531 25.757812 9.800781 25.808594 9.597656 25.808594 " fill-opacity="1" fill-rule="nonzero"/></g></g><g clip-path="url(#6535e873f8)"><g clip-path="url(#e53a40ce2d)"><path fill="#ffffff" d="M 5.78125 14.6875 L 5.625 14.515625 L 5.625 13.351562 C 5.625 13.238281 5.535156 13.148438 5.421875 13.148438 C 5.308594 13.148438 5.214844 13.238281 5.214844 13.351562 L 5.214844 14.605469 L 4.125 14.84375 L 4.125 15.484375 C 4.125 15.761719 4.285156 16.015625 4.539062 16.132812 L 4.59375 16.15625 C 4.921875 16.308594 5.304688 16.28125 5.605469 16.082031 C 5.75 15.988281 5.847656 15.832031 5.867188 15.660156 L 5.929688 15.160156 C 5.953125 14.988281 5.898438 14.816406 5.78125 14.6875 " fill-opacity="1" fill-rule="nonzero"/></g></g><g clip-path="url(#720e383fd0)"><g clip-path="url(#67b5a8c2d6)"><path fill="#000000" d="M 4.167969 14.878906 L 4.167969 15.484375 C 4.167969 15.742188 4.320312 15.980469 4.558594 16.089844 L 4.613281 16.117188 C 4.925781 16.261719 5.289062 16.238281 5.582031 16.046875 C 5.714844 15.957031 5.804688 15.8125 5.824219 15.652344 L 5.886719 15.15625 C 5.90625 14.996094 5.855469 14.835938 5.75 14.71875 L 5.582031 14.53125 L 5.582031 13.351562 C 5.582031 13.261719 5.507812 13.191406 5.421875 13.191406 C 5.332031 13.191406 5.261719 13.261719 5.261719 13.351562 L 5.261719 14.640625 Z M 5.03125 16.300781 C 4.878906 16.300781 4.722656 16.265625 4.574219 16.199219 L 4.519531 16.171875 C 4.253906 16.046875 4.078125 15.777344 4.078125 15.484375 L 4.078125 14.808594 L 5.171875 14.570312 L 5.171875 13.351562 C 5.171875 13.214844 5.285156 13.101562 5.421875 13.101562 C 5.558594 13.101562 5.671875 13.214844 5.671875 13.351562 L 5.671875 14.5 L 5.816406 14.660156 C 5.941406 14.796875 5.996094 14.980469 5.976562 15.167969 L 5.914062 15.664062 C 5.890625 15.851562 5.785156 16.015625 5.628906 16.121094 C 5.449219 16.238281 5.242188 16.300781 5.03125 16.300781 " fill-opacity="1" fill-rule="nonzero"/></g></g><g clip-path="url(#38b05484c3)"><g clip-path="url(#8470928733)"><path fill="#ffffff" d="M 5.066406 14.933594 L 4.894531 14.933594 C 4.820312 14.933594 4.761719 14.875 4.761719 14.800781 L 4.761719 14.296875 C 4.761719 14.222656 4.820312 14.164062 4.894531 14.164062 L 5.03125 14.164062 C 5.125 14.164062 5.199219 14.238281 5.199219 14.332031 L 5.199219 14.800781 C 5.199219 14.875 5.140625 14.933594 5.066406 14.933594 " fill-opacity="1" fill-rule="nonzero"/></g></g><g clip-path="url(#01d895da77)"><g clip-path="url(#a8931359be)"><path fill="#000000" d="M 4.894531 14.207031 C 4.84375 14.207031 4.804688 14.246094 4.804688 14.296875 L 4.804688 14.800781 C 4.804688 14.851562 4.84375 14.890625 4.894531 14.890625 L 5.066406 14.890625 C 5.113281 14.890625 5.15625 14.851562 5.15625 14.800781 L 5.15625 14.332031 C 5.15625 14.261719 5.097656 14.207031 5.03125 14.207031 Z M 5.066406 14.980469 L 4.894531 14.980469 C 4.796875 14.980469 4.714844 14.898438 4.714844 14.800781 L 4.714844 14.296875 C 4.714844 14.199219 4.796875 14.117188 4.894531 14.117188 L 5.03125 14.117188 C 5.148438 14.117188 5.242188 14.214844 5.242188 14.332031 L 5.242188 14.800781 C 5.242188 14.898438 5.164062 14.980469 5.066406 14.980469 " fill-opacity="1" fill-rule="nonzero"/></g></g><g clip-path="url(#02ad3abd5a)"><g clip-path="url(#c23f801025)"><path fill="#ffffff" d="M 4.628906 15.03125 L 4.5625 15.03125 C 4.488281 15.03125 4.429688 14.972656 4.429688 14.898438 L 4.429688 14.402344 C 4.429688 14.328125 4.488281 14.269531 4.5625 14.269531 L 4.628906 14.269531 C 4.699219 14.269531 4.761719 14.328125 4.761719 14.402344 L 4.761719 14.898438 C 4.761719 14.972656 4.699219 15.03125 4.628906 15.03125 " fill-opacity="1" fill-rule="nonzero"/></g></g><g clip-path="url(#1f1e2d3e24)"><g clip-path="url(#c1a74764aa)"><path fill="#000000" d="M 4.5625 14.316406 C 4.511719 14.316406 4.472656 14.355469 4.472656 14.402344 L 4.472656 14.898438 C 4.472656 14.945312 4.511719 14.988281 4.5625 14.988281 L 4.628906 14.988281 C 4.675781 14.988281 4.714844 14.945312 4.714844 14.898438 L 4.714844 14.402344 C 4.714844 14.355469 4.675781 14.316406 4.628906 14.316406 Z M 4.628906 15.074219 L 4.5625 15.074219 C 4.464844 15.074219 4.382812 14.996094 4.382812 14.898438 L 4.382812 14.402344 C 4.382812 14.304688 4.464844 14.226562 4.5625 14.226562 L 4.628906 14.226562 C 4.726562 14.226562 4.804688 14.304688 4.804688 14.402344 L 4.804688 14.898438 C 4.804688 14.996094 4.726562 15.074219 4.628906 15.074219 " fill-opacity="1" fill-rule="nonzero"/></g></g><g clip-path="url(#24c6d9384e)"><g clip-path="url(#fa57d9fe91)"><path fill="#ffffff" d="M 4.296875 15.152344 L 4.257812 15.152344 C 4.183594 15.152344 4.125 15.089844 4.125 15.019531 L 4.125 14.527344 C 4.125 14.453125 4.183594 14.394531 4.257812 14.394531 L 4.296875 14.394531 C 4.371094 14.394531 4.429688 14.453125 4.429688 14.527344 L 4.429688 15.019531 C 4.429688 15.089844 4.371094 15.152344 4.296875 15.152344 " fill-opacity="1" fill-rule="nonzero"/></g></g><g clip-path="url(#8621f595fe)"><g clip-path="url(#a3d48d5925)"><path fill="#000000" d="M 4.257812 14.441406 C 4.207031 14.441406 4.167969 14.480469 4.167969 14.527344 L 4.167969 15.019531 C 4.167969 15.066406 4.207031 15.105469 4.257812 15.105469 L 4.296875 15.105469 C 4.34375 15.105469 4.382812 15.066406 4.382812 15.019531 L 4.382812 14.527344 C 4.382812 14.480469 4.34375 14.441406 4.296875 14.441406 Z M 4.296875 15.195312 L 4.257812 15.195312 C 4.160156 15.195312 4.078125 15.117188 4.078125 15.019531 L 4.078125 14.527344 C 4.078125 14.429688 4.160156 14.351562 4.257812 14.351562 L 4.296875 14.351562 C 4.394531 14.351562 4.472656 14.429688 4.472656 14.527344 L 4.472656 15.019531 C 4.472656 15.117188 4.394531 15.195312 4.296875 15.195312 " fill-opacity="1" fill-rule="nonzero"/></g></g><g clip-path="url(#64c867bdc3)"><g clip-path="url(#3468e1b2a4)"><path fill="#000000" d="M 5.730469 14.980469 C 5.722656 14.980469 5.710938 14.976562 5.703125 14.972656 L 5.238281 14.636719 C 5.21875 14.621094 5.214844 14.59375 5.226562 14.574219 C 5.242188 14.554688 5.269531 14.546875 5.289062 14.5625 L 5.757812 14.898438 C 5.777344 14.914062 5.78125 14.941406 5.765625 14.960938 C 5.757812 14.972656 5.742188 14.980469 5.730469 14.980469 " fill-opacity="1" fill-rule="nonzero"/></g></g><g clip-path="url(#95debe5c19)"><g clip-path="url(#3c9fd81006)"><path fill="#000000" d="M 4.902344 15.769531 C 4.878906 15.769531 4.859375 15.75 4.855469 15.726562 C 4.839844 15.355469 5.066406 15.195312 5.183594 15.136719 L 5.015625 14.964844 C 4.996094 14.949219 4.996094 14.921875 5.015625 14.902344 C 5.03125 14.886719 5.0625 14.886719 5.078125 14.902344 L 5.296875 15.121094 C 5.304688 15.128906 5.3125 15.148438 5.308594 15.164062 C 5.304688 15.179688 5.292969 15.191406 5.277344 15.195312 C 5.261719 15.199219 4.925781 15.296875 4.945312 15.722656 C 4.949219 15.746094 4.929688 15.765625 4.902344 15.769531 " fill-opacity="1" fill-rule="nonzero"/></g></g><g clip-path="url(#2c9af01174)"><g clip-path="url(#ce0464fabd)"><path fill="#000000" d="M 11.269531 13.601562 C 11.054688 13.734375 10.714844 13.945312 10.335938 13.832031 C 9.933594 13.710938 9.601562 13.257812 9.675781 12.957031 C 9.742188 12.6875 10.082031 12.695312 10.132812 12.417969 C 10.183594 12.15625 9.898438 12.058594 9.878906 11.738281 C 9.855469 11.308594 10.316406 10.800781 10.746094 10.789062 C 11.007812 10.78125 11.035156 10.96875 11.335938 10.984375 C 11.75 11.011719 11.832031 10.671875 12.304688 10.628906 C 12.382812 10.621094 12.851562 10.554688 13.152344 10.859375 C 13.339844 11.050781 13.433594 11.363281 13.367188 11.640625 C 13.253906 12.113281 12.761719 12.054688 12.082031 12.742188 C 11.671875 13.15625 11.675781 13.347656 11.269531 13.601562 " fill-opacity="1" fill-rule="nonzero"/></g></g><g clip-path="url(#5e42a15efa)"><g clip-path="url(#f524bbefa5)"><path fill="#ffffff" d="M 12.972656 12.9375 C 12.855469 12.796875 12.777344 12.628906 12.742188 12.449219 C 12.683594 12.125 12.617188 11.84375 12.617188 11.84375 C 12.140625 12.238281 11.597656 11.964844 11.597656 11.964844 C 11.144531 12.316406 11.226562 12.8125 11.226562 12.8125 C 11.226562 12.8125 10.808594 12.765625 10.835938 13.035156 C 10.867188 13.304688 11.273438 13.371094 11.277344 13.375 L 10.785156 15.367188 C 10.753906 15.488281 10.832031 15.617188 10.957031 15.644531 C 11.714844 15.808594 12.191406 15.746094 12.433594 15.683594 C 12.503906 15.664062 12.523438 15.578125 12.472656 15.527344 C 12.207031 15.265625 12.164062 14.515625 12.164062 14.027344 C 12.410156 14.082031 12.636719 14.03125 12.746094 13.808594 C 12.828125 13.644531 12.847656 13.476562 12.839844 13.222656 C 12.839844 13.175781 13.003906 12.988281 12.972656 12.9375 " fill-opacity="1" fill-rule="nonzero"/></g></g><g clip-path="url(#f63c1692bd)"><g clip-path="url(#63fddbd493)"><path fill="#000000" d="M 11.164062 12.851562 C 11.085938 12.851562 10.96875 12.863281 10.914062 12.921875 C 10.886719 12.949219 10.875 12.984375 10.882812 13.03125 C 10.90625 13.265625 11.28125 13.328125 11.285156 13.328125 L 11.332031 13.335938 L 11.320312 13.382812 L 10.828125 15.375 C 10.816406 15.425781 10.824219 15.476562 10.851562 15.519531 C 10.875 15.558594 10.917969 15.589844 10.964844 15.601562 C 11.734375 15.769531 12.207031 15.695312 12.421875 15.640625 C 12.445312 15.632812 12.453125 15.613281 12.457031 15.605469 C 12.460938 15.589844 12.453125 15.570312 12.441406 15.558594 C 12.171875 15.292969 12.117188 14.578125 12.121094 14.027344 L 12.121094 13.972656 L 12.175781 13.984375 C 12.351562 14.023438 12.589844 14.019531 12.707031 13.785156 C 12.78125 13.640625 12.804688 13.484375 12.796875 13.222656 C 12.792969 13.191406 12.816406 13.15625 12.859375 13.089844 C 12.882812 13.050781 12.929688 12.984375 12.933594 12.957031 C 12.816406 12.8125 12.734375 12.640625 12.699219 12.457031 C 12.65625 12.230469 12.613281 12.023438 12.589844 11.921875 C 12.171875 12.222656 11.71875 12.066406 11.605469 12.019531 C 11.203125 12.34375 11.269531 12.785156 11.273438 12.804688 L 11.28125 12.863281 L 11.222656 12.855469 C 11.207031 12.855469 11.1875 12.851562 11.164062 12.851562 Z M 11.855469 15.796875 C 11.609375 15.796875 11.308594 15.765625 10.949219 15.6875 C 10.875 15.671875 10.8125 15.628906 10.773438 15.566406 C 10.734375 15.5 10.722656 15.425781 10.742188 15.355469 L 11.222656 13.40625 C 11.109375 13.378906 10.820312 13.285156 10.792969 13.039062 C 10.785156 12.964844 10.804688 12.90625 10.851562 12.859375 C 10.9375 12.769531 11.097656 12.761719 11.179688 12.761719 C 11.171875 12.621094 11.1875 12.226562 11.570312 11.929688 L 11.59375 11.914062 L 11.617188 11.925781 C 11.640625 11.9375 12.140625 12.179688 12.589844 11.808594 L 12.644531 11.761719 L 12.660156 11.832031 C 12.664062 11.835938 12.726562 12.121094 12.789062 12.4375 C 12.820312 12.613281 12.898438 12.773438 13.007812 12.910156 L 13.011719 12.914062 C 13.042969 12.96875 12.992188 13.046875 12.933594 13.136719 C 12.917969 13.167969 12.890625 13.207031 12.882812 13.222656 C 12.894531 13.496094 12.867188 13.667969 12.789062 13.828125 C 12.683594 14.035156 12.480469 14.125 12.207031 14.082031 C 12.210938 14.808594 12.316406 15.308594 12.503906 15.496094 C 12.539062 15.53125 12.554688 15.582031 12.542969 15.628906 C 12.527344 15.675781 12.492188 15.714844 12.445312 15.726562 C 12.304688 15.761719 12.109375 15.796875 11.855469 15.796875 " fill-opacity="1" fill-rule="nonzero"/></g></g><g clip-path="url(#a7a7a2dd5d)"><g clip-path="url(#f36b81af35)"><path fill="#000000" d="M 12.164062 14.070312 C 12.160156 14.070312 12.160156 14.070312 12.15625 14.070312 C 11.960938 14.035156 11.691406 13.851562 11.679688 13.84375 C 11.660156 13.832031 11.65625 13.804688 11.667969 13.78125 C 11.683594 13.761719 11.710938 13.757812 11.730469 13.769531 C 11.734375 13.773438 11.996094 13.949219 12.171875 13.984375 C 12.195312 13.988281 12.210938 14.011719 12.207031 14.035156 C 12.203125 14.054688 12.183594 14.070312 12.164062 14.070312 " fill-opacity="1" fill-rule="nonzero"/></g></g><g clip-path="url(#f428bec08e)"><g clip-path="url(#7f990cf4fb)"><path fill="#000000" d="M 15.511719 23.917969 C 15.460938 23.796875 15.359375 23.703125 15.234375 23.664062 C 14.539062 23.445312 12.117188 22.871094 9.617188 24.472656 C 9.5 24.546875 9.425781 24.675781 9.417969 24.8125 C 9.324219 26.082031 8.988281 32.714844 11.085938 40.566406 L 12.5 40.464844 L 12.789062 27.039062 C 12.789062 27.039062 14.882812 31.960938 13.179688 39.792969 L 14.648438 40.066406 C 14.648438 40.066406 16.800781 37.238281 17.183594 32.914062 C 17.527344 29.09375 15.894531 24.847656 15.511719 23.917969 " fill-opacity="1" fill-rule="nonzero"/></g></g><g clip-path="url(#e8425e91cc)"><g clip-path="url(#5d5fad0bb8)"><path fill="#57bfef" d="M 18.46875 26.59375 C 18.46875 26.59375 19.34375 25.792969 19.75 24.242188 C 19.769531 24.15625 19.394531 24.0625 19.414062 23.976562 C 19.4375 23.859375 19.890625 23.636719 19.910156 23.519531 C 20.0625 22.507812 19.976562 21.289062 19.363281 19.910156 C 19.363281 19.910156 19.03125 20.261719 18.679688 20.886719 C 18.640625 20.960938 18.820312 21.324219 18.78125 21.40625 C 18.742188 21.480469 18.480469 21.269531 18.441406 21.351562 C 17.886719 22.546875 17.464844 24.402344 18.46875 26.59375 " fill-opacity="1" fill-rule="nonzero"/></g></g><g clip-path="url(#ef1233b472)"><g clip-path="url(#0bf0f76d71)"><path fill="#ffffff" d="M 18.855469 27.074219 C 18.855469 27.074219 23.03125 25.746094 24.289062 20.699219 C 24.320312 20.574219 23.785156 20.378906 23.8125 20.25 C 23.839844 20.121094 24.59375 19.734375 24.613281 19.601562 C 24.726562 18.960938 24.789062 18.273438 24.792969 17.535156 C 24.792969 17.535156 18.800781 20.011719 18.855469 27.074219 " fill-opacity="1" fill-rule="nonzero"/></g></g><g clip-path="url(#95349e7098)"><g clip-path="url(#8dff63ae2d)"><path fill="#7ccff6" d="M 19.65625 25.855469 C 19.648438 25.855469 19.640625 25.855469 19.632812 25.851562 C 19.609375 25.835938 19.605469 25.808594 19.617188 25.789062 C 20.082031 24.992188 20.5 24.261719 20.851562 23.617188 C 20.863281 23.59375 20.890625 23.585938 20.914062 23.597656 C 20.933594 23.609375 20.941406 23.636719 20.929688 23.660156 C 20.574219 24.304688 20.160156 25.035156 19.691406 25.835938 C 19.683594 25.847656 19.671875 25.855469 19.65625 25.855469 " fill-opacity="1" fill-rule="nonzero"/></g></g><g clip-path="url(#33d1454f43)"><g clip-path="url(#d5e0756a1c)"><path fill="#7ccff6" d="M 21.59375 22.363281 C 21.585938 22.363281 21.582031 22.359375 21.574219 22.355469 C 21.550781 22.347656 21.542969 22.320312 21.554688 22.296875 C 21.566406 22.273438 22.699219 20.058594 23.578125 19.257812 C 23.597656 19.242188 23.625 19.242188 23.640625 19.261719 C 23.65625 19.28125 23.65625 19.308594 23.636719 19.324219 C 22.773438 20.113281 21.644531 22.316406 21.632812 22.335938 C 21.625 22.351562 21.609375 22.363281 21.59375 22.363281 " fill-opacity="1" fill-rule="nonzero"/></g></g><path fill="#ffffff" d="M 6.96875 13.3125 L 3.71875 13.3125 C 3.523438 13.3125 3.363281 13.15625 3.363281 12.960938 C 3.363281 12.765625 3.523438 12.605469 3.71875 12.605469 L 6.777344 12.605469 C 6.800781 12.605469 6.820312 12.625 6.820312 12.652344 C 6.820312 12.675781 6.800781 12.695312 6.777344 12.695312 L 3.71875 12.695312 C 3.570312 12.695312 3.453125 12.8125 3.453125 12.960938 C 3.453125 13.105469 3.570312 13.226562 3.71875 13.226562 L 6.96875 13.226562 C 6.992188 13.226562 7.015625 13.246094 7.015625 13.269531 C 7.015625 13.292969 6.992188 13.3125 6.96875 13.3125 " fill-opacity="1" fill-rule="nonzero"/><path fill="#7ccff6" d="M 7.988281 12.695312 L 6.777344 12.695312 C 6.75 12.695312 6.730469 12.675781 6.730469 12.652344 C 6.730469 12.625 6.75 12.605469 6.777344 12.605469 L 7.988281 12.605469 C 8.011719 12.605469 8.03125 12.625 8.03125 12.652344 C 8.03125 12.675781 8.011719 12.695312 7.988281 12.695312 " fill-opacity="1" fill-rule="nonzero"/><path fill="#ffffff" d="M 9.214844 13.3125 L 8.054688 13.3125 C 8.03125 13.3125 8.011719 13.292969 8.011719 13.269531 C 8.011719 13.246094 8.03125 13.226562 8.054688 13.226562 L 9.214844 13.226562 C 9.363281 13.226562 9.480469 13.105469 9.480469 12.960938 C 9.480469 12.8125 9.363281 12.695312 9.214844 12.695312 L 7.988281 12.695312 C 7.964844 12.695312 7.945312 12.675781 7.945312 12.652344 C 7.945312 12.625 7.964844 12.605469 7.988281 12.605469 L 9.214844 12.605469 C 9.410156 12.605469 9.570312 12.765625 9.570312 12.960938 C 9.570312 13.15625 9.410156 13.3125 9.214844 13.3125 " fill-opacity="1" fill-rule="nonzero"/><path fill="#7ccff6" d="M 8.054688 13.3125 L 6.96875 13.3125 C 6.945312 13.3125 6.925781 13.292969 6.925781 13.269531 C 6.925781 13.246094 6.945312 13.226562 6.96875 13.226562 L 8.054688 13.226562 C 8.078125 13.226562 8.101562 13.246094 8.101562 13.269531 C 8.101562 13.292969 8.078125 13.3125 8.054688 13.3125 " fill-opacity="1" fill-rule="nonzero"/><path fill="#57bfef" d="M 5.273438 12.652344 L 3.71875 12.652344 C 3.546875 12.652344 3.410156 12.789062 3.410156 12.960938 C 3.410156 13.132812 3.546875 13.269531 3.71875 13.269531 L 5.273438 13.269531 C 5.441406 13.269531 5.582031 13.132812 5.582031 12.960938 C 5.582031 12.789062 5.441406 12.652344 5.273438 12.652344 " fill-opacity="1" fill-rule="nonzero"/><path fill="#2cb2f1" d="M 5.890625 12.960938 C 5.890625 13.214844 5.683594 13.425781 5.425781 13.425781 C 5.171875 13.425781 4.960938 13.214844 4.960938 12.960938 C 4.960938 12.703125 5.171875 12.496094 5.425781 12.496094 C 5.683594 12.496094 5.890625 12.703125 5.890625 12.960938 " fill-opacity="1" fill-rule="nonzero"/><path fill="#000000" d="M 5.425781 13.300781 C 5.238281 13.300781 5.085938 13.148438 5.085938 12.960938 C 5.085938 12.773438 5.238281 12.621094 5.425781 12.621094 C 5.613281 12.621094 5.765625 12.773438 5.765625 12.960938 C 5.765625 12.984375 5.746094 13.003906 5.722656 13.003906 C 5.699219 13.003906 5.675781 12.984375 5.675781 12.960938 C 5.675781 12.824219 5.566406 12.710938 5.425781 12.710938 C 5.289062 12.710938 5.175781 12.824219 5.175781 12.960938 C 5.175781 13.097656 5.289062 13.210938 5.425781 13.210938 C 5.453125 13.210938 5.472656 13.230469 5.472656 13.253906 C 5.472656 13.28125 5.453125 13.300781 5.425781 13.300781 " fill-opacity="1" fill-rule="nonzero"/><path fill="#000000" d="M 20.320312 25.871094 C 20.304688 25.871094 20.285156 25.859375 20.28125 25.84375 C 20.269531 25.820312 20.28125 25.792969 20.304688 25.785156 C 21.1875 25.46875 22.015625 25.03125 22.769531 24.488281 C 22.789062 24.472656 22.816406 24.476562 22.832031 24.496094 C 22.847656 24.519531 22.84375 24.546875 22.824219 24.558594 C 22.0625 25.109375 21.226562 25.546875 20.335938 25.871094 C 20.332031 25.871094 20.328125 25.871094 20.320312 25.871094 " fill-opacity="1" fill-rule="nonzero"/><path fill="#000000" d="M 24.058594 23.488281 C 24.050781 23.488281 24.039062 23.484375 24.027344 23.476562 C 24.011719 23.460938 24.011719 23.429688 24.027344 23.414062 C 25.851562 21.585938 26.496094 19.574219 26.503906 19.554688 C 26.511719 19.53125 26.535156 19.519531 26.558594 19.527344 C 26.582031 19.53125 26.597656 19.558594 26.589844 19.582031 C 26.582031 19.601562 25.929688 21.632812 24.09375 23.476562 C 24.082031 23.484375 24.070312 23.488281 24.058594 23.488281 " fill-opacity="1" fill-rule="nonzero"/><path fill="#000000" d="M 21.851562 25.871094 C 21.832031 25.871094 21.816406 25.859375 21.808594 25.839844 C 21.800781 25.816406 21.8125 25.792969 21.835938 25.785156 C 22.003906 25.734375 22.171875 25.671875 22.335938 25.601562 C 22.359375 25.589844 22.386719 25.601562 22.394531 25.625 C 22.40625 25.648438 22.394531 25.671875 22.371094 25.683594 C 22.207031 25.753906 22.035156 25.816406 21.863281 25.871094 C 21.859375 25.871094 21.855469 25.871094 21.851562 25.871094 " fill-opacity="1" fill-rule="nonzero"/><path fill="#000000" d="M 22.796875 25.472656 C 22.78125 25.472656 22.765625 25.464844 22.757812 25.449219 C 22.746094 25.429688 22.753906 25.402344 22.773438 25.390625 C 24.875 24.261719 25.921875 21.972656 25.933594 21.949219 C 25.945312 21.929688 25.96875 21.917969 25.992188 21.929688 C 26.015625 21.9375 26.023438 21.964844 26.015625 21.988281 C 26.003906 22.011719 24.941406 24.328125 22.816406 25.46875 C 22.8125 25.472656 22.804688 25.472656 22.796875 25.472656 " fill-opacity="1" fill-rule="nonzero"/><path fill="#000000" d="M 4.496094 11.269531 C 4.46875 11.269531 4.449219 11.246094 4.449219 11.222656 L 4.449219 10.992188 C 4.449219 10.96875 4.46875 10.949219 4.496094 10.949219 C 4.519531 10.949219 4.539062 10.96875 4.539062 10.992188 L 4.539062 11.222656 C 4.539062 11.246094 4.519531 11.269531 4.496094 11.269531 " fill-opacity="1" fill-rule="nonzero"/><path fill="#000000" d="M 4.496094 11.804688 C 4.46875 11.804688 4.449219 11.785156 4.449219 11.761719 L 4.449219 11.53125 C 4.449219 11.503906 4.46875 11.484375 4.496094 11.484375 C 4.519531 11.484375 4.539062 11.503906 4.539062 11.53125 L 4.539062 11.761719 C 4.539062 11.785156 4.519531 11.804688 4.496094 11.804688 " fill-opacity="1" fill-rule="nonzero"/><path fill="#000000" d="M 4.34375 11.421875 L 4.109375 11.421875 C 4.085938 11.421875 4.066406 11.402344 4.066406 11.375 C 4.066406 11.351562 4.085938 11.332031 4.109375 11.332031 L 4.34375 11.332031 C 4.367188 11.332031 4.386719 11.351562 4.386719 11.375 C 4.386719 11.402344 4.367188 11.421875 4.34375 11.421875 " fill-opacity="1" fill-rule="nonzero"/><path fill="#000000" d="M 4.878906 11.421875 L 4.648438 11.421875 C 4.625 11.421875 4.605469 11.402344 4.605469 11.375 C 4.605469 11.351562 4.625 11.332031 4.648438 11.332031 L 4.878906 11.332031 C 4.902344 11.332031 4.925781 11.351562 4.925781 11.375 C 4.925781 11.402344 4.902344 11.421875 4.878906 11.421875 " fill-opacity="1" fill-rule="nonzero"/><path fill="#000000" d="M 25.753906 13.316406 C 25.730469 13.316406 25.707031 13.296875 25.707031 13.269531 L 25.707031 13.039062 C 25.707031 13.015625 25.730469 12.996094 25.753906 12.996094 C 25.777344 12.996094 25.796875 13.015625 25.796875 13.039062 L 25.796875 13.269531 C 25.796875 13.296875 25.777344 13.316406 25.753906 13.316406 " fill-opacity="1" fill-rule="nonzero"/><path fill="#000000" d="M 25.753906 13.851562 C 25.730469 13.851562 25.707031 13.832031 25.707031 13.808594 L 25.707031 13.578125 C 25.707031 13.554688 25.730469 13.53125 25.753906 13.53125 C 25.777344 13.53125 25.796875 13.554688 25.796875 13.578125 L 25.796875 13.808594 C 25.796875 13.832031 25.777344 13.851562 25.753906 13.851562 " fill-opacity="1" fill-rule="nonzero"/><path fill="#000000" d="M 25.601562 13.46875 L 25.371094 13.46875 C 25.34375 13.46875 25.324219 13.449219 25.324219 13.425781 C 25.324219 13.398438 25.34375 13.378906 25.371094 13.378906 L 25.601562 13.378906 C 25.625 13.378906 25.644531 13.398438 25.644531 13.425781 C 25.644531 13.449219 25.625 13.46875 25.601562 13.46875 " fill-opacity="1" fill-rule="nonzero"/><path fill="#000000" d="M 26.136719 13.46875 L 25.90625 13.46875 C 25.882812 13.46875 25.863281 13.449219 25.863281 13.425781 C 25.863281 13.398438 25.882812 13.378906 25.90625 13.378906 L 26.136719 13.378906 C 26.160156 13.378906 26.183594 13.398438 26.183594 13.425781 C 26.183594 13.449219 26.160156 13.46875 26.136719 13.46875 " fill-opacity="1" fill-rule="nonzero"/><path fill="#000000" d="M 26.027344 11.277344 C 25.890625 11.335938 25.828125 11.5 25.890625 11.640625 C 25.917969 11.710938 25.972656 11.761719 26.042969 11.789062 C 26.109375 11.816406 26.179688 11.8125 26.246094 11.785156 C 26.382812 11.722656 26.445312 11.558594 26.386719 11.417969 C 26.355469 11.351562 26.300781 11.296875 26.234375 11.269531 C 26.167969 11.246094 26.09375 11.246094 26.027344 11.277344 Z M 26.136719 11.894531 C 26.09375 11.894531 26.050781 11.886719 26.007812 11.871094 C 25.917969 11.835938 25.847656 11.769531 25.808594 11.675781 C 25.726562 11.492188 25.8125 11.277344 25.992188 11.195312 C 26.078125 11.15625 26.175781 11.152344 26.265625 11.1875 C 26.355469 11.222656 26.429688 11.292969 26.46875 11.382812 C 26.546875 11.566406 26.464844 11.785156 26.28125 11.863281 C 26.234375 11.886719 26.1875 11.894531 26.136719 11.894531 " fill-opacity="1" fill-rule="nonzero"/><path fill="#000000" d="M 5.027344 23.695312 C 4.890625 23.757812 4.832031 23.917969 4.890625 24.054688 C 4.917969 24.121094 4.972656 24.171875 5.039062 24.195312 C 5.105469 24.222656 5.175781 24.21875 5.238281 24.191406 C 5.371094 24.132812 5.433594 23.972656 5.375 23.835938 C 5.34375 23.769531 5.292969 23.71875 5.226562 23.691406 C 5.160156 23.664062 5.089844 23.667969 5.027344 23.695312 Z M 5.132812 24.304688 C 5.089844 24.304688 5.046875 24.296875 5.007812 24.28125 C 4.917969 24.246094 4.847656 24.175781 4.808594 24.089844 C 4.730469 23.90625 4.8125 23.695312 4.988281 23.613281 C 5.074219 23.578125 5.171875 23.574219 5.257812 23.609375 C 5.347656 23.640625 5.417969 23.710938 5.457031 23.800781 C 5.535156 23.980469 5.453125 24.191406 5.273438 24.273438 C 5.230469 24.292969 5.179688 24.304688 5.132812 24.304688 " fill-opacity="1" fill-rule="nonzero"/><path fill="#000000" d="M 23.433594 23.792969 C 23.351562 23.832031 23.316406 23.925781 23.351562 24.011719 C 23.367188 24.050781 23.402344 24.082031 23.441406 24.097656 C 23.480469 24.113281 23.523438 24.109375 23.558594 24.09375 C 23.640625 24.058594 23.675781 23.960938 23.640625 23.878906 C 23.625 23.835938 23.59375 23.808594 23.554688 23.792969 C 23.515625 23.777344 23.472656 23.777344 23.433594 23.792969 Z M 23.496094 24.195312 C 23.46875 24.195312 23.4375 24.191406 23.40625 24.179688 C 23.34375 24.15625 23.296875 24.109375 23.269531 24.046875 C 23.214844 23.917969 23.273438 23.769531 23.398438 23.714844 C 23.457031 23.6875 23.523438 23.683594 23.585938 23.707031 C 23.648438 23.734375 23.695312 23.78125 23.722656 23.84375 C 23.777344 23.96875 23.722656 24.117188 23.597656 24.175781 C 23.566406 24.1875 23.53125 24.195312 23.496094 24.195312 " fill-opacity="1" fill-rule="nonzero"/></svg>