<svg xmlns="http://www.w3.org/2000/svg" xmlns:xlink="http://www.w3.org/1999/xlink" width="40" zoomAndPan="magnify" viewBox="0 0 30 30.000001" height="40" preserveAspectRatio="xMidYMid meet" version="1.0"><defs><filter x="0%" y="0%" width="100%" height="100%" id="e31c4a9bc3"><feColorMatrix values="0 0 0 0 1 0 0 0 0 1 0 0 0 0 1 0 0 0 1 0" color-interpolation-filters="sRGB"/></filter><mask id="4488805314"><g filter="url(#e31c4a9bc3)"><rect x="-3" width="36" fill="#000000" y="-3" height="36.000001" fill-opacity="0.26"/></g></mask><clipPath id="824cb96891"><path d="M 1.027344 0.714844 L 22.800781 0.714844 L 22.800781 22.316406 L 1.027344 22.316406 Z M 1.027344 0.714844 " clip-rule="nonzero"/></clipPath><clipPath id="356942607f"><rect x="0" width="24" y="0" height="23"/></clipPath><clipPath id="f8598d2d84"><path d="M 1.105469 6.074219 L 28.6875 6.074219 L 28.6875 22.769531 L 1.105469 22.769531 Z M 1.105469 6.074219 " clip-rule="nonzero"/></clipPath><clipPath id="6d9d9f869d"><path d="M 1.105469 8 L 28.6875 8 L 28.6875 22.769531 L 1.105469 22.769531 Z M 1.105469 8 " clip-rule="nonzero"/></clipPath><clipPath id="882e5a290e"><path d="M 13 6.074219 L 19 6.074219 L 19 16 L 13 16 Z M 13 6.074219 " clip-rule="nonzero"/></clipPath><clipPath id="70eac0c670"><path d="M 9 12 L 23 12 L 23 22.769531 L 9 22.769531 Z M 9 12 " clip-rule="nonzero"/></clipPath><clipPath id="8b9006cdae"><path d="M 1.105469 8 L 12 8 L 12 22.769531 L 1.105469 22.769531 Z M 1.105469 8 " clip-rule="nonzero"/></clipPath><clipPath id="de585d7b43"><path d="M 12 6.074219 L 28.6875 6.074219 L 28.6875 22.769531 L 12 22.769531 Z M 12 6.074219 " clip-rule="nonzero"/></clipPath><clipPath id="4f25cad73d"><path d="M 13 15 L 15 15 L 15 22.769531 L 13 22.769531 Z M 13 15 " clip-rule="nonzero"/></clipPath></defs><g mask="url(#4488805314)"><g transform="matrix(1, 0, 0, 1, 3, 3)"><g clip-path="url(#356942607f)"><g clip-path="url(#824cb96891)"><path fill="#2cb2f1" d="M 12.5 3.648438 C 12.128906 4.421875 11.964844 5.285156 11.621094 6.070312 C 10.578125 8.445312 8.113281 9.785156 5.910156 11.144531 C 3.707031 12.5 1.414062 14.363281 1.183594 16.941406 C 1.132812 17.5 1.191406 18.070312 1.402344 18.582031 C 2.003906 20.039062 3.710938 20.726562 5.28125 20.816406 C 6.851562 20.910156 8.429688 20.5625 10 20.671875 C 11.945312 20.808594 13.773438 21.625 15.691406 21.988281 C 17.609375 22.355469 19.851562 22.144531 21.097656 20.644531 C 21.769531 19.828125 22.042969 18.761719 22.230469 17.722656 C 22.859375 14.269531 22.761719 10.691406 21.949219 7.277344 C 21.605469 5.839844 21.121094 4.402344 20.246094 3.207031 C 19.445312 2.113281 18.359375 1.367188 17.0625 0.996094 C 15.929688 0.671875 14.699219 1.261719 13.824219 1.976562 C 13.269531 2.433594 12.8125 3 12.5 3.648438 Z M 12.5 3.648438 " fill-opacity="1" fill-rule="nonzero"/></g></g></g></g><g clip-path="url(#f8598d2d84)"><path fill="#2cb2f1" d="M 28.882812 17.539062 C 28.875 17.53125 28.867188 17.527344 28.855469 17.527344 L 24.585938 17.527344 C 24.796875 15.382812 23.296875 13.445312 21.164062 13.117188 L 19.59375 12.867188 C 19.535156 12.761719 19.457031 12.667969 19.382812 12.574219 C 19.308594 12.484375 19.234375 12.386719 19.175781 12.285156 C 18.957031 11.898438 19.019531 11.429688 19.109375 11.101562 C 19.167969 10.886719 19.253906 10.675781 19.335938 10.472656 C 19.40625 10.300781 19.476562 10.121094 19.53125 9.9375 C 19.664062 9.515625 19.703125 9.117188 19.652344 8.746094 C 19.546875 8.035156 19.09375 7.355469 18.296875 6.722656 C 18.101562 6.566406 17.835938 6.375 17.535156 6.257812 C 17.140625 6.105469 16.714844 6.085938 16.34375 6.089844 C 15.988281 6.09375 15.527344 6.117188 15.089844 6.261719 C 14.648438 6.410156 14.285156 6.667969 14.066406 6.996094 C 13.816406 7.375 13.769531 7.859375 13.941406 8.230469 C 13.949219 8.238281 13.957031 8.246094 13.96875 8.246094 C 13.960938 8.292969 13.953125 8.335938 13.945312 8.378906 L 13.746094 8.34375 C 13.730469 8.339844 13.710938 8.351562 13.710938 8.367188 L 13.59375 8.964844 C 13.566406 9.117188 13.597656 9.265625 13.679688 9.390625 C 13.710938 9.433594 13.746094 9.472656 13.78125 9.503906 C 13.761719 9.695312 13.742188 9.886719 13.726562 10.078125 C 13.71875 10.082031 13.714844 10.085938 13.710938 10.09375 C 13.640625 10.222656 13.542969 10.339844 13.453125 10.457031 C 13.398438 10.523438 13.34375 10.59375 13.292969 10.664062 C 13.117188 10.914062 13.042969 11.136719 13.0625 11.347656 C 13.070312 11.425781 13.089844 11.5 13.109375 11.574219 C 13.140625 11.695312 13.171875 11.8125 13.144531 11.929688 C 13.101562 12.09375 12.941406 12.207031 12.8125 12.273438 C 12.761719 12.296875 12.714844 12.320312 12.664062 12.339844 C 12.554688 12.390625 12.441406 12.4375 12.34375 12.515625 C 12.207031 12.625 12.089844 12.824219 12.160156 13.007812 C 12.164062 13.015625 12.167969 13.023438 12.175781 13.023438 C 12.175781 13.023438 12.175781 13.023438 12.175781 13.027344 C 12.082031 13.054688 11.988281 13.097656 11.902344 13.148438 C 11.601562 13.328125 11.394531 13.628906 11.195312 13.917969 C 10.535156 14.886719 9.875 15.851562 9.210938 16.824219 C 9.378906 17.058594 9.554688 17.285156 9.734375 17.511719 C 9.730469 17.511719 9.726562 17.515625 9.726562 17.519531 C 9.445312 17.941406 9.144531 18.347656 8.824219 18.738281 C 8.074219 17.339844 7.550781 15.84375 7.269531 14.28125 C 7.242188 13.722656 7.179688 13.222656 7.117188 12.757812 C 7.023438 12.464844 6.859375 12.199219 6.648438 11.996094 C 6.601562 11.953125 6.535156 11.898438 6.457031 11.859375 C 6.457031 11.859375 6.457031 11.855469 6.457031 11.855469 L 6.09375 8.46875 C 6.089844 8.453125 6.074219 8.441406 6.058594 8.441406 L 1.316406 8.851562 C 1.308594 8.855469 1.300781 8.859375 1.296875 8.863281 C 1.289062 8.871094 1.289062 8.878906 1.289062 8.886719 L 1.445312 10.457031 L 1.113281 10.8125 C 1.105469 10.820312 1.105469 10.828125 1.105469 10.835938 L 1.25 12.324219 C 1.253906 12.332031 1.257812 12.339844 1.265625 12.347656 L 1.59375 12.546875 L 1.910156 15.539062 C 1.910156 15.554688 1.925781 15.566406 1.941406 15.566406 L 6.070312 15.238281 C 6.375 16.828125 6.691406 18.472656 7.121094 20.0625 C 7.226562 20.460938 7.355469 20.871094 7.667969 21.128906 C 7.871094 21.300781 8.144531 21.390625 8.4375 21.390625 C 8.644531 21.390625 8.859375 21.34375 9.070312 21.253906 C 9.519531 21.058594 9.878906 20.699219 10.195312 20.339844 C 10.542969 19.945312 10.875 19.523438 11.175781 19.089844 C 11.195312 19.148438 11.21875 19.203125 11.238281 19.261719 C 11.265625 19.335938 11.292969 19.410156 11.320312 19.484375 C 11.703125 20.550781 11.84375 21.710938 11.734375 22.839844 C 11.734375 22.859375 11.746094 22.875 11.765625 22.875 C 11.769531 22.875 11.773438 22.875 11.777344 22.875 C 11.773438 22.894531 11.773438 22.910156 11.769531 22.929688 L 16.972656 22.925781 C 16.972656 22.929688 16.96875 22.929688 16.96875 22.929688 L 17.148438 22.925781 L 17.902344 22.925781 C 17.902344 22.925781 17.90625 22.921875 17.90625 22.917969 L 20.761719 22.875 L 27.082031 22.875 C 27.09375 22.875 27.105469 22.867188 27.109375 22.855469 L 28.886719 17.566406 C 28.890625 17.558594 28.886719 17.546875 28.882812 17.539062 Z M 16.644531 13.882812 C 16.242188 14.21875 15.824219 14.535156 15.394531 14.835938 C 15.765625 14.554688 16.269531 14.167969 16.644531 13.882812 Z M 13.734375 9.355469 C 13.65625 9.246094 13.628906 9.109375 13.65625 8.976562 L 13.765625 8.410156 L 13.933594 8.441406 C 13.882812 8.765625 13.832031 9.09375 13.792969 9.425781 C 13.769531 9.40625 13.75 9.382812 13.734375 9.355469 Z M 13.734375 9.355469 " fill-opacity="1" fill-rule="nonzero"/></g><g clip-path="url(#6d9d9f869d)"><path fill="#ffffff" d="M 6.550781 13.609375 C 6.566406 13.609375 6.679688 15.144531 6.679688 15.144531 L 1.941406 15.527344 L 1.613281 12.539062 L 1.285156 12.316406 L 1.117188 10.839844 L 1.46875 10.464844 L 1.3125 8.886719 L 6.039062 8.472656 L 6.429688 11.867188 C 6.246094 11.8125 6.09375 11.851562 5.972656 11.929688 C 5.792969 12.046875 5.683594 12.246094 5.511719 12.378906 C 5.371094 12.488281 5.1875 12.550781 5.089844 12.699219 C 5.0625 12.734375 5.046875 12.777344 5.046875 12.820312 C 5.050781 12.894531 5.109375 12.953125 5.167969 13.003906 C 5.265625 13.054688 5.390625 13.058594 5.507812 13.046875 C 5.566406 13.039062 5.625 13.03125 5.679688 13.003906 C 5.714844 12.984375 5.75 12.957031 5.785156 12.933594 C 5.898438 12.859375 6.042969 12.828125 6.179688 12.847656 C 6.261719 13.113281 6.390625 13.375 6.550781 13.609375 Z M 28.851562 17.546875 L 23.351562 17.558594 C 23.351562 17.554688 23.351562 17.550781 23.351562 17.550781 C 23.886719 17.542969 24.535156 17.535156 24.542969 17.535156 C 24.648438 16.53125 24.359375 15.496094 23.753906 14.6875 C 23.144531 13.882812 22.226562 13.320312 21.222656 13.128906 C 20.699219 13.109375 20.191406 12.957031 19.578125 12.878906 C 19.644531 12.972656 19.679688 13.089844 19.683594 13.203125 C 19.683594 13.277344 19.667969 13.351562 19.652344 13.425781 C 19.609375 13.660156 19.5625 13.898438 19.519531 14.132812 C 19.367188 14.613281 16.96875 22.929688 16.96875 22.929688 L 22.988281 22.84375 C 22.988281 22.835938 22.992188 22.828125 22.992188 22.820312 L 27.070312 22.832031 Z M 28.851562 17.546875 " fill-opacity="1" fill-rule="nonzero"/></g><g clip-path="url(#882e5a290e)"><path fill="#ef8b7c" d="M 18.175781 9.933594 C 18.058594 9.921875 17.941406 9.972656 17.847656 10.046875 C 17.753906 10.121094 17.683594 10.21875 17.605469 10.316406 C 17.4375 10.128906 17.257812 9.953125 17.054688 9.804688 C 16.816406 9.632812 16.550781 9.496094 16.324219 9.308594 C 15.976562 9.023438 15.734375 8.621094 15.585938 8.199219 C 15.4375 7.773438 15.378906 7.324219 15.316406 6.882812 C 15.222656 6.832031 15.109375 6.871094 15.011719 6.914062 C 14.839844 6.988281 14.671875 7.078125 14.511719 7.183594 C 14.34375 7.292969 14.171875 7.4375 14.125 7.632812 L 13.992188 8.261719 C 13.992188 8.261719 13.808594 9.757812 13.789062 9.769531 C 13.734375 10.277344 13.71875 10.792969 13.753906 11.304688 C 13.761719 11.4375 13.777344 11.582031 13.875 11.6875 C 13.960938 11.796875 14.085938 11.878906 14.21875 11.921875 C 14.355469 11.964844 14.5 11.972656 14.683594 11.964844 C 14.664062 12.183594 14.648438 12.402344 14.59375 12.617188 C 14.539062 12.832031 14.449219 13.039062 14.300781 13.199219 L 14.878906 15.230469 C 14.878906 15.230469 17.15625 13.496094 17.164062 13.476562 C 17.050781 12.714844 17.191406 11.917969 17.546875 11.222656 C 17.804688 11.273438 18.089844 11.207031 18.289062 11.035156 C 18.488281 10.859375 18.589844 10.578125 18.535156 10.316406 C 18.5 10.136719 18.363281 9.957031 18.175781 9.933594 Z M 18.175781 9.933594 " fill-opacity="1" fill-rule="nonzero"/></g><path fill="#ef8b7c" d="M 8.835938 18.820312 L 8.25 17.628906 L 8 17.085938 C 7.742188 16.351562 7.484375 15.613281 7.359375 14.847656 C 7.328125 14.667969 7.308594 14.484375 7.246094 14.308594 C 7.242188 14.285156 7.109375 12.84375 7.109375 12.84375 C 7.027344 12.46875 6.800781 12.125 6.488281 11.898438 C 6.355469 11.820312 6.183594 11.835938 6.046875 11.898438 C 5.910156 11.964844 5.796875 12.074219 5.691406 12.183594 C 5.585938 12.292969 5.484375 12.40625 5.359375 12.492188 C 5.277344 12.53125 5.183594 12.574219 5.117188 12.648438 C 5.050781 12.722656 5.019531 12.835938 5.070312 12.921875 C 5.117188 13.003906 5.222656 13.03125 5.316406 13.042969 C 5.433594 13.058594 5.558594 13.050781 5.667969 13 C 5.734375 12.96875 5.792969 12.921875 5.859375 12.886719 C 5.949219 12.84375 6.050781 12.824219 6.152344 12.839844 C 6.226562 12.960938 6.273438 13.097656 6.332031 13.230469 C 6.390625 13.363281 6.460938 13.492188 6.574219 13.585938 C 6.5625 13.59375 6.6875 15.152344 6.6875 15.152344 L 6.097656 15.199219 C 6.246094 15.949219 6.394531 16.703125 6.542969 17.453125 C 6.6875 18.164062 6.828125 18.871094 7.03125 19.566406 C 7.101562 20.054688 7.269531 20.523438 7.523438 20.945312 C 7.765625 21.238281 8.175781 21.375 8.558594 21.34375 C 8.941406 21.316406 9.304688 21.136719 9.609375 20.898438 C 9.960938 20.539062 10.324219 20.15625 10.671875 19.761719 C 10.65625 19.746094 11.1875 19.03125 11.1875 19.03125 L 9.78125 17.476562 Z M 8.835938 18.820312 " fill-opacity="1" fill-rule="nonzero"/><path fill="#ef8b7c" d="M 19.8125 19.738281 L 20.125 20.273438 L 20.460938 19.351562 Z M 19.8125 19.738281 " fill-opacity="1" fill-rule="nonzero"/><g clip-path="url(#70eac0c670)"><path fill="#2cb2f1" d="M 14.898438 15.242188 L 14.296875 13.1875 C 14.296875 13.1875 14.410156 13.046875 14.421875 13.011719 C 13.996094 13.070312 13.570312 12.992188 13.144531 12.957031 C 12.71875 12.917969 12.265625 12.929688 11.902344 13.148438 C 11.601562 13.328125 11.394531 13.628906 11.195312 13.917969 C 10.535156 14.886719 9.875 15.851562 9.210938 16.824219 C 9.792969 17.636719 10.457031 18.390625 11.179688 19.066406 C 11.726562 20.269531 11.929688 21.621094 11.769531 22.929688 L 17.902344 22.925781 C 17.902344 22.925781 19.199219 19.234375 19.1875 19.242188 C 19.320312 19.46875 19.460938 19.6875 19.613281 19.898438 L 20.414062 19.433594 L 21.042969 17.585938 C 21.042969 17.585938 22.71875 17.574219 22.714844 17.566406 C 22.507812 17.125 22.21875 16.726562 21.933594 16.332031 C 21.367188 15.5625 20.785156 14.78125 20.019531 14.199219 C 19.058594 13.96875 18.097656 13.734375 17.136719 13.496094 C 16.394531 14.125 15.679688 14.683594 14.898438 15.242188 Z M 14.898438 15.242188 " fill-opacity="1" fill-rule="nonzero"/></g><g clip-path="url(#8b9006cdae)"><path fill="#100f0d" d="M 11.78125 14.863281 C 11.769531 14.855469 11.75 14.859375 11.738281 14.875 C 11.730469 14.890625 11.734375 14.910156 11.75 14.917969 C 11.832031 14.96875 11.882812 15.082031 11.871094 15.207031 C 11.863281 15.324219 11.808594 15.4375 11.761719 15.539062 C 11.730469 15.601562 11.699219 15.664062 11.667969 15.730469 C 11.480469 16.121094 11.285156 16.527344 11.148438 16.949219 C 10.964844 17.507812 10.914062 18.023438 10.996094 18.480469 C 11.03125 18.664062 11.085938 18.84375 11.148438 19.015625 C 10.84375 19.460938 10.503906 19.894531 10.148438 20.296875 C 9.835938 20.652344 9.484375 21.007812 9.042969 21.199219 C 8.5625 21.40625 8.039062 21.359375 7.707031 21.082031 C 7.410156 20.835938 7.285156 20.433594 7.179688 20.046875 C 6.753906 18.460938 6.4375 16.820312 6.132812 15.234375 L 6.695312 15.1875 C 6.703125 15.1875 6.710938 15.183594 6.714844 15.179688 C 6.722656 15.171875 6.722656 15.164062 6.722656 15.15625 L 6.585938 13.65625 C 6.667969 13.710938 6.78125 13.746094 6.910156 13.753906 C 6.910156 13.753906 6.910156 13.753906 6.914062 13.753906 C 6.929688 13.753906 6.941406 13.738281 6.945312 13.722656 C 6.945312 13.707031 6.929688 13.691406 6.914062 13.691406 C 6.8125 13.683594 6.675781 13.660156 6.578125 13.574219 L 6.578125 13.570312 C 6.574219 13.554688 6.5625 13.542969 6.546875 13.542969 C 6.5 13.492188 6.464844 13.429688 6.429688 13.359375 C 6.34375 13.195312 6.265625 13.027344 6.191406 12.859375 C 6.21875 12.855469 6.246094 12.851562 6.273438 12.84375 C 6.382812 12.8125 6.480469 12.75 6.550781 12.660156 C 6.5625 12.644531 6.558594 12.625 6.546875 12.613281 C 6.53125 12.605469 6.511719 12.605469 6.5 12.621094 C 6.441406 12.699219 6.355469 12.757812 6.257812 12.78125 C 6.203125 12.796875 6.144531 12.804688 6.089844 12.808594 C 5.996094 12.816406 5.902344 12.824219 5.816406 12.871094 C 5.789062 12.886719 5.765625 12.90625 5.742188 12.925781 C 5.714844 12.945312 5.691406 12.960938 5.664062 12.976562 C 5.601562 13.007812 5.527344 13.011719 5.441406 13.015625 C 5.378906 13.015625 5.296875 13.019531 5.226562 12.996094 C 5.171875 12.976562 5.105469 12.933594 5.085938 12.867188 C 5.066406 12.78125 5.121094 12.695312 5.179688 12.648438 C 5.222656 12.613281 5.269531 12.585938 5.324219 12.554688 C 5.355469 12.535156 5.386719 12.519531 5.417969 12.5 C 5.53125 12.425781 5.621094 12.324219 5.707031 12.226562 C 5.75 12.179688 5.796875 12.128906 5.839844 12.082031 C 5.9375 11.988281 6.128906 11.835938 6.332031 11.878906 C 6.421875 11.898438 6.503906 11.949219 6.605469 12.042969 C 6.808594 12.238281 6.96875 12.492188 7.054688 12.773438 C 7.117188 13.226562 7.179688 13.726562 7.207031 14.285156 C 7.515625 16.003906 8.113281 17.640625 8.984375 19.152344 C 8.988281 19.164062 9 19.167969 9.011719 19.167969 C 9.015625 19.167969 9.019531 19.167969 9.027344 19.164062 C 9.042969 19.15625 9.046875 19.136719 9.039062 19.121094 C 8.976562 19.015625 8.917969 18.90625 8.859375 18.800781 C 9.183594 18.402344 9.492188 17.984375 9.777344 17.554688 C 9.789062 17.539062 9.785156 17.519531 9.769531 17.511719 C 9.753906 17.5 9.734375 17.503906 9.726562 17.519531 C 9.445312 17.941406 9.144531 18.347656 8.828125 18.738281 C 8.074219 17.339844 7.550781 15.84375 7.269531 14.28125 C 7.242188 13.722656 7.179688 13.222656 7.117188 12.757812 C 7.023438 12.464844 6.863281 12.199219 6.648438 11.996094 C 6.601562 11.953125 6.535156 11.898438 6.457031 11.859375 C 6.457031 11.855469 6.457031 11.855469 6.457031 11.855469 L 6.09375 8.46875 C 6.089844 8.453125 6.074219 8.441406 6.058594 8.441406 L 1.316406 8.851562 C 1.308594 8.855469 1.300781 8.859375 1.296875 8.863281 C 1.289062 8.871094 1.289062 8.878906 1.289062 8.886719 L 1.445312 10.457031 L 1.113281 10.8125 C 1.105469 10.820312 1.105469 10.828125 1.105469 10.835938 L 1.25 12.324219 C 1.253906 12.332031 1.257812 12.339844 1.265625 12.347656 L 1.59375 12.546875 L 1.910156 15.539062 C 1.910156 15.554688 1.925781 15.566406 1.941406 15.566406 L 6.070312 15.238281 C 6.375 16.828125 6.691406 18.472656 7.121094 20.0625 C 7.226562 20.460938 7.355469 20.871094 7.667969 21.128906 C 7.871094 21.300781 8.144531 21.390625 8.4375 21.390625 C 8.644531 21.390625 8.859375 21.34375 9.070312 21.253906 C 9.519531 21.058594 9.878906 20.699219 10.195312 20.339844 C 10.542969 19.945312 10.875 19.523438 11.175781 19.089844 C 11.195312 19.148438 11.21875 19.203125 11.238281 19.261719 C 11.265625 19.335938 11.292969 19.410156 11.320312 19.484375 C 11.703125 20.550781 11.84375 21.710938 11.734375 22.839844 C 11.734375 22.859375 11.746094 22.875 11.765625 22.875 C 11.78125 22.875 11.796875 22.863281 11.796875 22.847656 C 11.910156 21.710938 11.765625 20.539062 11.378906 19.460938 C 11.351562 19.386719 11.324219 19.3125 11.296875 19.238281 C 11.203125 18.988281 11.105469 18.734375 11.058594 18.46875 C 10.980469 18.023438 11.027344 17.519531 11.207031 16.96875 C 11.34375 16.550781 11.539062 16.148438 11.726562 15.757812 C 11.757812 15.691406 11.789062 15.628906 11.816406 15.566406 C 11.867188 15.460938 11.925781 15.339844 11.933594 15.210938 C 11.945312 15.066406 11.886719 14.929688 11.78125 14.863281 Z M 1.96875 15.5 L 1.65625 12.523438 C 1.652344 12.511719 1.648438 12.503906 1.640625 12.5 L 1.3125 12.300781 L 1.167969 10.84375 L 1.5 10.488281 C 1.507812 10.484375 1.511719 10.472656 1.507812 10.464844 L 1.355469 8.914062 L 6.03125 8.507812 L 6.390625 11.832031 C 6.375 11.824219 6.363281 11.820312 6.347656 11.816406 C 6.113281 11.769531 5.902344 11.933594 5.796875 12.039062 C 5.75 12.085938 5.703125 12.136719 5.660156 12.183594 C 5.574219 12.285156 5.488281 12.375 5.382812 12.445312 C 5.355469 12.464844 5.324219 12.484375 5.292969 12.5 C 5.238281 12.53125 5.1875 12.558594 5.140625 12.601562 C 5.066406 12.660156 4.996094 12.769531 5.027344 12.882812 C 5.046875 12.960938 5.117188 13.023438 5.207031 13.054688 C 5.289062 13.082031 5.375 13.078125 5.445312 13.078125 C 5.535156 13.074219 5.617188 13.070312 5.691406 13.03125 C 5.722656 13.015625 5.753906 12.996094 5.78125 12.972656 C 5.804688 12.957031 5.824219 12.941406 5.847656 12.925781 C 5.921875 12.886719 6.003906 12.878906 6.09375 12.871094 C 6.105469 12.871094 6.117188 12.867188 6.128906 12.867188 C 6.203125 13.042969 6.285156 13.21875 6.371094 13.386719 C 6.414062 13.46875 6.457031 13.542969 6.515625 13.601562 L 6.65625 15.128906 Z M 1.96875 15.5 " fill-opacity="1" fill-rule="nonzero"/></g><path fill="#100f0d" d="M 19.417969 14.566406 C 19.433594 14.558594 19.4375 14.542969 19.429688 14.523438 C 19.425781 14.507812 19.40625 14.503906 19.390625 14.511719 C 18.867188 14.75 18.457031 15.199219 18.265625 15.738281 C 18.074219 16.28125 18.113281 16.886719 18.367188 17.402344 C 18.371094 17.410156 18.382812 17.417969 18.394531 17.417969 C 18.398438 17.417969 18.402344 17.417969 18.410156 17.414062 C 18.425781 17.40625 18.429688 17.386719 18.421875 17.371094 C 18.179688 16.878906 18.144531 16.277344 18.328125 15.761719 C 18.511719 15.242188 18.917969 14.796875 19.417969 14.566406 Z M 19.417969 14.566406 " fill-opacity="1" fill-rule="nonzero"/><path fill="#100f0d" d="M 14.851562 10.535156 C 14.695312 10.738281 14.40625 10.832031 14.160156 10.757812 C 14.140625 10.75 14.125 10.761719 14.121094 10.777344 C 14.113281 10.792969 14.125 10.8125 14.140625 10.816406 C 14.203125 10.835938 14.269531 10.84375 14.332031 10.84375 C 14.550781 10.84375 14.769531 10.742188 14.902344 10.570312 C 14.910156 10.558594 14.910156 10.539062 14.894531 10.527344 C 14.878906 10.515625 14.859375 10.519531 14.851562 10.535156 Z M 14.851562 10.535156 " fill-opacity="1" fill-rule="nonzero"/><path fill="#100f0d" d="M 15.730469 9.25 C 15.730469 9.328125 15.691406 9.367188 15.613281 9.367188 C 15.535156 9.367188 15.496094 9.328125 15.496094 9.25 C 15.496094 9.171875 15.535156 9.132812 15.613281 9.132812 C 15.691406 9.132812 15.730469 9.171875 15.730469 9.25 Z M 15.730469 9.25 " fill-opacity="1" fill-rule="nonzero"/><path fill="#100f0d" d="M 14.347656 9.078125 C 14.347656 9.15625 14.308594 9.195312 14.230469 9.195312 C 14.152344 9.195312 14.109375 9.15625 14.109375 9.078125 C 14.109375 9 14.152344 8.960938 14.230469 8.960938 C 14.308594 8.960938 14.347656 9 14.347656 9.078125 Z M 14.347656 9.078125 " fill-opacity="1" fill-rule="nonzero"/><g clip-path="url(#de585d7b43)"><path fill="#100f0d" d="M 28.882812 17.539062 C 28.875 17.53125 28.867188 17.527344 28.855469 17.527344 L 24.585938 17.527344 C 24.796875 15.382812 23.296875 13.445312 21.164062 13.117188 L 19.59375 12.867188 C 19.535156 12.761719 19.457031 12.667969 19.382812 12.574219 C 19.308594 12.484375 19.234375 12.386719 19.175781 12.285156 C 18.957031 11.898438 19.019531 11.429688 19.109375 11.101562 C 19.167969 10.886719 19.253906 10.675781 19.335938 10.472656 C 19.40625 10.300781 19.476562 10.121094 19.53125 9.9375 C 19.664062 9.515625 19.703125 9.117188 19.652344 8.746094 C 19.546875 8.035156 19.09375 7.355469 18.296875 6.722656 C 18.101562 6.566406 17.835938 6.375 17.535156 6.257812 C 17.140625 6.105469 16.714844 6.085938 16.34375 6.089844 C 15.988281 6.09375 15.527344 6.117188 15.089844 6.261719 C 14.648438 6.410156 14.285156 6.667969 14.066406 6.996094 C 13.816406 7.375 13.769531 7.859375 13.941406 8.230469 C 13.949219 8.238281 13.957031 8.246094 13.96875 8.246094 C 13.960938 8.292969 13.953125 8.335938 13.945312 8.378906 L 13.746094 8.34375 C 13.730469 8.339844 13.710938 8.351562 13.710938 8.367188 L 13.59375 8.964844 C 13.566406 9.117188 13.597656 9.265625 13.679688 9.390625 C 13.710938 9.433594 13.746094 9.472656 13.78125 9.503906 C 13.761719 9.695312 13.742188 9.886719 13.726562 10.078125 C 13.71875 10.082031 13.714844 10.085938 13.710938 10.09375 C 13.640625 10.222656 13.542969 10.339844 13.453125 10.457031 C 13.398438 10.523438 13.34375 10.59375 13.292969 10.664062 C 13.117188 10.914062 13.042969 11.136719 13.0625 11.347656 C 13.070312 11.425781 13.089844 11.5 13.109375 11.574219 C 13.140625 11.695312 13.171875 11.8125 13.144531 11.929688 C 13.101562 12.09375 12.941406 12.207031 12.8125 12.273438 C 12.761719 12.296875 12.714844 12.320312 12.664062 12.339844 C 12.554688 12.390625 12.441406 12.4375 12.34375 12.515625 C 12.207031 12.625 12.089844 12.824219 12.160156 13.007812 C 12.164062 13.015625 12.167969 13.023438 12.175781 13.023438 C 12.179688 13.03125 12.179688 13.035156 12.183594 13.042969 C 12.183594 13.042969 14.042969 13.054688 14.363281 13.0625 C 14.335938 13.097656 14.308594 13.132812 14.273438 13.167969 C 14.265625 13.175781 14.265625 13.1875 14.265625 13.195312 C 14.445312 13.871094 14.636719 14.554688 14.839844 15.222656 C 14.835938 15.230469 14.839844 15.242188 14.84375 15.25 C 14.84375 15.253906 14.847656 15.253906 14.851562 15.257812 C 14.855469 15.265625 14.867188 15.273438 14.878906 15.273438 C 14.882812 15.273438 14.882812 15.273438 14.886719 15.273438 C 14.902344 15.269531 14.910156 15.257812 14.910156 15.242188 C 15.679688 14.738281 16.421875 14.171875 17.113281 13.5625 C 17.117188 13.570312 17.125 13.578125 17.132812 13.585938 C 17.109375 13.578125 19.515625 14.175781 19.515625 14.175781 C 19.523438 14.160156 19.527344 14.140625 19.535156 14.121094 C 19.542969 14.117188 19.546875 14.113281 19.550781 14.105469 C 19.679688 13.710938 19.785156 13.328125 19.644531 12.976562 C 19.640625 12.960938 19.632812 12.949219 19.628906 12.9375 L 21.15625 13.179688 C 23.253906 13.503906 24.734375 15.410156 24.523438 17.523438 C 24.523438 17.523438 24.523438 17.527344 24.523438 17.527344 L 21.050781 17.527344 C 21.039062 17.527344 21.027344 17.535156 21.019531 17.546875 L 20.125 20.214844 L 19.855469 19.753906 C 19.84375 19.738281 19.824219 19.734375 19.8125 19.742188 C 19.796875 19.753906 19.792969 19.769531 19.800781 19.785156 L 20.101562 20.292969 L 19.246094 22.835938 C 19.242188 22.84375 19.246094 22.855469 19.25 22.863281 C 19.257812 22.871094 19.265625 22.875 19.277344 22.875 L 27.082031 22.875 C 27.09375 22.875 27.105469 22.867188 27.109375 22.855469 L 28.886719 17.566406 C 28.890625 17.558594 28.886719 17.546875 28.882812 17.539062 Z M 16.351562 9.367188 C 16.3125 9.535156 16.214844 9.679688 16.070312 9.773438 C 15.921875 9.875 15.742188 9.914062 15.566406 9.878906 C 15.199219 9.808594 14.957031 9.453125 15.027344 9.085938 L 15.113281 8.644531 L 15.855469 8.785156 C 15.996094 9.007812 16.164062 9.203125 16.351562 9.367188 Z M 14.019531 8.320312 C 14.078125 8.289062 14.15625 8.285156 14.226562 8.308594 C 14.296875 8.332031 14.355469 8.382812 14.382812 8.445312 C 14.390625 8.457031 14.402344 8.464844 14.414062 8.464844 C 14.417969 8.464844 14.421875 8.460938 14.425781 8.460938 C 14.441406 8.453125 14.449219 8.433594 14.441406 8.417969 C 14.40625 8.339844 14.335938 8.28125 14.246094 8.25 C 14.175781 8.226562 14.097656 8.226562 14.03125 8.25 C 14.0625 8.074219 14.089844 7.902344 14.121094 7.734375 C 14.125 7.730469 14.125 7.726562 14.128906 7.722656 C 14.144531 7.613281 14.203125 7.507812 14.292969 7.410156 C 14.378906 7.320312 14.484375 7.246094 14.578125 7.183594 C 14.792969 7.042969 15.046875 6.898438 15.3125 6.898438 C 15.332031 7.402344 15.425781 7.867188 15.589844 8.273438 C 15.601562 8.300781 15.613281 8.324219 15.625 8.351562 C 15.488281 8.367188 15.355469 8.402344 15.230469 8.46875 C 15.214844 8.476562 15.210938 8.496094 15.21875 8.507812 C 15.226562 8.523438 15.246094 8.53125 15.261719 8.523438 C 15.382812 8.460938 15.515625 8.421875 15.652344 8.414062 C 15.699219 8.515625 15.753906 8.617188 15.8125 8.714844 L 15.09375 8.574219 C 15.078125 8.574219 15.0625 8.582031 15.058594 8.601562 L 15 8.890625 L 14.816406 8.855469 L 14.867188 8.589844 C 14.871094 8.574219 14.859375 8.554688 14.84375 8.554688 L 14.007812 8.390625 C 14.011719 8.367188 14.015625 8.34375 14.019531 8.320312 Z M 13.996094 8.453125 L 14.800781 8.609375 L 14.75 8.863281 C 14.75 8.867188 14.75 8.867188 14.746094 8.871094 C 14.746094 8.875 14.746094 8.878906 14.746094 8.882812 L 14.691406 9.175781 C 14.65625 9.359375 14.527344 9.5 14.363281 9.558594 C 14.425781 9.417969 14.488281 9.28125 14.550781 9.144531 C 14.558594 9.128906 14.550781 9.109375 14.535156 9.105469 C 14.519531 9.097656 14.5 9.105469 14.496094 9.121094 C 14.425781 9.273438 14.355469 9.425781 14.285156 9.578125 C 14.226562 9.589844 14.164062 9.589844 14.101562 9.578125 L 14.054688 9.566406 C 13.980469 9.554688 13.910156 9.523438 13.847656 9.476562 C 13.890625 9.132812 13.941406 8.789062 13.996094 8.453125 Z M 13.734375 9.355469 C 13.65625 9.246094 13.628906 9.109375 13.65625 8.976562 L 13.765625 8.410156 L 13.933594 8.441406 C 13.882812 8.765625 13.832031 9.09375 13.792969 9.425781 C 13.769531 9.40625 13.75 9.382812 13.734375 9.355469 Z M 18.296875 10.988281 C 18.113281 11.171875 17.828125 11.25 17.542969 11.191406 C 17.53125 11.191406 17.515625 11.195312 17.511719 11.207031 C 17.144531 11.875 17.011719 12.675781 17.128906 13.464844 C 16.425781 14.089844 15.675781 14.664062 14.890625 15.179688 C 14.695312 14.523438 14.503906 13.859375 14.332031 13.195312 C 14.445312 13.074219 14.519531 12.953125 14.574219 12.816406 C 14.65625 12.539062 14.699219 12.269531 14.699219 11.980469 C 14.738281 11.980469 14.78125 11.976562 14.820312 11.972656 C 15.246094 11.933594 15.671875 11.859375 16.085938 11.757812 C 16.105469 11.75 16.113281 11.734375 16.109375 11.71875 C 16.105469 11.699219 16.089844 11.691406 16.074219 11.695312 C 15.660156 11.796875 15.238281 11.871094 14.8125 11.910156 C 14.519531 11.9375 14.191406 11.9375 13.980469 11.742188 C 13.769531 11.546875 13.746094 11.21875 13.75 10.921875 C 13.753906 10.460938 13.789062 10 13.839844 9.546875 C 13.902344 9.589844 13.96875 9.617188 14.042969 9.628906 L 14.089844 9.640625 C 14.125 9.644531 14.160156 9.648438 14.195312 9.648438 C 14.214844 9.648438 14.234375 9.648438 14.253906 9.644531 C 14.191406 9.78125 14.132812 9.914062 14.070312 10.050781 C 14.058594 10.078125 14.042969 10.105469 14.042969 10.140625 C 14.042969 10.179688 14.0625 10.222656 14.105469 10.238281 C 14.113281 10.242188 14.125 10.246094 14.136719 10.246094 C 14.15625 10.246094 14.175781 10.238281 14.1875 10.234375 C 14.355469 10.1875 14.519531 10.117188 14.671875 10.027344 C 14.683594 10.019531 14.691406 10 14.679688 9.984375 C 14.671875 9.972656 14.652344 9.964844 14.636719 9.972656 C 14.492188 10.058594 14.332031 10.128906 14.167969 10.175781 C 14.152344 10.179688 14.136719 10.183594 14.125 10.179688 C 14.113281 10.175781 14.105469 10.160156 14.105469 10.144531 C 14.105469 10.121094 14.117188 10.097656 14.128906 10.074219 C 14.195312 9.925781 14.261719 9.78125 14.328125 9.632812 C 14.539062 9.582031 14.710938 9.414062 14.753906 9.191406 L 14.804688 8.914062 L 14.988281 8.953125 L 14.964844 9.074219 C 14.929688 9.269531 14.96875 9.464844 15.082031 9.628906 C 15.191406 9.792969 15.359375 9.902344 15.554688 9.941406 C 15.601562 9.949219 15.648438 9.953125 15.695312 9.953125 C 15.839844 9.953125 15.984375 9.910156 16.105469 9.828125 C 16.253906 9.726562 16.359375 9.582031 16.40625 9.414062 C 16.4375 9.441406 16.472656 9.46875 16.507812 9.496094 C 16.609375 9.570312 16.714844 9.636719 16.820312 9.703125 C 16.953125 9.785156 17.085938 9.871094 17.207031 9.96875 C 17.3125 10.054688 17.417969 10.160156 17.53125 10.292969 C 17.542969 10.304688 17.566406 10.332031 17.601562 10.332031 C 17.601562 10.332031 17.601562 10.332031 17.605469 10.332031 C 17.636719 10.332031 17.660156 10.304688 17.667969 10.292969 L 17.773438 10.164062 C 17.78125 10.164062 17.789062 10.160156 17.792969 10.15625 C 17.878906 10.070312 17.972656 10.011719 18.066406 9.988281 C 18.175781 9.964844 18.285156 9.984375 18.359375 10.046875 C 18.421875 10.09375 18.464844 10.167969 18.488281 10.265625 C 18.558594 10.519531 18.480469 10.800781 18.296875 10.988281 Z M 27.058594 22.8125 L 19.320312 22.8125 L 20.15625 20.320312 C 20.167969 20.3125 20.171875 20.296875 20.167969 20.285156 L 21.074219 17.589844 L 28.8125 17.589844 Z M 27.058594 22.8125 " fill-opacity="1" fill-rule="nonzero"/></g><g clip-path="url(#4f25cad73d)"><path fill="#100f0d" d="M 14.675781 15.648438 C 14.675781 15.632812 14.664062 15.617188 14.644531 15.613281 C 14.628906 15.613281 14.613281 15.625 14.613281 15.640625 C 14.371094 17.707031 14.152344 19.808594 13.957031 21.878906 C 13.941406 22.050781 13.921875 22.246094 13.972656 22.429688 C 13.976562 22.445312 13.992188 22.453125 14.003906 22.453125 C 14.007812 22.453125 14.007812 22.453125 14.011719 22.453125 C 14.03125 22.445312 14.039062 22.429688 14.035156 22.414062 C 13.984375 22.242188 14.003906 22.054688 14.019531 21.886719 C 14.214844 19.8125 14.433594 17.714844 14.675781 15.648438 Z M 14.675781 15.648438 " fill-opacity="1" fill-rule="nonzero"/></g></svg>