<svg xmlns="http://www.w3.org/2000/svg" xmlns:xlink="http://www.w3.org/1999/xlink" width="40" zoomAndPan="magnify" viewBox="0 0 30 30.000001" height="40" preserveAspectRatio="xMidYMid meet" version="1.0"><defs><filter x="0%" y="0%" width="100%" height="100%" id="1322b57997"><feColorMatrix values="0 0 0 0 1 0 0 0 0 1 0 0 0 0 1 0 0 0 1 0" color-interpolation-filters="sRGB"/></filter><clipPath id="2a4645c9a6"><path d="M 0.484375 2 L 29.515625 2 L 29.515625 29.03125 L 0.484375 29.03125 Z M 0.484375 2 " clip-rule="nonzero"/></clipPath><mask id="d2475fe5ed"><g filter="url(#1322b57997)"><rect x="-3" width="36" fill="#000000" y="-3" height="36.000001" fill-opacity="0.25"/></g></mask><clipPath id="ad969dea7a"><path d="M 1 4 L 29.515625 4 L 29.515625 25 L 1 25 Z M 1 4 " clip-rule="nonzero"/></clipPath><clipPath id="6ca3e64cf4"><path d="M 5.175781 0.164062 L 30.769531 5.425781 L 26.09375 28.175781 L 0.5 22.914062 Z M 5.175781 0.164062 " clip-rule="nonzero"/></clipPath><clipPath id="cad9f00b73"><path d="M 5.175781 0.164062 L 30.769531 5.425781 L 26.09375 28.175781 L 0.5 22.914062 Z M 5.175781 0.164062 " clip-rule="nonzero"/></clipPath><clipPath id="966404a75e"><rect x="0" width="30" y="0" height="28"/></clipPath><clipPath id="4d4ebd92b2"><path d="M 2 13 L 5 13 L 5 23.488281 L 2 23.488281 Z M 2 13 " clip-rule="nonzero"/></clipPath><clipPath id="a55165ee98"><path d="M 2 23 L 3 23 L 3 23.488281 L 2 23.488281 Z M 2 23 " clip-rule="nonzero"/></clipPath><clipPath id="e39df1dad7"><path d="M 5 13 L 8 13 L 8 23.488281 L 5 23.488281 Z M 5 13 " clip-rule="nonzero"/></clipPath><clipPath id="5466aa7c57"><path d="M 7 23 L 8 23 L 8 23.488281 L 7 23.488281 Z M 7 23 " clip-rule="nonzero"/></clipPath><clipPath id="9e639ab50b"><path d="M 4 14 L 13 14 L 13 23.488281 L 4 23.488281 Z M 4 14 " clip-rule="nonzero"/></clipPath><clipPath id="c03ae83435"><path d="M 9 22 L 12 22 L 12 23.488281 L 9 23.488281 Z M 9 22 " clip-rule="nonzero"/></clipPath><clipPath id="f13cd7d6d6"><path d="M 5 21 L 6 21 L 6 23.488281 L 5 23.488281 Z M 5 21 " clip-rule="nonzero"/></clipPath><clipPath id="2f3155291f"><path d="M 4 23 L 6 23 L 6 23.488281 L 4 23.488281 Z M 4 23 " clip-rule="nonzero"/></clipPath><clipPath id="b1dc77ef7d"><path d="M 13 13 L 16 13 L 16 23.488281 L 13 23.488281 Z M 13 13 " clip-rule="nonzero"/></clipPath><clipPath id="12c14f7690"><path d="M 14 23 L 16 23 L 16 23.488281 L 14 23.488281 Z M 14 23 " clip-rule="nonzero"/></clipPath><clipPath id="a97cab40af"><path d="M 1.824219 23 L 18 23 L 18 23.488281 L 1.824219 23.488281 Z M 1.824219 23 " clip-rule="nonzero"/></clipPath><clipPath id="7bc8d44f90"><path d="M 27 16 L 29.40625 16 L 29.40625 19 L 27 19 Z M 27 16 " clip-rule="nonzero"/></clipPath><clipPath id="6b566b57fe"><path d="M 24 21 L 27 21 L 27 23.488281 L 24 23.488281 Z M 24 21 " clip-rule="nonzero"/></clipPath><clipPath id="02250e2351"><path d="M 25 22 L 26 22 L 26 23.488281 L 25 23.488281 Z M 25 22 " clip-rule="nonzero"/></clipPath><clipPath id="e10247ab4c"><path d="M 25 22 L 27 22 L 27 23.488281 L 25 23.488281 Z M 25 22 " clip-rule="nonzero"/></clipPath><clipPath id="b3b497f7a8"><path d="M 27 19 L 29.40625 19 L 29.40625 22 L 27 22 Z M 27 19 " clip-rule="nonzero"/></clipPath><clipPath id="32fe23e365"><path d="M 22 21 L 25 21 L 25 23.488281 L 22 23.488281 Z M 22 21 " clip-rule="nonzero"/></clipPath><clipPath id="f72b5dd28c"><path d="M 22 22 L 24 22 L 24 23.488281 L 22 23.488281 Z M 22 22 " clip-rule="nonzero"/></clipPath><clipPath id="09d3f8a58d"><path d="M 7 5.34375 L 14 5.34375 L 14 8 L 7 8 Z M 7 5.34375 " clip-rule="nonzero"/></clipPath><clipPath id="d76fa5bf62"><path d="M 13 5.34375 L 15 5.34375 L 15 7 L 13 7 Z M 13 5.34375 " clip-rule="nonzero"/></clipPath><clipPath id="799dd1a98f"><path d="M 14 5.34375 L 16 5.34375 L 16 7 L 14 7 Z M 14 5.34375 " clip-rule="nonzero"/></clipPath><clipPath id="2639ce1c8d"><path d="M 15 5.34375 L 17 5.34375 L 17 7 L 15 7 Z M 15 5.34375 " clip-rule="nonzero"/></clipPath><clipPath id="ffd562d0d3"><path d="M 25 5.34375 L 28 5.34375 L 28 9 L 25 9 Z M 25 5.34375 " clip-rule="nonzero"/></clipPath><clipPath id="b0bd9f64f1"><path d="M 2 5.34375 L 5 5.34375 L 5 8 L 2 8 Z M 2 5.34375 " clip-rule="nonzero"/></clipPath><clipPath id="359840b75b"><path d="M 2 5.34375 L 5 5.34375 L 5 7 L 2 7 Z M 2 5.34375 " clip-rule="nonzero"/></clipPath><clipPath id="ea194c0f6f"><path d="M 2 5.34375 L 5 5.34375 L 5 8 L 2 8 Z M 2 5.34375 " clip-rule="nonzero"/></clipPath></defs><g clip-path="url(#2a4645c9a6)"><g mask="url(#d2475fe5ed)"><g transform="matrix(1, 0, 0, 1, 0, 2)"><g clip-path="url(#966404a75e)"><g clip-path="url(#ad969dea7a)"><g clip-path="url(#6ca3e64cf4)"><g clip-path="url(#cad9f00b73)"><path fill="#2cb2f1" d="M 25.671875 4.976562 C 25.324219 4.648438 24.851562 4.503906 24.394531 4.367188 C 23.296875 4.039062 21.976562 3.75 21.117188 4.503906 C 20.6875 4.875 20.476562 5.433594 20.164062 5.90625 C 19.625 6.726562 18.75 7.316406 17.789062 7.511719 C 16.941406 7.679688 16.070312 7.554688 15.210938 7.535156 C 14.351562 7.515625 13.429688 7.628906 12.769531 8.183594 C 12.144531 8.714844 11.871094 9.542969 11.378906 10.195312 C 10.464844 11.410156 8.902344 11.894531 7.578125 12.644531 C 5.449219 13.855469 3.878906 15.824219 2.363281 17.746094 C 1.824219 18.425781 1.265625 19.160156 1.175781 20.023438 C 1.074219 21.042969 1.675781 22.035156 2.496094 22.652344 C 3.316406 23.269531 4.324219 23.574219 5.316406 23.824219 C 6.363281 24.082031 7.550781 24.273438 8.457031 23.695312 C 9.09375 23.285156 9.496094 22.542969 10.203125 22.265625 C 11.09375 21.914062 12.0625 22.4375 12.9375 22.835938 C 13.976562 23.3125 15.226562 23.613281 16.234375 23.078125 C 17.417969 22.457031 17.800781 20.980469 18.480469 19.828125 C 19.132812 18.71875 20.152344 17.828125 21.339844 17.332031 C 22.71875 16.753906 24.375 16.652344 25.421875 15.585938 C 26.121094 14.875 26.417969 13.855469 27.085938 13.117188 C 27.5 12.664062 28.03125 12.335938 28.488281 11.925781 C 29.085938 11.382812 29.554688 10.65625 29.660156 9.851562 C 29.769531 9.046875 29.476562 8.171875 28.816406 7.695312 C 28.304688 7.328125 27.664062 7.210938 27.082031 6.992188 C 26.808594 6.886719 26.53125 6.753906 26.3125 6.546875 C 26.113281 6.359375 26.042969 6.222656 26.058594 5.949219 C 26.082031 5.582031 25.945312 5.230469 25.671875 4.976562 Z M 25.671875 4.976562 " fill-opacity="1" fill-rule="nonzero"/></g></g></g></g></g></g></g><path fill="#e2eaff" d="M 17.230469 11.003906 C 17.542969 11.527344 17.367188 12.199219 16.847656 12.507812 C 16.324219 12.816406 15.652344 12.644531 15.339844 12.121094 C 15.03125 11.601562 15.203125 10.925781 15.726562 10.617188 C 16.25 10.308594 16.921875 10.484375 17.230469 11.003906 Z M 18.886719 10.027344 C 18.71875 9.746094 18.355469 9.652344 18.074219 9.820312 C 18.054688 9.832031 18.035156 9.84375 18.015625 9.859375 C 17.84375 9.683594 17.648438 9.539062 17.441406 9.425781 C 17.449219 9.40625 17.457031 9.382812 17.460938 9.359375 C 17.542969 9.042969 17.351562 8.71875 17.035156 8.640625 C 16.71875 8.558594 16.398438 8.75 16.316406 9.066406 C 16.308594 9.089844 16.304688 9.113281 16.304688 9.136719 C 16.066406 9.132812 15.824219 9.167969 15.589844 9.238281 C 15.582031 9.214844 15.570312 9.191406 15.558594 9.171875 C 15.390625 8.890625 15.027344 8.796875 14.746094 8.964844 C 14.464844 9.128906 14.375 9.492188 14.539062 9.773438 C 14.550781 9.796875 14.566406 9.816406 14.582031 9.832031 C 14.40625 10.003906 14.261719 10.199219 14.148438 10.410156 C 14.125 10.402344 14.105469 10.394531 14.082031 10.386719 C 13.765625 10.304688 13.441406 10.496094 13.359375 10.8125 C 13.28125 11.128906 13.46875 11.449219 13.785156 11.53125 C 13.8125 11.539062 13.835938 11.542969 13.859375 11.546875 C 13.855469 11.785156 13.890625 12.023438 13.960938 12.257812 C 13.9375 12.269531 13.917969 12.277344 13.894531 12.289062 C 13.613281 12.457031 13.523438 12.820312 13.6875 13.101562 C 13.855469 13.382812 14.21875 13.476562 14.5 13.308594 C 14.519531 13.296875 14.539062 13.28125 14.558594 13.269531 C 14.730469 13.441406 14.925781 13.585938 15.132812 13.699219 C 15.125 13.722656 15.117188 13.746094 15.113281 13.769531 C 15.03125 14.085938 15.222656 14.40625 15.539062 14.488281 C 15.855469 14.570312 16.175781 14.378906 16.257812 14.0625 C 16.261719 14.039062 16.269531 14.015625 16.269531 13.992188 C 16.507812 13.996094 16.75 13.960938 16.984375 13.890625 C 16.992188 13.914062 17.003906 13.933594 17.015625 13.957031 C 17.183594 14.238281 17.546875 14.328125 17.828125 14.164062 C 18.105469 13.996094 18.199219 13.636719 18.035156 13.355469 C 18.019531 13.332031 18.007812 13.3125 17.992188 13.292969 C 18.167969 13.121094 18.3125 12.929688 18.425781 12.71875 C 18.445312 12.726562 18.46875 12.734375 18.492188 12.742188 C 18.808594 12.824219 19.132812 12.632812 19.214844 12.316406 C 19.292969 12 19.101562 11.675781 18.785156 11.597656 C 18.761719 11.589844 18.738281 11.585938 18.714844 11.582031 C 18.71875 11.34375 18.683594 11.105469 18.613281 10.871094 C 18.636719 10.859375 18.65625 10.851562 18.679688 10.835938 C 18.960938 10.671875 19.050781 10.308594 18.886719 10.027344 " fill-opacity="1" fill-rule="nonzero"/><g clip-path="url(#4d4ebd92b2)"><path fill="#000000" d="M 2.414062 23.46875 C 2.414062 23.46875 2.410156 23.46875 2.410156 23.46875 C 2.398438 23.46875 2.390625 23.457031 2.390625 23.445312 L 4.324219 13.851562 C 4.324219 13.839844 4.335938 13.832031 4.347656 13.835938 C 4.359375 13.839844 4.367188 13.847656 4.367188 13.863281 L 2.4375 23.453125 C 2.433594 23.464844 2.425781 23.46875 2.414062 23.46875 " fill-opacity="1" fill-rule="nonzero"/></g><g clip-path="url(#a55165ee98)"><path fill="#000000" d="M 2.207031 23.449219 C 2.207031 23.5625 2.300781 23.652344 2.414062 23.652344 C 2.527344 23.652344 2.621094 23.5625 2.621094 23.449219 C 2.621094 23.335938 2.527344 23.242188 2.414062 23.242188 C 2.300781 23.242188 2.207031 23.335938 2.207031 23.449219 " fill-opacity="1" fill-rule="nonzero"/></g><g clip-path="url(#e39df1dad7)"><path fill="#000000" d="M 7.308594 23.46875 C 7.296875 23.46875 7.289062 23.464844 7.285156 23.453125 L 5.355469 13.863281 C 5.351562 13.847656 5.359375 13.839844 5.371094 13.835938 C 5.382812 13.832031 5.394531 13.839844 5.398438 13.851562 L 7.328125 23.445312 C 7.332031 23.457031 7.324219 23.46875 7.3125 23.46875 C 7.308594 23.46875 7.308594 23.46875 7.308594 23.46875 " fill-opacity="1" fill-rule="nonzero"/></g><g clip-path="url(#5466aa7c57)"><path fill="#000000" d="M 7.511719 23.449219 C 7.511719 23.5625 7.421875 23.652344 7.308594 23.652344 C 7.191406 23.652344 7.101562 23.5625 7.101562 23.449219 C 7.101562 23.335938 7.191406 23.242188 7.308594 23.242188 C 7.421875 23.242188 7.511719 23.335938 7.511719 23.449219 " fill-opacity="1" fill-rule="nonzero"/></g><path fill="#000000" d="M 5.160156 20.410156 L 3.121094 20.410156 C 3.109375 20.410156 3.101562 20.398438 3.101562 20.386719 C 3.101562 20.375 3.109375 20.367188 3.121094 20.367188 L 5.160156 20.367188 C 5.175781 20.367188 5.183594 20.375 5.183594 20.386719 C 5.183594 20.398438 5.175781 20.410156 5.160156 20.410156 " fill-opacity="1" fill-rule="nonzero"/><path fill="#000000" d="M 5.1875 20.855469 L 3.296875 20.855469 C 3.285156 20.855469 3.273438 20.84375 3.273438 20.832031 C 3.273438 20.820312 3.285156 20.8125 3.296875 20.8125 L 5.1875 20.8125 C 5.199219 20.8125 5.207031 20.820312 5.207031 20.832031 C 5.207031 20.84375 5.199219 20.855469 5.1875 20.855469 " fill-opacity="1" fill-rule="nonzero"/><g clip-path="url(#9e639ab50b)"><path fill="#ffffff" d="M 4.359375 15.132812 L 9.371094 23.40625 C 9.460938 23.558594 9.628906 23.652344 9.808594 23.652344 L 12.617188 23.652344 C 12.707031 23.652344 12.742188 23.539062 12.667969 23.488281 L 11.5625 22.746094 C 11.5625 22.746094 8.023438 16.875 6.8125 14.4375 L 4.359375 15.132812 " fill-opacity="1" fill-rule="nonzero"/><path fill="#000000" d="M 4.394531 15.144531 L 9.386719 23.394531 C 9.476562 23.539062 9.636719 23.632812 9.808594 23.632812 L 12.617188 23.632812 C 12.652344 23.632812 12.675781 23.605469 12.679688 23.582031 C 12.6875 23.558594 12.683594 23.527344 12.652344 23.503906 L 11.550781 22.765625 C 11.546875 22.765625 11.546875 22.761719 11.542969 22.757812 C 11.507812 22.699219 8.007812 16.882812 6.800781 14.464844 Z M 12.617188 23.675781 L 9.808594 23.675781 C 9.621094 23.675781 9.445312 23.578125 9.351562 23.417969 L 4.339844 15.140625 C 4.335938 15.136719 4.335938 15.128906 4.339844 15.121094 C 4.34375 15.117188 4.347656 15.113281 4.355469 15.109375 L 6.804688 14.417969 C 6.816406 14.414062 6.828125 14.417969 6.832031 14.429688 C 8.015625 16.808594 11.46875 22.546875 11.578125 22.730469 L 12.679688 23.46875 C 12.71875 23.496094 12.738281 23.546875 12.722656 23.597656 C 12.707031 23.644531 12.667969 23.675781 12.617188 23.675781 " fill-opacity="1" fill-rule="nonzero"/></g><g clip-path="url(#c03ae83435)"><path fill="#000000" d="M 9.421875 23.1875 C 9.410156 23.1875 9.402344 23.179688 9.398438 23.167969 C 9.398438 23.15625 9.40625 23.144531 9.417969 23.144531 L 11.441406 22.804688 C 11.453125 22.804688 11.464844 22.8125 11.464844 22.824219 C 11.46875 22.835938 11.460938 22.847656 11.449219 22.851562 L 9.425781 23.1875 C 9.421875 23.1875 9.421875 23.1875 9.421875 23.1875 " fill-opacity="1" fill-rule="nonzero"/></g><path fill="#ffffff" d="M 9.386719 16.714844 C 8.324219 15.605469 6.78125 14.046875 6.507812 13.769531 C 6.132812 13.976562 4.210938 14.875 4.210938 14.875 L 7.488281 17.941406 L 5.523438 20.515625 C 5.386719 20.691406 5.402344 20.9375 5.558594 21.09375 L 7.070312 22.613281 C 7.160156 22.707031 7.316406 22.636719 7.3125 22.511719 L 7.265625 21.429688 C 7.660156 21.074219 8.75 19.652344 9.5 18.65625 C 9.945312 18.066406 9.894531 17.246094 9.386719 16.714844 " fill-opacity="1" fill-rule="nonzero"/><path fill="#000000" d="M 4.25 14.878906 L 7.503906 17.921875 C 7.511719 17.929688 7.515625 17.945312 7.507812 17.953125 L 5.539062 20.53125 C 5.414062 20.695312 5.429688 20.929688 5.574219 21.078125 L 7.085938 22.601562 C 7.128906 22.640625 7.179688 22.640625 7.21875 22.625 C 7.253906 22.609375 7.292969 22.570312 7.289062 22.511719 L 7.246094 21.429688 C 7.242188 21.425781 7.246094 21.417969 7.25 21.414062 C 7.636719 21.066406 8.675781 19.714844 9.484375 18.644531 C 9.921875 18.058594 9.875 17.253906 9.371094 16.726562 C 8.328125 15.640625 6.828125 14.121094 6.503906 13.796875 C 6.128906 14 4.492188 14.765625 4.25 14.878906 Z M 7.167969 22.679688 C 7.125 22.679688 7.085938 22.664062 7.054688 22.628906 L 5.542969 21.109375 C 5.382812 20.945312 5.363281 20.683594 5.503906 20.503906 L 7.460938 17.941406 L 4.195312 14.890625 C 4.191406 14.882812 4.1875 14.875 4.191406 14.871094 C 4.191406 14.863281 4.195312 14.855469 4.203125 14.851562 C 4.222656 14.84375 6.128906 13.957031 6.496094 13.75 C 6.507812 13.746094 6.515625 13.746094 6.523438 13.753906 C 6.820312 14.054688 8.34375 15.597656 9.402344 16.699219 C 9.921875 17.238281 9.972656 18.070312 9.519531 18.667969 C 8.714844 19.738281 7.679688 21.078125 7.289062 21.4375 L 7.332031 22.507812 C 7.335938 22.578125 7.296875 22.636719 7.234375 22.664062 C 7.214844 22.675781 7.191406 22.679688 7.167969 22.679688 " fill-opacity="1" fill-rule="nonzero"/><path fill="#000000" d="M 7.101562 21.421875 C 7.097656 21.421875 7.09375 21.421875 7.09375 21.421875 C 6.539062 21.222656 6.070312 20.804688 5.816406 20.277344 C 5.808594 20.265625 5.8125 20.25 5.824219 20.246094 C 5.835938 20.242188 5.847656 20.246094 5.855469 20.257812 C 6.105469 20.777344 6.5625 21.1875 7.109375 21.378906 C 7.117188 21.382812 7.125 21.394531 7.121094 21.40625 C 7.117188 21.417969 7.109375 21.421875 7.101562 21.421875 " fill-opacity="1" fill-rule="nonzero"/><path fill="#ffffff" d="M 7.085938 11.554688 C 7.089844 11.964844 6.992188 12.367188 6.890625 12.765625 C 6.789062 13.160156 6.683594 13.558594 6.667969 13.972656 C 6.167969 14.160156 5.667969 14.347656 5.171875 14.535156 C 5.164062 13.773438 5.25 13.007812 5.480469 12.289062 C 5.621094 11.851562 5.816406 11.429688 6.066406 11.050781 C 6.179688 10.878906 6.324219 10.628906 6.496094 10.515625 C 6.699219 10.382812 6.839844 10.605469 6.921875 10.78125 C 7.03125 11.019531 7.082031 11.289062 7.085938 11.554688 " fill-opacity="1" fill-rule="nonzero"/><path fill="#000000" d="M 6.667969 13.972656 Z M 6.617188 10.5 C 6.582031 10.5 6.546875 10.511719 6.507812 10.535156 C 6.367188 10.628906 6.242188 10.824219 6.136719 10.980469 C 6.121094 11.007812 6.101562 11.039062 6.085938 11.0625 C 5.84375 11.429688 5.644531 11.84375 5.5 12.296875 C 5.292969 12.949219 5.1875 13.691406 5.191406 14.503906 L 6.644531 13.957031 C 6.664062 13.566406 6.761719 13.1875 6.855469 12.816406 L 6.871094 12.757812 C 6.976562 12.335938 7.066406 11.953125 7.0625 11.554688 C 7.058594 11.273438 7.003906 11.011719 6.902344 10.789062 C 6.820312 10.621094 6.742188 10.527344 6.660156 10.503906 C 6.644531 10.5 6.632812 10.5 6.617188 10.5 Z M 5.171875 14.554688 C 5.167969 14.554688 5.160156 14.554688 5.160156 14.550781 C 5.152344 14.546875 5.148438 14.542969 5.148438 14.535156 C 5.140625 13.707031 5.246094 12.949219 5.457031 12.28125 C 5.605469 11.828125 5.804688 11.40625 6.046875 11.039062 C 6.066406 11.011719 6.082031 10.984375 6.101562 10.957031 C 6.207031 10.796875 6.335938 10.597656 6.484375 10.5 C 6.546875 10.457031 6.609375 10.445312 6.671875 10.460938 C 6.765625 10.488281 6.855469 10.589844 6.941406 10.773438 C 7.046875 10.996094 7.101562 11.265625 7.105469 11.554688 C 7.113281 11.957031 7.019531 12.34375 6.914062 12.769531 L 6.898438 12.828125 C 6.800781 13.199219 6.703125 13.582031 6.6875 13.972656 C 6.6875 13.980469 6.683594 13.988281 6.675781 13.992188 L 5.179688 14.554688 C 5.175781 14.554688 5.171875 14.554688 5.171875 14.554688 " fill-opacity="1" fill-rule="nonzero"/><path fill="#2cb2f1" d="M 6.089844 10.121094 C 6.089844 10.121094 6.613281 10.34375 6.734375 10.773438 C 6.851562 11.207031 5.171875 17.566406 5.171875 17.566406 L 3.273438 15.984375 C 2.910156 15.683594 2.789062 15.175781 2.980469 14.742188 L 4.796875 10.605469 C 4.796875 10.605469 5.59375 9.945312 6.089844 10.121094 " fill-opacity="1" fill-rule="nonzero"/><path fill="#2cb2f1" d="M 9.773438 12.308594 C 9.058594 12.332031 8.300781 12.351562 8.199219 12.28125 C 8.007812 12.152344 7.386719 11.710938 7.101562 11.085938 C 6.816406 10.460938 6.089844 10.121094 6.089844 10.121094 L 5.246094 11.746094 C 5.246094 11.746094 7.121094 13.535156 8.199219 13.511719 C 8.71875 13.5 9.28125 13.453125 9.738281 13.402344 C 9.660156 13.039062 9.671875 12.660156 9.773438 12.308594 " fill-opacity="1" fill-rule="nonzero"/><path fill="#ffffff" d="M 11.886719 12.867188 C 11.867188 12.789062 11.820312 12.726562 11.773438 12.664062 C 11.636719 12.484375 11.492188 12.296875 11.277344 12.230469 C 11.140625 12.1875 10.992188 12.199219 10.847656 12.214844 C 10.675781 12.230469 9.921875 12.316406 9.773438 12.332031 C 9.640625 12.34375 9.578125 13.027344 9.648438 13.28125 C 9.660156 13.324219 9.675781 13.367188 9.710938 13.394531 C 9.769531 13.449219 9.863281 13.433594 9.9375 13.410156 C 10.21875 13.328125 10.476562 13.179688 10.691406 12.980469 C 10.742188 12.933594 10.800781 12.878906 10.871094 12.875 C 10.964844 12.871094 11.03125 12.953125 11.089844 13.023438 C 11.140625 13.085938 11.199219 13.148438 11.273438 13.175781 C 11.347656 13.207031 11.441406 13.199219 11.496094 13.140625 C 11.519531 13.105469 11.527344 13.058594 11.515625 13.019531 C 11.546875 13.046875 11.578125 13.074219 11.617188 13.089844 C 11.683594 13.125 11.773438 13.128906 11.832031 13.078125 C 11.894531 13.03125 11.90625 12.941406 11.886719 12.867188 " fill-opacity="1" fill-rule="nonzero"/><path fill="#ffffff" d="M 9.9375 13.410156 C 10.21875 13.328125 10.476562 13.179688 10.691406 12.980469 C 10.742188 12.933594 10.800781 12.878906 10.871094 12.875 C 10.964844 12.871094 11.03125 12.953125 11.089844 13.023438 C 11.140625 13.085938 11.199219 13.148438 11.273438 13.175781 C 11.347656 13.207031 11.441406 13.199219 11.496094 13.140625 C 11.519531 13.105469 11.527344 13.058594 11.515625 13.019531 C 11.546875 13.046875 11.578125 13.074219 11.617188 13.089844 C 11.683594 13.125 11.773438 13.128906 11.832031 13.078125 C 11.894531 13.03125 11.90625 12.941406 11.886719 12.867188 C 11.867188 12.789062 11.820312 12.726562 11.773438 12.664062 C 11.636719 12.484375 11.492188 12.296875 11.277344 12.230469 C 11.140625 12.1875 10.992188 12.199219 10.847656 12.214844 C 10.675781 12.230469 9.921875 12.316406 9.773438 12.332031 L 9.9375 13.410156 " fill-opacity="1" fill-rule="nonzero"/><path fill="#000000" d="M 9.9375 13.433594 C 9.929688 13.433594 9.917969 13.425781 9.917969 13.417969 C 9.914062 13.40625 9.917969 13.394531 9.929688 13.390625 C 10.207031 13.308594 10.464844 13.160156 10.675781 12.964844 L 10.683594 12.960938 C 10.734375 12.914062 10.792969 12.855469 10.871094 12.855469 C 10.976562 12.847656 11.050781 12.941406 11.109375 13.007812 C 11.15625 13.066406 11.210938 13.128906 11.28125 13.15625 C 11.34375 13.183594 11.429688 13.179688 11.476562 13.125 C 11.496094 13.101562 11.503906 13.0625 11.492188 13.027344 C 11.492188 13.015625 11.496094 13.007812 11.503906 13 C 11.511719 12.996094 11.523438 12.996094 11.53125 13.003906 C 11.5625 13.035156 11.59375 13.054688 11.625 13.070312 C 11.683594 13.097656 11.765625 13.105469 11.816406 13.0625 C 11.875 13.019531 11.882812 12.933594 11.867188 12.871094 C 11.847656 12.796875 11.800781 12.734375 11.753906 12.675781 C 11.609375 12.480469 11.46875 12.3125 11.273438 12.25 C 11.136719 12.207031 10.984375 12.222656 10.847656 12.234375 C 10.742188 12.246094 10.410156 12.28125 10.144531 12.3125 C 9.976562 12.332031 9.832031 12.347656 9.773438 12.355469 C 9.761719 12.355469 9.75 12.347656 9.75 12.332031 C 9.75 12.320312 9.757812 12.3125 9.769531 12.308594 C 9.828125 12.304688 9.972656 12.289062 10.140625 12.269531 C 10.40625 12.238281 10.738281 12.203125 10.84375 12.191406 C 10.984375 12.179688 11.140625 12.164062 11.285156 12.207031 C 11.496094 12.273438 11.636719 12.449219 11.789062 12.648438 C 11.835938 12.710938 11.886719 12.777344 11.910156 12.859375 C 11.929688 12.9375 11.917969 13.039062 11.847656 13.097656 C 11.785156 13.144531 11.691406 13.152344 11.605469 13.109375 C 11.585938 13.101562 11.5625 13.085938 11.542969 13.070312 C 11.539062 13.101562 11.53125 13.128906 11.511719 13.152344 C 11.449219 13.226562 11.339844 13.230469 11.265625 13.199219 C 11.183594 13.164062 11.125 13.097656 11.074219 13.039062 C 11.011719 12.960938 10.953125 12.898438 10.878906 12.898438 C 10.875 12.898438 10.875 12.898438 10.871094 12.898438 C 10.8125 12.902344 10.761719 12.949219 10.710938 12.992188 L 10.707031 13 C 10.492188 13.199219 10.226562 13.347656 9.945312 13.433594 C 9.941406 13.433594 9.941406 13.433594 9.9375 13.433594 " fill-opacity="1" fill-rule="nonzero"/><path fill="#000000" d="M 11.480469 12.988281 C 11.476562 12.988281 11.46875 12.984375 11.464844 12.980469 C 11.371094 12.816406 11.265625 12.632812 11.097656 12.53125 C 11.054688 12.503906 10.945312 12.449219 10.851562 12.5 C 10.839844 12.503906 10.828125 12.5 10.824219 12.488281 C 10.816406 12.476562 10.820312 12.464844 10.832031 12.457031 C 10.945312 12.402344 11.070312 12.464844 11.121094 12.492188 C 11.300781 12.601562 11.40625 12.789062 11.5 12.957031 C 11.507812 12.96875 11.503906 12.980469 11.492188 12.988281 C 11.488281 12.988281 11.484375 12.988281 11.480469 12.988281 " fill-opacity="1" fill-rule="nonzero"/><path fill="#ffffff" d="M 4.488281 10.417969 C 4.371094 10.535156 4.269531 10.675781 4.238281 10.835938 C 4.203125 10.996094 4.25 11.179688 4.386719 11.273438 C 4.484375 11.339844 4.609375 11.351562 4.726562 11.328125 C 4.84375 11.304688 4.953125 11.253906 5.058594 11.203125 C 5.339844 11.066406 5.625 10.933594 5.929688 10.851562 C 6.234375 10.773438 6.558594 10.753906 6.859375 10.835938 C 6.90625 10.851562 6.960938 10.867188 7.007812 10.851562 C 7.0625 10.832031 7.097656 10.769531 7.101562 10.707031 C 7.101562 10.648438 7.078125 10.589844 7.050781 10.535156 C 6.683594 9.832031 5.695312 9.746094 5.039062 10.039062 C 4.832031 10.128906 4.644531 10.257812 4.488281 10.417969 " fill-opacity="1" fill-rule="nonzero"/><path fill="#000000" d="M 4.488281 10.417969 Z M 5.800781 9.902344 C 5.539062 9.902344 5.277344 9.957031 5.046875 10.058594 C 4.839844 10.152344 4.65625 10.277344 4.503906 10.433594 C 4.367188 10.574219 4.285156 10.707031 4.257812 10.839844 C 4.222656 11.003906 4.28125 11.171875 4.398438 11.253906 C 4.511719 11.332031 4.648438 11.320312 4.722656 11.308594 C 4.835938 11.285156 4.941406 11.234375 5.042969 11.183594 L 5.050781 11.179688 C 5.335938 11.042969 5.617188 10.910156 5.925781 10.832031 C 6.269531 10.742188 6.585938 10.738281 6.863281 10.816406 L 6.871094 10.816406 C 6.917969 10.828125 6.960938 10.84375 7 10.828125 C 7.050781 10.8125 7.078125 10.753906 7.078125 10.707031 C 7.078125 10.648438 7.054688 10.59375 7.03125 10.546875 C 6.800781 10.105469 6.304688 9.902344 5.800781 9.902344 Z M 4.617188 11.363281 C 4.523438 11.363281 4.441406 11.335938 4.371094 11.292969 C 4.21875 11.183594 4.183594 10.984375 4.214844 10.828125 C 4.246094 10.6875 4.328125 10.546875 4.46875 10.402344 C 4.628906 10.242188 4.816406 10.113281 5.03125 10.019531 C 5.726562 9.707031 6.710938 9.835938 7.070312 10.527344 C 7.09375 10.574219 7.125 10.640625 7.121094 10.707031 C 7.121094 10.785156 7.074219 10.851562 7.015625 10.871094 C 6.960938 10.886719 6.910156 10.875 6.859375 10.859375 L 6.851562 10.859375 C 6.582031 10.78125 6.273438 10.789062 5.933594 10.875 C 5.632812 10.953125 5.351562 11.082031 5.066406 11.222656 L 5.0625 11.222656 C 4.957031 11.273438 4.847656 11.328125 4.730469 11.351562 C 4.691406 11.359375 4.65625 11.363281 4.617188 11.363281 " fill-opacity="1" fill-rule="nonzero"/><path fill="#ffffff" d="M 6.683594 9.09375 L 6.089844 10.121094 C 6.355469 10.242188 6.570312 10.378906 6.691406 10.539062 L 7.195312 9.617188 C 7.183594 9.550781 6.957031 8.773438 6.683594 9.09375 " fill-opacity="1" fill-rule="nonzero"/><path fill="#000000" d="M 6.121094 10.113281 C 6.390625 10.238281 6.578125 10.363281 6.6875 10.5 L 7.171875 9.613281 C 7.152344 9.519531 7.011719 9.089844 6.84375 9.042969 C 6.796875 9.03125 6.75 9.050781 6.703125 9.109375 Z M 6.691406 10.558594 C 6.683594 10.558594 6.679688 10.558594 6.671875 10.550781 C 6.566406 10.410156 6.375 10.273438 6.078125 10.140625 C 6.074219 10.140625 6.070312 10.136719 6.066406 10.128906 C 6.066406 10.121094 6.066406 10.117188 6.070312 10.109375 L 6.664062 9.085938 C 6.667969 9.082031 6.667969 9.082031 6.667969 9.082031 C 6.726562 9.011719 6.792969 8.984375 6.855469 9 C 7.0625 9.058594 7.207031 9.554688 7.214844 9.613281 C 7.214844 9.617188 7.214844 9.621094 7.214844 9.625 L 6.710938 10.550781 C 6.707031 10.554688 6.699219 10.558594 6.691406 10.558594 " fill-opacity="1" fill-rule="nonzero"/><path fill="#000000" d="M 6.753906 10.632812 C 6.746094 10.632812 6.738281 10.628906 6.734375 10.625 C 6.40625 10.203125 5.894531 10.078125 5.890625 10.078125 C 5.878906 10.074219 5.871094 10.0625 5.875 10.050781 C 5.878906 10.039062 5.890625 10.03125 5.902344 10.035156 C 5.90625 10.035156 6.433594 10.164062 6.769531 10.597656 C 6.777344 10.605469 6.777344 10.621094 6.765625 10.628906 C 6.761719 10.628906 6.757812 10.632812 6.753906 10.632812 " fill-opacity="1" fill-rule="nonzero"/><path fill="#000000" d="M 7.9375 8.28125 C 7.820312 8 7.488281 7.824219 7.191406 7.894531 C 6.75 7.992188 6.507812 8.515625 6.066406 8.617188 C 6.089844 8.679688 6.148438 8.730469 6.214844 8.738281 C 6.101562 8.800781 6.042969 8.945312 6.074219 9.074219 C 6.105469 9.199219 6.214844 9.300781 6.339844 9.339844 C 6.460938 9.378906 6.597656 9.363281 6.71875 9.316406 L 7.675781 9.082031 C 7.9375 8.921875 8.050781 8.5625 7.9375 8.28125 " fill-opacity="1" fill-rule="nonzero"/><path fill="#000000" d="M 6.714844 9.175781 C 6.710938 9.175781 6.710938 9.175781 6.710938 9.175781 C 6.699219 9.175781 6.691406 9.164062 6.691406 9.152344 C 6.691406 9.128906 6.683594 9.101562 6.664062 9.082031 C 6.648438 9.058594 6.621094 9.046875 6.597656 9.046875 C 6.585938 9.042969 6.578125 9.035156 6.578125 9.023438 C 6.578125 9.011719 6.589844 9 6.601562 9 C 6.636719 9.003906 6.671875 9.023438 6.699219 9.050781 C 6.722656 9.082031 6.738281 9.121094 6.734375 9.15625 C 6.734375 9.167969 6.726562 9.175781 6.714844 9.175781 " fill-opacity="1" fill-rule="nonzero"/><path fill="#ffffff" d="M 6.871094 9.011719 C 6.863281 8.964844 6.859375 8.914062 6.832031 8.871094 C 6.796875 8.804688 6.726562 8.757812 6.652344 8.757812 C 6.5625 8.753906 6.472656 8.8125 6.4375 8.894531 C 6.398438 8.976562 6.40625 9.078125 6.453125 9.15625 C 6.496094 9.234375 6.578125 9.289062 6.667969 9.308594 C 6.667969 9.3125 6.667969 9.320312 6.667969 9.324219 C 6.710938 9.292969 6.742188 9.253906 6.773438 9.210938 C 6.8125 9.148438 6.84375 9.082031 6.871094 9.011719 " fill-opacity="1" fill-rule="nonzero"/><path fill="#000000" d="M 6.648438 8.78125 C 6.570312 8.78125 6.492188 8.832031 6.457031 8.90625 C 6.421875 8.980469 6.425781 9.070312 6.46875 9.144531 C 6.511719 9.214844 6.585938 9.269531 6.671875 9.289062 C 6.671875 9.289062 6.675781 9.289062 6.675781 9.289062 C 6.703125 9.265625 6.730469 9.234375 6.753906 9.199219 C 6.792969 9.136719 6.820312 9.074219 6.847656 9.007812 L 6.847656 8.996094 C 6.839844 8.957031 6.835938 8.914062 6.8125 8.878906 C 6.78125 8.820312 6.71875 8.78125 6.652344 8.78125 C 6.648438 8.78125 6.648438 8.78125 6.648438 8.78125 Z M 6.667969 9.347656 C 6.664062 9.347656 6.664062 9.347656 6.660156 9.34375 C 6.652344 9.34375 6.648438 9.335938 6.644531 9.328125 C 6.554688 9.300781 6.476562 9.242188 6.433594 9.167969 C 6.382812 9.082031 6.375 8.972656 6.414062 8.886719 C 6.457031 8.796875 6.550781 8.734375 6.648438 8.734375 C 6.648438 8.734375 6.648438 8.734375 6.652344 8.734375 C 6.734375 8.738281 6.808594 8.785156 6.851562 8.859375 C 6.875 8.902344 6.882812 8.945312 6.890625 8.992188 L 6.890625 9.007812 C 6.894531 9.011719 6.890625 9.015625 6.890625 9.019531 C 6.863281 9.085938 6.832031 9.15625 6.789062 9.222656 C 6.757812 9.269531 6.722656 9.3125 6.683594 9.34375 C 6.679688 9.347656 6.671875 9.347656 6.667969 9.347656 " fill-opacity="1" fill-rule="nonzero"/><path fill="#ffffff" d="M 7.699219 8.859375 C 7.6875 8.785156 7.167969 8.828125 7.195312 8.992188 C 7.226562 9.179688 7.042969 9.167969 7.046875 9.179688 C 7.09375 9.371094 7.007812 9.644531 7.179688 9.738281 C 7.277344 9.792969 7.59375 9.730469 7.707031 9.710938 C 7.714844 9.664062 7.71875 9.617188 7.722656 9.570312 C 7.742188 9.359375 7.730469 9.070312 7.699219 8.859375 " fill-opacity="1" fill-rule="nonzero"/><path fill="#000000" d="M 7.566406 8.824219 C 7.410156 8.824219 7.175781 8.878906 7.195312 8.992188 C 7.226562 9.179688 7.042969 9.167969 7.046875 9.179688 C 7.09375 9.371094 7.007812 9.644531 7.179688 9.738281 C 7.207031 9.753906 7.253906 9.761719 7.308594 9.761719 C 7.441406 9.761719 7.628906 9.722656 7.707031 9.710938 C 7.714844 9.664062 7.71875 9.617188 7.722656 9.570312 C 7.742188 9.359375 7.730469 9.070312 7.699219 8.859375 C 7.695312 8.835938 7.640625 8.824219 7.566406 8.824219 Z M 7.566406 8.867188 C 7.617188 8.867188 7.644531 8.875 7.65625 8.878906 C 7.6875 9.085938 7.695312 9.367188 7.679688 9.566406 C 7.675781 9.609375 7.671875 9.640625 7.667969 9.675781 C 7.660156 9.675781 7.648438 9.675781 7.640625 9.679688 C 7.546875 9.695312 7.410156 9.71875 7.308594 9.71875 C 7.238281 9.71875 7.210938 9.707031 7.199219 9.699219 C 7.109375 9.648438 7.109375 9.53125 7.105469 9.394531 C 7.105469 9.332031 7.105469 9.269531 7.097656 9.210938 C 7.238281 9.171875 7.253906 9.066406 7.238281 8.984375 C 7.238281 8.976562 7.238281 8.96875 7.25 8.957031 C 7.292969 8.902344 7.449219 8.867188 7.566406 8.867188 " fill-opacity="1" fill-rule="nonzero"/><path fill="#000000" d="M 7.253906 9.601562 C 7.082031 9.503906 7.09375 9.371094 7.046875 9.179688 C 7.042969 9.167969 7.039062 9.15625 7.039062 9.144531 C 7.03125 9.152344 7.023438 9.160156 7.015625 9.164062 C 6.964844 9.1875 6.90625 9.140625 6.886719 9.085938 C 6.878906 9.0625 6.875 9.039062 6.871094 9.011719 C 6.84375 9.082031 6.8125 9.148438 6.773438 9.210938 C 6.742188 9.253906 6.710938 9.292969 6.667969 9.324219 C 6.683594 9.480469 6.722656 9.636719 6.785156 9.78125 C 6.835938 9.898438 6.898438 10.011719 6.996094 10.097656 C 7.089844 10.179688 7.222656 10.226562 7.347656 10.203125 C 7.476562 10.175781 7.613281 10.167969 7.667969 10.046875 C 7.707031 9.972656 7.707031 9.683594 7.71875 9.601562 C 7.585938 9.570312 7.355469 9.65625 7.253906 9.601562 " fill-opacity="1" fill-rule="nonzero"/><path fill="#000000" d="M 6.695312 9.152344 C 6.683594 9.152344 6.675781 9.144531 6.675781 9.132812 C 6.664062 9.085938 6.632812 9.039062 6.589844 9.011719 C 6.578125 9.003906 6.578125 8.992188 6.582031 8.980469 C 6.589844 8.972656 6.601562 8.96875 6.613281 8.972656 C 6.667969 9.007812 6.707031 9.0625 6.71875 9.125 C 6.71875 9.136719 6.710938 9.148438 6.699219 9.152344 C 6.699219 9.152344 6.695312 9.152344 6.695312 9.152344 " fill-opacity="1" fill-rule="nonzero"/><path fill="#ffffff" d="M 7.066406 9.015625 C 7.066406 9.226562 6.894531 9.398438 6.683594 9.398438 C 6.472656 9.398438 6.300781 9.226562 6.300781 9.015625 C 6.300781 8.804688 6.472656 8.632812 6.683594 8.632812 C 6.894531 8.632812 7.066406 8.804688 7.066406 9.015625 " fill-opacity="1" fill-rule="nonzero"/><path fill="#000000" d="M 6.683594 8.65625 C 6.484375 8.65625 6.324219 8.816406 6.324219 9.015625 C 6.324219 9.214844 6.484375 9.375 6.683594 9.375 C 6.882812 9.375 7.042969 9.214844 7.042969 9.015625 C 7.042969 8.816406 6.882812 8.65625 6.683594 8.65625 Z M 6.683594 9.421875 C 6.460938 9.421875 6.28125 9.238281 6.28125 9.015625 C 6.28125 8.792969 6.460938 8.613281 6.683594 8.613281 C 6.90625 8.613281 7.089844 8.792969 7.089844 9.015625 C 7.089844 9.238281 6.90625 9.421875 6.683594 9.421875 " fill-opacity="1" fill-rule="nonzero"/><path fill="#ffffff" d="M 6.742188 8.636719 L 7.28125 7.820312 C 7.28125 7.820312 7.527344 7.828125 7.648438 7.949219 L 7.058594 8.945312 C 7.058594 8.945312 7.046875 8.683594 6.742188 8.636719 " fill-opacity="1" fill-rule="nonzero"/><path fill="#000000" d="M 6.777344 8.621094 C 6.976562 8.664062 7.046875 8.804688 7.070312 8.886719 L 7.617188 7.953125 C 7.519531 7.867188 7.34375 7.84375 7.292969 7.839844 Z M 7.058594 8.96875 C 7.058594 8.96875 7.054688 8.96875 7.054688 8.96875 C 7.046875 8.964844 7.039062 8.957031 7.039062 8.949219 C 7.039062 8.9375 7.019531 8.703125 6.738281 8.660156 C 6.730469 8.660156 6.722656 8.652344 6.722656 8.648438 C 6.71875 8.640625 6.71875 8.632812 6.722656 8.625 L 7.265625 7.808594 C 7.269531 7.800781 7.277344 7.796875 7.285156 7.796875 C 7.292969 7.796875 7.539062 7.808594 7.664062 7.933594 C 7.667969 7.9375 7.671875 7.949219 7.664062 7.957031 L 7.078125 8.957031 C 7.074219 8.964844 7.066406 8.96875 7.058594 8.96875 " fill-opacity="1" fill-rule="nonzero"/><path fill="#2cb2f1" d="M 7.558594 9.78125 L 7.03125 9.78125 C 7.023438 9.78125 7.015625 9.777344 7.011719 9.769531 L 6.664062 9.027344 C 6.660156 9.015625 6.664062 9 6.675781 8.996094 C 6.6875 8.992188 6.699219 8.996094 6.703125 9.007812 L 7.046875 9.738281 L 7.558594 9.738281 C 7.570312 9.738281 7.582031 9.746094 7.582031 9.757812 C 7.582031 9.769531 7.570312 9.78125 7.558594 9.78125 " fill-opacity="1" fill-rule="nonzero"/><path fill="#ffffff" d="M 7.609375 9.757812 C 7.609375 9.730469 7.589844 9.707031 7.558594 9.707031 C 7.53125 9.707031 7.507812 9.730469 7.507812 9.757812 C 7.507812 9.785156 7.53125 9.808594 7.558594 9.808594 C 7.589844 9.808594 7.609375 9.785156 7.609375 9.757812 " fill-opacity="1" fill-rule="nonzero"/><path fill="#ffffff" d="M 13.609375 13.75 L 6.292969 13.75 L 6.292969 13.40625 L 13.609375 13.40625 L 13.609375 13.75 " fill-opacity="1" fill-rule="nonzero"/><path fill="#000000" d="M 6.316406 13.726562 L 13.585938 13.726562 L 13.585938 13.429688 L 6.316406 13.429688 Z M 13.609375 13.773438 L 6.292969 13.773438 C 6.28125 13.773438 6.269531 13.761719 6.269531 13.75 L 6.269531 13.40625 C 6.269531 13.394531 6.28125 13.386719 6.292969 13.386719 L 13.609375 13.386719 C 13.621094 13.386719 13.632812 13.394531 13.632812 13.40625 L 13.632812 13.75 C 13.632812 13.761719 13.621094 13.773438 13.609375 13.773438 " fill-opacity="1" fill-rule="nonzero"/><g clip-path="url(#f13cd7d6d6)"><path fill="#000000" d="M 5.035156 23.46875 C 5.03125 23.46875 5.03125 23.46875 5.027344 23.46875 C 5.015625 23.46875 5.007812 23.457031 5.011719 23.445312 L 5.445312 21.292969 C 5.445312 21.28125 5.457031 21.273438 5.46875 21.277344 C 5.480469 21.28125 5.488281 21.292969 5.488281 21.304688 L 5.054688 23.453125 C 5.054688 23.464844 5.042969 23.46875 5.035156 23.46875 " fill-opacity="1" fill-rule="nonzero"/></g><path fill="#000000" d="M 5.742188 19.953125 C 5.738281 19.953125 5.738281 19.953125 5.738281 19.953125 C 5.726562 19.949219 5.71875 19.9375 5.71875 19.925781 L 6.941406 13.851562 C 6.945312 13.839844 6.957031 13.832031 6.96875 13.835938 C 6.980469 13.839844 6.988281 13.847656 6.984375 13.863281 L 5.761719 19.933594 C 5.761719 19.945312 5.75 19.953125 5.742188 19.953125 " fill-opacity="1" fill-rule="nonzero"/><g clip-path="url(#2f3155291f)"><path fill="#000000" d="M 4.828125 23.449219 C 4.828125 23.5625 4.917969 23.652344 5.035156 23.652344 C 5.148438 23.652344 5.238281 23.5625 5.238281 23.449219 C 5.238281 23.335938 5.148438 23.242188 5.035156 23.242188 C 4.917969 23.242188 4.828125 23.335938 4.828125 23.449219 " fill-opacity="1" fill-rule="nonzero"/></g><g clip-path="url(#b1dc77ef7d)"><path fill="#000000" d="M 15.003906 23.46875 C 14.992188 23.46875 14.984375 23.464844 14.980469 23.453125 L 13.050781 13.863281 C 13.050781 13.847656 13.058594 13.839844 13.070312 13.835938 C 13.082031 13.832031 13.09375 13.839844 13.09375 13.851562 L 15.023438 23.445312 C 15.027344 23.457031 15.019531 23.46875 15.007812 23.46875 C 15.007812 23.46875 15.003906 23.46875 15.003906 23.46875 " fill-opacity="1" fill-rule="nonzero"/></g><g clip-path="url(#12c14f7690)"><path fill="#000000" d="M 15.207031 23.449219 C 15.207031 23.5625 15.117188 23.652344 15.003906 23.652344 C 14.890625 23.652344 14.796875 23.5625 14.796875 23.449219 C 14.796875 23.335938 14.890625 23.242188 15.003906 23.242188 C 15.117188 23.242188 15.207031 23.335938 15.207031 23.449219 " fill-opacity="1" fill-rule="nonzero"/></g><g clip-path="url(#a97cab40af)"><path fill="#000000" d="M 17.652344 23.675781 L 1.847656 23.675781 C 1.835938 23.675781 1.824219 23.667969 1.824219 23.652344 C 1.824219 23.640625 1.835938 23.632812 1.847656 23.632812 L 17.652344 23.632812 C 17.664062 23.632812 17.671875 23.640625 17.671875 23.652344 C 17.671875 23.667969 17.664062 23.675781 17.652344 23.675781 " fill-opacity="1" fill-rule="nonzero"/></g><path fill="#000000" d="M 12.398438 13.410156 L 9.886719 13.410156 C 9.886719 13.277344 9.992188 13.171875 10.125 13.171875 L 12.636719 13.171875 C 12.636719 13.304688 12.53125 13.410156 12.398438 13.410156 " fill-opacity="1" fill-rule="nonzero"/><path fill="#000000" d="M 12.355469 13.269531 L 13.507812 10.769531 C 13.625 10.824219 13.679688 10.96875 13.625 11.085938 L 12.617188 13.269531 L 12.355469 13.269531 " fill-opacity="1" fill-rule="nonzero"/><path fill="#ffffff" d="M 27.546875 15.65625 C 27.546875 19.242188 24.644531 22.144531 21.058594 22.144531 C 17.476562 22.144531 14.570312 19.242188 14.570312 15.65625 C 14.570312 12.074219 17.476562 9.167969 21.058594 9.167969 C 24.644531 9.167969 27.546875 12.074219 27.546875 15.65625 " fill-opacity="1" fill-rule="nonzero"/><path fill="#000000" d="M 21.058594 11.773438 C 21.046875 11.773438 21.039062 11.761719 21.039062 11.75 L 21.039062 10.457031 C 21.039062 10.445312 21.046875 10.4375 21.058594 10.4375 C 21.070312 10.4375 21.082031 10.445312 21.082031 10.457031 L 21.082031 11.75 C 21.082031 11.761719 21.070312 11.773438 21.058594 11.773438 " fill-opacity="1" fill-rule="nonzero"/><path fill="#000000" d="M 21.058594 20.878906 C 21.046875 20.878906 21.039062 20.871094 21.039062 20.859375 L 21.039062 19.566406 C 21.039062 19.550781 21.046875 19.542969 21.058594 19.542969 C 21.070312 19.542969 21.082031 19.550781 21.082031 19.566406 L 21.082031 20.859375 C 21.082031 20.871094 21.070312 20.878906 21.058594 20.878906 " fill-opacity="1" fill-rule="nonzero"/><path fill="#000000" d="M 17.152344 15.679688 L 15.859375 15.679688 C 15.847656 15.679688 15.835938 15.671875 15.835938 15.65625 C 15.835938 15.644531 15.847656 15.636719 15.859375 15.636719 L 17.152344 15.636719 C 17.164062 15.636719 17.175781 15.644531 17.175781 15.65625 C 17.175781 15.671875 17.164062 15.679688 17.152344 15.679688 " fill-opacity="1" fill-rule="nonzero"/><path fill="#000000" d="M 26.257812 15.679688 L 24.964844 15.679688 C 24.953125 15.679688 24.945312 15.671875 24.945312 15.65625 C 24.945312 15.644531 24.953125 15.636719 24.964844 15.636719 L 26.257812 15.636719 C 26.269531 15.636719 26.28125 15.644531 26.28125 15.65625 C 26.28125 15.671875 26.269531 15.679688 26.257812 15.679688 " fill-opacity="1" fill-rule="nonzero"/><path fill="#000000" d="M 20 18.078125 C 20 18.078125 19.996094 18.074219 19.992188 18.074219 C 19.980469 18.070312 19.976562 18.058594 19.980469 18.046875 L 21.039062 15.648438 C 21.039062 15.648438 21.039062 15.644531 21.042969 15.644531 L 24.007812 12.0625 C 24.015625 12.054688 24.03125 12.050781 24.039062 12.058594 C 24.050781 12.066406 24.050781 12.082031 24.042969 12.089844 L 21.078125 15.667969 L 20.019531 18.0625 C 20.019531 18.070312 20.007812 18.078125 20 18.078125 " fill-opacity="1" fill-rule="nonzero"/><path fill="#2cb2f1" d="M 22.890625 16.390625 L 19.230469 16.390625 C 18.824219 16.390625 18.496094 16.0625 18.496094 15.65625 C 18.496094 15.253906 18.824219 14.925781 19.230469 14.925781 L 22.890625 14.925781 C 23.292969 14.925781 23.621094 15.253906 23.621094 15.65625 C 23.621094 16.0625 23.292969 16.390625 22.890625 16.390625 " fill-opacity="1" fill-rule="nonzero"/><path fill="#ffffff" d="M 20.371094 16.09375 L 19.78125 16.09375 L 19.78125 16.035156 L 20.105469 15.667969 C 20.160156 15.605469 20.195312 15.554688 20.21875 15.515625 C 20.238281 15.476562 20.246094 15.4375 20.246094 15.398438 C 20.246094 15.339844 20.230469 15.292969 20.195312 15.257812 C 20.160156 15.222656 20.113281 15.207031 20.050781 15.207031 C 19.988281 15.207031 19.9375 15.226562 19.898438 15.265625 C 19.859375 15.308594 19.839844 15.359375 19.839844 15.425781 L 19.761719 15.425781 C 19.761719 15.371094 19.773438 15.324219 19.796875 15.28125 C 19.820312 15.234375 19.855469 15.203125 19.902344 15.175781 C 19.945312 15.152344 19.996094 15.140625 20.050781 15.140625 C 20.136719 15.140625 20.203125 15.164062 20.253906 15.207031 C 20.300781 15.253906 20.324219 15.316406 20.324219 15.394531 C 20.324219 15.4375 20.3125 15.484375 20.285156 15.539062 C 20.257812 15.589844 20.210938 15.65625 20.140625 15.734375 L 19.878906 16.027344 L 20.371094 16.027344 L 20.371094 16.09375 " fill-opacity="1" fill-rule="nonzero"/><path fill="#ffffff" d="M 20.566406 15.792969 L 20.914062 15.792969 L 20.914062 15.253906 L 20.878906 15.3125 Z M 20.992188 15.792969 L 21.140625 15.792969 L 21.140625 15.855469 L 20.992188 15.855469 L 20.992188 16.09375 L 20.914062 16.09375 L 20.914062 15.855469 L 20.472656 15.855469 L 20.472656 15.8125 L 20.90625 15.152344 L 20.992188 15.152344 L 20.992188 15.792969 " fill-opacity="1" fill-rule="nonzero"/><path fill="#ffffff" d="M 21.25 16.175781 L 21.179688 16.175781 L 21.574219 15.152344 L 21.644531 15.152344 L 21.25 16.175781 " fill-opacity="1" fill-rule="nonzero"/><path fill="#ffffff" d="M 22.355469 15.199219 L 21.953125 16.09375 L 21.875 16.09375 L 22.273438 15.21875 L 21.738281 15.21875 L 21.738281 15.152344 L 22.355469 15.152344 L 22.355469 15.199219 " fill-opacity="1" fill-rule="nonzero"/><path fill="#000000" d="M 21.058594 22.167969 C 19.320312 22.167969 17.683594 21.492188 16.457031 20.261719 C 15.226562 19.03125 14.550781 17.398438 14.550781 15.65625 C 14.550781 13.917969 15.226562 12.285156 16.457031 11.054688 C 17.683594 9.824219 19.320312 9.148438 21.058594 9.148438 C 22.796875 9.148438 24.433594 9.824219 25.664062 11.054688 C 26.890625 12.285156 27.570312 13.917969 27.570312 15.65625 C 27.570312 15.671875 27.558594 15.679688 27.546875 15.679688 C 27.535156 15.679688 27.527344 15.671875 27.527344 15.65625 C 27.527344 12.09375 24.625 9.191406 21.058594 9.191406 C 17.492188 9.191406 14.59375 12.09375 14.59375 15.65625 C 14.59375 19.222656 17.492188 22.125 21.058594 22.125 C 21.070312 22.125 21.082031 22.132812 21.082031 22.144531 C 21.082031 22.160156 21.070312 22.167969 21.058594 22.167969 " fill-opacity="1" fill-rule="nonzero"/><g clip-path="url(#7bc8d44f90)"><path fill="#e2eaff" d="M 28.960938 18.609375 L 27.417969 18.609375 C 27.257812 18.609375 27.128906 18.480469 27.128906 18.324219 L 27.128906 16.78125 C 27.128906 16.625 27.257812 16.496094 27.417969 16.496094 L 28.960938 16.496094 C 29.117188 16.496094 29.246094 16.625 29.246094 16.78125 L 29.246094 18.324219 C 29.246094 18.480469 29.117188 18.609375 28.960938 18.609375 " fill-opacity="1" fill-rule="nonzero"/></g><path fill="#ffffff" d="M 28.644531 17.488281 C 28.628906 17.488281 28.613281 17.472656 28.613281 17.453125 L 28.613281 17.007812 L 27.949219 17.007812 L 27.761719 17.195312 L 27.761719 17.453125 C 27.761719 17.472656 27.746094 17.488281 27.730469 17.488281 C 27.710938 17.488281 27.695312 17.472656 27.695312 17.453125 L 27.695312 17.183594 C 27.695312 17.171875 27.699219 17.164062 27.707031 17.160156 L 27.914062 16.953125 C 27.917969 16.945312 27.925781 16.941406 27.9375 16.941406 L 28.644531 16.941406 C 28.664062 16.941406 28.679688 16.957031 28.679688 16.976562 L 28.679688 17.453125 C 28.679688 17.472656 28.664062 17.488281 28.644531 17.488281 " fill-opacity="1" fill-rule="nonzero"/><path fill="#ffffff" d="M 27.9375 17.214844 L 27.730469 17.214844 C 27.710938 17.214844 27.695312 17.199219 27.695312 17.183594 C 27.695312 17.164062 27.710938 17.148438 27.730469 17.148438 L 27.902344 17.148438 L 27.902344 16.976562 C 27.902344 16.957031 27.917969 16.941406 27.9375 16.941406 C 27.953125 16.941406 27.96875 16.957031 27.96875 16.976562 L 27.96875 17.183594 C 27.96875 17.199219 27.953125 17.214844 27.9375 17.214844 " fill-opacity="1" fill-rule="nonzero"/><path fill="#ffffff" d="M 27.679688 17.488281 L 27.679688 18.132812 C 27.679688 18.15625 27.699219 18.175781 27.722656 18.175781 L 28.695312 18.175781 L 28.695312 17.488281 L 28.617188 17.488281 C 28.597656 17.488281 28.582031 17.472656 28.582031 17.453125 L 28.582031 17.410156 C 28.582031 17.40625 28.578125 17.402344 28.574219 17.402344 L 28.335938 17.402344 C 28.332031 17.402344 28.328125 17.40625 28.328125 17.410156 L 28.328125 17.453125 C 28.328125 17.472656 28.316406 17.488281 28.296875 17.488281 Z M 28.726562 18.242188 L 27.722656 18.242188 C 27.664062 18.242188 27.613281 18.191406 27.613281 18.132812 L 27.613281 17.453125 C 27.613281 17.4375 27.628906 17.421875 27.648438 17.421875 L 28.261719 17.421875 L 28.261719 17.410156 C 28.261719 17.371094 28.296875 17.335938 28.335938 17.335938 L 28.574219 17.335938 C 28.617188 17.335938 28.648438 17.371094 28.648438 17.410156 L 28.648438 17.421875 L 28.726562 17.421875 C 28.746094 17.421875 28.761719 17.4375 28.761719 17.453125 L 28.761719 18.207031 C 28.761719 18.226562 28.746094 18.242188 28.726562 18.242188 " fill-opacity="1" fill-rule="nonzero"/><g clip-path="url(#6b566b57fe)"><path fill="#e2eaff" d="M 26.460938 23.667969 L 24.917969 23.667969 C 24.757812 23.667969 24.628906 23.539062 24.628906 23.382812 L 24.628906 21.839844 C 24.628906 21.683594 24.757812 21.554688 24.917969 21.554688 L 26.460938 21.554688 C 26.617188 21.554688 26.746094 21.683594 26.746094 21.839844 L 26.746094 23.382812 C 26.746094 23.539062 26.617188 23.667969 26.460938 23.667969 " fill-opacity="1" fill-rule="nonzero"/></g><path fill="#ffffff" d="M 26.023438 22.648438 C 26.023438 22.554688 26.097656 22.480469 26.191406 22.484375 C 26.285156 22.484375 26.359375 22.558594 26.359375 22.652344 C 26.355469 22.746094 26.28125 22.820312 26.1875 22.816406 C 26.09375 22.816406 26.019531 22.742188 26.023438 22.648438 " fill-opacity="1" fill-rule="nonzero"/><g clip-path="url(#02250e2351)"><path fill="#ffffff" d="M 25.042969 23.070312 C 25.046875 22.976562 25.121094 22.902344 25.214844 22.902344 C 25.308594 22.90625 25.382812 22.980469 25.378906 23.074219 C 25.378906 23.164062 25.304688 23.238281 25.210938 23.238281 C 25.117188 23.238281 25.042969 23.160156 25.042969 23.070312 " fill-opacity="1" fill-rule="nonzero"/></g><g clip-path="url(#e10247ab4c)"><path fill="#ffffff" d="M 25.367188 23.039062 C 25.355469 23.039062 25.339844 23.03125 25.335938 23.019531 C 25.328125 23 25.335938 22.980469 25.351562 22.976562 L 26.015625 22.6875 C 26.03125 22.683594 26.050781 22.691406 26.058594 22.707031 C 26.066406 22.722656 26.058594 22.742188 26.042969 22.75 L 25.378906 23.035156 C 25.375 23.039062 25.371094 23.039062 25.367188 23.039062 " fill-opacity="1" fill-rule="nonzero"/></g><path fill="#ffffff" d="M 25.046875 22.222656 C 25.046875 22.316406 25.125 22.390625 25.214844 22.390625 C 25.308594 22.390625 25.382812 22.3125 25.382812 22.222656 C 25.382812 22.128906 25.308594 22.054688 25.214844 22.054688 C 25.125 22.054688 25.046875 22.128906 25.046875 22.222656 " fill-opacity="1" fill-rule="nonzero"/><path fill="#ffffff" d="M 26.027344 22.613281 C 26.023438 22.613281 26.019531 22.613281 26.015625 22.613281 L 25.355469 22.320312 C 25.339844 22.3125 25.332031 22.292969 25.339844 22.277344 C 25.347656 22.261719 25.367188 22.253906 25.382812 22.257812 L 26.042969 22.550781 C 26.058594 22.558594 26.066406 22.578125 26.058594 22.59375 C 26.054688 22.605469 26.042969 22.613281 26.027344 22.613281 " fill-opacity="1" fill-rule="nonzero"/><g clip-path="url(#b3b497f7a8)"><path fill="#e2eaff" d="M 29.019531 21.164062 L 27.472656 21.164062 C 27.316406 21.164062 27.1875 21.035156 27.1875 20.878906 L 27.1875 19.335938 C 27.1875 19.179688 27.316406 19.050781 27.472656 19.050781 L 29.019531 19.050781 C 29.175781 19.050781 29.304688 19.179688 29.304688 19.335938 L 29.304688 20.878906 C 29.304688 21.035156 29.175781 21.164062 29.019531 21.164062 " fill-opacity="1" fill-rule="nonzero"/></g><path fill="#ffffff" d="M 27.9375 20.449219 L 27.914062 20.496094 C 27.875 20.574219 27.902344 20.671875 27.980469 20.714844 C 28.054688 20.757812 28.152344 20.734375 28.199219 20.664062 L 28.230469 20.617188 Z M 28.0625 20.800781 C 28.023438 20.800781 27.980469 20.792969 27.945312 20.769531 C 27.839844 20.710938 27.800781 20.578125 27.855469 20.46875 L 27.894531 20.386719 C 27.898438 20.378906 27.90625 20.375 27.914062 20.371094 C 27.921875 20.367188 27.933594 20.367188 27.941406 20.375 L 28.292969 20.578125 C 28.300781 20.582031 28.308594 20.589844 28.308594 20.601562 C 28.3125 20.609375 28.308594 20.617188 28.304688 20.625 L 28.253906 20.699219 C 28.210938 20.765625 28.136719 20.800781 28.0625 20.800781 " fill-opacity="1" fill-rule="nonzero"/><path fill="#ffffff" d="M 28.453125 19.578125 L 28.734375 19.742188 C 28.761719 19.667969 28.730469 19.582031 28.660156 19.542969 C 28.59375 19.5 28.503906 19.519531 28.453125 19.578125 Z M 28.746094 19.820312 C 28.742188 19.820312 28.734375 19.816406 28.730469 19.816406 L 28.390625 19.617188 C 28.375 19.609375 28.371094 19.59375 28.378906 19.578125 L 28.382812 19.5625 C 28.386719 19.558594 28.386719 19.558594 28.386719 19.554688 C 28.453125 19.453125 28.589844 19.421875 28.695312 19.484375 C 28.800781 19.546875 28.839844 19.679688 28.785156 19.789062 C 28.785156 19.789062 28.785156 19.792969 28.78125 19.792969 L 28.773438 19.804688 C 28.765625 19.816406 28.757812 19.820312 28.746094 19.820312 " fill-opacity="1" fill-rule="nonzero"/><path fill="#ffffff" d="M 27.644531 20.203125 L 28.589844 20.75 C 28.605469 20.710938 28.605469 20.664062 28.597656 20.621094 C 28.558594 20.480469 28.570312 20.34375 28.628906 20.226562 L 28.722656 20.019531 C 28.753906 19.957031 28.753906 19.878906 28.71875 19.808594 L 28.398438 19.625 C 28.320312 19.628906 28.253906 19.664062 28.214844 19.722656 L 28.085938 19.910156 C 28.007812 20.015625 27.894531 20.09375 27.757812 20.132812 C 27.710938 20.144531 27.671875 20.167969 27.644531 20.203125 Z M 28.605469 20.832031 C 28.597656 20.832031 28.59375 20.828125 28.585938 20.828125 L 27.582031 20.242188 C 27.574219 20.234375 27.566406 20.230469 27.566406 20.21875 C 27.5625 20.210938 27.5625 20.203125 27.566406 20.195312 C 27.605469 20.132812 27.664062 20.085938 27.738281 20.066406 C 27.863281 20.035156 27.964844 19.964844 28.03125 19.871094 L 28.160156 19.6875 C 28.214844 19.609375 28.304688 19.5625 28.40625 19.554688 C 28.414062 19.554688 28.417969 19.558594 28.425781 19.5625 L 28.761719 19.757812 C 28.769531 19.761719 28.773438 19.765625 28.777344 19.769531 C 28.824219 19.863281 28.824219 19.964844 28.785156 20.050781 L 28.6875 20.253906 C 28.636719 20.359375 28.628906 20.476562 28.660156 20.601562 C 28.679688 20.675781 28.667969 20.753906 28.632812 20.8125 C 28.625 20.824219 28.617188 20.832031 28.605469 20.832031 " fill-opacity="1" fill-rule="nonzero"/><path fill="#e2eaff" d="M 26.460938 21.164062 L 24.917969 21.164062 C 24.757812 21.164062 24.628906 21.035156 24.628906 20.878906 L 24.628906 19.335938 C 24.628906 19.179688 24.757812 19.050781 24.917969 19.050781 L 26.460938 19.050781 C 26.617188 19.050781 26.746094 19.179688 26.746094 19.335938 L 26.746094 20.878906 C 26.746094 21.035156 26.617188 21.164062 26.460938 21.164062 " fill-opacity="1" fill-rule="nonzero"/><path fill="#ffffff" d="M 25.6875 19.929688 C 25.664062 19.929688 25.640625 19.933594 25.617188 19.941406 C 25.574219 19.960938 25.539062 19.996094 25.523438 20.039062 C 25.503906 20.082031 25.503906 20.132812 25.523438 20.175781 C 25.558594 20.269531 25.664062 20.3125 25.757812 20.273438 C 25.800781 20.253906 25.835938 20.21875 25.855469 20.175781 C 25.871094 20.132812 25.871094 20.082031 25.855469 20.039062 C 25.824219 19.96875 25.757812 19.929688 25.6875 19.929688 Z M 25.6875 20.351562 C 25.59375 20.351562 25.5 20.296875 25.460938 20.203125 C 25.4375 20.140625 25.4375 20.074219 25.460938 20.015625 C 25.484375 19.953125 25.53125 19.90625 25.59375 19.878906 C 25.71875 19.828125 25.863281 19.886719 25.914062 20.011719 C 25.941406 20.074219 25.941406 20.140625 25.914062 20.199219 C 25.890625 20.261719 25.84375 20.308594 25.78125 20.332031 C 25.75 20.347656 25.71875 20.351562 25.6875 20.351562 Z M 25.3125 20.355469 C 25.320312 20.355469 25.332031 20.359375 25.335938 20.367188 C 25.363281 20.402344 25.394531 20.433594 25.429688 20.457031 C 25.441406 20.46875 25.445312 20.488281 25.4375 20.5 C 25.4375 20.503906 25.433594 20.507812 25.433594 20.511719 C 25.425781 20.53125 25.425781 20.554688 25.433594 20.574219 C 25.441406 20.59375 25.457031 20.609375 25.476562 20.617188 C 25.519531 20.632812 25.566406 20.613281 25.585938 20.574219 C 25.585938 20.570312 25.585938 20.566406 25.585938 20.5625 C 25.59375 20.546875 25.609375 20.535156 25.625 20.539062 C 25.667969 20.546875 25.710938 20.546875 25.753906 20.539062 C 25.769531 20.535156 25.785156 20.546875 25.789062 20.5625 C 25.792969 20.566406 25.792969 20.570312 25.792969 20.570312 C 25.8125 20.613281 25.859375 20.632812 25.902344 20.617188 C 25.921875 20.605469 25.9375 20.589844 25.945312 20.570312 C 25.953125 20.550781 25.953125 20.53125 25.945312 20.507812 C 25.941406 20.507812 25.941406 20.503906 25.941406 20.5 C 25.929688 20.484375 25.933594 20.46875 25.949219 20.457031 C 25.984375 20.433594 26.015625 20.402344 26.039062 20.367188 C 26.050781 20.351562 26.070312 20.347656 26.082031 20.355469 C 26.085938 20.359375 26.089844 20.359375 26.09375 20.359375 C 26.132812 20.378906 26.179688 20.359375 26.199219 20.316406 C 26.207031 20.296875 26.207031 20.273438 26.199219 20.253906 C 26.191406 20.234375 26.175781 20.21875 26.152344 20.210938 C 26.152344 20.210938 26.148438 20.207031 26.144531 20.207031 C 26.128906 20.203125 26.117188 20.1875 26.121094 20.171875 C 26.125 20.128906 26.125 20.085938 26.121094 20.042969 C 26.117188 20.023438 26.128906 20.007812 26.144531 20.003906 C 26.148438 20.003906 26.148438 20.003906 26.152344 20 C 26.171875 19.992188 26.1875 19.976562 26.195312 19.957031 C 26.207031 19.9375 26.207031 19.914062 26.195312 19.894531 C 26.179688 19.855469 26.132812 19.835938 26.089844 19.851562 C 26.085938 19.851562 26.085938 19.855469 26.082031 19.855469 C 26.066406 19.863281 26.046875 19.859375 26.039062 19.847656 C 26.011719 19.8125 25.980469 19.78125 25.945312 19.753906 C 25.933594 19.746094 25.929688 19.726562 25.9375 19.714844 C 25.9375 19.710938 25.941406 19.707031 25.941406 19.703125 C 25.949219 19.683594 25.949219 19.660156 25.941406 19.640625 C 25.933594 19.621094 25.917969 19.605469 25.898438 19.597656 C 25.855469 19.582031 25.808594 19.601562 25.792969 19.640625 C 25.789062 19.644531 25.789062 19.648438 25.789062 19.652344 C 25.785156 19.667969 25.769531 19.679688 25.75 19.675781 C 25.707031 19.667969 25.664062 19.667969 25.621094 19.675781 C 25.605469 19.679688 25.589844 19.667969 25.585938 19.652344 C 25.585938 19.648438 25.582031 19.644531 25.582031 19.644531 C 25.566406 19.601562 25.515625 19.582031 25.476562 19.597656 C 25.457031 19.605469 25.441406 19.621094 25.433594 19.644531 C 25.421875 19.664062 25.421875 19.683594 25.433594 19.707031 C 25.433594 19.707031 25.433594 19.710938 25.4375 19.714844 C 25.445312 19.730469 25.441406 19.746094 25.425781 19.757812 C 25.390625 19.78125 25.363281 19.8125 25.335938 19.847656 C 25.324219 19.863281 25.308594 19.867188 25.292969 19.859375 C 25.289062 19.855469 25.289062 19.855469 25.285156 19.855469 C 25.242188 19.835938 25.195312 19.855469 25.179688 19.898438 C 25.167969 19.917969 25.167969 19.941406 25.179688 19.960938 C 25.1875 19.980469 25.203125 19.996094 25.222656 20.003906 C 25.226562 20.003906 25.230469 20.007812 25.230469 20.007812 C 25.246094 20.011719 25.257812 20.027344 25.253906 20.042969 C 25.25 20.085938 25.25 20.128906 25.257812 20.171875 C 25.257812 20.191406 25.25 20.207031 25.230469 20.210938 C 25.230469 20.210938 25.226562 20.210938 25.222656 20.214844 C 25.203125 20.222656 25.1875 20.238281 25.179688 20.257812 C 25.171875 20.277344 25.171875 20.300781 25.179688 20.320312 C 25.195312 20.359375 25.246094 20.378906 25.285156 20.363281 C 25.289062 20.363281 25.292969 20.359375 25.292969 20.359375 C 25.300781 20.355469 25.304688 20.355469 25.3125 20.355469 Z M 25.507812 20.6875 C 25.492188 20.6875 25.472656 20.683594 25.453125 20.679688 C 25.417969 20.664062 25.386719 20.632812 25.375 20.597656 C 25.359375 20.566406 25.359375 20.53125 25.367188 20.496094 C 25.34375 20.476562 25.320312 20.453125 25.300781 20.429688 C 25.226562 20.453125 25.148438 20.417969 25.117188 20.34375 C 25.101562 20.308594 25.101562 20.269531 25.117188 20.230469 C 25.132812 20.199219 25.15625 20.171875 25.1875 20.15625 C 25.183594 20.125 25.183594 20.09375 25.1875 20.058594 C 25.15625 20.042969 25.128906 20.019531 25.117188 19.984375 C 25.101562 19.949219 25.101562 19.910156 25.117188 19.871094 C 25.144531 19.800781 25.226562 19.765625 25.300781 19.789062 C 25.320312 19.761719 25.34375 19.742188 25.367188 19.71875 C 25.355469 19.6875 25.355469 19.652344 25.371094 19.617188 C 25.386719 19.582031 25.414062 19.554688 25.449219 19.539062 C 25.523438 19.507812 25.605469 19.539062 25.636719 19.605469 C 25.671875 19.605469 25.703125 19.605469 25.734375 19.605469 C 25.769531 19.539062 25.851562 19.507812 25.921875 19.535156 C 25.960938 19.550781 25.988281 19.578125 26.003906 19.617188 C 26.015625 19.648438 26.019531 19.683594 26.007812 19.71875 C 26.03125 19.738281 26.054688 19.761719 26.074219 19.785156 C 26.148438 19.761719 26.226562 19.796875 26.257812 19.871094 C 26.273438 19.90625 26.273438 19.945312 26.257812 19.984375 C 26.246094 20.015625 26.21875 20.042969 26.1875 20.058594 C 26.191406 20.089844 26.191406 20.121094 26.1875 20.152344 C 26.21875 20.171875 26.246094 20.195312 26.257812 20.230469 C 26.273438 20.265625 26.273438 20.304688 26.257812 20.34375 C 26.230469 20.414062 26.148438 20.449219 26.078125 20.425781 C 26.058594 20.449219 26.035156 20.472656 26.007812 20.496094 C 26.019531 20.527344 26.019531 20.5625 26.003906 20.597656 C 25.992188 20.632812 25.960938 20.660156 25.925781 20.675781 C 25.855469 20.707031 25.773438 20.675781 25.738281 20.609375 C 25.707031 20.609375 25.671875 20.609375 25.640625 20.609375 C 25.617188 20.660156 25.5625 20.6875 25.507812 20.6875 " fill-opacity="1" fill-rule="nonzero"/><g clip-path="url(#32fe23e365)"><path fill="#e2eaff" d="M 23.929688 23.667969 L 22.386719 23.667969 C 22.230469 23.667969 22.101562 23.539062 22.101562 23.382812 L 22.101562 21.839844 C 22.101562 21.683594 22.230469 21.554688 22.386719 21.554688 L 23.929688 21.554688 C 24.089844 21.554688 24.214844 21.683594 24.214844 21.839844 L 24.214844 23.382812 C 24.214844 23.539062 24.089844 23.667969 23.929688 23.667969 " fill-opacity="1" fill-rule="nonzero"/></g><path fill="#ffffff" d="M 23.28125 22.128906 C 23.066406 22.128906 22.894531 22.304688 22.894531 22.515625 C 22.894531 22.730469 23.066406 22.902344 23.28125 22.902344 C 23.496094 22.902344 23.667969 22.730469 23.667969 22.515625 C 23.667969 22.304688 23.496094 22.128906 23.28125 22.128906 Z M 23.28125 22.96875 C 23.03125 22.96875 22.828125 22.765625 22.828125 22.515625 C 22.828125 22.265625 23.03125 22.0625 23.28125 22.0625 C 23.53125 22.0625 23.734375 22.265625 23.734375 22.515625 C 23.734375 22.765625 23.53125 22.96875 23.28125 22.96875 " fill-opacity="1" fill-rule="nonzero"/><g clip-path="url(#f72b5dd28c)"><path fill="#ffffff" d="M 22.59375 23.226562 C 22.582031 23.226562 22.574219 23.226562 22.570312 23.21875 C 22.554688 23.207031 22.554688 23.183594 22.570312 23.171875 L 22.957031 22.785156 C 22.96875 22.773438 22.988281 22.773438 23.003906 22.785156 C 23.015625 22.796875 23.015625 22.820312 23.003906 22.832031 L 22.617188 23.21875 C 22.609375 23.226562 22.601562 23.226562 22.59375 23.226562 " fill-opacity="1" fill-rule="nonzero"/></g><g clip-path="url(#09d3f8a58d)"><path fill="#000000" d="M 7.386719 7.234375 C 7.375 7.234375 7.367188 7.226562 7.367188 7.214844 L 7.367188 5.699219 C 7.367188 5.683594 7.375 5.675781 7.386719 5.675781 L 13.082031 5.675781 C 13.09375 5.675781 13.101562 5.683594 13.101562 5.699219 C 13.101562 5.710938 13.09375 5.71875 13.082031 5.71875 L 7.410156 5.71875 L 7.410156 7.214844 C 7.410156 7.226562 7.402344 7.234375 7.386719 7.234375 " fill-opacity="1" fill-rule="nonzero"/></g><g clip-path="url(#d76fa5bf62)"><path fill="#e2eaff" d="M 14.039062 5.699219 C 14.039062 5.890625 13.882812 6.046875 13.691406 6.046875 C 13.5 6.046875 13.34375 5.890625 13.34375 5.699219 C 13.34375 5.503906 13.5 5.347656 13.691406 5.347656 C 13.882812 5.347656 14.039062 5.503906 14.039062 5.699219 " fill-opacity="1" fill-rule="nonzero"/></g><g clip-path="url(#799dd1a98f)"><path fill="#e2eaff" d="M 15.058594 5.699219 C 15.058594 5.890625 14.902344 6.046875 14.707031 6.046875 C 14.515625 6.046875 14.359375 5.890625 14.359375 5.699219 C 14.359375 5.503906 14.515625 5.347656 14.707031 5.347656 C 14.902344 5.347656 15.058594 5.503906 15.058594 5.699219 " fill-opacity="1" fill-rule="nonzero"/></g><g clip-path="url(#2639ce1c8d)"><path fill="#e2eaff" d="M 16.074219 5.699219 C 16.074219 5.890625 15.917969 6.046875 15.726562 6.046875 C 15.535156 6.046875 15.378906 5.890625 15.378906 5.699219 C 15.378906 5.503906 15.535156 5.347656 15.726562 5.347656 C 15.917969 5.347656 16.074219 5.503906 16.074219 5.699219 " fill-opacity="1" fill-rule="nonzero"/></g><path fill="#000000" d="M 25.140625 7.6875 L 15.726562 7.6875 C 15.714844 7.6875 15.703125 7.679688 15.703125 7.664062 L 15.703125 6.457031 C 15.703125 6.445312 15.714844 6.433594 15.726562 6.433594 C 15.738281 6.433594 15.75 6.445312 15.75 6.457031 L 15.75 7.644531 L 25.140625 7.644531 C 25.152344 7.644531 25.160156 7.652344 25.160156 7.664062 C 25.160156 7.679688 25.152344 7.6875 25.140625 7.6875 " fill-opacity="1" fill-rule="nonzero"/><g clip-path="url(#ffd562d0d3)"><path fill="#ffffff" d="M 26.933594 8.03125 L 26.816406 8.082031 C 26.660156 8.144531 26.480469 8.070312 26.417969 7.914062 L 26.09375 7.117188 C 26.027344 6.960938 26.105469 6.78125 26.261719 6.714844 L 26.378906 6.667969 C 26.527344 6.605469 26.601562 6.433594 26.539062 6.285156 L 26.441406 6.046875 C 26.382812 5.898438 26.21875 5.828125 26.070312 5.886719 C 26.070312 5.886719 26.070312 5.886719 26.066406 5.886719 C 25.539062 6.105469 25.335938 6.835938 25.707031 7.742188 C 26.074219 8.648438 26.726562 9.023438 27.253906 8.804688 C 27.253906 8.804688 27.257812 8.804688 27.257812 8.804688 C 27.402344 8.746094 27.46875 8.574219 27.410156 8.429688 L 27.3125 8.191406 C 27.253906 8.042969 27.082031 7.96875 26.933594 8.03125 " fill-opacity="1" fill-rule="nonzero"/><path fill="#000000" d="M 26.175781 5.886719 C 26.144531 5.886719 26.109375 5.894531 26.078125 5.90625 C 25.527344 6.136719 25.382812 6.886719 25.726562 7.734375 C 25.9375 8.253906 26.253906 8.621094 26.613281 8.773438 C 26.828125 8.863281 27.046875 8.867188 27.246094 8.785156 L 27.25 8.785156 C 27.382812 8.730469 27.445312 8.574219 27.390625 8.4375 L 27.292969 8.199219 C 27.265625 8.132812 27.214844 8.082031 27.148438 8.050781 C 27.082031 8.023438 27.007812 8.023438 26.941406 8.050781 L 26.824219 8.101562 C 26.742188 8.132812 26.652344 8.132812 26.574219 8.101562 C 26.492188 8.066406 26.429688 8.003906 26.394531 7.921875 L 26.070312 7.125 C 26.003906 6.957031 26.085938 6.765625 26.253906 6.695312 L 26.371094 6.644531 C 26.507812 6.589844 26.574219 6.429688 26.519531 6.292969 L 26.421875 6.054688 C 26.394531 5.988281 26.34375 5.9375 26.28125 5.910156 C 26.246094 5.894531 26.210938 5.886719 26.175781 5.886719 Z M 26.953125 8.886719 C 26.835938 8.886719 26.714844 8.863281 26.597656 8.8125 C 26.226562 8.660156 25.902344 8.28125 25.6875 7.75 C 25.332031 6.878906 25.484375 6.105469 26.058594 5.867188 L 26.0625 5.867188 C 26.140625 5.835938 26.222656 5.835938 26.296875 5.867188 C 26.375 5.902344 26.433594 5.960938 26.464844 6.039062 L 26.558594 6.277344 C 26.625 6.4375 26.546875 6.621094 26.386719 6.6875 L 26.269531 6.734375 C 26.125 6.796875 26.054688 6.960938 26.113281 7.109375 L 26.4375 7.90625 C 26.464844 7.976562 26.519531 8.03125 26.589844 8.058594 C 26.660156 8.089844 26.738281 8.089844 26.808594 8.058594 L 26.925781 8.011719 C 27.003906 7.980469 27.089844 7.980469 27.164062 8.011719 C 27.242188 8.042969 27.304688 8.105469 27.335938 8.183594 L 27.429688 8.421875 C 27.496094 8.578125 27.421875 8.761719 27.265625 8.824219 L 27.261719 8.828125 C 27.164062 8.867188 27.058594 8.886719 26.953125 8.886719 " fill-opacity="1" fill-rule="nonzero"/></g><path fill="#ffffff" d="M 4.917969 6.441406 C 5.089844 6.523438 5.191406 6.695312 5.199219 6.875 L 4.8125 6.726562 L 4.917969 6.441406 " fill-opacity="1" fill-rule="nonzero"/><path fill="#000000" d="M 4.839844 6.710938 L 5.175781 6.84375 C 5.15625 6.6875 5.066406 6.546875 4.929688 6.472656 Z M 5.199219 6.898438 C 5.199219 6.898438 5.195312 6.898438 5.191406 6.898438 L 4.804688 6.746094 C 4.792969 6.742188 4.789062 6.730469 4.792969 6.71875 L 4.898438 6.433594 C 4.898438 6.429688 4.90625 6.425781 4.910156 6.421875 C 4.917969 6.417969 4.921875 6.417969 4.929688 6.421875 C 5.101562 6.507812 5.214844 6.679688 5.222656 6.875 C 5.222656 6.882812 5.21875 6.890625 5.214844 6.894531 C 5.210938 6.898438 5.203125 6.898438 5.199219 6.898438 " fill-opacity="1" fill-rule="nonzero"/><path fill="#ffffff" d="M 4.816406 6.722656 L 5.199219 6.875 C 5.074219 6.992188 4.894531 7.042969 4.722656 6.996094 L 4.679688 6.980469 L 4.816406 6.722656 " fill-opacity="1" fill-rule="nonzero"/><path fill="#000000" d="M 4.710938 6.96875 L 4.726562 6.972656 C 4.875 7.015625 5.039062 6.980469 5.160156 6.882812 L 4.828125 6.75 Z M 4.851562 7.035156 C 4.808594 7.035156 4.761719 7.027344 4.714844 7.015625 L 4.671875 7.003906 C 4.664062 7 4.660156 6.996094 4.65625 6.992188 C 4.65625 6.984375 4.65625 6.976562 4.660156 6.972656 L 4.796875 6.714844 C 4.804688 6.703125 4.816406 6.699219 4.828125 6.703125 L 5.207031 6.855469 C 5.214844 6.859375 5.21875 6.863281 5.222656 6.871094 C 5.222656 6.878906 5.222656 6.886719 5.214844 6.890625 C 5.117188 6.984375 4.984375 7.035156 4.851562 7.035156 " fill-opacity="1" fill-rule="nonzero"/><g clip-path="url(#b0bd9f64f1)"><path fill="#ffffff" d="M 2.785156 7.082031 C 2.785156 7.082031 3.320312 6.878906 3.5625 6.324219 C 3.882812 5.585938 4.605469 5.691406 4.832031 6.089844 C 5.0625 6.5 4.878906 7.085938 4.128906 7.367188 C 3.375 7.652344 2.792969 7.226562 2.792969 7.226562 L 2.328125 7.625 L 2.429688 7.25 L 2.234375 6.941406 L 2.785156 7.082031 " fill-opacity="1" fill-rule="nonzero"/><path fill="#000000" d="M 2.28125 6.976562 L 2.445312 7.238281 C 2.449219 7.246094 2.449219 7.25 2.449219 7.257812 L 2.367188 7.5625 L 2.777344 7.207031 C 2.785156 7.203125 2.796875 7.199219 2.804688 7.207031 C 2.8125 7.210938 3.390625 7.625 4.121094 7.347656 C 4.496094 7.207031 4.757812 6.976562 4.859375 6.695312 C 4.929688 6.496094 4.914062 6.285156 4.8125 6.101562 C 4.703125 5.910156 4.472656 5.792969 4.242188 5.804688 C 3.960938 5.820312 3.722656 6.011719 3.582031 6.332031 C 3.339844 6.890625 2.796875 7.101562 2.792969 7.105469 C 2.789062 7.105469 2.78125 7.105469 2.777344 7.105469 Z M 2.328125 7.648438 C 2.324219 7.648438 2.320312 7.648438 2.316406 7.644531 C 2.308594 7.640625 2.304688 7.628906 2.308594 7.621094 L 2.40625 7.253906 L 2.214844 6.953125 C 2.210938 6.945312 2.210938 6.9375 2.214844 6.929688 C 2.222656 6.921875 2.230469 6.917969 2.238281 6.921875 L 2.78125 7.0625 C 2.84375 7.035156 3.320312 6.824219 3.542969 6.316406 C 3.6875 5.976562 3.941406 5.777344 4.238281 5.761719 C 4.492188 5.746094 4.730469 5.871094 4.847656 6.082031 C 4.957031 6.273438 4.976562 6.496094 4.898438 6.710938 C 4.792969 7.003906 4.523438 7.242188 4.136719 7.390625 C 3.449219 7.648438 2.890625 7.316406 2.792969 7.253906 L 2.34375 7.644531 C 2.339844 7.644531 2.335938 7.648438 2.328125 7.648438 " fill-opacity="1" fill-rule="nonzero"/></g><path fill="#000000" d="M 4.097656 7.863281 C 4.082031 7.863281 4.074219 7.855469 4.074219 7.84375 L 4.074219 7.386719 C 4.074219 7.375 4.082031 7.363281 4.097656 7.363281 C 4.109375 7.363281 4.117188 7.375 4.117188 7.386719 L 4.117188 7.84375 C 4.117188 7.855469 4.109375 7.863281 4.097656 7.863281 " fill-opacity="1" fill-rule="nonzero"/><path fill="#000000" d="M 3.742188 7.863281 C 3.730469 7.863281 3.722656 7.855469 3.722656 7.84375 L 3.722656 7.464844 C 3.722656 7.453125 3.730469 7.445312 3.742188 7.445312 C 3.753906 7.445312 3.765625 7.453125 3.765625 7.464844 L 3.765625 7.84375 C 3.765625 7.855469 3.753906 7.863281 3.742188 7.863281 " fill-opacity="1" fill-rule="nonzero"/><g clip-path="url(#359840b75b)"><path fill="#ffffff" d="M 4.019531 6.492188 C 4.019531 6.492188 3.535156 6.15625 2.710938 5.523438 C 2.699219 5.511719 2.695312 5.535156 2.695312 5.535156 C 2.695312 5.535156 2.601562 6.019531 3.078125 6.3125 C 3.078125 6.3125 2.847656 6.207031 2.554688 6.078125 C 2.554688 6.078125 2.511719 6.484375 2.960938 6.644531 C 2.960938 6.644531 2.8125 6.648438 2.625 6.644531 C 2.625 6.644531 2.960938 7.152344 3.742188 6.945312 L 4.019531 6.492188 " fill-opacity="1" fill-rule="nonzero"/></g><g clip-path="url(#ea194c0f6f)"><path fill="#000000" d="M 3.386719 7.015625 C 2.851562 7.015625 2.609375 6.660156 2.605469 6.65625 C 2.601562 6.648438 2.601562 6.640625 2.605469 6.632812 C 2.609375 6.625 2.617188 6.621094 2.625 6.621094 C 2.714844 6.625 2.796875 6.625 2.855469 6.625 C 2.496094 6.4375 2.53125 6.078125 2.53125 6.074219 C 2.53125 6.066406 2.535156 6.0625 2.542969 6.058594 C 2.546875 6.054688 2.554688 6.054688 2.5625 6.058594 C 2.695312 6.117188 2.820312 6.171875 2.914062 6.214844 C 2.601562 5.917969 2.671875 5.535156 2.671875 5.53125 C 2.675781 5.527344 2.679688 5.507812 2.695312 5.5 C 2.699219 5.496094 2.710938 5.496094 2.726562 5.503906 C 3.539062 6.132812 4.027344 6.46875 4.03125 6.472656 C 4.042969 6.480469 4.042969 6.496094 4.039062 6.503906 C 4.03125 6.515625 4.015625 6.515625 4.007812 6.511719 C 4 6.507812 3.519531 6.171875 2.714844 5.550781 C 2.703125 5.632812 2.671875 6.039062 3.089844 6.292969 C 3.101562 6.300781 3.105469 6.3125 3.097656 6.324219 C 3.09375 6.335938 3.082031 6.339844 3.070312 6.332031 C 3.066406 6.332031 2.851562 6.234375 2.574219 6.109375 C 2.574219 6.207031 2.605469 6.496094 2.96875 6.625 C 2.976562 6.628906 2.984375 6.636719 2.980469 6.648438 C 2.980469 6.660156 2.972656 6.667969 2.960938 6.667969 C 2.960938 6.667969 2.835938 6.671875 2.671875 6.667969 C 2.765625 6.777344 3.105469 7.09375 3.734375 6.925781 C 3.746094 6.921875 3.757812 6.929688 3.761719 6.941406 C 3.765625 6.953125 3.757812 6.964844 3.746094 6.96875 C 3.613281 7.003906 3.496094 7.015625 3.386719 7.015625 " fill-opacity="1" fill-rule="nonzero"/></g><path fill="#2cb2f1" d="M 4.773438 6.429688 C 4.773438 6.582031 4.652344 6.707031 4.5 6.707031 C 4.347656 6.707031 4.226562 6.582031 4.226562 6.429688 C 4.226562 6.28125 4.347656 6.15625 4.5 6.15625 C 4.652344 6.15625 4.773438 6.28125 4.773438 6.429688 " fill-opacity="1" fill-rule="nonzero"/><path fill="#ffffff" d="M 4.710938 6.511719 C 4.710938 6.566406 4.667969 6.609375 4.613281 6.609375 C 4.558594 6.609375 4.515625 6.566406 4.515625 6.511719 C 4.515625 6.457031 4.558594 6.414062 4.613281 6.414062 C 4.667969 6.414062 4.710938 6.457031 4.710938 6.511719 " fill-opacity="1" fill-rule="nonzero"/><path fill="#000000" d="M 4.464844 7.863281 L 2.246094 7.863281 C 2.234375 7.863281 2.222656 7.855469 2.222656 7.84375 C 2.222656 7.828125 2.234375 7.820312 2.246094 7.820312 L 4.464844 7.820312 C 4.476562 7.820312 4.488281 7.828125 4.488281 7.84375 C 4.488281 7.855469 4.476562 7.863281 4.464844 7.863281 " fill-opacity="1" fill-rule="nonzero"/></svg>