<svg xmlns="http://www.w3.org/2000/svg" xmlns:xlink="http://www.w3.org/1999/xlink" width="40" zoomAndPan="magnify" viewBox="0 0 30 30.000001" height="40" preserveAspectRatio="xMidYMid meet" version="1.0"><defs><filter x="0%" y="0%" width="100%" height="100%" id="14cb23a6b1"><feColorMatrix values="0 0 0 0 1 0 0 0 0 1 0 0 0 0 1 0 0 0 1 0" color-interpolation-filters="sRGB"/></filter><clipPath id="8b75f6759e"><path d="M 0.484375 0 L 29.515625 0 L 29.515625 29 L 0.484375 29 Z M 0.484375 0 " clip-rule="nonzero"/></clipPath><mask id="682c832378"><g filter="url(#14cb23a6b1)"><rect x="-3" width="36" fill="#000000" y="-3" height="36.000001" fill-opacity="0.26"/></g></mask><clipPath id="0f95833331"><path d="M 1 3 L 29.515625 3 L 29.515625 27 L 1 27 Z M 1 3 " clip-rule="nonzero"/></clipPath><clipPath id="2ed713d135"><path d="M -3.253906 7.882812 L 25.511719 -2.210938 L 32.960938 19.019531 L 4.195312 29.113281 Z M -3.253906 7.882812 " clip-rule="nonzero"/></clipPath><clipPath id="04b30c27d6"><path d="M -3.253906 7.882812 L 25.511719 -2.210938 L 32.960938 19.019531 L 4.195312 29.113281 Z M -3.253906 7.882812 " clip-rule="nonzero"/></clipPath><clipPath id="067b18e7ec"><rect x="0" width="30" y="0" height="29"/></clipPath><clipPath id="b09fc2b227"><path d="M 22 4 L 27.75 4 L 27.75 16 L 22 16 Z M 22 4 " clip-rule="nonzero"/></clipPath><clipPath id="b148209e0d"><path d="M 2.347656 4 L 8 4 L 8 14 L 2.347656 14 Z M 2.347656 4 " clip-rule="nonzero"/></clipPath><clipPath id="be53a69da6"><path d="M 16 1.910156 L 21 1.910156 L 21 7 L 16 7 Z M 16 1.910156 " clip-rule="nonzero"/></clipPath><clipPath id="584ec22324"><path d="M 2.347656 13 L 9 13 L 9 20 L 2.347656 20 Z M 2.347656 13 " clip-rule="nonzero"/></clipPath><clipPath id="2e5b77f0e8"><path d="M 2.347656 17 L 6 17 L 6 20 L 2.347656 20 Z M 2.347656 17 " clip-rule="nonzero"/></clipPath><clipPath id="ac1ec272bf"><path d="M 9 19 L 17 19 L 17 27.3125 L 9 27.3125 Z M 9 19 " clip-rule="nonzero"/></clipPath></defs><g clip-path="url(#8b75f6759e)"><g mask="url(#682c832378)"><g transform="matrix(1, 0, 0, 1, 0, 0.000000000000005692)"><g clip-path="url(#067b18e7ec)"><g clip-path="url(#0f95833331)"><g clip-path="url(#2ed713d135)"><g clip-path="url(#04b30c27d6)"><path fill="#019df4" d="M 19.714844 22.429688 C 18.378906 22.886719 16.867188 23.265625 15.519531 23.796875 C 14.089844 24.359375 12.875 25.328125 11.53125 26.054688 C 9.148438 27.28125 6.269531 26.414062 4.234375 24.894531 C 2.753906 23.832031 1.769531 22.199219 1.367188 20.425781 C 1.207031 19.84375 1.265625 19.261719 1.296875 18.679688 C 1.339844 17.902344 1.421875 17.125 1.675781 16.378906 C 2.542969 14.023438 4.273438 12.125 5.542969 9.988281 C 5.671875 9.789062 5.726562 9.5625 5.761719 9.328125 C 5.917969 7.976562 6.058594 6.511719 7.089844 5.507812 C 8.707031 3.6875 11.453125 3.085938 13.707031 4.011719 C 14.273438 4.25 14.789062 4.582031 15.355469 4.8125 C 17.015625 5.53125 18.746094 6.511719 20.613281 6.269531 C 22.511719 5.78125 22.988281 4.078125 25.179688 4.007812 C 27.269531 3.839844 28.695312 5.832031 29.230469 7.632812 C 29.652344 9.285156 29.542969 11.039062 29.15625 12.6875 C 27.765625 17.675781 24.609375 20.8125 19.714844 22.429688 Z M 19.714844 22.429688 " fill-opacity="1" fill-rule="nonzero"/></g></g></g></g></g></g></g><g clip-path="url(#b09fc2b227)"><path fill="#3a3b3b" d="M 27.472656 15.773438 C 27.46875 15.773438 27.464844 15.773438 27.464844 15.773438 C 27.390625 15.765625 27.335938 15.703125 27.34375 15.628906 C 27.371094 15.292969 27.382812 14.949219 27.382812 14.605469 C 27.382812 14.472656 27.382812 14.335938 27.378906 14.199219 C 27.375 14.128906 27.433594 14.066406 27.503906 14.066406 C 27.578125 14.0625 27.636719 14.121094 27.640625 14.191406 C 27.644531 14.328125 27.648438 14.46875 27.648438 14.605469 C 27.648438 14.957031 27.632812 15.308594 27.605469 15.652344 C 27.597656 15.722656 27.542969 15.773438 27.472656 15.773438 Z M 27.378906 12.890625 C 27.316406 12.890625 27.257812 12.84375 27.25 12.777344 C 27.179688 12.308594 27.082031 11.835938 26.960938 11.378906 C 26.941406 11.308594 26.984375 11.234375 27.054688 11.214844 C 27.125 11.199219 27.195312 11.238281 27.214844 11.308594 C 27.339844 11.777344 27.441406 12.257812 27.511719 12.738281 C 27.523438 12.8125 27.472656 12.878906 27.398438 12.886719 C 27.394531 12.890625 27.386719 12.890625 27.378906 12.890625 Z M 26.632812 10.105469 C 26.582031 10.105469 26.53125 10.074219 26.511719 10.019531 C 26.335938 9.578125 26.132812 9.144531 25.90625 8.726562 C 25.875 8.660156 25.898438 8.582031 25.960938 8.546875 C 26.023438 8.511719 26.105469 8.535156 26.140625 8.601562 C 26.371094 9.027344 26.578125 9.472656 26.757812 9.925781 C 26.78125 9.992188 26.75 10.066406 26.683594 10.09375 C 26.667969 10.101562 26.648438 10.105469 26.632812 10.105469 Z M 25.265625 7.5625 C 25.226562 7.5625 25.183594 7.542969 25.160156 7.507812 C 24.886719 7.117188 24.589844 6.738281 24.277344 6.382812 C 24.226562 6.328125 24.234375 6.246094 24.289062 6.195312 C 24.34375 6.148438 24.425781 6.152344 24.472656 6.207031 C 24.796875 6.574219 25.097656 6.957031 25.375 7.355469 C 25.417969 7.417969 25.402344 7.5 25.34375 7.539062 C 25.320312 7.554688 25.292969 7.5625 25.265625 7.5625 Z M 23.359375 5.402344 C 23.328125 5.402344 23.296875 5.390625 23.269531 5.367188 C 22.917969 5.046875 22.542969 4.746094 22.15625 4.472656 C 22.097656 4.429688 22.082031 4.347656 22.125 4.289062 C 22.167969 4.226562 22.25 4.214844 22.308594 4.257812 C 22.703125 4.539062 23.085938 4.847656 23.445312 5.171875 C 23.5 5.21875 23.503906 5.304688 23.457031 5.355469 C 23.429688 5.386719 23.394531 5.402344 23.359375 5.402344 Z M 23.359375 5.402344 " fill-opacity="1" fill-rule="nonzero"/></g><g clip-path="url(#b148209e0d)"><path fill="#3a3b3b" d="M 2.488281 13.078125 C 2.480469 13.078125 2.476562 13.078125 2.46875 13.078125 C 2.398438 13.066406 2.347656 13 2.355469 12.929688 C 2.421875 12.449219 2.511719 11.964844 2.632812 11.496094 C 2.648438 11.425781 2.722656 11.382812 2.792969 11.398438 C 2.863281 11.417969 2.90625 11.488281 2.886719 11.558594 C 2.769531 12.019531 2.679688 12.492188 2.617188 12.964844 C 2.609375 13.03125 2.554688 13.078125 2.488281 13.078125 Z M 3.191406 10.28125 C 3.175781 10.28125 3.160156 10.277344 3.144531 10.273438 C 3.078125 10.246094 3.042969 10.171875 3.070312 10.101562 C 3.242188 9.648438 3.441406 9.199219 3.664062 8.769531 C 3.699219 8.703125 3.777344 8.679688 3.84375 8.714844 C 3.90625 8.746094 3.933594 8.828125 3.898438 8.890625 C 3.679688 9.3125 3.484375 9.753906 3.316406 10.195312 C 3.296875 10.25 3.246094 10.28125 3.191406 10.28125 Z M 4.519531 7.71875 C 4.496094 7.71875 4.46875 7.710938 4.445312 7.695312 C 4.386719 7.65625 4.371094 7.574219 4.410156 7.515625 C 4.683594 7.113281 4.980469 6.722656 5.296875 6.351562 C 5.34375 6.296875 5.425781 6.289062 5.480469 6.339844 C 5.535156 6.386719 5.542969 6.46875 5.496094 6.523438 C 5.1875 6.886719 4.894531 7.269531 4.628906 7.660156 C 4.605469 7.699219 4.5625 7.71875 4.519531 7.71875 Z M 6.398438 5.527344 C 6.359375 5.527344 6.324219 5.515625 6.300781 5.484375 C 6.25 5.433594 6.253906 5.347656 6.308594 5.300781 C 6.664062 4.96875 7.039062 4.65625 7.429688 4.367188 C 7.488281 4.324219 7.574219 4.339844 7.617188 4.398438 C 7.660156 4.457031 7.644531 4.539062 7.585938 4.582031 C 7.207031 4.863281 6.835938 5.167969 6.484375 5.492188 C 6.460938 5.515625 6.429688 5.527344 6.398438 5.527344 Z M 6.398438 5.527344 " fill-opacity="1" fill-rule="nonzero"/></g><path fill="#42bcfa" d="M 24.175781 14.605469 C 24.175781 15.214844 24.117188 15.8125 23.996094 16.40625 C 23.878906 17 23.703125 17.578125 23.472656 18.136719 C 23.242188 18.699219 22.957031 19.230469 22.621094 19.734375 C 22.285156 20.238281 21.902344 20.703125 21.472656 21.132812 C 21.042969 21.5625 20.578125 21.941406 20.074219 22.28125 C 19.570312 22.617188 19.039062 22.902344 18.480469 23.132812 C 17.917969 23.363281 17.34375 23.539062 16.746094 23.65625 C 16.152344 23.777344 15.554688 23.835938 14.949219 23.835938 C 14.339844 23.835938 13.742188 23.777344 13.148438 23.65625 C 12.554688 23.539062 11.976562 23.363281 11.417969 23.132812 C 10.855469 22.902344 10.324219 22.617188 9.820312 22.28125 C 9.316406 21.941406 8.851562 21.5625 8.421875 21.132812 C 7.992188 20.703125 7.613281 20.238281 7.273438 19.734375 C 6.9375 19.230469 6.652344 18.699219 6.421875 18.136719 C 6.191406 17.578125 6.015625 17 5.898438 16.40625 C 5.777344 15.8125 5.71875 15.214844 5.71875 14.605469 C 5.71875 14 5.777344 13.402344 5.898438 12.808594 C 6.015625 12.210938 6.191406 11.636719 6.421875 11.074219 C 6.652344 10.515625 6.9375 9.984375 7.273438 9.480469 C 7.613281 8.976562 7.992188 8.511719 8.421875 8.082031 C 8.851562 7.652344 9.316406 7.269531 9.820312 6.933594 C 10.324219 6.597656 10.855469 6.3125 11.417969 6.082031 C 11.976562 5.851562 12.554688 5.675781 13.148438 5.558594 C 13.742188 5.4375 14.339844 5.378906 14.949219 5.378906 C 15.554688 5.378906 16.152344 5.4375 16.746094 5.558594 C 17.34375 5.675781 17.917969 5.851562 18.480469 6.082031 C 19.039062 6.3125 19.570312 6.597656 20.074219 6.933594 C 20.578125 7.269531 21.042969 7.652344 21.472656 8.082031 C 21.902344 8.511719 22.285156 8.976562 22.621094 9.480469 C 22.957031 9.984375 23.242188 10.515625 23.472656 11.074219 C 23.703125 11.636719 23.878906 12.210938 23.996094 12.808594 C 24.117188 13.402344 24.175781 14 24.175781 14.605469 Z M 24.175781 14.605469 " fill-opacity="1" fill-rule="nonzero"/><path fill="#ffffff" d="M 18.371094 12.773438 L 9.40625 12.773438 C 9.207031 12.773438 9.042969 12.613281 9.042969 12.410156 L 9.042969 2.566406 C 9.042969 2.367188 9.207031 2.203125 9.40625 2.203125 L 17.804688 2.203125 Z M 18.371094 12.773438 " fill-opacity="1" fill-rule="nonzero"/><path fill="#3a3b3b" d="M 18.371094 12.90625 L 9.40625 12.90625 C 9.132812 12.90625 8.914062 12.683594 8.914062 12.410156 L 8.914062 2.566406 C 8.914062 2.292969 9.132812 2.070312 9.40625 2.070312 L 17.804688 2.070312 C 17.875 2.070312 17.933594 2.128906 17.933594 2.203125 C 17.933594 2.277344 17.875 2.335938 17.804688 2.335938 L 9.40625 2.335938 C 9.28125 2.335938 9.175781 2.4375 9.175781 2.566406 L 9.175781 12.410156 C 9.175781 12.539062 9.28125 12.644531 9.40625 12.644531 L 18.371094 12.644531 C 18.445312 12.644531 18.503906 12.703125 18.503906 12.773438 C 18.503906 12.847656 18.445312 12.90625 18.371094 12.90625 Z M 18.371094 12.90625 " fill-opacity="1" fill-rule="nonzero"/><path fill="#42bcfa" d="M 18.609375 3.636719 L 18.625 3.046875 C 18.636719 2.585938 18.265625 2.203125 17.804688 2.203125 L 9.40625 2.203125 C 9.207031 2.203125 9.042969 2.367188 9.042969 2.566406 L 9.042969 3.636719 Z M 18.609375 3.636719 " fill-opacity="1" fill-rule="nonzero"/><path fill="#3a3b3b" d="M 18.609375 3.769531 L 9.042969 3.769531 C 8.972656 3.769531 8.914062 3.710938 8.914062 3.636719 L 8.914062 2.566406 C 8.914062 2.292969 9.132812 2.070312 9.40625 2.070312 L 17.804688 2.070312 C 18.0625 2.070312 18.304688 2.175781 18.484375 2.359375 C 18.667969 2.546875 18.761719 2.789062 18.753906 3.050781 L 18.742188 3.640625 C 18.738281 3.714844 18.679688 3.769531 18.609375 3.769531 Z M 9.175781 3.507812 L 18.480469 3.507812 L 18.492188 3.042969 C 18.496094 2.855469 18.425781 2.679688 18.296875 2.542969 C 18.164062 2.410156 17.992188 2.335938 17.804688 2.335938 L 9.40625 2.335938 C 9.28125 2.335938 9.175781 2.4375 9.175781 2.566406 Z M 9.175781 3.507812 " fill-opacity="1" fill-rule="nonzero"/><path fill="#ffffff" d="M 20.757812 4.296875 C 20.757812 5.542969 19.75 6.554688 18.503906 6.554688 C 17.257812 6.554688 16.246094 5.542969 16.246094 4.296875 C 16.246094 3.050781 17.257812 2.042969 18.503906 2.042969 C 19.75 2.042969 20.757812 3.050781 20.757812 4.296875 Z M 20.757812 4.296875 " fill-opacity="1" fill-rule="nonzero"/><g clip-path="url(#be53a69da6)"><path fill="#3a3b3b" d="M 18.503906 6.6875 C 17.863281 6.6875 17.265625 6.4375 16.8125 5.988281 C 16.363281 5.535156 16.113281 4.9375 16.113281 4.296875 C 16.113281 3.660156 16.363281 3.0625 16.8125 2.609375 C 17.265625 2.160156 17.863281 1.910156 18.503906 1.910156 C 19.140625 1.910156 19.742188 2.160156 20.191406 2.609375 C 20.640625 3.0625 20.890625 3.660156 20.890625 4.296875 C 20.890625 4.9375 20.640625 5.535156 20.191406 5.988281 C 19.742188 6.4375 19.140625 6.6875 18.503906 6.6875 Z M 18.503906 2.175781 C 17.332031 2.175781 16.378906 3.128906 16.378906 4.296875 C 16.378906 5.46875 17.332031 6.421875 18.503906 6.421875 C 19.675781 6.421875 20.628906 5.46875 20.628906 4.296875 C 20.628906 3.128906 19.675781 2.175781 18.503906 2.175781 Z M 18.503906 2.175781 " fill-opacity="1" fill-rule="nonzero"/></g><path fill="#42bcfa" d="M 19.625 4.296875 C 19.625 4.917969 19.121094 5.417969 18.503906 5.417969 C 17.882812 5.417969 17.382812 4.917969 17.382812 4.296875 C 17.382812 3.679688 17.882812 3.179688 18.503906 3.179688 C 19.121094 3.179688 19.625 3.679688 19.625 4.296875 Z M 19.625 4.296875 " fill-opacity="1" fill-rule="nonzero"/><path fill="#3a3b3b" d="M 18.503906 5.550781 C 17.8125 5.550781 17.25 4.988281 17.25 4.296875 C 17.25 3.609375 17.8125 3.046875 18.503906 3.046875 C 19.191406 3.046875 19.753906 3.609375 19.753906 4.296875 C 19.753906 4.988281 19.191406 5.550781 18.503906 5.550781 Z M 18.503906 3.308594 C 17.957031 3.308594 17.515625 3.753906 17.515625 4.296875 C 17.515625 4.84375 17.957031 5.285156 18.503906 5.285156 C 19.046875 5.285156 19.492188 4.84375 19.492188 4.296875 C 19.492188 3.753906 19.046875 3.308594 18.503906 3.308594 Z M 18.503906 3.308594 " fill-opacity="1" fill-rule="nonzero"/><path fill="#3a3b3b" d="M 15.601562 11.777344 L 10.105469 11.777344 C 10.03125 11.777344 9.972656 11.71875 9.972656 11.648438 C 9.972656 11.574219 10.03125 11.515625 10.105469 11.515625 L 15.601562 11.515625 C 15.675781 11.515625 15.734375 11.574219 15.734375 11.648438 C 15.734375 11.71875 15.675781 11.777344 15.601562 11.777344 Z M 15.601562 11.777344 " fill-opacity="1" fill-rule="nonzero"/><path fill="#3a3b3b" d="M 15.601562 11.019531 L 10.105469 11.019531 C 10.03125 11.019531 9.972656 10.957031 9.972656 10.886719 C 9.972656 10.8125 10.03125 10.753906 10.105469 10.753906 L 15.601562 10.753906 C 15.675781 10.753906 15.734375 10.8125 15.734375 10.886719 C 15.734375 10.957031 15.675781 11.019531 15.601562 11.019531 Z M 15.601562 11.019531 " fill-opacity="1" fill-rule="nonzero"/><path fill="#ffffff" d="M 20.660156 10.835938 L 20.660156 10.339844 C 21.308594 9.929688 21.699219 9.214844 21.699219 8.449219 L 21.699219 6.703125 C 21.699219 6.453125 21.496094 6.246094 21.242188 6.246094 C 20.992188 6.246094 20.789062 6.453125 20.789062 6.703125 L 20.789062 7.992188 L 20.789062 6.527344 C 20.789062 6.277344 20.582031 6.074219 20.332031 6.074219 C 20.078125 6.074219 19.875 6.277344 19.875 6.527344 L 19.875 7.964844 L 19.875 6.335938 C 19.875 6.082031 19.671875 5.878906 19.421875 5.878906 C 19.167969 5.878906 18.964844 6.082031 18.964844 6.335938 L 18.964844 7.992188 L 18.964844 4.753906 C 18.964844 4.503906 18.761719 4.296875 18.507812 4.296875 C 18.257812 4.296875 18.054688 4.503906 18.054688 4.753906 L 18.054688 7.914062 L 17.355469 6.773438 C 17.226562 6.5625 16.960938 6.488281 16.742188 6.601562 C 16.550781 6.703125 16.464844 6.929688 16.546875 7.132812 L 17.523438 9.566406 C 17.65625 9.894531 17.90625 10.15625 18.226562 10.308594 L 18.226562 10.832031 Z M 20.660156 10.835938 " fill-opacity="1" fill-rule="nonzero"/><path fill="#3a3b3b" d="M 20.660156 10.964844 C 20.589844 10.964844 20.53125 10.90625 20.53125 10.835938 L 20.53125 10.339844 C 20.53125 10.292969 20.550781 10.253906 20.589844 10.230469 C 21.203125 9.839844 21.566406 9.175781 21.566406 8.449219 L 21.566406 6.703125 C 21.566406 6.523438 21.421875 6.378906 21.242188 6.378906 C 21.066406 6.378906 20.917969 6.523438 20.917969 6.703125 L 20.917969 7.992188 C 20.917969 8.066406 20.859375 8.125 20.789062 8.125 C 20.714844 8.125 20.65625 8.066406 20.65625 7.992188 L 20.65625 6.527344 C 20.65625 6.351562 20.511719 6.203125 20.332031 6.203125 C 20.152344 6.203125 20.007812 6.347656 20.007812 6.527344 L 20.007812 7.964844 C 20.007812 8.035156 19.949219 8.097656 19.875 8.097656 C 19.804688 8.097656 19.742188 8.035156 19.742188 7.964844 L 19.742188 6.527344 C 19.742188 6.527344 19.742188 6.527344 19.742188 6.523438 L 19.742188 6.335938 C 19.742188 6.15625 19.597656 6.011719 19.421875 6.011719 C 19.242188 6.011719 19.097656 6.152344 19.097656 6.328125 L 19.097656 7.992188 C 19.097656 8.066406 19.039062 8.125 18.964844 8.125 C 18.890625 8.125 18.832031 8.066406 18.832031 7.992188 L 18.832031 6.335938 C 18.832031 6.332031 18.832031 6.332031 18.832031 6.328125 L 18.832031 4.753906 C 18.832031 4.574219 18.6875 4.429688 18.507812 4.429688 C 18.328125 4.429688 18.183594 4.574219 18.183594 4.753906 L 18.183594 7.914062 C 18.183594 7.976562 18.144531 8.027344 18.089844 8.042969 C 18.03125 8.058594 17.972656 8.035156 17.941406 7.984375 L 17.242188 6.839844 C 17.152344 6.691406 16.957031 6.640625 16.804688 6.71875 C 16.671875 6.789062 16.613281 6.945312 16.667969 7.082031 L 17.648438 9.515625 C 17.765625 9.8125 17.992188 10.050781 18.285156 10.1875 C 18.328125 10.210938 18.359375 10.257812 18.359375 10.308594 L 18.359375 10.832031 C 18.359375 10.902344 18.300781 10.964844 18.226562 10.964844 C 18.15625 10.964844 18.09375 10.902344 18.09375 10.832031 L 18.09375 10.390625 C 17.78125 10.21875 17.535156 9.949219 17.402344 9.613281 L 16.425781 7.179688 C 16.316406 6.914062 16.429688 6.617188 16.683594 6.484375 C 16.960938 6.339844 17.304688 6.4375 17.46875 6.703125 L 17.921875 7.445312 L 17.921875 4.753906 C 17.921875 4.429688 18.183594 4.167969 18.507812 4.167969 C 18.832031 4.167969 19.097656 4.429688 19.097656 4.753906 L 19.097656 5.84375 C 19.1875 5.785156 19.300781 5.746094 19.421875 5.746094 C 19.652344 5.746094 19.855469 5.882812 19.949219 6.082031 C 20.054688 5.996094 20.1875 5.941406 20.332031 5.941406 C 20.558594 5.941406 20.757812 6.070312 20.855469 6.261719 C 20.957031 6.171875 21.09375 6.117188 21.242188 6.117188 C 21.566406 6.117188 21.832031 6.378906 21.832031 6.703125 L 21.832031 8.449219 C 21.832031 8.847656 21.730469 9.242188 21.539062 9.59375 C 21.359375 9.917969 21.101562 10.199219 20.792969 10.410156 L 20.792969 10.835938 C 20.792969 10.90625 20.734375 10.964844 20.660156 10.964844 Z M 20.660156 10.964844 " fill-opacity="1" fill-rule="nonzero"/><path fill="#42bcfa" d="M 17.671875 12.140625 L 17.671875 11.101562 C 17.671875 10.953125 17.789062 10.835938 17.9375 10.835938 L 20.902344 10.835938 C 21.050781 10.835938 21.167969 10.953125 21.167969 11.101562 L 21.167969 12.140625 C 21.167969 12.714844 20.703125 13.183594 20.125 13.183594 L 18.714844 13.183594 C 18.136719 13.183594 17.671875 12.714844 17.671875 12.140625 Z M 17.671875 12.140625 " fill-opacity="1" fill-rule="nonzero"/><path fill="#3a3b3b" d="M 20.125 13.316406 L 18.714844 13.316406 C 18.066406 13.316406 17.539062 12.789062 17.539062 12.140625 L 17.539062 11.101562 C 17.539062 10.882812 17.71875 10.703125 17.9375 10.703125 L 20.902344 10.703125 C 21.121094 10.703125 21.300781 10.882812 21.300781 11.101562 L 21.300781 12.140625 C 21.300781 12.789062 20.773438 13.316406 20.125 13.316406 Z M 17.9375 10.964844 C 17.863281 10.964844 17.800781 11.027344 17.800781 11.101562 L 17.800781 12.140625 C 17.800781 12.644531 18.210938 13.050781 18.714844 13.050781 L 20.125 13.050781 C 20.628906 13.050781 21.039062 12.644531 21.039062 12.140625 L 21.039062 11.101562 C 21.039062 11.027344 20.976562 10.964844 20.902344 10.964844 Z M 17.9375 10.964844 " fill-opacity="1" fill-rule="nonzero"/><path fill="#ffffff" d="M 15.472656 7.304688 C 15.472656 7.652344 15.40625 7.984375 15.273438 8.304688 C 15.140625 8.628906 14.949219 8.910156 14.707031 9.15625 C 14.460938 9.402344 14.175781 9.589844 13.855469 9.722656 C 13.535156 9.855469 13.199219 9.921875 12.851562 9.921875 C 12.503906 9.921875 12.171875 9.855469 11.851562 9.722656 C 11.53125 9.589844 11.246094 9.402344 11 9.15625 C 10.753906 8.910156 10.566406 8.628906 10.433594 8.304688 C 10.300781 7.984375 10.234375 7.652344 10.234375 7.304688 C 10.234375 6.957031 10.300781 6.621094 10.433594 6.300781 C 10.566406 5.980469 10.753906 5.699219 11 5.453125 C 11.246094 5.207031 11.53125 5.015625 11.851562 4.882812 C 12.171875 4.75 12.503906 4.683594 12.851562 4.683594 C 13.199219 4.683594 13.535156 4.75 13.855469 4.882812 C 14.175781 5.015625 14.460938 5.207031 14.707031 5.453125 C 14.949219 5.699219 15.140625 5.980469 15.273438 6.300781 C 15.40625 6.621094 15.472656 6.957031 15.472656 7.304688 Z M 15.472656 7.304688 " fill-opacity="1" fill-rule="nonzero"/><path fill="#3a3b3b" d="M 12.847656 10.054688 C 12.246094 10.054688 11.664062 9.859375 11.175781 9.484375 C 10.59375 9.039062 10.222656 8.390625 10.125 7.660156 C 10.03125 6.933594 10.222656 6.210938 10.671875 5.628906 C 11.117188 5.046875 11.765625 4.671875 12.496094 4.574219 C 13.222656 4.480469 13.945312 4.675781 14.527344 5.121094 C 15.113281 5.570312 15.484375 6.21875 15.582031 6.945312 C 15.675781 7.675781 15.484375 8.398438 15.035156 8.980469 C 14.585938 9.5625 13.941406 9.9375 13.210938 10.03125 C 13.089844 10.046875 12.96875 10.054688 12.847656 10.054688 Z M 12.855469 4.816406 C 12.109375 4.816406 11.371094 5.152344 10.878906 5.789062 C 10.042969 6.875 10.25 8.441406 11.335938 9.277344 C 11.863281 9.683594 12.519531 9.855469 13.175781 9.769531 C 13.835938 9.683594 14.421875 9.347656 14.824219 8.820312 C 15.660156 7.730469 15.457031 6.167969 14.367188 5.332031 C 13.917969 4.984375 13.386719 4.816406 12.855469 4.816406 Z M 12.855469 4.816406 " fill-opacity="1" fill-rule="nonzero"/><path fill="#3a3b3b" d="M 13.265625 8.75 L 12.4375 8.75 C 12.109375 8.75 11.839844 8.480469 11.839844 8.152344 L 11.839844 7.886719 C 11.839844 7.8125 11.902344 7.753906 11.972656 7.753906 C 12.046875 7.753906 12.105469 7.8125 12.105469 7.886719 L 12.105469 8.152344 C 12.105469 8.335938 12.253906 8.484375 12.4375 8.484375 L 13.265625 8.484375 C 13.453125 8.484375 13.601562 8.335938 13.601562 8.152344 L 13.601562 7.769531 C 13.601562 7.585938 13.453125 7.4375 13.265625 7.4375 L 12.4375 7.4375 C 12.109375 7.4375 11.839844 7.167969 11.839844 6.839844 L 11.839844 6.457031 C 11.839844 6.125 12.109375 5.859375 12.4375 5.859375 L 13.265625 5.859375 C 13.597656 5.859375 13.863281 6.125 13.863281 6.457031 L 13.863281 6.714844 C 13.863281 6.785156 13.804688 6.84375 13.734375 6.84375 C 13.660156 6.84375 13.601562 6.785156 13.601562 6.714844 L 13.601562 6.457031 C 13.601562 6.273438 13.453125 6.121094 13.265625 6.121094 L 12.4375 6.121094 C 12.253906 6.121094 12.105469 6.273438 12.105469 6.457031 L 12.105469 6.839844 C 12.105469 7.023438 12.253906 7.171875 12.4375 7.171875 L 13.265625 7.171875 C 13.597656 7.171875 13.863281 7.441406 13.863281 7.769531 L 13.863281 8.152344 C 13.863281 8.480469 13.597656 8.75 13.265625 8.75 Z M 13.265625 8.75 " fill-opacity="1" fill-rule="nonzero"/><path fill="#3a3b3b" d="M 12.851562 9.371094 C 12.78125 9.371094 12.722656 9.3125 12.722656 9.238281 L 12.722656 8.617188 C 12.722656 8.546875 12.78125 8.484375 12.851562 8.484375 C 12.925781 8.484375 12.984375 8.546875 12.984375 8.617188 L 12.984375 9.238281 C 12.984375 9.3125 12.925781 9.371094 12.851562 9.371094 Z M 12.851562 9.371094 " fill-opacity="1" fill-rule="nonzero"/><path fill="#3a3b3b" d="M 12.851562 6.121094 C 12.78125 6.121094 12.722656 6.0625 12.722656 5.988281 L 12.722656 5.371094 C 12.722656 5.296875 12.78125 5.238281 12.851562 5.238281 C 12.925781 5.238281 12.984375 5.296875 12.984375 5.371094 L 12.984375 5.988281 C 12.984375 6.0625 12.925781 6.121094 12.851562 6.121094 Z M 12.851562 6.121094 " fill-opacity="1" fill-rule="nonzero"/><path fill="#3a3b3b" d="M 17.472656 22.292969 C 17.414062 22.292969 17.359375 22.25 17.34375 22.191406 C 17.328125 22.121094 17.371094 22.046875 17.441406 22.03125 C 19.679688 21.496094 21.714844 20.292969 23.320312 18.558594 C 24.640625 17.136719 25.425781 15.613281 25.699219 14.738281 C 25.71875 14.667969 25.792969 14.628906 25.863281 14.652344 C 25.933594 14.675781 25.972656 14.746094 25.949219 14.816406 C 25.792969 15.324219 25.507812 15.941406 25.144531 16.554688 C 24.6875 17.328125 24.140625 18.0625 23.515625 18.738281 C 22.757812 19.554688 21.910156 20.257812 20.992188 20.832031 C 19.917969 21.5 18.742188 21.992188 17.503906 22.289062 C 17.492188 22.289062 17.480469 22.292969 17.472656 22.292969 Z M 17.472656 22.292969 " fill-opacity="1" fill-rule="nonzero"/><path fill="#3a3b3b" d="M 26.503906 16.683594 C 26.449219 16.683594 26.402344 16.652344 26.378906 16.597656 L 25.75 14.949219 L 24.089844 15.582031 C 24.023438 15.609375 23.945312 15.574219 23.921875 15.507812 C 23.894531 15.441406 23.929688 15.363281 23.996094 15.335938 L 25.777344 14.65625 C 25.84375 14.628906 25.921875 14.664062 25.945312 14.730469 L 26.625 16.503906 C 26.652344 16.574219 26.617188 16.648438 26.550781 16.675781 C 26.535156 16.679688 26.519531 16.683594 26.503906 16.683594 Z M 26.503906 16.683594 " fill-opacity="1" fill-rule="nonzero"/><path fill="#42bcfa" d="M 24.167969 26.015625 L 24.167969 19.015625 C 24.167969 18.8125 24.332031 18.648438 24.535156 18.648438 L 26.007812 18.648438 C 26.210938 18.648438 26.375 18.8125 26.375 19.015625 L 26.375 26.015625 Z M 24.167969 26.015625 " fill-opacity="1" fill-rule="nonzero"/><path fill="#3a3b3b" d="M 26.375 26.148438 C 26.304688 26.148438 26.246094 26.085938 26.246094 26.015625 L 26.246094 19.015625 C 26.246094 18.882812 26.140625 18.777344 26.007812 18.777344 L 24.535156 18.777344 C 24.402344 18.777344 24.296875 18.882812 24.296875 19.015625 L 24.296875 26.015625 C 24.296875 26.085938 24.238281 26.148438 24.167969 26.148438 C 24.09375 26.148438 24.035156 26.085938 24.035156 26.015625 L 24.035156 19.015625 C 24.035156 18.738281 24.257812 18.515625 24.535156 18.515625 L 26.007812 18.515625 C 26.285156 18.515625 26.507812 18.738281 26.507812 19.015625 L 26.507812 26.015625 C 26.507812 26.085938 26.449219 26.148438 26.375 26.148438 Z M 26.375 26.148438 " fill-opacity="1" fill-rule="nonzero"/><path fill="#ffffff" d="M 18.085938 26.015625 L 18.085938 23.066406 C 18.085938 22.863281 18.253906 22.699219 18.457031 22.699219 L 19.929688 22.699219 C 20.132812 22.699219 20.296875 22.863281 20.296875 23.066406 L 20.296875 26.015625 Z M 18.085938 26.015625 " fill-opacity="1" fill-rule="nonzero"/><path fill="#3a3b3b" d="M 20.296875 26.148438 C 20.226562 26.148438 20.167969 26.085938 20.167969 26.015625 L 20.167969 23.066406 C 20.167969 22.9375 20.058594 22.832031 19.929688 22.832031 L 18.457031 22.832031 C 18.324219 22.832031 18.21875 22.9375 18.21875 23.066406 L 18.21875 26.015625 C 18.21875 26.085938 18.160156 26.148438 18.085938 26.148438 C 18.015625 26.148438 17.957031 26.085938 17.957031 26.015625 L 17.957031 23.066406 C 17.957031 22.792969 18.179688 22.566406 18.457031 22.566406 L 19.929688 22.566406 C 20.207031 22.566406 20.429688 22.792969 20.429688 23.066406 L 20.429688 26.015625 C 20.429688 26.085938 20.371094 26.148438 20.296875 26.148438 Z M 20.296875 26.148438 " fill-opacity="1" fill-rule="nonzero"/><path fill="#ffffff" d="M 21.125 26.015625 L 21.125 21.6875 C 21.125 21.484375 21.292969 21.316406 21.496094 21.316406 L 22.96875 21.316406 C 23.171875 21.316406 23.335938 21.484375 23.335938 21.6875 L 23.335938 26.015625 Z M 21.125 26.015625 " fill-opacity="1" fill-rule="nonzero"/><path fill="#3a3b3b" d="M 23.335938 26.148438 C 23.265625 26.148438 23.207031 26.085938 23.207031 26.015625 L 23.207031 21.6875 C 23.207031 21.554688 23.097656 21.449219 22.96875 21.449219 L 21.496094 21.449219 C 21.363281 21.449219 21.257812 21.554688 21.257812 21.6875 L 21.257812 26.015625 C 21.257812 26.085938 21.199219 26.148438 21.125 26.148438 C 21.054688 26.148438 20.996094 26.085938 20.996094 26.015625 L 20.996094 21.6875 C 20.996094 21.410156 21.21875 21.1875 21.496094 21.1875 L 22.96875 21.1875 C 23.246094 21.1875 23.46875 21.410156 23.46875 21.6875 L 23.46875 26.015625 C 23.46875 26.085938 23.410156 26.148438 23.335938 26.148438 Z M 23.335938 26.148438 " fill-opacity="1" fill-rule="nonzero"/><path fill="#3a3b3b" d="M 26.375 26.148438 L 18.085938 26.148438 C 18.015625 26.148438 17.957031 26.085938 17.957031 26.015625 C 17.957031 25.941406 18.015625 25.882812 18.085938 25.882812 L 26.375 25.882812 C 26.449219 25.882812 26.507812 25.941406 26.507812 26.015625 C 26.507812 26.085938 26.449219 26.148438 26.375 26.148438 Z M 26.375 26.148438 " fill-opacity="1" fill-rule="nonzero"/><path fill="#ffffff" d="M 22.234375 16.972656 C 22.234375 17.378906 22.15625 17.769531 22.003906 18.144531 C 21.847656 18.519531 21.625 18.851562 21.339844 19.136719 C 21.050781 19.425781 20.71875 19.644531 20.34375 19.800781 C 19.96875 19.957031 19.578125 20.035156 19.175781 20.035156 C 18.769531 20.035156 18.378906 19.957031 18.003906 19.800781 C 17.628906 19.644531 17.296875 19.425781 17.007812 19.136719 C 16.722656 18.851562 16.5 18.519531 16.347656 18.144531 C 16.191406 17.769531 16.113281 17.378906 16.113281 16.972656 C 16.113281 16.566406 16.191406 16.175781 16.347656 15.800781 C 16.5 15.425781 16.722656 15.09375 17.007812 14.808594 C 17.296875 14.519531 17.628906 14.300781 18.003906 14.144531 C 18.378906 13.988281 18.769531 13.910156 19.175781 13.910156 C 19.578125 13.910156 19.96875 13.988281 20.34375 14.144531 C 20.71875 14.300781 21.050781 14.519531 21.339844 14.808594 C 21.625 15.09375 21.847656 15.425781 22.003906 15.800781 C 22.15625 16.175781 22.234375 16.566406 22.234375 16.972656 Z M 22.234375 16.972656 " fill-opacity="1" fill-rule="nonzero"/><path fill="#3a3b3b" d="M 19.167969 20.167969 C 18.46875 20.167969 17.792969 19.9375 17.230469 19.503906 C 16.550781 18.984375 16.117188 18.234375 16.007812 17.386719 C 15.898438 16.542969 16.121094 15.703125 16.640625 15.027344 C 17.160156 14.351562 17.914062 13.917969 18.757812 13.804688 C 19.605469 13.695312 20.441406 13.921875 21.121094 14.441406 C 21.796875 14.960938 22.230469 15.710938 22.339844 16.558594 C 22.449219 17.402344 22.226562 18.242188 21.707031 18.917969 C 21.1875 19.59375 20.433594 20.027344 19.589844 20.136719 C 19.449219 20.15625 19.308594 20.167969 19.167969 20.167969 Z M 19.175781 14.042969 C 18.296875 14.042969 17.425781 14.4375 16.851562 15.1875 C 15.867188 16.46875 16.109375 18.3125 17.390625 19.296875 C 17.921875 19.703125 18.546875 19.902344 19.171875 19.902344 C 20.050781 19.902344 20.921875 19.507812 21.496094 18.757812 C 21.972656 18.136719 22.179688 17.367188 22.078125 16.589844 C 21.976562 15.816406 21.578125 15.125 20.957031 14.648438 C 20.429688 14.242188 19.800781 14.042969 19.175781 14.042969 Z M 19.175781 14.042969 " fill-opacity="1" fill-rule="nonzero"/><path fill="#3a3b3b" d="M 19.660156 18.640625 L 18.691406 18.640625 C 18.316406 18.640625 18.015625 18.335938 18.015625 17.964844 L 18.015625 17.652344 C 18.015625 17.582031 18.074219 17.519531 18.144531 17.519531 C 18.21875 17.519531 18.277344 17.582031 18.277344 17.652344 L 18.277344 17.964844 C 18.277344 18.191406 18.460938 18.375 18.691406 18.375 L 19.660156 18.375 C 19.886719 18.375 20.070312 18.191406 20.070312 17.964844 L 20.070312 17.515625 C 20.070312 17.289062 19.886719 17.105469 19.660156 17.105469 L 18.691406 17.105469 C 18.316406 17.105469 18.015625 16.800781 18.015625 16.429688 L 18.015625 15.980469 C 18.015625 15.609375 18.316406 15.304688 18.691406 15.304688 L 19.660156 15.304688 C 20.03125 15.304688 20.335938 15.609375 20.335938 15.980469 L 20.335938 16.28125 C 20.335938 16.355469 20.273438 16.414062 20.203125 16.414062 C 20.128906 16.414062 20.070312 16.355469 20.070312 16.28125 L 20.070312 15.980469 C 20.070312 15.753906 19.886719 15.570312 19.660156 15.570312 L 18.691406 15.570312 C 18.460938 15.570312 18.277344 15.753906 18.277344 15.980469 L 18.277344 16.429688 C 18.277344 16.65625 18.460938 16.839844 18.691406 16.839844 L 19.660156 16.839844 C 20.03125 16.839844 20.335938 17.144531 20.335938 17.515625 L 20.335938 17.964844 C 20.335938 18.335938 20.03125 18.640625 19.660156 18.640625 Z M 19.660156 18.640625 " fill-opacity="1" fill-rule="nonzero"/><path fill="#3a3b3b" d="M 19.175781 19.363281 C 19.101562 19.363281 19.042969 19.304688 19.042969 19.234375 L 19.042969 18.507812 C 19.042969 18.433594 19.101562 18.375 19.175781 18.375 C 19.246094 18.375 19.304688 18.433594 19.304688 18.507812 L 19.304688 19.234375 C 19.304688 19.304688 19.246094 19.363281 19.175781 19.363281 Z M 19.175781 19.363281 " fill-opacity="1" fill-rule="nonzero"/><path fill="#3a3b3b" d="M 19.175781 15.570312 C 19.101562 15.570312 19.042969 15.507812 19.042969 15.4375 L 19.042969 14.710938 C 19.042969 14.640625 19.101562 14.578125 19.175781 14.578125 C 19.246094 14.578125 19.304688 14.640625 19.304688 14.710938 L 19.304688 15.4375 C 19.304688 15.507812 19.246094 15.570312 19.175781 15.570312 Z M 19.175781 15.570312 " fill-opacity="1" fill-rule="nonzero"/><g clip-path="url(#584ec22324)"><path fill="#42bcfa" d="M 8.011719 13.914062 L 3.089844 13.914062 C 2.828125 13.914062 2.613281 14.128906 2.613281 14.390625 L 2.613281 19.3125 C 2.613281 19.574219 2.828125 19.789062 3.089844 19.789062 L 5.367188 19.789062 L 8.488281 14.832031 L 8.488281 14.390625 C 8.488281 14.128906 8.277344 13.914062 8.011719 13.914062 Z M 8.011719 13.914062 " fill-opacity="1" fill-rule="nonzero"/><path fill="#3a3b3b" d="M 5.367188 19.921875 L 3.089844 19.921875 C 2.753906 19.921875 2.480469 19.648438 2.480469 19.3125 L 2.480469 14.390625 C 2.480469 14.054688 2.753906 13.78125 3.089844 13.78125 L 8.011719 13.78125 C 8.347656 13.78125 8.621094 14.054688 8.621094 14.390625 L 8.621094 14.832031 C 8.621094 14.855469 8.613281 14.882812 8.601562 14.902344 L 5.480469 19.859375 C 5.457031 19.898438 5.414062 19.921875 5.367188 19.921875 Z M 3.089844 14.046875 C 2.902344 14.046875 2.746094 14.199219 2.746094 14.390625 L 2.746094 19.3125 C 2.746094 19.503906 2.902344 19.65625 3.089844 19.65625 L 5.296875 19.65625 L 8.359375 14.792969 L 8.359375 14.390625 C 8.359375 14.199219 8.203125 14.046875 8.011719 14.046875 Z M 8.488281 14.832031 Z M 8.488281 14.832031 " fill-opacity="1" fill-rule="nonzero"/></g><path fill="#ffffff" d="M 4.996094 15.019531 C 5.121094 15.144531 5.183594 15.296875 5.183594 15.472656 C 5.183594 15.652344 5.121094 15.804688 4.996094 15.929688 C 4.871094 16.054688 4.71875 16.117188 4.542969 16.117188 C 4.363281 16.117188 4.214844 16.054688 4.089844 15.929688 C 3.960938 15.804688 3.898438 15.652344 3.898438 15.472656 C 3.898438 15.296875 3.960938 15.144531 4.085938 15.019531 C 4.214844 14.894531 4.363281 14.832031 4.542969 14.832031 C 4.71875 14.832031 4.871094 14.894531 4.996094 15.019531 Z M 4.996094 15.019531 " fill-opacity="1" fill-rule="nonzero"/><path fill="#3a3b3b" d="M 4.542969 16.25 C 4.113281 16.25 3.765625 15.902344 3.765625 15.472656 C 3.765625 15.046875 4.113281 14.699219 4.542969 14.699219 C 4.96875 14.699219 5.316406 15.046875 5.316406 15.472656 C 5.316406 15.902344 4.96875 16.25 4.542969 16.25 Z M 4.542969 14.964844 C 4.261719 14.964844 4.03125 15.191406 4.03125 15.472656 C 4.03125 15.753906 4.261719 15.984375 4.542969 15.984375 C 4.824219 15.984375 5.054688 15.753906 5.054688 15.472656 C 5.054688 15.191406 4.824219 14.964844 4.542969 14.964844 Z M 4.542969 14.964844 " fill-opacity="1" fill-rule="nonzero"/><g clip-path="url(#2e5b77f0e8)"><path fill="#ffffff" d="M 5.335938 17.839844 C 5.011719 18.160156 4.492188 18.160156 4.171875 17.839844 C 3.851562 17.515625 3.328125 17.515625 3.007812 17.839844 L 2.613281 18.234375 L 2.613281 19.3125 C 2.613281 19.574219 2.828125 19.789062 3.089844 19.789062 L 5.359375 19.789062 Z M 5.335938 17.839844 " fill-opacity="1" fill-rule="nonzero"/><path fill="#3a3b3b" d="M 5.359375 19.921875 L 3.089844 19.921875 C 2.753906 19.921875 2.480469 19.648438 2.480469 19.3125 L 2.480469 18.234375 C 2.480469 18.199219 2.496094 18.164062 2.519531 18.140625 L 2.914062 17.746094 C 3.09375 17.566406 3.335938 17.464844 3.589844 17.464844 C 3.84375 17.464844 4.085938 17.566406 4.265625 17.746094 C 4.535156 18.015625 4.972656 18.015625 5.242188 17.746094 C 5.277344 17.707031 5.335938 17.695312 5.382812 17.714844 C 5.433594 17.734375 5.464844 17.785156 5.464844 17.835938 L 5.492188 19.789062 C 5.492188 19.824219 5.476562 19.855469 5.453125 19.882812 C 5.429688 19.90625 5.394531 19.921875 5.359375 19.921875 Z M 2.746094 18.289062 L 2.746094 19.3125 C 2.746094 19.503906 2.902344 19.65625 3.089844 19.65625 L 5.226562 19.65625 L 5.207031 18.097656 C 4.84375 18.292969 4.382812 18.238281 4.078125 17.929688 C 3.949219 17.800781 3.773438 17.730469 3.589844 17.730469 C 3.40625 17.730469 3.230469 17.800781 3.101562 17.929688 Z M 2.746094 18.289062 " fill-opacity="1" fill-rule="nonzero"/></g><path fill="#ffffff" d="M 7.019531 22.359375 L 7.019531 23.71875 C 7.019531 23.980469 7.234375 24.195312 7.496094 24.195312 L 12.804688 24.195312 L 14.917969 21.917969 L 14.914062 17.167969 L 12.582031 14.648438 L 7.679688 14.648438 C 7.417969 14.648438 7.203125 14.859375 7.203125 15.125 L 7.203125 16.484375 Z M 7.019531 22.359375 " fill-opacity="1" fill-rule="nonzero"/><path fill="#3a3b3b" d="M 12.804688 24.328125 L 7.496094 24.328125 C 7.160156 24.328125 6.890625 24.054688 6.890625 23.71875 L 6.890625 22.359375 C 6.890625 22.285156 6.949219 22.226562 7.019531 22.226562 C 7.09375 22.226562 7.152344 22.285156 7.152344 22.359375 L 7.152344 23.71875 C 7.152344 23.910156 7.308594 24.0625 7.496094 24.0625 L 12.746094 24.0625 L 14.785156 21.863281 L 14.785156 17.222656 L 12.523438 14.78125 L 7.679688 14.78125 C 7.492188 14.78125 7.335938 14.933594 7.335938 15.125 L 7.335938 16.484375 C 7.335938 16.554688 7.277344 16.617188 7.203125 16.617188 C 7.132812 16.617188 7.074219 16.554688 7.074219 16.484375 L 7.074219 15.125 C 7.074219 14.789062 7.34375 14.515625 7.679688 14.515625 L 12.582031 14.515625 C 12.617188 14.515625 12.652344 14.53125 12.679688 14.558594 L 15.011719 17.078125 C 15.035156 17.105469 15.046875 17.136719 15.046875 17.167969 L 15.050781 21.917969 C 15.050781 21.949219 15.035156 21.980469 15.015625 22.003906 L 12.902344 24.285156 C 12.875 24.3125 12.839844 24.328125 12.804688 24.328125 Z M 12.804688 24.328125 " fill-opacity="1" fill-rule="nonzero"/><path fill="#42bcfa" d="M 12.582031 14.648438 L 12.582031 16.464844 C 12.582031 16.855469 12.898438 17.167969 13.285156 17.167969 L 14.914062 17.167969 Z M 12.582031 14.648438 " fill-opacity="1" fill-rule="nonzero"/><path fill="#3a3b3b" d="M 14.914062 17.300781 L 13.285156 17.300781 C 12.824219 17.300781 12.449219 16.925781 12.449219 16.464844 L 12.449219 14.648438 C 12.449219 14.59375 12.484375 14.542969 12.535156 14.523438 C 12.585938 14.503906 12.640625 14.519531 12.679688 14.558594 L 15.011719 17.078125 C 15.046875 17.117188 15.058594 17.175781 15.035156 17.222656 C 15.015625 17.269531 14.96875 17.300781 14.914062 17.300781 Z M 12.714844 14.984375 L 12.714844 16.464844 C 12.714844 16.78125 12.972656 17.039062 13.285156 17.039062 L 14.613281 17.039062 Z M 12.714844 14.984375 " fill-opacity="1" fill-rule="nonzero"/><path fill="#3a3b3b" d="M 13.445312 18.179688 L 12.160156 18.179688 C 12.089844 18.179688 12.03125 18.117188 12.03125 18.046875 C 12.03125 17.972656 12.089844 17.914062 12.160156 17.914062 L 13.445312 17.914062 C 13.519531 17.914062 13.578125 17.972656 13.578125 18.046875 C 13.578125 18.117188 13.519531 18.179688 13.445312 18.179688 Z M 13.445312 18.179688 " fill-opacity="1" fill-rule="nonzero"/><path fill="#3a3b3b" d="M 13.445312 19.28125 L 12.160156 19.28125 C 12.089844 19.28125 12.03125 19.21875 12.03125 19.148438 C 12.03125 19.074219 12.089844 19.015625 12.160156 19.015625 L 13.445312 19.015625 C 13.519531 19.015625 13.578125 19.074219 13.578125 19.148438 C 13.578125 19.21875 13.519531 19.28125 13.445312 19.28125 Z M 13.445312 19.28125 " fill-opacity="1" fill-rule="nonzero"/><path fill="#ffffff" d="M 11.242188 20.425781 L 11.242188 16.960938 C 11.242188 16.695312 11.03125 16.484375 10.765625 16.484375 L 5.84375 16.484375 C 5.582031 16.484375 5.367188 16.695312 5.367188 16.960938 L 5.367188 21.882812 C 5.367188 22.144531 5.582031 22.359375 5.84375 22.359375 L 8.886719 22.359375 Z M 11.242188 20.425781 " fill-opacity="1" fill-rule="nonzero"/><path fill="#3a3b3b" d="M 8.886719 22.492188 L 5.84375 22.492188 C 5.507812 22.492188 5.238281 22.21875 5.238281 21.882812 L 5.238281 16.960938 C 5.238281 16.625 5.507812 16.351562 5.84375 16.351562 L 10.765625 16.351562 C 11.101562 16.351562 11.375 16.625 11.375 16.960938 L 11.375 20.425781 C 11.375 20.496094 11.316406 20.554688 11.242188 20.554688 C 11.171875 20.554688 11.113281 20.496094 11.113281 20.425781 L 11.113281 16.960938 C 11.113281 16.769531 10.957031 16.617188 10.765625 16.617188 L 5.84375 16.617188 C 5.65625 16.617188 5.5 16.769531 5.5 16.960938 L 5.5 21.882812 C 5.5 22.074219 5.65625 22.226562 5.84375 22.226562 L 8.886719 22.226562 C 8.960938 22.226562 9.019531 22.285156 9.019531 22.359375 C 9.019531 22.433594 8.960938 22.492188 8.886719 22.492188 Z M 8.886719 22.492188 " fill-opacity="1" fill-rule="nonzero"/><path fill="#42bcfa" d="M 7.113281 18.375 L 7.113281 20.445312 C 7.113281 20.769531 7.472656 20.964844 7.746094 20.792969 L 9.390625 19.757812 C 9.644531 19.597656 9.644531 19.222656 9.390625 19.0625 L 7.746094 18.027344 C 7.472656 17.855469 7.113281 18.050781 7.113281 18.375 Z M 7.113281 18.375 " fill-opacity="1" fill-rule="nonzero"/><path fill="#3a3b3b" d="M 7.527344 20.988281 C 7.4375 20.988281 7.347656 20.964844 7.265625 20.921875 C 7.089844 20.824219 6.984375 20.644531 6.984375 20.445312 L 6.984375 18.375 C 6.984375 18.175781 7.089844 17.996094 7.265625 17.898438 C 7.441406 17.800781 7.648438 17.808594 7.816406 17.914062 L 9.460938 18.949219 C 9.617188 19.050781 9.714844 19.222656 9.714844 19.410156 C 9.714844 19.597656 9.617188 19.769531 9.460938 19.871094 L 7.816406 20.90625 C 7.726562 20.960938 7.628906 20.988281 7.527344 20.988281 Z M 7.527344 18.09375 C 7.480469 18.09375 7.433594 18.105469 7.390625 18.128906 C 7.300781 18.179688 7.246094 18.273438 7.246094 18.375 L 7.246094 20.445312 C 7.246094 20.546875 7.300781 20.640625 7.390625 20.691406 C 7.480469 20.738281 7.589844 20.738281 7.675781 20.679688 L 9.320312 19.648438 C 9.402344 19.59375 9.449219 19.507812 9.449219 19.410156 C 9.449219 19.3125 9.402344 19.226562 9.320312 19.171875 L 7.675781 18.136719 C 7.628906 18.109375 7.578125 18.09375 7.527344 18.09375 Z M 7.527344 18.09375 " fill-opacity="1" fill-rule="nonzero"/><path fill="#42bcfa" d="M 15.753906 23.476562 C 15.753906 23.304688 15.734375 23.140625 15.703125 22.976562 L 16.390625 22.421875 C 16.3125 22.183594 16.214844 21.945312 16.082031 21.71875 C 15.949219 21.492188 15.796875 21.285156 15.625 21.101562 L 14.804688 21.417969 C 14.550781 21.199219 14.257812 21.03125 13.941406 20.917969 L 13.800781 20.046875 C 13.554688 19.992188 13.300781 19.960938 13.039062 19.960938 C 12.777344 19.960938 12.523438 19.992188 12.277344 20.046875 L 12.136719 20.917969 C 11.820312 21.03125 11.527344 21.199219 11.273438 21.417969 L 10.453125 21.101562 C 10.28125 21.285156 10.128906 21.492188 9.996094 21.71875 C 9.863281 21.945312 9.765625 22.183594 9.6875 22.421875 L 10.375 22.976562 C 10.34375 23.140625 10.324219 23.304688 10.324219 23.476562 C 10.324219 23.644531 10.34375 23.8125 10.375 23.972656 L 9.6875 24.53125 C 9.765625 24.769531 9.863281 25.003906 9.996094 25.234375 C 10.128906 25.460938 10.28125 25.664062 10.453125 25.851562 L 11.273438 25.535156 C 11.527344 25.75 11.820312 25.921875 12.136719 26.03125 L 12.277344 26.902344 C 12.523438 26.957031 12.777344 26.988281 13.039062 26.988281 C 13.300781 26.988281 13.554688 26.957031 13.800781 26.902344 L 13.941406 26.03125 C 14.257812 25.921875 14.550781 25.75 14.804688 25.535156 L 15.625 25.851562 C 15.796875 25.664062 15.949219 25.460938 16.082031 25.234375 C 16.214844 25.003906 16.3125 24.769531 16.390625 24.53125 L 15.703125 23.972656 C 15.734375 23.8125 15.753906 23.644531 15.753906 23.476562 Z M 15.753906 23.476562 " fill-opacity="1" fill-rule="nonzero"/><g clip-path="url(#ac1ec272bf)"><path fill="#3a3b3b" d="M 13.039062 27.121094 C 12.78125 27.121094 12.511719 27.089844 12.246094 27.03125 C 12.195312 27.019531 12.15625 26.976562 12.144531 26.925781 L 12.019531 26.128906 C 11.738281 26.023438 11.480469 25.875 11.25 25.683594 L 10.5 25.972656 C 10.449219 25.992188 10.390625 25.980469 10.355469 25.9375 C 10.171875 25.738281 10.011719 25.523438 9.882812 25.296875 C 9.75 25.074219 9.644531 24.828125 9.5625 24.570312 C 9.546875 24.515625 9.5625 24.460938 9.605469 24.425781 L 10.230469 23.921875 C 10.207031 23.769531 10.195312 23.621094 10.195312 23.476562 C 10.195312 23.332031 10.207031 23.183594 10.230469 23.03125 L 9.605469 22.523438 C 9.5625 22.492188 9.546875 22.433594 9.5625 22.382812 C 9.644531 22.125 9.75 21.878906 9.882812 21.652344 C 10.011719 21.429688 10.171875 21.210938 10.355469 21.011719 C 10.390625 20.972656 10.449219 20.957031 10.5 20.976562 L 11.25 21.265625 C 11.480469 21.078125 11.738281 20.929688 12.019531 20.820312 L 12.144531 20.027344 C 12.15625 19.972656 12.195312 19.929688 12.246094 19.917969 C 12.511719 19.859375 12.777344 19.832031 13.039062 19.832031 C 13.300781 19.832031 13.566406 19.859375 13.832031 19.917969 C 13.882812 19.929688 13.921875 19.972656 13.933594 20.027344 L 14.058594 20.820312 C 14.339844 20.929688 14.597656 21.078125 14.828125 21.265625 L 15.578125 20.976562 C 15.628906 20.957031 15.6875 20.972656 15.722656 21.011719 C 15.90625 21.210938 16.066406 21.429688 16.195312 21.652344 C 16.328125 21.878906 16.433594 22.125 16.515625 22.382812 C 16.53125 22.433594 16.515625 22.492188 16.472656 22.523438 L 15.847656 23.03125 C 15.871094 23.183594 15.882812 23.332031 15.882812 23.476562 C 15.882812 23.621094 15.871094 23.769531 15.847656 23.921875 L 16.472656 24.425781 C 16.515625 24.460938 16.53125 24.515625 16.515625 24.570312 C 16.433594 24.828125 16.328125 25.074219 16.195312 25.296875 C 16.066406 25.523438 15.90625 25.738281 15.722656 25.9375 C 15.6875 25.980469 15.628906 25.992188 15.578125 25.972656 L 14.828125 25.683594 C 14.597656 25.875 14.339844 26.023438 14.058594 26.128906 L 13.933594 26.925781 C 13.921875 26.976562 13.882812 27.019531 13.832031 27.03125 C 13.566406 27.089844 13.300781 27.121094 13.039062 27.121094 Z M 12.390625 26.792969 C 12.609375 26.835938 12.828125 26.859375 13.039062 26.859375 C 13.25 26.859375 13.46875 26.835938 13.6875 26.792969 L 13.808594 26.011719 C 13.816406 25.964844 13.851562 25.925781 13.894531 25.910156 C 14.199219 25.800781 14.476562 25.640625 14.71875 25.433594 C 14.753906 25.402344 14.804688 25.394531 14.851562 25.410156 L 15.589844 25.695312 C 15.734375 25.527344 15.863281 25.351562 15.96875 25.167969 C 16.074219 24.984375 16.164062 24.785156 16.234375 24.574219 L 15.621094 24.078125 C 15.585938 24.046875 15.566406 23.996094 15.574219 23.949219 C 15.605469 23.785156 15.621094 23.628906 15.621094 23.476562 C 15.621094 23.320312 15.605469 23.164062 15.574219 23 C 15.566406 22.953125 15.585938 22.90625 15.621094 22.875 L 16.234375 22.375 C 16.164062 22.167969 16.074219 21.96875 15.96875 21.785156 C 15.863281 21.601562 15.734375 21.421875 15.589844 21.257812 L 14.851562 21.539062 C 14.804688 21.558594 14.753906 21.546875 14.71875 21.515625 C 14.476562 21.308594 14.199219 21.148438 13.894531 21.042969 C 13.851562 21.027344 13.816406 20.988281 13.808594 20.9375 L 13.6875 20.15625 C 13.46875 20.117188 13.25 20.09375 13.039062 20.09375 C 12.828125 20.09375 12.609375 20.117188 12.390625 20.15625 L 12.269531 20.9375 C 12.261719 20.988281 12.226562 21.027344 12.183594 21.042969 C 11.878906 21.148438 11.601562 21.308594 11.359375 21.515625 C 11.324219 21.546875 11.273438 21.558594 11.226562 21.539062 L 10.488281 21.257812 C 10.34375 21.421875 10.214844 21.601562 10.109375 21.785156 C 10.003906 21.96875 9.914062 22.167969 9.84375 22.375 L 10.457031 22.875 C 10.492188 22.90625 10.511719 22.953125 10.503906 23 C 10.472656 23.164062 10.457031 23.320312 10.457031 23.476562 C 10.457031 23.628906 10.472656 23.785156 10.503906 23.949219 C 10.511719 23.996094 10.492188 24.046875 10.457031 24.078125 L 9.84375 24.574219 C 9.914062 24.785156 10.003906 24.984375 10.109375 25.167969 C 10.214844 25.351562 10.34375 25.527344 10.488281 25.695312 L 11.226562 25.410156 C 11.273438 25.394531 11.324219 25.402344 11.359375 25.433594 C 11.601562 25.640625 11.878906 25.800781 12.183594 25.910156 C 12.226562 25.925781 12.261719 25.964844 12.269531 26.011719 Z M 12.390625 26.792969 " fill-opacity="1" fill-rule="nonzero"/></g><path fill="#ffffff" d="M 14.632812 23.476562 C 14.632812 23.6875 14.59375 23.890625 14.511719 24.085938 C 14.429688 24.28125 14.316406 24.453125 14.167969 24.601562 C 14.015625 24.753906 13.84375 24.867188 13.648438 24.949219 C 13.453125 25.03125 13.25 25.070312 13.039062 25.070312 C 12.828125 25.070312 12.625 25.03125 12.429688 24.949219 C 12.234375 24.867188 12.0625 24.753906 11.910156 24.601562 C 11.761719 24.453125 11.648438 24.28125 11.566406 24.085938 C 11.484375 23.890625 11.445312 23.6875 11.445312 23.476562 C 11.445312 23.265625 11.484375 23.0625 11.566406 22.867188 C 11.648438 22.671875 11.761719 22.496094 11.910156 22.347656 C 12.0625 22.199219 12.234375 22.082031 12.429688 22.003906 C 12.625 21.921875 12.828125 21.882812 13.039062 21.882812 C 13.25 21.882812 13.453125 21.921875 13.648438 22.003906 C 13.84375 22.082031 14.015625 22.199219 14.167969 22.347656 C 14.316406 22.496094 14.429688 22.671875 14.511719 22.867188 C 14.59375 23.0625 14.632812 23.265625 14.632812 23.476562 Z M 14.632812 23.476562 " fill-opacity="1" fill-rule="nonzero"/><path fill="#3a3b3b" d="M 13.035156 25.203125 C 12.65625 25.203125 12.292969 25.078125 11.988281 24.84375 C 11.621094 24.5625 11.386719 24.15625 11.328125 23.699219 C 11.265625 23.242188 11.390625 22.789062 11.671875 22.425781 C 11.949219 22.058594 12.359375 21.824219 12.816406 21.765625 C 13.273438 21.703125 13.726562 21.824219 14.089844 22.105469 C 14.457031 22.386719 14.691406 22.792969 14.75 23.25 C 14.8125 23.707031 14.6875 24.160156 14.410156 24.527344 C 14.128906 24.894531 13.722656 25.128906 13.261719 25.1875 C 13.1875 25.199219 13.109375 25.203125 13.035156 25.203125 Z M 13.042969 22.011719 C 12.976562 22.011719 12.914062 22.015625 12.847656 22.023438 C 12.460938 22.074219 12.117188 22.273438 11.878906 22.585938 C 11.640625 22.894531 11.539062 23.277344 11.589844 23.664062 C 11.640625 24.054688 11.839844 24.398438 12.148438 24.636719 C 12.457031 24.875 12.84375 24.976562 13.230469 24.925781 C 13.617188 24.875 13.960938 24.675781 14.199219 24.367188 C 14.4375 24.058594 14.539062 23.671875 14.488281 23.285156 C 14.4375 22.898438 14.238281 22.554688 13.929688 22.316406 C 13.671875 22.117188 13.363281 22.011719 13.042969 22.011719 Z M 13.042969 22.011719 " fill-opacity="1" fill-rule="nonzero"/></svg>