<svg xmlns="http://www.w3.org/2000/svg" xmlns:xlink="http://www.w3.org/1999/xlink" width="40" zoomAndPan="magnify" viewBox="0 0 30 30.000001" height="40" preserveAspectRatio="xMidYMid meet" version="1.0"><defs><filter x="0%" y="0%" width="100%" height="100%" id="a0eeacbf11"><feColorMatrix values="0 0 0 0 1 0 0 0 0 1 0 0 0 0 1 0 0 0 1 0" color-interpolation-filters="sRGB"/></filter><clipPath id="178ca05b76"><path d="M 0.484375 0 L 29.515625 0 L 29.515625 29.03125 L 0.484375 29.03125 Z M 0.484375 0 " clip-rule="nonzero"/></clipPath><mask id="52e0275ec4"><g filter="url(#a0eeacbf11)"><rect x="-3" width="36" fill="#000000" y="-3" height="36.000001" fill-opacity="0.26"/></g></mask><clipPath id="ae11aa44fa"><path d="M 0.484375 1 L 29.515625 1 L 29.515625 25 L 0.484375 25 Z M 0.484375 1 " clip-rule="nonzero"/></clipPath><clipPath id="2164e69983"><path d="M 31.378906 5.359375 L 24.015625 31.183594 L -1.113281 24.023438 L 6.25 -1.804688 Z M 31.378906 5.359375 " clip-rule="nonzero"/></clipPath><clipPath id="0bb928adb4"><path d="M 31.378906 5.359375 L 24.015625 31.183594 L -1.113281 24.023438 L 6.25 -1.804688 Z M 31.378906 5.359375 " clip-rule="nonzero"/></clipPath><clipPath id="15686a95e8"><rect x="0" width="30" y="0" height="30"/></clipPath><clipPath id="60bcf78196"><path d="M 12 5.8125 L 18 5.8125 L 18 9 L 12 9 Z M 12 5.8125 " clip-rule="nonzero"/></clipPath><clipPath id="92d664dc4e"><path d="M 12 5.8125 L 18 5.8125 L 18 10 L 12 10 Z M 12 5.8125 " clip-rule="nonzero"/></clipPath><clipPath id="20be529eba"><path d="M 23 11 L 28.382812 11 L 28.382812 14 L 23 14 Z M 23 11 " clip-rule="nonzero"/></clipPath><clipPath id="2beef597dc"><path d="M 1.527344 11 L 7 11 L 7 14 L 1.527344 14 Z M 1.527344 11 " clip-rule="nonzero"/></clipPath><clipPath id="a0ea922375"><path d="M 4 12 L 26 12 L 26 23.230469 L 4 23.230469 Z M 4 12 " clip-rule="nonzero"/></clipPath></defs><g clip-path="url(#178ca05b76)"><g mask="url(#52e0275ec4)"><g transform="matrix(1, 0, 0, 1, 0, 0.000000000000005692)"><g clip-path="url(#15686a95e8)"><g clip-path="url(#ae11aa44fa)"><g clip-path="url(#2164e69983)"><g clip-path="url(#0bb928adb4)"><path fill="#2cb2f1" d="M 5.6875 4.78125 C 6.277344 3.128906 7.679688 1.789062 9.355469 1.277344 C 11.6875 0.5625 14.253906 1.441406 16.222656 2.878906 C 16.773438 3.28125 17.300781 3.730469 17.925781 4.003906 C 19.257812 4.585938 20.777344 4.285156 22.21875 4.128906 C 24.621094 3.863281 27.445312 4.21875 28.761719 6.246094 C 29.554688 7.472656 29.601562 9.035156 29.429688 10.488281 C 29.152344 12.777344 28.265625 15.164062 26.335938 16.421875 C 25.667969 16.855469 24.886719 17.148438 24.34375 17.734375 C 23.785156 18.339844 23.5625 19.171875 23.273438 19.941406 C 22.324219 22.449219 20.046875 24.765625 17.378906 24.546875 C 16.390625 24.46875 15.460938 24.046875 14.484375 23.859375 C 12.378906 23.453125 10.238281 24.136719 8.132812 24.53125 C 6.023438 24.925781 3.609375 24.957031 2.011719 23.527344 C 0.488281 22.164062 0.242188 19.589844 1.484375 17.964844 C 1.894531 17.429688 2.417969 17.007812 2.902344 16.542969 C 4.175781 15.316406 5.132812 13.773438 5.6875 12.097656 C 5.914062 11.414062 6.269531 10.464844 6.164062 9.734375 C 6.117188 9.414062 5.90625 9.117188 5.789062 8.816406 C 5.632812 8.429688 5.519531 8.027344 5.449219 7.617188 C 5.289062 6.675781 5.363281 5.6875 5.6875 4.78125 Z M 5.6875 4.78125 " fill-opacity="1" fill-rule="nonzero"/></g></g></g></g></g></g></g><path fill="#f8c09d" d="M 14.214844 11.21875 L 13.730469 13.050781 L 16.230469 13.222656 L 15.765625 10.964844 Z M 14.214844 11.21875 " fill-opacity="1" fill-rule="evenodd"/><path fill="#f8c09d" d="M 13.046875 8.667969 C 13.046875 8.667969 12.804688 8.617188 12.570312 8.742188 C 12.332031 8.871094 12.683594 9.601562 12.921875 9.671875 C 13.160156 9.742188 13.371094 9.445312 13.371094 9.445312 Z M 13.046875 8.667969 " fill-opacity="1" fill-rule="evenodd"/><path fill="#ef937e" d="M 16.109375 11.28125 C 16.109375 11.28125 15.835938 11.992188 15.507812 12.171875 C 15.179688 12.351562 13.941406 12.253906 13.941406 12.253906 L 14.203125 11.285156 Z M 16.109375 11.28125 " fill-opacity="1" fill-rule="evenodd"/><path fill="#f8c09d" d="M 16.925781 8.667969 C 16.925781 8.667969 17.15625 8.617188 17.386719 8.742188 C 17.621094 8.867188 17.277344 9.582031 17.046875 9.652344 C 16.8125 9.71875 16.609375 9.425781 16.609375 9.425781 Z M 16.925781 8.667969 " fill-opacity="1" fill-rule="evenodd"/><path fill="#f8c09d" d="M 12.851562 7.871094 C 12.851562 7.871094 12.75 11.921875 14.925781 11.964844 C 17.101562 12.003906 17.132812 8.527344 17.058594 7.722656 C 16.988281 6.914062 13.25 6.851562 12.851562 7.871094 Z M 12.851562 7.871094 " fill-opacity="1" fill-rule="evenodd"/><g clip-path="url(#60bcf78196)"><path fill="#0f2437" d="M 16.382812 7.679688 C 16.382812 7.679688 14.527344 8.292969 13.609375 7.722656 C 12.695312 7.144531 12.96875 8.972656 12.96875 8.972656 C 12.96875 8.972656 12.121094 7.09375 13.175781 6.46875 C 14.226562 5.84375 16.21875 5.816406 16.933594 6.527344 C 17.644531 7.238281 16.996094 8.972656 16.996094 8.972656 C 16.996094 8.972656 17.164062 7.308594 16.382812 7.679688 Z M 16.382812 7.679688 " fill-opacity="1" fill-rule="evenodd"/></g><g clip-path="url(#92d664dc4e)"><path fill="#0f2437" d="M 16.386719 7.691406 C 16.382812 7.691406 14.527344 8.308594 13.605469 7.726562 C 12.714844 7.171875 12.980469 8.96875 12.980469 8.972656 L 12.996094 9.058594 L 12.957031 8.980469 C 12.957031 8.972656 12.109375 7.09375 13.167969 6.460938 C 13.710938 6.140625 14.496094 5.972656 15.230469 5.984375 C 15.933594 5.996094 16.589844 6.167969 16.941406 6.519531 C 17.65625 7.234375 17.007812 8.972656 17.007812 8.980469 L 16.972656 9.066406 L 16.984375 8.972656 C 16.984375 8.96875 17.148438 7.328125 16.390625 7.691406 Z M 13.617188 7.710938 C 14.523438 8.277344 16.355469 7.675781 16.378906 7.667969 C 17.0625 7.34375 17.039062 8.527344 17.015625 8.875 C 17.136719 8.515625 17.535156 7.144531 16.925781 6.535156 C 16.578125 6.1875 15.925781 6.019531 15.230469 6.011719 C 14.5 6 13.71875 6.160156 13.183594 6.480469 C 12.269531 7.023438 12.800781 8.519531 12.949219 8.882812 C 12.90625 8.523438 12.804688 7.199219 13.617188 7.710938 Z M 13.617188 7.710938 " fill-opacity="1" fill-rule="nonzero"/></g><path fill="#0f2437" d="M 13.578125 8.453125 C 13.550781 8.476562 13.503906 8.476562 13.480469 8.453125 C 13.453125 8.425781 13.453125 8.382812 13.480469 8.355469 C 13.480469 8.355469 13.921875 7.890625 14.394531 8.355469 C 14.421875 8.382812 14.421875 8.425781 14.394531 8.453125 C 14.367188 8.476562 14.320312 8.476562 14.296875 8.453125 C 13.925781 8.082031 13.578125 8.453125 13.578125 8.453125 Z M 13.578125 8.453125 " fill-opacity="1" fill-rule="nonzero"/><path fill="#0f2437" d="M 15.539062 8.453125 C 15.511719 8.476562 15.472656 8.476562 15.445312 8.453125 C 15.417969 8.425781 15.417969 8.382812 15.445312 8.355469 C 15.445312 8.355469 15.890625 7.890625 16.355469 8.355469 C 16.382812 8.382812 16.382812 8.425781 16.355469 8.453125 C 16.328125 8.476562 16.289062 8.476562 16.261719 8.453125 C 15.890625 8.082031 15.539062 8.453125 15.539062 8.453125 Z M 15.539062 8.453125 " fill-opacity="1" fill-rule="nonzero"/><path fill="#0f2437" d="M 13.90625 8.867188 C 13.988281 8.867188 14.050781 8.925781 14.050781 9.003906 C 14.050781 9.085938 13.988281 9.148438 13.90625 9.148438 C 13.828125 9.148438 13.765625 9.085938 13.765625 9.003906 C 13.765625 8.925781 13.828125 8.867188 13.90625 8.867188 Z M 13.90625 8.867188 " fill-opacity="1" fill-rule="evenodd"/><path fill="#0f2437" d="M 15.878906 8.867188 C 15.957031 8.867188 16.019531 8.925781 16.019531 9.003906 C 16.019531 9.085938 15.957031 9.148438 15.878906 9.148438 C 15.796875 9.148438 15.734375 9.085938 15.734375 9.003906 C 15.734375 8.925781 15.796875 8.867188 15.878906 8.867188 Z M 15.878906 8.867188 " fill-opacity="1" fill-rule="evenodd"/><path fill="#0f2437" d="M 14.414062 10.679688 C 14.386719 10.691406 14.355469 10.675781 14.34375 10.652344 C 14.332031 10.625 14.347656 10.59375 14.375 10.585938 C 14.375 10.582031 14.984375 10.351562 15.476562 10.398438 C 15.507812 10.398438 15.527344 10.425781 15.523438 10.449219 C 15.523438 10.480469 15.496094 10.503906 15.472656 10.5 C 14.996094 10.457031 14.414062 10.679688 14.414062 10.679688 Z M 14.414062 10.679688 " fill-opacity="1" fill-rule="nonzero"/><path fill="#0f2437" d="M 12.996094 9.28125 C 13 9.296875 12.988281 9.308594 12.972656 9.308594 C 12.960938 9.3125 12.949219 9.304688 12.945312 9.292969 C 12.945312 9.289062 12.875 8.902344 12.804688 8.839844 C 12.789062 8.828125 12.769531 8.824219 12.753906 8.820312 C 12.738281 8.820312 12.71875 8.824219 12.699219 8.832031 C 12.679688 8.839844 12.664062 8.855469 12.652344 8.871094 C 12.640625 8.878906 12.636719 8.894531 12.636719 8.910156 C 12.632812 8.925781 12.621094 8.9375 12.605469 8.933594 C 12.589844 8.933594 12.582031 8.921875 12.582031 8.90625 C 12.585938 8.878906 12.597656 8.855469 12.613281 8.835938 C 12.632812 8.8125 12.652344 8.796875 12.675781 8.785156 C 12.703125 8.773438 12.734375 8.769531 12.757812 8.769531 C 12.785156 8.769531 12.8125 8.78125 12.835938 8.800781 C 12.925781 8.875 12.996094 9.28125 12.996094 9.28125 Z M 12.996094 9.28125 " fill-opacity="1" fill-rule="nonzero"/><path fill="#0f2437" d="M 13.007812 9.28125 C 13.007812 9.289062 13.007812 9.296875 13 9.304688 C 12.996094 9.3125 12.988281 9.320312 12.976562 9.320312 C 12.964844 9.324219 12.957031 9.320312 12.953125 9.316406 C 12.945312 9.308594 12.9375 9.300781 12.9375 9.292969 C 12.933594 9.289062 12.863281 8.90625 12.796875 8.851562 C 12.789062 8.84375 12.78125 8.839844 12.777344 8.839844 C 12.769531 8.835938 12.761719 8.832031 12.753906 8.832031 C 12.746094 8.832031 12.738281 8.832031 12.730469 8.832031 C 12.722656 8.835938 12.714844 8.839844 12.707031 8.839844 L 12.703125 8.84375 C 12.695312 8.847656 12.6875 8.851562 12.679688 8.855469 C 12.671875 8.863281 12.667969 8.871094 12.660156 8.875 C 12.65625 8.878906 12.652344 8.886719 12.648438 8.894531 C 12.644531 8.898438 12.644531 8.90625 12.640625 8.910156 C 12.640625 8.921875 12.640625 8.929688 12.632812 8.9375 C 12.625 8.945312 12.617188 8.945312 12.605469 8.945312 C 12.59375 8.945312 12.585938 8.941406 12.578125 8.933594 C 12.574219 8.925781 12.570312 8.914062 12.570312 8.90625 C 12.574219 8.890625 12.574219 8.875 12.582031 8.867188 C 12.589844 8.851562 12.597656 8.839844 12.605469 8.828125 C 12.617188 8.816406 12.625 8.804688 12.636719 8.796875 C 12.644531 8.789062 12.660156 8.78125 12.671875 8.773438 L 12.675781 8.773438 C 12.6875 8.769531 12.703125 8.765625 12.71875 8.761719 C 12.734375 8.761719 12.746094 8.757812 12.761719 8.761719 C 12.773438 8.761719 12.789062 8.765625 12.804688 8.769531 C 12.816406 8.773438 12.832031 8.78125 12.84375 8.792969 C 12.933594 8.871094 13.003906 9.273438 13.007812 9.28125 Z M 12.980469 9.296875 C 12.984375 9.292969 12.984375 9.289062 12.984375 9.285156 C 12.984375 9.277344 12.914062 8.878906 12.828125 8.808594 C 12.820312 8.800781 12.808594 8.792969 12.796875 8.789062 C 12.785156 8.785156 12.769531 8.78125 12.757812 8.777344 C 12.746094 8.777344 12.734375 8.777344 12.722656 8.78125 C 12.707031 8.785156 12.695312 8.789062 12.683594 8.792969 L 12.679688 8.796875 C 12.667969 8.800781 12.65625 8.808594 12.648438 8.816406 C 12.640625 8.824219 12.632812 8.832031 12.625 8.84375 C 12.613281 8.851562 12.609375 8.863281 12.601562 8.875 C 12.597656 8.882812 12.59375 8.894531 12.59375 8.90625 C 12.59375 8.910156 12.59375 8.914062 12.597656 8.917969 C 12.597656 8.921875 12.601562 8.921875 12.605469 8.921875 C 12.613281 8.925781 12.617188 8.921875 12.617188 8.921875 C 12.621094 8.917969 12.625 8.914062 12.625 8.910156 C 12.625 8.902344 12.628906 8.890625 12.632812 8.882812 C 12.636719 8.875 12.640625 8.871094 12.644531 8.863281 C 12.648438 8.855469 12.65625 8.847656 12.667969 8.839844 C 12.671875 8.835938 12.679688 8.832031 12.6875 8.828125 L 12.683594 8.828125 L 12.695312 8.824219 C 12.707031 8.816406 12.714844 8.8125 12.726562 8.8125 C 12.738281 8.808594 12.746094 8.808594 12.753906 8.808594 C 12.765625 8.8125 12.773438 8.8125 12.785156 8.816406 C 12.792969 8.820312 12.800781 8.828125 12.808594 8.832031 C 12.886719 8.894531 12.957031 9.285156 12.957031 9.289062 C 12.957031 9.292969 12.957031 9.296875 12.960938 9.296875 C 12.964844 9.296875 12.96875 9.300781 12.972656 9.296875 C 12.976562 9.296875 12.980469 9.296875 12.980469 9.296875 Z M 12.980469 9.296875 " fill-opacity="1" fill-rule="nonzero"/><path fill="#0f2437" d="M 12.847656 9.109375 C 12.855469 9.097656 12.871094 9.101562 12.882812 9.109375 C 12.890625 9.121094 12.890625 9.136719 12.882812 9.148438 C 12.878906 9.148438 12.75 9.265625 12.941406 9.355469 C 12.953125 9.363281 12.957031 9.378906 12.953125 9.390625 C 12.945312 9.402344 12.929688 9.40625 12.917969 9.402344 C 12.660156 9.28125 12.847656 9.109375 12.847656 9.109375 Z M 12.847656 9.109375 " fill-opacity="1" fill-rule="nonzero"/><path fill="#0f2437" d="M 12.839844 9.101562 C 12.847656 9.09375 12.855469 9.089844 12.863281 9.089844 C 12.875 9.089844 12.882812 9.09375 12.890625 9.101562 C 12.898438 9.109375 12.902344 9.121094 12.902344 9.128906 C 12.898438 9.140625 12.894531 9.148438 12.886719 9.15625 C 12.886719 9.160156 12.867188 9.175781 12.859375 9.195312 C 12.84375 9.234375 12.839844 9.296875 12.945312 9.34375 C 12.953125 9.351562 12.957031 9.359375 12.960938 9.367188 C 12.964844 9.375 12.964844 9.382812 12.960938 9.394531 C 12.957031 9.402344 12.949219 9.40625 12.941406 9.410156 C 12.933594 9.414062 12.921875 9.414062 12.914062 9.410156 C 12.75 9.332031 12.753906 9.234375 12.789062 9.171875 C 12.808594 9.128906 12.839844 9.101562 12.839844 9.101562 Z M 12.863281 9.113281 C 12.859375 9.113281 12.855469 9.113281 12.851562 9.117188 C 12.851562 9.117188 12.828125 9.144531 12.808594 9.183594 C 12.78125 9.238281 12.773438 9.320312 12.921875 9.394531 C 12.925781 9.394531 12.929688 9.394531 12.933594 9.394531 C 12.9375 9.394531 12.941406 9.390625 12.941406 9.386719 C 12.945312 9.382812 12.945312 9.378906 12.945312 9.375 C 12.941406 9.371094 12.941406 9.367188 12.9375 9.363281 C 12.8125 9.304688 12.816406 9.234375 12.839844 9.1875 C 12.851562 9.160156 12.871094 9.140625 12.875 9.140625 C 12.875 9.136719 12.878906 9.132812 12.878906 9.128906 C 12.878906 9.125 12.875 9.121094 12.875 9.117188 C 12.871094 9.113281 12.867188 9.113281 12.863281 9.113281 Z M 12.863281 9.113281 " fill-opacity="1" fill-rule="nonzero"/><path fill="#0f2437" d="M 17.019531 9.292969 C 17.015625 9.304688 17.003906 9.3125 16.988281 9.308594 C 16.972656 9.308594 16.964844 9.296875 16.964844 9.28125 C 16.964844 9.28125 17.039062 8.875 17.128906 8.800781 C 17.148438 8.78125 17.175781 8.769531 17.203125 8.769531 C 17.234375 8.769531 17.257812 8.773438 17.285156 8.785156 C 17.3125 8.796875 17.332031 8.8125 17.351562 8.835938 C 17.367188 8.855469 17.378906 8.878906 17.378906 8.90625 C 17.382812 8.921875 17.371094 8.933594 17.359375 8.933594 C 17.34375 8.9375 17.332031 8.925781 17.332031 8.910156 C 17.328125 8.894531 17.320312 8.878906 17.308594 8.871094 C 17.296875 8.855469 17.28125 8.839844 17.261719 8.832031 C 17.246094 8.824219 17.226562 8.820312 17.207031 8.820312 C 17.191406 8.824219 17.175781 8.828125 17.160156 8.839844 C 17.085938 8.902344 17.019531 9.289062 17.019531 9.292969 Z M 17.019531 9.292969 " fill-opacity="1" fill-rule="nonzero"/><path fill="#0f2437" d="M 17.03125 9.292969 C 17.027344 9.300781 17.023438 9.308594 17.015625 9.316406 C 17.007812 9.320312 16.996094 9.324219 16.984375 9.320312 C 16.976562 9.320312 16.96875 9.3125 16.960938 9.304688 C 16.957031 9.296875 16.953125 9.292969 16.957031 9.28125 C 16.957031 9.277344 17.03125 8.871094 17.121094 8.792969 C 17.132812 8.78125 17.148438 8.773438 17.15625 8.769531 C 17.171875 8.765625 17.1875 8.761719 17.203125 8.761719 C 17.21875 8.757812 17.234375 8.761719 17.246094 8.761719 C 17.261719 8.765625 17.273438 8.769531 17.289062 8.773438 L 17.296875 8.777344 C 17.308594 8.785156 17.320312 8.789062 17.328125 8.796875 C 17.339844 8.804688 17.351562 8.816406 17.359375 8.828125 C 17.367188 8.839844 17.375 8.851562 17.378906 8.867188 C 17.386719 8.875 17.390625 8.890625 17.390625 8.90625 C 17.390625 8.914062 17.386719 8.925781 17.382812 8.933594 C 17.375 8.941406 17.367188 8.945312 17.359375 8.945312 C 17.351562 8.945312 17.339844 8.945312 17.332031 8.9375 C 17.324219 8.929688 17.320312 8.921875 17.320312 8.910156 C 17.320312 8.90625 17.316406 8.898438 17.3125 8.894531 C 17.3125 8.886719 17.308594 8.878906 17.300781 8.875 C 17.296875 8.871094 17.289062 8.863281 17.28125 8.855469 C 17.273438 8.851562 17.265625 8.847656 17.257812 8.84375 C 17.253906 8.839844 17.242188 8.835938 17.234375 8.832031 C 17.226562 8.832031 17.21875 8.832031 17.210938 8.832031 C 17.203125 8.832031 17.195312 8.835938 17.1875 8.839844 C 17.179688 8.839844 17.171875 8.84375 17.167969 8.851562 C 17.097656 8.90625 17.03125 9.289062 17.03125 9.292969 Z M 17 9.296875 C 17.003906 9.296875 17.007812 9.292969 17.007812 9.289062 C 17.007812 9.285156 17.078125 8.894531 17.152344 8.832031 C 17.160156 8.828125 17.167969 8.820312 17.179688 8.816406 C 17.1875 8.8125 17.195312 8.8125 17.207031 8.808594 C 17.21875 8.808594 17.226562 8.808594 17.238281 8.8125 C 17.25 8.8125 17.253906 8.816406 17.265625 8.820312 L 17.265625 8.824219 C 17.277344 8.828125 17.285156 8.832031 17.296875 8.839844 C 17.304688 8.847656 17.3125 8.855469 17.320312 8.863281 C 17.324219 8.871094 17.332031 8.875 17.335938 8.882812 C 17.339844 8.890625 17.339844 8.902344 17.339844 8.910156 C 17.34375 8.914062 17.34375 8.917969 17.347656 8.921875 C 17.351562 8.921875 17.355469 8.925781 17.359375 8.921875 C 17.359375 8.921875 17.363281 8.921875 17.367188 8.917969 C 17.367188 8.914062 17.371094 8.910156 17.367188 8.90625 C 17.367188 8.894531 17.363281 8.882812 17.359375 8.875 C 17.359375 8.863281 17.351562 8.851562 17.34375 8.84375 C 17.335938 8.832031 17.324219 8.824219 17.3125 8.816406 C 17.304688 8.808594 17.292969 8.800781 17.28125 8.792969 L 17.277344 8.792969 C 17.265625 8.789062 17.253906 8.785156 17.242188 8.78125 C 17.230469 8.777344 17.21875 8.777344 17.203125 8.777344 C 17.191406 8.78125 17.179688 8.785156 17.167969 8.789062 C 17.15625 8.792969 17.148438 8.800781 17.136719 8.808594 C 17.046875 8.878906 16.976562 9.28125 16.976562 9.285156 C 16.976562 9.289062 16.976562 9.292969 16.980469 9.296875 C 16.980469 9.296875 16.984375 9.296875 16.988281 9.296875 C 16.996094 9.300781 17 9.296875 17 9.296875 Z M 17 9.296875 " fill-opacity="1" fill-rule="nonzero"/><path fill="#0f2437" d="M 17.082031 9.148438 C 17.070312 9.136719 17.070312 9.121094 17.078125 9.109375 C 17.089844 9.101562 17.105469 9.097656 17.117188 9.109375 C 17.117188 9.109375 17.300781 9.28125 17.046875 9.402344 C 17.035156 9.40625 17.019531 9.402344 17.011719 9.390625 C 17.007812 9.378906 17.011719 9.363281 17.027344 9.355469 C 17.210938 9.265625 17.082031 9.148438 17.082031 9.148438 Z M 17.082031 9.148438 " fill-opacity="1" fill-rule="nonzero"/><path fill="#0f2437" d="M 17.074219 9.15625 C 17.066406 9.148438 17.0625 9.140625 17.0625 9.128906 C 17.0625 9.121094 17.066406 9.109375 17.070312 9.101562 C 17.078125 9.09375 17.089844 9.089844 17.097656 9.089844 C 17.109375 9.089844 17.117188 9.09375 17.125 9.101562 C 17.128906 9.105469 17.15625 9.132812 17.175781 9.171875 C 17.207031 9.234375 17.214844 9.332031 17.050781 9.410156 C 17.042969 9.414062 17.035156 9.414062 17.023438 9.410156 C 17.015625 9.40625 17.007812 9.402344 17.003906 9.394531 C 17 9.386719 17 9.375 17 9.367188 C 17.003906 9.359375 17.011719 9.351562 17.019531 9.34375 C 17.125 9.296875 17.125 9.234375 17.105469 9.195312 C 17.09375 9.171875 17.074219 9.15625 17.074219 9.15625 Z M 17.082031 9.128906 C 17.085938 9.132812 17.085938 9.136719 17.089844 9.140625 C 17.09375 9.144531 17.113281 9.160156 17.125 9.1875 C 17.148438 9.234375 17.148438 9.304688 17.03125 9.363281 C 17.027344 9.367188 17.023438 9.371094 17.023438 9.375 C 17.019531 9.378906 17.019531 9.382812 17.023438 9.386719 C 17.023438 9.390625 17.027344 9.394531 17.03125 9.394531 C 17.035156 9.394531 17.039062 9.394531 17.042969 9.394531 C 17.1875 9.320312 17.183594 9.238281 17.152344 9.183594 C 17.140625 9.144531 17.109375 9.117188 17.109375 9.117188 C 17.105469 9.113281 17.101562 9.113281 17.097656 9.113281 C 17.09375 9.113281 17.089844 9.113281 17.089844 9.117188 C 17.085938 9.121094 17.082031 9.125 17.082031 9.128906 Z M 17.082031 9.128906 " fill-opacity="1" fill-rule="nonzero"/><g clip-path="url(#20be529eba)"><path fill="#f8c09d" d="M 28.464844 11.34375 C 28.464844 11.34375 28.261719 11 27.691406 11.292969 C 26.347656 11.984375 24.496094 11.328125 24.203125 11.601562 C 23.804688 11.972656 23.894531 12.925781 23.804688 12.914062 C 23.714844 12.898438 25.878906 13.28125 25.878906 13.28125 C 25.878906 13.28125 25.859375 12.402344 25.96875 12.402344 C 26.160156 12.402344 28.1875 12.230469 28.464844 11.34375 Z M 28.464844 11.34375 " fill-opacity="1" fill-rule="evenodd"/></g><g clip-path="url(#2beef597dc)"><path fill="#f8c09d" d="M 1.527344 11.359375 C 1.527344 11.359375 1.730469 11.015625 2.300781 11.304688 C 3.644531 12 5.496094 11.339844 5.785156 11.613281 C 6.183594 11.988281 6.097656 12.941406 6.1875 12.929688 C 6.277344 12.914062 4.113281 13.296875 4.113281 13.296875 C 4.113281 13.296875 4.132812 12.414062 4.023438 12.414062 C 3.832031 12.414062 1.800781 12.242188 1.527344 11.359375 Z M 1.527344 11.359375 " fill-opacity="1" fill-rule="evenodd"/></g><g clip-path="url(#a0ea922375)"><path fill="#2cb2f1" d="M 14.109375 12.601562 C 14.332031 12.703125 14.652344 12.828125 14.980469 12.847656 C 15.304688 12.828125 15.628906 12.703125 15.847656 12.601562 C 15.992188 12.515625 16.074219 12.4375 16.074219 12.4375 C 19.367188 13.125 19.441406 14.230469 21.78125 16.238281 C 23.296875 17.535156 23.804688 12.910156 23.804688 12.910156 L 25.878906 12.910156 C 25.878906 12.910156 26.023438 20.730469 22.75 21.316406 C 19.472656 21.894531 18.417969 19.460938 18.417969 19.460938 C 18.417969 19.460938 18.320312 21.871094 18.65625 23.214844 L 14.851562 23.121094 L 11.269531 23.207031 C 11.601562 21.867188 11.539062 19.460938 11.539062 19.460938 C 11.539062 19.460938 10.484375 21.894531 7.207031 21.316406 C 3.9375 20.730469 4.082031 12.910156 4.082031 12.910156 L 6.152344 12.910156 C 6.152344 12.910156 6.664062 17.535156 8.179688 16.238281 C 10.523438 14.230469 10.59375 13.125 13.886719 12.4375 C 13.886719 12.4375 13.972656 12.515625 14.109375 12.601562 Z M 14.109375 12.601562 " fill-opacity="1" fill-rule="evenodd"/></g><path fill="#0f2437" d="M 11.578125 17.421875 C 11.578125 17.394531 11.601562 17.371094 11.628906 17.371094 C 11.660156 17.371094 11.683594 17.398438 11.683594 17.425781 C 11.683594 17.4375 11.5625 21.292969 11.46875 22.175781 C 11.464844 22.199219 11.441406 22.222656 11.410156 22.21875 C 11.382812 22.214844 11.363281 22.195312 11.367188 22.164062 C 11.457031 21.285156 11.578125 17.433594 11.578125 17.421875 Z M 11.578125 17.421875 " fill-opacity="1" fill-rule="nonzero"/><path fill="#0f2437" d="M 18.273438 17.425781 C 18.269531 17.398438 18.292969 17.371094 18.320312 17.371094 C 18.347656 17.371094 18.375 17.394531 18.375 17.421875 C 18.375 17.433594 18.496094 21.285156 18.585938 22.164062 C 18.589844 22.195312 18.570312 22.214844 18.539062 22.21875 C 18.511719 22.222656 18.488281 22.199219 18.484375 22.175781 C 18.394531 21.292969 18.273438 17.4375 18.273438 17.425781 Z M 18.273438 17.425781 " fill-opacity="1" fill-rule="nonzero"/><path fill="#0f2437" d="M 24.042969 12.945312 C 24.015625 12.945312 23.992188 12.921875 23.992188 12.890625 C 23.992188 12.863281 24.015625 12.84375 24.042969 12.84375 L 25.855469 12.84375 C 25.882812 12.84375 25.90625 12.863281 25.90625 12.890625 C 25.90625 12.921875 25.882812 12.945312 25.855469 12.945312 Z M 24.042969 12.945312 " fill-opacity="1" fill-rule="nonzero"/><path fill="#0f2437" d="M 4.105469 12.945312 C 4.078125 12.945312 4.050781 12.921875 4.050781 12.890625 C 4.050781 12.863281 4.078125 12.84375 4.105469 12.84375 L 5.917969 12.84375 C 5.945312 12.84375 5.96875 12.863281 5.96875 12.890625 C 5.96875 12.921875 5.945312 12.945312 5.917969 12.945312 Z M 4.105469 12.945312 " fill-opacity="1" fill-rule="nonzero"/><path fill="#0f2437" d="M 13.867188 12.472656 C 13.847656 12.457031 13.847656 12.433594 13.863281 12.414062 C 13.878906 12.398438 13.898438 12.394531 13.917969 12.410156 C 13.921875 12.414062 14.917969 13.300781 16.046875 12.40625 C 16.066406 12.390625 16.09375 12.394531 16.105469 12.414062 C 16.117188 12.429688 16.117188 12.453125 16.101562 12.46875 C 14.917969 13.40625 13.867188 12.476562 13.867188 12.472656 Z M 13.867188 12.472656 " fill-opacity="1" fill-rule="nonzero"/></svg>