<svg xmlns="http://www.w3.org/2000/svg" xmlns:xlink="http://www.w3.org/1999/xlink" width="40" zoomAndPan="magnify" viewBox="0 0 30 30.000001" height="40" preserveAspectRatio="xMidYMid meet" version="1.0"><defs><filter x="0%" y="0%" width="100%" height="100%" id="5d73b07656"><feColorMatrix values="0 0 0 0 1 0 0 0 0 1 0 0 0 0 1 0 0 0 1 0" color-interpolation-filters="sRGB"/></filter><mask id="1ece1b4541"><g filter="url(#5d73b07656)"><rect x="-3" width="36" fill="#000000" y="-3" height="36.000001" fill-opacity="0.26"/></g></mask><clipPath id="4095fabfff"><path d="M 0.109375 0.453125 L 26 0.453125 L 26 26 L 0.109375 26 Z M 0.109375 0.453125 " clip-rule="nonzero"/></clipPath><clipPath id="4cc15bb010"><rect x="0" width="27" y="0" height="27"/></clipPath><clipPath id="552dd66c0e"><path d="M 4.445312 19.21875 L 12.484375 19.21875 L 12.484375 24.957031 L 4.445312 24.957031 Z M 4.445312 19.21875 " clip-rule="nonzero"/></clipPath><clipPath id="30c8b0508f"><path d="M 4.863281 18.589844 L 26 18.589844 L 26 24.957031 L 4.863281 24.957031 Z M 4.863281 18.589844 " clip-rule="nonzero"/></clipPath><clipPath id="7000c06fe0"><path d="M 14.570312 9.457031 L 27.390625 9.457031 L 27.390625 20.210938 L 14.570312 20.210938 Z M 14.570312 9.457031 " clip-rule="nonzero"/></clipPath><clipPath id="dfc50fc001"><path d="M 5 4.070312 L 10 4.070312 L 10 9 L 5 9 Z M 5 4.070312 " clip-rule="nonzero"/></clipPath><clipPath id="a49fde777c"><path d="M 6 4.070312 L 24 4.070312 L 24 12 L 6 12 Z M 6 4.070312 " clip-rule="nonzero"/></clipPath><clipPath id="dd51d977ea"><path d="M 19 4.070312 L 24 4.070312 L 24 9 L 19 9 Z M 19 4.070312 " clip-rule="nonzero"/></clipPath></defs><g mask="url(#1ece1b4541)"><g transform="matrix(1, 0, 0, 1, 2, 1)"><g clip-path="url(#4cc15bb010)"><g clip-path="url(#4095fabfff)"><path fill="#2cb2f1" d="M 6.421875 25.316406 C 4.671875 25.203125 3 24.21875 2.046875 22.746094 C 0.71875 20.699219 0.863281 17.992188 1.703125 15.707031 C 1.9375 15.066406 2.230469 14.433594 2.320312 13.757812 C 2.515625 12.320312 1.808594 10.941406 1.265625 9.597656 C 0.351562 7.359375 -0.0820312 4.542969 1.507812 2.726562 C 2.46875 1.625 3.957031 1.152344 5.402344 0.917969 C 7.675781 0.554688 10.214844 0.753906 11.957031 2.265625 C 12.558594 2.789062 13.054688 3.460938 13.765625 3.820312 C 14.5 4.191406 15.359375 4.179688 16.179688 4.246094 C 18.851562 4.472656 21.707031 6.027344 22.226562 8.65625 C 22.421875 9.625 22.269531 10.636719 22.359375 11.625 C 22.546875 13.761719 23.789062 15.632812 24.746094 17.546875 C 25.703125 19.46875 26.394531 21.78125 25.457031 23.710938 C 24.5625 25.550781 22.15625 26.492188 20.253906 25.742188 C 19.628906 25.496094 19.078125 25.105469 18.5 24.769531 C 16.96875 23.882812 15.222656 23.382812 13.457031 23.308594 C 12.742188 23.28125 11.726562 23.199219 11.058594 23.5 C 10.757812 23.632812 10.53125 23.914062 10.277344 24.113281 C 9.945312 24.371094 9.589844 24.585938 9.214844 24.765625 C 8.351562 25.179688 7.382812 25.378906 6.421875 25.316406 Z M 6.421875 25.316406 " fill-opacity="1" fill-rule="nonzero"/></g></g></g></g><path fill="#ffffff" d="M 11.996094 15.765625 L 11.777344 16.214844 L 11.96875 16.574219 L 12.558594 15.832031 Z M 3.324219 15.28125 L 3.332031 15.667969 C 3.332031 15.667969 4.648438 15.542969 5.679688 16.304688 L 5.832031 16.425781 L 5.976562 16.074219 C 5.976562 16.074219 4.867188 15.015625 3.324219 15.28125 Z M 8.351562 11.652344 L 8.402344 13.585938 L 8.679688 13.585938 L 8.660156 12.480469 L 8.644531 11.652344 L 9.644531 11.445312 C 9.644531 11.445312 8.847656 10.214844 8.566406 10.210938 C 8.289062 10.207031 6.753906 9.84375 6.753906 9.84375 C 6.753906 9.84375 6.527344 10.03125 6.511719 10.304688 C 6.496094 10.582031 6.5625 11.761719 6.5625 11.761719 L 6.636719 11.902344 Z M 22.445312 8.632812 C 22.445312 8.632812 22.949219 8.09375 23.40625 8.691406 C 23.40625 8.691406 23.742188 9.269531 23.765625 9.523438 L 21.933594 11.074219 C 21.933594 11.074219 21.597656 10.023438 21.589844 9.742188 L 21.03125 10.980469 L 20.613281 10.425781 C 20.613281 10.425781 20.949219 9.578125 21.015625 9.457031 C 21.078125 9.335938 22.445312 8.632812 22.445312 8.632812 " fill-opacity="1" fill-rule="nonzero"/><g clip-path="url(#552dd66c0e)"><path fill="#2cb2f1" d="M 11.726562 19.25 C 11.726562 19.25 13.21875 22.878906 11.882812 23.917969 C 9.03125 26.128906 4.472656 24.132812 4.472656 24.132812 L 4.492188 19.796875 L 4.921875 19.601562 C 4.921875 19.601562 6.5625 20.894531 8.679688 20.398438 C 10.796875 19.90625 11.726562 19.25 11.726562 19.25 " fill-opacity="1" fill-rule="nonzero"/></g><g clip-path="url(#30c8b0508f)"><path fill="#100f0d" d="M 23.714844 19.75 L 23.679688 20.582031 C 21.867188 21.527344 18.140625 19.386719 18.140625 19.386719 L 18.183594 23.984375 C 18.859375 24.480469 19.902344 24.683594 20.992188 24.734375 L 20.988281 24.734375 L 21.121094 22.304688 L 21.171875 22.308594 L 21.039062 24.738281 C 23.207031 24.832031 25.542969 24.328125 25.542969 24.328125 L 25.984375 18.597656 Z M 4.898438 24.304688 L 4.949219 24.304688 L 5 19.917969 L 4.949219 19.917969 Z M 8.839844 20.726562 L 8.839844 24.925781 L 8.785156 24.925781 L 8.785156 23.535156 L 7.144531 22.984375 L 7.160156 22.9375 L 8.785156 23.480469 L 8.785156 20.726562 L 8.839844 20.726562 " fill-opacity="1" fill-rule="nonzero"/></g><path fill="#100f0d" d="M 12.050781 15.21875 L 11.304688 15.21875 L 11.304688 14.40625 L 11.320312 14.40625 L 11.320312 14.382812 L 11.304688 14.382812 L 11.304688 12.742188 L 12.050781 12.742188 Z M 11.277344 15.992188 L 10.46875 15.992188 L 10.46875 15.246094 L 11.277344 15.246094 Z M 11.277344 16.726562 L 10.46875 16.726562 L 10.46875 16.019531 L 11.277344 16.019531 Z M 11.277344 17.429688 L 10.46875 17.429688 L 10.46875 16.75 L 11.277344 16.75 Z M 11.277344 18.117188 L 10.46875 18.117188 L 10.46875 17.457031 L 11.277344 17.457031 Z M 11.277344 18.785156 L 10.46875 18.785156 L 10.46875 18.140625 L 11.277344 18.140625 Z M 11.277344 19.457031 L 10.46875 19.457031 L 10.46875 18.8125 L 11.277344 18.8125 Z M 9.671875 19.457031 L 9.671875 18.8125 L 10.445312 18.8125 L 10.445312 19.457031 Z M 8.90625 19.457031 L 8.90625 18.8125 L 9.644531 18.8125 L 9.644531 19.457031 Z M 8.179688 19.457031 L 8.179688 18.8125 L 8.878906 18.8125 L 8.878906 19.457031 Z M 7.414062 19.457031 L 7.414062 18.8125 L 8.152344 18.8125 L 8.152344 19.457031 Z M 6.585938 19.457031 L 6.585938 18.8125 L 7.386719 18.8125 L 7.386719 19.457031 Z M 5.75 19.457031 L 5.75 18.8125 L 6.5625 18.8125 L 6.5625 19.457031 Z M 5.75 18.140625 L 6.5625 18.140625 L 6.5625 18.785156 L 5.75 18.785156 Z M 5.75 17.457031 L 6.5625 17.457031 L 6.5625 18.117188 L 5.75 18.117188 Z M 5.75 16.75 L 6.5625 16.75 L 6.5625 17.429688 L 5.75 17.429688 Z M 6.585938 16.019531 L 7.386719 16.019531 L 7.386719 16.726562 L 6.585938 16.726562 Z M 6.585938 15.246094 L 7.386719 15.246094 L 7.386719 15.992188 L 6.585938 15.992188 Z M 5.75 15.21875 L 5.75 14.40625 L 6.5625 14.40625 L 6.5625 15.21875 Z M 5.039062 15.21875 L 5.039062 14.40625 L 5.726562 14.40625 L 5.726562 15.21875 Z M 4.371094 15.21875 L 4.371094 14.40625 L 5.011719 14.40625 L 5.011719 15.21875 Z M 4.371094 13.585938 L 5.011719 13.585938 L 5.011719 14.382812 L 4.371094 14.382812 Z M 4.371094 12.742188 L 5.011719 12.742188 L 5.011719 13.558594 L 4.371094 13.558594 Z M 4.371094 11.964844 L 5.011719 11.964844 L 5.011719 12.714844 L 4.371094 12.714844 Z M 5.726562 11.964844 L 5.726562 12.714844 L 5.039062 12.714844 L 5.039062 11.964844 Z M 6.5625 11.964844 L 6.5625 12.714844 L 5.75 12.714844 L 5.75 11.964844 Z M 7.386719 11.964844 L 7.386719 12.714844 L 6.585938 12.714844 L 6.585938 11.964844 Z M 8.152344 11.964844 L 8.152344 12.714844 L 7.414062 12.714844 L 7.414062 11.964844 Z M 8.152344 13.558594 L 7.414062 13.558594 L 7.414062 12.742188 L 8.152344 12.742188 Z M 8.152344 14.382812 L 7.414062 14.382812 L 7.414062 13.585938 L 8.152344 13.585938 Z M 8.878906 14.40625 L 8.878906 15.21875 L 8.179688 15.21875 L 8.179688 14.40625 Z M 8.90625 12.742188 L 9.644531 12.742188 L 9.644531 14.382812 L 8.90625 14.382812 Z M 8.90625 11.964844 L 9.644531 11.964844 L 9.644531 12.714844 L 8.90625 12.714844 Z M 9.671875 11.113281 L 10.445312 11.121094 L 10.445312 11.9375 L 9.671875 11.9375 Z M 11.277344 11.132812 L 11.277344 11.9375 L 10.46875 11.9375 L 10.46875 11.121094 Z M 10.46875 12.714844 L 10.46875 11.964844 L 11.277344 11.964844 L 11.277344 12.714844 Z M 10.46875 14.382812 L 10.46875 12.742188 L 11.277344 12.742188 L 11.277344 14.382812 Z M 10.46875 14.40625 L 11.277344 14.40625 L 11.277344 15.21875 L 10.46875 15.21875 Z M 9.671875 12.714844 L 9.671875 11.964844 L 10.445312 11.964844 L 10.445312 12.714844 Z M 10.445312 12.742188 L 10.445312 14.382812 L 9.671875 14.382812 L 9.671875 12.742188 Z M 9.671875 15.21875 L 9.671875 14.40625 L 10.445312 14.40625 L 10.445312 15.21875 Z M 9.671875 15.992188 L 9.671875 15.246094 L 10.445312 15.246094 L 10.445312 15.992188 Z M 9.671875 16.726562 L 9.671875 16.019531 L 10.445312 16.019531 L 10.445312 16.726562 Z M 9.671875 17.429688 L 9.671875 16.75 L 10.445312 16.75 L 10.445312 17.429688 Z M 9.671875 18.117188 L 9.671875 17.457031 L 10.445312 17.457031 L 10.445312 18.117188 Z M 9.671875 18.140625 L 10.445312 18.140625 L 10.445312 18.785156 L 9.671875 18.785156 Z M 8.90625 18.140625 L 9.644531 18.140625 L 9.644531 18.785156 L 8.90625 18.785156 Z M 8.179688 18.140625 L 8.878906 18.140625 L 8.878906 18.785156 L 8.179688 18.785156 Z M 7.414062 18.140625 L 8.152344 18.140625 L 8.152344 18.785156 L 7.414062 18.785156 Z M 7.386719 18.140625 L 7.386719 18.785156 L 6.585938 18.785156 L 6.585938 18.140625 Z M 7.386719 17.457031 L 7.386719 18.117188 L 6.585938 18.117188 L 6.585938 17.457031 Z M 7.386719 17.429688 L 6.585938 17.429688 L 6.585938 16.75 L 7.386719 16.75 Z M 8.152344 16.75 L 8.152344 17.429688 L 7.414062 17.429688 L 7.414062 16.75 Z M 8.152344 16.019531 L 8.152344 16.726562 L 7.414062 16.726562 L 7.414062 16.019531 Z M 8.878906 15.992188 L 8.179688 15.992188 L 8.179688 15.246094 L 8.878906 15.246094 Z M 8.90625 16.726562 L 8.90625 16.019531 L 9.644531 16.019531 L 9.644531 16.726562 Z M 8.90625 17.429688 L 8.90625 16.75 L 9.644531 16.75 L 9.644531 17.429688 Z M 8.90625 17.457031 L 9.644531 17.457031 L 9.644531 18.117188 L 8.90625 18.117188 Z M 8.179688 16.726562 L 8.179688 16.019531 L 8.878906 16.019531 L 8.878906 16.726562 Z M 8.878906 16.75 L 8.878906 17.429688 L 8.179688 17.429688 L 8.179688 16.75 Z M 8.152344 18.117188 L 7.414062 18.117188 L 7.414062 17.457031 L 8.152344 17.457031 Z M 8.179688 17.457031 L 8.878906 17.457031 L 8.878906 18.117188 L 8.179688 18.117188 Z M 8.90625 15.21875 L 8.90625 14.40625 L 9.644531 14.40625 L 9.644531 15.21875 Z M 9.644531 15.246094 L 9.644531 15.992188 L 8.90625 15.992188 L 8.90625 15.246094 Z M 8.152344 15.246094 L 8.152344 15.992188 L 7.414062 15.992188 L 7.414062 15.246094 Z M 7.414062 14.40625 L 8.152344 14.40625 L 8.152344 15.21875 L 7.414062 15.21875 Z M 7.386719 14.40625 L 7.386719 15.21875 L 6.585938 15.21875 L 6.585938 14.40625 Z M 6.585938 13.585938 L 7.386719 13.585938 L 7.386719 14.382812 L 6.585938 14.382812 Z M 5.75 13.585938 L 6.5625 13.585938 L 6.5625 14.382812 L 5.75 14.382812 Z M 5.726562 13.585938 L 5.726562 14.382812 L 5.039062 14.382812 L 5.039062 13.585938 Z M 5.726562 13.558594 L 5.039062 13.558594 L 5.039062 12.742188 L 5.726562 12.742188 Z M 6.585938 12.742188 L 7.386719 12.742188 L 7.386719 13.558594 L 6.585938 13.558594 Z M 6.5625 13.558594 L 5.75 13.558594 L 5.75 12.742188 L 6.5625 12.742188 Z M 12.050781 11.964844 L 12.050781 12.714844 L 11.304688 12.714844 L 11.304688 11.964844 Z M 12.785156 12.695312 L 12.785156 12.714844 L 12.078125 12.714844 L 12.078125 11.964844 L 12.265625 11.964844 L 12.265625 11.9375 L 12.078125 11.9375 L 12.078125 11.734375 L 12.050781 11.734375 L 12.050781 11.9375 L 11.304688 11.9375 L 11.304688 11.109375 L 10.46875 11.097656 L 10.46875 10.820312 L 10.445312 10.820312 L 10.445312 11.097656 L 9.671875 11.085938 L 9.671875 10.578125 L 9.644531 10.578125 L 9.644531 11.085938 L 9.414062 11.082031 L 9.414062 11.109375 L 9.644531 11.113281 L 9.644531 11.9375 L 8.90625 11.9375 L 8.90625 11.601562 L 8.878906 11.601562 L 8.878906 11.9375 L 8.675781 11.9375 L 8.675781 11.964844 L 8.878906 11.964844 L 8.878906 12.714844 L 8.675781 12.714844 L 8.675781 12.742188 L 8.878906 12.742188 L 8.878906 14.382812 L 8.179688 14.382812 L 8.179688 13.585938 L 8.324219 13.585938 L 8.324219 13.558594 L 8.179688 13.558594 L 8.179688 12.742188 L 8.371094 12.742188 L 8.371094 12.714844 L 8.179688 12.714844 L 8.179688 11.964844 L 8.371094 11.964844 L 8.371094 11.9375 L 8.179688 11.9375 L 8.179688 11.671875 L 8.152344 11.671875 L 8.152344 11.9375 L 7.414062 11.9375 L 7.414062 11.796875 L 7.386719 11.804688 L 7.386719 11.9375 L 6.585938 11.9375 L 6.585938 11.839844 L 6.5625 11.839844 L 6.5625 11.9375 L 5.75 11.9375 L 5.75 11.109375 L 6.519531 11.109375 L 6.519531 11.082031 L 5.75 11.082031 L 5.75 10.648438 L 5.726562 10.648438 L 5.726562 11.082031 L 4.984375 11.082031 L 4.984375 11.109375 L 5.726562 11.109375 L 5.726562 11.9375 L 5.039062 11.9375 L 5.039062 11.121094 L 5.011719 11.121094 L 5.011719 11.9375 L 4.371094 11.9375 L 4.371094 11.671875 L 4.34375 11.671875 L 4.34375 11.9375 L 4.023438 11.9375 L 4.023438 11.964844 L 4.34375 11.964844 L 4.34375 12.714844 L 3.613281 12.714844 L 3.613281 12.742188 L 4.34375 12.742188 L 4.34375 13.558594 L 3.425781 13.558594 L 3.425781 13.585938 L 4.34375 13.585938 L 4.34375 14.382812 L 3.335938 14.382812 L 3.335938 14.40625 L 4.34375 14.40625 L 4.34375 15.21875 L 4.050781 15.21875 L 4.050781 15.246094 L 4.34375 15.246094 L 4.34375 15.273438 L 4.371094 15.273438 L 4.371094 15.246094 L 5.011719 15.246094 L 5.011719 15.488281 L 5.039062 15.480469 L 5.039062 15.246094 L 5.726562 15.246094 L 5.726562 15.890625 L 5.75 15.890625 L 5.75 15.246094 L 6.5625 15.246094 L 6.5625 15.992188 L 5.980469 15.992188 L 5.980469 16.019531 L 6.5625 16.019531 L 6.5625 16.726562 L 5.75 16.726562 L 5.75 16.71875 L 5.726562 16.71875 L 5.726562 16.726562 L 5.304688 16.726562 L 5.304688 16.75 L 5.726562 16.75 L 5.726562 17.429688 L 3.875 17.429688 L 3.875 17.457031 L 5.726562 17.457031 L 5.726562 18.117188 L 4.222656 18.117188 L 4.222656 18.140625 L 5.726562 18.140625 L 5.726562 18.785156 L 4.921875 18.785156 L 4.921875 18.8125 L 5.726562 18.8125 L 5.726562 19.457031 L 4.742188 19.457031 L 4.742188 19.484375 L 5.726562 19.484375 L 5.726562 20.074219 L 5.75 20.074219 L 5.75 19.484375 L 6.5625 19.484375 L 6.5625 20.171875 L 6.585938 20.171875 L 6.585938 19.484375 L 7.386719 19.484375 L 7.386719 20.25 L 7.414062 20.25 L 7.414062 19.484375 L 8.152344 19.484375 L 8.152344 20.25 L 8.179688 20.25 L 8.179688 19.484375 L 8.878906 19.484375 L 8.878906 20.25 L 8.90625 20.25 L 8.90625 19.484375 L 9.644531 19.484375 L 9.644531 20.097656 L 9.671875 20.097656 L 9.671875 19.484375 L 10.445312 19.484375 L 10.445312 19.917969 L 10.46875 19.917969 L 10.46875 19.484375 L 11.304688 19.484375 L 11.304688 18.8125 L 11.773438 18.8125 L 11.773438 18.785156 L 11.304688 18.785156 L 11.304688 18.140625 L 11.84375 18.140625 L 11.84375 18.117188 L 11.304688 18.117188 L 11.304688 17.457031 L 11.914062 17.457031 L 11.914062 17.429688 L 11.304688 17.429688 L 11.304688 16.75 L 11.96875 16.75 L 11.96875 16.726562 L 11.304688 16.726562 L 11.304688 16.019531 L 11.863281 16.019531 L 11.863281 15.992188 L 11.304688 15.992188 L 11.304688 15.246094 L 12.050781 15.246094 L 12.050781 15.410156 L 12.078125 15.410156 L 12.078125 15.246094 L 12.171875 15.246094 L 12.171875 15.21875 L 12.078125 15.21875 L 12.078125 12.742188 L 12.785156 12.742188 L 12.785156 13.8125 L 12.808594 13.8125 L 12.808594 12.695312 L 12.785156 12.695312 " fill-opacity="1" fill-rule="nonzero"/><path fill="#ffffff" d="M 9.457031 20.074219 L 9.457031 20.582031 C 9.085938 20.660156 8.667969 20.707031 8.164062 20.722656 L 8.164062 20.253906 C 8.625 20.253906 9.058594 20.183594 9.457031 20.074219 " fill-opacity="1" fill-rule="nonzero"/><path fill="#100f0d" d="M 9.40625 20.539062 C 9.0625 20.609375 8.679688 20.652344 8.21875 20.667969 L 8.21875 20.304688 C 8.605469 20.300781 9.007812 20.246094 9.40625 20.144531 Z M 11.78125 18.984375 L 12.035156 16.535156 L 11.984375 16.53125 L 11.730469 18.945312 C 11.570312 19.074219 10.703125 19.730469 9.511719 20.0625 L 9.511719 20.007812 L 9.445312 20.027344 C 9.011719 20.140625 8.582031 20.199219 8.164062 20.199219 L 8.113281 20.199219 L 8.113281 20.25 C 8.109375 20.25 8.105469 20.25 8.101562 20.25 C 6.0625 20.222656 4.757812 19.46875 4.757812 19.46875 L 4.722656 19.886719 C 4.722656 19.886719 6.433594 20.773438 8.113281 20.722656 L 8.113281 20.777344 L 8.167969 20.773438 C 8.679688 20.757812 9.09375 20.714844 9.46875 20.632812 L 9.511719 20.625 L 9.511719 20.570312 C 10.203125 20.417969 10.746094 20.136719 11.417969 19.691406 C 11.835938 19.414062 11.949219 19.359375 11.90625 19.292969 C 11.859375 19.21875 11.808594 19.070312 11.78125 18.984375 " fill-opacity="1" fill-rule="nonzero"/><path fill="#5b3498" d="M 8.207031 18.855469 L 11.429688 16.148438 C 11.542969 16.054688 11.707031 16.085938 11.777344 16.214844 L 14.425781 20.976562 C 14.472656 21.0625 14.460938 21.167969 14.394531 21.242188 L 11.816406 24.183594 C 11.714844 24.296875 11.535156 24.285156 11.453125 24.160156 L 8.164062 19.15625 C 8.101562 19.058594 8.121094 18.929688 8.207031 18.855469 " fill-opacity="1" fill-rule="nonzero"/><path fill="#ffffff" d="M 11.683594 17.828125 L 9.90625 19.40625 L 9.457031 18.773438 L 11.292969 17.167969 L 11.683594 17.828125 " fill-opacity="1" fill-rule="nonzero"/><path fill="#e19f74" d="M 13.726562 14.253906 C 13.726562 14.253906 12.007812 16.359375 12.007812 16.53125 C 12.007812 16.707031 12.382812 17.71875 12.382812 17.71875 C 12.195312 18.003906 11.804688 19.03125 11.570312 19.679688 C 11.742188 19.664062 11.902344 19.683594 12.046875 19.722656 C 12.023438 19.730469 12 19.734375 11.972656 19.742188 C 11.972656 19.742188 11.820312 19.835938 11.59375 19.996094 C 11.539062 19.988281 11.496094 19.988281 11.457031 19.988281 C 11.4375 20.042969 11.421875 20.085938 11.410156 20.125 C 11.292969 20.210938 11.167969 20.304688 11.039062 20.40625 C 11.039062 20.40625 9.90625 20.832031 9.824219 21.230469 C 9.757812 21.5625 9.714844 21.882812 9.773438 21.988281 C 9.542969 22.707031 9.5 22.933594 9.574219 23.046875 C 9.65625 23.167969 9.738281 23.085938 9.738281 23.085938 C 9.738281 23.085938 9.664062 23.457031 9.820312 23.457031 C 9.972656 23.457031 10.085938 23.378906 10.085938 23.378906 C 10.085938 23.378906 10.117188 23.523438 10.214844 23.515625 C 10.3125 23.507812 10.570312 23.34375 10.570312 23.34375 C 10.570312 23.34375 10.550781 23.480469 10.730469 23.445312 C 10.910156 23.414062 11.195312 23.363281 11.480469 23.019531 C 11.761719 22.679688 12.289062 21.605469 12.402344 21.191406 C 12.4375 21.058594 12.523438 20.835938 12.589844 20.597656 C 12.59375 20.589844 12.601562 20.585938 12.605469 20.578125 C 12.601562 20.574219 12.601562 20.574219 12.597656 20.570312 C 12.644531 20.398438 12.675781 20.222656 12.667969 20.074219 C 12.742188 20.140625 12.804688 20.203125 12.851562 20.253906 C 13.519531 19.382812 14.617188 17.953125 14.636719 17.777344 C 14.660156 17.527344 13.726562 14.253906 13.726562 14.253906 Z M 7.402344 15.472656 L 7.96875 16.734375 C 6.964844 18.855469 4.691406 20.074219 4.378906 20.082031 C 4.070312 20.089844 3.855469 19.929688 3.414062 18.609375 C 2.96875 17.285156 3.332031 15.667969 3.332031 15.667969 C 4.984375 15.613281 5.8125 16.414062 5.8125 16.414062 C 6.238281 16.304688 7.402344 15.472656 7.402344 15.472656 " fill-opacity="1" fill-rule="nonzero"/><path fill="#100f0d" d="M 13.484375 17.199219 L 13.492188 17.148438 C 13.488281 17.144531 12.890625 17.070312 12.363281 17.703125 L 12.402344 17.734375 C 12.910156 17.128906 13.480469 17.199219 13.484375 17.199219 Z M 4.253906 18.328125 C 4.144531 17.378906 5.820312 16.445312 5.839844 16.4375 L 5.8125 16.390625 C 5.742188 16.429688 4.085938 17.347656 4.203125 18.335938 Z M 11.554688 20.117188 L 11.519531 20.078125 L 11.375 20.203125 L 11.410156 20.242188 Z M 10.792969 23.332031 C 10.882812 23.3125 10.933594 23.375 10.9375 23.375 L 10.976562 23.34375 C 10.976562 23.339844 10.90625 23.253906 10.78125 23.28125 C 10.65625 23.308594 10.628906 23.4375 10.625 23.445312 L 10.679688 23.453125 C 10.679688 23.453125 10.699219 23.351562 10.792969 23.332031 Z M 10.488281 23.28125 L 10.492188 23.289062 C 10.496094 23.292969 10.5 23.300781 10.492188 23.316406 C 10.464844 23.367188 10.347656 23.421875 10.273438 23.421875 C 10.273438 23.421875 10.273438 23.421875 10.269531 23.421875 C 10.25 23.421875 10.238281 23.417969 10.234375 23.410156 C 10.222656 23.390625 10.230469 23.351562 10.257812 23.3125 C 10.292969 23.246094 10.363281 23.191406 10.402344 23.191406 C 10.464844 23.191406 10.488281 23.277344 10.488281 23.28125 Z M 10.539062 23.34375 C 10.554688 23.316406 10.554688 23.285156 10.539062 23.261719 C 10.53125 23.238281 10.496094 23.132812 10.398438 23.136719 C 10.332031 23.140625 10.253906 23.214844 10.210938 23.285156 C 10.175781 23.34375 10.167969 23.394531 10.1875 23.433594 C 10.195312 23.453125 10.21875 23.476562 10.269531 23.476562 C 10.269531 23.476562 10.273438 23.476562 10.273438 23.476562 C 10.359375 23.476562 10.5 23.414062 10.539062 23.34375 Z M 9.820312 22.625 C 9.855469 22.648438 9.867188 22.699219 9.867188 22.714844 C 9.8125 22.832031 9.707031 22.984375 9.652344 22.960938 C 9.648438 22.960938 9.640625 22.957031 9.636719 22.945312 C 9.617188 22.886719 9.671875 22.726562 9.71875 22.632812 C 9.761719 22.613281 9.796875 22.613281 9.820312 22.625 Z M 9.917969 22.730469 L 9.921875 22.726562 L 9.921875 22.71875 C 9.921875 22.714844 9.914062 22.621094 9.847656 22.582031 C 9.808594 22.558594 9.753906 22.558594 9.6875 22.589844 L 9.679688 22.59375 L 9.675781 22.601562 C 9.660156 22.628906 9.550781 22.863281 9.589844 22.964844 C 9.597656 22.988281 9.613281 23.003906 9.632812 23.011719 C 9.640625 23.015625 9.652344 23.015625 9.660156 23.015625 C 9.773438 23.015625 9.894531 22.78125 9.917969 22.730469 Z M 10.054688 23.007812 C 10.105469 23.039062 10.128906 23.109375 10.128906 23.132812 C 10.128906 23.148438 10.101562 23.207031 10.046875 23.253906 C 10.007812 23.292969 9.941406 23.339844 9.867188 23.332031 C 9.84375 23.332031 9.835938 23.324219 9.832031 23.316406 C 9.804688 23.265625 9.867188 23.109375 9.914062 23.019531 C 9.96875 22.988281 10.019531 22.984375 10.054688 23.007812 Z M 10.082031 23.292969 C 10.136719 23.242188 10.179688 23.171875 10.179688 23.132812 C 10.179688 23.09375 10.152344 23.003906 10.082031 22.964844 C 10.042969 22.941406 9.976562 22.921875 9.882812 22.976562 L 9.875 22.980469 L 9.871094 22.988281 C 9.855469 23.015625 9.734375 23.246094 9.785156 23.34375 C 9.796875 23.363281 9.820312 23.382812 9.863281 23.386719 C 9.867188 23.386719 9.871094 23.386719 9.875 23.386719 C 9.945312 23.386719 10.019531 23.351562 10.082031 23.292969 Z M 11.445312 22.398438 L 11.398438 22.375 C 11.167969 22.847656 10.5625 23.320312 10.554688 23.324219 L 10.589844 23.367188 C 10.613281 23.347656 11.210938 22.882812 11.445312 22.398438 Z M 11.195312 21.773438 L 11.148438 21.75 C 11.023438 22.019531 10.074219 23.347656 10.066406 23.363281 L 10.105469 23.394531 C 10.148438 23.339844 11.066406 22.046875 11.195312 21.773438 Z M 10.703125 21.574219 L 10.664062 21.539062 C 10.515625 21.699219 9.746094 23.015625 9.714844 23.074219 L 9.761719 23.097656 C 9.769531 23.085938 10.554688 21.730469 10.703125 21.574219 Z M 9.796875 22 L 9.75 21.972656 C 10.085938 21.410156 10.511719 21.027344 10.515625 21.023438 L 10.550781 21.0625 C 10.546875 21.066406 10.128906 21.445312 9.796875 22 " fill-opacity="1" fill-rule="nonzero"/><path fill="#100f0d" d="M 12.867188 20.273438 C 12.777344 20.394531 12.691406 20.5 12.617188 20.59375 C 12.132812 20.058594 11.648438 19.984375 11.445312 19.988281 C 11.476562 19.902344 11.542969 19.722656 11.585938 19.605469 C 12.21875 19.539062 12.675781 20.058594 12.867188 20.273438 " fill-opacity="1" fill-rule="nonzero"/><path fill="#ffffff" d="M 12.546875 19.992188 C 12.546875 20.1875 12.386719 20.34375 12.191406 20.34375 C 12 20.34375 11.839844 20.1875 11.839844 19.992188 C 11.839844 19.796875 12 19.640625 12.191406 19.640625 C 12.386719 19.640625 12.546875 19.796875 12.546875 19.992188 " fill-opacity="1" fill-rule="nonzero"/><path fill="#100f0d" d="M 12.191406 19.664062 C 12.011719 19.664062 11.867188 19.8125 11.867188 19.992188 C 11.867188 20.171875 12.011719 20.316406 12.191406 20.316406 C 12.371094 20.316406 12.519531 20.171875 12.519531 19.992188 C 12.519531 19.8125 12.371094 19.664062 12.191406 19.664062 Z M 12.191406 20.371094 C 11.984375 20.371094 11.8125 20.199219 11.8125 19.992188 C 11.8125 19.785156 11.984375 19.613281 12.191406 19.613281 C 12.402344 19.613281 12.570312 19.785156 12.570312 19.992188 C 12.570312 20.199219 12.402344 20.371094 12.191406 20.371094 " fill-opacity="1" fill-rule="nonzero"/><path fill="#100f0d" d="M 11.71875 11.328125 C 11.222656 10.894531 10.019531 10.617188 8.890625 10.441406 C 8.90625 10.457031 8.917969 10.476562 8.917969 10.5 C 8.917969 10.5 8.917969 10.5 8.917969 10.503906 C 10.03125 10.675781 11.207031 10.953125 11.683594 11.367188 C 12.261719 11.871094 13.003906 13.074219 13.011719 13.085938 L 13.054688 13.058594 C 13.050781 13.046875 12.300781 11.835938 11.71875 11.328125 Z M 8.515625 10.394531 C 8.527344 10.394531 8.542969 10.394531 8.5625 10.394531 C 7.890625 10.296875 7.273438 10.242188 6.890625 10.210938 C 6.917969 10.21875 6.929688 10.246094 6.925781 10.269531 C 7.292969 10.296875 7.855469 10.351562 8.472656 10.4375 C 8.472656 10.414062 8.488281 10.394531 8.515625 10.394531 Z M 6.523438 14.226562 L 6.574219 14.230469 C 6.484375 15.199219 5.839844 16.414062 5.832031 16.425781 L 5.820312 16.453125 L 5.792969 16.433594 C 4.808594 15.589844 3.347656 15.691406 3.335938 15.691406 L 3.308594 15.695312 L 3.304688 15.671875 C 3.304688 15.65625 3.140625 14.261719 3.527344 12.824219 C 3.917969 11.382812 6.457031 10.199219 6.480469 10.1875 L 6.488281 10.183594 L 6.496094 10.183594 C 6.5 10.183594 6.515625 10.183594 6.535156 10.1875 C 6.527344 10.203125 6.527344 10.21875 6.523438 10.238281 C 6.511719 10.238281 6.503906 10.234375 6.496094 10.234375 C 6.359375 10.300781 3.953125 11.453125 3.578125 12.839844 C 3.222656 14.160156 3.335938 15.449219 3.355469 15.640625 C 3.554688 15.628906 4.875 15.597656 5.804688 16.371094 C 5.902344 16.183594 6.441406 15.101562 6.523438 14.226562 " fill-opacity="1" fill-rule="nonzero"/><g clip-path="url(#7000c06fe0)"><path fill="#2cb2f1" d="M 19.324219 10.488281 C 18.082031 11.445312 17.085938 15.019531 17.085938 15.019531 C 16.394531 14.75 14.9375 14.59375 14.9375 14.59375 C 15.246094 15.113281 14.765625 15.738281 14.597656 15.929688 C 14.5625 15.96875 14.5625 16.023438 14.597656 16.0625 C 15.078125 16.566406 17.582031 17.613281 17.582031 17.613281 C 17.761719 19.441406 18.808594 20.171875 18.808594 20.171875 L 18.878906 19.746094 C 17.796875 17.292969 20.929688 9.617188 20.929688 9.617188 C 20.566406 9.707031 19.324219 10.488281 19.324219 10.488281 Z M 26.007812 10.671875 C 26.664062 11.316406 27.515625 14.574219 27.375 16.546875 C 27.230469 18.519531 24.511719 20.171875 24.511719 20.171875 C 23.910156 18.925781 22.660156 19.160156 22.660156 19.160156 C 20.855469 14.394531 23.746094 9.484375 23.746094 9.484375 C 23.746094 9.484375 25.347656 10.023438 26.007812 10.671875 " fill-opacity="1" fill-rule="nonzero"/></g><path fill="#5b3498" d="M 21.839844 10.855469 C 21.417969 11.082031 21.09375 10.832031 21.09375 10.832031 L 21.566406 9.800781 " fill-opacity="1" fill-rule="nonzero"/><path fill="#5b3498" d="M 17.132812 23.511719 L 16.363281 23.371094 L 16.859375 22.960938 Z M 17.132812 23.511719 " fill-opacity="1" fill-rule="nonzero"/><path fill="#ffffff" d="M 21.40625 22.710938 L 21.839844 23.617188 L 21.289062 24.09375 L 16.835938 23.421875 L 16.769531 23.363281 L 16.714844 23.285156 L 16.714844 23.210938 L 16.660156 23.117188 L 16.660156 23.058594 L 16.589844 22.960938 L 16.589844 22.902344 L 16.460938 22.746094 C 17.667969 21.78125 21.40625 22.710938 21.40625 22.710938 " fill-opacity="1" fill-rule="nonzero"/><path fill="#100f0d" d="M 21.28125 24.066406 L 16.847656 23.398438 L 16.804688 23.363281 L 21.011719 23.730469 L 21.015625 23.675781 L 16.761719 23.304688 L 16.742188 23.273438 L 16.742188 23.238281 L 20.824219 23.46875 L 20.828125 23.414062 L 16.730469 23.183594 L 16.6875 23.109375 L 16.6875 23.082031 L 20.710938 23.195312 L 20.710938 23.144531 L 16.675781 23.03125 L 16.613281 22.953125 L 16.613281 22.929688 L 20.496094 22.96875 L 20.496094 22.917969 L 16.601562 22.878906 L 16.5 22.75 C 17.667969 21.859375 21.15625 22.675781 21.386719 22.734375 L 21.808594 23.609375 Z M 21.425781 22.6875 L 21.410156 22.683594 C 21.257812 22.648438 17.648438 21.765625 16.445312 22.726562 L 16.425781 22.742188 L 16.5625 22.914062 L 16.5625 22.96875 L 16.636719 23.066406 L 16.636719 23.125 L 16.6875 23.21875 L 16.6875 23.292969 L 16.746094 23.378906 L 16.828125 23.449219 L 21.296875 24.121094 L 21.871094 23.625 L 21.425781 22.6875 " fill-opacity="1" fill-rule="nonzero"/><path fill="#5b3498" d="M 23.679688 20.464844 C 23.679688 20.464844 21.90625 24.015625 21.433594 24.121094 C 20.960938 24.230469 16.605469 23.433594 16.578125 23.394531 C 16.578125 23.394531 16.625 23.398438 16.707031 23.40625 L 16.636719 23.367188 L 17.667969 23.523438 C 19.054688 23.699219 21.28125 23.976562 21.359375 23.851562 C 21.476562 23.664062 20.898438 22.980469 20.738281 22.835938 C 20.578125 22.695312 16.257812 22.746094 16.257812 22.746094 L 18.878906 19.746094 C 18.878906 19.746094 22.992188 19.078125 23.152344 19.078125 C 23.3125 19.078125 23.28125 19.179688 23.28125 19.179688 L 23.199219 19.34375 L 23.679688 20.464844 " fill-opacity="1" fill-rule="nonzero"/><path fill="#ffffff" d="M 23.117188 21.140625 L 21.9375 22.972656 L 21.550781 22.207031 L 22.71875 20.453125 L 23.117188 21.140625 " fill-opacity="1" fill-rule="nonzero"/><path fill="#100f0d" d="M 15.898438 16.421875 C 16.277344 15.917969 16.097656 14.804688 16.089844 14.753906 L 16.039062 14.765625 C 16.042969 14.777344 16.222656 15.902344 15.855469 16.390625 C 15.761719 16.519531 15.636719 16.59375 15.484375 16.609375 L 15.492188 16.660156 C 15.65625 16.640625 15.792969 16.5625 15.898438 16.421875 Z M 25.425781 19.53125 C 25.398438 18.058594 23.632812 17.742188 23.613281 17.742188 L 23.605469 17.792969 C 23.621094 17.796875 25.347656 18.101562 25.371094 19.53125 Z M 18.570312 15.953125 C 18.375 13.460938 20.371094 9.953125 20.390625 9.917969 L 20.347656 9.894531 C 20.324219 9.929688 18.324219 13.445312 18.515625 15.957031 Z M 23.902344 9.617188 L 23.851562 9.617188 C 23.851562 9.648438 23.894531 12.820312 22.144531 16.160156 L 22.1875 16.183594 C 23.945312 12.832031 23.90625 9.648438 23.902344 9.617188 Z M 12.011719 16.546875 L 11.800781 16.234375 C 11.828125 16.160156 11.980469 15.753906 12.28125 15.578125 L 12.257812 15.53125 C 11.90625 15.734375 11.753906 16.210938 11.75 16.234375 L 11.746094 16.246094 L 11.96875 16.574219 Z M 5.976562 16.035156 C 5.964844 16.023438 4.902344 15 3.324219 15.226562 L 3.332031 15.277344 C 4.882812 15.054688 5.929688 16.0625 5.941406 16.070312 Z M 8.417969 13.847656 L 8.625 13.847656 L 8.625 11.632812 L 9.613281 11.417969 C 9.5 11.257812 8.980469 10.535156 8.816406 10.390625 C 8.664062 10.25 7.917969 9.746094 7.128906 9.800781 C 6.890625 9.816406 6.71875 9.890625 6.617188 10.027344 C 6.464844 10.226562 6.519531 10.492188 6.519531 10.492188 C 6.523438 10.507812 6.5625 11.570312 6.578125 11.734375 C 6.589844 11.859375 6.632812 11.878906 6.640625 11.882812 L 8.367188 11.617188 L 8.390625 11.621094 L 8.390625 11.640625 Z M 8.679688 13.898438 L 8.367188 13.898438 L 8.339844 11.671875 L 6.644531 11.933594 C 6.632812 11.933594 6.542969 11.925781 6.523438 11.742188 C 6.507812 11.574219 6.472656 10.542969 6.46875 10.5 C 6.46875 10.492188 6.410156 10.214844 6.574219 9.996094 C 6.6875 9.847656 6.871094 9.765625 7.125 9.746094 C 7.933594 9.691406 8.695312 10.207031 8.851562 10.351562 C 9.039062 10.515625 9.652344 11.382812 9.679688 11.421875 L 9.703125 11.453125 L 8.679688 11.675781 L 8.679688 13.898438 " fill-opacity="1" fill-rule="nonzero"/><path fill="#e19f74" d="M 15.027344 14.722656 C 14.511719 15.035156 13.792969 15.464844 13.289062 15.726562 C 13.695312 15.796875 14.109375 15.816406 14.46875 15.734375 L 14.632812 15.90625 C 14.632812 15.90625 15.234375 15.308594 15.027344 14.722656 " fill-opacity="1" fill-rule="nonzero"/><path fill="#100f0d" d="M 15.695312 14.328125 C 15.695312 14.328125 13.082031 16.171875 12.695312 16.070312 C 11.644531 15.792969 7.988281 13.789062 7.988281 13.789062 L 8.070312 13.722656 L 15.695312 14.328125 " fill-opacity="1" fill-rule="nonzero"/><path fill="#ffffff" d="M 15.707031 14.035156 L 15.664062 14.328125 C 15.664062 14.328125 15.398438 14.492188 15.027344 14.722656 C 14.511719 15.035156 13.792969 15.464844 13.289062 15.726562 C 13.007812 15.871094 12.792969 15.960938 12.714844 15.953125 C 12.390625 15.917969 8.304688 13.96875 8.085938 13.769531 L 8.023438 13.546875 C 8.023438 13.546875 9.457031 14.210938 9.632812 14.292969 C 9.632812 14.292969 9.785156 14.109375 10.113281 14.167969 C 10.4375 14.226562 10.191406 14.515625 10.191406 14.515625 C 10.191406 14.515625 12.335938 15.578125 12.65625 15.554688 C 12.65625 15.554688 13.472656 15.449219 15.707031 14.035156 " fill-opacity="1" fill-rule="nonzero"/><path fill="#100f0d" d="M 15.707031 14.035156 C 13.472656 15.449219 12.65625 15.554688 12.65625 15.554688 C 12.335938 15.578125 10.191406 14.515625 10.191406 14.515625 C 10.191406 14.515625 10.4375 14.226562 10.113281 14.167969 C 9.785156 14.109375 9.632812 14.292969 9.632812 14.292969 C 9.457031 14.210938 7.9375 13.546875 7.9375 13.546875 L 11.292969 12.628906 C 11.292969 12.628906 11.71875 12.890625 12.34375 13.1875 C 12.246094 13.21875 12.152344 13.246094 12.058594 13.257812 C 11.785156 13.300781 12.171875 13.785156 12.648438 13.679688 C 12.964844 13.609375 13.066406 13.605469 13.121094 13.566406 L 13.125 13.566406 C 13.125 13.5625 13.125 13.5625 13.128906 13.5625 L 13.152344 13.542969 C 13.152344 13.542969 13.152344 13.539062 13.152344 13.539062 C 13.589844 13.710938 14.0625 13.867188 14.53125 13.960938 C 14.550781 13.964844 14.570312 13.96875 14.589844 13.972656 C 14.980469 14.042969 15.359375 14.074219 15.707031 14.035156 " fill-opacity="1" fill-rule="nonzero"/><path fill="#e19f74" d="M 7.96875 16.734375 C 7.96875 16.734375 8.769531 16.785156 9.800781 16.558594 C 10.894531 16.320312 10.457031 16.09375 10.457031 16.09375 C 10.457031 16.09375 10.996094 15.871094 10.894531 15.734375 C 10.894531 15.734375 11.210938 15.558594 11.050781 15.5 C 10.890625 15.441406 10.472656 15.472656 10.472656 15.472656 C 10.472656 15.472656 10.964844 15.414062 11.011719 15.300781 C 11.105469 15.082031 10.253906 15.027344 9.546875 15.054688 C 9.546875 15.054688 8.828125 15.089844 8.828125 14.960938 C 8.828125 14.960938 8.875 14.785156 8.941406 14.613281 C 8.941406 14.613281 9.863281 14.269531 9.398438 14.078125 C 9.238281 14.011719 9.003906 14.046875 8.644531 14.289062 C 8.285156 14.527344 7.402344 15.472656 7.402344 15.472656 Z M 14.242188 13.324219 C 13.863281 13.164062 13.273438 12.894531 12.933594 12.988281 C 12.714844 13.050781 12.523438 13.128906 12.34375 13.1875 C 12.246094 13.21875 12.152344 13.246094 12.058594 13.257812 C 11.785156 13.300781 12.164062 13.835938 12.777344 13.660156 C 13.089844 13.570312 13.066406 13.605469 13.121094 13.566406 L 13.125 13.566406 C 13.125 13.5625 13.125 13.5625 13.128906 13.5625 L 13.152344 13.542969 C 13.152344 13.542969 13.152344 13.539062 13.152344 13.539062 C 13.609375 13.71875 14.105469 13.878906 14.589844 13.972656 C 14.558594 13.730469 14.480469 13.421875 14.242188 13.324219 Z M 24.34375 19.882812 L 23.9375 20.140625 C 23.9375 20.140625 24.417969 21.261719 23.578125 22.261719 C 22.734375 23.261719 22.230469 22.945312 22.21875 22.785156 C 22.207031 22.625 22.785156 22.152344 22.84375 21.996094 C 22.902344 21.839844 22.757812 20.640625 22.675781 20.53125 C 22.597656 20.421875 22.328125 20.53125 21.757812 20.726562 C 21.183594 20.921875 21.171875 20.398438 21.417969 20.359375 C 21.664062 20.324219 22.460938 19.648438 22.605469 19.558594 C 22.75 19.46875 23.28125 19.179688 23.28125 19.179688 C 24.03125 19.230469 24.34375 19.882812 24.34375 19.882812 " fill-opacity="1" fill-rule="nonzero"/><path fill="#100f0d" d="M 15.058594 14.738281 C 15.070312 14.757812 15.273438 15.21875 14.652344 15.925781 L 14.613281 15.890625 C 15.210938 15.210938 15.015625 14.765625 15.011719 14.761719 Z M 8.949219 15.527344 L 8.957031 15.578125 C 8.949219 15.582031 8.742188 15.617188 8.679688 15.617188 L 8.675781 15.566406 C 8.734375 15.5625 8.949219 15.527344 8.949219 15.527344 Z M 10.445312 16.285156 C 10.429688 16.289062 10.394531 16.296875 10.378906 16.285156 C 10.375 16.285156 10.371094 16.28125 10.371094 16.269531 C 10.367188 16.230469 10.449219 16.199219 10.492188 16.191406 C 10.503906 16.195312 10.503906 16.203125 10.503906 16.203125 C 10.507812 16.226562 10.472656 16.265625 10.445312 16.285156 Z M 10.507812 16.140625 L 10.5 16.132812 L 10.492188 16.136719 C 10.472656 16.140625 10.308594 16.175781 10.320312 16.273438 C 10.320312 16.304688 10.339844 16.324219 10.351562 16.332031 C 10.367188 16.339844 10.386719 16.34375 10.40625 16.34375 C 10.433594 16.34375 10.460938 16.335938 10.464844 16.332031 L 10.472656 16.328125 C 10.488281 16.316406 10.5625 16.257812 10.554688 16.199219 C 10.554688 16.179688 10.542969 16.15625 10.507812 16.140625 Z M 10.914062 15.632812 C 10.863281 15.660156 10.828125 15.644531 10.808594 15.625 C 10.789062 15.609375 10.785156 15.585938 10.796875 15.566406 C 10.808594 15.542969 10.84375 15.535156 10.878906 15.535156 C 10.910156 15.535156 10.9375 15.539062 10.953125 15.542969 C 10.992188 15.550781 11 15.5625 11.003906 15.5625 C 11.003906 15.570312 10.984375 15.601562 10.914062 15.632812 Z M 10.964844 15.492188 C 10.945312 15.488281 10.792969 15.457031 10.75 15.542969 C 10.730469 15.582031 10.738281 15.628906 10.769531 15.664062 C 10.792969 15.6875 10.828125 15.699219 10.863281 15.699219 C 10.886719 15.699219 10.910156 15.695312 10.9375 15.679688 C 10.984375 15.65625 11.0625 15.609375 11.054688 15.554688 C 11.050781 15.523438 11.019531 15.503906 10.964844 15.492188 Z M 10.6875 15.226562 C 10.703125 15.207031 10.734375 15.195312 10.777344 15.195312 C 10.785156 15.195312 10.796875 15.195312 10.804688 15.195312 C 10.832031 15.199219 10.855469 15.207031 10.875 15.21875 C 10.890625 15.226562 10.898438 15.242188 10.898438 15.261719 C 10.898438 15.277344 10.886719 15.292969 10.871094 15.300781 C 10.820312 15.320312 10.75 15.324219 10.707031 15.308594 C 10.699219 15.304688 10.6875 15.300781 10.679688 15.289062 C 10.671875 15.265625 10.671875 15.246094 10.6875 15.226562 Z M 10.6875 15.359375 C 10.710938 15.367188 10.742188 15.371094 10.769531 15.371094 C 10.8125 15.371094 10.855469 15.363281 10.890625 15.347656 C 10.925781 15.332031 10.949219 15.300781 10.949219 15.261719 C 10.953125 15.226562 10.933594 15.191406 10.902344 15.171875 C 10.875 15.160156 10.847656 15.148438 10.8125 15.144531 C 10.738281 15.132812 10.675781 15.152344 10.644531 15.195312 C 10.621094 15.226562 10.617188 15.269531 10.632812 15.308594 C 10.640625 15.332031 10.660156 15.347656 10.6875 15.359375 Z M 8.9375 14.191406 C 8.917969 14.152344 8.9375 14.109375 8.953125 14.089844 L 8.996094 14.125 C 8.988281 14.132812 8.976562 14.152344 8.980469 14.164062 C 8.988281 14.175781 9.019531 14.214844 9.234375 14.191406 C 9.421875 14.175781 9.433594 14.136719 9.433594 14.136719 C 9.433594 14.128906 9.410156 14.105469 9.390625 14.09375 L 9.414062 14.046875 C 9.429688 14.054688 9.496094 14.09375 9.484375 14.148438 C 9.472656 14.199219 9.398438 14.230469 9.242188 14.246094 C 9.195312 14.25 9.15625 14.25 9.121094 14.25 C 9.015625 14.25 8.957031 14.230469 8.9375 14.191406 Z M 7.660156 16.65625 C 7.683594 16.667969 7.851562 16.683594 7.964844 16.691406 L 7.960938 16.742188 C 7.914062 16.738281 7.679688 16.722656 7.640625 16.703125 Z M 10.46875 16.117188 C 10.445312 16.128906 9.988281 16.351562 9.523438 16.351562 C 9.445312 16.351562 9.367188 16.347656 9.289062 16.332031 L 9.296875 16.28125 C 9.816406 16.378906 10.441406 16.074219 10.445312 16.070312 Z M 10.832031 15.78125 C 10.8125 15.824219 10.71875 15.867188 10.683594 15.863281 C 10.679688 15.863281 10.675781 15.863281 10.675781 15.859375 C 10.671875 15.851562 10.675781 15.824219 10.6875 15.804688 L 10.683594 15.800781 C 10.746094 15.789062 10.796875 15.773438 10.828125 15.765625 C 10.832031 15.769531 10.835938 15.773438 10.832031 15.78125 Z M 10.859375 15.703125 C 10.847656 15.707031 9.800781 16.011719 9.117188 15.839844 L 9.105469 15.890625 C 9.257812 15.929688 9.429688 15.945312 9.601562 15.945312 C 9.984375 15.945312 10.378906 15.871094 10.625 15.816406 C 10.621094 15.835938 10.617188 15.863281 10.628906 15.882812 C 10.632812 15.894531 10.648438 15.910156 10.675781 15.914062 C 10.679688 15.914062 10.683594 15.914062 10.6875 15.914062 C 10.746094 15.914062 10.847656 15.863281 10.878906 15.804688 C 10.890625 15.777344 10.886719 15.75 10.867188 15.730469 Z M 9.292969 15.445312 C 9.539062 15.449219 10.488281 15.445312 10.496094 15.445312 L 10.496094 15.496094 C 10.492188 15.496094 10.070312 15.5 9.714844 15.5 C 9.539062 15.5 9.375 15.5 9.292969 15.496094 Z M 22.304688 20.59375 L 20.847656 22.601562 L 20.804688 22.570312 L 22.265625 20.5625 Z M 22.621094 22.695312 C 22.734375 22.660156 22.765625 22.679688 22.773438 22.6875 C 22.773438 22.6875 22.777344 22.691406 22.777344 22.695312 C 22.664062 22.796875 22.542969 22.875 22.429688 22.90625 C 22.441406 22.851562 22.476562 22.738281 22.621094 22.695312 Z M 23.722656 21.039062 C 23.722656 21.046875 23.796875 21.875 23.554688 22.246094 C 23.324219 22.605469 22.804688 22.933594 22.488281 22.941406 C 22.878906 22.796875 23.351562 22.136719 23.378906 21.96875 C 23.402344 21.808594 23.378906 20.984375 23.378906 20.949219 L 23.324219 20.953125 C 23.324219 20.960938 23.351562 21.804688 23.324219 21.960938 C 23.3125 22.050781 23.082031 22.40625 22.816406 22.65625 C 22.8125 22.65625 22.8125 22.652344 22.808594 22.648438 C 22.773438 22.617188 22.707031 22.613281 22.605469 22.644531 C 22.421875 22.699219 22.386719 22.851562 22.378906 22.914062 C 22.328125 22.914062 22.292969 22.898438 22.273438 22.871094 C 22.242188 22.820312 22.261719 22.734375 22.28125 22.691406 C 22.308594 22.628906 22.507812 22.421875 22.65625 22.265625 C 22.6875 22.230469 22.722656 22.199219 22.75 22.167969 C 22.890625 22.015625 22.886719 21.9375 22.882812 21.914062 C 22.878906 21.890625 22.875 21.773438 22.832031 21.195312 C 22.777344 20.535156 22.660156 20.476562 22.636719 20.472656 L 22.621094 20.519531 C 22.625 20.523438 22.730469 20.578125 22.777344 21.199219 C 22.828125 21.851562 22.828125 21.914062 22.828125 21.914062 L 22.828125 21.921875 L 22.832031 21.925781 C 22.832031 21.925781 22.847656 21.988281 22.710938 22.132812 C 22.683594 22.164062 22.652344 22.195312 22.617188 22.230469 C 22.417969 22.441406 22.265625 22.605469 22.234375 22.667969 C 22.210938 22.714844 22.179688 22.828125 22.230469 22.898438 C 22.261719 22.941406 22.308594 22.964844 22.378906 22.964844 C 22.382812 22.964844 22.386719 22.964844 22.390625 22.964844 L 22.382812 22.988281 C 22.414062 22.992188 22.445312 22.996094 22.476562 22.996094 C 22.832031 22.996094 23.375 22.621094 23.597656 22.277344 C 23.851562 21.886719 23.777344 21.070312 23.773438 21.035156 Z M 15.683594 14.03125 L 15.734375 14.039062 L 15.683594 14.359375 L 15.632812 14.351562 Z M 8.046875 13.539062 L 8.121094 13.804688 L 8.070312 13.816406 L 7.996094 13.550781 Z M 12.722656 13.210938 C 12.726562 13.308594 12.53125 13.421875 12.328125 13.445312 C 12.304688 13.445312 12.285156 13.449219 12.265625 13.449219 C 12.179688 13.449219 12.117188 13.425781 12.078125 13.386719 C 12.027344 13.328125 12.039062 13.257812 12.039062 13.253906 L 12.089844 13.261719 C 12.089844 13.265625 12.082031 13.3125 12.117188 13.351562 C 12.152344 13.390625 12.226562 13.402344 12.324219 13.394531 C 12.511719 13.375 12.671875 13.265625 12.671875 13.210938 C 12.667969 13.191406 12.621094 13.164062 12.496094 13.160156 L 12.496094 13.109375 C 12.644531 13.109375 12.71875 13.144531 12.722656 13.210938 Z M 14.148438 15.753906 L 14.15625 15.804688 C 13.972656 15.828125 13.394531 15.832031 13.371094 15.832031 L 13.371094 15.78125 C 13.375 15.78125 13.96875 15.773438 14.148438 15.753906 Z M 21.316406 20.460938 C 21.34375 20.417969 21.40625 20.382812 21.496094 20.363281 C 21.574219 20.351562 21.628906 20.355469 21.660156 20.386719 C 21.683594 20.414062 21.683594 20.457031 21.683594 20.476562 C 21.640625 20.5 21.46875 20.601562 21.300781 20.519531 C 21.300781 20.507812 21.300781 20.484375 21.316406 20.460938 Z M 21.257812 20.554688 L 21.265625 20.5625 C 21.324219 20.59375 21.386719 20.605469 21.441406 20.605469 C 21.589844 20.605469 21.714844 20.515625 21.722656 20.511719 L 21.730469 20.507812 L 21.730469 20.496094 C 21.730469 20.492188 21.75 20.40625 21.695312 20.351562 C 21.65625 20.308594 21.582031 20.292969 21.488281 20.3125 C 21.378906 20.335938 21.304688 20.375 21.269531 20.433594 C 21.238281 20.492188 21.253906 20.542969 21.253906 20.546875 Z M 20.875 11.34375 L 21.164062 10.871094 L 21.210938 10.898438 L 20.917969 11.371094 Z M 21.742188 11.445312 L 21.6875 11.457031 L 21.601562 10.953125 L 21.652344 10.945312 Z M 21.285156 11.457031 L 21.238281 11.441406 L 21.394531 10.941406 L 21.445312 10.957031 Z M 17.125 15.105469 L 17.480469 15.296875 L 17.457031 15.34375 L 17.132812 15.167969 C 17.160156 15.359375 17.199219 15.695312 17.199219 15.945312 L 17.148438 15.945312 C 17.148438 15.578125 17.0625 15.027344 17.058594 15.023438 L 17.113281 15.015625 C 17.113281 15.015625 17.117188 15.050781 17.125 15.105469 Z M 18.761719 12.128906 L 18.8125 12.140625 C 18.800781 12.183594 17.617188 16.246094 17.609375 17.613281 L 17.558594 17.613281 C 17.566406 16.238281 18.75 12.167969 18.761719 12.128906 Z M 26.355469 17.015625 L 26.304688 17.011719 C 26.378906 15.546875 25.046875 15.1875 24.878906 15.148438 C 24.75 15.367188 23.402344 17.714844 23.308594 19.132812 C 23.789062 19.15625 24.160156 19.578125 24.175781 19.59375 L 24.136719 19.628906 C 24.132812 19.625 23.742188 19.183594 23.273438 19.183594 L 23.273438 19.179688 L 23.253906 19.179688 C 23.320312 17.742188 24.730469 15.296875 24.835938 15.117188 C 24.25 13.445312 25.964844 10.683594 25.984375 10.65625 L 26.027344 10.683594 C 26.011719 10.710938 24.308594 13.449219 24.882812 15.097656 C 25.042969 15.132812 26.433594 15.496094 26.355469 17.015625 Z M 21.039062 9.515625 C 21.171875 9.253906 22.464844 8.660156 22.960938 8.472656 C 23.042969 8.445312 23.125 8.457031 23.210938 8.515625 C 23.507812 8.722656 23.710938 9.441406 23.710938 9.519531 C 23.675781 9.628906 22.109375 10.902344 21.925781 11.019531 C 21.871094 10.929688 21.71875 10.324219 21.597656 9.777344 L 21.582031 9.699219 L 21.546875 9.773438 C 21.371094 10.175781 21.082031 10.816406 21.011719 10.925781 C 20.957031 10.871094 20.78125 10.636719 20.625 10.417969 C 20.664062 10.324219 20.910156 9.769531 21.039062 9.515625 Z M 21.015625 10.988281 C 21.035156 10.988281 21.070312 10.988281 21.5625 9.867188 C 21.65625 10.269531 21.835938 11.03125 21.90625 11.070312 C 21.914062 11.074219 21.917969 11.074219 21.921875 11.074219 C 21.925781 11.074219 21.929688 11.074219 21.933594 11.074219 C 21.953125 11.066406 23.765625 9.660156 23.765625 9.523438 C 23.765625 9.433594 23.558594 8.695312 23.238281 8.472656 C 23.140625 8.402344 23.042969 8.390625 22.941406 8.425781 C 22.464844 8.601562 21.140625 9.199219 20.992188 9.492188 C 20.851562 9.769531 20.574219 10.40625 20.570312 10.414062 L 20.5625 10.425781 L 20.574219 10.4375 C 20.964844 10.988281 21 10.988281 21.015625 10.988281 " fill-opacity="1" fill-rule="nonzero"/><g clip-path="url(#dfc50fc001)"><path fill="#100f0d" d="M 9.769531 5.660156 C 9.792969 5.847656 9.710938 6.070312 9.476562 6.339844 C 9.410156 6.179688 9.339844 6.066406 9.296875 6.003906 C 9.054688 6.019531 8.335938 6.058594 7.917969 5.90625 C 7.917969 5.90625 7.414062 6.230469 7.375 7.105469 C 7.355469 7.523438 7.34375 7.742188 7.339844 7.855469 C 7.296875 7.875 7.25 7.894531 7.207031 7.910156 C 6.632812 8.140625 6.171875 8.285156 6.171875 8.285156 C 6.171875 8.285156 6.15625 8.261719 6.128906 8.21875 C 5.902344 7.851562 4.90625 6.074219 6.554688 5.316406 C 6.636719 5.28125 6.714844 5.246094 6.796875 5.21875 C 6.878906 5.105469 7.105469 4.925781 7.738281 4.886719 C 7.953125 4.871094 8.21875 4.878906 8.484375 4.917969 C 8.023438 5.027344 7.636719 5.3125 7.511719 5.414062 C 7.523438 5.226562 7.714844 5.054688 7.714844 5.050781 L 7.679688 5.011719 C 7.671875 5.019531 7.453125 5.214844 7.457031 5.441406 C 7.378906 5.433594 7.175781 5.425781 7.015625 5.554688 C 6.886719 5.65625 6.820312 5.816406 6.808594 6.03125 L 6.863281 6.03125 C 6.871094 5.835938 6.933594 5.6875 7.046875 5.597656 C 7.226562 5.453125 7.476562 5.496094 7.480469 5.496094 L 7.492188 5.496094 L 7.503906 5.488281 C 7.511719 5.484375 8.03125 5.027344 8.636719 4.941406 C 9.140625 5.03125 9.617188 5.222656 9.742188 5.550781 C 9.679688 5.488281 9.601562 5.429688 9.503906 5.378906 C 9.140625 5.195312 8.660156 5.222656 8.066406 5.457031 L 8.085938 5.503906 C 8.664062 5.277344 9.132812 5.25 9.476562 5.425781 C 9.605469 5.492188 9.699219 5.578125 9.769531 5.660156 " fill-opacity="1" fill-rule="nonzero"/></g><g clip-path="url(#a49fde777c)"><path fill="#e19f74" d="M 9.675781 7.503906 C 9.710938 7.015625 9.59375 6.613281 9.476562 6.339844 C 9.410156 6.179688 9.339844 6.066406 9.296875 6.003906 C 9.054688 6.019531 8.335938 6.058594 7.917969 5.90625 C 7.917969 5.90625 7.414062 6.230469 7.375 7.105469 C 7.355469 7.523438 7.34375 7.742188 7.339844 7.855469 C 7.335938 7.976562 7.335938 7.976562 7.335938 7.976562 L 7.207031 7.910156 L 6.859375 7.726562 C 6.480469 7.648438 6.144531 7.703125 6.128906 8.164062 C 6.128906 8.183594 6.128906 8.199219 6.128906 8.21875 C 6.152344 8.667969 6.640625 8.976562 6.640625 8.976562 L 6.714844 10.109375 L 8.484375 11.589844 L 8.675781 9.910156 C 8.675781 9.910156 9.5625 9.941406 9.675781 9.800781 C 9.792969 9.664062 9.777344 8.332031 9.777344 8.332031 C 9.777344 8.332031 10.15625 8.074219 10.171875 7.984375 C 10.1875 7.894531 9.675781 7.503906 9.675781 7.503906 Z M 23.230469 6.847656 L 23.015625 8.035156 L 23.171875 8.707031 C 22.671875 9.570312 21.421875 9.679688 21.421875 9.679688 L 21.136719 9.105469 C 21.136719 9.105469 20.625 9.179688 20.304688 9.105469 C 19.980469 9.027344 20.09375 8.679688 19.878906 8.105469 C 19.667969 7.527344 19.828125 7.078125 19.828125 7.078125 C 19.683594 6.789062 19.703125 6.390625 19.726562 6.085938 C 19.753906 5.78125 20.347656 5.261719 20.347656 5.261719 C 22.550781 4.066406 23.230469 6.847656 23.230469 6.847656 " fill-opacity="1" fill-rule="nonzero"/></g><path fill="#100f0d" d="M 20.03125 8.695312 C 20.03125 8.695312 20.507812 9.019531 21.128906 8.648438 C 21.128906 8.648438 21.652344 8.75 21.882812 8.105469 C 21.882812 8.105469 22.042969 7.957031 22.367188 8.035156 C 22.6875 8.117188 22.207031 8.984375 21.136719 9.105469 C 20.0625 9.222656 19.929688 9.042969 19.929688 9.042969 L 20.03125 8.695312 " fill-opacity="1" fill-rule="nonzero"/><path fill="#ffffff" d="M 9.777344 8.714844 C 9.777344 8.714844 9.167969 8.773438 8.675781 8.652344 C 8.675781 8.652344 9.203125 9.183594 9.769531 9.070312 Z M 9.296875 7.136719 C 9.296875 7.136719 9.089844 7.023438 8.675781 7.339844 C 8.675781 7.339844 8.960938 7.695312 9.1875 7.703125 C 9.414062 7.707031 9.296875 7.136719 9.296875 7.136719 Z M 19.972656 7.28125 C 20.027344 7.289062 20.140625 7.089844 20.046875 6.949219 C 19.953125 6.808594 19.785156 6.890625 19.785156 6.890625 C 19.78125 7.339844 19.921875 7.273438 19.972656 7.28125 Z M 20.871094 7.1875 C 20.726562 7.222656 20.507812 7.015625 20.558594 6.820312 C 20.613281 6.621094 21.378906 6.703125 21.378906 6.703125 C 21.367188 6.980469 21.011719 7.148438 20.871094 7.1875 " fill-opacity="1" fill-rule="nonzero"/><path fill="#100f0d" d="M 8.757812 8.695312 C 9.449219 8.8125 9.765625 8.734375 9.78125 8.730469 L 9.765625 8.679688 C 9.761719 8.679688 9.417969 8.765625 8.679688 8.628906 L 8.632812 8.617188 C 8.683594 8.582031 8.714844 8.539062 8.714844 8.535156 L 8.671875 8.507812 C 8.671875 8.511719 8.609375 8.609375 8.488281 8.613281 L 8.492188 8.664062 C 8.542969 8.664062 8.582031 8.648438 8.617188 8.628906 L 8.65625 8.671875 C 8.660156 8.675781 9.078125 9.109375 9.609375 9.109375 C 9.664062 9.109375 9.71875 9.105469 9.773438 9.09375 L 9.761719 9.042969 C 9.308594 9.125 8.910156 8.828125 8.757812 8.695312 Z M 7.53125 9.402344 C 7.527344 9.398438 7.238281 9.273438 7.078125 8.851562 L 7.0625 8.808594 L 7.035156 8.84375 C 7.03125 8.847656 6.902344 9.003906 6.648438 8.949219 L 6.636719 9 C 6.851562 9.046875 6.988281 8.957031 7.046875 8.90625 C 7.214844 9.324219 7.5 9.445312 7.511719 9.449219 Z M 6.835938 8.089844 C 6.828125 8.085938 6.648438 7.921875 6.429688 8.019531 L 6.453125 8.066406 C 6.636719 7.984375 6.792969 8.125 6.800781 8.128906 Z M 9.789062 8.132812 L 9.765625 8.085938 L 9.546875 8.195312 L 9.570312 8.242188 Z M 9.320312 6.507812 C 9.320312 6.507812 8.621094 6.375 8.46875 6.722656 L 8.40625 6.855469 C 8.40625 6.855469 9.214844 6.652344 9.304688 6.65625 C 9.394531 6.65625 9.414062 6.515625 9.320312 6.507812 Z M 8.957031 7.097656 C 8.660156 7.222656 8.59375 7.390625 8.59375 7.390625 C 8.59375 7.390625 8.882812 7.199219 9.113281 7.140625 C 9.105469 7.234375 9.070312 7.707031 9.269531 7.664062 C 9.269531 7.664062 9.398438 7.582031 9.296875 7.136719 C 9.296875 7.136719 9.253906 6.972656 8.957031 7.097656 Z M 21.378906 6.703125 C 21.378906 6.703125 20.929688 6.652344 20.765625 6.6875 C 20.601562 6.722656 20.574219 6.777344 20.558594 6.820312 C 20.476562 7.007812 20.691406 7.195312 20.835938 7.191406 C 20.980469 7.183594 20.839844 6.757812 20.835938 6.746094 C 20.964844 6.722656 21.140625 6.703125 21.378906 6.703125 Z M 19.785156 6.890625 C 19.785156 6.890625 19.804688 6.890625 19.832031 6.890625 L 19.785156 6.890625 C 19.765625 7.113281 19.835938 7.304688 19.933594 7.28125 C 20.023438 7.261719 19.9375 6.964844 19.917969 6.902344 C 19.964844 6.910156 20.015625 6.929688 20.058594 6.972656 C 20.058594 6.972656 20.015625 6.789062 19.785156 6.890625 Z M 22.914062 6.652344 L 22.910156 6.601562 C 22.894531 6.601562 22.585938 6.648438 22.382812 6.957031 L 22.425781 6.984375 C 22.613281 6.695312 22.914062 6.652344 22.914062 6.652344 Z M 21.285156 8.109375 C 21.191406 8.109375 21.132812 8.078125 21.097656 8.046875 L 21.089844 8.039062 C 21.089844 8.039062 21.085938 8.039062 21.085938 8.039062 C 21.050781 8.003906 21.042969 7.96875 21.042969 7.964844 L 21.015625 7.972656 L 20.992188 7.980469 C 20.992188 7.980469 21.003906 8.027344 21.046875 8.070312 C 20.917969 8.171875 20.511719 8.449219 20.089844 8.308594 L 20.074219 8.359375 C 20.164062 8.386719 20.25 8.398438 20.335938 8.398438 C 20.691406 8.398438 20.988281 8.183594 21.089844 8.105469 C 21.132812 8.136719 21.195312 8.160156 21.285156 8.160156 Z M 20.527344 7.785156 L 20.316406 7.726562 L 20.304688 7.777344 L 20.511719 7.835938 Z M 20.144531 7.910156 C 19.964844 7.796875 19.921875 7.6875 19.917969 7.613281 C 19.910156 7.546875 19.9375 7.484375 19.988281 7.441406 C 20.109375 7.335938 20.109375 7.121094 20.109375 7.109375 L 20.054688 7.109375 C 20.054688 7.113281 20.058594 7.3125 19.957031 7.402344 C 19.890625 7.457031 19.859375 7.535156 19.863281 7.617188 C 19.871094 7.703125 19.917969 7.828125 20.117188 7.957031 Z M 19.933594 6.550781 C 19.933594 6.550781 19.898438 6.328125 19.878906 6.3125 C 19.855469 6.296875 19.714844 6.273438 19.710938 6.34375 C 19.710938 6.34375 19.710938 6.527344 19.714844 6.558594 C 19.714844 6.585938 19.796875 6.566406 19.933594 6.550781 Z M 21.21875 6.046875 C 21.246094 6.074219 21.195312 6.214844 21.195312 6.214844 C 20.816406 6.234375 20.449219 6.4375 20.410156 6.4375 C 20.371094 6.433594 20.421875 6.1875 20.421875 6.1875 C 20.550781 6.007812 21.1875 6.019531 21.21875 6.046875 " fill-opacity="1" fill-rule="nonzero"/><g clip-path="url(#dd51d977ea)"><path fill="#100f0d" d="M 23.015625 8.035156 L 22.753906 7.457031 C 23.101562 7.378906 23.273438 6.476562 22.914062 6.378906 C 22.554688 6.28125 22.195312 6.941406 22.195312 6.941406 C 22.246094 6.589844 21.785156 5.484375 21.785156 5.484375 C 21.785156 5.484375 21.773438 5.472656 21.75 5.457031 C 21.375 5.5 21.089844 5.355469 21.089844 5.355469 L 21.367188 5.328125 C 21.1875 5.3125 21.074219 5.25 21.007812 5.199219 C 20.90625 5.191406 20.796875 5.195312 20.679688 5.214844 C 20.003906 5.320312 19.734375 6.046875 19.734375 6.046875 C 19.734375 6.046875 19.335938 5.625 19.390625 5.640625 C 19.445312 5.65625 19.597656 5.640625 19.597656 5.640625 C 19.371094 5.59375 18.980469 5.261719 19.171875 5.273438 C 19.296875 5.285156 19.488281 5.214844 19.597656 5.167969 C 19.632812 5.167969 19.671875 5.167969 19.714844 5.167969 C 19.9375 5.167969 20.277344 5.144531 20.433594 5.003906 L 20.398438 4.964844 C 20.246094 5.101562 19.875 5.117188 19.667969 5.117188 C 19.585938 5.082031 19.304688 4.964844 19.292969 4.9375 C 19.28125 4.910156 19.726562 5.007812 20.121094 4.851562 C 20.421875 4.730469 20.738281 4.636719 20.867188 4.601562 C 21.296875 4.902344 21.957031 4.96875 21.988281 4.972656 L 21.992188 4.921875 C 21.984375 4.921875 21.273438 4.847656 20.859375 4.53125 C 20.726562 4.402344 20.515625 4.121094 20.746094 4.289062 C 21.027344 4.492188 22.027344 4.609375 22.027344 4.609375 C 22.894531 4.683594 23.316406 5.695312 23.398438 6.4375 C 23.476562 7.175781 23.015625 8.035156 23.015625 8.035156 " fill-opacity="1" fill-rule="nonzero"/></g><path fill="#100f0d" d="M 9.378906 5.996094 C 9.378906 5.996094 9.351562 5.996094 9.296875 6.003906 C 9.054688 6.019531 8.335938 6.058594 7.917969 5.90625 C 7.917969 5.90625 7.414062 6.230469 7.375 7.105469 C 7.335938 7.976562 7.335938 7.976562 7.335938 7.976562 L 6.859375 7.726562 C 6.875 7.730469 6.890625 7.730469 6.90625 7.734375 C 6.898438 7.734375 6.875 7.726562 6.839844 7.714844 L 6.835938 7.714844 L 5.992188 7.496094 C 5.992188 7.496094 5.28125 6.289062 6.589844 5.714844 C 6.726562 5.65625 6.867188 5.605469 7.003906 5.566406 C 6.882812 5.667969 6.820312 5.824219 6.808594 6.03125 L 6.863281 6.03125 C 6.871094 5.835938 6.933594 5.6875 7.046875 5.597656 C 7.09375 5.558594 7.148438 5.535156 7.199219 5.519531 C 7.246094 5.507812 7.289062 5.5 7.335938 5.492188 C 7.417969 5.484375 7.480469 5.496094 7.480469 5.496094 L 7.492188 5.496094 L 7.503906 5.488281 C 7.503906 5.488281 7.515625 5.480469 7.53125 5.464844 C 7.71875 5.445312 7.898438 5.445312 8.066406 5.457031 L 8.085938 5.503906 C 8.117188 5.492188 8.152344 5.480469 8.183594 5.46875 C 8.78125 5.539062 9.234375 5.78125 9.378906 5.996094 " fill-opacity="1" fill-rule="nonzero"/></svg>