<svg xmlns="http://www.w3.org/2000/svg" xmlns:xlink="http://www.w3.org/1999/xlink" width="1080" zoomAndPan="magnify" viewBox="0 0 810 809.999993" height="800" preserveAspectRatio="xMidYMid meet" version="1.0"><defs><filter x="0%" y="0%" width="100%" height="100%" id="9bdb6bc9f6"><feColorMatrix values="0 0 0 0 1 0 0 0 0 1 0 0 0 0 1 0 0 0 1 0" color-interpolation-filters="sRGB"/></filter><mask id="449b038d7f"><g filter="url(#9bdb6bc9f6)"><rect x="-81" width="972" fill="#000000" y="-80.999999" height="971.999992" fill-opacity="0.26"/></g></mask><clipPath id="f518cd1c32"><path d="M 17 68 L 753 68 L 753 749 L 17 749 Z M 17 68 " clip-rule="nonzero"/></clipPath><clipPath id="9e7f6861c1"><path d="M 689.042969 -47.3125 L 837.53125 631.898438 L 120.957031 788.554688 L -27.53125 109.347656 Z M 689.042969 -47.3125 " clip-rule="nonzero"/></clipPath><clipPath id="b2e5d77a8b"><path d="M 689.042969 -47.3125 L 837.53125 631.898438 L 120.957031 788.554688 L -27.53125 109.347656 Z M 689.042969 -47.3125 " clip-rule="nonzero"/></clipPath><clipPath id="a0bd3a0bfe"><rect x="0" width="810" y="0" height="789"/></clipPath><clipPath id="df32235d9e"><path d="M 91 145.824219 L 262 145.824219 L 262 262 L 91 262 Z M 91 145.824219 " clip-rule="nonzero"/></clipPath></defs><g mask="url(#449b038d7f)"><g transform="matrix(1, 0, 0, 1, 0, 0.000000000000039746)"><g clip-path="url(#a0bd3a0bfe)"><g clip-path="url(#f518cd1c32)"><g clip-path="url(#9e7f6861c1)"><g clip-path="url(#b2e5d77a8b)"><path fill="#38b6ff" d="M 79.503906 598.355469 C 79.238281 597.121094 78.972656 595.886719 78.703125 594.65625 C 77.523438 589.28125 76.34375 583.910156 75.160156 578.535156 C 74.011719 573.476562 74.023438 568.300781 74.007812 563.179688 C 73.964844 550.679688 74.554688 538.191406 76.121094 525.777344 C 77.179688 517.429688 78.667969 509.15625 80.308594 500.902344 C 84.015625 482.238281 88.804688 463.789062 91.890625 444.992188 C 93.867188 432.941406 94.703125 420.820312 93.839844 408.59375 C 93.425781 402.726562 92.894531 396.898438 92.011719 391.082031 C 91.484375 387.652344 91.15625 384.183594 90.203125 380.855469 C 88.417969 374.605469 86.605469 368.371094 84.484375 362.214844 C 82.019531 355.070312 79.273438 348.054688 76.425781 341.066406 C 74.085938 335.328125 71.402344 329.746094 68.617188 324.230469 C 63.507812 314.097656 57.957031 304.183594 51.914062 294.574219 C 44.800781 283.265625 38.21875 271.679688 32.535156 259.585938 C 29.496094 253.125 27.082031 246.445312 24.945312 239.617188 C 22.261719 231.050781 20.503906 222.285156 18.769531 213.523438 C 16.460938 201.871094 16.558594 190.164062 19.113281 178.503906 C 20.175781 173.671875 21.496094 168.921875 22.921875 164.1875 C 24.292969 159.613281 26.535156 155.449219 28.726562 151.269531 C 30.875 147.171875 33.222656 143.179688 35.730469 139.277344 C 41.167969 130.808594 47.867188 123.410156 55.171875 116.578125 C 66.753906 105.75 79.679688 96.722656 93.480469 88.96875 C 100.25 85.164062 107.398438 82.128906 114.835938 79.757812 C 117.339844 78.957031 119.839844 78.175781 122.382812 77.539062 C 126.355469 77.023438 130.078125 75.582031 133.878906 74.425781 C 138.214844 73.105469 142.851562 73.558594 147.164062 72.117188 C 153.390625 71.054688 159.6875 70.84375 165.984375 70.660156 C 173.648438 70.441406 181.308594 70.328125 188.972656 71.039062 C 196.210938 71.714844 203.375 72.832031 210.488281 74.277344 C 217.296875 75.664062 224.105469 77.101562 230.824219 78.863281 C 244.46875 82.441406 258.003906 86.425781 271.433594 90.761719 C 283.652344 94.707031 295.980469 98.3125 308.203125 102.25 C 318.941406 105.710938 329.792969 108.738281 340.777344 111.28125 C 354.839844 114.527344 369.023438 117.003906 383.523438 117.195312 C 390.984375 117.296875 398.398438 116.910156 405.828125 116.09375 C 411.417969 115.480469 416.882812 114.363281 422.230469 112.859375 C 427.976562 111.246094 433.753906 109.683594 439.355469 107.507812 C 445.023438 105.308594 450.882812 103.59375 456.621094 101.570312 C 461.667969 99.792969 466.671875 97.902344 471.683594 96.03125 C 477.777344 93.753906 483.855469 91.433594 489.941406 89.148438 C 495.148438 87.195312 500.34375 85.21875 505.574219 83.335938 C 509.523438 81.914062 513.464844 80.421875 517.511719 79.328125 C 526.238281 76.96875 534.824219 74.015625 543.703125 72.292969 C 562.625 68.625 581.628906 67.535156 600.722656 71.03125 C 610.796875 72.875 620.582031 75.769531 630.222656 79.191406 C 639.066406 82.335938 647.53125 86.257812 655.601562 91.097656 C 665.929688 97.289062 675.289062 104.6875 684.277344 112.648438 C 696.933594 123.859375 706.953125 137.226562 716.152344 151.234375 C 723.25 162.042969 729.96875 173.109375 735.46875 184.851562 C 738.09375 190.449219 740.453125 196.160156 742.355469 202.074219 C 744.710938 209.386719 746.765625 216.761719 748.398438 224.265625 C 749.738281 230.4375 750.453125 236.691406 751.335938 242.929688 C 752.105469 248.351562 752.449219 253.78125 752.820312 259.222656 C 753.257812 265.640625 752.84375 272.03125 752.09375 278.402344 C 751.027344 287.414062 749.015625 296.242188 746.539062 304.960938 C 744.351562 312.652344 741.867188 320.257812 739.667969 327.945312 C 737.605469 335.132812 736.03125 342.449219 734.296875 349.722656 C 731.453125 361.640625 730.195312 373.746094 729.257812 385.921875 C 728.53125 395.375 729.035156 404.8125 729.273438 414.246094 C 729.386719 418.492188 729.667969 422.878906 731.65625 426.867188 C 732.023438 427.605469 732.105469 428.488281 732.289062 429.308594 C 733.480469 434.660156 734.632812 440.015625 735.84375 445.363281 C 737.46875 452.550781 738.402344 459.835938 739.46875 467.117188 C 740.292969 472.730469 741.007812 478.359375 741.566406 483.988281 C 742.347656 491.820312 742.328125 499.703125 741.882812 507.574219 C 741.324219 517.359375 740.234375 527.09375 737.875 536.601562 C 735.1875 547.433594 732.023438 558.152344 727.136719 568.238281 C 721.410156 580.042969 712.882812 589.445312 702.195312 597.039062 C 695.722656 601.636719 688.945312 605.640625 681.488281 608.300781 C 674.457031 610.8125 667.222656 612.523438 659.75 613.464844 C 647.042969 615.058594 634.574219 613.414062 622.089844 611.554688 C 608.332031 609.5 594.492188 608.496094 580.597656 608.792969 C 575.585938 608.902344 570.527344 609.328125 565.582031 610.488281 C 559.734375 611.863281 553.8125 612.957031 547.988281 614.441406 C 543.011719 615.707031 538.191406 617.535156 533.34375 619.257812 C 526.8125 621.582031 520.40625 624.210938 514.054688 626.960938 C 505.851562 630.511719 497.710938 634.226562 490.15625 639.019531 C 480.472656 645.15625 470.953125 651.554688 461.425781 657.933594 C 457.585938 660.511719 453.84375 663.257812 450.183594 666.09375 C 443.351562 671.378906 436.597656 676.761719 429.84375 682.152344 C 422.023438 688.390625 414.304688 694.761719 406.421875 700.917969 C 396.382812 708.753906 386.394531 716.671875 375.335938 723.082031 C 365.871094 728.566406 356.167969 733.609375 345.894531 737.390625 C 339.292969 739.816406 332.574219 741.980469 325.632812 743.324219 C 320.671875 744.40625 315.710938 745.492188 310.753906 746.570312 C 291.761719 750.339844 273.148438 748.613281 254.75 742.917969 C 243.722656 739.507812 233.523438 734.402344 223.554688 728.691406 C 214.332031 723.402344 205.097656 718.128906 196.355469 712.085938 C 189.683594 707.476562 182.941406 702.972656 176.007812 698.792969 C 167 693.359375 157.878906 688.117188 149.023438 682.425781 C 140.613281 677.015625 132.675781 670.988281 125.050781 664.515625 C 117.34375 657.964844 110 651.050781 103.535156 643.277344 C 94.746094 632.710938 87.589844 621.148438 82.867188 608.15625 C 81.679688 604.910156 80.488281 601.667969 79.503906 598.355469 Z M 79.503906 598.355469 " fill-opacity="1" fill-rule="nonzero"/></g></g></g></g></g></g><path fill="#e6e3e3" d="M 260.484375 260.847656 L 92.175781 260.847656 L 92.175781 146.414062 L 260.484375 146.414062 L 260.484375 260.847656 " fill-opacity="1" fill-rule="nonzero"/><g clip-path="url(#df32235d9e)"><path fill="#000000" d="M 92.761719 260.261719 L 259.898438 260.261719 L 259.898438 147 L 92.761719 147 Z M 260.484375 261.433594 L 92.175781 261.433594 C 91.851562 261.433594 91.589844 261.175781 91.589844 260.847656 L 91.589844 146.414062 C 91.589844 146.085938 91.851562 145.824219 92.175781 145.824219 L 260.484375 145.824219 C 260.8125 145.824219 261.074219 146.085938 261.074219 146.414062 L 261.074219 260.847656 C 261.074219 261.175781 260.8125 261.433594 260.484375 261.433594 " fill-opacity="1" fill-rule="nonzero"/></g><path fill="#000000" d="M 176.449219 221.53125 C 176.3125 221.53125 176.175781 221.484375 176.066406 221.386719 L 97.917969 153.308594 C 97.671875 153.097656 97.648438 152.726562 97.859375 152.480469 C 98.074219 152.238281 98.445312 152.210938 98.6875 152.425781 L 176.445312 220.160156 L 253.027344 151.863281 C 253.269531 151.648438 253.640625 151.667969 253.859375 151.910156 C 254.074219 152.152344 254.054688 152.523438 253.808594 152.738281 L 176.839844 221.382812 C 176.730469 221.484375 176.589844 221.53125 176.449219 221.53125 " fill-opacity="1" fill-rule="nonzero"/><path fill="#38b6ff" d="M 404.242188 374.367188 C 391.835938 357.601562 372.871094 346.941406 352.101562 345.023438 C 340.273438 343.933594 325.445312 342.773438 308.90625 341.929688 C 307.992188 344.910156 306.722656 347.792969 305.070312 350.511719 C 300.273438 358.40625 292.765625 364.480469 284.398438 368.25 C 276.027344 372.027344 266.65625 373.734375 257.507812 372.628906 C 248.550781 371.546875 240.027344 367.730469 233.835938 361.054688 C 228.785156 355.617188 222.730469 349.042969 221.179688 341.914062 C 206.175781 342.765625 194.351562 344.003906 180.265625 346.214844 C 153.382812 350.425781 129.773438 366.421875 115.550781 389.628906 C 89.488281 432.152344 44.359375 505.265625 41.945312 566.105469 C 38.054688 664.15625 202.304688 621.867188 202.304688 621.867188 L 375.996094 608.640625 L 479.5625 528.476562 C 479.5625 528.476562 447.328125 432.574219 404.242188 374.367188 " fill-opacity="1" fill-rule="nonzero"/><path fill="#e6e3e3" d="M 199.261719 605.246094 C 198.035156 613.507812 206.394531 619.878906 214.027344 616.5 C 229.625 609.589844 246.523438 606.101562 263.585938 606.273438 L 337.382812 607.011719 C 337.382812 607.011719 343.140625 511.894531 238.808594 523.386719 C 238.808594 523.386719 207.324219 550.78125 199.261719 605.246094 " fill-opacity="1" fill-rule="nonzero"/><path fill="#000000" d="M 283.027344 607.964844 C 283 607.964844 282.972656 607.964844 282.941406 607.960938 C 282.621094 607.914062 282.398438 607.617188 282.445312 607.296875 C 283.222656 601.945312 281.972656 596.007812 278.917969 590.566406 C 276.363281 586.019531 272.589844 581.730469 267.375 577.457031 C 266.378906 576.640625 265.304688 575.796875 264.085938 575.265625 C 263.785156 575.136719 263.652344 574.789062 263.78125 574.488281 C 263.914062 574.195312 264.257812 574.058594 264.554688 574.1875 C 265.910156 574.78125 267.058594 575.679688 268.121094 576.550781 C 273.449219 580.917969 277.316406 585.3125 279.945312 589.992188 C 283.125 595.65625 284.421875 601.859375 283.609375 607.464844 C 283.566406 607.757812 283.316406 607.964844 283.027344 607.964844 " fill-opacity="1" fill-rule="nonzero"/><path fill="#000000" d="M 306.882812 606.601562 C 306.59375 606.601562 306.339844 606.386719 306.300781 606.09375 C 305.402344 599.773438 304.117188 592.375 301.351562 585.449219 C 298.488281 578.273438 294.285156 572.414062 289.195312 568.503906 C 288.9375 568.304688 288.886719 567.9375 289.089844 567.679688 C 289.285156 567.421875 289.652344 567.371094 289.910156 567.570312 C 295.167969 571.609375 299.503906 577.640625 302.441406 585.011719 C 305.253906 592.054688 306.554688 599.539062 307.460938 605.929688 C 307.507812 606.25 307.285156 606.546875 306.964844 606.59375 C 306.933594 606.597656 306.90625 606.601562 306.882812 606.601562 " fill-opacity="1" fill-rule="nonzero"/><path fill="#000000" d="M 325.992188 606.601562 C 325.964844 606.601562 325.941406 606.597656 325.917969 606.59375 C 325.597656 606.558594 325.367188 606.265625 325.40625 605.941406 C 328.628906 578.90625 310.917969 562.046875 310.742188 561.878906 C 310.503906 561.65625 310.492188 561.285156 310.710938 561.046875 C 310.933594 560.8125 311.304688 560.796875 311.539062 561.019531 C 311.722656 561.1875 329.871094 578.4375 326.570312 606.082031 C 326.535156 606.378906 326.28125 606.601562 325.992188 606.601562 " fill-opacity="1" fill-rule="nonzero"/><path fill="#e6e3e3" d="M 579.566406 632.757812 L 212.304688 632.757812 C 210.128906 632.757812 207.953125 632.199219 206.164062 630.964844 C 201.960938 628.074219 200.503906 622.90625 202.164062 618.464844 C 206.496094 609.378906 215.445312 606.183594 228.679688 606.183594 L 603.664062 606.183594 L 598.796875 619.410156 C 595.796875 627.4375 588.128906 632.757812 579.566406 632.757812 " fill-opacity="1" fill-rule="nonzero"/><path fill="#000000" d="M 228.679688 606.769531 C 214.648438 606.769531 206.632812 610.453125 202.695312 618.71875 C 201.101562 622.984375 202.65625 627.839844 206.496094 630.480469 C 208.101562 631.585938 210.109375 632.167969 212.304688 632.167969 L 579.566406 632.167969 C 587.839844 632.167969 595.347656 626.960938 598.246094 619.207031 L 602.824219 606.769531 Z M 212.304688 633.34375 C 209.871094 633.34375 207.632812 632.6875 205.828125 631.449219 C 201.546875 628.5 199.8125 623.078125 201.613281 618.261719 C 205.792969 609.484375 214.136719 605.597656 228.679688 605.597656 L 603.664062 605.597656 C 603.855469 605.597656 604.035156 605.691406 604.144531 605.847656 C 604.253906 606.003906 604.28125 606.203125 604.214844 606.382812 L 599.347656 619.613281 C 596.277344 627.828125 588.328125 633.34375 579.566406 633.34375 L 212.304688 633.34375 " fill-opacity="1" fill-rule="nonzero"/><path fill="#e6e3e3" d="M 581.644531 632.757812 C 588.988281 632.757812 595.59375 628.277344 598.3125 621.453125 L 663.328125 458.230469 C 665.050781 453.898438 664.519531 448.992188 661.902344 445.132812 C 659.289062 441.273438 654.929688 438.960938 650.269531 438.960938 L 424.554688 438.960938 C 410.953125 438.960938 398.824219 447.535156 394.285156 460.363281 L 333.257812 632.757812 L 581.644531 632.757812 " fill-opacity="1" fill-rule="nonzero"/><path fill="#000000" d="M 334.089844 632.167969 L 581.644531 632.167969 C 588.789062 632.167969 595.121094 627.878906 597.765625 621.238281 L 662.78125 458.011719 C 664.4375 453.859375 663.925781 449.164062 661.417969 445.460938 C 658.90625 441.761719 654.742188 439.550781 650.269531 439.550781 L 424.554688 439.550781 C 411.226562 439.550781 399.289062 447.992188 394.839844 460.558594 Z M 581.644531 633.34375 L 333.257812 633.34375 C 333.066406 633.34375 332.886719 633.25 332.777344 633.097656 C 332.667969 632.941406 332.640625 632.738281 332.703125 632.5625 L 393.730469 460.164062 C 398.34375 447.132812 410.734375 438.375 424.554688 438.375 L 650.269531 438.375 C 655.128906 438.375 659.664062 440.78125 662.390625 444.804688 C 665.117188 448.828125 665.671875 453.929688 663.871094 458.445312 L 598.855469 621.671875 C 596.03125 628.761719 589.273438 633.34375 581.644531 633.34375 " fill-opacity="1" fill-rule="nonzero"/><path fill="#000000" d="M 586.929688 608.371094 L 363.144531 608.371094 C 362.820312 608.371094 362.554688 608.105469 362.554688 607.78125 C 362.554688 607.457031 362.820312 607.195312 363.144531 607.195312 L 586.929688 607.195312 C 587.253906 607.195312 587.515625 607.457031 587.515625 607.78125 C 587.515625 608.105469 587.253906 608.371094 586.929688 608.371094 " fill-opacity="1" fill-rule="nonzero"/><path fill="#000000" d="M 113.050781 525.699219 C 112.730469 525.699219 112.46875 525.441406 112.464844 525.121094 C 112.457031 524.796875 112.714844 524.527344 113.039062 524.523438 L 233.394531 522.238281 C 233.710938 522.222656 233.984375 522.492188 233.992188 522.8125 C 233.996094 523.136719 233.738281 523.40625 233.414062 523.414062 L 113.0625 525.699219 C 113.058594 525.699219 113.054688 525.699219 113.050781 525.699219 " fill-opacity="1" fill-rule="nonzero"/><path fill="#000000" d="M 153.242188 518.867188 C 153.1875 518.867188 153.128906 518.859375 153.074219 518.839844 C 152.761719 518.746094 152.585938 518.421875 152.679688 518.109375 C 157.054688 503.53125 163.09375 489.433594 170.625 476.207031 C 172.144531 473.535156 174.574219 469.996094 178.21875 470.117188 C 178.542969 470.128906 178.796875 470.402344 178.789062 470.726562 C 178.777344 471.050781 178.496094 471.304688 178.179688 471.292969 C 175.195312 471.183594 173.015625 474.382812 171.644531 476.789062 C 164.160156 489.9375 158.15625 503.953125 153.804688 518.449219 C 153.730469 518.703125 153.496094 518.867188 153.242188 518.867188 " fill-opacity="1" fill-rule="nonzero"/><path fill="#e6e3e3" d="M 254.882812 273.226562 L 233.378906 336.113281 C 232.003906 340.128906 228.585938 343.105469 224.421875 343.917969 L 214.847656 345.78125 C 214.847656 345.78125 239.738281 399.832031 281.683594 390.777344 C 323.632812 381.722656 314.410156 345.78125 314.410156 345.78125 L 305.535156 345.0625 C 300.222656 344.632812 296.578125 339.515625 297.910156 334.351562 L 307.886719 295.707031 C 307.886719 295.707031 267.238281 262.933594 254.882812 273.226562 " fill-opacity="1" fill-rule="nonzero"/><path fill="#000000" d="M 215.707031 346.210938 C 217.128906 349.097656 223.152344 360.683594 232.984375 371.296875 C 243.339844 382.46875 260.171875 394.820312 281.5625 390.203125 C 294.824219 387.339844 304.273438 381.484375 309.648438 372.789062 C 316.652344 361.464844 314.4375 348.742188 313.929688 346.332031 L 305.488281 345.648438 C 302.785156 345.429688 300.328125 344.035156 298.753906 341.824219 C 297.179688 339.613281 296.664062 336.835938 297.34375 334.207031 L 307.222656 295.929688 C 303.542969 293.019531 266.835938 264.46875 255.382812 273.574219 L 233.933594 336.300781 C 232.496094 340.507812 228.894531 343.644531 224.53125 344.496094 Z M 272.402344 392.367188 C 258.28125 392.367188 244.511719 385.46875 232.105469 372.074219 C 220.707031 359.765625 214.375 346.164062 214.3125 346.027344 C 214.238281 345.863281 214.242188 345.671875 214.324219 345.511719 C 214.40625 345.351562 214.558594 345.238281 214.734375 345.203125 L 224.304688 343.34375 C 228.257812 342.570312 231.519531 339.730469 232.824219 335.917969 L 254.324219 273.039062 C 254.359375 272.933594 254.421875 272.84375 254.503906 272.773438 C 267.085938 262.292969 306.582031 293.898438 308.253906 295.25 C 308.433594 295.394531 308.511719 295.632812 308.457031 295.855469 L 298.480469 334.5 C 297.890625 336.792969 298.335938 339.214844 299.707031 341.144531 C 301.082031 343.070312 303.222656 344.289062 305.582031 344.476562 L 314.457031 345.195312 C 314.707031 345.214844 314.914062 345.390625 314.976562 345.636719 C 315.015625 345.78125 318.652344 360.457031 310.65625 373.394531 C 305.105469 382.375 295.402344 388.417969 281.808594 391.351562 C 278.667969 392.03125 275.527344 392.367188 272.402344 392.367188 " fill-opacity="1" fill-rule="nonzero"/><path fill="#000000" d="M 345.476562 195.042969 C 349.152344 213.183594 335.03125 229.636719 322.820312 232.664062 C 322.390625 232.773438 321.953125 232.867188 321.527344 232.960938 C 321.269531 233.859375 320.949219 234.757812 320.542969 235.644531 C 315.734375 246.160156 301.988281 251.273438 290.445312 250.226562 C 287.09375 253.8125 282.738281 258.796875 278.113281 265.105469 C 263.347656 285.246094 252.871094 276.1875 237.53125 256.246094 C 235.488281 253.59375 232.546875 250.203125 231.015625 244.578125 C 227.984375 233.417969 233.230469 223.363281 233.898438 222.128906 C 238.90625 212.867188 245.347656 213.214844 259.503906 203.699219 C 281.03125 189.238281 281.40625 178.183594 299.910156 171.9375 C 304.8125 170.28125 310.976562 168.285156 318.667969 169.695312 C 329.867188 171.75 342.578125 180.710938 345.476562 195.042969 " fill-opacity="1" fill-rule="nonzero"/><path fill="#e6e3e3" d="M 269.535156 283.007812 C 269.535156 283.007812 279.949219 307.066406 307.234375 302.621094 C 334.519531 298.179688 335.210938 263.460938 332.777344 226.570312 C 330.046875 230.058594 323.941406 232.738281 319.121094 234.789062 C 299.496094 243.136719 281.847656 232.195312 279.253906 230.792969 C 283.925781 236.539062 283.9375 244.339844 280 249.621094 C 277.824219 252.539062 273.726562 254.640625 266.480469 254.769531 C 266.480469 254.769531 263.023438 243.210938 252.730469 249.917969 C 242.4375 256.628906 246.265625 284.925781 269.535156 283.007812 " fill-opacity="1" fill-rule="nonzero"/><path fill="#000000" d="M 269.535156 282.417969 C 269.765625 282.417969 269.980469 282.554688 270.070312 282.773438 C 270.171875 283.007812 280.640625 306.359375 307.140625 302.042969 C 334.183594 297.636719 334.445312 261.761719 332.28125 228.003906 C 329.339844 230.929688 324.308594 233.21875 319.351562 235.332031 C 311.015625 238.875 297.722656 241.167969 281.15625 232.5 C 284.429688 238.027344 284.242188 244.910156 280.464844 249.976562 C 277.894531 253.429688 273.191406 255.238281 266.492188 255.355469 C 266.488281 255.355469 266.488281 255.355469 266.480469 255.355469 C 266.222656 255.355469 265.992188 255.183594 265.917969 254.933594 C 265.90625 254.886719 264.429688 250.117188 260.738281 248.769531 C 258.542969 247.96875 255.957031 248.519531 253.054688 250.410156 C 248.242188 253.546875 246.527344 261.988281 249.144531 269.632812 C 252.164062 278.441406 259.761719 283.226562 269.484375 282.417969 C 269.5 282.417969 269.519531 282.417969 269.535156 282.417969 Z M 300.730469 303.75 C 279.878906 303.753906 270.550781 286.433594 269.175781 283.621094 C 259.082031 284.304688 251.195312 279.242188 248.035156 270.015625 C 245.25 261.882812 247.171875 252.839844 252.410156 249.425781 C 255.644531 247.320312 258.582031 246.730469 261.148438 247.671875 C 264.734375 248.984375 266.417969 252.863281 266.898438 254.167969 C 272.984375 253.996094 277.234375 252.347656 279.527344 249.269531 C 283.46875 243.984375 283.167969 236.539062 278.796875 231.164062 C 278.621094 230.945312 278.621094 230.632812 278.800781 230.417969 C 278.976562 230.203125 279.285156 230.144531 279.53125 230.277344 C 279.664062 230.347656 279.839844 230.445312 280.054688 230.566406 C 296.988281 240.0625 310.519531 237.8125 318.890625 234.25 C 323.148438 232.441406 329.578125 229.703125 332.3125 226.207031 C 332.464844 226.015625 332.71875 225.941406 332.949219 226.007812 C 333.179688 226.082031 333.34375 226.289062 333.359375 226.535156 C 334.46875 243.332031 335.144531 262.449219 331.722656 276.898438 C 328.023438 292.527344 320.042969 301.128906 307.332031 303.203125 C 305.011719 303.578125 302.8125 303.75 300.730469 303.75 " fill-opacity="1" fill-rule="nonzero"/><path fill="#000000" d="M 267.925781 272.71875 C 267.683594 272.71875 267.457031 272.566406 267.375 272.320312 C 266.769531 270.558594 266.144531 268.734375 265.0625 267.222656 C 263.894531 265.601562 262.324219 264.609375 260.746094 264.5 C 260.421875 264.476562 260.175781 264.199219 260.199219 263.875 C 260.222656 263.550781 260.503906 263.304688 260.824219 263.328125 C 262.757812 263.460938 264.644531 264.632812 266.015625 266.539062 C 267.199219 268.1875 267.851562 270.097656 268.484375 271.941406 C 268.585938 272.25 268.425781 272.582031 268.117188 272.6875 C 268.054688 272.707031 267.992188 272.71875 267.925781 272.71875 " fill-opacity="1" fill-rule="nonzero"/><path fill="#e6e3e3" d="M 267.492188 198.101562 C 267.492188 198.101562 245.492188 209.703125 260.679688 245.378906 L 250.902344 250.675781 C 250.902344 250.675781 228.785156 205.03125 267.492188 198.101562 " fill-opacity="1" fill-rule="nonzero"/><path fill="#000000" d="M 264.765625 199.28125 C 256.71875 201.289062 251.089844 205.355469 248.011719 211.394531 C 240.84375 225.457031 249.53125 246.203125 251.171875 249.859375 L 259.933594 245.117188 C 252.25 226.761719 254.554688 214.867188 257.863281 208.101562 C 260.007812 203.714844 262.792969 200.890625 264.765625 199.28125 Z M 250.902344 251.265625 C 250.84375 251.265625 250.78125 251.253906 250.722656 251.234375 C 250.570312 251.1875 250.441406 251.078125 250.375 250.929688 C 249.898438 249.953125 238.855469 226.777344 246.964844 210.863281 C 250.570312 203.789062 257.4375 199.300781 267.386719 197.523438 C 267.671875 197.472656 267.953125 197.632812 268.046875 197.910156 C 268.144531 198.183594 268.023438 198.484375 267.765625 198.621094 C 267.714844 198.648438 262.351562 201.554688 258.886719 208.683594 C 255.679688 215.285156 253.480469 226.96875 261.222656 245.148438 C 261.339844 245.425781 261.226562 245.75 260.960938 245.894531 L 251.179688 251.191406 C 251.09375 251.238281 251 251.265625 250.902344 251.265625 " fill-opacity="1" fill-rule="nonzero"/><path fill="#000000" d="M 288.804688 294.171875 C 285.789062 294.171875 282.816406 293.050781 280.542969 290.957031 L 265.058594 276.707031 C 264.820312 276.492188 264.804688 276.117188 265.023438 275.878906 C 265.246094 275.640625 265.617188 275.625 265.855469 275.84375 L 281.339844 290.09375 C 284.199219 292.730469 288.289062 293.65625 292.003906 292.519531 L 315.601562 285.292969 C 315.910156 285.195312 316.238281 285.371094 316.335938 285.683594 C 316.429688 285.992188 316.253906 286.320312 315.945312 286.414062 L 292.347656 293.640625 C 291.1875 294 289.992188 294.171875 288.804688 294.171875 " fill-opacity="1" fill-rule="nonzero"/><path fill="#e6e3e3" d="M 325.125 283.8125 C 325.726562 286.5625 322.027344 289.703125 316.859375 290.832031 C 311.695312 291.960938 307.019531 290.648438 306.421875 287.898438 C 305.816406 285.148438 309.519531 282.007812 314.6875 280.878906 C 319.851562 279.75 324.527344 281.0625 325.125 283.8125 " fill-opacity="1" fill-rule="nonzero"/><path fill="#000000" d="M 318.324219 281.058594 C 317.199219 281.058594 316.011719 281.191406 314.8125 281.449219 C 310.050781 282.492188 306.472656 285.386719 306.992188 287.773438 C 307.234375 288.878906 308.332031 289.761719 310.085938 290.253906 C 311.964844 290.78125 314.328125 290.78125 316.734375 290.257812 C 321.492188 289.21875 325.074219 286.324219 324.554688 283.9375 C 324.3125 282.828125 323.214844 281.949219 321.457031 281.457031 C 320.519531 281.191406 319.453125 281.058594 318.324219 281.058594 Z M 313.222656 291.824219 C 311.984375 291.824219 310.8125 291.675781 309.769531 291.386719 C 307.578125 290.769531 306.183594 289.578125 305.84375 288.023438 C 305.164062 284.910156 308.992188 281.519531 314.5625 280.300781 C 317.152344 279.738281 319.714844 279.746094 321.777344 280.324219 C 323.96875 280.9375 325.363281 282.132812 325.699219 283.683594 C 326.382812 286.796875 322.554688 290.1875 316.984375 291.40625 C 315.707031 291.6875 314.433594 291.824219 313.222656 291.824219 " fill-opacity="1" fill-rule="nonzero"/><path fill="#e6e3e3" d="M 284.238281 265.128906 C 284.238281 278.1875 273.660156 288.769531 260.609375 288.769531 C 247.558594 288.769531 236.980469 278.1875 236.980469 265.128906 C 236.980469 252.074219 247.558594 241.492188 260.609375 241.492188 C 273.660156 241.492188 284.238281 252.074219 284.238281 265.128906 " fill-opacity="1" fill-rule="nonzero"/><path fill="#000000" d="M 260.609375 242.078125 C 247.90625 242.078125 237.566406 252.421875 237.566406 265.128906 C 237.566406 277.839844 247.90625 288.183594 260.609375 288.183594 C 273.316406 288.183594 283.652344 277.839844 283.652344 265.128906 C 283.652344 252.421875 273.316406 242.078125 260.609375 242.078125 Z M 260.609375 289.359375 C 247.257812 289.359375 236.394531 278.488281 236.394531 265.128906 C 236.394531 251.773438 247.257812 240.902344 260.609375 240.902344 C 273.964844 240.902344 284.828125 251.773438 284.828125 265.128906 C 284.828125 278.488281 273.964844 289.359375 260.609375 289.359375 " fill-opacity="1" fill-rule="nonzero"/><path fill="#e6e3e3" d="M 277.292969 265.128906 C 277.292969 274.347656 269.824219 281.820312 260.609375 281.820312 C 251.398438 281.820312 243.925781 274.347656 243.925781 265.128906 C 243.925781 255.914062 251.398438 248.441406 260.609375 248.441406 C 269.824219 248.441406 277.292969 255.914062 277.292969 265.128906 " fill-opacity="1" fill-rule="nonzero"/><path fill="#000000" d="M 260.609375 249.027344 C 251.734375 249.027344 244.515625 256.253906 244.515625 265.128906 C 244.515625 274.011719 251.734375 281.234375 260.609375 281.234375 C 269.484375 281.234375 276.707031 274.011719 276.707031 265.128906 C 276.707031 256.253906 269.484375 249.027344 260.609375 249.027344 Z M 260.609375 282.40625 C 251.089844 282.40625 243.339844 274.65625 243.339844 265.128906 C 243.339844 255.605469 251.089844 247.855469 260.609375 247.855469 C 270.132812 247.855469 277.878906 255.605469 277.878906 265.128906 C 277.878906 274.65625 270.132812 282.40625 260.609375 282.40625 " fill-opacity="1" fill-rule="nonzero"/><path fill="#77cdff" d="M 622.742188 316.078125 L 470.011719 316.078125 C 464.59375 316.078125 460.203125 311.683594 460.203125 306.269531 L 460.203125 236.628906 C 460.203125 231.210938 464.59375 226.820312 470.011719 226.820312 L 622.742188 226.820312 C 628.15625 226.820312 632.542969 231.210938 632.542969 236.628906 L 632.542969 306.269531 C 632.542969 311.683594 628.15625 316.078125 622.742188 316.078125 " fill-opacity="1" fill-rule="nonzero"/><path fill="#000000" d="M 543.375 154.046875 C 538.292969 154.046875 534.160156 158.179688 534.160156 163.265625 L 534.160156 238.613281 C 534.160156 243.695312 538.292969 247.832031 543.375 247.832031 L 707.125 247.832031 C 712.207031 247.832031 716.34375 243.695312 716.34375 238.613281 L 716.34375 189.882812 C 716.34375 189.71875 716.410156 189.558594 716.535156 189.449219 L 755.332031 154.046875 Z M 707.125 249.007812 L 543.375 249.007812 C 537.644531 249.007812 532.984375 244.34375 532.984375 238.613281 L 532.984375 163.265625 C 532.984375 157.53125 537.644531 152.871094 543.375 152.871094 L 756.84375 152.871094 C 757.085938 152.871094 757.304688 153.019531 757.390625 153.246094 C 757.480469 153.472656 757.417969 153.730469 757.242188 153.890625 L 717.515625 190.140625 L 717.515625 238.613281 C 717.515625 244.34375 712.855469 249.007812 707.125 249.007812 " fill-opacity="1" fill-rule="nonzero"/><path fill="#000000" d="M 597.386719 223.121094 C 597.0625 223.121094 596.796875 222.859375 596.796875 222.535156 L 596.796875 210.007812 C 596.796875 209.679688 597.0625 209.417969 597.386719 209.417969 C 608.5 209.417969 617.542969 200.375 617.542969 189.257812 C 617.542969 178.136719 608.5 169.089844 597.386719 169.089844 C 588.855469 169.089844 581.214844 174.496094 578.375 182.542969 C 578.265625 182.847656 577.929688 183.007812 577.625 182.898438 C 577.320312 182.792969 577.160156 182.457031 577.265625 182.152344 C 580.269531 173.636719 588.355469 167.917969 597.386719 167.917969 C 609.148438 167.917969 618.71875 177.488281 618.71875 189.257812 C 618.71875 200.824219 609.464844 210.273438 597.972656 210.585938 L 597.972656 222.535156 C 597.972656 222.859375 597.710938 223.121094 597.386719 223.121094 " fill-opacity="1" fill-rule="nonzero"/><path fill="#000000" d="M 597.402344 233.964844 C 597.078125 233.964844 596.816406 233.707031 596.816406 233.378906 L 596.816406 228.160156 C 596.816406 227.835938 597.078125 227.574219 597.402344 227.574219 C 597.726562 227.574219 597.988281 227.835938 597.988281 228.160156 L 597.988281 233.378906 C 597.988281 233.707031 597.726562 233.964844 597.402344 233.964844 " fill-opacity="1" fill-rule="nonzero"/><path fill="#000000" d="M 651.445312 223.121094 C 651.121094 223.121094 650.859375 222.859375 650.859375 222.535156 L 650.859375 210.007812 C 650.859375 209.679688 651.121094 209.417969 651.445312 209.417969 C 662.5625 209.417969 671.601562 200.375 671.601562 189.257812 C 671.601562 178.136719 662.5625 169.089844 651.445312 169.089844 C 642.914062 169.089844 635.273438 174.496094 632.433594 182.542969 C 632.328125 182.847656 631.992188 183.007812 631.683594 182.898438 C 631.378906 182.792969 631.21875 182.457031 631.328125 182.152344 C 634.328125 173.636719 642.417969 167.917969 651.445312 167.917969 C 663.207031 167.917969 672.777344 177.488281 672.777344 189.257812 C 672.777344 200.824219 663.523438 210.273438 652.035156 210.585938 L 652.035156 222.535156 C 652.035156 222.859375 651.769531 223.121094 651.445312 223.121094 " fill-opacity="1" fill-rule="nonzero"/><path fill="#000000" d="M 651.460938 233.964844 C 651.136719 233.964844 650.875 233.707031 650.875 233.378906 L 650.875 228.160156 C 650.875 227.835938 651.136719 227.574219 651.460938 227.574219 C 651.785156 227.574219 652.050781 227.835938 652.050781 228.160156 L 652.050781 233.378906 C 652.050781 233.707031 651.785156 233.964844 651.460938 233.964844 " fill-opacity="1" fill-rule="nonzero"/><path fill="#000000" d="M 342.910156 301.328125 L 379.308594 334.542969 C 379.429688 334.652344 379.5 334.8125 379.5 334.980469 L 379.5 380.191406 C 379.5 385.277344 383.636719 389.410156 388.71875 389.410156 L 541.449219 389.410156 C 546.53125 389.410156 550.664062 385.277344 550.664062 380.191406 L 550.664062 310.550781 C 550.664062 305.46875 546.53125 301.328125 541.449219 301.328125 Z M 541.449219 390.585938 L 388.71875 390.585938 C 382.988281 390.585938 378.324219 385.925781 378.324219 380.191406 L 378.324219 335.238281 L 341 301.175781 C 340.820312 301.011719 340.757812 300.757812 340.847656 300.53125 C 340.933594 300.304688 341.152344 300.15625 341.394531 300.15625 L 541.449219 300.15625 C 547.179688 300.15625 551.839844 304.816406 551.839844 310.550781 L 551.839844 380.191406 C 551.839844 385.925781 547.179688 390.585938 541.449219 390.585938 " fill-opacity="1" fill-rule="nonzero"/><path fill="#38b6ff" d="M 478.507812 374.5625 L 535.984375 374.5625 L 535.984375 328.507812 L 478.507812 328.507812 L 478.507812 374.5625 " fill-opacity="1" fill-rule="nonzero"/><path fill="#000000" d="M 466.929688 329.460938 L 442.917969 329.460938 C 442.59375 329.460938 442.328125 329.199219 442.328125 328.875 C 442.328125 328.546875 442.59375 328.285156 442.917969 328.285156 L 466.929688 328.285156 C 467.25 328.285156 467.515625 328.546875 467.515625 328.875 C 467.515625 329.199219 467.25 329.460938 466.929688 329.460938 " fill-opacity="1" fill-rule="nonzero"/><path fill="#000000" d="M 438.289062 329.460938 L 415.183594 329.460938 C 414.859375 329.460938 414.597656 329.199219 414.597656 328.875 C 414.597656 328.546875 414.859375 328.285156 415.183594 328.285156 L 438.289062 328.285156 C 438.613281 328.285156 438.878906 328.546875 438.878906 328.875 C 438.878906 329.199219 438.613281 329.460938 438.289062 329.460938 " fill-opacity="1" fill-rule="nonzero"/><path fill="#000000" d="M 410.558594 329.460938 L 394.382812 329.460938 C 394.058594 329.460938 393.796875 329.199219 393.796875 328.875 C 393.796875 328.546875 394.058594 328.285156 394.382812 328.285156 L 410.558594 328.285156 C 410.882812 328.285156 411.144531 328.546875 411.144531 328.875 C 411.144531 329.199219 410.882812 329.460938 410.558594 329.460938 " fill-opacity="1" fill-rule="nonzero"/><path fill="#000000" d="M 462.300781 351.675781 L 453.167969 351.675781 C 452.839844 351.675781 452.578125 351.410156 452.578125 351.085938 C 452.578125 350.765625 452.839844 350.5 453.167969 350.5 L 462.300781 350.5 C 462.625 350.5 462.890625 350.765625 462.890625 351.085938 C 462.890625 351.410156 462.625 351.675781 462.300781 351.675781 " fill-opacity="1" fill-rule="nonzero"/><path fill="#000000" d="M 448.539062 351.675781 L 408.953125 351.675781 C 408.632812 351.675781 408.367188 351.410156 408.367188 351.085938 C 408.367188 350.765625 408.632812 350.5 408.953125 350.5 L 448.539062 350.5 C 448.863281 350.5 449.128906 350.765625 449.128906 351.085938 C 449.128906 351.410156 448.863281 351.675781 448.539062 351.675781 " fill-opacity="1" fill-rule="nonzero"/><path fill="#000000" d="M 404.328125 351.675781 L 389.757812 351.675781 C 389.433594 351.675781 389.171875 351.410156 389.171875 351.085938 C 389.171875 350.765625 389.433594 350.5 389.757812 350.5 L 404.328125 350.5 C 404.652344 350.5 404.914062 350.765625 404.914062 351.085938 C 404.914062 351.410156 404.652344 351.675781 404.328125 351.675781 " fill-opacity="1" fill-rule="nonzero"/><path fill="#000000" d="M 466.929688 373.886719 L 428.445312 373.886719 C 428.125 373.886719 427.859375 373.625 427.859375 373.300781 C 427.859375 372.976562 428.125 372.714844 428.445312 372.714844 L 466.929688 372.714844 C 467.25 372.714844 467.515625 372.976562 467.515625 373.300781 C 467.515625 373.625 467.25 373.886719 466.929688 373.886719 " fill-opacity="1" fill-rule="nonzero"/><path fill="#000000" d="M 423.824219 373.886719 L 389.757812 373.886719 C 389.433594 373.886719 389.171875 373.625 389.171875 373.300781 C 389.171875 372.976562 389.433594 372.714844 389.757812 372.714844 L 423.824219 372.714844 C 424.148438 372.714844 424.410156 372.976562 424.410156 373.300781 C 424.410156 373.625 424.148438 373.886719 423.824219 373.886719 " fill-opacity="1" fill-rule="nonzero"/><path fill="#77cdff" d="M 748.078125 353.980469 C 748.078125 359.375 752.449219 363.746094 757.839844 363.746094 C 763.230469 363.746094 767.601562 359.375 767.601562 353.980469 C 767.601562 348.585938 763.230469 344.214844 757.839844 344.214844 C 752.449219 344.214844 748.078125 348.585938 748.078125 353.980469 " fill-opacity="1" fill-rule="nonzero"/><path fill="#77cdff" d="M 719.59375 353.980469 C 719.59375 359.375 723.964844 363.746094 729.351562 363.746094 C 734.746094 363.746094 739.113281 359.375 739.113281 353.980469 C 739.113281 348.585938 734.746094 344.214844 729.351562 344.214844 C 723.964844 344.214844 719.59375 348.585938 719.59375 353.980469 " fill-opacity="1" fill-rule="nonzero"/><path fill="#77cdff" d="M 691.109375 353.980469 C 691.109375 359.375 695.476562 363.746094 700.871094 363.746094 C 706.257812 363.746094 710.632812 359.375 710.632812 353.980469 C 710.632812 348.585938 706.257812 344.214844 700.871094 344.214844 C 695.476562 344.214844 691.109375 348.585938 691.109375 353.980469 " fill-opacity="1" fill-rule="nonzero"/><path fill="#000000" d="M 585.578125 508.015625 C 585.253906 508.015625 584.992188 507.75 584.992188 507.429688 L 584.992188 353.980469 C 584.992188 353.65625 585.253906 353.394531 585.578125 353.394531 L 680.90625 353.394531 C 681.230469 353.394531 681.492188 353.65625 681.492188 353.980469 C 681.492188 354.304688 681.230469 354.566406 680.90625 354.566406 L 586.164062 354.566406 L 586.164062 507.429688 C 586.164062 507.75 585.90625 508.015625 585.578125 508.015625 " fill-opacity="1" fill-rule="nonzero"/><path fill="#77cdff" d="M 464.871094 183.074219 C 464.871094 188.46875 469.242188 192.839844 474.632812 192.839844 C 480.027344 192.839844 484.394531 188.46875 484.394531 183.074219 C 484.394531 177.679688 480.027344 173.308594 474.632812 173.308594 C 469.242188 173.308594 464.871094 177.679688 464.871094 183.074219 " fill-opacity="1" fill-rule="nonzero"/><path fill="#77cdff" d="M 436.386719 183.074219 C 436.386719 188.46875 440.757812 192.839844 446.148438 192.839844 C 451.539062 192.839844 455.910156 188.46875 455.910156 183.074219 C 455.910156 177.679688 451.539062 173.308594 446.148438 173.308594 C 440.757812 173.308594 436.386719 177.679688 436.386719 183.074219 " fill-opacity="1" fill-rule="nonzero"/><path fill="#77cdff" d="M 407.902344 183.074219 C 407.902344 188.46875 412.273438 192.839844 417.664062 192.839844 C 423.054688 192.839844 427.425781 188.46875 427.425781 183.074219 C 427.425781 177.679688 423.054688 173.308594 417.664062 173.308594 C 412.273438 173.308594 407.902344 177.679688 407.902344 183.074219 " fill-opacity="1" fill-rule="nonzero"/><path fill="#77cdff" d="M 771.929688 517.398438 L 603.617188 517.398438 L 603.617188 402.960938 L 771.929688 402.960938 L 771.929688 517.398438 " fill-opacity="1" fill-rule="nonzero"/><path fill="#e6e3e3" d="M 687.894531 478.375 C 687.683594 478.375 687.480469 478.300781 687.3125 478.160156 L 609.167969 410.082031 C 608.800781 409.761719 608.761719 409.203125 609.082031 408.835938 C 609.402344 408.472656 609.957031 408.433594 610.324219 408.753906 L 687.882812 476.316406 L 764.277344 408.191406 C 764.636719 407.871094 765.195312 407.902344 765.519531 408.265625 C 765.84375 408.628906 765.8125 409.183594 765.449219 409.507812 L 688.480469 478.152344 C 688.3125 478.300781 688.101562 478.375 687.894531 478.375 " fill-opacity="1" fill-rule="nonzero"/></svg>