<svg xmlns="http://www.w3.org/2000/svg" xmlns:xlink="http://www.w3.org/1999/xlink" width="40" zoomAndPan="magnify" viewBox="0 0 30 30.000001" height="40" preserveAspectRatio="xMidYMid meet" version="1.0"><defs><clipPath id="31f3402379"><path d="M 1 6.144531 L 29.296875 6.144531 L 29.296875 22.839844 L 1 22.839844 Z M 1 6.144531 " clip-rule="nonzero"/></clipPath></defs><g clip-path="url(#31f3402379)"><path fill="#38b6ff" d="M 24.84375 22.050781 C 23.007812 22.050781 21.515625 20.554688 21.515625 18.71875 C 21.515625 17.671875 22.003906 16.738281 22.761719 16.125 L 23.714844 17.820312 C 23.515625 18.066406 23.394531 18.378906 23.394531 18.71875 C 23.394531 19.519531 24.042969 20.167969 24.84375 20.167969 C 25.644531 20.167969 26.292969 19.519531 26.292969 18.71875 C 26.292969 17.929688 25.660156 17.289062 24.875 17.273438 L 24.113281 15.476562 C 24.347656 15.421875 24.589844 15.390625 24.84375 15.390625 C 26.679688 15.390625 28.171875 16.882812 28.171875 18.71875 C 28.171875 20.554688 26.679688 22.050781 24.84375 22.050781 Z M 21.792969 14.070312 C 21.832031 14.027344 21.871094 13.984375 21.910156 13.941406 C 21.929688 13.921875 21.949219 13.90625 21.96875 13.886719 C 21.875 13.980469 21.78125 14.078125 21.691406 14.179688 C 21.722656 14.140625 21.757812 14.105469 21.792969 14.070312 Z M 12.96875 19.546875 C 12.6875 19.546875 12.304688 19.316406 12.175781 19.0625 L 11.476562 17.726562 C 11.609375 17.578125 11.75 17.433594 11.894531 17.289062 C 12.152344 17.050781 12.402344 16.796875 12.679688 16.5625 C 13.230469 16.097656 13.816406 15.648438 14.449219 15.25 C 14.605469 15.152344 14.761719 15.050781 14.917969 14.953125 L 15.40625 14.679688 C 15.726562 14.492188 16.066406 14.335938 16.398438 14.171875 C 16.730469 14.007812 17.074219 13.871094 17.410156 13.726562 C 17.753906 13.597656 18.085938 13.457031 18.429688 13.347656 C 19.109375 13.113281 19.785156 12.925781 20.441406 12.769531 C 21.097656 12.613281 21.734375 12.488281 22.339844 12.394531 C 22.664062 12.34375 22.980469 12.300781 23.285156 12.265625 C 23.105469 12.398438 22.929688 12.519531 22.78125 12.621094 L 22.636719 12.71875 C 22.238281 12.996094 21.824219 13.339844 21.429688 13.765625 C 21.238281 13.84375 21.046875 13.917969 20.855469 14.003906 C 20.273438 14.265625 19.683594 14.554688 19.109375 14.882812 C 18.820312 15.035156 18.542969 15.222656 18.257812 15.390625 C 17.984375 15.574219 17.703125 15.753906 17.4375 15.949219 C 17.175781 16.148438 16.90625 16.335938 16.660156 16.550781 L 16.289062 16.863281 L 15.941406 17.1875 C 15.472656 17.621094 15.0625 18.082031 14.6875 18.539062 C 14.503906 18.765625 14.339844 19.007812 14.171875 19.234375 C 14.101562 19.335938 14.035156 19.441406 13.972656 19.542969 Z M 6.917969 10.359375 L 7.105469 11.0625 C 7.152344 11.242188 7.339844 11.410156 7.519531 11.4375 L 12.828125 12.328125 C 13.007812 12.359375 13.203125 12.242188 13.261719 12.066406 L 13.59375 11.050781 C 13.785156 11.023438 13.96875 10.96875 14.140625 10.894531 L 13.707031 12.214844 C 13.59375 12.5625 13.257812 12.804688 12.886719 12.804688 C 12.839844 12.804688 12.796875 12.800781 12.75 12.792969 L 7.445312 11.902344 C 7.078125 11.84375 6.746094 11.539062 6.652344 11.183594 L 6.265625 9.742188 C 6.265625 9.746094 6.273438 9.75 6.273438 9.75 C 6.386719 10.003906 6.632812 10.210938 6.917969 10.359375 Z M 21.917969 10.070312 C 21.910156 10.074219 21.898438 10.078125 21.890625 10.082031 C 21.859375 10.089844 21.824219 10.097656 21.789062 10.101562 C 21.78125 10.101562 21.773438 10.101562 21.765625 10.101562 C 21.820312 10.101562 21.871094 10.089844 21.917969 10.070312 Z M 21.9375 10.066406 C 21.933594 10.066406 21.933594 10.066406 21.929688 10.066406 C 21.980469 10.046875 22.027344 10.019531 22.0625 9.980469 C 22.027344 10.015625 21.984375 10.042969 21.9375 10.066406 Z M 22.5625 13.363281 C 22.484375 13.425781 22.40625 13.488281 22.328125 13.554688 C 22.40625 13.488281 22.484375 13.425781 22.5625 13.363281 Z M 22.035156 13.820312 C 22.078125 13.78125 22.117188 13.738281 22.160156 13.703125 C 22.195312 13.667969 22.230469 13.640625 22.265625 13.609375 C 22.179688 13.683594 22.097656 13.761719 22.011719 13.84375 C 22.019531 13.835938 22.027344 13.828125 22.035156 13.820312 Z M 5.429688 21.882812 C 5.371094 21.886719 5.316406 21.886719 5.257812 21.886719 C 3.484375 21.886719 2.027344 20.5 1.9375 18.722656 C 1.847656 16.890625 3.261719 15.324219 5.097656 15.234375 C 5.152344 15.230469 5.210938 15.230469 5.265625 15.230469 C 6.390625 15.230469 7.386719 15.789062 7.988281 16.648438 L 6.226562 17.484375 C 5.96875 17.253906 5.632812 17.109375 5.261719 17.109375 C 4.460938 17.109375 3.8125 17.757812 3.8125 18.558594 C 3.8125 19.359375 4.460938 20.007812 5.261719 20.007812 C 5.914062 20.007812 6.457031 19.574219 6.640625 18.984375 L 8.585938 18.707031 C 8.511719 20.402344 7.15625 21.796875 5.429688 21.882812 Z M 24.84375 14.558594 C 24.476562 14.558594 24.121094 14.609375 23.78125 14.699219 L 23.0625 13 C 23.007812 13.039062 22.957031 13.074219 22.90625 13.109375 C 22.8125 13.171875 22.71875 13.242188 22.621094 13.316406 C 22.628906 13.308594 22.636719 13.300781 22.644531 13.296875 C 22.734375 13.230469 22.820312 13.167969 22.90625 13.109375 C 22.992188 13.046875 23.09375 12.980469 23.195312 12.910156 C 23.554688 12.660156 23.972656 12.359375 24.308594 12.027344 C 24.308594 12.023438 24.3125 12.019531 24.3125 12.019531 C 24.359375 11.972656 24.40625 11.921875 24.449219 11.875 C 24.457031 11.867188 24.460938 11.859375 24.46875 11.855469 C 24.507812 11.808594 24.542969 11.765625 24.578125 11.71875 C 24.582031 11.714844 24.582031 11.710938 24.585938 11.707031 C 24.589844 11.703125 24.597656 11.695312 24.601562 11.6875 C 24.632812 11.644531 24.660156 11.601562 24.6875 11.558594 C 24.695312 11.546875 24.707031 11.53125 24.714844 11.519531 C 24.738281 11.476562 24.757812 11.4375 24.78125 11.394531 C 24.789062 11.378906 24.796875 11.363281 24.804688 11.347656 C 24.8125 11.328125 24.816406 11.308594 24.824219 11.289062 C 24.832031 11.277344 24.835938 11.261719 24.839844 11.246094 C 24.84375 11.242188 24.84375 11.234375 24.847656 11.226562 C 24.851562 11.207031 24.859375 11.191406 24.863281 11.171875 C 24.871094 11.144531 24.875 11.117188 24.882812 11.085938 C 24.886719 11.066406 24.890625 11.050781 24.890625 11.03125 C 24.890625 11.019531 24.894531 11.007812 24.898438 11 C 24.902344 10.941406 24.902344 10.882812 24.894531 10.824219 C 24.878906 10.675781 24.847656 10.527344 24.808594 10.378906 C 24.796875 10.34375 24.789062 10.3125 24.777344 10.277344 C 24.285156 8.628906 22.46875 6.839844 21.800781 6.222656 C 21.769531 6.195312 21.742188 6.175781 21.71875 6.167969 C 21.710938 6.164062 21.707031 6.160156 21.699219 6.160156 C 21.691406 6.15625 21.683594 6.152344 21.675781 6.152344 C 21.671875 6.152344 21.671875 6.160156 21.667969 6.160156 C 21.652344 6.160156 21.644531 6.171875 21.636719 6.1875 C 21.632812 6.195312 21.628906 6.195312 21.625 6.207031 C 21.621094 6.234375 21.621094 6.273438 21.632812 6.324219 L 22.351562 9.25 C 22.394531 9.429688 22.328125 9.683594 22.203125 9.820312 L 22.191406 9.839844 L 21.28125 8.160156 C 21.253906 8.105469 21.207031 8.0625 21.148438 8.042969 L 21.003906 7.988281 C 21.007812 8.007812 21.003906 8.023438 21.007812 8.039062 C 20.988281 7.886719 20.890625 7.75 20.738281 7.695312 L 19.183594 7.140625 C 18.96875 7.0625 18.730469 7.175781 18.652344 7.390625 C 18.574219 7.605469 18.6875 7.84375 18.902344 7.921875 L 20.457031 8.480469 C 20.503906 8.496094 20.550781 8.503906 20.597656 8.503906 C 20.671875 8.503906 20.738281 8.480469 20.800781 8.445312 C 20.800781 8.445312 20.800781 8.449219 20.800781 8.449219 L 20.890625 8.480469 L 21.765625 10.101562 C 21.746094 10.101562 21.726562 10.101562 21.710938 10.097656 C 21.699219 10.097656 21.683594 10.097656 21.671875 10.09375 C 21.632812 10.085938 21.59375 10.070312 21.558594 10.046875 C 21.496094 10.007812 21.429688 9.964844 21.359375 9.921875 C 21.332031 9.902344 21.304688 9.882812 21.277344 9.867188 C 21.21875 9.828125 21.15625 9.789062 21.09375 9.75 C 21.0625 9.730469 21.027344 9.710938 20.996094 9.691406 C 20.933594 9.65625 20.871094 9.617188 20.804688 9.582031 C 20.769531 9.5625 20.734375 9.542969 20.695312 9.523438 C 20.621094 9.484375 20.539062 9.445312 20.460938 9.410156 C 20.429688 9.394531 20.398438 9.378906 20.367188 9.363281 C 20.25 9.316406 20.128906 9.269531 20.003906 9.222656 C 19.976562 9.214844 19.953125 9.210938 19.929688 9.203125 C 19.824219 9.167969 19.714844 9.136719 19.597656 9.113281 C 19.550781 9.101562 19.5 9.089844 19.453125 9.082031 C 19.351562 9.0625 19.253906 9.042969 19.148438 9.03125 C 19.089844 9.023438 19.03125 9.015625 18.972656 9.011719 C 18.863281 9 18.75 8.996094 18.632812 8.992188 C 18.59375 8.992188 18.554688 8.988281 18.511719 8.988281 C 18.488281 8.988281 18.460938 8.988281 18.433594 8.988281 C 18.386719 8.988281 18.335938 8.992188 18.289062 8.996094 C 18.183594 9 18.078125 9.007812 17.96875 9.015625 C 17.914062 9.023438 17.863281 9.027344 17.808594 9.035156 C 17.679688 9.050781 17.546875 9.070312 17.40625 9.097656 C 17.375 9.105469 17.339844 9.109375 17.308594 9.113281 C 17.132812 9.148438 16.953125 9.191406 16.769531 9.246094 C 16.722656 9.257812 16.671875 9.273438 16.621094 9.289062 C 16.480469 9.332031 16.335938 9.378906 16.1875 9.429688 C 16.121094 9.453125 16.054688 9.480469 15.984375 9.503906 C 15.839844 9.558594 15.691406 9.617188 15.539062 9.683594 C 15.472656 9.710938 15.410156 9.738281 15.34375 9.765625 C 15.125 9.863281 14.902344 9.96875 14.667969 10.089844 C 14.394531 10.230469 14.074219 10.4375 13.757812 10.539062 C 13.683594 10.5625 13.613281 10.582031 13.539062 10.589844 C 13.527344 10.59375 13.515625 10.59375 13.5 10.59375 C 13.429688 10.601562 13.363281 10.605469 13.296875 10.597656 L 7.738281 10.144531 C 7.28125 10.078125 6.820312 9.816406 6.703125 9.558594 C 6.699219 9.546875 6.6875 9.535156 6.683594 9.523438 C 6.683594 9.523438 6.683594 9.523438 6.679688 9.523438 C 6.628906 9.433594 6.535156 9.347656 6.414062 9.28125 C 6.414062 9.277344 6.410156 9.277344 6.40625 9.277344 C 6.371094 9.253906 6.332031 9.234375 6.289062 9.214844 C 6.277344 9.214844 6.269531 9.210938 6.261719 9.207031 C 6.222656 9.191406 6.1875 9.175781 6.144531 9.164062 C 6.128906 9.160156 6.109375 9.15625 6.089844 9.148438 C 6.058594 9.140625 6.027344 9.132812 5.992188 9.125 C 5.964844 9.117188 5.933594 9.113281 5.90625 9.109375 C 5.882812 9.105469 5.855469 9.101562 5.828125 9.097656 C 5.789062 9.09375 5.75 9.09375 5.710938 9.09375 C 5.695312 9.089844 5.679688 9.089844 5.664062 9.089844 C 5.664062 9.089844 5.660156 9.089844 5.660156 9.089844 L 2.914062 9.097656 C 2.457031 9.097656 2.21875 9.335938 2.386719 9.625 C 2.554688 9.914062 3 10.359375 3.378906 10.617188 L 8.691406 14.257812 C 9.070312 14.519531 9.550781 15.058594 9.761719 15.46875 L 9.90625 15.742188 L 8.746094 16.289062 C 8 15.148438 6.714844 14.398438 5.265625 14.394531 C 5.195312 14.394531 5.125 14.398438 5.054688 14.402344 C 2.757812 14.515625 0.992188 16.472656 1.105469 18.765625 C 1.21875 20.992188 3.058594 22.71875 5.257812 22.71875 C 5.328125 22.71875 5.398438 22.71875 5.472656 22.714844 C 7.6875 22.601562 9.402344 20.78125 9.417969 18.589844 L 11.257812 18.332031 L 11.757812 19.28125 C 11.96875 19.6875 12.511719 20.015625 12.96875 20.015625 C 12.972656 20.015625 12.972656 20.015625 12.972656 20.015625 L 13.679688 20.015625 L 19.199219 19.996094 C 19.660156 19.996094 19.988281 19.625 19.980469 19.164062 C 19.972656 18.960938 19.976562 18.765625 19.984375 18.574219 C 19.988281 18.511719 19.996094 18.453125 20 18.390625 C 20.007812 18.265625 20.015625 18.140625 20.027344 18.019531 C 20.035156 17.945312 20.046875 17.878906 20.054688 17.808594 C 20.070312 17.703125 20.085938 17.597656 20.101562 17.492188 C 20.117188 17.421875 20.132812 17.351562 20.144531 17.28125 C 20.164062 17.1875 20.183594 17.089844 20.207031 17 C 20.226562 16.929688 20.246094 16.859375 20.265625 16.792969 C 20.289062 16.707031 20.3125 16.617188 20.339844 16.535156 C 20.363281 16.46875 20.386719 16.402344 20.410156 16.335938 C 20.4375 16.257812 20.46875 16.175781 20.5 16.101562 C 20.523438 16.035156 20.550781 15.972656 20.578125 15.914062 C 20.609375 15.839844 20.644531 15.765625 20.675781 15.695312 C 20.707031 15.632812 20.734375 15.574219 20.765625 15.515625 C 20.800781 15.449219 20.835938 15.382812 20.875 15.316406 C 20.90625 15.257812 20.9375 15.203125 20.972656 15.148438 C 21.007812 15.085938 21.046875 15.027344 21.085938 14.964844 C 21.121094 14.914062 21.15625 14.859375 21.191406 14.808594 C 21.230469 14.75 21.273438 14.695312 21.3125 14.640625 C 21.351562 14.589844 21.386719 14.542969 21.421875 14.496094 C 21.464844 14.441406 21.507812 14.390625 21.550781 14.34375 C 21.585938 14.296875 21.625 14.25 21.664062 14.207031 C 21.667969 14.203125 21.671875 14.199219 21.675781 14.195312 L 22.351562 15.394531 C 21.339844 16.152344 20.683594 17.359375 20.683594 18.71875 C 20.683594 21.019531 22.542969 22.882812 24.84375 22.882812 C 27.140625 22.882812 29.003906 21.019531 29.003906 18.71875 C 29.003906 16.421875 27.140625 14.558594 24.84375 14.558594 " fill-opacity="1" fill-rule="nonzero"/></g></svg>