<svg xmlns="http://www.w3.org/2000/svg" xmlns:xlink="http://www.w3.org/1999/xlink" width="40" zoomAndPan="magnify" viewBox="0 0 30 30.000001" height="40" preserveAspectRatio="xMidYMid meet" version="1.0"><defs><clipPath id="66ce165fa4"><path d="M 9 9 L 20 9 L 20 28.179688 L 9 28.179688 Z M 9 9 " clip-rule="nonzero"/></clipPath><clipPath id="376371b327"><path d="M 4.195312 0.597656 L 25.96875 0.597656 L 25.96875 28.179688 L 4.195312 28.179688 Z M 4.195312 0.597656 " clip-rule="nonzero"/></clipPath></defs><g clip-path="url(#66ce165fa4)"><path fill="#28bff0" d="M 19.351562 27.933594 C 19.289062 27.898438 19.21875 27.882812 19.148438 27.859375 C 18.980469 27.800781 18.832031 27.695312 18.6875 27.589844 C 18.597656 27.523438 18.507812 27.453125 18.441406 27.363281 C 18.390625 27.292969 18.367188 27.210938 18.363281 27.125 C 18.363281 27.074219 18.324219 26.957031 18.335938 26.917969 C 18.359375 26.847656 18.332031 26.753906 18.328125 26.683594 C 18.324219 26.617188 18.320312 26.546875 18.320312 26.480469 C 18.320312 26.308594 18.324219 26.140625 18.320312 25.972656 C 18.316406 25.476562 18.351562 24.988281 18.410156 24.5 C 18.414062 24.4375 18.433594 24.375 18.402344 24.316406 C 18.523438 24.261719 18.625 24.167969 18.757812 24.132812 C 18.832031 24.117188 18.800781 24.019531 18.792969 23.964844 C 18.78125 23.84375 18.640625 23.796875 18.625 23.679688 C 18.613281 23.523438 18.640625 23.367188 18.609375 23.214844 C 18.511719 22.792969 18.351562 22.386719 18.296875 21.957031 C 18.265625 21.707031 18.214844 21.453125 18.25 21.199219 C 18.328125 21.179688 18.488281 21.230469 18.492188 21.109375 C 18.433594 20.953125 18.304688 20.824219 18.273438 20.652344 C 18.191406 20.246094 18.128906 19.832031 18.070312 19.421875 C 18.03125 19.109375 17.984375 18.796875 17.984375 18.480469 C 18.140625 18.59375 18.238281 18.78125 18.300781 18.964844 C 18.445312 19.421875 18.566406 19.886719 18.679688 20.351562 C 18.769531 20.722656 18.8125 21.105469 18.808594 21.488281 C 18.816406 21.652344 18.78125 21.839844 18.890625 21.980469 C 18.917969 22.03125 18.984375 22.03125 19.035156 22.035156 C 19.003906 22.222656 18.910156 22.398438 18.90625 22.59375 C 19.03125 22.601562 19.113281 22.476562 19.179688 22.382812 C 19.292969 22.152344 19.371094 21.898438 19.390625 21.640625 C 19.414062 21.402344 19.28125 21.1875 19.257812 20.953125 C 19.167969 20.292969 19.117188 19.625 18.964844 18.972656 C 18.902344 18.632812 18.804688 18.292969 18.789062 17.945312 C 18.847656 17.78125 19.109375 17.835938 19.160156 17.660156 C 19.148438 17.460938 19.070312 17.273438 19.023438 17.082031 C 18.855469 16.550781 18.679688 16.023438 18.464844 15.507812 C 18.40625 15.386719 18.367188 15.238281 18.242188 15.164062 C 18.085938 15.058594 17.882812 15.050781 17.71875 14.96875 C 17.742188 14.875 17.867188 14.835938 17.914062 14.746094 C 17.917969 14.660156 17.808594 14.675781 17.753906 14.675781 C 17.5625 14.699219 17.363281 14.710938 17.183594 14.632812 C 17.136719 14.621094 17.105469 14.574219 17.125 14.527344 C 17.164062 14.363281 17.195312 14.195312 17.269531 14.039062 C 17.296875 13.953125 17.398438 13.960938 17.46875 13.929688 C 17.527344 13.90625 17.546875 13.835938 17.558594 13.78125 C 17.582031 13.632812 17.59375 13.484375 17.585938 13.335938 C 17.570312 13.289062 17.511719 13.28125 17.476562 13.265625 C 17.417969 12.945312 17.449219 12.582031 17.230469 12.320312 C 17.050781 12.085938 16.753906 11.988281 16.46875 11.960938 C 16.242188 11.945312 15.992188 11.902344 15.777344 12.015625 C 15.570312 12.132812 15.378906 12.308594 15.289062 12.535156 C 15.210938 12.796875 15.257812 13.070312 15.265625 13.335938 C 15.273438 13.449219 15.117188 13.507812 15.15625 13.625 C 15.199219 13.777344 15.261719 13.921875 15.34375 14.054688 C 15.398438 14.136719 15.542969 14.054688 15.582031 14.160156 C 15.617188 14.257812 15.679688 14.351562 15.683594 14.457031 C 15.472656 14.457031 15.265625 14.421875 15.058594 14.417969 C 14.976562 14.417969 15 14.503906 15.039062 14.542969 C 15.148438 14.707031 15.34375 14.777344 15.5 14.890625 C 15.441406 14.976562 15.328125 14.984375 15.238281 15.019531 C 15.042969 15.09375 14.835938 15.140625 14.65625 15.253906 C 14.511719 15.375 14.332031 15.539062 14.394531 15.746094 C 14.320312 15.773438 14.246094 15.765625 14.175781 15.75 C 14.136719 15.585938 14.164062 15.414062 14.171875 15.246094 C 14.183594 15.167969 14.175781 15.078125 14.214844 15.003906 C 14.269531 14.984375 14.371094 15 14.378906 14.921875 C 14.410156 14.65625 14.402344 14.386719 14.402344 14.121094 C 14.398438 14.003906 14.402344 13.886719 14.371094 13.777344 C 14.308594 13.648438 14.164062 13.597656 14.046875 13.53125 C 13.679688 13.386719 13.375 13.128906 13.027344 12.953125 C 12.890625 12.886719 12.820312 12.734375 12.832031 12.585938 C 12.816406 12.378906 12.90625 12.183594 13.023438 12.019531 C 13.164062 11.921875 13.222656 11.753906 13.328125 11.625 C 13.378906 11.644531 13.441406 11.632812 13.464844 11.582031 C 13.542969 11.445312 13.574219 11.292969 13.601562 11.144531 C 13.613281 11.0625 13.511719 11.066406 13.460938 11.050781 C 13.5 10.894531 13.492188 10.734375 13.488281 10.574219 C 13.476562 10.417969 13.449219 10.25 13.351562 10.121094 C 13.269531 9.996094 13.15625 9.898438 13.078125 9.769531 C 13.289062 9.867188 13.46875 10.03125 13.683594 10.113281 L 13.699219 10.074219 C 13.628906 9.980469 13.53125 9.914062 13.441406 9.835938 C 13.292969 9.722656 13.152344 9.582031 12.957031 9.546875 C 12.8125 9.515625 12.652344 9.445312 12.511719 9.53125 C 12.484375 9.476562 12.457031 9.414062 12.394531 9.402344 C 12.132812 9.316406 11.824219 9.261719 11.582031 9.417969 C 11.351562 9.5625 11.269531 9.835938 11.136719 10.054688 C 11.140625 10.066406 11.144531 10.089844 11.148438 10.101562 C 11.335938 9.917969 11.476562 9.671875 11.722656 9.558594 C 11.816406 9.527344 11.933594 9.53125 12.019531 9.589844 C 11.863281 9.65625 11.695312 9.703125 11.5625 9.816406 C 11.445312 9.933594 11.363281 10.085938 11.285156 10.230469 C 11.246094 10.453125 11.296875 10.6875 11.253906 10.910156 C 11.148438 10.886719 11.027344 10.933594 11.003906 11.050781 C 10.972656 11.128906 11.058594 11.179688 11.09375 11.238281 C 11.171875 11.398438 11.21875 11.574219 11.316406 11.726562 C 11.355469 11.796875 11.429688 11.726562 11.484375 11.707031 C 11.492188 11.722656 11.515625 11.753906 11.523438 11.769531 C 11.28125 11.761719 11.035156 11.769531 10.792969 11.816406 C 10.582031 11.855469 10.417969 12.015625 10.300781 12.191406 C 10.1875 12.363281 10.0625 12.535156 10.003906 12.738281 C 9.941406 12.921875 9.910156 13.113281 9.890625 13.308594 C 9.882812 13.355469 9.90625 13.394531 9.945312 13.417969 C 10.023438 13.300781 10.058594 13.160156 10.117188 13.03125 C 10.21875 12.765625 10.410156 12.546875 10.625 12.367188 C 10.492188 12.585938 10.308594 12.773438 10.167969 12.992188 C 10.097656 13.089844 10.085938 13.21875 10.09375 13.335938 C 10.089844 13.382812 10.121094 13.417969 10.148438 13.449219 C 10.078125 13.464844 10.058594 13.542969 10.105469 13.59375 C 10.035156 13.707031 9.925781 13.816406 9.921875 13.964844 C 9.902344 14.210938 9.917969 14.464844 9.90625 14.714844 C 9.875 15.289062 9.792969 15.863281 9.773438 16.441406 C 9.683594 16.894531 9.628906 17.359375 9.667969 17.824219 C 9.722656 18.410156 9.746094 19 9.839844 19.582031 C 9.890625 19.917969 10.027344 20.230469 10.183594 20.53125 C 10.328125 20.796875 10.398438 21.09375 10.433594 21.390625 C 10.476562 21.828125 10.585938 22.265625 10.566406 22.710938 C 10.546875 23.085938 10.503906 23.464844 10.4375 23.835938 C 10.425781 23.894531 10.34375 23.976562 10.417969 24.019531 C 10.640625 24.054688 10.882812 24.027344 11.085938 24.140625 C 11.226562 24.25 11.199219 24.453125 11.199219 24.609375 C 11.195312 24.949219 11.167969 25.285156 11.183594 25.628906 C 11.203125 26.015625 11.210938 26.40625 11.246094 26.789062 C 11.257812 26.921875 11.277344 27.058594 11.269531 27.191406 C 11.265625 27.285156 11.246094 27.378906 11.222656 27.472656 C 11.207031 27.535156 11.195312 27.589844 11.1875 27.648438 C 11.175781 27.660156 11.167969 27.675781 11.160156 27.695312 C 11.105469 27.832031 11.050781 28.007812 11.144531 28.140625 C 11.242188 28.277344 11.410156 28.316406 11.566406 28.296875 C 11.851562 28.261719 12.042969 27.949219 11.929688 27.699219 C 11.976562 27.644531 12.019531 27.589844 12.058594 27.527344 C 12.140625 27.390625 12.03125 27.238281 11.972656 27.121094 C 11.96875 27.109375 11.964844 27.101562 11.957031 27.09375 C 11.96875 27.050781 11.976562 27.007812 11.984375 26.964844 C 12.003906 26.824219 12.003906 26.683594 11.988281 26.542969 C 11.980469 26.484375 11.964844 26.425781 11.96875 26.363281 C 11.972656 26.289062 11.96875 26.214844 11.96875 26.140625 C 11.976562 25.851562 12 25.5625 12.050781 25.277344 C 12.121094 24.878906 12.070312 24.472656 12.027344 24.078125 C 12.226562 24.09375 12.425781 24.101562 12.625 24.117188 C 12.746094 24.125 12.867188 24.089844 12.988281 24.082031 C 13.046875 24.078125 13.113281 24.113281 13.109375 24.179688 C 13.132812 24.585938 13.011719 24.996094 13.078125 25.40625 C 13.105469 25.605469 13.160156 25.800781 13.199219 25.996094 C 13.214844 26.066406 13.222656 26.132812 13.230469 26.203125 C 13.242188 26.308594 13.214844 26.429688 13.214844 26.539062 C 13.214844 26.589844 13.21875 26.617188 13.238281 26.664062 C 13.269531 26.742188 13.277344 26.800781 13.238281 26.878906 C 13.210938 26.9375 13.167969 26.996094 13.171875 27.0625 C 13.171875 27.121094 13.207031 27.175781 13.222656 27.230469 C 13.234375 27.261719 13.238281 27.292969 13.238281 27.324219 C 13.214844 27.40625 13.195312 27.492188 13.183594 27.578125 C 13.183594 27.59375 13.179688 27.652344 13.183594 27.722656 C 13.097656 27.804688 13.070312 27.9375 13.105469 28.054688 C 13.148438 28.183594 13.304688 28.269531 13.4375 28.25 C 13.539062 28.261719 13.640625 28.261719 13.738281 28.230469 C 13.839844 28.191406 13.933594 28.105469 13.941406 27.996094 C 13.953125 27.890625 13.882812 27.789062 13.875 27.683594 C 13.867188 27.613281 13.886719 27.539062 13.871094 27.46875 C 13.867188 27.449219 13.863281 27.433594 13.855469 27.414062 C 13.902344 27.3125 13.929688 27.203125 13.941406 27.089844 L 13.949219 27.089844 C 13.949219 27.007812 13.949219 26.925781 13.949219 26.84375 C 13.945312 26.851562 13.941406 26.859375 13.933594 26.867188 C 13.957031 26.816406 13.929688 26.714844 13.929688 26.664062 C 13.929688 26.574219 13.929688 26.488281 13.929688 26.402344 C 13.929688 26.230469 13.929688 26.058594 13.933594 25.890625 C 13.933594 25.886719 13.933594 25.886719 13.933594 25.886719 C 13.9375 25.414062 13.945312 24.9375 13.949219 24.464844 C 13.949219 24.371094 13.914062 24.277344 13.90625 24.183594 C 13.90625 24.109375 13.992188 24.101562 14.050781 24.097656 C 14.199219 24.089844 14.347656 24.085938 14.496094 24.078125 C 14.558594 24.082031 14.609375 24.023438 14.597656 23.964844 C 14.578125 23.679688 14.507812 23.398438 14.488281 23.113281 C 14.464844 22.824219 14.453125 22.53125 14.433594 22.242188 C 14.425781 21.90625 14.382812 21.574219 14.414062 21.238281 C 14.414062 21.1875 14.476562 21.214844 14.511719 21.214844 C 14.558594 21.648438 14.617188 22.085938 14.683594 22.523438 C 14.738281 22.980469 14.917969 23.410156 15.085938 23.835938 C 15.140625 23.945312 15.070312 24.074219 15.121094 24.183594 C 15.175781 24.265625 15.292969 24.226562 15.367188 24.273438 C 15.398438 24.429688 15.347656 24.589844 15.34375 24.746094 C 15.324219 24.984375 15.402344 25.207031 15.457031 25.433594 C 15.515625 25.660156 15.507812 25.902344 15.582031 26.125 C 15.605469 26.191406 15.632812 26.261719 15.660156 26.328125 C 15.664062 26.34375 15.671875 26.363281 15.675781 26.378906 C 15.785156 26.722656 15.691406 27.097656 15.738281 27.476562 C 15.730469 27.492188 15.722656 27.511719 15.71875 27.527344 C 15.699219 27.582031 15.6875 27.632812 15.683594 27.683594 C 15.679688 27.707031 15.679688 27.726562 15.679688 27.75 C 15.621094 28.015625 15.738281 28.226562 15.960938 28.347656 C 15.980469 28.359375 16 28.367188 16.019531 28.375 C 16.035156 28.382812 16.054688 28.386719 16.074219 28.390625 C 16.089844 28.394531 16.109375 28.394531 16.128906 28.394531 C 16.421875 28.34375 16.515625 28.039062 16.453125 27.8125 C 16.449219 27.792969 16.445312 27.773438 16.441406 27.753906 C 16.425781 27.65625 16.390625 27.558594 16.351562 27.46875 C 16.351562 27.445312 16.347656 27.421875 16.347656 27.398438 C 16.335938 27.214844 16.351562 27.027344 16.328125 26.84375 C 16.316406 26.765625 16.308594 26.6875 16.296875 26.609375 C 16.296875 26.609375 16.296875 26.609375 16.292969 26.609375 C 16.28125 26.21875 16.300781 25.828125 16.292969 25.4375 C 16.285156 25.1875 16.300781 24.9375 16.292969 24.6875 C 16.289062 24.550781 16.25 24.417969 16.25 24.28125 C 16.308594 24.292969 16.398438 24.347656 16.433594 24.269531 C 16.546875 23.941406 16.574219 23.582031 16.515625 23.238281 C 16.453125 22.761719 16.359375 22.285156 16.351562 21.804688 C 16.5 22.003906 16.640625 22.214844 16.726562 22.453125 C 16.84375 22.761719 16.9375 23.074219 17.050781 23.382812 C 17.117188 23.574219 17.25 23.726562 17.351562 23.898438 C 17.324219 23.921875 17.300781 23.941406 17.273438 23.964844 C 17.316406 24.019531 17.382812 24.050781 17.4375 24.085938 C 17.332031 24.5 17.1875 24.914062 17.195312 25.34375 C 17.214844 25.660156 17.328125 25.960938 17.441406 26.253906 C 17.496094 26.390625 17.582031 26.550781 17.589844 26.695312 C 17.597656 26.84375 17.632812 26.988281 17.648438 27.140625 C 17.660156 27.25 17.644531 27.371094 17.609375 27.476562 C 17.570312 27.578125 17.492188 27.664062 17.523438 27.78125 C 17.535156 27.84375 17.582031 27.898438 17.632812 27.9375 C 17.855469 28.105469 18.128906 28.214844 18.390625 28.3125 C 18.664062 28.414062 18.972656 28.421875 19.25 28.328125 C 19.355469 28.292969 19.472656 28.214844 19.472656 28.105469 C 19.472656 28.097656 19.472656 28.09375 19.46875 28.089844 C 19.460938 28.023438 19.410156 27.96875 19.351562 27.933594 Z M 10.25 19.042969 C 10.246094 19.199219 10.226562 19.359375 10.277344 19.503906 C 10.324219 19.550781 10.382812 19.574219 10.4375 19.609375 C 10.382812 19.574219 10.324219 19.550781 10.277344 19.503906 C 10.226562 19.359375 10.246094 19.199219 10.25 19.042969 Z M 10.433594 20.296875 C 10.4375 20.175781 10.441406 20.054688 10.433594 19.929688 C 10.429688 19.925781 10.421875 19.914062 10.414062 19.90625 C 10.40625 19.898438 10.398438 19.886719 10.394531 19.882812 C 10.398438 19.886719 10.40625 19.898438 10.414062 19.90625 C 10.421875 19.914062 10.429688 19.925781 10.433594 19.929688 C 10.441406 20.054688 10.4375 20.175781 10.433594 20.296875 Z M 10.527344 16.1875 C 10.503906 16.421875 10.515625 16.660156 10.488281 16.890625 C 10.441406 17.089844 10.441406 17.292969 10.4375 17.492188 C 10.441406 17.292969 10.441406 17.089844 10.488281 16.890625 C 10.515625 16.660156 10.503906 16.421875 10.527344 16.1875 C 10.527344 16.15625 10.53125 16.128906 10.53125 16.097656 C 10.53125 16.128906 10.527344 16.15625 10.527344 16.1875 Z M 11.488281 12.585938 C 11.402344 12.691406 11.296875 12.78125 11.175781 12.84375 C 11.128906 12.8125 11.085938 12.742188 11.019531 12.773438 C 10.953125 12.855469 10.949219 12.96875 10.878906 13.050781 C 10.804688 13.097656 10.714844 13.058594 10.632812 13.058594 C 10.550781 13.070312 10.535156 13.164062 10.476562 13.207031 C 10.375 13.28125 10.269531 13.347656 10.171875 13.425781 C 10.25 13.226562 10.304688 13.003906 10.472656 12.855469 C 10.777344 12.578125 11.113281 12.339844 11.433594 12.085938 C 11.492188 12.140625 11.5625 12.195312 11.636719 12.132812 C 11.621094 12.292969 11.589844 12.457031 11.488281 12.585938 Z M 11.488281 12.585938 " fill-opacity="1" fill-rule="nonzero"/></g><g clip-path="url(#376371b327)"><path fill="#28bff0" d="M 25.476562 12.699219 C 25.375 12.539062 25.257812 12.394531 25.160156 12.230469 C 25.09375 12.128906 25.167969 12.007812 25.15625 11.894531 C 25.136719 11.820312 25.042969 11.804688 25.015625 11.734375 C 25.003906 11.578125 25.039062 11.421875 25.066406 11.265625 C 25.046875 11.003906 24.953125 10.753906 24.886719 10.5 C 24.847656 10.203125 24.867188 9.90625 24.859375 9.605469 C 24.847656 8.644531 24.84375 7.683594 24.804688 6.722656 C 24.796875 6.371094 24.714844 6.027344 24.613281 5.695312 C 24.554688 5.535156 24.503906 5.371094 24.410156 5.234375 C 24.320312 5.105469 24.183594 5.027344 24.070312 4.921875 C 23.964844 4.824219 23.941406 4.660156 23.816406 4.582031 C 23.605469 4.464844 23.34375 4.484375 23.148438 4.335938 C 23.046875 4.207031 23.074219 4.03125 23.042969 3.878906 C 23.015625 3.808594 22.925781 3.824219 22.867188 3.808594 C 22.824219 3.582031 22.800781 3.351562 22.789062 3.117188 C 22.777344 3.011719 22.863281 2.90625 22.8125 2.800781 C 22.714844 2.566406 22.589844 2.335938 22.433594 2.132812 C 22.25 1.898438 21.964844 1.789062 21.691406 1.695312 C 21.480469 1.632812 21.261719 1.621094 21.046875 1.644531 C 20.832031 1.667969 20.628906 1.75 20.417969 1.785156 C 20.300781 1.808594 20.171875 1.847656 20.09375 1.945312 C 19.996094 2.0625 19.96875 2.21875 19.945312 2.367188 C 19.914062 2.640625 19.90625 2.921875 19.941406 3.195312 C 19.96875 3.421875 20.082031 3.621094 20.140625 3.839844 C 19.917969 3.835938 19.742188 3.683594 19.574219 3.554688 C 19.390625 3.417969 19.203125 3.28125 18.992188 3.191406 C 18.753906 3.089844 18.496094 3.066406 18.25 2.992188 C 17.882812 2.878906 17.527344 2.714844 17.15625 2.613281 C 16.875 2.535156 16.578125 2.535156 16.304688 2.4375 C 16.007812 2.328125 15.714844 2.199219 15.433594 2.054688 C 15.289062 1.992188 15.160156 1.890625 15.117188 1.734375 C 15.078125 1.597656 14.984375 1.429688 15.085938 1.296875 C 15.15625 1.195312 15.125 1.054688 15.054688 0.960938 C 14.964844 0.835938 14.824219 0.761719 14.691406 0.695312 C 14.574219 0.640625 14.425781 0.605469 14.304688 0.671875 C 14.152344 0.757812 14.078125 0.929688 13.953125 1.042969 C 13.800781 1.191406 13.59375 1.304688 13.511719 1.511719 C 13.445312 1.699219 13.609375 1.863281 13.605469 2.046875 C 13.566406 2.277344 13.359375 2.425781 13.195312 2.570312 C 12.699219 2.933594 12.183594 3.269531 11.707031 3.660156 C 11.359375 3.945312 11.074219 4.296875 10.757812 4.617188 C 10.660156 4.703125 10.535156 4.800781 10.394531 4.769531 C 10.28125 4.699219 10.21875 4.566406 10.105469 4.492188 C 9.835938 4.316406 9.476562 4.289062 9.183594 4.425781 C 9.035156 4.472656 8.933594 4.601562 8.789062 4.660156 C 8.707031 4.6875 8.652344 4.605469 8.609375 4.550781 C 8.527344 4.441406 8.40625 4.375 8.292969 4.304688 C 8.152344 4.21875 7.984375 4.152344 7.820312 4.199219 C 7.621094 4.253906 7.441406 4.367188 7.304688 4.519531 C 7.21875 4.613281 7.175781 4.753906 7.226562 4.875 C 7.292969 5.070312 7.382812 5.265625 7.492188 5.441406 C 7.550781 5.550781 7.699219 5.546875 7.777344 5.636719 C 7.796875 5.742188 7.710938 5.835938 7.703125 5.941406 C 7.738281 6.003906 7.820312 6.003906 7.871094 6.042969 C 7.835938 6.1875 7.726562 6.296875 7.644531 6.414062 C 7.527344 6.3125 7.363281 6.347656 7.21875 6.347656 C 7.074219 6.367188 6.910156 6.386719 6.792969 6.484375 C 6.699219 6.5625 6.742188 6.699219 6.699219 6.796875 C 6.527344 6.902344 6.328125 6.976562 6.1875 7.128906 C 6.066406 7.261719 5.957031 7.410156 5.867188 7.566406 C 5.839844 7.625 5.800781 7.691406 5.8125 7.757812 C 5.882812 7.863281 6.027344 7.855469 6.128906 7.917969 C 6.105469 7.988281 6.078125 8.054688 6.046875 8.121094 C 5.890625 8.421875 5.71875 8.71875 5.628906 9.046875 C 5.5625 9.269531 5.570312 9.503906 5.578125 9.730469 C 5.605469 10.296875 5.679688 10.859375 5.738281 11.425781 C 5.75 11.671875 5.574219 11.867188 5.496094 12.085938 C 5.4375 12.253906 5.601562 12.371094 5.632812 12.523438 C 5.609375 12.628906 5.5 12.695312 5.480469 12.804688 C 5.472656 12.898438 5.558594 13.011719 5.464844 13.085938 C 5.121094 13.398438 4.730469 13.695312 4.53125 14.128906 C 4.265625 14.644531 4.195312 15.265625 4.363281 15.820312 C 4.511719 16.371094 4.714844 16.90625 4.894531 17.445312 C 4.921875 17.535156 4.953125 17.628906 4.941406 17.722656 C 4.921875 17.851562 4.855469 17.96875 4.832031 18.097656 C 4.796875 18.304688 4.808594 18.519531 4.800781 18.730469 C 4.738281 19.859375 4.699219 20.988281 4.609375 22.109375 C 4.5625 22.605469 4.503906 23.097656 4.449219 23.589844 C 4.445312 23.640625 4.445312 23.695312 4.449219 23.75 C 4.644531 23.6875 4.851562 23.703125 5.050781 23.6875 C 5.183594 23.679688 5.320312 23.632812 5.453125 23.664062 C 5.558594 23.699219 5.523438 23.828125 5.503906 23.910156 C 5.378906 24.347656 5.394531 24.808594 5.457031 25.253906 C 5.503906 25.550781 5.570312 25.839844 5.628906 26.132812 C 5.683594 26.429688 5.6875 26.726562 5.738281 27.019531 C 5.769531 27.1875 5.796875 27.355469 5.824219 27.523438 C 5.851562 27.671875 5.824219 27.828125 5.871094 27.972656 C 5.945312 28.195312 5.972656 28.214844 6.210938 28.222656 C 6.230469 28.222656 6.25 28.222656 6.265625 28.222656 C 6.449219 28.234375 6.628906 28.203125 6.808594 28.183594 C 7.28125 28.132812 7.734375 28.316406 8.207031 28.230469 C 8.445312 28.1875 8.675781 28.105469 8.902344 28.015625 C 8.96875 27.992188 9.035156 27.964844 9.074219 27.90625 C 9.128906 27.820312 9.09375 27.699219 9.011719 27.632812 C 8.933594 27.566406 8.828125 27.550781 8.726562 27.554688 C 8.625 27.554688 8.523438 27.574219 8.421875 27.574219 C 8.164062 27.574219 7.882812 27.4375 7.667969 27.304688 C 7.460938 27.167969 7.292969 26.972656 7.199219 26.742188 C 7.101562 26.515625 7.082031 26.257812 7.136719 26.015625 C 7.1875 25.777344 7.160156 25.523438 7.175781 25.28125 C 7.203125 24.828125 7.21875 24.375 7.316406 23.929688 C 7.335938 23.839844 7.371094 23.730469 7.46875 23.699219 C 7.6875 23.625 7.921875 23.710938 8.144531 23.660156 C 8.246094 23.636719 8.289062 23.523438 8.285156 23.429688 C 8.277344 23.257812 8.199219 23.097656 8.183594 22.925781 C 8.109375 22.007812 8.050781 21.089844 8.027344 20.171875 C 7.988281 19 8.015625 17.828125 8.082031 16.65625 C 8.113281 16.058594 8.203125 15.464844 8.308594 14.871094 C 8.347656 14.625 8.457031 14.382812 8.429688 14.125 C 8.398438 13.878906 8.324219 13.640625 8.253906 13.398438 C 8.304688 13.371094 8.363281 13.339844 8.363281 13.273438 C 8.359375 13.195312 8.40625 13.140625 8.457031 13.085938 C 8.476562 12.886719 8.46875 12.6875 8.484375 12.488281 C 8.5 12.402344 8.585938 12.355469 8.613281 12.273438 C 8.75 11.921875 8.730469 11.539062 8.773438 11.171875 C 8.78125 11.121094 8.78125 11.058594 8.824219 11.023438 C 8.9375 10.921875 9.089844 10.886719 9.226562 10.824219 C 9.40625 10.742188 9.597656 10.667969 9.746094 10.535156 C 9.886719 10.378906 9.917969 10.15625 9.914062 9.953125 C 9.914062 9.820312 9.851562 9.695312 9.785156 9.582031 C 9.550781 9.222656 9.285156 8.886719 9.058594 8.527344 C 8.984375 8.421875 9.121094 8.304688 9.0625 8.199219 C 9.023438 8.117188 8.941406 8.070312 8.882812 8.003906 C 8.847656 7.953125 8.867188 7.886719 8.867188 7.828125 C 8.964844 7.867188 9.050781 7.964844 9.164062 7.945312 C 9.285156 7.941406 9.292969 7.796875 9.347656 7.71875 C 9.398438 7.726562 9.460938 7.769531 9.507812 7.730469 C 9.554688 7.675781 9.574219 7.605469 9.601562 7.542969 C 9.664062 7.550781 9.730469 7.566406 9.789062 7.539062 C 9.855469 7.496094 9.839844 7.40625 9.863281 7.339844 C 9.96875 7.367188 10.058594 7.441406 10.167969 7.449219 C 10.230469 7.453125 10.265625 7.394531 10.285156 7.34375 C 10.34375 7.171875 10.351562 6.984375 10.410156 6.808594 C 10.457031 6.675781 10.613281 6.628906 10.675781 6.503906 C 10.710938 6.429688 10.738281 6.34375 10.800781 6.285156 C 11.417969 5.640625 12.050781 5.007812 12.664062 4.359375 C 12.859375 4.15625 12.980469 3.890625 13.171875 3.683594 C 13.414062 3.410156 13.675781 3.15625 13.929688 2.898438 C 14.003906 2.824219 14.042969 2.722656 14.121094 2.652344 C 14.1875 2.628906 14.230469 2.703125 14.28125 2.734375 C 14.878906 3.253906 15.449219 3.804688 16.058594 4.308594 C 16.6875 4.835938 17.382812 5.273438 18.074219 5.71875 C 18.527344 6.015625 18.996094 6.289062 19.433594 6.605469 C 19.613281 6.738281 19.539062 7 19.664062 7.164062 C 19.792969 7.257812 19.9375 7.097656 20.074219 7.132812 C 20.203125 7.15625 20.375 7.183594 20.421875 7.316406 C 20.429688 7.539062 20.382812 7.761719 20.347656 7.980469 C 20.226562 8.644531 20.136719 9.3125 20.070312 9.984375 C 19.9375 11.171875 19.820312 12.363281 19.675781 13.554688 C 19.628906 13.804688 19.617188 14.074219 19.503906 14.308594 C 19.492188 14.351562 19.535156 14.375 19.570312 14.382812 C 19.769531 14.441406 19.984375 14.460938 20.171875 14.554688 C 20.332031 14.648438 20.367188 14.84375 20.46875 14.984375 C 20.484375 15.011719 20.519531 15 20.542969 15.007812 C 20.570312 14.84375 20.496094 14.6875 20.511719 14.523438 C 20.632812 14.492188 20.75 14.550781 20.859375 14.589844 C 21.027344 14.660156 21.226562 14.742188 21.28125 14.933594 C 21.363281 15.304688 21.335938 15.691406 21.34375 16.066406 C 21.351562 16.703125 21.339844 17.347656 21.421875 17.980469 C 21.484375 18.4375 21.652344 18.875 21.808594 19.308594 C 21.90625 19.578125 21.972656 19.859375 22.042969 20.136719 C 22.144531 20.554688 22.246094 20.972656 22.3125 21.398438 C 22.351562 21.625 22.347656 21.855469 22.332031 22.082031 C 22.296875 22.707031 22.597656 23.277344 22.722656 23.875 C 22.753906 24.050781 22.632812 24.222656 22.679688 24.402344 C 22.738281 24.535156 22.90625 24.476562 23.015625 24.457031 C 23.136719 24.4375 23.300781 24.359375 23.394531 24.464844 C 23.433594 24.632812 23.449219 24.800781 23.460938 24.972656 C 23.460938 24.992188 23.460938 25.011719 23.460938 25.027344 C 23.5625 25.25 23.527344 25.472656 23.503906 25.699219 C 23.5 25.71875 23.5 25.738281 23.496094 25.757812 C 23.496094 25.777344 23.496094 25.792969 23.496094 25.8125 C 23.496094 25.828125 23.496094 25.847656 23.496094 25.863281 C 23.566406 26.085938 23.542969 26.296875 23.496094 26.511719 C 23.496094 26.53125 23.496094 26.550781 23.496094 26.574219 C 23.496094 26.675781 23.492188 26.78125 23.492188 26.886719 C 23.476562 26.894531 23.460938 26.902344 23.449219 26.910156 C 23.222656 27.027344 22.984375 27.117188 22.75 27.214844 C 22.535156 27.308594 22.320312 27.371094 22.089844 27.34375 C 21.929688 27.324219 21.851562 27.429688 21.789062 27.539062 C 21.75 27.597656 21.753906 27.683594 21.808594 27.753906 C 21.921875 27.902344 22.074219 27.984375 22.234375 28.066406 C 22.464844 28.183594 22.710938 28.203125 22.957031 28.230469 C 23.039062 28.238281 23.128906 28.210938 23.210938 28.1875 C 23.59375 28.070312 23.988281 28.0625 24.382812 28.070312 C 24.40625 28.074219 24.425781 28.074219 24.445312 28.066406 C 24.597656 28.019531 24.773438 27.988281 24.890625 27.875 C 24.980469 27.792969 24.976562 27.6875 24.957031 27.574219 C 24.941406 27.480469 24.941406 27.386719 24.96875 27.296875 C 24.988281 27.238281 24.996094 27.171875 24.988281 27.109375 C 24.984375 27.039062 24.953125 26.972656 24.960938 26.90625 C 24.96875 26.84375 24.976562 26.785156 24.984375 26.722656 C 25 26.601562 25.019531 26.476562 25.035156 26.351562 C 25.039062 26.320312 25.042969 26.289062 25.046875 26.257812 L 25.066406 25.882812 C 25.089844 25.714844 25.109375 25.542969 25.117188 25.371094 C 25.132812 25.03125 25.082031 24.691406 25.09375 24.351562 C 25.195312 24.375 25.269531 24.460938 25.371094 24.488281 C 25.433594 24.492188 25.457031 24.421875 25.457031 24.371094 C 25.472656 24.144531 25.4375 23.914062 25.457031 23.683594 C 25.515625 23.039062 25.628906 22.390625 25.542969 21.742188 C 25.484375 21.34375 25.398438 20.949219 25.394531 20.546875 C 25.347656 18.917969 25.398438 17.285156 25.535156 15.660156 C 25.546875 15.535156 25.554688 15.410156 25.574219 15.285156 C 25.601562 15.101562 25.691406 14.933594 25.714844 14.746094 C 25.765625 14.425781 25.789062 14.101562 25.796875 13.777344 C 25.800781 13.398438 25.691406 13.015625 25.476562 12.699219 Z M 19.476562 5.039062 C 19.734375 5.078125 19.945312 5.242188 20.152344 5.386719 C 20.179688 5.402344 20.195312 5.429688 20.199219 5.460938 C 19.941406 5.355469 19.6875 5.222656 19.476562 5.039062 Z M 19.476562 5.039062 " fill-opacity="1" fill-rule="nonzero"/></g></svg>