<svg xmlns="http://www.w3.org/2000/svg" xmlns:xlink="http://www.w3.org/1999/xlink" width="40" zoomAndPan="magnify" viewBox="0 0 30 30.000001" height="40" preserveAspectRatio="xMidYMid meet" version="1.0"><defs><clipPath id="df9fb262ba"><path d="M 3 6 L 27.3125 6 L 27.3125 28.246094 L 3 28.246094 Z M 3 6 " clip-rule="nonzero"/></clipPath></defs><path fill="#ffffff" d="M 14.671875 9.953125 C 14.082031 9.683594 13.742188 8.8125 13.414062 8.292969 C 13.171875 7.898438 12.945312 7.496094 12.722656 7.09375 C 12.675781 7.191406 12.636719 7.28125 12.605469 7.347656 C 12.515625 7.546875 12.457031 7.734375 12.28125 7.882812 C 11.824219 8.273438 10.984375 8.253906 10.421875 8.207031 C 10.335938 8.246094 10.25 8.265625 10.15625 8.261719 L 9.988281 8.238281 C 9.972656 8.234375 9.960938 8.230469 9.949219 8.226562 C 9.871094 8.203125 9.800781 8.171875 9.738281 8.125 L 9.699219 8.109375 C 9.6875 8.101562 9.675781 8.09375 9.664062 8.082031 C 9.65625 8.078125 9.648438 8.074219 9.640625 8.070312 C 9.558594 8.015625 9.488281 7.949219 9.4375 7.867188 L 7.5625 7.867188 C 7.433594 7.867188 7.367188 7.800781 7.367188 7.671875 C 7.367188 7.542969 7.433594 7.476562 7.5625 7.476562 L 9.214844 7.476562 C 9.164062 7.277344 9.203125 7.097656 9.328125 6.933594 C 9.441406 6.789062 9.632812 6.667969 9.828125 6.683594 C 9.964844 6.691406 10.097656 6.726562 10.21875 6.792969 C 10.261719 6.816406 10.304688 6.84375 10.339844 6.878906 C 10.390625 6.894531 10.4375 6.914062 10.480469 6.941406 C 10.675781 6.960938 10.867188 6.960938 11.0625 6.949219 C 11.121094 6.945312 11.304688 6.890625 11.414062 6.875 C 11.449219 6.8125 11.496094 6.738281 11.511719 6.707031 C 11.582031 6.5625 11.660156 6.417969 11.742188 6.28125 C 12.039062 5.800781 12.523438 5.113281 13.179688 5.503906 C 13.460938 5.671875 13.535156 6.019531 13.679688 6.292969 C 13.839844 6.59375 14.03125 6.878906 14.210938 7.167969 L 14.8125 8.132812 C 14.835938 8.171875 14.859375 8.214844 14.886719 8.265625 C 15.117188 7.726562 15.289062 7.152344 15.542969 6.621094 C 15.746094 6.203125 15.964844 5.796875 16.132812 5.363281 C 16.273438 5 16.417969 4.648438 16.734375 4.402344 C 17.003906 4.195312 17.367188 4.132812 17.632812 4.402344 C 17.710938 4.488281 17.765625 4.589844 17.792969 4.703125 C 18.15625 5.09375 18.328125 5.765625 18.464844 6.222656 C 18.523438 6.414062 18.570312 6.605469 18.613281 6.800781 C 18.632812 6.886719 18.648438 6.96875 18.664062 7.054688 C 18.671875 7.082031 18.679688 7.101562 18.683594 7.121094 C 18.816406 7.117188 18.992188 7.074219 19.105469 7.070312 C 19.28125 7.066406 19.441406 7.082031 19.605469 7.054688 C 19.65625 7.007812 19.714844 6.96875 19.777344 6.941406 C 19.832031 6.882812 19.890625 6.832031 19.960938 6.789062 C 19.976562 6.78125 19.996094 6.769531 20.015625 6.761719 C 20.125 6.6875 20.25 6.652344 20.382812 6.648438 C 20.558594 6.648438 20.707031 6.710938 20.832031 6.832031 C 20.953125 6.957031 21.015625 7.109375 21.019531 7.28125 C 21.019531 7.347656 21.007812 7.414062 20.984375 7.476562 L 22.621094 7.476562 C 22.753906 7.476562 22.820312 7.539062 22.820312 7.671875 C 22.820312 7.800781 22.753906 7.867188 22.621094 7.867188 L 20.753906 7.867188 C 20.695312 7.953125 20.621094 8.023438 20.53125 8.078125 C 20.480469 8.109375 20.425781 8.128906 20.367188 8.144531 C 20.363281 8.144531 20.359375 8.148438 20.355469 8.148438 L 20.355469 8.144531 C 20.320312 8.152344 20.289062 8.160156 20.253906 8.164062 C 20.203125 8.199219 20.148438 8.222656 20.089844 8.242188 C 19.632812 8.390625 19.113281 8.351562 18.636719 8.394531 C 18.242188 8.425781 17.859375 8.277344 17.632812 7.933594 C 17.390625 7.566406 17.382812 7.058594 17.265625 6.640625 C 17.226562 6.511719 17.1875 6.371094 17.140625 6.234375 C 17.132812 6.253906 17.125 6.273438 17.117188 6.292969 C 16.949219 6.671875 16.742188 7.035156 16.570312 7.414062 C 16.210938 8.183594 16.035156 9.023438 15.539062 9.726562 C 15.324219 10.03125 15.003906 10.105469 14.671875 9.953125 Z M 11.761719 11.226562 C 11.71875 11.117188 11.644531 11.046875 11.53125 11.015625 C 11.3125 10.960938 11.109375 11.003906 10.957031 10.792969 C 10.867188 10.667969 10.863281 10.511719 10.757812 10.386719 C 10.566406 10.171875 10.296875 10.132812 10.042969 10.242188 C 9.78125 10.355469 9.441406 10.476562 9.304688 10.75 C 9.152344 11.0625 9.269531 11.578125 8.925781 11.753906 C 8.871094 11.75 8.820312 11.757812 8.769531 11.78125 C 8.632812 11.863281 8.550781 11.984375 8.53125 12.144531 C 8.527344 12.21875 8.515625 12.292969 8.496094 12.367188 C 8.476562 12.40625 8.453125 12.441406 8.425781 12.472656 C 8.390625 12.523438 8.351562 12.566406 8.3125 12.609375 C 8.3125 12.609375 8.273438 12.640625 8.273438 12.640625 C 8.273438 12.644531 8.269531 12.644531 8.269531 12.644531 C 8.242188 12.617188 8.210938 12.597656 8.175781 12.582031 C 8.160156 12.53125 8.144531 12.484375 8.132812 12.433594 C 8.125 12.40625 8.121094 12.378906 8.121094 12.351562 C 8.117188 12.3125 8.117188 12.277344 8.121094 12.238281 C 8.121094 12.253906 8.125 12.246094 8.128906 12.214844 C 8.132812 12.199219 8.140625 12.179688 8.144531 12.160156 C 8.164062 12.128906 8.179688 12.09375 8.191406 12.058594 C 8.21875 11.953125 8.199219 11.855469 8.128906 11.773438 C 8.0625 11.6875 7.972656 11.644531 7.867188 11.648438 C 7.65625 11.648438 7.523438 11.824219 7.492188 12.015625 C 7.460938 12.195312 7.476562 12.371094 7.539062 12.546875 C 7.589844 12.695312 7.675781 12.875 7.816406 12.964844 C 7.851562 13.046875 7.90625 13.117188 7.976562 13.175781 C 8 13.335938 8.003906 13.5 7.988281 13.664062 C 7.984375 13.726562 8.007812 13.78125 8.054688 13.828125 L 8.050781 13.855469 C 8.046875 13.910156 8.0625 13.960938 8.09375 14.003906 C 8.066406 14.566406 7.980469 15.117188 7.84375 15.660156 C 7.832031 15.703125 7.84375 15.738281 7.882812 15.765625 C 7.890625 15.785156 7.90625 15.804688 7.925781 15.820312 C 8.242188 16.058594 8.597656 16.191406 8.992188 16.222656 C 9.28125 16.273438 9.566406 16.253906 9.847656 16.167969 C 10.121094 16.078125 10.445312 15.90625 10.527344 15.609375 C 10.527344 15.605469 10.527344 15.605469 10.527344 15.601562 C 10.53125 15.585938 10.53125 15.566406 10.527344 15.550781 C 10.507812 15.386719 10.496094 15.21875 10.488281 15.050781 C 10.503906 15.046875 10.515625 15.046875 10.527344 15.046875 C 11.109375 15.089844 11.710938 14.660156 11.828125 14.089844 C 11.960938 13.761719 11.964844 13.414062 11.980469 13.058594 C 12.003906 12.539062 12 12.023438 12 11.503906 C 12.003906 11.339844 11.925781 11.246094 11.761719 11.226562 Z M 14.28125 26.601562 C 14.273438 26.5625 14.265625 26.523438 14.257812 26.488281 C 14.25 26.4375 14.25 26.363281 14.199219 26.335938 C 14.199219 26.296875 14.179688 26.28125 14.140625 26.292969 C 14.0625 26.320312 13.984375 26.351562 13.90625 26.382812 C 13.894531 26.378906 13.882812 26.378906 13.867188 26.382812 C 13.621094 26.496094 13.34375 26.5 13.089844 26.582031 C 13.074219 26.582031 13.0625 26.582031 13.050781 26.578125 C 13.015625 26.574219 13.003906 26.585938 13.003906 26.617188 C 12.992188 26.632812 12.988281 26.644531 12.992188 26.660156 C 13.042969 26.953125 13.113281 27.238281 13.203125 27.519531 C 13.207031 27.539062 13.21875 27.550781 13.242188 27.554688 C 13.253906 27.574219 13.273438 27.585938 13.296875 27.59375 C 13.316406 27.617188 13.34375 27.632812 13.375 27.640625 C 13.667969 27.714844 13.964844 27.742188 14.265625 27.722656 C 14.296875 27.71875 14.324219 27.710938 14.351562 27.695312 C 14.375 27.695312 14.398438 27.695312 14.425781 27.695312 C 14.457031 27.691406 14.480469 27.679688 14.5 27.652344 C 14.519531 27.660156 14.535156 27.65625 14.550781 27.644531 C 14.566406 27.632812 14.574219 27.613281 14.566406 27.59375 C 14.472656 27.261719 14.375 26.929688 14.28125 26.601562 Z M 22.191406 12.066406 C 22.1875 12.089844 22.183594 12.109375 22.175781 12.132812 C 22.152344 12.210938 22.164062 12.285156 22.203125 12.355469 C 22.242188 12.425781 22.300781 12.472656 22.378906 12.496094 C 22.457031 12.515625 22.53125 12.507812 22.601562 12.46875 C 22.671875 12.425781 22.71875 12.367188 22.742188 12.289062 C 22.777344 12.171875 22.789062 12.054688 22.777344 11.933594 C 22.777344 11.851562 22.746094 11.785156 22.691406 11.726562 C 22.636719 11.667969 22.566406 11.640625 22.484375 11.640625 C 22.339844 11.644531 22.175781 11.769531 22.191406 11.933594 C 22.195312 11.976562 22.195312 12.019531 22.195312 12.058594 C 22.195312 12.0625 22.191406 12.0625 22.191406 12.066406 Z M 25.632812 20.355469 C 25.648438 19.585938 25.59375 18.824219 25.476562 18.0625 C 25.457031 17.785156 25.402344 17.515625 25.3125 17.253906 C 25.308594 17.25 25.308594 17.246094 25.308594 17.246094 C 25.101562 16.449219 24.6875 15.703125 23.925781 15.320312 C 23.917969 15.316406 23.910156 15.3125 23.898438 15.308594 C 23.894531 15.308594 23.890625 15.304688 23.886719 15.300781 C 23.816406 15.253906 23.746094 15.210938 23.667969 15.175781 L 23.613281 15.144531 C 23.585938 15.128906 23.558594 15.113281 23.53125 15.097656 C 23.515625 15.089844 23.5 15.085938 23.484375 15.078125 C 23.46875 15.066406 23.453125 15.054688 23.4375 15.042969 C 23.398438 15.023438 23.359375 15.007812 23.316406 14.996094 C 23.242188 14.972656 23.167969 14.953125 23.09375 14.933594 C 23.070312 14.925781 23.046875 14.925781 23.023438 14.933594 C 22.972656 14.925781 22.929688 14.9375 22.890625 14.972656 C 22.789062 15.054688 22.695312 15.140625 22.605469 15.226562 C 22.066406 15.464844 21.707031 16.207031 21.488281 16.730469 C 21.429688 16.835938 21.375 16.941406 21.324219 17.050781 C 21.242188 17.21875 21.164062 17.390625 21.09375 17.566406 C 21.027344 17.714844 20.984375 17.871094 20.964844 18.035156 C 20.949219 18.078125 20.933594 18.121094 20.921875 18.167969 C 20.875 18.320312 20.839844 18.472656 20.816406 18.628906 C 20.757812 18.210938 20.386719 18.03125 20.058594 18.085938 C 20.058594 18.082031 20.058594 18.078125 20.058594 18.074219 C 20.105469 17.421875 20.25 16.789062 20.5 16.183594 C 20.535156 16.109375 20.515625 16.058594 20.441406 16.023438 C 20.414062 16.003906 20.386719 15.992188 20.351562 15.996094 C 20.175781 16.011719 20.023438 16.097656 19.871094 16.179688 C 19.734375 16.253906 19.601562 16.335938 19.472656 16.425781 C 19.339844 16.523438 19.21875 16.640625 19.117188 16.769531 C 19.078125 16.824219 19.042969 16.878906 19.007812 16.9375 C 18.800781 17.226562 18.671875 17.546875 18.621094 17.898438 C 18.460938 18.332031 18.476562 18.828125 18.445312 19.28125 C 18.445312 19.304688 18.449219 19.328125 18.460938 19.351562 C 18.441406 19.65625 18.441406 19.960938 18.453125 20.269531 C 18.25 20.136719 18.046875 20.003906 17.84375 19.871094 C 17.714844 19.785156 17.578125 19.679688 17.4375 19.59375 C 17.410156 19.570312 17.382812 19.542969 17.351562 19.519531 C 17.226562 19.410156 17.09375 19.308594 16.953125 19.214844 C 16.847656 19.136719 16.742188 19.0625 16.632812 18.996094 C 16.632812 18.988281 16.628906 18.980469 16.625 18.972656 C 16.621094 18.96875 16.617188 18.960938 16.609375 18.953125 C 16.597656 18.941406 16.585938 18.933594 16.566406 18.929688 L 16.542969 18.925781 C 16.53125 18.925781 16.519531 18.929688 16.507812 18.933594 C 16.488281 18.9375 16.476562 18.945312 16.460938 18.957031 L 16.457031 18.964844 C 16.433594 18.976562 16.417969 18.988281 16.402344 19.007812 C 16.390625 19.019531 16.386719 19.035156 16.378906 19.050781 L 15.410156 20.152344 C 15.40625 20.15625 15.40625 20.160156 15.402344 20.164062 C 15.390625 20.171875 15.378906 20.1875 15.371094 20.203125 C 15.367188 20.207031 15.363281 20.214844 15.363281 20.21875 C 15.359375 20.222656 15.355469 20.234375 15.355469 20.234375 C 15.355469 20.230469 15.351562 20.242188 15.351562 20.246094 C 15.351562 20.253906 15.347656 20.265625 15.347656 20.273438 C 15.347656 20.273438 15.347656 20.277344 15.347656 20.277344 C 15.347656 20.28125 15.347656 20.289062 15.347656 20.292969 C 15.347656 20.292969 15.351562 20.300781 15.351562 20.304688 L 15.351562 20.308594 C 15.351562 20.3125 15.355469 20.320312 15.355469 20.320312 C 15.355469 20.320312 15.359375 20.328125 15.363281 20.332031 L 15.363281 20.335938 C 15.386719 20.382812 15.417969 20.429688 15.457031 20.464844 C 15.484375 20.496094 15.515625 20.527344 15.546875 20.558594 C 15.609375 20.621094 15.679688 20.671875 15.757812 20.71875 C 15.976562 20.960938 16.207031 21.195312 16.449219 21.414062 C 16.46875 21.433594 16.492188 21.449219 16.515625 21.460938 C 16.558594 21.5 16.601562 21.539062 16.644531 21.578125 C 16.78125 21.703125 16.917969 21.824219 17.058594 21.945312 C 17.070312 21.953125 17.078125 21.960938 17.089844 21.96875 C 17.277344 22.15625 17.464844 22.34375 17.652344 22.53125 C 17.675781 22.558594 17.703125 22.578125 17.734375 22.59375 C 17.820312 22.683594 17.90625 22.769531 17.992188 22.859375 C 18.097656 22.960938 18.1875 23.0625 18.316406 23.101562 C 18.390625 23.164062 18.460938 23.226562 18.539062 23.285156 C 18.554688 23.300781 18.574219 23.3125 18.597656 23.320312 C 18.601562 24.546875 18.605469 25.773438 18.609375 27 C 18.609375 27.363281 19.074219 27.425781 19.234375 27.1875 C 19.261719 27.1875 19.289062 27.179688 19.3125 27.175781 C 20.023438 26.96875 20.621094 26.566406 21.207031 26.125 C 21.765625 25.699219 22.433594 25.292969 22.886719 24.753906 C 23.105469 24.492188 23.269531 24.203125 23.515625 23.964844 C 23.75 23.742188 24.007812 23.542969 24.210938 23.289062 C 24.4375 23.011719 24.527344 22.667969 24.753906 22.394531 C 24.890625 22.230469 25.011719 22.054688 25.121094 21.867188 C 25.164062 21.835938 25.195312 21.796875 25.222656 21.75 L 25.503906 21.195312 C 25.585938 21.03125 25.6875 20.867188 25.71875 20.683594 C 25.746094 20.558594 25.714844 20.449219 25.632812 20.355469 Z M 25.632812 20.355469 " fill-opacity="1" fill-rule="nonzero"/><path fill="#28bff0" d="M 18.109375 7.867188 L 20.765625 7.867188 C 20.367188 8.492188 19.863281 9.0625 19.289062 9.617188 C 18.328125 10.542969 17.339844 11.445312 16.351562 12.339844 C 15.933594 12.722656 15.511719 13.101562 15.09375 13.480469 C 14.671875 13.101562 14.25 12.722656 13.832031 12.339844 C 12.84375 11.445312 11.855469 10.542969 10.894531 9.617188 C 10.320312 9.0625 9.816406 8.492188 9.417969 7.867188 L 11.726562 7.867188 C 11.808594 7.867188 11.867188 7.832031 11.902344 7.757812 L 12.664062 6.199219 L 14.925781 9.761719 C 14.964844 9.820312 15.019531 9.851562 15.09375 9.851562 C 15.097656 9.851562 15.101562 9.851562 15.109375 9.851562 C 15.1875 9.84375 15.242188 9.804688 15.273438 9.734375 L 17.195312 5.285156 L 17.921875 7.726562 C 17.953125 7.820312 18.011719 7.867188 18.109375 7.867188 Z M 8.675781 6.960938 C 8.695312 7.007812 8.933594 6.949219 8.953125 6.992188 C 9.027344 7.160156 9.105469 7.320312 9.191406 7.476562 L 11.605469 7.476562 L 12.46875 5.714844 C 12.5 5.648438 12.558594 5.613281 12.632812 5.605469 C 12.710938 5.601562 12.765625 5.632812 12.808594 5.699219 L 15.058594 9.238281 L 17.050781 4.640625 C 17.089844 4.554688 17.152344 4.515625 17.242188 4.523438 C 17.332031 4.527344 17.390625 4.574219 17.417969 4.660156 L 18.257812 7.476562 L 20.996094 7.476562 C 21.078125 7.320312 21.160156 7.160156 21.230469 6.992188 C 21.25 6.945312 21.613281 7.039062 21.632812 6.988281 C 21.699219 6.832031 21.636719 6.671875 21.6875 6.503906 C 21.699219 6.464844 21.488281 6.277344 21.5 6.238281 C 21.554688 6.039062 21.601562 5.835938 21.636719 5.632812 C 22.203125 2.316406 18.054688 0.671875 16.082031 2.851562 C 15.679688 3.296875 15.351562 3.789062 15.09375 4.328125 C 14.832031 3.789062 14.503906 3.296875 14.101562 2.851562 C 12.128906 0.671875 7.980469 2.316406 8.546875 5.632812 C 8.582031 5.835938 8.628906 6.039062 8.683594 6.238281 C 8.695312 6.273438 8.449219 6.519531 8.457031 6.554688 C 8.511719 6.730469 8.609375 6.792969 8.675781 6.960938 Z M 22.214844 12.765625 C 22.207031 12.769531 22.199219 12.773438 22.191406 12.777344 C 22.289062 13.367188 22.457031 13.9375 22.691406 14.484375 C 22.765625 14.660156 22.730469 14.804688 22.582031 14.917969 C 22.5625 14.941406 22.542969 14.960938 22.519531 14.976562 C 22.007812 15.363281 21.386719 15.539062 20.773438 15.699219 C 20.761719 15.703125 20.75 15.703125 20.738281 15.707031 C 20.699219 15.738281 20.65625 15.761719 20.609375 15.777344 C 20.429688 15.835938 20.242188 15.710938 20.1875 15.539062 C 20.167969 15.472656 20.144531 15.402344 20.121094 15.332031 C 20.109375 15.300781 20.097656 15.269531 20.082031 15.238281 C 20.078125 15.230469 20.0625 15.191406 20.058594 15.183594 C 20.046875 15.152344 20.035156 15.125 20.03125 15.09375 C 19.621094 15.121094 19.25 15.019531 18.917969 14.789062 C 18.542969 14.53125 18.367188 14.160156 18.171875 13.765625 C 18.148438 13.71875 18.136719 13.667969 18.140625 13.617188 C 18.113281 13.582031 18.097656 13.542969 18.085938 13.5 C 17.9375 12.832031 17.792969 12.113281 18.058594 11.453125 C 18.257812 10.960938 18.671875 10.375 19.21875 10.25 C 19.421875 10.203125 19.566406 10.339844 19.589844 10.53125 C 19.683594 11.375 20.601562 11.167969 21.128906 11.585938 C 21.402344 11.816406 21.601562 12.09375 21.726562 12.425781 C 21.78125 12.402344 21.839844 12.390625 21.902344 12.390625 C 21.929688 12.277344 21.949219 12.160156 21.964844 12.046875 C 21.984375 11.882812 22.046875 11.742188 22.15625 11.617188 C 22.265625 11.492188 22.402344 11.449219 22.5625 11.488281 C 22.710938 11.53125 22.789062 11.625 22.808594 11.773438 C 22.910156 11.921875 22.871094 12.121094 22.820312 12.28125 C 22.796875 12.367188 22.757812 12.441406 22.703125 12.503906 C 22.671875 12.539062 22.640625 12.5625 22.601562 12.582031 C 22.566406 12.597656 22.535156 12.613281 22.503906 12.632812 C 22.484375 12.648438 22.464844 12.65625 22.445312 12.660156 C 22.4375 12.667969 22.433594 12.671875 22.425781 12.679688 C 22.410156 12.691406 22.394531 12.699219 22.375 12.707031 Z M 22.277344 11.90625 L 22.347656 12.351562 C 22.382812 12.363281 22.421875 12.371094 22.457031 12.375 C 22.484375 12.378906 22.503906 12.386719 22.523438 12.402344 C 22.53125 12.398438 22.539062 12.390625 22.550781 12.382812 C 22.585938 12.339844 22.613281 12.292969 22.628906 12.242188 C 22.640625 12.207031 22.648438 12.171875 22.65625 12.140625 C 22.664062 12.109375 22.667969 12.078125 22.671875 12.046875 C 22.6875 11.984375 22.675781 11.925781 22.640625 11.875 C 22.636719 11.867188 22.636719 11.863281 22.632812 11.855469 C 22.621094 11.839844 22.617188 11.820312 22.617188 11.800781 C 22.617188 11.792969 22.613281 11.789062 22.613281 11.78125 C 22.582031 11.796875 22.550781 11.796875 22.519531 11.78125 C 22.457031 11.742188 22.402344 11.746094 22.347656 11.796875 C 22.316406 11.828125 22.292969 11.863281 22.277344 11.90625 Z M 14.160156 26.136719 C 14.152344 26.109375 14.144531 26.078125 14.136719 26.050781 C 14.121094 25.960938 14.101562 25.875 14.070312 25.789062 C 13.855469 24.929688 13.617188 24.078125 13.375 23.222656 C 13.316406 22.539062 13.390625 21.847656 13.3125 21.164062 C 13.277344 20.820312 13.269531 20.472656 13.285156 20.128906 C 13.296875 19.972656 13.28125 19.816406 13.242188 19.664062 C 13.195312 19.527344 13.109375 19.40625 13.078125 19.265625 C 13.089844 19.199219 13.074219 19.136719 13.027344 19.085938 C 12.898438 18.914062 12.722656 18.808594 12.617188 18.617188 C 12.523438 18.453125 12.472656 18.273438 12.460938 18.085938 C 12.453125 17.867188 12.476562 17.65625 12.542969 17.453125 C 12.570312 17.355469 12.605469 17.261719 12.644531 17.171875 C 12.691406 17.066406 12.753906 16.964844 12.722656 16.84375 C 12.679688 16.675781 12.5 16.5 12.378906 16.382812 C 12.230469 16.246094 12.066406 16.128906 11.886719 16.035156 C 11.492188 15.824219 11.046875 15.699219 10.613281 15.609375 C 10.582031 15.601562 10.554688 15.601562 10.527344 15.609375 C 10.445312 15.90625 10.121094 16.078125 9.847656 16.167969 C 9.566406 16.253906 9.28125 16.273438 8.992188 16.222656 C 8.597656 16.191406 8.242188 16.058594 7.925781 15.820312 C 7.90625 15.804688 7.890625 15.785156 7.882812 15.765625 C 7.867188 15.753906 7.855469 15.738281 7.847656 15.71875 C 7.828125 15.734375 7.8125 15.75 7.796875 15.769531 C 7.78125 15.769531 7.765625 15.773438 7.75 15.773438 C 7.730469 15.78125 7.710938 15.789062 7.695312 15.800781 C 7.679688 15.8125 7.664062 15.820312 7.644531 15.828125 C 7.621094 15.839844 7.597656 15.847656 7.574219 15.855469 C 7.542969 15.867188 7.511719 15.882812 7.484375 15.898438 C 7.46875 15.90625 7.453125 15.917969 7.4375 15.929688 C 6.894531 16.128906 6.394531 16.414062 5.945312 16.78125 C 5.765625 16.921875 5.609375 17.085938 5.484375 17.277344 C 5.289062 17.5625 5.109375 17.867188 5.054688 18.207031 C 5.007812 18.410156 4.976562 18.613281 4.964844 18.820312 C 4.941406 19.066406 4.929688 19.3125 4.917969 19.558594 L 4.84375 21.058594 C 4.84375 21.09375 4.851562 21.128906 4.871094 21.15625 C 4.804688 21.269531 4.804688 21.378906 4.875 21.488281 C 5.308594 22.246094 5.761719 23 6.265625 23.71875 C 6.75 24.410156 7.386719 24.917969 7.976562 25.515625 C 8.523438 26.074219 9.320312 26.003906 10.042969 25.953125 C 10.488281 25.921875 10.933594 25.875 11.378906 25.835938 C 11.589844 25.816406 11.867188 25.753906 12.070312 25.816406 C 12.351562 25.898438 12.335938 26.171875 12.410156 26.410156 C 12.460938 26.578125 12.574219 26.65625 12.75 26.644531 C 12.757812 26.652344 12.761719 26.664062 12.769531 26.671875 C 12.816406 26.644531 12.863281 26.628906 12.914062 26.621094 C 12.917969 26.621094 12.921875 26.621094 12.925781 26.621094 C 12.929688 26.621094 12.933594 26.621094 12.9375 26.617188 C 13.164062 26.542969 13.40625 26.519531 13.636719 26.464844 C 13.644531 26.449219 13.660156 26.4375 13.679688 26.429688 C 13.847656 26.371094 14.011719 26.304688 14.183594 26.25 C 14.175781 26.234375 14.167969 26.21875 14.164062 26.203125 C 14.164062 26.179688 14.164062 26.160156 14.160156 26.136719 Z M 16.371094 18.898438 C 16.367188 18.898438 16.363281 18.898438 16.359375 18.894531 C 16.355469 18.871094 16.339844 18.851562 16.316406 18.839844 C 16.300781 18.832031 16.289062 18.820312 16.273438 18.8125 C 16.035156 18.503906 15.789062 18.199219 15.535156 17.902344 C 15.429688 17.773438 15.320312 17.648438 15.207031 17.527344 C 15.140625 17.503906 15.074219 17.472656 15.015625 17.4375 C 14.941406 17.398438 14.863281 17.363281 14.785156 17.335938 C 14.609375 17.269531 14.429688 17.21875 14.246094 17.171875 C 14.089844 17.128906 13.933594 17.101562 13.773438 17.089844 C 13.769531 17.085938 13.765625 17.085938 13.761719 17.085938 C 13.765625 17.089844 13.773438 17.089844 13.777344 17.09375 C 13.75 17.097656 13.726562 17.097656 13.699219 17.101562 C 13.636719 17.109375 13.574219 17.117188 13.511719 17.125 C 13.378906 17.140625 13.25 17.164062 13.121094 17.1875 C 13.007812 17.210938 12.894531 17.234375 12.816406 17.320312 C 12.757812 17.382812 12.765625 17.433594 12.835938 17.476562 C 12.894531 17.503906 12.953125 17.515625 13.015625 17.519531 C 13 17.53125 12.980469 17.542969 12.964844 17.554688 C 12.914062 17.59375 12.867188 17.636719 12.824219 17.683594 C 12.777344 17.730469 12.769531 17.785156 12.796875 17.84375 C 12.808594 17.875 12.832031 17.890625 12.863281 17.902344 C 12.855469 17.917969 12.851562 17.933594 12.847656 17.949219 C 12.84375 17.957031 12.839844 17.964844 12.835938 17.972656 C 12.828125 17.980469 12.820312 17.988281 12.8125 17.992188 C 12.785156 18.019531 12.777344 18.050781 12.785156 18.089844 C 12.796875 18.125 12.820312 18.148438 12.855469 18.15625 C 12.882812 18.164062 12.910156 18.171875 12.9375 18.175781 C 12.964844 18.195312 12.992188 18.207031 13.023438 18.203125 C 13.066406 18.203125 13.113281 18.195312 13.15625 18.1875 C 13.226562 18.183594 13.300781 18.160156 13.371094 18.152344 C 13.464844 18.140625 13.554688 18.136719 13.644531 18.144531 C 13.722656 18.148438 13.800781 18.160156 13.875 18.175781 C 13.878906 18.179688 13.878906 18.179688 13.882812 18.179688 C 13.914062 18.195312 13.941406 18.214844 13.972656 18.234375 C 13.976562 18.238281 13.980469 18.242188 13.988281 18.246094 C 14 18.257812 14.011719 18.269531 14.023438 18.28125 C 14.035156 18.292969 14.042969 18.304688 14.054688 18.316406 C 14.058594 18.320312 14.0625 18.328125 14.066406 18.335938 C 14.074219 18.34375 14.078125 18.355469 14.085938 18.367188 C 14.085938 18.375 14.089844 18.386719 14.089844 18.394531 C 14.015625 18.386719 13.941406 18.382812 13.863281 18.382812 C 13.84375 18.378906 13.820312 18.378906 13.796875 18.382812 C 13.621094 18.382812 13.445312 18.410156 13.277344 18.472656 C 13.183594 18.5 13.152344 18.558594 13.171875 18.652344 C 13.191406 18.707031 13.226562 18.742188 13.28125 18.753906 C 13.308594 18.765625 13.332031 18.773438 13.359375 18.769531 C 13.378906 18.78125 13.402344 18.78125 13.425781 18.78125 C 13.488281 18.773438 13.550781 18.765625 13.617188 18.757812 C 13.746094 18.734375 13.875 18.734375 14 18.75 C 14.167969 18.792969 14.300781 18.878906 14.40625 19.011719 C 14.523438 19.144531 14.585938 19.3125 14.742188 19.414062 C 14.886719 19.492188 15.042969 19.53125 15.210938 19.527344 C 15.304688 19.636719 15.40625 19.742188 15.515625 19.839844 C 15.546875 19.867188 15.582031 19.875 15.621094 19.859375 C 15.664062 19.867188 15.695312 19.851562 15.722656 19.816406 C 15.816406 19.667969 15.925781 19.53125 16.046875 19.40625 C 16.105469 19.34375 16.167969 19.285156 16.234375 19.230469 C 16.304688 19.175781 16.363281 19.109375 16.40625 19.035156 C 16.4375 18.976562 16.425781 18.933594 16.371094 18.898438 Z M 16.371094 18.898438 " fill-opacity="1" fill-rule="nonzero"/><g clip-path="url(#df9fb262ba)"><path fill="#a8e1f4" d="M 21.109375 23.296875 C 21.078125 23.914062 21.070312 24.53125 21.082031 25.148438 C 21.082031 25.214844 21.046875 25.246094 20.984375 25.246094 C 20.742188 25.25 20.5 25.261719 20.257812 25.28125 C 20.21875 25.28125 20.191406 25.261719 20.171875 25.226562 C 20.15625 25.191406 20.15625 25.15625 20.179688 25.125 C 20.179688 25.054688 20.183594 24.980469 20.179688 24.910156 C 20.144531 24.535156 20.128906 24.15625 20.140625 23.777344 C 20.140625 23.777344 20.140625 23.777344 20.140625 23.773438 C 20.140625 23.726562 20.164062 23.695312 20.210938 23.683594 C 20.304688 23.667969 20.394531 23.640625 20.480469 23.605469 C 20.574219 23.558594 20.660156 23.503906 20.742188 23.441406 C 20.800781 23.398438 20.859375 23.347656 20.914062 23.296875 C 20.917969 23.230469 20.953125 23.203125 21.015625 23.203125 C 21.058594 23.179688 21.085938 23.191406 21.09375 23.242188 C 21.105469 23.257812 21.109375 23.277344 21.109375 23.296875 Z M 8.554688 12.371094 C 8.554688 12.371094 8.554688 12.371094 8.554688 12.367188 C 8.558594 12.359375 8.558594 12.347656 8.558594 12.335938 C 8.578125 12.019531 8.492188 11.664062 8.195312 11.5 C 8.03125 11.414062 7.863281 11.40625 7.6875 11.476562 C 7.554688 11.527344 7.390625 11.597656 7.34375 11.746094 C 7.308594 11.804688 7.285156 11.867188 7.269531 11.933594 C 7.257812 11.949219 7.25 11.96875 7.246094 11.988281 C 7.234375 12.042969 7.234375 12.101562 7.242188 12.15625 C 7.242188 12.167969 7.246094 12.179688 7.246094 12.191406 C 7.246094 12.230469 7.25 12.269531 7.261719 12.308594 C 7.28125 12.441406 7.304688 12.613281 7.40625 12.710938 C 7.40625 12.71875 7.410156 12.722656 7.414062 12.730469 C 7.449219 12.769531 7.496094 12.796875 7.546875 12.8125 C 7.582031 12.820312 7.617188 12.816406 7.648438 12.800781 C 7.679688 12.789062 7.695312 12.765625 7.703125 12.730469 C 7.707031 12.71875 7.703125 12.707031 7.699219 12.695312 C 7.695312 12.691406 7.691406 12.6875 7.691406 12.683594 C 7.6875 12.664062 7.679688 12.648438 7.664062 12.632812 C 7.65625 12.625 7.648438 12.613281 7.636719 12.605469 L 7.636719 12.597656 C 7.632812 12.597656 7.628906 12.59375 7.625 12.589844 C 7.613281 12.566406 7.601562 12.546875 7.589844 12.523438 C 7.585938 12.515625 7.582031 12.507812 7.578125 12.5 C 7.570312 12.488281 7.570312 12.484375 7.574219 12.496094 C 7.570312 12.488281 7.570312 12.480469 7.566406 12.476562 C 7.558594 12.453125 7.550781 12.433594 7.546875 12.410156 C 7.539062 12.375 7.53125 12.339844 7.527344 12.304688 C 7.527344 12.140625 7.535156 11.925781 7.695312 11.832031 C 7.773438 11.796875 7.859375 11.78125 7.949219 11.796875 C 8.03125 11.796875 8.089844 11.835938 8.132812 11.90625 C 8.136719 11.914062 8.140625 11.925781 8.144531 11.9375 C 8.144531 11.941406 8.140625 11.964844 8.140625 11.964844 C 8.140625 11.96875 8.140625 11.96875 8.140625 11.972656 C 8.136719 11.976562 8.136719 11.984375 8.132812 11.992188 C 8.128906 11.996094 8.125 12 8.121094 12.007812 C 8.117188 12.007812 8.117188 12.007812 8.117188 12.007812 C 8.117188 12.007812 8.117188 12.011719 8.117188 12.011719 C 8.09375 12.035156 8.070312 12.054688 8.046875 12.074219 C 8.03125 12.089844 8.015625 12.101562 8 12.121094 C 7.953125 12.152344 7.917969 12.191406 7.886719 12.238281 C 7.835938 12.316406 7.824219 12.398438 7.84375 12.488281 C 7.839844 12.527344 7.847656 12.5625 7.867188 12.59375 C 7.882812 12.613281 7.898438 12.628906 7.921875 12.644531 C 7.933594 12.667969 7.949219 12.683594 7.976562 12.691406 C 8.007812 12.703125 8.035156 12.707031 8.070312 12.707031 C 8.097656 12.707031 8.128906 12.707031 8.160156 12.703125 C 8.316406 12.695312 8.480469 12.617188 8.546875 12.484375 C 8.5625 12.460938 8.5625 12.433594 8.550781 12.40625 C 8.554688 12.394531 8.554688 12.382812 8.554688 12.371094 Z M 21.5 6.238281 C 21.425781 6.496094 21.335938 6.75 21.230469 6.992188 C 21.75 7.332031 22.234375 7.710938 22.691406 8.132812 C 23.144531 8.550781 23.5625 9.007812 23.941406 9.496094 C 24.324219 9.984375 24.660156 10.5 24.953125 11.046875 C 25.25 11.589844 25.496094 12.15625 25.695312 12.742188 C 25.894531 13.328125 26.046875 13.925781 26.148438 14.539062 C 26.25 15.148438 26.300781 15.765625 26.296875 16.382812 C 26.296875 17.003906 26.246094 17.617188 26.140625 18.230469 C 26.039062 18.839844 25.886719 19.4375 25.683594 20.023438 C 25.65625 20.105469 25.625 20.191406 25.59375 20.273438 C 25.167969 21.410156 24.574219 22.449219 23.8125 23.394531 C 23.050781 24.339844 22.160156 25.140625 21.136719 25.796875 C 21.121094 25.804688 20.949219 25.484375 20.933594 25.492188 C 20.917969 25.503906 20.769531 25.484375 20.753906 25.492188 C 20.496094 25.65625 20.628906 25.558594 20.359375 25.699219 C 20.339844 25.710938 20.253906 25.785156 20.234375 25.792969 C 20.222656 25.800781 20.167969 26.351562 20.152344 26.359375 C 19.679688 26.601562 19.1875 26.808594 18.679688 26.980469 C 18.648438 26.992188 18.617188 27 18.582031 27.011719 C 17.449219 27.382812 16.285156 27.570312 15.09375 27.570312 C 14.921875 27.570312 14.75 27.566406 14.582031 27.558594 C 14.546875 27.554688 14.511719 27.554688 14.480469 27.550781 C 14.058594 27.53125 13.644531 27.484375 13.230469 27.414062 C 13.195312 27.410156 13.101562 27.175781 13.066406 27.167969 C 11.542969 26.898438 10.476562 26.554688 9.234375 25.734375 C 9.183594 25.699219 8.84375 25.660156 8.792969 25.625 C 8.308594 25.296875 7.855469 24.929688 7.429688 24.53125 C 7.398438 24.5 7.367188 24.472656 7.335938 24.441406 C 6.3125 23.460938 5.507812 22.332031 4.914062 21.046875 C 4.882812 20.980469 4.851562 20.910156 4.820312 20.84375 C 4.558594 20.242188 4.351562 19.621094 4.199219 18.984375 C 4.042969 18.34375 3.949219 17.699219 3.90625 17.042969 C 3.867188 16.386719 3.886719 15.734375 3.960938 15.082031 C 4.035156 14.429688 4.167969 13.789062 4.355469 13.160156 C 4.542969 12.535156 4.78125 11.925781 5.078125 11.339844 C 5.371094 10.753906 5.714844 10.195312 6.109375 9.671875 C 6.5 9.144531 6.933594 8.65625 7.414062 8.207031 C 7.890625 7.757812 8.40625 7.351562 8.953125 6.992188 C 8.847656 6.75 8.757812 6.496094 8.683594 6.238281 C 5.335938 8.367188 3.105469 12.109375 3.105469 16.363281 C 3.105469 22.972656 8.484375 28.351562 15.09375 28.351562 C 21.703125 28.351562 27.078125 22.972656 27.078125 16.363281 C 27.078125 12.109375 24.851562 8.367188 21.5 6.238281 Z M 19.867188 18.832031 C 19.859375 19.222656 19.894531 19.605469 19.972656 19.988281 C 19.984375 20.039062 20.050781 20.03125 20.066406 19.988281 C 20.066406 19.988281 20.066406 19.984375 20.070312 19.984375 C 20.082031 19.957031 20.101562 19.933594 20.113281 19.90625 C 20.324219 19.621094 20.539062 19.339844 20.765625 19.070312 C 20.792969 19.035156 20.789062 19.007812 20.75 18.988281 C 20.765625 18.96875 20.769531 18.945312 20.773438 18.917969 C 20.796875 18.5 20.929688 18.101562 21.070312 17.710938 C 21.164062 17.441406 21.257812 17.171875 21.371094 16.910156 C 21.425781 16.832031 21.480469 16.75 21.523438 16.664062 C 21.589844 16.542969 21.648438 16.421875 21.71875 16.304688 C 21.742188 16.265625 21.765625 16.230469 21.789062 16.195312 C 21.800781 16.175781 21.816406 16.15625 21.828125 16.136719 C 21.828125 16.136719 21.828125 16.132812 21.832031 16.132812 C 21.949219 15.984375 22.066406 15.832031 22.183594 15.683594 C 22.253906 15.621094 22.324219 15.554688 22.394531 15.488281 C 22.398438 15.488281 22.402344 15.484375 22.40625 15.480469 C 22.421875 15.472656 22.433594 15.457031 22.441406 15.441406 C 22.511719 15.375 22.578125 15.308594 22.644531 15.242188 C 22.648438 15.242188 22.652344 15.238281 22.65625 15.238281 C 22.742188 15.175781 22.824219 15.105469 22.894531 15.027344 C 22.9375 14.984375 22.992188 14.933594 22.988281 14.867188 C 22.988281 14.835938 22.980469 14.804688 22.972656 14.773438 C 22.96875 14.746094 22.964844 14.71875 22.960938 14.691406 C 22.953125 14.660156 22.933594 14.636719 22.902344 14.628906 C 22.886719 14.609375 22.863281 14.601562 22.835938 14.601562 C 22.808594 14.597656 22.785156 14.605469 22.765625 14.625 C 22.59375 14.710938 22.414062 14.785156 22.234375 14.855469 C 22.148438 14.886719 22.0625 14.914062 21.976562 14.945312 C 21.960938 14.941406 21.945312 14.941406 21.929688 14.945312 C 21.859375 14.976562 21.789062 15.007812 21.722656 15.042969 C 21.664062 15.058594 21.605469 15.078125 21.546875 15.105469 L 21.316406 15.203125 C 21.214844 15.246094 21.113281 15.289062 21.011719 15.332031 C 20.75 15.429688 20.492188 15.523438 20.230469 15.613281 C 20.207031 15.617188 20.191406 15.632812 20.179688 15.648438 C 20.167969 15.652344 20.15625 15.65625 20.144531 15.660156 C 20.132812 15.667969 20.121094 15.679688 20.113281 15.695312 C 20.105469 15.695312 20.101562 15.699219 20.097656 15.707031 C 20.074219 15.726562 20.074219 15.75 20.097656 15.773438 C 20.097656 15.777344 20.101562 15.78125 20.105469 15.785156 C 20.117188 15.8125 20.136719 15.832031 20.167969 15.839844 L 20.230469 15.894531 C 20.261719 15.925781 20.292969 15.953125 20.328125 15.980469 C 20.179688 16.320312 20.089844 16.679688 20.003906 17.042969 C 20 17.054688 20 17.066406 20 17.078125 C 20 17.082031 19.996094 17.085938 19.996094 17.089844 C 19.925781 17.394531 19.886719 17.707031 19.875 18.019531 C 19.863281 18.125 19.851562 18.230469 19.847656 18.339844 C 19.84375 18.433594 19.84375 18.53125 19.84375 18.625 C 19.84375 18.695312 19.851562 18.765625 19.867188 18.832031 Z M 13.875 18.175781 C 13.800781 18.160156 13.722656 18.148438 13.644531 18.144531 C 13.554688 18.136719 13.464844 18.140625 13.371094 18.152344 C 13.300781 18.160156 13.226562 18.183594 13.152344 18.1875 C 13.113281 18.195312 13.066406 18.203125 13.023438 18.203125 C 12.992188 18.207031 12.964844 18.195312 12.9375 18.175781 C 12.910156 18.171875 12.882812 18.164062 12.855469 18.15625 C 12.820312 18.148438 12.796875 18.125 12.785156 18.089844 C 12.777344 18.050781 12.785156 18.019531 12.8125 17.992188 C 12.820312 17.988281 12.828125 17.980469 12.835938 17.972656 C 12.839844 17.964844 12.84375 17.957031 12.847656 17.949219 C 12.851562 17.933594 12.855469 17.917969 12.863281 17.902344 C 12.832031 17.890625 12.808594 17.875 12.796875 17.84375 C 12.769531 17.785156 12.777344 17.730469 12.824219 17.683594 C 12.867188 17.636719 12.914062 17.59375 12.964844 17.554688 C 12.980469 17.542969 13 17.53125 13.015625 17.519531 C 12.953125 17.515625 12.894531 17.503906 12.835938 17.476562 C 12.765625 17.433594 12.757812 17.382812 12.816406 17.320312 C 12.894531 17.234375 13.007812 17.210938 13.121094 17.1875 C 13.25 17.164062 13.378906 17.140625 13.511719 17.125 C 13.574219 17.117188 13.636719 17.109375 13.699219 17.101562 C 13.699219 17.082031 13.695312 17.066406 13.6875 17.046875 C 13.652344 17.03125 13.617188 17.015625 13.582031 16.996094 C 13.585938 16.992188 13.585938 16.988281 13.582031 16.984375 C 13.574219 16.941406 13.523438 16.921875 13.488281 16.902344 C 13.449219 16.882812 13.40625 16.863281 13.359375 16.851562 C 13.316406 16.835938 13.269531 16.824219 13.226562 16.8125 C 13.183594 16.796875 13.144531 16.792969 13.101562 16.808594 C 13.097656 16.8125 13.09375 16.816406 13.089844 16.820312 C 12.929688 16.824219 12.785156 16.875 12.65625 16.972656 C 12.394531 17.160156 12.28125 17.546875 12.25 17.851562 C 12.207031 18.199219 12.289062 18.519531 12.492188 18.804688 C 12.679688 19.066406 13.046875 19.214844 13.339844 19.027344 C 13.449219 18.957031 13.542969 18.867188 13.617188 18.757812 C 13.550781 18.765625 13.488281 18.773438 13.425781 18.78125 C 13.402344 18.78125 13.378906 18.78125 13.359375 18.769531 C 13.332031 18.773438 13.308594 18.765625 13.28125 18.753906 C 13.226562 18.742188 13.191406 18.707031 13.171875 18.652344 C 13.152344 18.558594 13.183594 18.5 13.277344 18.472656 C 13.445312 18.410156 13.621094 18.382812 13.796875 18.382812 C 13.8125 18.332031 13.828125 18.28125 13.835938 18.230469 C 13.851562 18.214844 13.863281 18.195312 13.875 18.175781 Z M 13.875 18.175781 " fill-opacity="1" fill-rule="nonzero"/></g><path fill="#545454" d="M 8.183594 12.257812 C 8.199219 12.246094 8.21875 12.246094 8.238281 12.257812 C 8.253906 12.273438 8.257812 12.289062 8.253906 12.3125 C 8.25 12.324219 8.242188 12.332031 8.230469 12.339844 L 8.046875 12.421875 C 8.027344 12.433594 8.011719 12.433594 7.992188 12.421875 C 7.976562 12.40625 7.96875 12.390625 7.976562 12.367188 C 7.980469 12.355469 7.988281 12.347656 7.996094 12.339844 Z M 20.207031 12.390625 C 20.222656 12.320312 20.21875 12.253906 20.195312 12.1875 C 20.1875 12.167969 20.171875 12.15625 20.152344 12.15625 C 19.96875 12.140625 20.113281 12.59375 20.207031 12.390625 Z M 25.683594 20.023438 C 25.65625 20.105469 25.625 20.191406 25.59375 20.273438 C 25.582031 19.851562 25.566406 19.429688 25.542969 19.011719 C 25.492188 18.132812 25.390625 17.238281 24.960938 16.453125 C 24.769531 16.097656 24.515625 15.789062 24.199219 15.535156 C 24.1875 15.527344 24.175781 15.519531 24.167969 15.511719 C 23.921875 15.5 23.695312 15.628906 23.503906 15.765625 C 23.289062 15.925781 23.09375 16.109375 22.917969 16.3125 C 22.832031 16.410156 22.746094 16.511719 22.664062 16.613281 C 22.621094 16.667969 22.582031 16.71875 22.542969 16.773438 C 22.523438 16.808594 22.496094 16.835938 22.46875 16.863281 C 22.429688 16.882812 22.390625 16.902344 22.351562 16.917969 L 22.128906 17.019531 L 21.894531 17.125 L 22.140625 17.25 C 22.175781 17.273438 22.179688 17.296875 22.148438 17.328125 C 21.957031 17.570312 21.765625 17.816406 21.578125 18.0625 C 20.851562 19.003906 20.136719 19.957031 19.441406 20.921875 L 19.914062 21.253906 C 19.964844 21.292969 19.914062 21.375 19.863281 21.339844 L 19.445312 21.042969 L 18.140625 20.117188 C 17.992188 20.292969 17.824219 20.453125 17.648438 20.601562 C 17.269531 20.910156 16.84375 21.132812 16.371094 21.261719 C 16.484375 21.367188 16.601562 21.476562 16.714844 21.585938 C 17.09375 21.945312 17.46875 22.308594 17.851562 22.660156 C 18.117188 22.902344 18.386719 23.136719 18.667969 23.355469 C 18.800781 23.460938 18.941406 23.546875 19.097656 23.613281 C 19.34375 23.707031 19.597656 23.746094 19.863281 23.726562 C 20.300781 23.6875 20.664062 23.457031 20.972656 23.15625 C 21 23.128906 21.027344 23.101562 21.054688 23.074219 C 21.054688 23.070312 21.054688 23.070312 21.058594 23.070312 C 21.324219 22.78125 21.566406 22.472656 21.789062 22.148438 C 22.082031 21.742188 22.386719 21.34375 22.6875 20.941406 C 23.023438 20.484375 23.363281 20.023438 23.707031 19.570312 C 23.746094 19.523438 23.832031 19.570312 23.792969 19.621094 C 23.703125 19.738281 23.609375 19.859375 23.519531 19.980469 C 23.179688 20.433594 22.84375 20.894531 22.503906 21.347656 C 22.351562 21.558594 22.191406 21.761719 22.035156 21.972656 C 21.910156 22.144531 21.789062 22.320312 21.660156 22.492188 C 21.5 22.714844 21.328125 22.925781 21.136719 23.128906 C 21.140625 23.332031 21.140625 23.539062 21.140625 23.746094 C 21.140625 24.429688 21.136719 25.113281 21.136719 25.796875 C 21.105469 25.816406 21.074219 25.835938 21.039062 25.855469 C 20.78125 26.019531 20.519531 26.167969 20.25 26.308594 C 20.230469 26.320312 20.210938 26.328125 20.191406 26.339844 C 20.179688 26.347656 20.167969 26.351562 20.152344 26.359375 C 20.152344 26.292969 20.148438 26.230469 20.148438 26.164062 C 20.125 25.375 20.113281 24.582031 20.082031 23.792969 C 19.640625 23.882812 19.226562 23.816406 18.835938 23.59375 C 18.757812 23.546875 18.6875 23.492188 18.617188 23.4375 C 18.625 23.644531 18.628906 23.847656 18.636719 24.054688 C 18.648438 24.640625 18.660156 25.230469 18.667969 25.820312 C 18.671875 26.207031 18.675781 26.59375 18.679688 26.980469 C 18.648438 26.992188 18.617188 27 18.582031 27.011719 C 18.582031 26.859375 18.582031 26.710938 18.578125 26.558594 C 18.574219 25.972656 18.5625 25.382812 18.554688 24.792969 C 18.546875 24.316406 18.539062 23.835938 18.515625 23.359375 C 18.5 23.347656 18.484375 23.335938 18.472656 23.324219 C 18.207031 23.109375 17.949219 22.890625 17.703125 22.65625 C 17.296875 22.269531 16.890625 21.886719 16.484375 21.5 C 16.410156 21.429688 16.335938 21.359375 16.261719 21.289062 C 16.113281 21.324219 15.960938 21.347656 15.808594 21.363281 C 15.105469 21.433594 14.476562 21.242188 13.921875 20.796875 C 13.679688 20.589844 13.476562 20.347656 13.320312 20.070312 C 13.324219 20.230469 13.328125 20.390625 13.335938 20.550781 C 13.363281 21.425781 13.390625 22.300781 13.421875 23.175781 C 13.507812 23.488281 13.59375 23.800781 13.679688 24.113281 C 13.992188 25.257812 14.292969 26.40625 14.582031 27.558594 C 14.546875 27.554688 14.511719 27.554688 14.480469 27.550781 C 14.40625 27.261719 14.332031 26.972656 14.257812 26.683594 C 14.226562 26.570312 14.199219 26.457031 14.167969 26.34375 C 13.800781 26.484375 13.417969 26.582031 13.027344 26.636719 C 13.09375 26.894531 13.160156 27.15625 13.230469 27.414062 C 13.195312 27.410156 13.160156 27.402344 13.125 27.398438 C 11.617188 27.128906 10.222656 26.570312 8.945312 25.730469 C 8.894531 25.695312 8.84375 25.660156 8.792969 25.625 C 8.917969 25.628906 9.042969 25.632812 9.167969 25.636719 C 9.796875 25.644531 10.429688 25.640625 11.058594 25.621094 C 11.585938 25.605469 12.121094 25.585938 12.644531 25.5 C 12.632812 25.066406 12.625 24.632812 12.617188 24.203125 C 12.597656 23.40625 12.578125 22.609375 12.558594 21.816406 C 12.539062 21.023438 12.523438 20.230469 12.507812 19.4375 C 12.507812 19.40625 12.523438 19.390625 12.554688 19.390625 C 12.585938 19.390625 12.605469 19.40625 12.605469 19.4375 C 12.613281 19.886719 12.621094 20.332031 12.632812 20.777344 C 12.652344 21.574219 12.667969 22.367188 12.6875 23.164062 C 12.707031 23.953125 12.726562 24.746094 12.742188 25.535156 C 12.832031 25.871094 12.917969 26.207031 13.003906 26.542969 C 13.394531 26.488281 13.777344 26.390625 14.144531 26.25 C 13.882812 25.230469 13.609375 24.210938 13.324219 23.195312 C 13.324219 23.195312 13.324219 23.191406 13.324219 23.1875 C 13.324219 23.1875 13.324219 23.183594 13.324219 23.183594 C 13.316406 22.933594 13.308594 22.679688 13.296875 22.429688 C 13.269531 21.574219 13.242188 20.722656 13.214844 19.871094 C 13.109375 19.644531 13.027344 19.410156 12.972656 19.164062 C 12.53125 19.113281 12.179688 18.597656 12.179688 17.96875 C 12.179688 17.484375 12.390625 17.0625 12.695312 16.875 C 12.589844 16.699219 12.46875 16.542969 12.324219 16.398438 C 11.847656 15.941406 11.1875 15.804688 10.5625 15.667969 C 10.457031 15.851562 10.308594 15.996094 10.121094 16.101562 C 9.761719 16.304688 9.324219 16.324219 8.921875 16.261719 C 8.515625 16.199219 8.152344 16.046875 7.824219 15.796875 C 7.347656 16.011719 6.863281 16.21875 6.417969 16.5 C 6.011719 16.761719 5.640625 17.089844 5.382812 17.503906 C 5.109375 17.945312 5.011719 18.460938 4.976562 18.976562 C 4.945312 19.460938 4.941406 19.953125 4.929688 20.441406 C 4.921875 20.644531 4.917969 20.84375 4.914062 21.046875 C 4.882812 20.980469 4.851562 20.910156 4.820312 20.84375 C 4.828125 20.636719 4.832031 20.433594 4.835938 20.226562 C 4.851562 19.726562 4.847656 19.21875 4.902344 18.71875 C 4.960938 18.203125 5.105469 17.707031 5.414062 17.285156 C 6 16.488281 6.917969 16.097656 7.792969 15.707031 C 7.847656 15.53125 7.890625 15.347656 7.921875 15.167969 C 7.980469 14.832031 8.015625 14.492188 8.023438 14.152344 C 7.761719 14.183594 7.542969 14.03125 7.367188 13.851562 C 7.335938 13.816406 7.289062 13.777344 7.300781 13.722656 C 7.3125 13.671875 7.371094 13.652344 7.414062 13.628906 C 7.488281 13.59375 7.558594 13.554688 7.625 13.503906 C 7.511719 13.492188 7.40625 13.460938 7.300781 13.414062 C 7.265625 13.390625 7.261719 13.367188 7.292969 13.335938 C 7.421875 13.214844 7.585938 13.058594 7.542969 12.859375 C 7.511719 12.855469 7.484375 12.84375 7.457031 12.828125 C 7.363281 12.769531 7.300781 12.6875 7.269531 12.582031 C 7.183594 12.351562 7.15625 12.074219 7.25 11.84375 C 7.292969 11.742188 7.351562 11.648438 7.429688 11.570312 C 7.425781 11.5625 7.425781 11.554688 7.425781 11.546875 C 7.429688 11.210938 7.445312 10.871094 7.539062 10.546875 C 7.792969 9.660156 8.730469 9.058594 9.628906 9.046875 C 9.796875 8.972656 9.972656 8.925781 10.160156 8.910156 C 10.796875 8.855469 11.394531 9.1875 11.816406 9.644531 C 12.035156 9.886719 12.25 10.179688 12.347656 10.496094 C 12.390625 10.636719 12.421875 10.796875 12.558594 10.878906 C 12.675781 10.941406 12.800781 10.964844 12.933594 10.949219 C 12.976562 10.949219 12.992188 10.972656 12.980469 11.011719 C 12.875 11.273438 12.621094 11.449219 12.363281 11.542969 C 12.265625 11.578125 12.164062 11.605469 12.058594 11.613281 C 12.066406 11.917969 12.050781 12.222656 12.042969 12.523438 C 12.035156 12.804688 12.03125 13.085938 12.011719 13.363281 C 11.980469 13.777344 11.910156 14.21875 11.660156 14.558594 C 11.445312 14.851562 11.117188 15.003906 10.765625 15.070312 C 10.695312 15.082031 10.621094 15.09375 10.550781 15.097656 C 10.550781 15.195312 10.554688 15.289062 10.566406 15.386719 C 10.570312 15.449219 10.578125 15.511719 10.582031 15.574219 C 10.777344 15.613281 10.96875 15.65625 11.15625 15.707031 C 11.476562 15.789062 11.789062 15.894531 12.066406 16.074219 C 12.363281 16.269531 12.601562 16.523438 12.78125 16.828125 C 12.863281 16.792969 12.945312 16.773438 13.035156 16.773438 C 13.222656 16.761719 13.398438 16.8125 13.550781 16.921875 C 13.617188 16.96875 13.675781 17.019531 13.734375 17.074219 C 13.84375 17.070312 13.953125 17.078125 14.066406 17.09375 C 14.238281 17.117188 14.726562 17.226562 15.046875 17.394531 C 15.398438 17.609375 15.5 17.78125 15.648438 17.960938 C 15.90625 18.28125 16.167969 18.597656 16.445312 18.90625 C 16.457031 18.890625 16.46875 18.878906 16.476562 18.867188 C 16.484375 18.863281 16.488281 18.859375 16.492188 18.855469 C 16.496094 18.855469 16.496094 18.855469 16.496094 18.855469 C 16.511719 18.847656 16.523438 18.851562 16.539062 18.859375 C 16.675781 18.960938 16.816406 19.058594 16.957031 19.15625 L 18.046875 19.929688 C 18.175781 19.777344 18.292969 19.617188 18.40625 19.449219 C 18.410156 19.261719 18.417969 19.074219 18.429688 18.886719 C 18.457031 18.492188 18.511719 18.101562 18.605469 17.714844 C 18.664062 17.453125 18.757812 17.207031 18.886719 16.976562 C 18.980469 16.820312 19.097656 16.679688 19.230469 16.558594 C 19.238281 16.546875 19.246094 16.542969 19.253906 16.539062 C 19.296875 16.5 19.339844 16.464844 19.386719 16.429688 C 19.316406 16.269531 19.257812 16.109375 19.210938 15.941406 C 19.125 15.632812 19.078125 15.324219 19.074219 15.003906 C 19.070312 14.988281 19.074219 14.972656 19.082031 14.957031 C 18.871094 14.851562 18.6875 14.707031 18.539062 14.519531 C 18.398438 14.339844 18.289062 14.144531 18.207031 13.929688 C 18.050781 14.136719 17.84375 14.253906 17.585938 14.277344 C 17.542969 14.28125 17.527344 14.222656 17.550781 14.195312 C 17.617188 14.121094 17.671875 14.039062 17.714844 13.949219 C 18.113281 13.117188 17.449219 12.28125 17.40625 11.453125 C 17.378906 10.753906 17.644531 10.191406 18.203125 9.769531 C 18.714844 9.367188 19.382812 9.191406 20.023438 9.140625 C 20.421875 9.101562 20.816406 9.132812 21.207031 9.234375 C 21.382812 8.832031 21.652344 8.421875 22.066406 8.238281 C 22.445312 8.078125 22.816406 8.09375 23.179688 8.292969 C 23.550781 8.496094 23.746094 8.871094 23.835938 9.273438 C 23.894531 9.527344 23.917969 9.792969 23.957031 10.050781 C 24 10.320312 24.058594 10.582031 24.136719 10.84375 C 24.253906 11.226562 24.421875 11.75 24.863281 11.859375 C 24.917969 11.871094 24.90625 11.933594 24.863281 11.953125 C 24.621094 12.050781 24.371094 12.09375 24.109375 12.078125 C 23.878906 12.066406 23.660156 12.011719 23.449219 11.910156 C 23.269531 11.824219 23.113281 11.703125 22.980469 11.554688 C 22.871094 11.4375 22.773438 11.308594 22.6875 11.167969 C 22.695312 11.292969 22.699219 11.417969 22.695312 11.542969 C 22.890625 11.691406 22.957031 11.980469 22.890625 12.222656 C 22.839844 12.40625 22.738281 12.558594 22.582031 12.671875 C 22.566406 13.007812 22.527344 13.339844 22.460938 13.671875 C 22.550781 13.980469 22.660156 14.285156 22.792969 14.578125 L 22.902344 14.535156 C 22.933594 14.527344 22.953125 14.539062 22.964844 14.570312 L 23.050781 14.871094 C 23.539062 14.996094 23.976562 15.21875 24.363281 15.546875 C 24.996094 16.09375 25.335938 16.890625 25.496094 17.699219 C 25.59375 18.195312 25.625 18.699219 25.652344 19.203125 C 25.664062 19.476562 25.675781 19.75 25.683594 20.023438 Z M 7.316406 12.296875 C 7.335938 12.292969 7.351562 12.289062 7.367188 12.285156 C 7.402344 12.277344 7.4375 12.269531 7.46875 12.253906 C 7.472656 12.253906 7.476562 12.253906 7.484375 12.253906 C 7.46875 12.128906 7.496094 12.015625 7.566406 11.910156 C 7.636719 11.816406 7.730469 11.757812 7.847656 11.742188 C 7.964844 11.722656 8.070312 11.75 8.164062 11.824219 C 8.175781 11.832031 8.183594 11.84375 8.179688 11.859375 C 8.207031 11.929688 8.195312 11.996094 8.152344 12.058594 C 8.101562 12.117188 8.027344 12.144531 7.964844 12.1875 C 7.890625 12.242188 7.859375 12.3125 7.867188 12.40625 C 7.867188 12.488281 7.898438 12.558594 7.957031 12.613281 C 8.050781 12.6875 8.195312 12.667969 8.300781 12.628906 C 8.453125 12.578125 8.527344 12.472656 8.523438 12.316406 C 8.53125 12.132812 8.515625 11.925781 8.425781 11.769531 C 8.34375 11.625 8.222656 11.53125 8.066406 11.484375 C 7.742188 11.382812 7.429688 11.613281 7.328125 11.917969 C 7.289062 12.042969 7.28125 12.171875 7.300781 12.300781 C 7.308594 12.296875 7.3125 12.296875 7.316406 12.296875 Z M 7.675781 12.757812 C 7.675781 12.757812 7.671875 12.757812 7.671875 12.753906 C 7.589844 12.628906 7.53125 12.496094 7.496094 12.347656 C 7.4375 12.371094 7.378906 12.386719 7.320312 12.394531 C 7.324219 12.425781 7.332031 12.457031 7.34375 12.488281 C 7.359375 12.578125 7.402344 12.65625 7.46875 12.71875 C 7.53125 12.773438 7.601562 12.785156 7.675781 12.757812 Z M 10.488281 15.601562 C 10.480469 15.527344 10.472656 15.457031 10.46875 15.386719 C 10.457031 15.292969 10.453125 15.199219 10.453125 15.105469 C 10.179688 15.121094 9.910156 15.09375 9.648438 15.023438 C 9.320312 14.9375 8.988281 14.78125 8.765625 14.519531 C 8.726562 14.472656 8.792969 14.402344 8.835938 14.449219 C 9.078125 14.738281 9.457031 14.890625 9.820312 14.964844 C 10.171875 15.039062 10.527344 15.03125 10.878906 14.945312 C 11.222656 14.855469 11.511719 14.660156 11.679688 14.339844 C 11.871094 13.976562 11.90625 13.550781 11.925781 13.148438 C 11.9375 12.886719 11.941406 12.628906 11.949219 12.367188 C 11.957031 12.117188 11.96875 11.867188 11.960938 11.617188 C 11.839844 11.621094 11.722656 11.597656 11.609375 11.550781 C 11.503906 11.507812 11.421875 11.433594 11.367188 11.332031 C 11.347656 11.292969 11.347656 11.246094 11.300781 11.238281 C 11.269531 11.234375 11.238281 11.234375 11.207031 11.238281 C 10.988281 11.222656 10.8125 11.132812 10.675781 10.960938 C 10.617188 10.875 10.566406 10.777344 10.527344 10.679688 C 10.480469 10.582031 10.417969 10.472656 10.296875 10.457031 C 10.171875 10.441406 10.023438 10.578125 10 10.703125 C 9.996094 10.738281 9.960938 10.757812 9.902344 10.683594 C 9.84375 10.609375 9.753906 10.558594 9.667969 10.617188 C 9.59375 10.675781 9.554688 10.753906 9.550781 10.851562 C 9.53125 11.039062 9.539062 11.226562 9.507812 11.417969 C 9.449219 11.753906 9.28125 12.082031 8.980469 12.257812 C 8.960938 12.269531 8.941406 12.265625 8.925781 12.253906 C 8.90625 12.238281 8.902344 12.222656 8.90625 12.203125 C 8.941406 12.085938 8.957031 11.964844 8.953125 11.839844 C 8.871094 11.96875 8.769531 12.074219 8.640625 12.152344 C 8.632812 12.160156 8.628906 12.160156 8.621094 12.160156 C 8.628906 12.238281 8.625 12.316406 8.613281 12.394531 C 8.589844 12.5625 8.46875 12.671875 8.3125 12.726562 C 8.183594 12.769531 8.019531 12.78125 7.90625 12.695312 C 7.777344 12.601562 7.734375 12.386719 7.796875 12.242188 C 7.835938 12.164062 7.894531 12.105469 7.972656 12.070312 C 8.054688 12.023438 8.109375 11.980469 8.085938 11.886719 C 7.980469 11.8125 7.871094 11.808594 7.757812 11.871094 C 7.625 11.945312 7.574219 12.078125 7.582031 12.226562 C 7.613281 12.570312 7.777344 12.828125 8.078125 13 C 8.09375 13.007812 8.101562 13.019531 8.101562 13.039062 C 8.101562 13.039062 8.101562 13.039062 8.105469 13.042969 C 8.113281 13.238281 8.121094 13.4375 8.125 13.636719 C 8.132812 14.332031 8.09375 15.054688 7.886719 15.722656 C 8.050781 15.847656 8.226562 15.949219 8.417969 16.019531 C 9.089844 16.285156 10.085938 16.320312 10.488281 15.601562 Z M 20.179688 23.769531 C 20.1875 23.957031 20.191406 24.144531 20.195312 24.335938 C 20.207031 24.632812 20.214844 24.933594 20.21875 25.230469 C 20.492188 25.230469 20.765625 25.21875 21.039062 25.199219 C 21.039062 24.542969 21.042969 23.882812 21.042969 23.226562 C 20.957031 23.304688 20.871094 23.382812 20.78125 23.453125 C 20.621094 23.578125 20.449219 23.671875 20.261719 23.742188 C 20.234375 23.75 20.207031 23.761719 20.179688 23.769531 Z M 13.996094 17.179688 C 13.777344 17.160156 13.558594 17.171875 13.339844 17.210938 C 13.234375 17.230469 13.128906 17.253906 13.027344 17.277344 C 12.980469 17.289062 12.84375 17.3125 12.835938 17.378906 C 12.832031 17.410156 12.886719 17.445312 12.910156 17.457031 C 12.976562 17.488281 13.042969 17.5 13.117188 17.492188 C 13.238281 17.457031 13.367188 17.433594 13.492188 17.417969 C 13.894531 17.367188 14.277344 17.429688 14.644531 17.601562 C 14.707031 17.628906 14.644531 17.710938 14.589844 17.6875 C 14.207031 17.523438 13.8125 17.46875 13.402344 17.527344 C 13.308594 17.542969 13.214844 17.566406 13.125 17.59375 C 13.050781 17.609375 12.980469 17.636719 12.914062 17.675781 C 12.835938 17.726562 12.789062 17.851562 12.917969 17.863281 C 12.921875 17.859375 12.925781 17.859375 12.929688 17.859375 C 13.351562 17.699219 13.742188 17.640625 14.457031 17.96875 C 14.488281 17.980469 14.5 18 14.488281 18.027344 C 14.476562 18.058594 14.457031 18.066406 14.425781 18.054688 C 14.15625 17.957031 13.847656 17.820312 13.527344 17.824219 C 13.40625 17.832031 13.292969 17.851562 13.175781 17.882812 C 13.136719 17.890625 13.097656 17.902344 13.058594 17.917969 C 13.027344 17.925781 12.988281 17.9375 12.957031 17.949219 C 12.949219 17.957031 12.945312 17.957031 12.9375 17.960938 C 12.929688 17.960938 12.925781 17.964844 12.917969 17.96875 C 12.886719 17.992188 12.835938 18.050781 12.863281 18.089844 C 12.878906 18.117188 12.921875 18.125 12.949219 18.128906 C 13.046875 18.148438 13.144531 18.144531 13.242188 18.125 C 13.429688 18.089844 13.617188 18.09375 13.800781 18.140625 C 13.925781 18.171875 14.078125 18.230469 14.128906 18.359375 C 14.140625 18.390625 14.109375 18.421875 14.082031 18.421875 C 13.9375 18.429688 13.796875 18.417969 13.652344 18.425781 C 13.519531 18.429688 13.355469 18.445312 13.25 18.535156 C 13.226562 18.554688 13.1875 18.59375 13.199219 18.628906 C 13.210938 18.675781 13.289062 18.695312 13.328125 18.707031 C 13.417969 18.722656 13.507812 18.726562 13.597656 18.714844 C 13.789062 18.699219 13.972656 18.671875 14.148438 18.761719 C 14.257812 18.816406 14.347656 18.890625 14.421875 18.988281 C 14.496094 19.089844 14.574219 19.183594 14.65625 19.277344 C 14.816406 19.425781 15.035156 19.457031 15.238281 19.507812 C 15.242188 19.507812 15.242188 19.507812 15.242188 19.507812 C 15.25 19.511719 15.257812 19.515625 15.261719 19.519531 C 15.277344 19.535156 15.292969 19.550781 15.308594 19.5625 L 15.609375 19.84375 C 15.859375 19.546875 16.113281 19.257812 16.378906 18.976562 C 16.09375 18.664062 15.824219 18.335938 15.558594 18.007812 C 15.503906 17.9375 15.445312 17.867188 15.390625 17.796875 C 15.289062 17.671875 15.164062 17.574219 15.019531 17.507812 C 14.492188 17.257812 14.183594 17.203125 13.996094 17.179688 Z M 12.746094 17.742188 C 12.773438 17.65625 12.832031 17.597656 12.914062 17.5625 C 12.867188 17.550781 12.828125 17.527344 12.792969 17.492188 C 12.691406 17.636719 12.640625 17.792969 12.644531 17.96875 C 12.644531 18.308594 12.824219 18.585938 13.046875 18.585938 C 13.066406 18.585938 13.085938 18.582031 13.101562 18.578125 C 13.125 18.492188 13.226562 18.421875 13.304688 18.390625 C 13.363281 18.367188 13.425781 18.351562 13.488281 18.339844 C 13.492188 18.292969 13.496094 18.246094 13.5 18.199219 C 13.492188 18.199219 13.488281 18.199219 13.480469 18.199219 C 13.277344 18.203125 13.058594 18.289062 12.863281 18.207031 C 12.785156 18.179688 12.75 18.125 12.761719 18.042969 C 12.765625 18 12.785156 17.960938 12.816406 17.929688 C 12.742188 17.886719 12.71875 17.824219 12.746094 17.742188 Z M 13.734375 18.324219 C 13.734375 18.316406 13.738281 18.308594 13.738281 18.300781 C 13.742188 18.277344 13.742188 18.25 13.742188 18.226562 C 13.695312 18.214844 13.644531 18.207031 13.597656 18.203125 C 13.59375 18.246094 13.589844 18.289062 13.585938 18.328125 C 13.636719 18.324219 13.683594 18.324219 13.734375 18.324219 Z M 13.988281 18.328125 C 13.945312 18.292969 13.894531 18.269531 13.839844 18.253906 C 13.839844 18.277344 13.835938 18.300781 13.832031 18.324219 C 13.882812 18.328125 13.9375 18.328125 13.988281 18.328125 Z M 13.046875 19.070312 C 13.234375 19.070312 13.40625 18.976562 13.539062 18.816406 C 13.527344 18.816406 13.519531 18.816406 13.511719 18.816406 C 13.390625 18.824219 13.171875 18.808594 13.113281 18.675781 C 13.089844 18.679688 13.070312 18.683594 13.046875 18.683594 C 12.769531 18.683594 12.546875 18.363281 12.546875 17.96875 C 12.542969 17.757812 12.605469 17.570312 12.742188 17.40625 C 12.722656 17.320312 12.804688 17.25 12.886719 17.21875 C 12.972656 17.1875 13.058594 17.164062 13.152344 17.148438 C 13.25 17.128906 13.351562 17.109375 13.449219 17.097656 C 13.492188 17.09375 13.53125 17.085938 13.570312 17.085938 C 13.253906 16.824219 13.046875 16.871094 13.046875 16.871094 C 12.625 16.871094 12.277344 17.363281 12.277344 17.96875 C 12.277344 18.578125 12.625 19.070312 13.046875 19.070312 Z M 16.089844 21.125 C 15.972656 21.015625 15.855469 20.902344 15.738281 20.789062 C 15.582031 20.636719 15.417969 20.488281 15.269531 20.324219 C 15.253906 20.3125 15.253906 20.292969 15.257812 20.277344 C 15.257812 20.273438 15.261719 20.273438 15.261719 20.273438 C 15.261719 20.269531 15.261719 20.269531 15.261719 20.269531 C 15.265625 20.261719 15.265625 20.257812 15.269531 20.253906 C 15.359375 20.140625 15.453125 20.027344 15.546875 19.917969 L 15.53125 19.902344 L 15.203125 19.597656 C 14.996094 19.550781 14.785156 19.515625 14.621094 19.371094 C 14.53125 19.285156 14.449219 19.191406 14.378906 19.089844 C 14.304688 18.984375 14.210938 18.90625 14.097656 18.847656 C 13.964844 18.777344 13.816406 18.789062 13.667969 18.804688 C 13.546875 18.988281 13.382812 19.105469 13.171875 19.15625 C 13.183594 19.210938 13.199219 19.265625 13.214844 19.320312 C 13.382812 19.910156 13.726562 20.445312 14.242188 20.789062 C 14.78125 21.152344 15.445312 21.25 16.078125 21.128906 C 16.082031 21.128906 16.085938 21.128906 16.089844 21.125 Z M 17.980469 20.003906 L 17.632812 19.757812 C 17.261719 19.492188 16.890625 19.230469 16.519531 18.96875 C 16.117188 19.390625 15.734375 19.832031 15.367188 20.289062 C 15.382812 20.300781 15.394531 20.316406 15.410156 20.328125 C 15.667969 20.59375 15.933594 20.847656 16.203125 21.101562 C 16.796875 20.960938 17.308594 20.679688 17.746094 20.253906 C 17.828125 20.171875 17.90625 20.089844 17.980469 20.003906 Z M 18.40625 20.1875 C 18.402344 20.054688 18.402344 19.925781 18.402344 19.796875 C 18.339844 19.878906 18.273438 19.964844 18.207031 20.042969 Z M 22.417969 13.863281 C 22.324219 14.21875 22.191406 14.558594 22.015625 14.878906 L 22.703125 14.613281 C 22.59375 14.367188 22.5 14.117188 22.417969 13.863281 Z M 22.378906 12.78125 C 22.347656 12.792969 22.3125 12.804688 22.277344 12.8125 C 22.296875 12.9375 22.320312 13.0625 22.34375 13.183594 C 22.359375 13.050781 22.371094 12.914062 22.378906 12.78125 Z M 22.582031 12.289062 C 22.59375 12.273438 22.605469 12.253906 22.613281 12.234375 C 22.636719 12.171875 22.648438 12.109375 22.644531 12.046875 C 22.640625 11.933594 22.605469 11.78125 22.464844 11.808594 C 22.425781 11.816406 22.394531 11.839844 22.378906 11.878906 C 22.355469 11.917969 22.34375 11.960938 22.339844 12.007812 C 22.332031 12.058594 22.335938 12.113281 22.34375 12.164062 C 22.351562 12.207031 22.367188 12.25 22.390625 12.285156 C 22.390625 12.289062 22.394531 12.289062 22.394531 12.292969 C 22.398438 12.292969 22.398438 12.296875 22.402344 12.300781 C 22.421875 12.265625 22.449219 12.25 22.488281 12.25 C 22.523438 12.246094 22.554688 12.261719 22.574219 12.292969 C 22.578125 12.292969 22.578125 12.289062 22.582031 12.289062 Z M 19.636719 15.035156 C 20.398438 15.160156 21.253906 14.8125 21.671875 14.15625 C 21.707031 14.105469 21.792969 14.152344 21.757812 14.207031 C 21.5 14.59375 21.148438 14.867188 20.710938 15.023438 C 20.515625 15.09375 20.3125 15.136719 20.105469 15.148438 C 20.164062 15.285156 20.210938 15.421875 20.25 15.5625 L 20.371094 15.519531 L 21.726562 14.992188 C 21.8125 14.859375 21.886719 14.722656 21.953125 14.582031 C 22.125 14.222656 22.238281 13.847656 22.304688 13.457031 C 22.25 13.238281 22.210938 13.011719 22.175781 12.785156 C 22.175781 12.785156 22.175781 12.78125 22.175781 12.777344 C 22.167969 12.746094 22.179688 12.730469 22.207031 12.726562 C 22.269531 12.714844 22.328125 12.699219 22.386719 12.671875 C 22.390625 12.585938 22.390625 12.496094 22.390625 12.410156 C 22.347656 12.386719 22.3125 12.351562 22.289062 12.308594 C 22.234375 12.1875 22.222656 12.0625 22.253906 11.929688 C 22.265625 11.867188 22.292969 11.816406 22.339844 11.769531 C 22.394531 11.722656 22.457031 11.699219 22.53125 11.710938 C 22.691406 11.730469 22.738281 11.90625 22.742188 12.046875 C 22.742188 12.175781 22.710938 12.34375 22.585938 12.410156 C 22.585938 12.453125 22.585938 12.496094 22.585938 12.539062 C 22.738281 12.402344 22.816406 12.234375 22.820312 12.027344 C 22.828125 11.855469 22.761719 11.714844 22.621094 11.609375 C 22.617188 11.609375 22.613281 11.605469 22.609375 11.605469 C 22.59375 11.59375 22.574219 11.582031 22.554688 11.574219 C 22.472656 11.535156 22.386719 11.53125 22.304688 11.570312 C 22.230469 11.609375 22.175781 11.664062 22.128906 11.734375 C 22.132812 11.742188 22.132812 11.746094 22.132812 11.753906 C 22.207031 12.113281 22.195312 12.46875 22.09375 12.820312 C 22.042969 12.992188 21.972656 13.152344 21.878906 13.304688 C 21.792969 13.441406 21.679688 13.566406 21.515625 13.601562 C 21.464844 13.613281 21.441406 13.59375 21.457031 13.539062 C 21.558594 13.1875 21.546875 12.839844 21.421875 12.492188 C 21.324219 12.195312 21.144531 11.902344 20.875 11.730469 C 20.605469 11.558594 20.273438 11.582031 19.972656 11.496094 C 19.734375 11.429688 19.542969 11.292969 19.410156 11.085938 C 19.285156 10.882812 19.210938 10.667969 19.179688 10.433594 C 19.042969 10.496094 18.914062 10.570312 18.792969 10.65625 C 18.339844 10.992188 18.121094 11.507812 18.019531 12.042969 C 18.054688 12.242188 18.078125 12.441406 18.085938 12.644531 C 18.097656 12.894531 18.125 13.140625 18.164062 13.390625 C 18.1875 13.53125 18.222656 13.667969 18.265625 13.800781 C 18.265625 13.804688 18.269531 13.808594 18.269531 13.808594 C 18.355469 14.074219 18.488281 14.308594 18.667969 14.519531 C 18.925781 14.808594 19.25 14.980469 19.636719 15.035156 Z M 20.191406 16.496094 C 20.367188 16.394531 20.53125 16.277344 20.691406 16.152344 C 21.054688 15.859375 21.371094 15.519531 21.636719 15.128906 L 21.015625 15.371094 L 20.113281 15.722656 C 20.1875 15.796875 20.257812 15.871094 20.332031 15.941406 C 20.339844 15.945312 20.34375 15.949219 20.347656 15.957031 C 20.363281 15.96875 20.363281 15.984375 20.355469 16 C 20.292969 16.164062 20.238281 16.328125 20.191406 16.496094 Z M 20.226562 16.074219 C 20.003906 16.164062 19.792969 16.273438 19.589844 16.398438 C 19.644531 16.511719 19.714844 16.609375 19.800781 16.695312 C 19.894531 16.65625 19.980469 16.613281 20.070312 16.566406 C 20.113281 16.398438 20.167969 16.238281 20.226562 16.074219 Z M 19.394531 15.875 C 19.433594 16.023438 19.488281 16.171875 19.550781 16.316406 C 19.761719 16.179688 19.988281 16.066406 20.222656 15.972656 C 20.148438 15.898438 20.074219 15.824219 20 15.75 C 19.996094 15.746094 19.988281 15.738281 19.988281 15.734375 C 19.972656 15.710938 19.972656 15.691406 19.992188 15.667969 C 19.996094 15.664062 20.003906 15.660156 20.011719 15.660156 C 20.011719 15.65625 20.011719 15.65625 20.011719 15.65625 L 20.160156 15.597656 C 20.121094 15.453125 20.070312 15.3125 20.011719 15.175781 C 20.007812 15.167969 20.007812 15.160156 20.007812 15.152344 C 19.753906 15.160156 19.507812 15.121094 19.269531 15.039062 C 19.277344 15.320312 19.320312 15.601562 19.394531 15.875 Z M 18.859375 17.847656 C 18.988281 17.847656 19.117188 17.847656 19.246094 17.859375 C 19.394531 17.519531 19.53125 17.175781 19.65625 16.828125 C 19.566406 16.734375 19.492188 16.628906 19.429688 16.515625 C 19.410156 16.53125 19.390625 16.546875 19.371094 16.5625 C 19.351562 16.578125 19.332031 16.597656 19.3125 16.613281 C 19.09375 17.003906 18.878906 17.394531 18.859375 17.847656 Z M 18.503906 19.296875 C 18.625 19.101562 18.738281 18.902344 18.847656 18.699219 C 18.855469 18.679688 18.863281 18.664062 18.871094 18.644531 C 18.835938 18.519531 18.796875 18.394531 18.761719 18.269531 C 18.757812 18.246094 18.765625 18.226562 18.785156 18.214844 C 18.859375 18.183594 18.929688 18.148438 19 18.109375 C 19.0625 18.078125 19.125 18.042969 19.183594 18.003906 C 19.191406 17.988281 19.199219 17.96875 19.203125 17.953125 C 19.074219 17.945312 18.941406 17.941406 18.808594 17.945312 C 18.777344 17.945312 18.761719 17.929688 18.761719 17.894531 C 18.761719 17.675781 18.800781 17.460938 18.882812 17.253906 C 18.917969 17.15625 18.960938 17.058594 19.011719 16.964844 C 18.976562 17.015625 18.945312 17.070312 18.917969 17.125 C 18.792969 17.378906 18.707031 17.644531 18.65625 17.925781 C 18.566406 18.378906 18.515625 18.835938 18.503906 19.296875 Z M 18.867188 18.28125 C 18.882812 18.335938 18.902344 18.390625 18.917969 18.445312 C 18.921875 18.46875 18.929688 18.492188 18.9375 18.515625 C 18.996094 18.402344 19.050781 18.285156 19.105469 18.167969 C 19.027344 18.210938 18.945312 18.25 18.867188 18.28125 Z M 19.671875 20.4375 C 19.667969 20.4375 19.664062 20.433594 19.660156 20.429688 C 19.542969 20.277344 19.445312 20.113281 19.367188 19.941406 C 19.207031 19.605469 19.070312 19.261719 18.957031 18.90625 C 18.929688 18.953125 18.90625 19 18.878906 19.046875 C 18.761719 19.257812 18.636719 19.464844 18.496094 19.660156 C 18.496094 19.855469 18.5 20.046875 18.503906 20.238281 C 18.503906 20.246094 18.503906 20.25 18.503906 20.253906 L 18.769531 20.445312 L 19.363281 20.863281 C 19.464844 20.722656 19.570312 20.582031 19.671875 20.4375 Z M 19.929688 20.089844 C 19.867188 19.808594 19.828125 19.523438 19.808594 19.234375 C 19.769531 18.675781 19.792969 18.117188 19.867188 17.5625 C 19.902344 17.3125 19.949219 17.0625 20.007812 16.816406 C 19.949219 16.84375 19.894531 16.867188 19.839844 16.890625 C 19.808594 16.972656 19.78125 17.050781 19.75 17.132812 C 19.542969 17.695312 19.296875 18.246094 19.023438 18.78125 C 19.089844 18.992188 19.164062 19.203125 19.246094 19.410156 C 19.316406 19.589844 19.390625 19.769531 19.476562 19.941406 C 19.546875 20.089844 19.628906 20.230469 19.730469 20.359375 C 19.78125 20.285156 19.835938 20.214844 19.890625 20.140625 C 19.902344 20.125 19.914062 20.105469 19.929688 20.089844 Z M 20.710938 19.039062 C 20.757812 18.691406 20.828125 18.347656 20.917969 18.007812 C 21.085938 17.394531 21.339844 16.816406 21.679688 16.28125 C 22.023438 15.742188 22.449219 15.28125 22.953125 14.894531 C 22.929688 14.8125 22.90625 14.730469 22.882812 14.648438 L 22.570312 14.769531 L 21.9375 15.011719 C 21.492188 15.761719 20.886719 16.34375 20.121094 16.757812 C 20.113281 16.785156 20.105469 16.8125 20.101562 16.839844 C 19.972656 17.382812 19.902344 17.933594 19.890625 18.492188 C 19.875 18.992188 19.914062 19.492188 20.007812 19.984375 C 20.238281 19.667969 20.476562 19.351562 20.710938 19.039062 Z M 24.039062 15.417969 C 23.726562 15.210938 23.386719 15.058594 23.019531 14.964844 C 22.734375 15.179688 22.476562 15.421875 22.242188 15.691406 C 21.464844 16.582031 21.015625 17.714844 20.832031 18.878906 C 21.230469 18.351562 21.632812 17.828125 22.039062 17.308594 L 21.761719 17.164062 C 21.714844 17.136719 21.714844 17.109375 21.761719 17.078125 L 22.144531 16.902344 L 22.351562 16.808594 C 22.375 16.800781 22.394531 16.792969 22.414062 16.78125 C 22.417969 16.773438 22.425781 16.765625 22.433594 16.757812 C 22.441406 16.746094 22.449219 16.734375 22.457031 16.722656 C 22.617188 16.511719 22.785156 16.304688 22.96875 16.113281 C 23.148438 15.917969 23.347656 15.75 23.566406 15.605469 C 23.710938 15.511719 23.871094 15.449219 24.039062 15.417969 Z M 7.519531 18.179688 C 7.414062 17.648438 7.164062 17.195312 6.777344 16.820312 C 6.730469 16.777344 6.660156 16.847656 6.707031 16.890625 C 7.085938 17.253906 7.324219 17.691406 7.425781 18.203125 C 7.4375 18.265625 7.53125 18.238281 7.519531 18.179688 Z M 11.402344 12.179688 C 11.433594 12.101562 11.441406 12.023438 11.421875 11.9375 C 11.417969 11.90625 11.402344 11.882812 11.371094 11.863281 C 11.332031 11.851562 11.304688 11.863281 11.285156 11.898438 C 11.230469 11.984375 11.285156 12.339844 11.402344 12.179688 Z M 7.53125 19.289062 C 7.476562 20.730469 7.421875 22.175781 7.367188 23.621094 C 7.355469 23.894531 7.34375 24.167969 7.335938 24.441406 C 7.367188 24.472656 7.398438 24.5 7.429688 24.53125 C 7.480469 23.1875 7.53125 21.847656 7.582031 20.503906 C 7.597656 20.097656 7.613281 19.695312 7.628906 19.289062 C 7.632812 19.226562 7.535156 19.226562 7.53125 19.289062 Z M 23.160156 16.394531 C 23.097656 16.398438 23.097656 16.496094 23.160156 16.492188 C 23.417969 16.484375 23.660156 16.542969 23.882812 16.675781 C 24.109375 16.808594 24.277344 16.988281 24.394531 17.21875 C 24.421875 17.277344 24.507812 17.226562 24.480469 17.171875 C 24.355469 16.925781 24.171875 16.730469 23.933594 16.589844 C 23.695312 16.449219 23.4375 16.386719 23.160156 16.394531 Z M 9.949219 12.179688 C 9.984375 12.101562 9.992188 12.023438 9.972656 11.9375 C 9.96875 11.90625 9.949219 11.882812 9.921875 11.863281 C 9.882812 11.851562 9.855469 11.863281 9.835938 11.898438 C 9.78125 11.984375 9.835938 12.339844 9.949219 12.179688 Z M 20.492188 13.925781 C 20.527344 13.875 20.441406 13.824219 20.410156 13.878906 C 20.183594 14.230469 19.726562 14.382812 19.351562 14.171875 C 19.320312 14.15625 19.300781 14.164062 19.285156 14.191406 C 19.269531 14.21875 19.273438 14.238281 19.300781 14.257812 C 19.722656 14.492188 20.238281 14.324219 20.492188 13.925781 Z M 18.570312 12.691406 C 18.632812 12.765625 18.671875 12.679688 18.675781 12.59375 C 18.679688 12.539062 18.667969 12.492188 18.636719 12.449219 C 18.488281 12.324219 18.511719 12.625 18.570312 12.691406 Z M 19.847656 13.511719 C 19.871094 13.488281 19.871094 13.464844 19.847656 13.441406 C 19.824219 13.421875 19.800781 13.421875 19.777344 13.441406 C 19.699219 13.507812 19.609375 13.535156 19.511719 13.53125 C 19.410156 13.527344 19.324219 13.492188 19.25 13.425781 C 19.175781 13.351562 19.144531 13.265625 19.160156 13.160156 C 19.175781 13.050781 19.222656 12.957031 19.304688 12.882812 C 19.351562 12.839844 19.28125 12.769531 19.234375 12.8125 C 19.089844 12.945312 19.011719 13.183594 19.09375 13.367188 C 19.1875 13.554688 19.335938 13.640625 19.546875 13.632812 C 19.660156 13.625 19.757812 13.582031 19.847656 13.511719 Z M 10.667969 13.476562 C 10.738281 13.4375 10.808594 13.386719 10.871094 13.335938 C 10.933594 13.289062 10.988281 13.230469 11.035156 13.167969 C 11.078125 13.101562 11.054688 13.027344 11.039062 12.957031 C 11.015625 12.867188 10.992188 12.773438 10.972656 12.679688 C 10.886719 12.3125 10.8125 11.9375 10.757812 11.5625 C 10.746094 11.503906 10.652344 11.527344 10.664062 11.589844 C 10.714844 11.925781 10.777344 12.257812 10.851562 12.589844 C 10.867188 12.671875 10.886719 12.753906 10.90625 12.832031 C 10.917969 12.871094 10.925781 12.910156 10.9375 12.949219 C 10.953125 12.992188 10.960938 13.039062 10.960938 13.085938 C 10.953125 13.148438 10.867188 13.210938 10.820312 13.253906 C 10.757812 13.304688 10.691406 13.351562 10.617188 13.394531 C 10.59375 13.410156 10.585938 13.433594 10.601562 13.460938 C 10.617188 13.484375 10.640625 13.492188 10.667969 13.476562 Z M 9.921875 13.789062 C 10.261719 13.84375 10.605469 13.867188 10.953125 13.859375 C 10.976562 13.859375 10.992188 13.867188 10.996094 13.890625 C 11.003906 13.90625 11.003906 13.917969 10.996094 13.933594 C 10.871094 14.144531 10.6875 14.246094 10.445312 14.230469 C 10.316406 14.222656 10.199219 14.179688 10.09375 14.109375 C 9.980469 14.050781 9.90625 13.964844 9.859375 13.847656 C 9.847656 13.792969 9.867188 13.773438 9.921875 13.789062 Z M 9.992188 13.898438 C 10.042969 13.960938 10.101562 14.007812 10.171875 14.042969 C 10.257812 14.097656 10.355469 14.128906 10.457031 14.136719 C 10.621094 14.140625 10.753906 14.082031 10.855469 13.960938 C 10.566406 13.960938 10.277344 13.941406 9.992188 13.898438 Z M 18.511719 12.484375 Z M 8.320312 12.261719 L 8.328125 12.269531 C 8.335938 12.273438 8.347656 12.277344 8.355469 12.277344 L 8.359375 12.277344 C 8.394531 12.273438 8.410156 12.257812 8.410156 12.226562 L 8.40625 12.214844 C 8.40625 12.207031 8.402344 12.199219 8.394531 12.191406 L 8.386719 12.183594 C 8.378906 12.179688 8.371094 12.179688 8.359375 12.179688 L 8.355469 12.179688 C 8.324219 12.179688 8.304688 12.195312 8.304688 12.226562 L 8.308594 12.238281 C 8.308594 12.246094 8.3125 12.253906 8.320312 12.261719 Z M 8.320312 12.261719 " fill-opacity="1" fill-rule="nonzero"/></svg>