<svg xmlns="http://www.w3.org/2000/svg" xmlns:xlink="http://www.w3.org/1999/xlink" width="40" zoomAndPan="magnify" viewBox="0 0 30 30.000001" height="40" preserveAspectRatio="xMidYMid meet" version="1.0"><defs><clipPath id="2ff7aa1799"><path d="M 17 3.347656 L 22 3.347656 L 22 7 L 17 7 Z M 17 3.347656 " clip-rule="nonzero"/></clipPath><clipPath id="8491840e6a"><path d="M 8 3.347656 L 13 3.347656 L 13 7 L 8 7 Z M 8 3.347656 " clip-rule="nonzero"/></clipPath><clipPath id="b80ccadb25"><path d="M 3.761719 13 L 15 13 L 15 27 L 3.761719 27 Z M 3.761719 13 " clip-rule="nonzero"/></clipPath><clipPath id="c8cd9a5bfa"><path d="M 9 26 L 15 26 L 15 28.75 L 9 28.75 Z M 9 26 " clip-rule="nonzero"/></clipPath><clipPath id="a94ec3c6a0"><path d="M 15 13 L 26.261719 13 L 26.261719 27 L 15 27 Z M 15 13 " clip-rule="nonzero"/></clipPath><clipPath id="3aad55e78f"><path d="M 15 26 L 21 26 L 21 28.75 L 15 28.75 Z M 15 26 " clip-rule="nonzero"/></clipPath></defs><path fill="#38b6ff" d="M 15.546875 11.089844 C 16.007812 10.820312 16.191406 10.246094 15.960938 9.753906 C 15.488281 8.761719 13.992188 9.097656 13.992188 10.199219 C 13.992188 10.996094 14.859375 11.492188 15.546875 11.089844 " fill-opacity="1" fill-rule="nonzero"/><path fill="#38b6ff" d="M 17.40625 14.046875 L 17.070312 13.113281 C 16.746094 12.1875 16.675781 11.632812 16.058594 11.632812 L 15.761719 11.632812 L 15.761719 11.382812 C 15.339844 11.753906 14.714844 11.757812 14.289062 11.382812 L 14.289062 11.632812 C 13.320312 11.632812 13.484375 11.683594 12.648438 14.046875 C 12.480469 14.511719 13.175781 14.777344 13.363281 14.320312 L 13.90625 13.011719 C 13.90625 16.554688 13.90625 11.398438 13.90625 17.746094 C 13.90625 18.238281 14.644531 18.261719 14.675781 17.769531 L 14.882812 14.796875 L 15.167969 14.796875 L 15.375 17.769531 C 15.40625 18.261719 16.144531 18.238281 16.144531 17.746094 C 16.144531 11.441406 16.144531 15.386719 16.144531 13.011719 L 16.6875 14.320312 C 16.875 14.777344 17.570312 14.511719 17.40625 14.046875 " fill-opacity="1" fill-rule="nonzero"/><g clip-path="url(#2ff7aa1799)"><path fill="#38b6ff" d="M 19.523438 6.546875 C 20.394531 6.546875 21.097656 5.839844 21.097656 4.96875 C 21.097656 4.097656 20.394531 3.390625 19.523438 3.390625 C 18.648438 3.390625 17.945312 4.097656 17.945312 4.96875 C 17.945312 5.839844 18.648438 6.546875 19.523438 6.546875 " fill-opacity="1" fill-rule="nonzero"/></g><path fill="#38b6ff" d="M 23.492188 11.085938 L 22.59375 8.179688 C 22.410156 7.582031 21.855469 7.175781 21.230469 7.175781 L 17.8125 7.175781 C 17.1875 7.175781 16.632812 7.582031 16.445312 8.179688 L 16.007812 9.605469 C 16.359375 10.183594 16.136719 10.9375 15.523438 11.230469 C 15.523438 11.289062 15.527344 11.347656 15.542969 11.402344 C 15.652344 11.335938 15.773438 11.21875 15.875 11.128906 C 15.875 11.171875 15.875 11.476562 15.875 11.519531 C 16.105469 11.519531 16.277344 11.507812 16.5 11.652344 C 16.605469 11.542969 17.703125 9.28125 17.769531 9.148438 L 17.113281 12.882812 L 17.511719 14.007812 C 17.664062 14.4375 17.210938 14.828125 16.808594 14.613281 L 16.761719 14.886719 L 17.8125 14.886719 L 17.8125 17.4375 C 17.8125 18.34375 19.117188 18.351562 19.148438 17.484375 L 19.230469 14.886719 L 19.8125 14.886719 L 19.894531 17.484375 C 19.921875 18.355469 21.230469 18.332031 21.230469 17.460938 L 21.230469 14.886719 L 22.28125 14.886719 L 21.273438 9.148438 L 22.4375 11.507812 C 22.570312 11.773438 22.886719 11.894531 23.164062 11.78125 C 23.4375 11.667969 23.582031 11.367188 23.492188 11.085938 " fill-opacity="1" fill-rule="nonzero"/><g clip-path="url(#8491840e6a)"><path fill="#38b6ff" d="M 10.53125 6.515625 C 11.394531 6.515625 12.09375 5.816406 12.09375 4.953125 C 12.09375 4.09375 11.394531 3.390625 10.53125 3.390625 C 9.667969 3.390625 8.96875 4.09375 8.96875 4.953125 C 8.96875 5.816406 9.667969 6.515625 10.53125 6.515625 " fill-opacity="1" fill-rule="nonzero"/></g><path fill="#38b6ff" d="M 13.382812 11.800781 C 13.585938 11.5625 13.816406 11.519531 14.089844 11.519531 C 14.117188 11.355469 14.128906 11.496094 13.144531 8.03125 C 12.992188 7.488281 12.496094 7.113281 11.933594 7.113281 L 9.128906 7.113281 C 8.5625 7.113281 8.070312 7.488281 7.914062 8.03125 L 6.984375 11.320312 C 6.820312 11.863281 7.628906 12.148438 7.835938 11.585938 L 8.839844 8.851562 C 8.839844 9.175781 8.839844 17.375 8.839844 17.523438 C 8.839844 17.835938 9.074219 18.109375 9.382812 18.128906 C 9.707031 18.152344 9.980469 17.90625 10 17.585938 L 10.292969 13.101562 L 10.769531 13.101562 L 11.058594 17.566406 C 11.109375 18.339844 12.222656 18.289062 12.222656 17.546875 C 12.222656 16.738281 12.222656 9.679688 12.222656 8.851562 C 13.253906 11.671875 13.203125 11.664062 13.382812 11.800781 " fill-opacity="1" fill-rule="nonzero"/><g clip-path="url(#b80ccadb25)"><path fill="#38b6ff" d="M 9.988281 26.425781 L 14.085938 26.425781 L 14.085938 23.980469 C 14.085938 21.664062 12.207031 19.789062 9.894531 19.789062 C 8.875 19.789062 8.59375 19.308594 6.640625 17.40625 C 6.3125 17.089844 5.988281 17.050781 5.59375 17.214844 C 5.273438 17.34375 5.460938 17.5625 7.257812 20.007812 C 7.105469 20.113281 6.898438 20.078125 6.789062 19.925781 L 5.03125 17.511719 C 4.910156 17.34375 4.960938 17.101562 5.144531 17 C 5.574219 16.757812 5.484375 16.894531 5.367188 14.433594 C 5.3125 13.292969 4.324219 12.980469 4.304688 13.148438 C 3.953125 16.414062 3.761719 17.050781 4.117188 18.011719 C 4.359375 18.679688 4.90625 19.515625 5.257812 20.476562 C 5.765625 21.878906 6.675781 22.25 8.652344 23.503906 C 9.484375 24.03125 9.988281 24.945312 9.988281 25.929688 L 9.988281 26.425781 " fill-opacity="1" fill-rule="nonzero"/></g><g clip-path="url(#c8cd9a5bfa)"><path fill="#38b6ff" d="M 13.355469 27.648438 C 13.355469 27.078125 14.214844 27.078125 14.214844 27.648438 C 14.214844 28.214844 13.355469 28.214844 13.355469 27.648438 Z M 14.421875 26.972656 L 9.476562 26.972656 C 9.292969 26.972656 9.144531 27.121094 9.144531 27.304688 L 9.144531 28.605469 C 9.144531 28.789062 9.292969 28.9375 9.476562 28.9375 L 14.421875 28.9375 C 14.605469 28.9375 14.757812 28.789062 14.757812 28.605469 L 14.757812 27.304688 C 14.757812 27.121094 14.605469 26.972656 14.421875 26.972656 " fill-opacity="1" fill-rule="nonzero"/></g><g clip-path="url(#a94ec3c6a0)"><path fill="#38b6ff" d="M 25.683594 13.148438 C 25.667969 12.980469 24.679688 13.292969 24.625 14.433594 C 24.507812 16.890625 24.417969 16.757812 24.847656 17 C 25.03125 17.101562 25.082031 17.34375 24.960938 17.511719 L 23.203125 19.925781 C 23.09375 20.078125 22.886719 20.113281 22.734375 20.007812 C 23.867188 18.46875 24.328125 17.804688 24.5 17.515625 C 24.5625 17.410156 24.523438 17.265625 24.398438 17.214844 C 24.003906 17.050781 23.679688 17.089844 23.351562 17.40625 C 21.476562 19.230469 21.136719 19.789062 20.097656 19.789062 C 17.785156 19.789062 15.90625 21.664062 15.90625 23.980469 L 15.90625 26.425781 L 20.003906 26.425781 L 20.003906 25.929688 C 20.003906 22.871094 23.734375 23.21875 24.734375 20.476562 C 25.085938 19.515625 25.632812 18.679688 25.875 18.011719 C 26.230469 17.050781 26.039062 16.414062 25.683594 13.148438 " fill-opacity="1" fill-rule="nonzero"/></g><g clip-path="url(#3aad55e78f)"><path fill="#38b6ff" d="M 15.777344 27.648438 C 15.777344 27.078125 16.636719 27.078125 16.636719 27.648438 C 16.636719 28.214844 15.777344 28.214844 15.777344 27.648438 Z M 20.515625 26.972656 L 15.570312 26.972656 C 15.382812 26.972656 15.234375 27.121094 15.234375 27.304688 L 15.234375 28.605469 C 15.234375 28.789062 15.382812 28.9375 15.570312 28.9375 L 20.515625 28.9375 C 20.699219 28.9375 20.847656 28.789062 20.847656 28.605469 L 20.847656 27.304688 C 20.847656 27.121094 20.699219 26.972656 20.515625 26.972656 " fill-opacity="1" fill-rule="nonzero"/></g></svg>