<svg xmlns="http://www.w3.org/2000/svg" xmlns:xlink="http://www.w3.org/1999/xlink" width="40" zoomAndPan="magnify" viewBox="0 0 30 30.000001" height="40" preserveAspectRatio="xMidYMid meet" version="1.0"><defs><clipPath id="8ed8b62aea"><path d="M 5 27 L 6 27 L 6 27.886719 L 5 27.886719 Z M 5 27 " clip-rule="nonzero"/></clipPath><clipPath id="397cd6b153"><path d="M 4.230469 7 L 26 7 L 26 27.886719 L 4.230469 27.886719 Z M 4.230469 7 " clip-rule="nonzero"/></clipPath><clipPath id="9b4cffb958"><path d="M 7 1.03125 L 22 1.03125 L 22 21 L 7 21 Z M 7 1.03125 " clip-rule="nonzero"/></clipPath></defs><g clip-path="url(#8ed8b62aea)"><path fill="#ce336f" d="M 5.273438 27.996094 L 5.300781 27.972656 L 5.277344 27.972656 Z M 5.273438 27.996094 " fill-opacity="1" fill-rule="nonzero"/></g><path fill="#329ff3" d="M 6.320312 9.144531 C 6.855469 10.105469 7.394531 11.074219 7.929688 12.035156 L 6.601562 6.855469 C 6.054688 7.246094 5.796875 7.996094 6.089844 8.671875 C 6.160156 8.832031 6.238281 8.992188 6.320312 9.144531 " fill-opacity="1" fill-rule="nonzero"/><g clip-path="url(#397cd6b153)"><path fill="#329ff3" d="M 25.21875 7.917969 C 24.835938 7.492188 24.238281 7.414062 23.761719 7.742188 C 22.359375 8.695312 21.820312 10.113281 21.578125 11.691406 L 22.816406 16.539062 C 23.164062 17.890625 22.34375 19.269531 20.992188 19.617188 L 13.003906 21.660156 C 11.652344 22.007812 10.269531 21.191406 9.925781 19.835938 L 8.339844 13.644531 C 8.023438 13.066406 7.699219 12.492188 7.378906 11.917969 C 6.992188 11.222656 6.234375 10.941406 5.5 11.207031 C 4.65625 11.519531 4.273438 12.480469 4.664062 13.304688 C 4.699219 13.382812 4.742188 13.453125 4.785156 13.523438 C 6.636719 16.859375 8.46875 20.203125 10.347656 23.515625 C 11.117188 24.867188 12.144531 26.015625 13.535156 26.773438 C 14.632812 27.375 15.816406 27.527344 17.046875 27.3125 C 17.804688 27.183594 18.519531 26.929688 19.226562 26.621094 C 19.273438 26.601562 19.316406 26.539062 19.382812 26.597656 C 19.992188 26.253906 20.601562 25.914062 21.21875 25.574219 C 21.402344 25.363281 21.652344 25.234375 21.863281 25.054688 C 23.652344 23.535156 24.671875 21.644531 24.769531 19.265625 C 24.871094 16.90625 25.035156 14.546875 25.144531 12.1875 C 25.179688 11.355469 25.269531 10.554688 25.515625 9.753906 C 25.710938 9.121094 25.71875 8.476562 25.21875 7.917969 " fill-opacity="1" fill-rule="nonzero"/></g><path fill="#329ff3" d="M 13.941406 8.691406 C 14.484375 8.550781 15.042969 8.886719 15.183594 9.425781 C 15.320312 9.972656 14.992188 10.527344 14.445312 10.667969 C 13.898438 10.804688 13.347656 10.480469 13.207031 9.933594 C 13.070312 9.386719 13.398438 8.832031 13.941406 8.691406 Z M 12.886719 11.90625 C 13.394531 12.476562 13.960938 12.988281 14.554688 13.46875 C 14.804688 13.667969 15.050781 13.863281 15.3125 14.050781 C 15.320312 14.035156 15.332031 14.019531 15.335938 14.007812 C 15.699219 13.191406 16.023438 12.359375 16.265625 11.496094 C 16.417969 10.957031 16.539062 10.414062 16.578125 9.851562 C 16.609375 9.339844 16.503906 8.863281 16.230469 8.433594 C 15.949219 7.988281 15.5625 7.664062 15.070312 7.472656 C 14.414062 7.21875 13.761719 7.25 13.136719 7.558594 C 12.589844 7.824219 12.199219 8.25 11.976562 8.820312 C 11.722656 9.46875 11.742188 10.113281 12.054688 10.742188 C 12.265625 11.175781 12.566406 11.550781 12.886719 11.90625 " fill-opacity="1" fill-rule="nonzero"/><g clip-path="url(#9b4cffb958)"><path fill="#0787eb" d="M 16.824219 3.0625 L 20.140625 16.023438 L 11.929688 18.121094 L 8.613281 5.164062 Z M 11.339844 3.398438 L 13.585938 2.824219 C 13.683594 2.800781 13.785156 2.773438 13.824219 2.902344 C 13.863281 3.035156 13.765625 3.0625 13.660156 3.089844 L 11.398438 3.667969 C 11.335938 3.6875 11.269531 3.707031 11.222656 3.675781 C 11.222656 3.675781 11.21875 3.679688 11.21875 3.675781 C 11.195312 3.664062 11.179688 3.644531 11.164062 3.605469 L 11.164062 3.59375 C 11.125 3.453125 11.234375 3.425781 11.339844 3.398438 Z M 16.425781 18.621094 C 16.109375 18.695312 15.796875 18.511719 15.71875 18.191406 C 15.640625 17.886719 15.832031 17.558594 16.144531 17.488281 C 16.457031 17.410156 16.773438 17.605469 16.847656 17.914062 C 16.929688 18.230469 16.738281 18.542969 16.425781 18.621094 Z M 11.335938 19.476562 C 11.480469 20.054688 12.070312 20.398438 12.644531 20.253906 L 20.632812 18.207031 C 21.207031 18.0625 21.554688 17.476562 21.40625 16.898438 L 17.582031 1.957031 C 17.4375 1.378906 16.847656 1.03125 16.273438 1.179688 L 8.285156 3.222656 C 7.710938 3.371094 7.363281 3.957031 7.511719 4.535156 L 11.335938 19.476562 " fill-opacity="1" fill-rule="nonzero"/></g></svg>