<svg xmlns="http://www.w3.org/2000/svg" xmlns:xlink="http://www.w3.org/1999/xlink" width="1000" zoomAndPan="magnify" viewBox="0 0 750 225" height="300" preserveAspectRatio="xMidYMid meet" version="1.0"><defs><filter x="0%" y="0%" width="100%" height="100%" id="bf433beb6a"><feColorMatrix values="0 0 0 0 1 0 0 0 0 1 0 0 0 0 1 0 0 0 1 0" color-interpolation-filters="sRGB"/></filter><mask id="99c02319d8"><g filter="url(#bf433beb6a)"><rect x="-75" width="900" fill="#000000" y="-22.5" height="270" fill-opacity="0.03"/></g></mask><clipPath id="ac9b71ff1c"><path d="M 0 0 L 98 0 L 98 28 L 0 28 Z M 0 0 " clip-rule="nonzero"/></clipPath><clipPath id="6b290caadc"><path d="M 0 0 L 74 0 L 74 11 L 0 11 Z M 0 0 " clip-rule="nonzero"/></clipPath><clipPath id="6910358e2c"><path d="M 691 0 L 750 0 L 750 3 L 691 3 Z M 691 0 " clip-rule="nonzero"/></clipPath><clipPath id="2a75d1e2b4"><path d="M 649 0 L 750 0 L 750 35 L 649 35 Z M 649 0 " clip-rule="nonzero"/></clipPath><clipPath id="4be82bd1e8"><path d="M 737 145 L 750 145 L 750 225 L 737 225 Z M 737 145 " clip-rule="nonzero"/></clipPath><clipPath id="6239ea05fa"><path d="M 670 0 L 750 0 L 750 19 L 670 19 Z M 670 0 " clip-rule="nonzero"/></clipPath><clipPath id="faec6e71c2"><path d="M 422 0 L 621 0 L 621 174 L 422 174 Z M 422 0 " clip-rule="nonzero"/></clipPath><clipPath id="95d89c3c43"><path d="M 403 0 L 646 0 L 646 198 L 403 198 Z M 403 0 " clip-rule="nonzero"/></clipPath><clipPath id="edae7605ef"><path d="M 441 0 L 597 0 L 597 149 L 441 149 Z M 441 0 " clip-rule="nonzero"/></clipPath><clipPath id="ecd6e37bf4"><path d="M 0 0 L 121 0 L 121 46 L 0 46 Z M 0 0 " clip-rule="nonzero"/></clipPath><clipPath id="cd4dae4315"><path d="M 711 129 L 750 129 L 750 225 L 711 225 Z M 711 129 " clip-rule="nonzero"/></clipPath><clipPath id="38bb889161"><path d="M 154 0 L 430 0 L 430 225 L 154 225 Z M 154 0 " clip-rule="nonzero"/></clipPath><clipPath id="b3a370d586"><path d="M 176 4 L 402 4 L 402 225 L 176 225 Z M 176 4 " clip-rule="nonzero"/></clipPath><clipPath id="479ab13aa1"><path d="M 514 212 L 657 212 L 657 225 L 514 225 Z M 514 212 " clip-rule="nonzero"/></clipPath><clipPath id="bc0d9d5fda"><path d="M 198 26 L 375 26 L 375 225 L 198 225 Z M 198 26 " clip-rule="nonzero"/></clipPath><clipPath id="f343d5e353"><path d="M 132 0 L 458 0 L 458 225 L 132 225 Z M 132 0 " clip-rule="nonzero"/></clipPath><clipPath id="42b504eecf"><path d="M 219 47 L 349 47 L 349 225 L 219 225 Z M 219 47 " clip-rule="nonzero"/></clipPath><clipPath id="abde7088d0"><path d="M 489 184 L 684 184 L 684 225 L 489 225 Z M 489 184 " clip-rule="nonzero"/></clipPath><clipPath id="db59555b79"><path d="M 464 156 L 711 156 L 711 225 L 464 225 Z M 464 156 " clip-rule="nonzero"/></clipPath><clipPath id="93111f88ba"><path d="M 440 128 L 738 128 L 738 225 L 440 225 Z M 440 128 " clip-rule="nonzero"/></clipPath><clipPath id="9b067a5b32"><path d="M 0 160 L 52 160 L 52 225 L 0 225 Z M 0 160 " clip-rule="nonzero"/></clipPath><clipPath id="9e48024dbb"><path d="M 685 114 L 750 114 L 750 225 L 685 225 Z M 685 114 " clip-rule="nonzero"/></clipPath><clipPath id="3b4925daca"><path d="M 628 0 L 750 0 L 750 51 L 628 51 Z M 628 0 " clip-rule="nonzero"/></clipPath><clipPath id="2afe7c937f"><path d="M 0 127 L 98 127 L 98 225 L 0 225 Z M 0 127 " clip-rule="nonzero"/></clipPath><clipPath id="489b789a65"><path d="M 631 78 L 750 78 L 750 225 L 631 225 Z M 631 78 " clip-rule="nonzero"/></clipPath><clipPath id="41c4a1f8b5"><path d="M 0 173 L 32 173 L 32 225 L 0 225 Z M 0 173 " clip-rule="nonzero"/></clipPath><clipPath id="0791cb0af9"><path d="M 0 146 L 75 146 L 75 225 L 0 225 Z M 0 146 " clip-rule="nonzero"/></clipPath><clipPath id="1548dc5b94"><path d="M 0 71 L 166 71 L 166 225 L 0 225 Z M 0 71 " clip-rule="nonzero"/></clipPath><clipPath id="732c090b72"><path d="M 0 108 L 120 108 L 120 225 L 0 225 Z M 0 108 " clip-rule="nonzero"/></clipPath><clipPath id="149166752c"><path d="M 0 0 L 143 0 L 143 66 L 0 66 Z M 0 0 " clip-rule="nonzero"/></clipPath><clipPath id="66480df6c2"><path d="M 0 90 L 143 90 L 143 225 L 0 225 Z M 0 90 " clip-rule="nonzero"/></clipPath><clipPath id="e1696995e8"><path d="M 658 98 L 750 98 L 750 225 L 658 225 Z M 658 98 " clip-rule="nonzero"/></clipPath><clipPath id="f328ef75c1"><path d="M 607 0 L 750 0 L 750 67 L 607 67 Z M 607 0 " clip-rule="nonzero"/></clipPath><clipPath id="0f8795da8a"><rect x="0" width="750" y="0" height="225"/></clipPath></defs><g mask="url(#99c02319d8)"><g transform="matrix(1, 0, 0, 1, 0, -0.000000000000008531)"><g clip-path="url(#0f8795da8a)"><g clip-path="url(#ac9b71ff1c)"><path fill="#38b6ff" d="M 82.3125 -86.359375 C 87.765625 -96.097656 94.363281 -107.902344 97.621094 -120.769531 L 95.976562 -120.769531 C 92.726562 -108.226562 86.269531 -96.675781 80.929688 -87.132812 C 76.738281 -79.644531 73.429688 -73.730469 72.6875 -69.289062 C 71.171875 -60.191406 74.082031 -51.585938 77.15625 -42.480469 C 82.726562 -26.003906 88.484375 -8.976562 68.859375 13.542969 C 56.28125 27.988281 40.757812 23.539062 25.746094 19.234375 C 19.921875 17.5625 14.417969 15.984375 9.066406 15.441406 C 5.789062 15.101562 2.875 15.203125 0.15625 15.742188 C -5.96875 16.960938 -11.550781 20.046875 -17.464844 23.308594 C -18.796875 24.042969 -20.160156 24.785156 -21.539062 25.519531 L -21.539062 27.3125 C -19.898438 26.453125 -18.273438 25.566406 -16.699219 24.699219 C -10.898438 21.496094 -5.417969 18.472656 0.464844 17.300781 C 3.027344 16.789062 5.785156 16.699219 8.90625 17.019531 C 14.117188 17.546875 19.554688 19.109375 25.308594 20.757812 C 40.796875 25.199219 56.8125 29.792969 70.054688 14.582031 C 90.277344 -8.617188 84.105469 -26.878906 78.660156 -42.988281 C 75.648438 -51.902344 72.800781 -60.320312 74.253906 -69.03125 C 74.949219 -73.199219 78.363281 -79.296875 82.3125 -86.359375 " fill-opacity="1" fill-rule="nonzero"/></g><g clip-path="url(#6b290caadc)"><path fill="#38b6ff" d="M 60.183594 -85.507812 C 65.5 -94.980469 72.382812 -107.25 73.910156 -120.769531 L 72.320312 -120.769531 C 70.769531 -107.625 63.957031 -95.476562 58.800781 -86.285156 C 55.6875 -80.730469 52.996094 -75.9375 52.21875 -72.335938 C 50.679688 -65.210938 52.332031 -58.363281 54.082031 -51.109375 C 57.304688 -37.765625 60.636719 -23.964844 44.941406 -5.910156 C 34.609375 5.992188 22.566406 3.644531 10.914062 1.371094 C 6.652344 0.539062 2.632812 -0.246094 -1.152344 -0.277344 C -3.519531 -0.300781 -5.636719 -0.015625 -7.601562 0.59375 C -12.003906 1.972656 -16.113281 4.722656 -20.464844 7.628906 C -20.816406 7.863281 -21.179688 8.105469 -21.539062 8.34375 L -21.539062 10.246094 C -20.878906 9.8125 -20.222656 9.378906 -19.582031 8.945312 C -15.328125 6.105469 -11.3125 3.421875 -7.128906 2.109375 C -5.324219 1.546875 -3.382812 1.285156 -1.167969 1.308594 C 2.472656 1.339844 6.425781 2.113281 10.609375 2.925781 C 22.140625 5.171875 35.207031 7.722656 46.136719 -4.871094 C 62.371094 -23.542969 58.789062 -38.386719 55.625 -51.484375 C 53.917969 -58.554688 52.304688 -65.230469 53.769531 -72.003906 C 54.496094 -75.371094 57.132812 -80.070312 60.183594 -85.507812 " fill-opacity="1" fill-rule="nonzero"/></g><g clip-path="url(#6910358e2c)"><path fill="#38b6ff" d="M 727.910156 -96.523438 C 724.664062 -93.5625 721.035156 -90.753906 717.1875 -87.789062 C 704.960938 -78.351562 692.320312 -68.589844 691.347656 -52.824219 C 690.628906 -41.113281 694.667969 -29.664062 703.03125 -19.710938 C 712.507812 -8.429688 730.125 0.679688 744.925781 1.953125 C 746.175781 2.066406 747.40625 2.117188 748.605469 2.117188 C 756.207031 2.117188 762.734375 -0.03125 767.65625 -4.175781 C 769.027344 -5.328125 770.296875 -6.484375 771.523438 -7.59375 C 771.523438 -7.597656 771.527344 -7.597656 771.527344 -7.601562 L 771.527344 -9.738281 C 771.171875 -9.417969 770.820312 -9.097656 770.457031 -8.773438 C 769.238281 -7.664062 767.980469 -6.523438 766.636719 -5.386719 C 761.269531 -0.867188 753.804688 1.128906 745.0625 0.375 C 730.640625 -0.867188 713.476562 -9.746094 704.246094 -20.730469 C 696.144531 -30.367188 692.238281 -41.429688 692.929688 -52.722656 C 693.859375 -67.777344 706.210938 -77.308594 718.160156 -86.53125 C 722.03125 -89.523438 725.6875 -92.347656 728.980469 -95.355469 C 737.800781 -103.417969 743.703125 -111.898438 749.082031 -120.769531 L 747.21875 -120.769531 C 742.039062 -112.300781 736.304688 -104.199219 727.910156 -96.523438 " fill-opacity="1" fill-rule="nonzero"/></g><g clip-path="url(#2a75d1e2b4)"><path fill="#38b6ff" d="M 649.75 -45.367188 C 650.410156 -27.480469 658.449219 -10.335938 672.996094 4.21875 C 689.925781 21.144531 717.597656 34.066406 743.003906 34.066406 C 752.660156 34.0625 761.988281 32.199219 770.269531 27.972656 C 770.695312 27.761719 771.109375 27.535156 771.527344 27.3125 L 771.527344 25.519531 C 770.871094 25.867188 770.214844 26.222656 769.554688 26.5625 C 761.472656 30.679688 752.375 32.5 742.945312 32.5 C 718.011719 32.5 690.785156 19.761719 674.121094 3.097656 C 659.855469 -11.167969 651.980469 -27.945312 651.335938 -45.429688 C 650.464844 -68.902344 668.496094 -83.082031 685.929688 -96.792969 C 692.488281 -101.949219 699.273438 -107.28125 704.746094 -112.949219 C 707.195312 -115.484375 709.492188 -118.101562 711.675781 -120.769531 L 709.617188 -120.769531 C 707.707031 -118.480469 705.710938 -116.230469 703.605469 -114.050781 C 698.203125 -108.460938 691.765625 -103.398438 684.949219 -98.035156 C 667.203125 -84.082031 648.851562 -69.652344 649.75 -45.367188 " fill-opacity="1" fill-rule="nonzero"/></g><g clip-path="url(#4be82bd1e8)"><path fill="#38b6ff" d="M 741.132812 151.890625 C 737.738281 158.492188 737.671875 166.808594 737.910156 172.492188 C 738.542969 187.386719 743.777344 204.089844 753.464844 222.144531 C 759.058594 232.570312 765.210938 242.65625 771.527344 251.789062 L 771.527344 248.984375 C 765.703125 240.410156 760.042969 231.050781 754.859375 221.394531 C 745.289062 203.554688 740.117188 187.078125 739.496094 172.421875 C 739.261719 166.921875 739.320312 158.886719 742.539062 152.613281 C 744.804688 148.207031 749.53125 146.855469 754.757812 146.855469 C 759.953125 146.855469 765.648438 148.191406 769.90625 149.195312 C 770.441406 149.316406 770.984375 149.441406 771.527344 149.558594 L 771.527344 147.9375 C 771.109375 147.839844 770.6875 147.746094 770.269531 147.648438 C 761.269531 145.535156 746.207031 142.003906 741.132812 151.890625 " fill-opacity="1" fill-rule="nonzero"/></g><g clip-path="url(#6239ea05fa)"><path fill="#38b6ff" d="M 670.546875 -49.089844 C 670.535156 -34.285156 676.578125 -19.984375 688.015625 -7.742188 C 697.578125 2.492188 712.066406 11.085938 726.769531 15.246094 C 733.355469 17.109375 739.714844 18.039062 745.660156 18.039062 C 754.527344 18.039062 762.492188 15.980469 768.949219 11.914062 C 769.828125 11.363281 770.683594 10.804688 771.527344 10.246094 L 771.527344 8.34375 C 770.410156 9.085938 769.269531 9.839844 768.105469 10.570312 C 757.699219 17.121094 743.171875 18.238281 727.203125 13.722656 C 712.765625 9.632812 698.550781 1.207031 689.175781 -8.824219 C 678.015625 -20.773438 672.121094 -34.695312 672.132812 -49.082031 C 672.148438 -68.332031 687.3125 -80.175781 701.976562 -91.628906 C 707.359375 -95.839844 712.453125 -99.8125 716.863281 -104.15625 C 722.226562 -109.429688 726.75 -115.03125 730.808594 -120.769531 L 728.886719 -120.769531 C 725.054688 -115.429688 720.800781 -110.257812 715.75 -105.285156 C 711.402344 -101.007812 706.347656 -97.0625 700.996094 -92.878906 C 686.035156 -81.191406 670.5625 -69.105469 670.546875 -49.089844 " fill-opacity="1" fill-rule="nonzero"/></g><g clip-path="url(#faec6e71c2)"><path fill="#38b6ff" d="M 433.929688 37.074219 C 433.054688 35.570312 432.125 34.078125 431.222656 32.632812 C 429.414062 29.730469 427.542969 26.730469 426.125 23.578125 C 419.464844 8.804688 429.015625 1.671875 442.1875 -6.125 C 451.015625 -11.347656 460.398438 -15.390625 470.082031 -18.136719 C 474.363281 -19.351562 478.433594 -19.964844 482.363281 -19.964844 C 490.59375 -19.964844 498.1875 -17.285156 505.65625 -11.84375 C 517.007812 -3.585938 530.40625 3.871094 543.6875 -3.410156 C 545.671875 -4.5 547.519531 -5.824219 549.300781 -7.105469 C 551.847656 -8.9375 554.253906 -10.667969 557.046875 -11.789062 C 564.097656 -14.628906 570.789062 -13.0625 576.925781 -7.132812 C 582.550781 -1.691406 586.507812 6.207031 588.839844 11.882812 C 589.621094 13.769531 590.402344 15.714844 591.15625 17.597656 C 593.800781 24.191406 596.535156 31.015625 600.15625 37.125 C 601.859375 40.019531 603.558594 42.476562 605.355469 44.625 C 606.800781 46.355469 608.367188 47.972656 609.886719 49.539062 C 611.515625 51.21875 613.203125 52.960938 614.683594 54.796875 C 619.328125 60.558594 620.542969 65.875 618.402344 71.054688 C 614.1875 81.234375 604.242188 91.613281 592.445312 98.148438 C 584.070312 102.796875 574.859375 103.722656 565.367188 104.328125 C 564.359375 104.390625 563.351562 104.453125 562.34375 104.511719 C 551.394531 105.167969 540.066406 105.839844 530.050781 111.808594 C 516.085938 120.132812 505.710938 132.707031 495.441406 145.949219 C 494.730469 146.859375 494.011719 147.804688 493.277344 148.761719 L 492.382812 149.929688 C 484.734375 159.90625 477 169.039062 466.503906 171.171875 C 459.347656 172.628906 452.511719 170.171875 448.039062 167.855469 C 435.84375 161.535156 424.476562 147.742188 428.328125 132.398438 C 430.09375 125.402344 432.910156 118.839844 435.632812 112.496094 C 439.472656 103.554688 443.441406 94.308594 444.296875 84.015625 C 445.648438 67.632812 441.96875 50.960938 433.929688 37.074219 Z M 434.171875 111.867188 C 431.425781 118.273438 428.582031 124.894531 426.792969 132.007812 C 422.726562 148.195312 434.574219 162.664062 447.3125 169.265625 C 451.023438 171.1875 456.289062 173.195312 462.089844 173.195312 C 463.636719 173.195312 465.21875 173.054688 466.816406 172.730469 C 477.851562 170.488281 485.804688 161.121094 493.644531 150.890625 L 494.539062 149.726562 C 495.269531 148.769531 495.988281 147.828125 496.695312 146.917969 C 506.867188 133.804688 517.136719 121.355469 530.863281 113.171875 C 540.546875 107.40625 551.671875 106.738281 562.441406 106.097656 C 563.445312 106.035156 564.457031 105.976562 565.464844 105.914062 C 575.144531 105.296875 584.550781 104.34375 593.214844 99.535156 C 602.691406 94.285156 614.675781 84.203125 619.867188 71.660156 C 622.21875 65.976562 620.890625 59.964844 615.917969 53.800781 C 614.394531 51.910156 612.679688 50.140625 611.023438 48.429688 C 609.527344 46.886719 607.980469 45.292969 606.574219 43.605469 C 604.832031 41.523438 603.183594 39.140625 601.523438 36.320312 C 597.960938 30.308594 595.25 23.546875 592.628906 17.007812 C 591.875 15.121094 591.09375 13.171875 590.304688 11.277344 C 586.261719 1.429688 574.867188 -20.671875 556.453125 -13.261719 C 553.484375 -12.066406 550.886719 -10.199219 548.378906 -8.394531 C 546.628906 -7.140625 544.824219 -5.84375 542.925781 -4.804688 C 530.421875 2.058594 517.539062 -5.160156 506.589844 -13.125 C 495.125 -21.476562 483.386719 -23.554688 469.652344 -19.664062 C 459.835938 -16.882812 450.324219 -12.78125 441.378906 -7.488281 C 430.476562 -1.035156 416.90625 6.992188 424.675781 24.226562 C 426.144531 27.476562 428.042969 30.523438 429.878906 33.46875 C 430.769531 34.90625 431.695312 36.386719 432.554688 37.871094 C 440.433594 51.476562 444.042969 67.816406 442.714844 83.886719 C 441.882812 93.917969 438.136719 102.636719 434.171875 111.867188 " fill-opacity="1" fill-rule="nonzero"/></g><g clip-path="url(#95d89c3c43)"><path fill="#38b6ff" d="M 417.90625 33.433594 C 416.789062 31.59375 415.589844 29.761719 414.433594 27.988281 C 412.105469 24.429688 409.699219 20.75 407.867188 16.867188 C 399.230469 -1.429688 410.988281 -10.191406 427.261719 -19.746094 C 438.09375 -26.113281 449.613281 -31.011719 461.503906 -34.3125 C 466.597656 -35.726562 471.453125 -36.4375 476.136719 -36.4375 C 486.4375 -36.4375 495.902344 -32.992188 505.191406 -25.980469 C 514.609375 -18.867188 526.121094 -11.617188 537.90625 -11.617188 C 542.421875 -11.617188 546.980469 -12.679688 551.472656 -15.222656 C 553.894531 -16.59375 556.125 -18.3125 558.292969 -19.972656 C 561.097656 -22.125 563.992188 -24.34375 567.238281 -25.742188 C 572.578125 -28.039062 577.757812 -28.164062 582.636719 -26.101562 C 594.054688 -21.269531 601.363281 -5.859375 604.703125 2.898438 C 605.285156 4.429688 605.863281 5.980469 606.441406 7.523438 C 609.6875 16.203125 613.042969 25.171875 617.984375 33.121094 C 620.039062 36.433594 622.207031 39.324219 624.605469 41.949219 C 626.503906 44.03125 628.585938 45.96875 630.601562 47.847656 C 632.722656 49.824219 634.914062 51.871094 636.863281 54.054688 C 643.03125 60.957031 644.941406 67.691406 642.539062 74.066406 C 636.90625 89.023438 622.761719 101.207031 611.40625 107.617188 C 600.148438 113.964844 587.160156 114.625 574.601562 115.253906 C 561.378906 115.925781 547.699219 116.613281 535.640625 123.800781 C 518.859375 133.789062 506.289062 149.128906 493.828125 165.289062 C 493.03125 166.328125 492.214844 167.398438 491.386719 168.488281 C 483.027344 179.480469 472.621094 193.164062 458.542969 195.800781 C 451.367188 197.140625 443.351562 195.523438 435.96875 191.246094 C 421.105469 182.636719 408.171875 165.988281 412.777344 148.203125 C 414.851562 140.191406 418.097656 132.734375 421.242188 125.519531 C 425.902344 114.832031 430.714844 103.777344 431.636719 90.9375 C 433.078125 70.820312 428.203125 50.398438 417.90625 33.433594 Z M 419.789062 124.886719 C 416.617188 132.160156 413.347656 139.675781 411.242188 147.804688 C 406.429688 166.398438 419.796875 183.710938 435.171875 192.617188 C 441.105469 196.054688 447.445312 197.84375 453.492188 197.84375 C 455.308594 197.84375 457.09375 197.683594 458.832031 197.355469 C 473.511719 194.613281 484.125 180.660156 492.644531 169.449219 C 493.472656 168.359375 494.289062 167.292969 495.085938 166.257812 C 507.449219 150.222656 519.914062 135.011719 536.453125 125.164062 C 548.175781 118.175781 561.648438 117.5 574.679688 116.839844 C 587.425781 116.199219 600.601562 115.535156 612.179688 109 C 623.785156 102.449219 638.242188 89.980469 644.027344 74.628906 C 646.652344 67.652344 644.640625 60.375 638.046875 52.996094 C 636.046875 50.757812 633.828125 48.691406 631.683594 46.6875 C 629.6875 44.832031 627.628906 42.914062 625.773438 40.882812 C 623.441406 38.324219 621.335938 35.511719 619.332031 32.285156 C 614.476562 24.464844 611.144531 15.570312 607.929688 6.96875 C 607.347656 5.417969 606.769531 3.871094 606.179688 2.335938 C 602.753906 -6.660156 595.21875 -22.5 583.253906 -27.5625 C 577.964844 -29.796875 572.363281 -29.679688 566.613281 -27.199219 C 563.183594 -25.722656 560.207031 -23.441406 557.324219 -21.226562 C 555.207031 -19.601562 553.015625 -17.921875 550.691406 -16.601562 C 535.355469 -7.925781 519.570312 -17.113281 506.148438 -27.246094 C 492.207031 -37.769531 477.882812 -40.503906 461.078125 -35.839844 C 449.054688 -32.503906 437.410156 -27.554688 426.457031 -21.117188 C 413.105469 -13.277344 396.492188 -3.519531 406.433594 17.546875 C 408.3125 21.527344 410.75 25.253906 413.105469 28.859375 C 414.257812 30.621094 415.445312 32.441406 416.550781 34.261719 C 426.679688 50.945312 431.472656 71.035156 430.054688 90.824219 C 429.152344 103.394531 424.605469 113.832031 419.789062 124.886719 " fill-opacity="1" fill-rule="nonzero"/></g><g clip-path="url(#edae7605ef)"><path fill="#38b6ff" d="M 449.953125 40.722656 C 449.328125 39.558594 448.664062 38.402344 448.019531 37.28125 C 446.726562 35.039062 445.390625 32.710938 444.382812 30.292969 C 439.699219 19.039062 447.035156 13.535156 457.113281 7.503906 C 463.933594 3.417969 471.183594 0.230469 478.664062 -1.96875 C 482.128906 -2.980469 485.429688 -3.488281 488.609375 -3.488281 C 494.761719 -3.488281 500.480469 -1.578125 506.125 2.296875 C 515 8.375 525.472656 13.847656 535.902344 8.40625 C 537.421875 7.613281 538.863281 6.675781 540.253906 5.773438 C 542.429688 4.355469 544.488281 3.015625 546.84375 2.164062 C 559.902344 -2.554688 568.824219 11.859375 572.980469 20.871094 C 574.023438 23.128906 575.039062 25.460938 576.015625 27.71875 C 577.976562 32.222656 580.003906 36.878906 582.324219 41.128906 C 583.359375 43.019531 584.613281 45.226562 586.097656 47.28125 C 587.0625 48.621094 588.097656 49.882812 589.089844 51.101562 C 590.308594 52.589844 591.457031 53.996094 592.484375 55.511719 C 595.574219 60.09375 596.140625 64.066406 594.265625 68.023438 C 590.554688 75.867188 582.59375 83.78125 573.492188 88.683594 C 566.945312 92.21875 559.699219 93.027344 552.238281 93.601562 C 551.523438 93.65625 550.808594 93.707031 550.101562 93.761719 C 541.410156 94.40625 532.429688 95.066406 524.464844 99.824219 C 513.3125 106.476562 504.808594 116.699219 497.054688 126.597656 C 496.445312 127.375 495.824219 128.179688 495.199219 128.996094 L 494.636719 129.726562 C 489.804688 135.984375 483.179688 144.558594 474.453125 146.554688 C 470.261719 147.511719 465.5625 146.828125 460.089844 144.460938 C 450.097656 140.128906 440.761719 129.558594 443.882812 116.582031 C 445.335938 110.585938 447.730469 104.890625 450.046875 99.382812 C 453.195312 91.898438 456.167969 84.828125 456.953125 77.097656 C 458.21875 64.449219 455.734375 51.527344 449.953125 40.722656 Z M 448.585938 98.769531 C 446.242188 104.332031 443.824219 110.085938 442.34375 116.214844 C 439.003906 130.078125 448.875 141.328125 459.464844 145.914062 C 463.542969 147.683594 467.246094 148.558594 470.660156 148.558594 C 472.089844 148.558594 473.46875 148.40625 474.804688 148.101562 C 484.089844 145.976562 490.910156 137.148438 495.890625 130.695312 L 496.457031 129.960938 C 497.082031 129.152344 497.699219 128.351562 498.300781 127.578125 C 505.964844 117.796875 514.359375 107.699219 525.277344 101.1875 C 532.921875 96.621094 541.714844 95.972656 550.214844 95.347656 C 550.929688 95.289062 551.644531 95.238281 552.359375 95.183594 C 560 94.597656 567.425781 93.761719 574.246094 90.078125 C 583.628906 85.027344 591.851562 76.835938 595.699219 68.703125 C 597.804688 64.25 597.1875 59.644531 593.796875 54.625 C 592.734375 53.046875 591.507812 51.546875 590.320312 50.097656 C 589.335938 48.894531 588.320312 47.652344 587.382812 46.355469 C 585.949219 44.371094 584.726562 42.214844 583.71875 40.371094 C 581.429688 36.183594 579.421875 31.558594 577.472656 27.085938 C 576.488281 24.820312 575.46875 22.476562 574.421875 20.207031 C 570.039062 10.703125 560.550781 -4.476562 546.308594 0.671875 C 543.777344 1.589844 541.546875 3.039062 539.390625 4.441406 C 538.027344 5.324219 536.621094 6.242188 535.171875 7 C 525.488281 12.050781 515.507812 6.800781 507.019531 0.996094 C 498.039062 -5.183594 488.886719 -6.609375 478.21875 -3.488281 C 470.609375 -1.253906 463.234375 1.984375 456.300781 6.144531 C 447.851562 11.199219 437.335938 17.492188 442.921875 30.898438 C 443.96875 33.417969 445.328125 35.785156 446.644531 38.074219 C 447.28125 39.179688 447.941406 40.332031 448.550781 41.472656 C 454.1875 52.003906 456.613281 64.597656 455.375 76.9375 C 454.613281 84.4375 451.6875 91.394531 448.585938 98.769531 " fill-opacity="1" fill-rule="nonzero"/></g><g clip-path="url(#ecd6e37bf4)"><path fill="#38b6ff" d="M 104.425781 -87.246094 C 109.84375 -96.980469 116.199219 -108.414062 120.425781 -120.769531 L 118.738281 -120.769531 C 114.554688 -108.71875 108.339844 -97.546875 103.039062 -88.015625 C 97.914062 -78.796875 93.863281 -71.511719 93.160156 -66.25 C 91.691406 -55.199219 95.859375 -44.855469 100.273438 -33.90625 C 108.175781 -14.292969 116.351562 5.996094 92.777344 32.996094 C 77.988281 49.949219 59.066406 43.472656 40.765625 37.207031 C 33.628906 34.757812 26.246094 32.234375 19.253906 31.160156 C 15.074219 30.511719 11.355469 30.429688 7.878906 30.90625 C 0.171875 31.953125 -7.097656 35.464844 -14.125 38.855469 C -16.542969 40.019531 -19.039062 41.222656 -21.539062 42.320312 L -21.539062 44.054688 C -21.511719 44.042969 -21.484375 44.035156 -21.453125 44.019531 C -18.746094 42.84375 -16.046875 41.542969 -13.4375 40.28125 C -6.199219 36.792969 0.632812 33.496094 8.09375 32.476562 C 11.414062 32.023438 14.984375 32.101562 19.011719 32.726562 C 25.867188 33.78125 33.179688 36.28125 40.25 38.707031 C 50.027344 42.054688 59.976562 45.460938 69.453125 45.460938 C 78.199219 45.460938 86.542969 42.558594 93.976562 34.042969 C 104.796875 21.640625 110.003906 9.433594 109.894531 -3.289062 C 109.800781 -14.507812 105.707031 -24.667969 101.746094 -34.5 C 97.414062 -45.25 93.320312 -55.40625 94.734375 -66.039062 C 95.394531 -71.003906 99.578125 -78.53125 104.425781 -87.246094 " fill-opacity="1" fill-rule="nonzero"/></g><path fill="#38b6ff" d="M 494.804688 56.664062 C 498.761719 50.800781 503.9375 44.699219 512.292969 43.914062 C 518.824219 43.304688 527.714844 47.777344 528.691406 52.175781 C 529.402344 55.371094 525.589844 57.457031 522.265625 58.640625 C 520.761719 59.179688 519.164062 59.597656 517.625 60 C 515.988281 60.425781 514.300781 60.871094 512.671875 61.460938 C 508.363281 63.035156 504.46875 65.671875 501.414062 69.085938 C 501.050781 69.492188 500.699219 69.90625 500.347656 70.328125 C 498.933594 71.992188 497.605469 73.5625 495.78125 74.335938 C 493.488281 75.300781 491.9375 75.308594 491.15625 74.359375 C 488.589844 71.246094 493.140625 59.125 494.804688 56.664062 Z M 492.847656 76.652344 C 493.859375 76.652344 495.039062 76.367188 496.394531 75.796875 C 498.574219 74.875 500.089844 73.085938 501.558594 71.351562 C 501.902344 70.945312 502.246094 70.539062 502.59375 70.144531 C 505.476562 66.921875 509.148438 64.433594 513.214844 62.953125 C 514.777344 62.386719 516.425781 61.953125 518.027344 61.53125 C 519.601562 61.125 521.230469 60.695312 522.800781 60.136719 C 529.910156 57.597656 530.769531 54.214844 530.238281 51.828125 C 528.984375 46.179688 518.980469 41.691406 512.148438 42.335938 C 503.125 43.183594 497.652344 49.609375 493.488281 55.78125 C 492.042969 57.917969 486.46875 71.160156 489.929688 75.367188 C 490.636719 76.222656 491.609375 76.652344 492.847656 76.652344 " fill-opacity="1" fill-rule="nonzero"/><path fill="#38b6ff" d="M 474.996094 84.945312 C 475.863281 80.601562 477.636719 76.132812 479.207031 72.191406 C 480.496094 68.949219 481.71875 65.878906 482.261719 63.316406 C 483.347656 58.210938 483.269531 52.820312 482.042969 48.144531 C 481.925781 47.6875 481.796875 47.234375 481.671875 46.78125 C 481.386719 45.78125 481.125 44.839844 480.929688 43.835938 C 480.089844 39.558594 483.171875 37.191406 486.984375 34.75 C 489.835938 32.914062 492.820312 31.4375 495.859375 30.367188 C 497.769531 29.691406 499.574219 29.355469 501.332031 29.355469 C 503.308594 29.355469 505.226562 29.785156 507.160156 30.628906 C 511.25 32.433594 515.675781 33.851562 520.28125 32.054688 L 520.882812 31.820312 C 522.710938 31.097656 524.445312 30.421875 526.363281 30.089844 C 532.730469 28.996094 538.011719 34.289062 541.316406 38.921875 C 543.617188 42.148438 545.457031 45.652344 546.636719 49.054688 C 547 50.105469 547.234375 51.148438 547.457031 52.160156 L 547.511719 52.394531 C 547.867188 53.960938 548.027344 55.269531 548.035156 56.621094 C 548.042969 58.144531 547.8125 59.835938 546.078125 61.867188 C 543.398438 65.019531 539.484375 67.960938 535.609375 69.734375 C 532.503906 71.152344 529.171875 71.660156 525.945312 72.152344 L 525.839844 72.167969 C 521.605469 72.816406 517.226562 73.484375 513.289062 75.847656 C 507.964844 79.042969 503.730469 83.734375 500.285156 87.902344 C 499.910156 88.363281 499.527344 88.839844 499.140625 89.316406 L 498.96875 89.527344 C 496.523438 92.570312 493.75 96.019531 490.285156 97.335938 C 488.699219 97.9375 486.371094 98.492188 484.261719 97.699219 C 476.269531 94.6875 473.757812 91.230469 474.996094 84.945312 Z M 483.703125 99.179688 C 484.648438 99.535156 485.613281 99.675781 486.546875 99.675781 C 488.160156 99.675781 489.683594 99.257812 490.851562 98.816406 C 494.71875 97.347656 497.636719 93.71875 500.207031 90.519531 L 500.375 90.3125 C 500.757812 89.839844 501.136719 89.367188 501.511719 88.914062 C 504.867188 84.847656 508.988281 80.28125 514.105469 77.207031 C 517.773438 75.003906 521.8125 74.386719 526.082031 73.734375 L 526.179688 73.71875 C 529.359375 73.238281 532.960938 72.6875 536.273438 71.171875 C 540.34375 69.3125 544.464844 66.214844 547.289062 62.894531 C 549.359375 60.460938 549.628906 58.351562 549.621094 56.609375 C 549.613281 55.140625 549.4375 53.734375 549.058594 52.042969 L 549.007812 51.808594 C 548.769531 50.757812 548.527344 49.667969 548.132812 48.535156 C 546.90625 44.992188 544.996094 41.347656 542.605469 38.003906 C 537.488281 30.824219 531.78125 27.550781 526.09375 28.53125 C 524.015625 28.886719 522.128906 29.628906 520.300781 30.34375 L 519.707031 30.578125 C 515.636719 32.164062 511.582031 30.839844 507.796875 29.179688 C 503.804688 27.421875 499.722656 27.320312 495.332031 28.871094 C 492.175781 29.980469 489.078125 31.511719 486.125 33.417969 C 481.980469 36.070312 478.347656 38.890625 479.375 44.140625 C 479.582031 45.203125 479.867188 46.222656 480.144531 47.210938 C 480.265625 47.652344 480.390625 48.097656 480.507812 48.550781 C 481.675781 52.988281 481.746094 58.117188 480.710938 62.988281 C 480.195312 65.417969 478.996094 68.425781 477.734375 71.605469 C 476.136719 75.609375 474.335938 80.152344 473.4375 84.640625 C 471.722656 93.375 477.355469 96.789062 483.703125 99.179688 " fill-opacity="1" fill-rule="nonzero"/><path fill="#38b6ff" d="M 459.441406 100.769531 C 460.585938 95.695312 462.589844 90.804688 464.527344 86.074219 C 466.785156 80.5625 468.917969 75.355469 469.609375 70.1875 C 470.789062 61.28125 469.5 52.125 465.988281 44.394531 C 465.613281 43.574219 465.214844 42.757812 464.828125 41.972656 C 464.050781 40.378906 463.25 38.730469 462.648438 37.027344 C 459.910156 29.289062 465.046875 25.40625 472.042969 21.128906 C 476.863281 18.179688 481.980469 15.847656 487.253906 14.203125 C 489.914062 13.382812 492.441406 12.964844 494.882812 12.964844 C 498.960938 12.964844 502.792969 14.121094 506.613281 16.453125 C 512.992188 20.347656 520.53125 23.84375 528.109375 20.226562 C 529.113281 19.746094 530.082031 19.210938 531.023438 18.695312 C 532.886719 17.675781 534.644531 16.714844 536.628906 16.125 C 545.910156 13.378906 552.902344 22.089844 557.132812 29.878906 C 559.085938 33.464844 560.8125 37.210938 562.488281 40.824219 C 563.164062 42.28125 563.824219 43.714844 564.488281 45.113281 C 564.683594 45.523438 564.878906 45.941406 565.070312 46.347656 C 565.652344 47.589844 566.203125 48.769531 566.816406 49.898438 C 567.253906 50.699219 567.699219 51.46875 568.128906 52.207031 C 568.914062 53.554688 569.652344 54.832031 570.265625 56.171875 C 571.796875 59.5625 571.765625 62.195312 570.148438 64.976562 C 566.949219 70.472656 560.96875 75.925781 554.539062 79.210938 C 549.824219 81.640625 544.757812 82.308594 539.101562 82.875 L 537.890625 82.992188 C 531.457031 83.632812 524.808594 84.289062 518.878906 87.835938 C 510.527344 92.828125 504.066406 100.480469 498.667969 107.257812 C 498.144531 107.914062 497.609375 108.59375 497.070312 109.289062 L 496.886719 109.523438 C 493.140625 114.3125 488.480469 120.265625 482.386719 121.9375 C 478.949219 122.878906 475.417969 122.070312 472.113281 121.058594 C 462.472656 118.089844 457.378906 109.9375 459.441406 100.769531 Z M 471.644531 122.570312 C 474.050781 123.308594 476.574219 123.941406 479.148438 123.941406 C 480.359375 123.941406 481.582031 123.800781 482.808594 123.46875 C 489.40625 121.660156 494.246094 115.472656 498.132812 110.5 L 498.320312 110.261719 C 498.859375 109.574219 499.386719 108.898438 499.910156 108.246094 C 505.21875 101.574219 511.566406 94.050781 519.6875 89.195312 C 525.316406 85.832031 531.789062 85.195312 538.050781 84.574219 L 539.257812 84.453125 C 544.867188 83.890625 550.308594 83.175781 555.265625 80.621094 C 562.046875 77.15625 568.121094 71.605469 571.519531 65.773438 C 573.933594 61.632812 572.886719 58.117188 571.707031 55.519531 C 571.066406 54.101562 570.308594 52.796875 569.503906 51.410156 C 569.078125 50.679688 568.636719 49.921875 568.210938 49.136719 C 567.617188 48.050781 567.074219 46.894531 566.503906 45.675781 C 566.3125 45.261719 566.117188 44.847656 565.921875 44.429688 C 565.257812 43.042969 564.597656 41.609375 563.925781 40.160156 C 562.242188 36.519531 560.5 32.757812 558.527344 29.121094 C 552.058594 17.210938 544.328125 12.195312 536.179688 14.601562 C 534.03125 15.238281 532.113281 16.289062 530.261719 17.304688 C 529.339844 17.8125 528.386719 18.335938 527.421875 18.796875 C 520.53125 22.085938 513.453125 18.773438 507.4375 15.097656 C 500.917969 11.117188 494.355469 10.347656 486.785156 12.6875 C 481.386719 14.371094 476.144531 16.757812 471.21875 19.777344 C 463.863281 24.269531 458.027344 28.707031 461.152344 37.558594 C 461.785156 39.34375 462.609375 41.03125 463.40625 42.664062 C 463.789062 43.445312 464.179688 44.253906 464.542969 45.054688 C 467.933594 52.511719 469.179688 61.367188 468.039062 69.980469 C 467.371094 74.941406 465.277344 80.058594 463.0625 85.472656 C 461.097656 90.261719 459.066406 95.21875 457.890625 100.421875 C 455.671875 110.289062 461.332031 119.398438 471.644531 122.570312 " fill-opacity="1" fill-rule="nonzero"/><g clip-path="url(#cd4dae4315)"><path fill="#38b6ff" d="M 754.003906 132.59375 L 753.265625 132.449219 C 740.078125 129.851562 720.152344 125.929688 714.34375 140.609375 C 710.625 150.015625 711.40625 161.46875 712.660156 171.429688 C 715.378906 193.058594 723.601562 216.066406 737.109375 239.796875 C 746.980469 257.148438 757.023438 271.519531 766.960938 282.519531 C 768.476562 284.195312 769.996094 285.804688 771.527344 287.351562 L 771.527344 285.082031 C 770.394531 283.910156 769.261719 282.699219 768.132812 281.457031 C 758.273438 270.546875 748.304688 256.261719 738.488281 239.015625 C 725.085938 215.464844 716.925781 192.65625 714.234375 171.230469 C 713.003906 161.46875 712.230469 150.265625 715.820312 141.191406 C 718.785156 133.695312 726.050781 131.546875 734.089844 131.546875 C 740.476562 131.546875 747.351562 132.902344 752.960938 134.003906 L 753.699219 134.152344 C 760.046875 135.394531 765.765625 136.160156 771.527344 135.875 L 771.527344 134.285156 C 765.886719 134.574219 760.261719 133.820312 754.003906 132.59375 " fill-opacity="1" fill-rule="nonzero"/></g><g clip-path="url(#38bb889161)"><path fill="#38b6ff" d="M 404.46875 277.882812 C 378.582031 294.082031 346.550781 299.824219 324.242188 301.78125 C 320.066406 302.132812 315.742188 302.40625 311.382812 302.597656 C 283.464844 303.902344 268.875 304.425781 242.5625 301.984375 C 218.207031 299.722656 202.183594 293.027344 193.574219 281.515625 C 181.480469 265.339844 185.027344 240.996094 190.496094 213.183594 C 190.917969 211.070312 191.351562 208.941406 191.789062 206.796875 C 200.722656 162.832031 210.851562 113.003906 164.0625 77.480469 C 162.472656 76.273438 160.796875 75.066406 159.089844 73.902344 C 153.136719 69.832031 157.871094 62.679688 163.351562 54.394531 C 168.777344 46.199219 174.386719 37.726562 170.742188 30.472656 L 170.082031 29.167969 C 167.246094 23.5625 164.316406 17.761719 163.886719 11.597656 C 162.558594 -7.328125 190.148438 -11.367188 206.632812 -13.78125 C 208.617188 -14.070312 210.492188 -14.34375 212.132812 -14.617188 C 220.863281 -16.042969 229.761719 -16.75 238.765625 -16.75 C 247.832031 -16.75 257.007812 -16.027344 266.222656 -14.585938 C 288.609375 -11.070312 311.597656 -2.828125 330.941406 8.609375 C 368.121094 30.789062 388.980469 62.148438 389.667969 96.914062 C 389.886719 108.257812 384.460938 119.433594 379.210938 130.242188 C 372.851562 143.34375 366.277344 156.894531 369.5 171.035156 C 372.835938 185.664062 385.035156 192.917969 396.828125 199.933594 C 404.449219 204.464844 412.328125 209.152344 417.742188 215.78125 C 421.828125 220.789062 424.699219 225.976562 426.269531 231.199219 C 431.351562 248.089844 422.792969 266.414062 404.46875 277.882812 Z M 418.96875 214.777344 C 413.382812 207.929688 405.378906 203.171875 397.640625 198.566406 C 385.601562 191.410156 374.230469 184.648438 371.046875 170.683594 C 367.945312 157.085938 374.398438 143.792969 380.636719 130.9375 C 385.96875 119.957031 391.480469 108.609375 391.253906 96.886719 C 390.878906 78.113281 384.9375 60.496094 373.589844 44.535156 C 363.484375 30.324219 349.410156 17.777344 331.75 7.242188 C 312.234375 -4.296875 289.050781 -12.601562 266.46875 -16.152344 C 247.9375 -19.054688 229.570312 -19.066406 211.875 -16.179688 C 210.246094 -15.910156 208.378906 -15.636719 206.40625 -15.347656 C 189.375 -12.855469 160.875 -8.683594 162.304688 11.707031 C 162.753906 18.191406 165.761719 24.136719 168.664062 29.882812 L 169.324219 31.1875 C 172.558594 37.613281 167.207031 45.699219 162.03125 53.519531 C 156.332031 62.128906 150.949219 70.261719 158.191406 75.210938 C 159.882812 76.359375 161.53125 77.546875 163.101562 78.742188 C 209.097656 113.664062 199.078125 162.972656 190.234375 206.476562 C 189.796875 208.628906 189.367188 210.753906 188.941406 212.875 C 183.394531 241.066406 179.820312 265.765625 192.304688 282.460938 C 201.195312 294.351562 217.589844 301.257812 242.414062 303.5625 C 255.800781 304.800781 266.160156 305.28125 276.765625 305.28125 C 287.089844 305.28125 297.648438 304.832031 311.457031 304.183594 C 315.832031 303.988281 320.175781 303.714844 324.375 303.363281 C 346.863281 301.382812 379.152344 295.59375 405.308594 279.230469 C 424.257812 267.367188 433.082031 248.335938 427.789062 230.742188 C 426.160156 225.320312 423.1875 219.949219 418.96875 214.777344 " fill-opacity="1" fill-rule="nonzero"/></g><g clip-path="url(#b3a370d586)"><path fill="#38b6ff" d="M 381.128906 262.511719 C 362 273.007812 337.824219 279.515625 313.054688 280.84375 C 309.253906 281.046875 305.472656 281.101562 302.277344 281.132812 C 278.644531 281.351562 266.460938 280.628906 245.59375 277.777344 C 226.28125 275.136719 213.535156 269.078125 206.636719 259.257812 C 196.539062 244.882812 199.84375 224.363281 204.832031 200.980469 C 205.320312 198.6875 205.828125 196.375 206.335938 194.042969 C 214.320312 157.46875 223.371094 116.007812 185.027344 85.753906 C 183.703125 84.703125 182.308594 83.652344 180.882812 82.636719 C 175.929688 79.097656 179.503906 73.085938 183.644531 66.117188 C 187.523438 59.589844 191.921875 52.195312 188.816406 46.042969 L 188.5 45.410156 C 186.019531 40.503906 183.457031 35.433594 183.105469 30.097656 C 182.035156 14.199219 205.101562 10.550781 218.882812 8.375 C 220.328125 8.148438 221.675781 7.933594 222.894531 7.722656 C 230.15625 6.46875 237.605469 5.847656 245.191406 5.847656 C 252.6875 5.847656 260.320312 6.460938 268.035156 7.679688 C 287.128906 10.722656 306.433594 17.917969 322.390625 27.933594 C 352.871094 47.066406 369.765625 73.90625 369.960938 103.5 C 370.011719 113.15625 365.484375 122.691406 361.101562 131.914062 C 355.863281 142.945312 350.445312 154.347656 352.632812 166.253906 C 355.070312 179.496094 364.359375 186.515625 374.195312 193.945312 C 379.878906 198.234375 385.757812 202.675781 390.21875 208.441406 C 393.816406 213.105469 396.464844 217.703125 398.078125 222.113281 C 403.914062 238.09375 397.421875 253.574219 381.128906 262.511719 Z M 391.472656 207.472656 C 386.882812 201.535156 380.917969 197.03125 375.152344 192.679688 C 365.570312 185.441406 356.515625 178.605469 354.191406 165.964844 C 352.097656 154.566406 357.402344 143.398438 362.535156 132.59375 C 366.992188 123.210938 371.597656 113.511719 371.546875 103.492188 C 371.441406 87.566406 366.765625 72.578125 357.648438 58.9375 C 349.429688 46.652344 337.851562 35.765625 323.238281 26.589844 C 307.097656 16.460938 287.582031 9.191406 268.285156 6.113281 C 252.59375 3.628906 237.230469 3.644531 222.625 6.160156 C 221.414062 6.367188 220.070312 6.582031 218.636719 6.808594 C 204.320312 9.070312 180.355469 12.859375 181.523438 30.203125 C 181.898438 35.855469 184.535156 41.074219 187.082031 46.125 L 187.402344 46.753906 C 190.109375 52.132812 186.128906 58.828125 182.28125 65.308594 C 178.121094 72.308594 173.820312 79.542969 179.960938 83.929688 C 181.367188 84.929688 182.742188 85.960938 184.042969 87 C 221.609375 116.640625 212.671875 157.582031 204.785156 193.703125 C 204.277344 196.039062 203.769531 198.351562 203.28125 200.648438 C 198.402344 223.527344 194.886719 245.289062 205.339844 260.167969 C 212.507812 270.371094 225.605469 276.644531 245.378906 279.347656 C 264.066406 281.902344 275.8125 282.753906 294.957031 282.753906 C 297.285156 282.753906 299.722656 282.742188 302.292969 282.71875 C 305.507812 282.6875 309.308594 282.632812 313.140625 282.425781 C 338.140625 281.089844 362.558594 274.511719 381.894531 263.898438 C 398.921875 254.5625 405.691406 238.339844 399.5625 221.570312 C 397.898438 217.003906 395.175781 212.261719 391.472656 207.472656 " fill-opacity="1" fill-rule="nonzero"/></g><g clip-path="url(#479ab13aa1)"><path fill="#38b6ff" d="M 518.832031 304.179688 L 519.207031 303.382812 C 520.195312 301.242188 521.257812 299.128906 522.285156 297.082031 C 525.089844 291.484375 527.996094 285.691406 529.605469 279.070312 C 530.066406 277.167969 530.492188 275.109375 530.902344 272.789062 C 531.386719 270.039062 531.800781 267.238281 532.199219 264.53125 C 532.617188 261.6875 533.054688 258.742188 533.566406 255.910156 C 534.492188 250.648438 535.839844 246.214844 537.679688 242.359375 C 544.597656 227.996094 555.667969 217.820312 568.046875 214.453125 C 569.652344 214.011719 571.214844 213.808594 572.734375 213.808594 C 583.785156 213.808594 592.300781 224.726562 596.871094 235.964844 C 600.324219 244.453125 602.628906 253.976562 604.855469 263.179688 C 606.640625 270.574219 608.488281 278.214844 610.949219 285.472656 C 613.113281 291.851562 615.292969 297.09375 617.621094 301.511719 C 626.039062 317.519531 636.964844 326.808594 644.941406 333.59375 C 652.808594 340.285156 656.476562 343.691406 653.933594 347.941406 C 650.921875 352.972656 647.003906 359.964844 643.398438 369.453125 C 642.894531 370.769531 642.445312 372.03125 642.015625 373.253906 C 639.671875 379.902344 637.984375 384.703125 630.871094 387.066406 C 612.011719 393.332031 601.851562 379.300781 590.09375 363.058594 C 575.398438 342.753906 555.015625 335.023438 537.019531 330.136719 C 528.960938 327.949219 519.347656 323.417969 516.550781 317.25 C 514.660156 313.09375 516.972656 308.148438 518.832031 304.179688 Z M 536.605469 331.667969 C 554.335938 336.480469 574.402344 344.082031 588.808594 363.984375 C 598.875 377.886719 607.796875 390.214844 621.953125 390.214844 C 624.855469 390.214844 627.976562 389.699219 631.367188 388.574219 C 639.21875 385.964844 641.117188 380.589844 643.511719 373.777344 C 643.9375 372.570312 644.378906 371.316406 644.875 370.019531 C 648.445312 360.640625 652.320312 353.730469 655.292969 348.757812 C 658.636719 343.164062 653.601562 338.871094 645.96875 332.382812 C 638.089844 325.683594 627.300781 316.507812 619.019531 300.773438 C 616.738281 296.433594 614.585938 291.261719 612.449219 284.964844 C 610.015625 277.773438 608.175781 270.164062 606.394531 262.804688 C 604.15625 253.546875 601.839844 243.964844 598.34375 235.367188 C 592.890625 221.957031 581.957031 209.019531 567.632812 212.921875 C 554.808594 216.410156 543.367188 226.890625 536.253906 241.675781 C 534.34375 245.664062 532.957031 250.230469 532 255.632812 C 531.484375 258.488281 531.050781 261.441406 530.628906 264.300781 C 530.234375 266.996094 529.820312 269.785156 529.339844 272.511719 C 528.933594 274.800781 528.515625 276.828125 528.070312 278.699219 C 526.5 285.140625 523.761719 290.597656 520.863281 296.371094 C 519.832031 298.429688 518.765625 300.554688 517.765625 302.714844 L 517.398438 303.503906 C 515.398438 307.773438 512.914062 313.082031 515.105469 317.90625 C 518.917969 326.292969 532.523438 330.558594 536.605469 331.667969 " fill-opacity="1" fill-rule="nonzero"/></g><g clip-path="url(#bc0d9d5fda)"><path fill="#38b6ff" d="M 357.59375 246.492188 C 340.691406 254.316406 320.824219 258.847656 301.664062 259.257812 C 299.164062 259.3125 296.632812 259.191406 294.1875 259.078125 L 292.976562 259.023438 C 274.484375 258.199219 264.5 256.269531 248.4375 252.933594 C 234.148438 249.964844 224.683594 244.574219 219.503906 236.449219 C 211.480469 223.859375 214.835938 205.679688 218.957031 188.140625 C 219.5 185.835938 220.066406 183.511719 220.632812 181.164062 C 227.753906 151.828125 235.828125 118.578125 205.792969 93.382812 C 204.683594 92.449219 203.566406 91.5625 202.46875 90.738281 C 198.496094 87.714844 200.914062 82.828125 203.710938 77.171875 C 206.300781 71.933594 209.234375 66.003906 206.683594 60.960938 C 204.574219 56.792969 202.394531 52.488281 202.117188 47.949219 C 201.304688 35.074219 219.859375 31.8125 230.945312 29.863281 C 231.828125 29.707031 232.667969 29.558594 233.453125 29.417969 C 239.28125 28.347656 245.300781 27.8125 251.464844 27.8125 C 257.402344 27.8125 263.472656 28.308594 269.640625 29.296875 C 285.320312 31.851562 300.945312 38 313.625 46.609375 C 330.457031 58.042969 350.4375 78.21875 350.046875 109.4375 C 349.925781 117.421875 346.28125 125.328125 342.757812 132.976562 C 338.632812 141.929688 334.367188 151.183594 335.554688 160.808594 C 337.074219 173.105469 344.242188 180.488281 351.828125 188.304688 C 355.453125 192.039062 359.199219 195.898438 362.480469 200.453125 C 365.765625 205.019531 368.050781 208.8125 369.679688 212.398438 C 373.671875 221.191406 377.410156 237.320312 357.59375 246.492188 Z M 363.765625 199.527344 C 360.417969 194.878906 356.628906 190.976562 352.96875 187.203125 C 345.570312 179.582031 338.582031 172.382812 337.128906 160.613281 C 335.996094 151.4375 340.167969 142.390625 344.199219 133.640625 C 347.789062 125.84375 351.507812 117.777344 351.632812 109.457031 C 351.796875 96.382812 348.382812 84.03125 341.488281 72.738281 C 335.175781 62.398438 326.097656 53.167969 314.515625 45.300781 C 301.648438 36.558594 285.800781 30.324219 269.890625 27.738281 C 257.144531 25.683594 244.785156 25.722656 233.164062 27.855469 C 232.386719 28 231.550781 28.144531 230.671875 28.300781 C 219.0625 30.339844 199.632812 33.757812 200.535156 48.046875 C 200.828125 52.914062 203.089844 57.367188 205.269531 61.679688 C 207.460938 66.011719 204.832031 71.328125 202.289062 76.464844 C 199.441406 82.226562 196.496094 88.183594 201.511719 92 C 202.589844 92.8125 203.683594 93.683594 204.773438 94.597656 C 234.054688 119.160156 226.449219 150.492188 219.09375 180.789062 C 218.523438 183.136719 217.957031 185.46875 217.414062 187.777344 C 213.210938 205.644531 209.8125 224.1875 218.167969 237.300781 C 223.589844 245.800781 233.382812 251.425781 248.117188 254.484375 C 264.253906 257.839844 274.292969 259.777344 292.90625 260.609375 L 294.113281 260.664062 C 296.160156 260.757812 298.265625 260.859375 300.375 260.859375 C 300.816406 260.859375 301.257812 260.855469 301.695312 260.84375 C 321.074219 260.429688 341.164062 255.847656 358.261719 247.929688 C 380.105469 237.820312 374.53125 219.253906 371.125 211.742188 C 369.453125 208.0625 367.113281 204.175781 363.765625 199.527344 " fill-opacity="1" fill-rule="nonzero"/></g><g clip-path="url(#f343d5e353)"><path fill="#38b6ff" d="M 335.316406 322.328125 C 330.472656 322.855469 325.453125 323.308594 320.386719 323.667969 C 316.515625 323.941406 312.867188 324.210938 309.378906 324.464844 C 284.109375 326.328125 267.417969 327.558594 239.425781 325.796875 C 209.921875 323.929688 190.566406 316.566406 180.253906 303.28125 C 164.921875 283.527344 170.648438 253.390625 177.277344 218.496094 C 182.363281 191.722656 187.621094 164.039062 184.0625 137.289062 C 179.988281 106.648438 164.652344 82.929688 137.183594 64.769531 C 135.457031 63.625 134.464844 62.261719 134.15625 60.601562 C 133.273438 55.867188 137.96875 49.261719 142.9375 42.265625 C 149.722656 32.71875 156.734375 22.851562 152.550781 14.511719 C 152.226562 13.871094 151.90625 13.226562 151.578125 12.585938 C 148.371094 6.257812 145.058594 -0.285156 144.554688 -7.292969 C 142.960938 -29.359375 175.25 -33.761719 194.542969 -36.390625 C 196.976562 -36.722656 199.273438 -37.039062 201.257812 -37.351562 C 211.378906 -38.960938 221.679688 -39.765625 232.097656 -39.765625 C 242.738281 -39.765625 253.496094 -38.925781 264.292969 -37.246094 C 334.796875 -26.289062 407.230469 20.914062 409.257812 89.933594 C 409.644531 102.96875 403.3125 115.796875 397.1875 128.210938 C 389.710938 143.371094 381.972656 159.054688 386.253906 175.417969 C 390.484375 191.585938 405.257812 198.835938 419.546875 205.855469 C 429.046875 210.519531 438.867188 215.34375 445.148438 222.71875 C 453.183594 232.148438 456.542969 242.46875 455.128906 253.398438 C 453.292969 267.613281 443.292969 281.992188 427.699219 292.859375 C 405.808594 308.101562 374.726562 318.019531 335.316406 322.328125 Z M 456.703125 253.601562 C 458.175781 242.214844 454.691406 231.476562 446.359375 221.6875 C 439.863281 214.066406 429.890625 209.167969 420.242188 204.429688 C 406.277344 197.570312 391.835938 190.476562 387.789062 175.011719 C 383.65625 159.226562 391.261719 143.8125 398.613281 128.910156 C 404.820312 116.328125 411.238281 103.316406 410.84375 89.882812 C 409.855469 56.148438 392.675781 25.550781 361.175781 1.402344 C 334.976562 -18.683594 299.753906 -33.339844 264.535156 -38.8125 C 243.003906 -42.160156 221.632812 -42.195312 201.007812 -38.917969 C 199.042969 -38.609375 196.753906 -38.296875 194.328125 -37.964844 C 174.484375 -35.257812 141.269531 -30.726562 142.96875 -7.179688 C 143.5 0.144531 146.886719 6.835938 150.164062 13.300781 C 150.488281 13.941406 150.8125 14.582031 151.132812 15.222656 C 154.890625 22.707031 148.15625 32.1875 141.644531 41.34375 C 136.476562 48.621094 131.589844 55.496094 132.597656 60.894531 C 132.984375 62.96875 134.234375 64.71875 136.308594 66.09375 C 196.992188 106.210938 185.691406 165.710938 175.71875 218.199219 C 169.296875 252.003906 163.230469 283.9375 179 304.253906 C 189.609375 317.921875 209.339844 325.484375 239.328125 327.375 C 248.898438 327.980469 257.152344 328.234375 264.878906 328.234375 C 279.828125 328.234375 292.792969 327.28125 309.496094 326.046875 C 312.980469 325.796875 316.632812 325.523438 320.5 325.25 C 325.585938 324.886719 330.628906 324.433594 335.488281 323.902344 C 375.164062 319.566406 406.496094 309.554688 428.601562 294.160156 C 444.566406 283.039062 454.808594 268.257812 456.703125 253.601562 " fill-opacity="1" fill-rule="nonzero"/></g><g clip-path="url(#42b504eecf)"><path fill="#38b6ff" d="M 345.738281 220.78125 C 344.277344 224.816406 340.433594 227.996094 334.308594 230.222656 C 318.765625 235.875 303.640625 238.371094 290.554688 237.425781 C 288.417969 237.273438 286.285156 236.988281 284.222656 236.710938 L 283.9375 236.667969 C 272.351562 235.121094 265.269531 232.640625 256.304688 229.503906 C 254.789062 228.976562 253.21875 228.425781 251.558594 227.855469 C 224.105469 218.445312 227.492188 196.613281 233.316406 175.058594 C 233.933594 172.765625 234.605469 170.402344 235.253906 168.113281 C 238.472656 156.742188 241.800781 144.980469 241.625 133.523438 C 241.425781 120.464844 236.578125 109.75 226.800781 100.773438 C 225.996094 100.035156 225.15625 99.300781 224.304688 98.59375 C 221.265625 96.066406 222.523438 92.289062 223.980469 87.917969 C 225.289062 83.984375 226.773438 79.53125 224.789062 75.632812 C 223.15625 72.429688 221.546875 69.011719 221.363281 65.554688 C 220.804688 55.570312 235.050781 52.707031 243.5625 50.996094 L 244.25 50.863281 C 248.652344 49.972656 253.238281 49.53125 257.972656 49.53125 C 262.355469 49.53125 266.867188 49.910156 271.476562 50.671875 C 283.753906 52.726562 295.6875 57.824219 305.085938 65.027344 C 322.460938 78.347656 331.203125 95.667969 330.367188 115.113281 C 330.070312 121.453125 327.289062 127.765625 324.597656 133.875 C 321.582031 140.722656 318.460938 147.804688 318.714844 155.09375 C 319.1875 168.5 325.125 177.410156 332.003906 187.722656 C 332.972656 189.175781 333.964844 190.664062 334.972656 192.207031 C 335.542969 193.082031 336.113281 193.949219 336.679688 194.804688 C 338.414062 197.429688 340.054688 199.910156 341.535156 202.449219 C 344.40625 207.371094 347.964844 214.621094 345.738281 220.78125 Z M 338.003906 193.929688 C 337.4375 193.074219 336.871094 192.214844 336.300781 191.34375 C 335.289062 189.792969 334.292969 188.300781 333.324219 186.847656 C 326.300781 176.3125 320.753906 168 320.300781 155.039062 C 320.058594 148.109375 323.105469 141.199219 326.050781 134.515625 C 328.796875 128.273438 331.640625 121.824219 331.949219 115.183594 C 332.8125 95.195312 323.855469 77.417969 306.050781 63.769531 C 296.453125 56.414062 284.265625 51.207031 271.738281 49.105469 C 261.957031 47.492188 252.605469 47.554688 243.9375 49.308594 L 243.25 49.441406 C 234.234375 51.253906 219.144531 54.285156 219.78125 65.640625 C 219.976562 69.410156 221.664062 73 223.375 76.355469 C 225.058594 79.65625 223.742188 83.601562 222.472656 87.414062 C 220.972656 91.925781 219.414062 96.59375 223.289062 99.816406 C 224.125 100.503906 224.945312 101.222656 225.726562 101.941406 C 246.84375 121.335938 240.175781 144.894531 233.726562 167.679688 C 233.078125 169.972656 232.40625 172.34375 231.785156 174.644531 C 228.835938 185.558594 226.398438 197.011719 228.496094 206.863281 C 230.773438 217.578125 238.152344 224.9375 251.046875 229.355469 C 252.703125 229.925781 254.269531 230.472656 255.78125 231.003906 C 264.832031 234.167969 271.976562 236.667969 283.726562 238.242188 L 284.011719 238.285156 C 286.097656 238.5625 288.257812 238.851562 290.441406 239.007812 C 292.28125 239.140625 294.164062 239.207031 296.078125 239.207031 C 308.003906 239.207031 321.28125 236.648438 334.851562 231.714844 C 341.4375 229.320312 345.601562 225.820312 347.230469 221.320312 C 349.683594 214.535156 345.9375 206.84375 342.902344 201.648438 C 341.402344 199.074219 339.75 196.578125 338.003906 193.929688 " fill-opacity="1" fill-rule="nonzero"/></g><path fill="#38b6ff" d="M 297.675781 193.003906 C 297.332031 194.105469 295.675781 195.515625 289.722656 195.933594 C 277.597656 196.761719 268.882812 193.296875 263.820312 185.644531 C 256.683594 174.847656 258.539062 157.800781 263.910156 147.238281 C 264.832031 145.425781 265.875 143.578125 266.882812 141.792969 C 271.867188 132.957031 277.023438 123.824219 270.820312 113.910156 C 269.753906 112.207031 268.421875 110.59375 267.132812 109.042969 C 265.585938 107.179688 263.988281 105.25 262.914062 103.214844 C 262.160156 101.785156 261.78125 100.382812 261.78125 99.039062 C 261.785156 97.011719 262.675781 95.203125 264.359375 93.8125 C 266.402344 92.128906 269.433594 91.238281 272.878906 91.238281 C 274.222656 91.238281 275.628906 91.375 277.066406 91.652344 C 282.382812 92.679688 287.144531 95.78125 289.808594 99.949219 C 298.351562 113.316406 292.695312 127.503906 287.226562 141.226562 L 287.027344 141.722656 C 286.710938 142.515625 286.378906 143.335938 286.039062 144.175781 C 281.445312 155.472656 275.160156 170.945312 287.277344 180.863281 C 287.625 181.148438 288.03125 181.46875 288.472656 181.824219 C 291.769531 184.457031 298.632812 189.9375 297.675781 193.003906 Z M 289.460938 180.582031 C 289.023438 180.234375 288.625 179.914062 288.28125 179.632812 C 277.066406 170.457031 282.859375 156.214844 287.507812 144.769531 C 287.851562 143.929688 288.183594 143.109375 288.503906 142.316406 L 288.699219 141.820312 C 294.054688 128.375 300.128906 113.144531 291.148438 99.097656 C 288.25 94.570312 283.101562 91.199219 277.367188 90.09375 C 271.710938 89 266.601562 89.914062 263.351562 92.589844 C 261.320312 94.261719 260.199219 96.554688 260.195312 99.039062 C 260.195312 100.640625 260.636719 102.292969 261.511719 103.953125 C 262.660156 106.132812 264.3125 108.125 265.910156 110.054688 C 267.167969 111.566406 268.464844 113.136719 269.476562 114.75 C 275.179688 123.863281 270.480469 132.195312 265.503906 141.015625 C 264.484375 142.8125 263.433594 144.679688 262.496094 146.523438 C 256.921875 157.476562 255.03125 175.21875 262.5 186.515625 C 267.328125 193.824219 275.558594 197.632812 286.449219 197.632812 C 287.558594 197.632812 288.695312 197.589844 289.859375 197.511719 C 295.414062 197.125 298.46875 195.800781 299.191406 193.476562 C 300.464844 189.375 293.578125 183.871094 289.460938 180.582031 " fill-opacity="1" fill-rule="nonzero"/><path fill="#38b6ff" d="M 320.988281 207.53125 C 320.054688 210.253906 316.867188 212.289062 311.507812 213.585938 C 299.140625 216.574219 288.523438 217.128906 279.949219 215.242188 C 278.402344 214.902344 276.894531 214.429688 275.421875 213.972656 C 268.03125 211.671875 263.570312 208.457031 258.402344 204.734375 C 257.382812 204 256.339844 203.246094 255.246094 202.484375 C 240.117188 191.910156 243.941406 174.101562 248.128906 161.628906 C 248.867188 159.4375 249.679688 157.175781 250.46875 154.996094 C 256.1875 139.136719 262.101562 122.746094 248.289062 107.816406 C 247.757812 107.238281 247.195312 106.664062 246.625 106.097656 C 244.441406 103.964844 244.511719 101.238281 244.589844 98.078125 C 244.65625 95.382812 244.726562 92.601562 243.355469 89.9375 C 241.859375 87.03125 241.15625 84.828125 241.078125 82.800781 C 240.8125 76.164062 249.195312 73.421875 255.523438 71.929688 C 258.496094 71.230469 261.640625 70.878906 264.925781 70.878906 C 267.773438 70.878906 270.734375 71.144531 273.777344 71.671875 C 282.523438 73.210938 290.976562 77.355469 296.980469 83.042969 C 307.703125 93.214844 312.605469 106.132812 311.15625 120.402344 C 310.667969 125.191406 308.683594 130.011719 306.769531 134.667969 C 304.855469 139.320312 302.878906 144.128906 302.351562 148.96875 C 301.179688 159.730469 301.042969 171.375 307.925781 183.578125 C 309.792969 186.890625 312.089844 189.898438 313.878906 192.152344 L 314.457031 192.875 C 317.675781 196.898438 322.542969 202.976562 320.988281 207.53125 Z M 315.121094 191.164062 C 313.367188 188.957031 311.121094 186.011719 309.304688 182.800781 C 303.015625 171.644531 302.605469 161.277344 303.929688 149.140625 C 304.429688 144.523438 306.363281 139.820312 308.234375 135.277344 C 310.195312 130.511719 312.222656 125.582031 312.734375 120.5625 C 314.234375 105.785156 309.164062 92.414062 298.070312 81.894531 C 291.851562 75.996094 283.09375 71.699219 274.050781 70.109375 C 267.277344 68.9375 260.921875 69.03125 255.160156 70.386719 C 248.285156 72.003906 239.183594 75.058594 239.492188 82.859375 C 239.605469 85.773438 240.863281 88.558594 241.945312 90.660156 C 243.128906 92.96875 243.066406 95.542969 243.003906 98.039062 C 242.921875 101.273438 242.839844 104.617188 245.515625 107.234375 C 246.070312 107.777344 246.609375 108.335938 247.125 108.890625 C 260.28125 123.113281 254.535156 139.046875 248.976562 154.457031 C 248.1875 156.648438 247.367188 158.914062 246.625 161.121094 C 242.273438 174.082031 238.339844 192.597656 254.339844 203.785156 C 255.425781 204.542969 256.460938 205.289062 257.476562 206.023438 C 262.753906 209.824219 267.316406 213.113281 274.960938 215.484375 C 276.453125 215.957031 277.996094 216.433594 279.609375 216.789062 C 283.03125 217.542969 286.761719 217.921875 290.789062 217.921875 C 297.121094 217.921875 304.171875 216.984375 311.882812 215.125 C 317.882812 213.675781 321.355469 211.359375 322.488281 208.039062 C 324.324219 202.667969 319.335938 196.433594 315.695312 191.882812 L 315.121094 191.164062 " fill-opacity="1" fill-rule="nonzero"/><g clip-path="url(#abde7088d0)"><path fill="#38b6ff" d="M 495.773438 307.699219 L 496.289062 306.738281 C 497.699219 304.105469 499.1875 301.503906 500.621094 298.988281 C 505.125 291.113281 509.378906 283.675781 511.804688 274.578125 C 512.472656 272.046875 513.09375 269.304688 513.691406 266.1875 C 514.371094 262.65625 514.957031 259.046875 515.519531 255.554688 C 516.152344 251.609375 516.8125 247.53125 517.605469 243.589844 C 519.054688 236.34375 520.921875 230.566406 523.480469 225.410156 C 533.347656 205.621094 548.820312 191.585938 565.929688 186.910156 C 568.136719 186.304688 570.28125 186.023438 572.355469 186.023438 C 588.054688 186.023438 599.800781 202.214844 605.46875 217.566406 C 609.171875 227.597656 611.859375 238.402344 614.460938 248.855469 C 617.183594 259.796875 619.996094 271.105469 624.019531 281.820312 C 626.890625 289.476562 630.058594 296.375 633.414062 302.320312 C 644.984375 322.800781 658.992188 334.734375 669.21875 343.449219 C 676.28125 349.464844 681.378906 353.8125 681.609375 357.824219 C 681.707031 359.496094 680.945312 361.171875 679.277344 362.957031 C 670.722656 372.117188 664.945312 380.902344 661.09375 390.589844 C 660.347656 392.472656 659.710938 394.265625 659.089844 396 C 656.101562 404.40625 653.941406 410.480469 644.015625 413.484375 C 617.882812 421.300781 605.402344 402.96875 590.949219 381.746094 L 590.515625 381.113281 C 574.964844 358.285156 553.730469 345.878906 521.65625 340.878906 C 512.140625 339.398438 496.421875 334.039062 492.105469 325.363281 C 489.308594 319.714844 492.890625 313.054688 495.773438 307.699219 Z M 521.410156 342.449219 C 553.019531 347.375 573.925781 359.574219 589.207031 382.007812 L 589.636719 382.636719 C 602.027344 400.828125 613 416.945312 632.21875 416.945312 C 635.964844 416.945312 640.027344 416.332031 644.46875 415.003906 C 655.164062 411.765625 657.554688 405.046875 660.585938 396.53125 C 661.195312 394.8125 661.832031 393.03125 662.566406 391.175781 C 666.339844 381.675781 672.019531 373.050781 680.4375 364.035156 C 682.414062 361.921875 683.316406 359.859375 683.191406 357.734375 C 682.925781 353.042969 677.882812 348.746094 670.246094 342.242188 C 660.109375 333.605469 646.230469 321.777344 634.796875 301.539062 C 631.476562 295.667969 628.351562 288.84375 625.5 281.257812 C 621.515625 270.632812 618.710938 259.367188 616 248.472656 C 613.390625 237.980469 610.6875 227.128906 606.953125 217.011719 C 604.84375 211.304688 600.0625 200.558594 591.703125 192.769531 C 583.800781 185.410156 574.742188 182.851562 565.511719 185.378906 C 547.96875 190.175781 532.128906 204.507812 522.0625 224.707031 C 519.4375 229.992188 517.527344 235.890625 516.050781 243.277344 C 515.25 247.246094 514.589844 251.339844 513.953125 255.300781 C 513.390625 258.78125 512.808594 262.375 512.136719 265.890625 C 511.542969 268.96875 510.929688 271.675781 510.269531 274.171875 C 507.902344 283.0625 503.691406 290.421875 499.246094 298.203125 C 497.800781 300.726562 496.3125 303.335938 494.890625 305.992188 L 494.378906 306.949219 C 491.484375 312.324219 487.519531 319.6875 490.6875 326.066406 C 495.625 336.007812 512.945312 341.128906 521.410156 342.449219 " fill-opacity="1" fill-rule="nonzero"/></g><g clip-path="url(#db59555b79)"><path fill="#38b6ff" d="M 472.699219 311.261719 L 473.382812 310.078125 C 475.175781 306.984375 477.054688 303.933594 478.871094 300.984375 C 484.980469 291.058594 490.75 281.683594 494 270.078125 C 494.878906 266.917969 495.691406 263.484375 496.480469 259.585938 C 497.359375 255.238281 498.113281 250.792969 498.839844 246.496094 C 499.691406 241.476562 500.570312 236.285156 501.648438 231.265625 C 503.605469 222.105469 506.035156 214.859375 509.277344 208.464844 C 522.105469 183.246094 541.984375 165.351562 563.816406 159.367188 C 566.691406 158.582031 569.472656 158.210938 572.160156 158.210938 C 592.449219 158.210938 607.171875 179.234375 614.0625 199.175781 C 618.074219 210.675781 621.113281 222.808594 624.058594 234.535156 C 627.691406 249.019531 631.445312 264.003906 637.082031 278.152344 C 640.671875 287.152344 644.75 295.550781 649.207031 303.117188 C 663.921875 328.101562 681.078125 342.714844 693.601562 353.386719 C 702.375 360.855469 708.707031 366.253906 708.726562 371.113281 C 708.734375 373.359375 707.375 375.625 704.582031 378.046875 C 691.820312 389.164062 683.628906 399.871094 678.796875 411.730469 C 677.808594 414.152344 676.976562 416.464844 676.183594 418.699219 C 672.539062 428.90625 669.902344 436.28125 657.148438 439.90625 C 641.886719 444.21875 629.59375 442.246094 618.460938 433.683594 C 608.453125 425.988281 600.574219 413.929688 592.234375 401.15625 L 590.929688 399.164062 C 580.882812 383.800781 569.0625 372.585938 554.800781 364.871094 C 541.507812 357.683594 525.648438 353.355469 506.332031 351.636719 C 496.320312 350.714844 473.699219 345.0625 467.671875 333.480469 C 463.941406 326.367188 469.003906 317.632812 472.699219 311.261719 Z M 506.1875 353.21875 C 544.953125 356.664062 570.679688 371.101562 589.605469 400.035156 L 590.90625 402.023438 C 604.832031 423.34375 618.105469 443.667969 642.632812 443.667969 C 647.199219 443.667969 652.160156 442.960938 657.582031 441.429688 C 671.125 437.582031 674.015625 429.484375 677.675781 419.234375 C 678.46875 417.011719 679.285156 414.722656 680.261719 412.328125 C 685 400.707031 693.058594 390.191406 705.621094 379.242188 C 708.789062 376.503906 710.324219 373.84375 710.3125 371.105469 C 710.292969 365.519531 704.0625 360.214844 694.632812 352.179688 C 682.191406 341.582031 665.152344 327.066406 650.574219 302.3125 C 646.15625 294.816406 642.109375 286.492188 638.554688 277.5625 C 632.960938 263.515625 629.214844 248.589844 625.597656 234.152344 C 622.644531 222.386719 619.597656 210.222656 615.5625 198.652344 C 611.289062 186.28125 604.40625 174.941406 596.683594 167.535156 C 586.699219 157.960938 575.1875 154.609375 563.394531 157.839844 C 541.132812 163.9375 520.890625 182.125 507.863281 207.746094 C 504.554688 214.265625 502.089844 221.632812 500.097656 230.933594 C 499.015625 235.988281 498.128906 241.195312 497.277344 246.230469 C 496.550781 250.515625 495.796875 254.949219 494.925781 259.269531 C 494.144531 263.128906 493.34375 266.523438 492.472656 269.648438 C 489.28125 281.046875 483.570312 290.324219 477.519531 300.152344 C 475.699219 303.109375 473.816406 306.171875 472.011719 309.285156 L 471.328125 310.464844 C 467.445312 317.160156 462.128906 326.328125 466.265625 334.210938 C 473.105469 347.351562 498.003906 352.460938 506.1875 353.21875 " fill-opacity="1" fill-rule="nonzero"/></g><g clip-path="url(#93111f88ba)"><path fill="#38b6ff" d="M 449.726562 314.652344 L 450.480469 313.410156 C 452.707031 309.738281 455.039062 306.125 457.289062 302.628906 C 464.933594 290.769531 472.152344 279.566406 476.195312 265.574219 C 477.285156 261.792969 478.292969 257.671875 479.269531 252.976562 C 480.351562 247.816406 481.273438 242.53125 482.164062 237.417969 C 484.878906 221.910156 487.679688 205.871094 495.074219 191.511719 C 510.863281 160.863281 535.144531 139.109375 561.703125 131.828125 C 565.167969 130.875 568.578125 130.402344 571.929688 130.402344 C 582.078125 130.402344 591.667969 134.761719 600.539062 143.4375 C 609.679688 152.378906 617.746094 165.992188 622.664062 180.785156 C 626.9375 193.625 630.292969 206.980469 633.539062 219.894531 C 638.097656 238.039062 642.8125 256.796875 650.144531 274.480469 C 670.0625 322.523438 698.914062 347.078125 718.003906 363.328125 C 728.871094 372.574219 736.050781 378.683594 735.902344 384.410156 C 735.832031 387.277344 733.914062 390.058594 729.863281 393.160156 C 712.957031 406.125 702.351562 418.742188 696.492188 432.871094 C 695.265625 435.828125 694.257812 438.640625 693.285156 441.363281 C 688.980469 453.386719 685.871094 462.074219 670.28125 466.324219 C 663.976562 468.042969 658.234375 468.832031 652.953125 468.832031 C 624.058594 468.832031 609.070312 445.179688 593.34375 420.359375 C 592.679688 419.3125 592.011719 418.261719 591.347656 417.210938 C 568.390625 381.09375 538.386719 364.703125 491.019531 362.398438 C 477.929688 361.765625 450.476562 355.011719 443.234375 341.609375 C 438.554688 332.945312 445.011719 322.371094 449.726562 314.652344 Z M 490.941406 363.984375 C 537.734375 366.257812 567.363281 382.429688 590.011719 418.0625 C 590.679688 419.109375 591.339844 420.160156 592.003906 421.207031 C 607.976562 446.421875 623.203125 470.453125 652.773438 470.453125 C 658.226562 470.449219 664.171875 469.632812 670.695312 467.855469 C 687.089844 463.386719 690.480469 453.902344 694.777344 441.894531 C 695.746094 439.195312 696.746094 436.398438 697.957031 433.480469 C 703.707031 419.617188 714.152344 407.207031 730.828125 394.421875 C 735.285156 391 737.402344 387.832031 737.488281 384.449219 C 737.65625 377.96875 730.246094 371.660156 719.03125 362.117188 C 700.058594 345.96875 671.382812 321.5625 651.613281 273.871094 C 644.324219 256.296875 639.625 237.597656 635.078125 219.507812 C 631.824219 206.5625 628.457031 193.179688 624.171875 180.285156 C 619.175781 165.257812 610.964844 151.414062 601.644531 142.300781 C 589.589844 130.511719 575.632812 126.363281 561.28125 130.296875 C 546.917969 134.238281 533.46875 142.039062 521.3125 153.480469 C 510.609375 163.554688 501.050781 176.453125 493.667969 190.785156 C 486.164062 205.359375 483.335938 221.519531 480.601562 237.144531 C 479.710938 242.246094 478.792969 247.519531 477.71875 252.652344 C 476.75 257.308594 475.75 261.390625 474.671875 265.132812 C 470.695312 278.902344 463.535156 290.011719 455.957031 301.773438 C 453.699219 305.273438 451.363281 308.898438 449.125 312.589844 L 448.367188 313.824219 C 443.457031 321.875 436.726562 332.894531 441.839844 342.363281 C 449.824219 357.140625 478.902344 363.398438 490.941406 363.984375 " fill-opacity="1" fill-rule="nonzero"/></g><g clip-path="url(#9b067a5b32)"><path fill="#38b6ff" d="M -4.835938 237.863281 C -1.460938 243.703125 2.023438 249.980469 4.65625 256.320312 C 7.441406 263.023438 12.046875 264.5 15.558594 264.5 C 15.683594 264.5 15.808594 264.5 15.929688 264.492188 C 26.925781 264.171875 39.96875 250.265625 46.269531 232.15625 C 46.5625 231.3125 46.914062 230.496094 47.285156 229.636719 C 47.683594 228.714844 48.09375 227.769531 48.421875 226.785156 C 51.96875 216.234375 52.675781 204.292969 50.414062 193.171875 C 48.066406 181.644531 43.238281 174.742188 36.0625 172.652344 C 35.058594 172.363281 34.054688 172.109375 33.082031 171.863281 C 31.761719 171.53125 30.398438 171.1875 29.058594 170.75 C 27.199219 170.144531 25.300781 169.292969 23.464844 168.472656 C 21.117188 167.421875 18.691406 166.335938 16.226562 165.695312 C 12.988281 164.847656 9.925781 164.863281 6.960938 164.878906 C 6.027344 164.878906 5.0625 164.882812 4.109375 164.863281 C 0.398438 164.769531 -3.183594 163.773438 -6.5 162.710938 C -11.476562 161.117188 -17.296875 159.667969 -21.539062 160.925781 L -21.539062 162.609375 C -17.621094 161.179688 -11.5625 162.757812 -6.984375 164.222656 C -3.554688 165.320312 0.160156 166.351562 4.070312 166.441406 C 5.046875 166.46875 6.023438 166.464844 6.96875 166.464844 C 9.960938 166.449219 12.789062 166.433594 15.824219 167.230469 C 18.164062 167.839844 20.53125 168.898438 22.820312 169.921875 C 24.691406 170.757812 26.625 171.625 28.566406 172.257812 C 29.960938 172.714844 31.347656 173.0625 32.695312 173.402344 C 33.652344 173.644531 34.644531 173.894531 35.621094 174.175781 C 42.1875 176.085938 46.640625 182.582031 48.859375 193.488281 C 51.066406 204.339844 50.378906 215.988281 46.921875 226.277344 C 46.609375 227.199219 46.214844 228.117188 45.832031 229.003906 C 45.464844 229.859375 45.082031 230.734375 44.769531 231.632812 C 38.078125 250.875 24.828125 262.648438 15.882812 262.90625 C 11.511719 263.042969 8.128906 260.546875 6.121094 255.707031 C 3.453125 249.289062 -0.0625 242.957031 -3.464844 237.070312 C -4.394531 235.449219 -5.339844 233.816406 -6.296875 232.171875 C -11.398438 223.367188 -16.671875 214.253906 -21.539062 204.355469 L -21.539062 207.910156 C -17.054688 216.757812 -12.292969 224.988281 -7.667969 232.96875 C -6.714844 234.609375 -5.769531 236.242188 -4.835938 237.863281 " fill-opacity="1" fill-rule="nonzero"/></g><g clip-path="url(#9e48024dbb)"><path fill="#38b6ff" d="M 737.753906 117.542969 L 736.105469 117.253906 C 727.859375 115.804688 717.605469 113.992188 708.398438 114.890625 C 697.460938 115.957031 690.453125 120.804688 687.578125 129.296875 C 683.433594 141.523438 685.042969 156.246094 687.402344 170.335938 C 692.308594 199.101562 703.53125 228.414062 720.75 257.449219 C 732.835938 277.824219 744.46875 293.324219 756.308594 304.824219 C 761.320312 309.675781 766.410156 313.863281 771.527344 317.347656 L 771.527344 315.417969 C 766.785156 312.105469 762.066406 308.191406 757.414062 303.683594 C 745.675781 292.285156 734.125 276.894531 722.117188 256.640625 C 705.234375 228.179688 693.773438 198.242188 688.964844 170.074219 C 686.640625 156.1875 685.046875 141.699219 689.078125 129.804688 C 695.226562 111.664062 719.660156 115.964844 735.832031 118.816406 L 737.480469 119.105469 C 749.183594 121.148438 759.195312 121.925781 770.027344 119.066406 C 770.527344 118.929688 771.027344 118.789062 771.527344 118.644531 L 771.527344 117 C 770.894531 117.183594 770.257812 117.363281 769.625 117.53125 C 759.066406 120.316406 749.25 119.550781 737.753906 117.542969 " fill-opacity="1" fill-rule="nonzero"/></g><g clip-path="url(#3b4925daca)"><path fill="#38b6ff" d="M 628.949219 -41.664062 C 630.242188 -20.707031 640.28125 -0.710938 657.972656 16.167969 C 672.734375 30.25 692.132812 40.980469 712.59375 46.382812 C 721.992188 48.863281 731.292969 50.097656 740.175781 50.097656 C 751.542969 50.097656 762.222656 48.070312 771.527344 44.054688 L 771.527344 42.320312 C 771.34375 42.398438 771.164062 42.488281 770.980469 42.5625 C 738.429688 56.667969 690.316406 44.828125 659.066406 15.019531 C 641.667969 -1.574219 631.800781 -21.210938 630.53125 -41.765625 C 628.769531 -69.480469 649.691406 -85.996094 669.933594 -101.96875 C 677.519531 -107.960938 685.34375 -114.144531 691.699219 -120.769531 L 689.484375 -120.769531 C 683.460938 -114.679688 676.390625 -109.089844 668.949219 -103.214844 C 648.390625 -86.988281 627.132812 -70.207031 628.949219 -41.664062 " fill-opacity="1" fill-rule="nonzero"/></g><g clip-path="url(#2afe7c937f)"><path fill="#38b6ff" d="M -4.71875 301.679688 C 0.199219 305.085938 5.980469 306.820312 12.273438 306.820312 C 14.574219 306.820312 16.941406 306.585938 19.359375 306.121094 C 38.136719 302.5 58.820312 285.4375 76.097656 259.304688 C 76.574219 258.589844 77.050781 257.875 77.527344 257.164062 C 79.472656 254.253906 81.488281 251.242188 83.199219 248.089844 C 94.886719 226.601562 99.484375 199.941406 95.816406 174.941406 C 91.902344 148.652344 80.421875 134.359375 62.621094 133.613281 C 59.976562 133.496094 57.3125 133.570312 54.730469 133.636719 C 51.589844 133.722656 48.339844 133.808594 45.144531 133.5625 C 40.238281 133.183594 35.285156 131.964844 30.5 130.789062 C 25.132812 129.464844 19.589844 128.101562 13.992188 127.871094 C 6.796875 127.570312 0.0585938 129.449219 -6.460938 131.261719 C -9.019531 131.976562 -11.671875 132.71875 -14.300781 133.308594 C -16.753906 133.851562 -19.148438 134.160156 -21.539062 134.28125 L -21.539062 135.875 C -19.039062 135.746094 -16.527344 135.425781 -13.957031 134.855469 C -11.285156 134.257812 -8.617188 133.511719 -6.035156 132.792969 C 0.367188 131.007812 6.980469 129.164062 13.925781 129.457031 C 19.363281 129.683594 24.832031 131.023438 30.121094 132.324219 C 34.96875 133.519531 39.984375 134.753906 45.023438 135.140625 C 48.300781 135.398438 51.59375 135.308594 54.773438 135.222656 C 57.328125 135.15625 59.964844 135.082031 62.554688 135.191406 C 83.960938 136.097656 91.605469 157.433594 94.25 175.175781 C 97.871094 199.839844 93.332031 226.140625 81.808594 247.332031 C 80.128906 250.421875 78.136719 253.398438 76.207031 256.277344 C 75.730469 256.996094 75.25 257.710938 74.777344 258.429688 C 57.730469 284.207031 37.421875 301.023438 19.058594 304.5625 C 10.328125 306.25 2.628906 304.839844 -3.816406 300.375 C -9.742188 296.273438 -15.6875 291.136719 -21.539062 285.082031 L -21.539062 287.351562 C -15.980469 292.976562 -10.34375 297.785156 -4.71875 301.679688 " fill-opacity="1" fill-rule="nonzero"/></g><g clip-path="url(#489b789a65)"><path fill="#38b6ff" d="M 688.03125 292.742188 C 705.597656 320.738281 733.210938 358.734375 771.527344 368.6875 L 771.527344 367.050781 C 733.964844 357.074219 706.730469 319.570312 689.371094 291.898438 C 665.136719 253.277344 647.523438 210.355469 638.441406 167.785156 C 633.960938 146.792969 630.515625 124.90625 635.582031 107.066406 C 640.449219 89.921875 655.882812 85.542969 672.445312 85.542969 C 682.492188 85.542969 692.957031 87.15625 701.722656 88.503906 C 702.855469 88.679688 703.960938 88.851562 705.023438 89.007812 C 721.925781 91.558594 736.355469 92.273438 751.839844 87.488281 C 757.003906 85.894531 762.160156 83.964844 767.152344 82.097656 C 768.605469 81.554688 770.0625 81.011719 771.527344 80.472656 L 771.527344 78.78125 C 769.875 79.390625 768.234375 80 766.59375 80.613281 C 761.628906 82.46875 756.492188 84.390625 751.371094 85.972656 C 736.171875 90.667969 721.945312 89.957031 705.261719 87.441406 C 704.195312 87.28125 703.09375 87.113281 701.960938 86.9375 C 690.199219 85.125 675.554688 82.871094 662.574219 84.585938 C 647.230469 86.613281 637.632812 94.03125 634.054688 106.636719 C 628.894531 124.808594 632.367188 146.921875 636.890625 168.113281 C 646.011719 210.867188 663.695312 253.960938 688.03125 292.742188 " fill-opacity="1" fill-rule="nonzero"/></g><g clip-path="url(#41c4a1f8b5)"><path fill="#38b6ff" d="M -5.492188 176.609375 C -4.578125 175.648438 -3.183594 175.160156 -1.457031 175.160156 C -0.191406 175.160156 1.253906 175.425781 2.820312 175.953125 C 8.414062 177.84375 14.320312 182.640625 19.027344 189.113281 C 24.859375 197.128906 28.574219 207.285156 29.773438 218.492188 C 30.855469 228.742188 26.109375 237.046875 21.242188 240.425781 C 18.789062 242.128906 16.347656 242.589844 14.542969 241.683594 C 12.429688 240.628906 11.171875 237.71875 11.007812 233.472656 C 10.769531 227.246094 9.582031 221.355469 7.28125 214.9375 C 5.46875 209.882812 3.191406 205.113281 0.78125 200.0625 C -1.300781 195.691406 -3.457031 191.171875 -5.433594 186.199219 C -7.175781 181.8125 -7.199219 178.40625 -5.492188 176.609375 Z M 5.785156 215.472656 C 8.03125 221.730469 9.1875 227.472656 9.421875 233.539062 C 9.664062 239.746094 11.957031 242.171875 13.835938 243.105469 C 14.664062 243.523438 15.582031 243.722656 16.546875 243.722656 C 18.3125 243.722656 20.246094 243.046875 22.148438 241.730469 C 27.5625 237.972656 32.507812 229.277344 31.351562 218.324219 C 30.121094 206.839844 26.300781 196.417969 20.3125 188.179688 C 15.414062 181.453125 9.222656 176.445312 3.328125 174.449219 C -0.980469 172.992188 -4.613281 173.382812 -6.644531 175.519531 C -8.167969 177.125 -9.453125 180.382812 -6.90625 186.785156 C -4.910156 191.804688 -2.746094 196.351562 -0.648438 200.742188 C 1.742188 205.761719 4 210.492188 5.785156 215.472656 " fill-opacity="1" fill-rule="nonzero"/></g><g clip-path="url(#0791cb0af9)"><path fill="#38b6ff" d="M -0.0390625 279.042969 C 3.703125 283.320312 8.605469 285.539062 14.261719 285.539062 C 15.082031 285.539062 15.921875 285.496094 16.773438 285.398438 C 31.535156 283.765625 48.964844 268.210938 61.175781 245.757812 C 61.742188 244.71875 62.355469 243.671875 62.949219 242.660156 C 63.929688 240.992188 64.945312 239.261719 65.804688 237.464844 C 73.503906 221.308594 76.101562 202.347656 73.117188 184.0625 C 69.925781 164.949219 61.914062 154.535156 49.304688 153.121094 C 47.480469 152.914062 45.644531 152.820312 43.871094 152.722656 C 41.640625 152.605469 39.332031 152.484375 37.066406 152.144531 C 33.671875 151.636719 30.238281 150.589844 26.914062 149.578125 C 23.070312 148.410156 19.097656 147.199219 15.074219 146.777344 C 9.890625 146.226562 5.023438 147.179688 0.3125 148.101562 C -1.46875 148.449219 -3.308594 148.808594 -5.136719 149.085938 C -10.871094 149.9375 -16.386719 149.085938 -21.539062 147.9375 L -21.539062 149.558594 C -16.335938 150.707031 -10.761719 151.527344 -4.902344 150.652344 C -3.039062 150.375 -1.179688 150.011719 0.617188 149.660156 C 5.421875 148.714844 9.960938 147.828125 14.90625 148.351562 C 18.78125 148.761719 22.679688 149.949219 26.453125 151.097656 C 29.832031 152.125 33.324219 153.1875 36.832031 153.714844 C 39.171875 154.0625 41.519531 154.1875 43.789062 154.308594 C 45.539062 154.402344 47.351562 154.496094 49.125 154.699219 C 60.945312 156.027344 68.492188 165.992188 71.550781 184.324219 C 74.484375 202.28125 71.933594 220.914062 64.371094 236.78125 C 63.542969 238.519531 62.546875 240.214844 61.582031 241.859375 C 60.980469 242.878906 60.359375 243.9375 59.78125 245 C 47.8125 267.007812 30.859375 282.246094 16.597656 283.820312 C 10.421875 284.503906 5.082031 282.488281 1.15625 278 C -4.710938 271.289062 -9.734375 265.152344 -14.203125 259.25 C -16.660156 255.988281 -19.113281 252.550781 -21.539062 248.984375 L -21.539062 251.789062 C -19.527344 254.699219 -17.5 257.511719 -15.46875 260.203125 C -10.976562 266.140625 -5.929688 272.300781 -0.0390625 279.042969 " fill-opacity="1" fill-rule="nonzero"/></g><g clip-path="url(#1548dc5b94)"><path fill="#38b6ff" d="M 1.460938 371.578125 C 16.253906 371.578125 31.328125 368.09375 46.484375 361.152344 C 71.21875 349.820312 96.261719 329.191406 120.917969 299.832031 C 126.160156 293.59375 131.039062 286.890625 135.425781 279.90625 C 159.378906 241.738281 169.765625 193.5 163.917969 147.558594 C 161.265625 126.699219 155.722656 109.949219 147.449219 97.785156 C 136.757812 82.0625 121.695312 74.417969 102.683594 75.085938 C 97.566406 75.265625 92.40625 75.859375 87.417969 76.4375 C 81.546875 77.117188 75.472656 77.816406 69.492188 77.835938 C 60.050781 77.851562 50.570312 76.144531 41.40625 74.496094 C 31.460938 72.703125 21.179688 70.851562 10.835938 71.171875 C -0.5 71.523438 -11.191406 74.988281 -21.539062 78.78125 L -21.539062 80.472656 C -11.140625 76.640625 -0.40625 73.109375 10.882812 72.753906 C 21.0625 72.441406 31.261719 74.277344 41.125 76.054688 C 50.304688 77.707031 59.796875 79.421875 69.332031 79.421875 C 69.386719 79.421875 69.441406 79.421875 69.496094 79.421875 C 75.570312 79.402344 81.683594 78.699219 87.597656 78.011719 C 92.558594 77.441406 97.6875 76.847656 102.738281 76.671875 C 144.347656 75.242188 158.117188 114.53125 162.347656 147.757812 C 168.148438 193.339844 157.84375 241.199219 134.082031 279.058594 C 129.734375 285.984375 124.898438 292.632812 119.703125 298.8125 C 73.503906 353.820312 25.6875 377.667969 -18.578125 367.78125 C -19.574219 367.558594 -20.558594 367.3125 -21.539062 367.050781 L -21.539062 368.6875 C -20.671875 368.914062 -19.804688 369.132812 -18.925781 369.324219 C -12.203125 370.828125 -5.402344 371.578125 1.460938 371.578125 " fill-opacity="1" fill-rule="nonzero"/></g><g clip-path="url(#732c090b72)"><path fill="#38b6ff" d="M 9.429688 328.292969 C 18.398438 328.292969 27.984375 325.867188 37.84375 321.035156 C 55.8125 312.234375 74.203125 295.558594 91.03125 272.824219 C 94.277344 268.441406 97.683594 263.699219 100.605469 258.699219 C 116.375 231.582031 122.90625 197.730469 118.519531 165.816406 C 115.246094 142.203125 105.246094 114.101562 76.191406 114.101562 C 76.117188 114.101562 76.035156 114.101562 75.960938 114.101562 C 72.628906 114.117188 69.269531 114.347656 66.019531 114.566406 C 61.835938 114.851562 57.507812 115.144531 53.253906 114.984375 C 46.855469 114.726562 40.414062 113.347656 34.1875 112.015625 C 27.277344 110.535156 20.132812 109.007812 12.933594 108.96875 C 3.761719 108.90625 -4.820312 111.6875 -13.121094 114.382812 C -15.875 115.28125 -18.703125 116.191406 -21.539062 117 L -21.539062 118.644531 C -18.53125 117.800781 -15.539062 116.835938 -12.628906 115.894531 C -4.449219 113.234375 3.980469 110.492188 12.921875 110.558594 C 19.960938 110.59375 27.027344 112.101562 33.855469 113.566406 C 40.148438 114.914062 46.65625 116.304688 53.191406 116.566406 C 57.535156 116.734375 61.902344 116.4375 66.125 116.148438 C 69.351562 115.929688 72.6875 115.703125 75.96875 115.6875 C 76.042969 115.6875 76.113281 115.6875 76.1875 115.6875 C 104.097656 115.6875 113.761719 143.046875 116.949219 166.035156 C 121.285156 197.605469 114.832031 231.085938 99.238281 257.898438 C 96.351562 262.828125 92.976562 267.53125 89.757812 271.882812 C 56.972656 316.175781 19.222656 335.691406 -8.765625 322.816406 C -13.027344 320.855469 -17.292969 318.378906 -21.539062 315.417969 L -21.539062 317.347656 C -17.515625 320.089844 -13.46875 322.398438 -9.429688 324.253906 C -3.570312 326.953125 2.757812 328.292969 9.429688 328.292969 " fill-opacity="1" fill-rule="nonzero"/></g><g clip-path="url(#149166752c)"><path fill="#38b6ff" d="M 135.78125 10.164062 C 135.273438 -2.832031 129.976562 -14.617188 124.851562 -26.011719 C 119.195312 -38.59375 113.851562 -50.484375 115.214844 -63.050781 C 115.839844 -68.808594 120.792969 -77.777344 126.527344 -88.160156 C 131.859375 -97.820312 137.96875 -108.886719 142.699219 -120.769531 L 140.984375 -120.769531 C 136.320312 -109.183594 130.355469 -98.378906 125.136719 -88.933594 C 119.082031 -77.960938 114.296875 -69.296875 113.636719 -63.222656 C 112.226562 -50.226562 117.65625 -38.148438 123.40625 -25.363281 C 133.640625 -2.59375 144.226562 20.949219 116.699219 52.449219 C 99.703125 71.898438 78.414062 63.8125 55.875 55.25 C 42.390625 50.125 28.445312 44.828125 15.585938 46.066406 C 6.355469 46.960938 -2.289062 50.734375 -10.648438 54.386719 C -13.921875 55.816406 -17.308594 57.296875 -20.667969 58.574219 C -20.957031 58.683594 -21.25 58.789062 -21.539062 58.890625 L -21.539062 60.582031 C -21.058594 60.410156 -20.578125 60.234375 -20.105469 60.058594 C -16.707031 58.765625 -13.304688 57.277344 -10.011719 55.839844 C -1.765625 52.238281 6.757812 48.515625 15.738281 47.644531 C 28.226562 46.445312 41.996094 51.675781 55.3125 56.730469 C 67.335938 61.304688 79.585938 65.953125 91.109375 65.953125 C 100.722656 65.953125 109.835938 62.714844 117.894531 53.496094 C 130.5 39.066406 136.351562 24.894531 135.78125 10.164062 " fill-opacity="1" fill-rule="nonzero"/></g><g clip-path="url(#66480df6c2)"><path fill="#38b6ff" d="M 5.804688 349.859375 C 17.523438 349.859375 29.8125 346.921875 42.15625 341.097656 C 63.609375 330.96875 85.082031 312.546875 105.972656 286.332031 C 110.710938 280.386719 114.652344 274.816406 118.011719 269.304688 C 137.878906 236.664062 146.335938 195.613281 141.21875 156.6875 C 137.46875 128.265625 125.59375 94.582031 90.375 94.582031 C 90.027344 94.582031 89.671875 94.589844 89.320312 94.589844 C 85.023438 94.675781 80.691406 95.09375 76.5 95.5 C 71.542969 95.984375 66.417969 96.480469 61.371094 96.410156 C 53.445312 96.289062 45.488281 94.746094 37.792969 93.25 C 29.367188 91.617188 20.660156 89.925781 11.878906 90.070312 C 0.722656 90.238281 -9.707031 93.929688 -19.796875 97.5 C -20.371094 97.707031 -20.957031 97.910156 -21.539062 98.113281 L -21.539062 99.796875 C -20.777344 99.527344 -20.015625 99.261719 -19.265625 98.992188 C -9.296875 95.46875 1.007812 91.820312 11.90625 91.65625 C 20.507812 91.511719 29.144531 93.191406 37.492188 94.808594 C 45.253906 96.316406 53.28125 97.871094 61.347656 97.996094 C 66.484375 98.066406 71.652344 97.566406 76.652344 97.078125 C 80.8125 96.679688 85.117188 96.257812 89.351562 96.179688 C 124.207031 95.542969 135.945312 128.835938 139.648438 156.894531 C 144.71875 195.46875 136.335938 236.136719 116.660156 268.480469 C 113.332031 273.9375 109.429688 279.453125 104.734375 285.34375 C 83.992188 311.367188 62.710938 329.640625 41.480469 339.660156 C 21.972656 348.867188 3.414062 350.761719 -13.683594 345.289062 C -16.304688 344.457031 -18.921875 343.453125 -21.539062 342.277344 L -21.539062 344.011719 C -19.085938 345.082031 -16.625 346.019531 -14.167969 346.800781 C -7.78125 348.84375 -1.085938 349.859375 5.804688 349.859375 " fill-opacity="1" fill-rule="nonzero"/></g><g clip-path="url(#e1696995e8)"><path fill="#38b6ff" d="M 721.507812 102.492188 L 719.199219 102.113281 C 709.179688 100.464844 696.714844 98.417969 685.578125 99.710938 C 672.382812 101.246094 664.046875 107.386719 660.816406 117.96875 C 656.167969 133.167969 658.710938 151.585938 662.148438 169.226562 C 669.101562 204.699219 683.710938 241.308594 704.390625 275.097656 C 718.4375 298.050781 731.933594 315.0625 745.652344 327.109375 C 754.117188 334.535156 762.789062 340.1875 771.527344 344.011719 L 771.527344 342.277344 C 763.152344 338.527344 754.832031 333.050781 746.703125 325.917969 C 733.101562 313.972656 719.703125 297.082031 705.742188 274.269531 C 685.164062 240.644531 670.625 204.214844 663.703125 168.921875 C 660.304688 151.480469 657.785156 133.296875 662.332031 118.433594 C 666.582031 104.523438 679.25 100.871094 692.972656 100.871094 C 701.851562 100.871094 711.175781 102.402344 718.9375 103.679688 L 721.253906 104.058594 C 735.613281 106.335938 747.851562 107.074219 760.9375 103.277344 C 764.496094 102.238281 768.050781 101.019531 771.527344 99.796875 L 771.527344 98.113281 C 767.902344 99.394531 764.195312 100.675781 760.496094 101.753906 C 747.695312 105.472656 735.648438 104.738281 721.507812 102.492188 " fill-opacity="1" fill-rule="nonzero"/></g><g clip-path="url(#f328ef75c1)"><path fill="#38b6ff" d="M 642.945312 28.117188 C 660.160156 43.976562 682.371094 56.003906 705.476562 61.980469 C 716.492188 64.832031 727.308594 66.253906 737.6875 66.253906 C 749.667969 66.253906 761.0625 64.355469 771.527344 60.582031 L 771.527344 58.890625 C 733.015625 73.035156 679.5625 59.695312 644.019531 26.953125 C 623.507812 8.054688 611.652344 -14.429688 609.730469 -38.085938 C 607.132812 -70.0625 630.953125 -88.925781 653.984375 -107.167969 C 659.558594 -111.582031 665.242188 -116.085938 670.519531 -120.769531 L 668.117188 -120.769531 C 663.253906 -116.535156 658.078125 -112.433594 653 -108.414062 C 629.640625 -89.910156 605.484375 -70.777344 608.152344 -37.960938 C 610.109375 -13.898438 622.140625 8.949219 642.945312 28.117188 " fill-opacity="1" fill-rule="nonzero"/></g></g></g></g></svg>