<svg xmlns="http://www.w3.org/2000/svg" xmlns:xlink="http://www.w3.org/1999/xlink" width="1000" zoomAndPan="magnify" viewBox="0 0 750 225" height="300" preserveAspectRatio="xMidYMid meet" version="1.0"><defs><filter x="0%" y="0%" width="100%" height="100%" id="afcdd04205"><feColorMatrix values="0 0 0 0 1 0 0 0 0 1 0 0 0 0 1 0 0 0 1 0" color-interpolation-filters="sRGB"/></filter><mask id="37f83a5926"><g filter="url(#afcdd04205)"><rect x="-75" width="900" fill="#000000" y="-22.5" height="270" fill-opacity="0.28"/></g></mask><clipPath id="b4ec6f64ee"><path d="M 0 13 L 523 13 L 523 213 L 0 213 Z M 0 13 " clip-rule="nonzero"/></clipPath><clipPath id="8b8c75f7a4"><path d="M 149.273438 -170.914062 L 703.789062 77.214844 L 539.289062 444.839844 L -15.226562 196.710938 Z M 149.273438 -170.914062 " clip-rule="nonzero"/></clipPath><clipPath id="1bd3c3cb83"><path d="M 149.273438 -170.914062 L 703.789062 77.214844 L 539.289062 444.839844 L -15.226562 196.710938 Z M 149.273438 -170.914062 " clip-rule="nonzero"/></clipPath><clipPath id="b96cb044fb"><path d="M 518 28 L 686 28 L 686 189 L 518 189 Z M 518 28 " clip-rule="nonzero"/></clipPath><clipPath id="9119135409"><path d="M 149.273438 -170.914062 L 703.789062 77.214844 L 539.289062 444.839844 L -15.226562 196.710938 Z M 149.273438 -170.914062 " clip-rule="nonzero"/></clipPath><clipPath id="4cbc2560e7"><path d="M 149.273438 -170.914062 L 703.789062 77.214844 L 539.289062 444.839844 L -15.226562 196.710938 Z M 149.273438 -170.914062 " clip-rule="nonzero"/></clipPath><clipPath id="afc357d03f"><rect x="0" width="705" y="0" height="225"/></clipPath></defs><rect x="-75" width="900" fill="#ffffff" y="-22.5" height="270" fill-opacity="1"/><rect x="-75" width="900" fill="#ffffff" y="-22.5" height="270" fill-opacity="1"/><g mask="url(#37f83a5926)"><g transform="matrix(1, 0, 0, 1, 0, -0.000000000000008531)"><g clip-path="url(#afc357d03f)"><g clip-path="url(#b4ec6f64ee)"><g clip-path="url(#8b8c75f7a4)"><g clip-path="url(#1bd3c3cb83)"><path fill="#38b6ff" d="M 234.277344 23.816406 C 230.914062 21.5625 227.300781 20.566406 223.21875 20.765625 C 221.261719 20.859375 219.167969 21.242188 217.007812 21.90625 C 215 22.523438 212.871094 21.390625 212.253906 19.382812 C 211.644531 17.371094 212.769531 15.242188 214.777344 14.628906 C 223.613281 11.929688 231.671875 12.910156 238.515625 17.5 C 240.261719 18.667969 240.726562 21.03125 239.554688 22.777344 C 238.863281 23.816406 237.742188 24.402344 236.582031 24.460938 C 235.789062 24.5 234.980469 24.292969 234.277344 23.816406 Z M 190.203125 54.796875 C 188.195312 54.175781 187.070312 52.042969 187.695312 50.035156 C 190.390625 41.335938 193.199219 34.558594 196.289062 29.324219 C 197.359375 27.515625 199.6875 26.914062 201.5 27.980469 C 203.3125 29.050781 203.910156 31.386719 202.84375 33.191406 C 200.058594 37.914062 197.480469 44.15625 194.964844 52.285156 C 194.480469 53.859375 193.066406 54.886719 191.515625 54.964844 C 191.082031 54.984375 190.640625 54.929688 190.203125 54.796875 Z M 252.773438 58.761719 C 250.808594 51.054688 248.527344 44.429688 245.992188 39.066406 C 245.09375 37.167969 245.902344 34.894531 247.804688 34 C 249.703125 33.097656 251.972656 33.914062 252.871094 35.8125 C 255.613281 41.617188 258.0625 48.703125 260.148438 56.878906 C 260.664062 58.914062 259.433594 60.988281 257.398438 61.503906 C 257.148438 61.570312 256.890625 61.609375 256.640625 61.621094 C 254.871094 61.707031 253.226562 60.542969 252.773438 58.761719 Z M 48.582031 84.714844 C 47.59375 82.863281 48.292969 80.558594 50.140625 79.5625 C 57.792969 75.472656 65.929688 74.859375 74.015625 77.765625 C 75.992188 78.476562 77.019531 80.65625 76.308594 82.632812 C 75.59375 84.613281 73.417969 85.636719 71.4375 84.925781 C 68.589844 83.902344 65.75 83.445312 63.007812 83.582031 C 59.910156 83.730469 56.789062 84.640625 53.734375 86.273438 C 53.222656 86.546875 52.671875 86.695312 52.125 86.722656 C 50.707031 86.789062 49.296875 86.054688 48.582031 84.714844 Z M 180.78125 96.957031 C 178.71875 96.554688 177.371094 94.558594 177.769531 92.496094 C 179.429688 83.941406 180.824219 77.183594 182.164062 71.226562 C 182.628906 69.175781 184.667969 67.890625 186.71875 68.351562 C 188.769531 68.8125 190.050781 70.851562 189.589844 72.902344 C 188.265625 78.78125 186.878906 85.46875 185.238281 93.945312 C 184.898438 95.699219 183.402344 96.9375 181.695312 97.023438 C 181.390625 97.035156 181.085938 97.015625 180.78125 96.957031 Z M 259.722656 100.8125 C 258.890625 93 257.996094 86.054688 256.96875 79.585938 C 256.636719 77.507812 258.054688 75.558594 260.128906 75.234375 C 262.191406 74.90625 264.152344 76.316406 264.480469 78.394531 C 265.53125 84.996094 266.449219 92.066406 267.289062 100.011719 C 267.507812 102.101562 265.996094 103.976562 263.90625 104.195312 C 263.832031 104.203125 263.761719 104.210938 263.683594 104.210938 C 261.6875 104.308594 259.9375 102.832031 259.722656 100.8125 Z M 23.507812 119.347656 C 21.625 118.421875 20.847656 116.140625 21.777344 114.253906 C 25.421875 106.855469 29.265625 100.429688 33.199219 95.15625 C 34.457031 93.472656 36.839844 93.128906 38.523438 94.386719 C 40.207031 95.644531 40.554688 98.027344 39.296875 99.710938 C 35.644531 104.609375 32.042969 110.632812 28.601562 117.617188 C 27.96875 118.902344 26.707031 119.671875 25.371094 119.738281 C 24.75 119.765625 24.109375 119.644531 23.507812 119.347656 Z M 93.84375 114.628906 C 92.269531 106.964844 89.875 100.945312 86.515625 96.242188 C 85.296875 94.53125 85.695312 92.15625 87.402344 90.933594 C 89.113281 89.714844 91.492188 90.109375 92.710938 91.824219 C 96.699219 97.40625 99.507812 104.371094 101.300781 113.101562 C 101.71875 115.160156 100.398438 117.171875 98.335938 117.59375 C 98.144531 117.636719 97.945312 117.660156 97.753906 117.667969 C 95.910156 117.753906 94.230469 116.492188 93.84375 114.628906 Z M 450.179688 101.410156 C 450.007812 99.316406 451.566406 97.480469 453.65625 97.308594 C 460.867188 96.710938 468.226562 96.347656 475.445312 96.234375 C 477.546875 96.199219 479.273438 97.878906 479.308594 99.976562 C 479.339844 102.078125 477.65625 103.828125 475.566406 103.847656 C 468.515625 103.957031 461.324219 104.308594 454.285156 104.890625 C 454.242188 104.894531 454.199219 104.894531 454.15625 104.898438 C 452.117188 104.996094 450.351562 103.464844 450.179688 101.410156 Z M 518.011719 106.214844 C 511.253906 105.300781 504.136719 104.636719 496.851562 104.242188 C 494.757812 104.128906 493.148438 102.332031 493.261719 100.238281 C 493.375 98.136719 495.175781 96.53125 497.261719 96.644531 C 504.75 97.046875 512.074219 97.734375 519.035156 98.675781 C 521.113281 98.960938 522.578125 100.875 522.292969 102.957031 C 522.039062 104.800781 520.503906 106.160156 518.710938 106.246094 C 518.484375 106.261719 518.25 106.25 518.011719 106.214844 Z M 407.699219 108.605469 C 407.214844 106.558594 408.476562 104.511719 410.523438 104.023438 C 417.359375 102.398438 424.582031 100.992188 431.980469 99.855469 C 434.058594 99.539062 436 100.960938 436.324219 103.039062 C 436.640625 105.113281 435.21875 107.058594 433.140625 107.375 C 425.941406 108.484375 418.925781 109.847656 412.285156 111.425781 C 412.050781 111.484375 411.8125 111.515625 411.585938 111.527344 C 409.792969 111.613281 408.132812 110.414062 407.699219 108.605469 Z M 369.644531 127.730469 C 368.289062 126.121094 368.496094 123.71875 370.109375 122.367188 C 376.015625 117.402344 382.296875 113.523438 389.320312 110.519531 C 391.253906 109.6875 393.488281 110.585938 394.316406 112.515625 C 395.140625 114.449219 394.246094 116.6875 392.3125 117.511719 C 385.992188 120.222656 380.328125 123.714844 375.003906 128.195312 C 374.34375 128.75 373.546875 129.042969 372.742188 129.078125 C 371.597656 129.140625 370.441406 128.675781 369.644531 127.730469 Z M 172.519531 139.367188 C 170.460938 138.941406 169.144531 136.925781 169.570312 134.871094 C 171.097656 127.574219 172.53125 120.09375 173.738281 113.734375 C 174.128906 111.671875 176.121094 110.316406 178.183594 110.703125 C 180.25 111.097656 181.605469 113.089844 181.210938 115.152344 C 180 121.542969 178.558594 129.070312 177.023438 136.421875 C 176.660156 138.152344 175.175781 139.363281 173.484375 139.445312 C 173.171875 139.464844 172.84375 139.4375 172.519531 139.367188 Z M 263.121094 143.738281 L 263 141.964844 C 262.585938 135.617188 262.152344 129.054688 261.632812 122.21875 C 261.472656 120.125 263.042969 118.296875 265.132812 118.136719 C 267.238281 117.957031 269.058594 119.550781 269.21875 121.644531 C 269.742188 128.519531 270.171875 135.097656 270.59375 141.460938 L 270.710938 143.242188 C 270.851562 145.339844 269.261719 147.152344 267.167969 147.289062 C 267.144531 147.289062 267.125 147.289062 267.101562 147.292969 C 265.03125 147.394531 263.257812 145.816406 263.121094 143.738281 Z M 8.910156 159.953125 C 6.898438 159.363281 5.738281 157.25 6.328125 155.234375 C 8.457031 147.957031 10.753906 140.972656 13.167969 134.46875 C 13.902344 132.496094 16.085938 131.492188 18.058594 132.226562 C 20.027344 132.953125 21.03125 135.144531 20.300781 137.113281 C 17.953125 143.453125 15.707031 150.261719 13.628906 157.367188 C 13.164062 158.96875 11.742188 160.027344 10.164062 160.101562 C 9.753906 160.121094 9.328125 160.074219 8.910156 159.953125 Z M 97.464844 157.136719 C 97.117188 152.695312 96.890625 148.113281 96.671875 143.683594 C 96.535156 140.957031 96.402344 138.226562 96.242188 135.515625 C 96.117188 133.417969 97.714844 131.617188 99.8125 131.488281 C 99.828125 131.492188 99.839844 131.488281 99.855469 131.488281 C 101.9375 131.390625 103.714844 132.980469 103.839844 135.058594 C 104 137.800781 104.136719 140.550781 104.273438 143.304688 C 104.492188 147.683594 104.714844 152.214844 105.050781 156.550781 C 105.214844 158.644531 103.644531 160.476562 101.550781 160.640625 C 101.511719 160.640625 101.472656 160.644531 101.441406 160.644531 C 99.390625 160.742188 97.621094 159.195312 97.464844 157.136719 Z M 343.675781 162.011719 C 341.90625 160.878906 341.390625 158.527344 342.515625 156.753906 C 346.109375 151.132812 350.320312 144.632812 354.855469 138.691406 C 356.132812 137.019531 358.515625 136.699219 360.1875 137.976562 C 361.859375 139.25 362.179688 141.640625 360.902344 143.308594 C 356.546875 149.019531 352.597656 155.105469 348.929688 160.851562 C 348.238281 161.933594 347.097656 162.542969 345.90625 162.605469 C 345.144531 162.640625 344.367188 162.453125 343.675781 162.011719 Z M 160.6875 180.871094 C 158.722656 180.125 157.734375 177.925781 158.480469 175.964844 C 160.652344 170.246094 162.707031 163.628906 164.753906 155.734375 C 165.285156 153.699219 167.363281 152.484375 169.398438 153.011719 C 171.429688 153.539062 172.652344 155.617188 172.125 157.648438 C 170 165.816406 167.863281 172.6875 165.597656 178.667969 C 165.039062 180.125 163.683594 181.046875 162.222656 181.117188 C 161.714844 181.136719 161.191406 181.0625 160.6875 180.871094 Z M 0 202.199219 C -2.085938 201.90625 -3.539062 199.984375 -3.246094 197.90625 C -2.425781 191.972656 -0.972656 184.316406 0.839844 176.359375 C 1.304688 174.308594 3.34375 173.027344 5.398438 173.496094 C 7.445312 173.960938 8.726562 175.996094 8.261719 178.046875 C 6.492188 185.804688 5.078125 193.226562 4.285156 198.949219 C 4.03125 200.792969 2.5 202.140625 0.710938 202.230469 C 0.476562 202.242188 0.238281 202.230469 0 202.199219 Z M 268.921875 187.449219 C 268.300781 185.628906 267.707031 183.6875 267.15625 181.671875 C 266.210938 178.207031 265.441406 173.035156 264.730469 165.40625 C 264.53125 163.3125 266.074219 161.457031 268.164062 161.265625 C 270.265625 161.066406 272.109375 162.605469 272.308594 164.699219 C 272.964844 171.78125 273.683594 176.679688 274.5 179.671875 C 275.007812 181.535156 275.554688 183.320312 276.121094 184.992188 C 276.800781 186.976562 275.742188 189.140625 273.753906 189.820312 C 273.410156 189.941406 273.054688 190.003906 272.703125 190.023438 C 271.058594 190.101562 269.484375 189.089844 268.921875 187.449219 Z M 112.246094 199.425781 C 107.070312 194.339844 103.371094 187.714844 100.953125 179.160156 C 100.378906 177.132812 101.554688 175.03125 103.574219 174.460938 C 105.601562 173.890625 107.703125 175.0625 108.273438 177.082031 C 110.324219 184.335938 113.367188 189.863281 117.578125 193.992188 C 119.074219 195.464844 119.101562 197.871094 117.628906 199.371094 C 116.929688 200.082031 116.023438 200.460938 115.097656 200.503906 C 114.078125 200.554688 113.035156 200.195312 112.246094 199.425781 Z M 318.027344 196.566406 C 316.5 195.128906 316.425781 192.722656 317.863281 191.1875 C 319.757812 189.175781 321.683594 186.933594 323.585938 184.539062 C 325.945312 181.5625 328.316406 178.347656 330.824219 174.707031 C 332.019531 172.980469 334.390625 172.546875 336.121094 173.738281 C 337.847656 174.929688 338.28125 177.304688 337.089844 179.03125 C 334.484375 182.804688 332.015625 186.152344 329.546875 189.265625 C 327.511719 191.832031 325.449219 194.234375 323.410156 196.398438 C 322.707031 197.148438 321.773438 197.546875 320.824219 197.59375 C 319.828125 197.640625 318.816406 197.304688 318.027344 196.566406 Z M 133.699219 209.648438 C 131.597656 209.523438 129.996094 207.722656 130.121094 205.625 C 130.246094 203.53125 132.050781 201.925781 134.140625 202.050781 C 134.695312 202.082031 135.246094 202.082031 135.78125 202.058594 C 135.785156 202.058594 135.785156 202.058594 135.792969 202.058594 C 140.628906 201.820312 144.960938 199.179688 149.039062 193.984375 C 150.335938 192.332031 152.726562 192.042969 154.378906 193.335938 C 156.035156 194.632812 156.320312 197.027344 155.023438 198.679688 C 149.582031 205.621094 143.234375 209.316406 136.164062 209.660156 C 136.164062 209.660156 136.15625 209.664062 136.152344 209.660156 C 135.347656 209.695312 134.519531 209.695312 133.699219 209.648438 Z M 280.960938 207.410156 C 279.367188 206.046875 279.179688 203.644531 280.542969 202.046875 C 281.910156 200.449219 284.3125 200.261719 285.90625 201.628906 C 288.777344 204.082031 291.867188 205.191406 295.371094 205.019531 C 297.464844 204.917969 299.726562 204.34375 302.085938 203.308594 C 304.015625 202.46875 306.257812 203.347656 307.097656 205.269531 C 307.941406 207.195312 307.0625 209.441406 305.136719 210.28125 C 301.925781 211.683594 298.765625 212.472656 295.742188 212.621094 C 290.285156 212.886719 285.3125 211.136719 280.960938 207.410156 " fill-opacity="1" fill-rule="nonzero"/></g></g></g><g clip-path="url(#b96cb044fb)"><g clip-path="url(#9119135409)"><g clip-path="url(#4cbc2560e7)"><path fill="#38b6ff" d="M 518.558594 128.1875 L 524.074219 117.746094 L 525.570312 114.914062 C 525.570312 114.914062 529.203125 108.03125 529.230469 107.980469 C 530.066406 106.394531 530.648438 104.65625 530.574219 102.84375 C 530.507812 101.25 529.898438 99.773438 529.386719 98.289062 C 528.585938 95.984375 527.792969 93.6875 527 91.386719 L 526.996094 91.363281 L 522.511719 78.390625 C 521.914062 76.644531 522.804688 75.34375 524.511719 75.476562 C 526.214844 75.613281 528.414062 77.003906 529.382812 78.578125 L 536.988281 90.867188 L 536.988281 90.878906 L 542.070312 99.152344 L 558.769531 99.847656 L 559.988281 99.898438 L 560 99.898438 L 607.539062 101.878906 L 606.976562 100.234375 L 606.976562 100.199219 L 607.117188 100.148438 L 604.234375 90.230469 L 604.21875 90.171875 L 585.160156 31.335938 C 584.765625 30.105469 584.914062 29.050781 585.867188 28.820312 L 585.921875 28.804688 C 586.28125 28.71875 586.71875 28.664062 587.199219 28.699219 L 594.867188 29.324219 C 596.652344 29.457031 598.816406 30.820312 599.664062 32.390625 L 607.761719 47.238281 C 608.191406 47.082031 608.640625 47.230469 609.117188 47.269531 L 612.488281 47.539062 L 613.394531 47.609375 C 615.183594 47.75 616.628906 48.898438 616.488281 50.683594 L 616.386719 51.976562 C 616.34375 52.546875 616.136719 53.125 615.820312 53.628906 C 615.160156 54.710938 613.996094 55.503906 612.789062 55.402344 L 612.015625 55.347656 L 619.164062 68.222656 C 619.59375 68.066406 620.078125 67.746094 620.550781 67.785156 L 622.324219 67.925781 L 624.710938 68.113281 C 626.484375 68.253906 627.875 69.871094 627.738281 71.652344 L 627.632812 72.949219 C 627.542969 74.113281 626.800781 75.316406 625.804688 75.972656 C 625.273438 76.328125 624.667969 76.519531 624.050781 76.46875 L 623.410156 76.421875 L 631.414062 91 L 631.769531 91.644531 L 637.378906 101.871094 L 638.171875 103.3125 L 662.019531 104.019531 L 662.207031 104.027344 C 667.710938 104.269531 678.234375 107.523438 683.195312 111.550781 C 684.890625 112.929688 685.9375 114.398438 685.910156 115.871094 C 685.878906 117.246094 684.910156 118.492188 683.34375 119.597656 C 678.371094 123.121094 667.390625 125.136719 661.757812 124.890625 C 661.660156 124.890625 652.855469 123.890625 639.984375 122.402344 C 639.5625 122.351562 639.140625 122.300781 638.707031 122.257812 C 638.058594 122.179688 637.394531 122.101562 636.722656 122.023438 L 636.058594 122.894531 L 635.617188 123.464844 L 629.523438 131.433594 L 617.902344 146.613281 L 618.550781 146.664062 C 620.335938 146.804688 621.726562 148.308594 621.589844 150.089844 L 621.488281 151.382812 C 621.347656 153.167969 619.765625 154.046875 617.984375 153.90625 L 613.828125 153.578125 C 613.351562 153.546875 612.878906 153.714844 612.480469 153.488281 L 603.375 165.652344 L 604.140625 165.714844 C 605.921875 165.855469 607.347656 167.269531 607.210938 169.054688 L 607.105469 170.355469 C 606.96875 172.132812 605.308594 173.652344 603.527344 173.519531 L 599.246094 173.175781 C 598.769531 173.140625 598.320312 172.980469 597.929688 172.761719 L 587.621094 186.199219 C 586.535156 187.621094 584.167969 188.8125 582.390625 188.671875 L 574.726562 188.070312 C 572.941406 187.933594 572.152344 186.363281 572.960938 184.765625 L 599.644531 131.65625 L 605.019531 120.953125 L 606.28125 118.457031 C 605.328125 118.347656 604.367188 118.238281 603.417969 118.125 C 577.339844 115.101562 550.375 111.976562 541.042969 110.890625 L 535.019531 117.894531 L 528.195312 125.828125 L 525.382812 129.101562 C 524.183594 130.492188 521.804688 131.527344 520.101562 131.398438 C 518.394531 131.261719 517.707031 129.816406 518.558594 128.1875 " fill-opacity="1" fill-rule="nonzero"/></g></g></g></g></g></g></svg>