<svg xmlns="http://www.w3.org/2000/svg" xmlns:xlink="http://www.w3.org/1999/xlink" width="1000" zoomAndPan="magnify" viewBox="0 0 750 225" height="300" preserveAspectRatio="xMidYMid meet" version="1.0"><defs><filter x="0%" y="0%" width="100%" height="100%" id="98374724da"><feColorMatrix values="0 0 0 0 1 0 0 0 0 1 0 0 0 0 1 0 0 0 1 0" color-interpolation-filters="sRGB"/></filter><mask id="5ea7362825"><g filter="url(#98374724da)"><rect x="-75" width="900" fill="#000000" y="-22.5" height="270" fill-opacity="0.01"/></g></mask><clipPath id="33f5343261"><path d="M 0 0 L 290.875 0 L 290.875 225 L 0 225 Z M 0 0 " clip-rule="nonzero"/></clipPath><clipPath id="8df1e77446"><rect x="0" width="292" y="0" height="225"/></clipPath><mask id="f4a1a21c63"><g filter="url(#98374724da)"><rect x="-75" width="900" fill="#000000" y="-22.5" height="270" fill-opacity="0.01"/></g></mask><clipPath id="4c3ecc2714"><path d="M 1.214844 0 L 302.222656 0 L 302.222656 225 L 1.214844 225 Z M 1.214844 0 " clip-rule="nonzero"/></clipPath><clipPath id="b828ecabe4"><rect x="0" width="303" y="0" height="225"/></clipPath><mask id="2230bc74b0"><g filter="url(#98374724da)"><rect x="-75" width="900" fill="#000000" y="-22.5" height="270" fill-opacity="0.01"/></g></mask><clipPath id="aee0d0b488"><path d="M 0.675781 0 L 206 0 L 206 225 L 0.675781 225 Z M 0.675781 0 " clip-rule="nonzero"/></clipPath><clipPath id="c200f0c07b"><rect x="0" width="206" y="0" height="225"/></clipPath></defs><g mask="url(#5ea7362825)"><g transform="matrix(1, 0, 0, 1, 0, -0.000000000000008531)"><g clip-path="url(#8df1e77446)"><g clip-path="url(#33f5343261)"><path fill="#737373" d="M 252.359375 202.777344 C 251.265625 203.929688 250.117188 205.078125 248.96875 206.285156 C 241.324219 199.617188 233.394531 193.179688 225.574219 186.800781 C 228.96875 182.890625 232.300781 178.925781 235.691406 174.960938 C 240.175781 169.671875 244.773438 164.441406 249.371094 159.097656 C 257.589844 166.339844 265.753906 173.636719 273.914062 180.996094 C 268.453125 189.273438 258.855469 196.050781 252.359375 202.777344 Z M 209.539062 199.332031 C 205.859375 203.523438 201.953125 207.664062 198.101562 211.859375 C 191.953125 206.972656 185.746094 202.203125 179.539062 197.375 C 183.042969 192.949219 186.550781 188.523438 190.113281 184.097656 C 193.503906 179.960938 196.894531 175.820312 200.285156 171.683594 C 202.699219 173.636719 205.058594 175.535156 207.472656 177.488281 C 211.550781 180.820312 215.632812 184.269531 219.65625 187.71875 C 216.265625 191.628906 212.929688 195.476562 209.539062 199.332031 Z M 164.363281 185.476562 C 158.558594 180.820312 152.753906 176.167969 146.890625 171.511719 C 153.789062 162.890625 160.6875 154.269531 167.523438 145.648438 C 177.46875 153.464844 187.414062 161.339844 197.238281 169.269531 C 193.449219 173.808594 189.652344 178.351562 185.917969 182.949219 C 182.699219 186.914062 179.480469 190.878906 176.261719 194.902344 C 172.296875 191.742188 168.273438 188.640625 164.363281 185.476562 Z M 122.636719 194.847656 C 114.878906 188.351562 107.0625 181.914062 99.1875 175.535156 C 105.277344 167.949219 111.371094 160.363281 117.40625 152.714844 C 125.28125 159.097656 133.152344 165.476562 141.03125 171.855469 C 134.878906 179.5 128.730469 187.144531 122.636719 194.847656 Z M 106.429688 215.136719 C 99.074219 209.730469 91.3125 204.730469 83.957031 199.332031 C 83.035156 198.695312 82.171875 198.007812 81.3125 197.375 C 86.484375 191.167969 91.601562 184.84375 96.714844 178.582031 C 104.476562 185.074219 112.234375 191.628906 119.992188 198.179688 C 115.453125 203.8125 110.910156 209.445312 106.429688 215.136719 Z M 55.90625 220.710938 C 51.539062 215.363281 45.617188 210.882812 40.503906 206.226562 C 36.652344 202.71875 32.804688 199.273438 28.894531 195.765625 C 34.757812 188.8125 40.675781 181.855469 46.539062 174.902344 C 47.976562 176.109375 49.414062 177.316406 50.847656 178.523438 C 58.722656 185.015625 66.65625 191.339844 74.761719 197.546875 C 68.4375 205.25 62.117188 212.894531 55.90625 220.710938 Z M 24.296875 191.570312 C 18.144531 185.996094 11.9375 180.535156 5.671875 175.132812 C 11.421875 168.0625 16.996094 160.878906 22.570312 153.636719 C 29.238281 159.84375 36.078125 165.9375 43.03125 171.914062 C 37.167969 178.808594 31.308594 185.707031 25.5 192.664062 C 25.101562 192.316406 24.699219 191.972656 24.296875 191.570312 Z M 39.007812 132.082031 C 46.597656 138 54.125 143.980469 61.65625 149.957031 C 58.378906 153.808594 55.160156 157.601562 51.882812 161.453125 C 49.699219 163.984375 47.574219 166.570312 45.390625 169.097656 C 38.320312 163.175781 31.367188 157.199219 24.46875 151.105469 C 29.410156 144.785156 34.179688 138.40625 39.007812 132.082031 Z M 13.664062 108.519531 C 19.8125 100.183594 25.960938 91.90625 32.109375 83.632812 C 40.042969 90.125 48.035156 96.621094 56.023438 103.058594 C 52 108.171875 47.976562 113.289062 44.011719 118.460938 C 41.882812 121.164062 39.757812 123.863281 37.628906 126.566406 C 29.699219 120.472656 21.710938 114.4375 13.664062 108.519531 Z M 7.28125 60.121094 C 8.488281 58.457031 9.695312 56.730469 10.960938 55.179688 C 14.8125 50.179688 18.664062 45.238281 22.570312 40.238281 C 23.777344 38.6875 24.984375 37.132812 26.191406 35.582031 C 33.894531 41.789062 41.710938 47.882812 49.296875 53.917969 C 43.03125 62.078125 36.882812 70.296875 30.675781 78.515625 C 22.914062 72.308594 15.101562 66.214844 7.28125 60.121094 Z M 5.5 13.972656 C 14.179688 4.027344 21.710938 -7.296875 29.582031 -17.871094 C 29.757812 -18.101562 29.871094 -18.273438 30.042969 -18.503906 C 37.285156 -13.101562 44.46875 -7.640625 51.710938 -2.179688 C 48.722656 1.496094 45.675781 5.117188 42.6875 8.796875 C 36.882812 15.984375 31.132812 23.167969 25.386719 30.464844 C 18.722656 25.007812 12.226562 19.3125 5.5 13.972656 Z M 41.59375 -34.425781 C 44.066406 -37.875 46.25 -41.148438 47.574219 -45 C 56.136719 -39.367188 64.703125 -33.679688 73.265625 -27.988281 C 66.65625 -20.226562 60.046875 -12.410156 53.550781 -4.480469 C 46.191406 -9.765625 38.78125 -15.054688 31.308594 -20.226562 C 34.8125 -24.941406 38.203125 -29.65625 41.59375 -34.425781 Z M 99.359375 -10.339844 C 92.691406 -2.007812 86.082031 6.382812 79.53125 14.773438 C 76.023438 12.128906 72.515625 9.488281 69.011719 6.902344 C 64.644531 3.679688 60.277344 0.464844 55.90625 -2.695312 C 62.230469 -10.742188 68.667969 -18.734375 75.105469 -26.667969 C 83.265625 -21.261719 91.3125 -15.800781 99.359375 -10.339844 Z M 123.84375 -34.882812 C 133.039062 -27.644531 142.410156 -20.574219 151.832031 -13.5625 C 145.683594 -6.664062 139.648438 0.347656 133.613281 7.417969 C 124.304688 1.039062 114.992188 -5.226562 105.566406 -11.375 C 111.773438 -19.195312 117.867188 -27.007812 123.84375 -34.882812 Z M 176.433594 -37.011719 C 185.226562 -30.859375 194.023438 -24.710938 202.816406 -18.5625 C 196.609375 -10.457031 190.285156 -2.410156 183.847656 5.519531 C 174.996094 -1.089844 166.148438 -7.699219 157.238281 -14.25 C 163.617188 -21.894531 170.054688 -29.421875 176.433594 -37.011719 Z M 223.390625 -43.964844 C 232.242188 -38.21875 240.808594 -32.007812 249.140625 -25.515625 C 243.625 -18.160156 238.046875 -10.800781 232.53125 -3.503906 C 224.140625 -9.191406 215.75 -14.824219 207.296875 -20.398438 C 212.816406 -28.101562 218.21875 -35.917969 223.390625 -43.964844 Z M 260.695312 21.613281 C 254.371094 30.292969 247.875 38.855469 241.207031 47.308594 C 232.070312 40.640625 222.933594 34.027344 213.851562 27.417969 C 216.550781 23.742188 219.3125 20.121094 221.953125 16.441406 C 225.460938 11.613281 228.96875 6.785156 232.472656 1.957031 C 241.898438 8.511719 251.265625 15.0625 260.695312 21.613281 Z M 270.867188 74.953125 C 265.808594 82.710938 260.519531 90.355469 255.003906 97.828125 C 244.945312 89.78125 234.773438 81.734375 224.597656 73.859375 C 230.058594 66.847656 235.460938 59.835938 240.75 52.765625 C 250.75 60.296875 260.75 67.710938 270.867188 74.953125 Z M 226.785156 133.863281 C 216.953125 125.355469 207.070312 116.96875 197.125 108.574219 C 197.585938 108 198.101562 107.367188 198.5625 106.792969 C 206.320312 97.023438 214.082031 87.308594 221.785156 77.539062 C 232.070312 85.410156 242.300781 93.34375 252.417969 101.449219 C 244.140625 112.425781 235.519531 123.175781 226.785156 133.863281 Z M 194.539062 111.851562 C 204.484375 120.183594 214.3125 128.636719 224.140625 137.082031 C 221.953125 139.726562 219.828125 142.3125 217.644531 144.957031 C 211.78125 151.96875 205.917969 158.980469 200.058594 166.050781 C 190.171875 158.117188 180.167969 150.304688 170.113281 142.542969 C 178.214844 132.253906 186.378906 122.027344 194.539062 111.851562 Z M 165.914062 139.269531 C 158.042969 133.175781 150.167969 127.140625 142.234375 121.105469 C 142.292969 121.046875 142.351562 120.992188 142.410156 120.933594 C 150.742188 110.359375 159.019531 99.722656 167.238281 89.089844 C 175.34375 95.757812 183.390625 102.425781 191.378906 109.148438 C 183.15625 119.378906 174.941406 129.613281 166.722656 139.84375 C 166.433594 139.671875 166.203125 139.4375 165.914062 139.269531 Z M 139.878906 124.207031 C 147.984375 130.472656 156.089844 136.738281 164.191406 143.058594 C 157.292969 151.625 150.398438 160.246094 143.5 168.808594 C 135.570312 162.488281 127.695312 156.105469 119.765625 149.785156 C 126.488281 141.222656 133.210938 132.714844 139.878906 124.207031 Z M 107.347656 139.785156 C 101.140625 134.785156 94.875 129.785156 88.667969 124.78125 C 90.507812 122.601562 92.289062 120.472656 94.128906 118.289062 C 99.128906 112.367188 104.128906 106.449219 109.132812 100.527344 C 118.210938 107.539062 127.351562 114.496094 136.433594 121.507812 C 129.707031 130.015625 122.980469 138.460938 116.257812 146.910156 C 113.269531 144.496094 110.28125 142.140625 107.347656 139.785156 Z M 82.980469 124.898438 C 76.65625 132.371094 70.277344 139.785156 63.953125 147.257812 C 56.367188 141.222656 48.78125 135.246094 41.136719 129.324219 C 43.605469 126.105469 46.078125 122.886719 48.550781 119.726562 C 52.171875 115.070312 55.792969 110.472656 59.414062 105.875 C 67.289062 112.195312 75.105469 118.578125 82.980469 124.898438 Z M 80.851562 78.6875 C 87.40625 83.804688 93.957031 88.859375 100.507812 93.917969 C 102.289062 95.300781 104.074219 96.679688 105.851562 98.054688 C 99.015625 106.101562 92.175781 114.148438 85.335938 122.195312 C 77.402344 115.816406 69.472656 109.496094 61.597656 103.113281 C 67.976562 94.894531 74.414062 86.792969 80.851562 78.6875 Z M 52.574219 56.503906 C 60.792969 63.054688 69.070312 69.550781 77.402344 76.042969 C 70.964844 84.148438 64.585938 92.253906 58.148438 100.355469 C 50.101562 93.917969 42.054688 87.539062 34.007812 81.101562 C 40.15625 72.882812 46.367188 64.664062 52.574219 56.503906 Z M 65.390625 33.050781 C 60.679688 39.085938 56.023438 45.179688 51.308594 51.273438 C 43.605469 45.179688 35.90625 39.027344 28.261719 32.878906 C 34.066406 25.347656 39.929688 17.820312 45.789062 10.347656 C 48.550781 6.785156 51.308594 3.28125 54.125 -0.285156 C 61.941406 5.636719 69.703125 11.613281 77.460938 17.589844 C 73.378906 22.707031 69.355469 27.878906 65.390625 33.050781 Z M 106.371094 40.121094 C 100.566406 47.191406 94.816406 54.320312 89.128906 61.386719 C 85.910156 65.351562 82.75 69.320312 79.585938 73.285156 C 72.117188 67.539062 64.644531 61.730469 57.230469 55.871094 C 56.367188 55.179688 55.503906 54.492188 54.644531 53.800781 C 59.527344 47.363281 64.46875 40.925781 69.414062 34.546875 C 73.148438 29.660156 76.945312 24.832031 80.738281 20.007812 C 89.300781 26.730469 97.863281 33.394531 106.371094 40.121094 Z M 108.84375 37.132812 C 100.222656 30.464844 91.601562 23.796875 82.863281 17.246094 C 89.53125 8.796875 96.199219 0.40625 102.863281 -7.988281 C 112.121094 -1.664062 121.316406 4.65625 130.511719 11.039062 C 123.210938 19.71875 115.96875 28.394531 108.84375 37.132812 Z M 161.261719 32.765625 C 154.363281 40.925781 147.46875 49.085938 140.570312 57.191406 C 139.765625 58.167969 138.902344 59.144531 138.097656 60.121094 C 129.476562 53.285156 120.855469 46.445312 112.175781 39.71875 C 119.359375 30.925781 126.660156 22.1875 133.960938 13.453125 C 143.042969 19.832031 152.179688 26.269531 161.261719 32.765625 Z M 164.421875 28.972656 C 155.339844 22.476562 146.203125 16.039062 137.007812 9.660156 C 142.925781 2.589844 148.84375 -4.421875 154.765625 -11.433594 C 163.675781 -4.824219 172.640625 1.667969 181.550781 8.28125 C 175.917969 15.234375 170.167969 22.132812 164.421875 28.972656 Z M 195.632812 51.847656 C 200.917969 44.835938 206.207031 37.765625 211.4375 30.695312 C 220.402344 37.476562 229.371094 44.261719 238.335938 50.984375 C 232.875 57.941406 227.300781 64.835938 221.785156 71.675781 C 213.105469 65.007812 204.425781 58.398438 195.632812 51.847656 Z M 141.144531 62.59375 C 148.84375 53.398438 156.546875 44.144531 164.136719 34.832031 C 172.582031 40.925781 181.03125 47.074219 189.425781 53.226562 C 181.78125 63.167969 174.136719 73.171875 166.433594 83.054688 C 158.042969 76.214844 149.59375 69.375 141.144531 62.59375 Z M 108.210938 95.242188 C 99.761719 88.859375 91.371094 82.421875 82.980469 75.988281 C 86.253906 71.847656 89.589844 67.652344 92.863281 63.515625 C 98.441406 56.558594 104.015625 49.660156 109.648438 42.765625 C 118.269531 49.546875 126.832031 56.386719 135.398438 63.285156 C 126.375 73.917969 117.292969 84.550781 108.210938 95.242188 Z M 138.5 65.699219 C 147.007812 72.539062 155.457031 79.433594 163.902344 86.390625 C 155.570312 97.136719 147.179688 107.828125 138.789062 118.460938 C 129.707031 111.507812 120.566406 104.609375 111.484375 97.710938 C 120.507812 87.078125 129.535156 76.386719 138.5 65.699219 Z M 194.023438 105.933594 C 185.976562 99.207031 177.929688 92.480469 169.769531 85.816406 C 177.46875 75.8125 185.113281 65.753906 192.757812 55.695312 C 201.496094 62.191406 210.230469 68.6875 218.851562 75.296875 C 210.574219 85.46875 202.296875 95.585938 194.136719 105.757812 C 194.078125 105.816406 194.078125 105.875 194.023438 105.933594 Z M 186.320312 7.359375 C 192.640625 -0.683594 198.90625 -8.847656 204.941406 -17.125 C 213.21875 -11.375 221.496094 -5.628906 229.832031 0.117188 C 223.507812 8.511719 217.183594 16.84375 210.804688 25.234375 C 207.070312 22.535156 203.332031 19.832031 199.597656 17.074219 C 195.171875 13.855469 190.746094 10.636719 186.320312 7.359375 Z M 195.746094 18.855469 C 199.941406 22.019531 204.195312 25.179688 208.390625 28.394531 C 203.046875 35.40625 197.699219 42.421875 192.355469 49.433594 C 184.019531 43.226562 175.6875 37.074219 167.238281 31.039062 C 171.949219 25.234375 176.664062 19.429688 181.378906 13.625 C 182.296875 12.476562 183.214844 11.328125 184.078125 10.175781 C 187.988281 13.050781 191.894531 15.925781 195.746094 18.855469 Z M 93.039062 175.476562 C 87.808594 181.800781 82.574219 188.121094 77.347656 194.445312 C 69.011719 188.179688 60.792969 181.742188 52.6875 175.132812 C 51.425781 174.097656 50.160156 173.0625 48.953125 172.03125 C 54.355469 165.589844 59.757812 159.152344 65.160156 152.773438 C 68.667969 155.589844 72.117188 158.351562 75.621094 161.164062 C 81.484375 165.878906 87.289062 170.648438 93.039062 175.476562 Z M 77.230469 157.832031 C 73.953125 155.246094 70.679688 152.601562 67.460938 150.015625 C 73.726562 142.542969 80.046875 135.070312 86.3125 127.601562 C 93.09375 133.058594 99.816406 138.519531 106.601562 143.980469 C 109.015625 145.933594 111.429688 147.890625 113.84375 149.84375 C 110.109375 154.554688 106.3125 159.210938 102.519531 163.925781 C 100.164062 166.796875 97.804688 169.671875 95.453125 172.546875 C 89.417969 167.601562 83.324219 162.714844 77.230469 157.832031 Z M 226.957031 139.496094 C 233.566406 145.1875 240.117188 150.992188 246.667969 156.738281 C 241.667969 162.546875 236.609375 168.347656 231.554688 174.210938 C 228.621094 177.605469 225.632812 180.996094 222.644531 184.386719 C 220.921875 183.007812 219.253906 181.628906 217.527344 180.191406 C 212.703125 176.222656 207.871094 172.316406 203.046875 168.40625 C 209.484375 160.648438 215.917969 152.890625 222.300781 145.070312 C 223.851562 143.175781 225.347656 141.335938 226.898438 139.4375 C 226.898438 139.496094 226.898438 139.496094 226.957031 139.496094 Z M 290.179688 190.015625 C 285.867188 186.109375 281.613281 182.257812 277.304688 178.351562 C 277.648438 177.429688 277.992188 176.511719 278.222656 175.59375 C 278.453125 174.617188 277.015625 174.210938 276.730469 175.191406 C 276.5 175.878906 276.210938 176.511719 275.925781 177.144531 C 267.992188 170.019531 260.0625 162.949219 252.074219 155.878906 C 260.980469 145.53125 269.71875 134.957031 277.246094 123.75 C 277.765625 123.003906 276.613281 122.195312 276.039062 122.828125 C 268.222656 130.648438 261.324219 139.613281 254.140625 148.003906 C 252.589844 149.84375 250.980469 151.679688 249.371094 153.519531 C 242.761719 147.714844 236.09375 141.910156 229.484375 136.164062 C 238.164062 125.300781 246.554688 114.324219 254.542969 103 C 262.589844 109.378906 270.578125 115.875 278.511719 122.367188 C 280.636719 124.152344 283.742188 121.105469 281.558594 119.324219 C 273.453125 112.65625 265.234375 105.988281 257.015625 99.378906 C 262.304688 91.734375 267.476562 83.917969 272.304688 75.929688 C 276.386719 78.859375 280.410156 81.734375 284.546875 84.609375 C 286.386719 85.929688 288.800781 82.824219 287.019531 81.445312 C 282.9375 78.285156 278.855469 75.125 274.71875 72.023438 C 276.269531 69.433594 277.824219 66.789062 279.316406 64.144531 C 279.777344 63.339844 278.511719 62.59375 278.050781 63.398438 C 276.554688 65.929688 274.949219 68.457031 273.394531 70.988281 C 263.566406 63.515625 253.625 56.15625 243.625 48.914062 C 250.0625 40.292969 256.324219 31.558594 262.417969 22.707031 C 267.246094 26.097656 272.132812 29.488281 276.960938 32.878906 C 279.257812 34.488281 281.328125 30.753906 279.144531 29.144531 C 278.164062 28.394531 277.1875 27.648438 276.210938 26.902344 C 275.925781 26.671875 275.695312 26.558594 275.40625 26.5 C 271.902344 24.027344 268.453125 21.5 264.945312 19.027344 C 270.003906 11.554688 275.003906 3.914062 279.777344 -3.789062 C 280.175781 -4.421875 279.144531 -4.996094 278.742188 -4.363281 C 273.800781 3.164062 268.683594 10.636719 263.394531 17.9375 C 254.027344 11.328125 244.65625 4.773438 235.171875 -1.71875 C 240.519531 -9.136719 245.75 -16.609375 251.039062 -24.078125 C 258.625 -18.042969 265.980469 -11.777344 273.167969 -5.226562 C 275.175781 -3.445312 278.109375 -6.320312 276.15625 -8.214844 C 268.96875 -15.054688 261.324219 -21.492188 253.394531 -27.410156 C 257.707031 -33.621094 262.015625 -39.828125 266.269531 -46.035156 C 266.730469 -46.722656 265.636719 -47.359375 265.121094 -46.664062 C 260.636719 -40.6875 256.097656 -34.65625 251.613281 -28.679688 C 243.050781 -35 234.082031 -40.746094 224.828125 -46.035156 C 225.347656 -46.839844 224.140625 -47.527344 223.5625 -46.78125 C 220 -48.792969 216.378906 -50.746094 212.757812 -52.585938 C 211.839844 -53.046875 211.035156 -51.722656 211.953125 -51.207031 C 215.402344 -49.136719 218.792969 -47.011719 222.183594 -44.828125 C 216.667969 -37.011719 211.035156 -29.367188 205.285156 -21.78125 C 196.320312 -27.644531 187.296875 -33.445312 178.214844 -39.136719 C 180.570312 -41.953125 182.988281 -44.769531 185.34375 -47.585938 C 185.917969 -48.277344 185 -49.253906 184.308594 -48.621094 C 181.605469 -45.863281 178.964844 -43.101562 176.320312 -40.34375 C 171.261719 -43.503906 166.203125 -46.609375 161.089844 -49.710938 C 160.285156 -50.230469 159.59375 -48.964844 160.339844 -48.449219 C 165.054688 -45.113281 169.824219 -41.78125 174.535156 -38.503906 C 167.699219 -31.320312 160.972656 -23.964844 154.363281 -16.550781 C 144.820312 -23.5625 135.28125 -30.515625 125.566406 -37.242188 C 128.039062 -40.515625 130.511719 -43.792969 132.984375 -47.125 C 133.613281 -47.988281 132.175781 -49.082031 131.488281 -48.277344 C 128.671875 -45.171875 125.914062 -42.066406 123.152344 -38.90625 C 118.84375 -41.898438 114.472656 -44.828125 110.109375 -47.699219 C 109.472656 -48.101562 108.726562 -47.125 109.300781 -46.664062 C 113.269531 -43.390625 117.347656 -40.113281 121.429688 -36.894531 C 114.878906 -29.308594 108.441406 -21.609375 102.117188 -13.789062 C 93.957031 -19.136719 85.679688 -24.421875 77.402344 -29.597656 C 82.632812 -36.03125 87.863281 -42.414062 93.207031 -48.792969 C 93.785156 -49.484375 92.804688 -50.519531 92.175781 -49.828125 C 86.597656 -43.503906 81.082031 -37.125 75.5625 -30.746094 C 66.480469 -36.378906 57.402344 -41.953125 48.207031 -47.359375 C 48.261719 -47.644531 48.378906 -47.988281 48.4375 -48.277344 C 48.609375 -49.082031 47.402344 -49.425781 47.226562 -48.621094 C 47.171875 -48.449219 47.113281 -48.21875 47.054688 -48.046875 C 46.480469 -48.390625 45.847656 -48.734375 45.273438 -49.136719 C 44.066406 -49.828125 43.089844 -48.046875 44.179688 -47.300781 C 44.871094 -46.839844 45.5625 -46.378906 46.25 -45.921875 C 44.066406 -40.863281 39.8125 -36.609375 36.421875 -32.414062 C 33.722656 -29.078125 31.078125 -25.746094 28.433594 -22.355469 C 22.972656 -26.089844 17.453125 -29.941406 11.9375 -33.792969 C 15.273438 -38.21875 18.664062 -42.585938 21.824219 -47.183594 C 22.511719 -48.160156 20.960938 -49.425781 20.15625 -48.507812 C 16.476562 -44.195312 13.089844 -39.769531 9.640625 -35.402344 C 7.28125 -37.066406 4.867188 -38.675781 2.511719 -40.34375 C 1.878906 -40.746094 1.363281 -39.769531 1.9375 -39.367188 C 4.234375 -37.699219 6.476562 -35.976562 8.777344 -34.308594 C 8.257812 -33.621094 7.683594 -32.929688 7.167969 -32.242188 C 3.777344 -27.988281 -0.878906 -23.792969 -2.660156 -18.675781 C -2.949219 -17.8125 -1.855469 -17.011719 -1.109375 -17.46875 C 3.375 -20.574219 6.304688 -26.089844 9.523438 -30.457031 C 10.042969 -31.148438 10.558594 -31.894531 11.132812 -32.585938 C 16.535156 -28.621094 21.882812 -24.597656 27.285156 -20.574219 C 26.824219 -19.941406 26.308594 -19.308594 25.847656 -18.734375 C 17.972656 -8.730469 9.464844 1.09375 2.511719 11.613281 C 1.363281 10.75 0.210938 9.890625 -0.9375 9.027344 C -1.800781 8.394531 -2.777344 9.773438 -2.085938 10.464844 C 5.789062 18.453125 14.410156 25.925781 23.203125 33.109375 C 21.824219 34.832031 20.445312 36.617188 19.066406 38.339844 C 15.214844 43.285156 11.304688 48.285156 7.453125 53.226562 C 6.363281 54.660156 5.15625 56.042969 4.007812 57.480469 C 0.84375 55.007812 -2.375 52.535156 -5.535156 50.0625 C -6.339844 49.433594 -7.429688 50.8125 -6.625 51.5 C -3.523438 54.085938 -0.476562 56.671875 2.628906 59.203125 C 0.386719 61.964844 -1.742188 64.777344 -3.292969 67.824219 C -4.039062 69.375 -2.257812 70.753906 -0.9375 69.605469 C 1.59375 67.363281 3.777344 64.664062 5.902344 61.847656 C 13.546875 68.167969 21.191406 74.492188 28.835938 80.757812 C 22.628906 89.089844 16.421875 97.425781 10.269531 105.816406 C 5.617188 102.425781 0.960938 99.035156 -3.753906 95.757812 C -4.671875 95.125 -5.824219 96.621094 -4.960938 97.3125 C -0.417969 100.929688 4.066406 104.496094 8.605469 108.058594 C 6.878906 110.414062 5.15625 112.769531 3.433594 115.128906 C 1.820312 117.3125 5.5 119.4375 7.109375 117.253906 C 8.71875 115.070312 10.328125 112.886719 11.9375 110.644531 C 19.753906 116.792969 27.628906 122.945312 35.503906 129.09375 C 30.617188 135.300781 25.734375 141.449219 20.902344 147.660156 C 12.742188 140.359375 4.753906 133.003906 -3.179688 125.53125 C -3.980469 124.726562 -5.246094 125.933594 -4.441406 126.792969 C 3.203125 134.785156 11.019531 142.542969 19.007812 150.128906 C 13.375 157.375 7.800781 164.726562 2.339844 172.085938 C -1.28125 168.925781 -4.960938 165.820312 -8.578125 162.660156 C -9.441406 161.914062 -10.707031 163.121094 -9.847656 163.925781 C -6.28125 167.371094 -2.777344 170.761719 0.785156 174.210938 C 0.730469 174.269531 0.671875 174.382812 0.617188 174.441406 C -0.765625 176.339844 2.28125 178.808594 3.890625 177.144531 C 10.101562 183.0625 16.304688 188.984375 22.570312 194.847656 C 22.746094 195.019531 22.914062 195.191406 23.089844 195.308594 C 15.730469 204.214844 8.433594 212.894531 1.132812 221.628906 C -0.648438 223.8125 2.398438 226.917969 4.234375 224.734375 C 11.652344 216.054688 19.066406 207.320312 26.421875 198.640625 C 30.445312 202.375 34.527344 206.109375 38.550781 209.847656 C 43.550781 214.503906 48.4375 219.847656 54.183594 223.640625 C 54.242188 225.308594 56.195312 226.746094 57.574219 225.136719 C 64.703125 217.03125 71.714844 208.871094 78.609375 200.59375 C 88.726562 208.296875 99.015625 216.515625 110.050781 222.777344 C 111.886719 223.8125 114.1875 221.171875 112.40625 219.734375 C 111.542969 219.042969 110.625 218.355469 109.761719 217.664062 C 114.246094 212.089844 118.785156 206.515625 123.269531 200.9375 C 133.613281 209.730469 143.902344 218.527344 154.304688 227.320312 C 156.261719 228.929688 159.019531 226.226562 157.125 224.503906 C 146.890625 215.421875 136.488281 206.457031 125.96875 197.664062 C 132.121094 190.015625 138.328125 182.316406 144.480469 174.617188 C 150.800781 179.730469 157.125 184.84375 163.386719 189.902344 C 166.835938 192.664062 170.226562 195.476562 173.617188 198.296875 C 172.582031 199.617188 171.546875 200.882812 170.511719 202.203125 C 165.6875 208.410156 159.996094 214.730469 156.316406 221.6875 C 155.398438 223.46875 157.699219 225.421875 159.191406 223.871094 C 164.652344 218.125 169.019531 210.996094 173.847656 204.730469 C 174.824219 203.46875 175.859375 202.203125 176.835938 200.9375 C 182.757812 205.882812 188.675781 210.882812 194.652344 215.765625 C 192.355469 218.410156 190.113281 221.113281 187.988281 223.871094 C 186.722656 225.539062 189.367188 227.375 190.804688 226.054688 C 193.332031 223.699219 195.746094 221.171875 198.101562 218.585938 C 204.882812 224.046875 211.726562 229.386719 218.738281 234.390625 C 220.632812 235.710938 222.875 232.722656 221.207031 231.230469 C 214.886719 225.480469 208.332031 220.023438 201.667969 214.675781 C 205.515625 210.191406 209.308594 205.59375 213.105469 201.226562 C 216.265625 197.605469 219.425781 193.925781 222.585938 190.304688 C 230.171875 196.859375 237.703125 203.523438 245.289062 210.132812 C 239.3125 216.285156 233.394531 222.835938 229.3125 229.964844 C 228.507812 231.398438 230.40625 232.835938 231.554688 231.6875 C 236.265625 227.148438 240.117188 221.515625 244.371094 216.515625 C 245.578125 215.136719 246.785156 213.753906 247.992188 212.433594 C 253.851562 217.492188 259.71875 222.550781 265.695312 227.433594 C 267.707031 229.042969 270.464844 226.457031 268.566406 224.5625 C 263.109375 218.988281 257.359375 213.640625 251.5 208.46875 C 253.796875 205.941406 256.097656 203.46875 258.453125 200.996094 C 264.085938 195.132812 271.269531 189.558594 275.464844 182.429688 C 279.429688 185.996094 283.339844 189.558594 287.246094 193.121094 C 289.199219 194.902344 292.246094 191.914062 290.179688 190.015625 " fill-opacity="1" fill-rule="nonzero"/></g></g></g></g><g mask="url(#f4a1a21c63)"><g transform="matrix(1, 0, 0, 1, 271, -0.000000000000008531)"><g clip-path="url(#b828ecabe4)"><g clip-path="url(#4c3ecc2714)"><path fill="#737373" d="M 263.707031 224.269531 C 262.613281 225.421875 261.464844 226.570312 260.316406 227.777344 C 252.671875 221.109375 244.742188 214.671875 236.921875 208.292969 C 240.316406 204.382812 243.648438 200.417969 247.039062 196.453125 C 251.523438 191.164062 256.121094 185.933594 260.71875 180.589844 C 268.9375 187.828125 277.101562 195.128906 285.261719 202.484375 C 279.800781 210.765625 270.203125 217.542969 263.707031 224.269531 Z M 220.890625 220.824219 C 217.210938 225.015625 213.300781 229.15625 209.449219 233.351562 C 203.300781 228.464844 197.09375 223.695312 190.886719 218.867188 C 194.390625 214.441406 197.898438 210.015625 201.460938 205.589844 C 204.851562 201.453125 208.246094 197.3125 211.632812 193.175781 C 214.046875 195.128906 216.40625 197.027344 218.820312 198.980469 C 222.902344 202.3125 226.980469 205.761719 231.003906 209.210938 C 227.613281 213.121094 224.277344 216.96875 220.890625 220.824219 Z M 175.710938 206.96875 C 169.910156 202.3125 164.101562 197.660156 158.238281 193.003906 C 165.136719 184.382812 172.035156 175.761719 178.875 167.140625 C 188.816406 174.957031 198.761719 182.828125 208.585938 190.761719 C 204.796875 195.300781 201 199.84375 197.265625 204.441406 C 194.046875 208.40625 190.828125 212.371094 187.609375 216.394531 C 183.644531 213.234375 179.621094 210.132812 175.710938 206.96875 Z M 133.984375 216.339844 C 126.226562 209.84375 118.410156 203.40625 110.535156 197.027344 C 116.625 189.441406 122.71875 181.851562 128.753906 174.207031 C 136.628906 180.589844 144.503906 186.96875 152.378906 193.347656 C 146.226562 200.992188 140.078125 208.636719 133.984375 216.339844 Z M 117.777344 236.628906 C 110.421875 231.222656 102.660156 226.222656 95.304688 220.824219 C 94.382812 220.1875 93.523438 219.5 92.660156 218.867188 C 97.832031 212.660156 102.949219 206.335938 108.0625 200.074219 C 115.824219 206.566406 123.582031 213.121094 131.339844 219.671875 C 126.800781 225.304688 122.257812 230.9375 117.777344 236.628906 Z M 67.253906 242.203125 C 62.886719 236.855469 56.964844 232.375 51.851562 227.71875 C 48 224.210938 44.152344 220.765625 40.242188 217.257812 C 46.105469 210.304688 52.023438 203.347656 57.886719 196.394531 C 59.324219 197.601562 60.761719 198.808594 62.199219 200.015625 C 70.070312 206.507812 78.003906 212.832031 86.109375 219.039062 C 79.785156 226.742188 73.464844 234.386719 67.253906 242.203125 Z M 35.644531 213.0625 C 29.496094 207.484375 23.285156 202.027344 17.019531 196.625 C 22.769531 189.554688 28.34375 182.371094 33.917969 175.128906 C 40.585938 181.335938 47.425781 187.429688 54.378906 193.40625 C 48.519531 200.300781 42.65625 207.199219 36.847656 214.15625 C 36.449219 213.808594 36.046875 213.464844 35.644531 213.0625 Z M 50.355469 153.574219 C 57.945312 159.492188 65.472656 165.472656 73.003906 171.449219 C 69.726562 175.300781 66.507812 179.09375 63.230469 182.945312 C 61.046875 185.476562 58.921875 188.0625 56.738281 190.589844 C 49.667969 184.667969 42.714844 178.691406 35.816406 172.597656 C 40.757812 166.277344 45.53125 159.898438 50.355469 153.574219 Z M 25.011719 130.011719 C 31.160156 121.675781 37.308594 113.398438 43.460938 105.125 C 51.390625 111.617188 59.382812 118.113281 67.371094 124.550781 C 63.347656 129.664062 59.324219 134.78125 55.359375 139.953125 C 53.230469 142.65625 51.105469 145.355469 48.976562 148.058594 C 41.046875 141.964844 33.058594 135.929688 25.011719 130.011719 Z M 18.628906 81.613281 C 19.839844 79.949219 21.042969 78.222656 22.308594 76.671875 C 26.160156 71.671875 30.011719 66.730469 33.917969 61.730469 C 35.125 60.175781 36.332031 58.625 37.542969 57.074219 C 45.242188 63.28125 53.058594 69.375 60.644531 75.410156 C 54.378906 83.570312 48.230469 91.789062 42.023438 100.007812 C 34.261719 93.800781 26.449219 87.707031 18.628906 81.613281 Z M 16.851562 35.464844 C 25.527344 25.519531 33.058594 14.195312 40.929688 3.621094 C 41.105469 3.390625 41.21875 3.21875 41.390625 2.988281 C 48.632812 8.390625 55.816406 13.851562 63.058594 19.3125 C 60.070312 22.988281 57.023438 26.609375 54.035156 30.289062 C 48.230469 37.476562 42.484375 44.660156 36.734375 51.957031 C 30.070312 46.496094 23.574219 40.804688 16.851562 35.464844 Z M 52.941406 -12.933594 C 55.414062 -16.382812 57.597656 -19.65625 58.921875 -23.507812 C 67.484375 -17.875 76.050781 -12.1875 84.613281 -6.496094 C 78.003906 1.265625 71.394531 9.082031 64.898438 17.011719 C 57.539062 11.726562 50.128906 6.4375 42.65625 1.265625 C 46.164062 -3.449219 49.550781 -8.164062 52.941406 -12.933594 Z M 110.707031 11.148438 C 104.039062 19.484375 97.429688 27.875 90.878906 36.265625 C 87.371094 33.621094 83.863281 30.980469 80.359375 28.394531 C 75.992188 25.171875 71.625 21.957031 67.253906 18.796875 C 73.578125 10.75 80.015625 2.757812 86.453125 -5.175781 C 94.613281 0.230469 102.660156 5.691406 110.707031 11.148438 Z M 135.191406 -13.390625 C 144.386719 -6.152344 153.757812 0.917969 163.183594 7.929688 C 157.03125 14.828125 150.996094 21.839844 144.960938 28.910156 C 135.652344 22.53125 126.339844 16.265625 116.914062 10.117188 C 123.121094 2.296875 129.214844 -5.519531 135.191406 -13.390625 Z M 187.78125 -15.519531 C 196.574219 -9.367188 205.371094 -3.21875 214.164062 2.929688 C 207.957031 11.035156 201.632812 19.082031 195.199219 27.011719 C 186.34375 20.402344 177.496094 13.792969 168.585938 7.242188 C 174.964844 -0.402344 181.402344 -7.929688 187.78125 -15.519531 Z M 234.738281 -22.472656 C 243.589844 -16.726562 252.15625 -10.515625 260.488281 -4.023438 C 254.972656 3.332031 249.394531 10.691406 243.878906 17.988281 C 235.488281 12.300781 227.097656 6.667969 218.644531 1.09375 C 224.164062 -6.609375 229.566406 -14.425781 234.738281 -22.472656 Z M 272.042969 43.105469 C 265.71875 51.785156 259.226562 60.347656 252.554688 68.800781 C 243.417969 62.132812 234.28125 55.519531 225.199219 48.910156 C 227.902344 45.234375 230.660156 41.613281 233.300781 37.933594 C 236.808594 33.105469 240.316406 28.277344 243.820312 23.449219 C 253.25 30.003906 262.613281 36.554688 272.042969 43.105469 Z M 282.214844 96.445312 C 277.15625 104.203125 271.871094 111.847656 266.351562 119.320312 C 256.292969 111.273438 246.121094 103.226562 235.945312 95.351562 C 241.40625 88.339844 246.808594 81.328125 252.097656 74.257812 C 262.097656 81.789062 272.097656 89.203125 282.214844 96.445312 Z M 238.132812 155.355469 C 228.300781 146.847656 218.417969 138.460938 208.472656 130.066406 C 208.933594 129.492188 209.449219 128.859375 209.910156 128.285156 C 217.667969 118.515625 225.429688 108.800781 233.132812 99.03125 C 243.417969 106.902344 253.648438 114.835938 263.765625 122.941406 C 255.488281 133.917969 246.867188 144.667969 238.132812 155.355469 Z M 205.886719 133.34375 C 215.832031 141.675781 225.660156 150.128906 235.488281 158.574219 C 233.300781 161.21875 231.175781 163.804688 228.992188 166.449219 C 223.128906 173.460938 217.265625 180.472656 211.40625 187.542969 C 201.519531 179.609375 191.519531 171.796875 181.460938 164.035156 C 189.566406 153.746094 197.726562 143.515625 205.886719 133.34375 Z M 177.261719 160.761719 C 169.390625 154.667969 161.515625 148.632812 153.582031 142.597656 C 153.640625 142.539062 153.699219 142.484375 153.757812 142.425781 C 162.089844 131.847656 170.367188 121.214844 178.585938 110.582031 C 186.691406 117.25 194.738281 123.917969 202.726562 130.640625 C 194.507812 140.871094 186.289062 151.105469 178.070312 161.335938 C 177.78125 161.164062 177.550781 160.929688 177.261719 160.761719 Z M 151.230469 145.699219 C 159.332031 151.964844 167.4375 158.230469 175.539062 164.550781 C 168.640625 173.117188 161.746094 181.738281 154.847656 190.300781 C 146.917969 183.980469 139.042969 177.597656 131.113281 171.277344 C 137.835938 162.714844 144.558594 154.207031 151.230469 145.699219 Z M 118.695312 161.277344 C 112.488281 156.277344 106.226562 151.277344 100.015625 146.273438 C 101.855469 144.09375 103.636719 141.964844 105.476562 139.78125 C 110.476562 133.859375 115.476562 127.941406 120.480469 122.019531 C 129.558594 129.03125 138.699219 135.988281 147.78125 143 C 141.054688 151.503906 134.328125 159.953125 127.605469 168.402344 C 124.617188 165.988281 121.628906 163.632812 118.695312 161.277344 Z M 94.328125 146.390625 C 88.003906 153.863281 81.625 161.277344 75.300781 168.75 C 67.714844 162.714844 60.128906 156.738281 52.484375 150.816406 C 54.953125 147.597656 57.425781 144.378906 59.898438 141.21875 C 63.519531 136.5625 67.140625 131.964844 70.761719 127.367188 C 78.636719 133.6875 86.453125 140.070312 94.328125 146.390625 Z M 92.199219 100.179688 C 98.753906 105.296875 105.304688 110.351562 111.859375 115.410156 C 113.636719 116.792969 115.421875 118.167969 117.203125 119.546875 C 110.363281 127.59375 103.523438 135.640625 96.683594 143.6875 C 88.75 137.308594 80.820312 130.988281 72.945312 124.605469 C 79.324219 116.386719 85.761719 108.285156 92.199219 100.179688 Z M 63.921875 77.996094 C 72.140625 84.546875 80.417969 91.042969 88.75 97.535156 C 82.3125 105.640625 75.933594 113.746094 69.496094 121.847656 C 61.449219 115.410156 53.402344 109.03125 45.355469 102.59375 C 51.507812 94.375 57.714844 86.15625 63.921875 77.996094 Z M 76.738281 54.542969 C 72.027344 60.578125 67.371094 66.671875 62.65625 72.765625 C 54.953125 66.671875 47.253906 60.519531 39.609375 54.371094 C 45.414062 46.839844 51.277344 39.3125 57.140625 31.839844 C 59.898438 28.277344 62.65625 24.773438 65.472656 21.207031 C 73.289062 27.128906 81.050781 33.105469 88.808594 39.082031 C 84.726562 44.199219 80.703125 49.371094 76.738281 54.542969 Z M 117.71875 61.613281 C 111.914062 68.683594 106.167969 75.8125 100.476562 82.878906 C 97.257812 86.84375 94.097656 90.808594 90.933594 94.777344 C 83.464844 89.03125 75.992188 83.222656 68.578125 77.363281 C 67.714844 76.671875 66.855469 75.984375 65.992188 75.292969 C 70.878906 68.855469 75.820312 62.417969 80.761719 56.039062 C 84.5 51.152344 88.292969 46.324219 92.085938 41.496094 C 100.648438 48.222656 109.214844 54.886719 117.71875 61.613281 Z M 120.191406 58.625 C 111.570312 51.957031 102.949219 45.289062 94.210938 38.738281 C 100.878906 30.289062 107.546875 21.898438 114.210938 13.503906 C 123.46875 19.828125 132.664062 26.148438 141.859375 32.53125 C 134.5625 41.210938 127.316406 49.886719 120.191406 58.625 Z M 172.609375 54.257812 C 165.710938 62.417969 158.816406 70.578125 151.917969 78.683594 C 151.113281 79.660156 150.25 80.636719 149.445312 81.613281 C 140.824219 74.777344 132.203125 67.9375 123.523438 61.210938 C 130.707031 52.417969 138.007812 43.679688 145.308594 34.945312 C 154.390625 41.324219 163.527344 47.761719 172.609375 54.257812 Z M 175.769531 50.460938 C 166.6875 43.96875 157.550781 37.53125 148.355469 31.152344 C 154.273438 24.082031 160.195312 17.070312 166.113281 10.058594 C 175.023438 16.667969 183.988281 23.160156 192.898438 29.773438 C 187.265625 36.726562 181.519531 43.625 175.769531 50.460938 Z M 206.980469 73.339844 C 212.265625 66.328125 217.554688 59.257812 222.785156 52.1875 C 231.75 58.96875 240.71875 65.753906 249.683594 72.476562 C 244.222656 79.433594 238.648438 86.328125 233.132812 93.167969 C 224.453125 86.5 215.773438 79.890625 206.980469 73.339844 Z M 152.492188 84.085938 C 160.195312 74.890625 167.898438 65.636719 175.484375 56.324219 C 183.929688 62.417969 192.378906 68.566406 200.773438 74.71875 C 193.128906 84.660156 185.484375 94.664062 177.78125 104.546875 C 169.390625 97.707031 160.941406 90.867188 152.492188 84.085938 Z M 119.558594 116.734375 C 111.109375 110.351562 102.71875 103.914062 94.328125 97.480469 C 97.601562 93.339844 100.9375 89.144531 104.214844 85.007812 C 109.789062 78.050781 115.363281 71.152344 120.996094 64.257812 C 129.617188 71.039062 138.179688 77.878906 146.746094 84.777344 C 137.722656 95.410156 128.640625 106.042969 119.558594 116.734375 Z M 149.847656 87.191406 C 158.355469 94.03125 166.804688 100.925781 175.25 107.882812 C 166.917969 118.628906 158.527344 129.320312 150.136719 139.953125 C 141.054688 133 131.914062 126.101562 122.835938 119.203125 C 131.859375 108.570312 140.882812 97.878906 149.847656 87.191406 Z M 205.371094 127.425781 C 197.324219 120.699219 189.277344 113.972656 181.117188 107.308594 C 188.816406 97.304688 196.460938 87.246094 204.105469 77.1875 C 212.84375 83.683594 221.578125 90.179688 230.199219 96.789062 C 221.925781 106.960938 213.644531 117.078125 205.484375 127.25 C 205.425781 127.308594 205.425781 127.367188 205.371094 127.425781 Z M 197.667969 28.851562 C 203.988281 20.808594 210.253906 12.644531 216.289062 4.367188 C 224.566406 10.117188 232.84375 15.863281 241.179688 21.609375 C 234.855469 30.003906 228.535156 38.335938 222.152344 46.726562 C 218.417969 44.027344 214.679688 41.324219 210.945312 38.566406 C 206.519531 35.347656 202.09375 32.128906 197.667969 28.851562 Z M 207.09375 40.347656 C 211.289062 43.507812 215.542969 46.671875 219.738281 49.886719 C 214.394531 56.898438 209.046875 63.914062 203.703125 70.925781 C 195.367188 64.71875 187.035156 58.566406 178.585938 52.53125 C 183.296875 46.726562 188.011719 40.921875 192.726562 35.117188 C 193.644531 33.96875 194.566406 32.816406 195.425781 31.667969 C 199.335938 34.542969 203.246094 37.417969 207.09375 40.347656 Z M 104.386719 196.96875 C 99.15625 203.292969 93.921875 209.613281 88.695312 215.9375 C 80.359375 209.671875 72.140625 203.234375 64.035156 196.625 C 62.773438 195.589844 61.507812 194.554688 60.300781 193.519531 C 65.703125 187.082031 71.105469 180.644531 76.511719 174.265625 C 80.015625 177.082031 83.464844 179.839844 86.96875 182.65625 C 92.832031 187.371094 98.636719 192.140625 104.386719 196.96875 Z M 88.578125 179.324219 C 85.300781 176.738281 82.027344 174.09375 78.808594 171.507812 C 85.074219 164.035156 91.394531 156.5625 97.660156 149.09375 C 104.441406 154.550781 111.167969 160.011719 117.949219 165.472656 C 120.363281 167.425781 122.777344 169.382812 125.191406 171.335938 C 121.457031 176.046875 117.660156 180.703125 113.871094 185.417969 C 111.511719 188.289062 109.15625 191.164062 106.800781 194.039062 C 100.765625 189.09375 94.671875 184.207031 88.578125 179.324219 Z M 238.304688 160.988281 C 244.914062 166.679688 251.464844 172.484375 258.015625 178.230469 C 253.015625 184.039062 247.957031 189.839844 242.902344 195.703125 C 239.96875 199.097656 236.980469 202.484375 233.992188 205.878906 C 232.269531 204.496094 230.601562 203.121094 228.878906 201.683594 C 224.050781 197.714844 219.21875 193.808594 214.394531 189.898438 C 220.832031 182.140625 227.265625 174.382812 233.648438 166.5625 C 235.199219 164.667969 236.695312 162.828125 238.246094 160.929688 C 238.246094 160.988281 238.246094 160.988281 238.304688 160.988281 Z M 301.527344 211.507812 C 297.21875 207.601562 292.960938 203.75 288.652344 199.84375 C 288.996094 198.921875 289.339844 198.003906 289.574219 197.085938 C 289.800781 196.109375 288.363281 195.703125 288.078125 196.683594 C 287.847656 197.371094 287.5625 198.003906 287.273438 198.636719 C 279.339844 191.511719 271.410156 184.441406 263.421875 177.371094 C 272.328125 167.023438 281.066406 156.449219 288.597656 145.242188 C 289.113281 144.496094 287.960938 143.6875 287.386719 144.320312 C 279.570312 152.140625 272.671875 161.105469 265.488281 169.496094 C 263.9375 171.335938 262.328125 173.171875 260.71875 175.011719 C 254.109375 169.207031 247.441406 163.402344 240.832031 157.65625 C 249.511719 146.792969 257.902344 135.8125 265.894531 124.492188 C 273.9375 130.871094 281.925781 137.367188 289.859375 143.859375 C 291.984375 145.644531 295.089844 142.597656 292.90625 140.8125 C 284.800781 134.148438 276.582031 127.480469 268.363281 120.871094 C 273.652344 113.226562 278.824219 105.410156 283.652344 97.421875 C 287.734375 100.351562 291.757812 103.226562 295.894531 106.101562 C 297.734375 107.421875 300.148438 104.316406 298.367188 102.9375 C 294.285156 99.777344 290.203125 96.617188 286.066406 93.511719 C 287.617188 90.925781 289.171875 88.28125 290.664062 85.636719 C 291.125 84.832031 289.859375 84.085938 289.398438 84.890625 C 287.902344 87.421875 286.296875 89.949219 284.742188 92.480469 C 274.917969 85.007812 264.972656 77.648438 254.972656 70.40625 C 261.410156 61.785156 267.671875 53.050781 273.765625 44.199219 C 278.59375 47.589844 283.480469 50.980469 288.308594 54.371094 C 290.605469 55.980469 292.675781 52.246094 290.492188 50.636719 C 289.515625 49.886719 288.539062 49.140625 287.5625 48.394531 C 287.273438 48.164062 287.042969 48.050781 286.753906 47.992188 C 283.25 45.519531 279.800781 42.992188 276.292969 40.519531 C 281.351562 33.046875 286.351562 25.40625 291.125 17.703125 C 291.527344 17.070312 290.492188 16.496094 290.089844 17.125 C 285.148438 24.65625 280.03125 32.128906 274.742188 39.429688 C 265.375 32.816406 256.003906 26.265625 246.523438 19.773438 C 251.867188 12.355469 257.097656 4.882812 262.386719 -2.585938 C 269.972656 3.445312 277.328125 9.714844 284.515625 16.265625 C 286.527344 18.046875 289.457031 15.171875 287.503906 13.277344 C 280.316406 6.4375 272.671875 0 264.742188 -5.917969 C 269.054688 -12.128906 273.363281 -18.335938 277.617188 -24.542969 C 278.078125 -25.230469 276.984375 -25.867188 276.46875 -25.175781 C 271.984375 -19.199219 267.445312 -13.164062 262.960938 -7.1875 C 254.398438 -13.507812 245.429688 -19.253906 236.175781 -24.542969 C 236.695312 -25.347656 235.488281 -26.035156 234.910156 -25.289062 C 231.347656 -27.300781 227.726562 -29.253906 224.105469 -31.09375 C 223.1875 -31.554688 222.382812 -30.230469 223.300781 -29.714844 C 226.75 -27.644531 230.140625 -25.519531 233.535156 -23.335938 C 228.015625 -15.519531 222.382812 -7.875 216.632812 -0.289062 C 207.667969 -6.152344 198.644531 -11.953125 189.566406 -17.644531 C 191.917969 -20.460938 194.335938 -23.277344 196.691406 -26.09375 C 197.265625 -26.785156 196.347656 -27.761719 195.65625 -27.128906 C 192.953125 -24.371094 190.3125 -21.609375 187.667969 -18.851562 C 182.609375 -22.011719 177.550781 -25.117188 172.4375 -28.21875 C 171.632812 -28.738281 170.941406 -27.472656 171.6875 -26.957031 C 176.402344 -23.621094 181.171875 -20.289062 185.882812 -17.011719 C 179.046875 -9.828125 172.320312 -2.472656 165.710938 4.941406 C 156.171875 -2.070312 146.628906 -9.023438 136.914062 -15.75 C 139.386719 -19.023438 141.859375 -22.300781 144.332031 -25.632812 C 144.960938 -26.496094 143.527344 -27.589844 142.835938 -26.785156 C 140.019531 -23.679688 137.261719 -20.574219 134.503906 -17.414062 C 130.191406 -20.40625 125.824219 -23.335938 121.457031 -26.207031 C 120.824219 -26.609375 120.074219 -25.632812 120.648438 -25.175781 C 124.617188 -21.898438 128.695312 -18.621094 132.777344 -15.402344 C 126.226562 -7.816406 119.789062 -0.117188 113.464844 7.703125 C 105.304688 2.355469 97.027344 -2.929688 88.75 -8.105469 C 93.980469 -14.539062 99.214844 -20.921875 104.554688 -27.300781 C 105.132812 -27.992188 104.15625 -29.027344 103.523438 -28.335938 C 97.945312 -22.011719 92.429688 -15.632812 86.910156 -9.253906 C 77.832031 -14.886719 68.75 -20.460938 59.554688 -25.867188 C 59.609375 -26.152344 59.726562 -26.496094 59.785156 -26.785156 C 59.957031 -27.589844 58.75 -27.933594 58.574219 -27.128906 C 58.519531 -26.957031 58.460938 -26.726562 58.402344 -26.554688 C 57.828125 -26.898438 57.199219 -27.242188 56.621094 -27.644531 C 55.414062 -28.335938 54.4375 -26.554688 55.527344 -25.808594 C 56.222656 -25.347656 56.910156 -24.886719 57.597656 -24.429688 C 55.414062 -19.371094 51.164062 -15.117188 47.769531 -10.921875 C 45.070312 -7.585938 42.425781 -4.253906 39.78125 -0.863281 C 34.320312 -4.597656 28.804688 -8.449219 23.285156 -12.300781 C 26.621094 -16.726562 30.011719 -21.09375 33.171875 -25.691406 C 33.859375 -26.667969 32.308594 -27.933594 31.507812 -27.015625 C 27.828125 -22.703125 24.4375 -18.277344 20.988281 -13.910156 C 18.628906 -15.574219 16.214844 -17.1875 13.859375 -18.851562 C 13.226562 -19.253906 12.710938 -18.277344 13.285156 -17.875 C 15.582031 -16.210938 17.828125 -14.484375 20.125 -12.816406 C 19.605469 -12.128906 19.03125 -11.4375 18.515625 -10.75 C 15.125 -6.496094 10.46875 -2.300781 8.6875 2.816406 C 8.398438 3.679688 9.492188 4.480469 10.238281 4.023438 C 14.722656 0.917969 17.652344 -4.597656 20.875 -8.964844 C 21.390625 -9.65625 21.90625 -10.402344 22.480469 -11.09375 C 27.882812 -7.128906 33.230469 -3.105469 38.632812 0.917969 C 38.171875 1.550781 37.65625 2.183594 37.195312 2.757812 C 29.320312 12.761719 20.816406 22.585938 13.859375 33.105469 C 12.710938 32.242188 11.558594 31.382812 10.410156 30.519531 C 9.546875 29.886719 8.570312 31.265625 9.261719 31.957031 C 17.136719 39.945312 25.757812 47.417969 34.550781 54.601562 C 33.171875 56.324219 31.792969 58.109375 30.414062 59.832031 C 26.5625 64.777344 22.652344 69.777344 18.804688 74.71875 C 17.710938 76.152344 16.503906 77.535156 15.355469 78.972656 C 12.195312 76.5 8.972656 74.027344 5.8125 71.554688 C 5.007812 70.925781 3.917969 72.304688 4.722656 72.992188 C 7.824219 75.578125 10.871094 78.164062 13.976562 80.695312 C 11.734375 83.457031 9.605469 86.269531 8.054688 89.316406 C 7.308594 90.867188 9.089844 92.246094 10.410156 91.097656 C 12.941406 88.855469 15.125 86.15625 17.25 83.339844 C 24.894531 89.660156 32.539062 95.984375 40.183594 102.25 C 33.976562 110.582031 27.769531 118.917969 21.617188 127.308594 C 16.964844 123.917969 12.308594 120.527344 7.59375 117.25 C 6.675781 116.617188 5.523438 118.113281 6.386719 118.804688 C 10.929688 122.421875 15.414062 125.988281 19.953125 129.550781 C 18.226562 131.90625 16.503906 134.261719 14.78125 136.621094 C 13.171875 138.800781 16.851562 140.929688 18.457031 138.746094 C 20.066406 136.5625 21.675781 134.378906 23.285156 132.136719 C 31.101562 138.285156 38.976562 144.4375 46.851562 150.585938 C 41.964844 156.792969 37.082031 162.941406 32.25 169.148438 C 24.089844 161.851562 16.101562 154.492188 8.171875 147.023438 C 7.367188 146.21875 6.101562 147.425781 6.90625 148.285156 C 14.550781 156.277344 22.367188 164.035156 30.355469 171.621094 C 24.722656 178.863281 19.148438 186.21875 13.6875 193.578125 C 10.066406 190.417969 6.386719 187.3125 2.769531 184.152344 C 1.90625 183.40625 0.640625 184.613281 1.503906 185.417969 C 5.066406 188.863281 8.570312 192.253906 12.136719 195.703125 C 12.078125 195.761719 12.019531 195.875 11.964844 195.933594 C 10.582031 197.832031 13.628906 200.300781 15.238281 198.636719 C 21.449219 204.554688 27.652344 210.476562 33.917969 216.339844 C 34.09375 216.511719 34.261719 216.683594 34.4375 216.800781 C 27.078125 225.707031 19.78125 234.386719 12.480469 243.121094 C 10.699219 245.304688 13.746094 248.410156 15.582031 246.226562 C 23 237.546875 30.414062 228.8125 37.769531 220.132812 C 41.792969 223.867188 45.875 227.601562 49.898438 231.339844 C 54.898438 235.996094 59.785156 241.339844 65.53125 245.132812 C 65.589844 246.800781 67.542969 248.238281 68.921875 246.628906 C 76.050781 238.523438 83.0625 230.363281 89.957031 222.085938 C 100.074219 229.789062 110.363281 238.007812 121.398438 244.269531 C 123.234375 245.304688 125.535156 242.664062 123.753906 241.226562 C 122.894531 240.535156 121.972656 239.84375 121.109375 239.15625 C 125.59375 233.582031 130.132812 228.007812 134.617188 222.429688 C 144.960938 231.222656 155.25 240.019531 165.652344 248.8125 C 167.609375 250.421875 170.367188 247.71875 168.472656 245.996094 C 158.238281 236.914062 147.835938 227.949219 137.316406 219.15625 C 143.46875 211.507812 149.675781 203.808594 155.828125 196.109375 C 162.148438 201.222656 168.472656 206.335938 174.734375 211.394531 C 178.183594 214.15625 181.574219 216.96875 184.964844 219.789062 C 183.929688 221.109375 182.894531 222.375 181.863281 223.695312 C 177.035156 229.902344 171.34375 236.222656 167.664062 243.179688 C 166.746094 244.960938 169.046875 246.914062 170.539062 245.363281 C 176 239.617188 180.367188 232.488281 185.195312 226.222656 C 186.171875 224.960938 187.207031 223.695312 188.183594 222.429688 C 194.105469 227.375 200.023438 232.375 206 237.257812 C 203.703125 239.902344 201.460938 242.605469 199.335938 245.363281 C 198.070312 247.03125 200.714844 248.867188 202.152344 247.546875 C 204.679688 245.191406 207.09375 242.664062 209.449219 240.078125 C 216.230469 245.535156 223.074219 250.878906 230.085938 255.882812 C 231.980469 257.203125 234.222656 254.214844 232.558594 252.722656 C 226.234375 246.972656 219.679688 241.515625 213.015625 236.167969 C 216.867188 231.683594 220.65625 227.085938 224.453125 222.71875 C 227.613281 219.097656 230.773438 215.417969 233.933594 211.796875 C 241.523438 218.351562 249.050781 225.015625 256.636719 231.625 C 250.660156 237.777344 244.742188 244.328125 240.660156 251.457031 C 239.855469 252.890625 241.753906 254.328125 242.902344 253.179688 C 247.613281 248.640625 251.464844 243.007812 255.71875 238.007812 C 256.925781 236.628906 258.132812 235.246094 259.339844 233.925781 C 265.203125 238.984375 271.066406 244.042969 277.042969 248.925781 C 279.054688 250.535156 281.8125 247.949219 279.914062 246.054688 C 274.457031 240.480469 268.707031 235.132812 262.847656 229.960938 C 265.144531 227.433594 267.445312 224.960938 269.800781 222.488281 C 275.433594 216.625 282.617188 211.050781 286.8125 203.921875 C 290.777344 207.484375 294.6875 211.050781 298.59375 214.613281 C 300.550781 216.394531 303.59375 213.40625 301.527344 211.507812 " fill-opacity="1" fill-rule="nonzero"/></g></g></g></g><g mask="url(#2230bc74b0)"><g transform="matrix(1, 0, 0, 1, 544, -0.000000000000008531)"><g clip-path="url(#c200f0c07b)"><g clip-path="url(#aee0d0b488)"><path fill="#737373" d="M 263.171875 239.292969 C 262.078125 240.441406 260.925781 241.589844 259.777344 242.796875 C 252.136719 236.128906 244.203125 229.691406 236.386719 223.3125 C 239.777344 219.40625 243.109375 215.441406 246.503906 211.472656 C 250.984375 206.183594 255.582031 200.953125 260.183594 195.609375 C 268.398438 202.851562 276.5625 210.148438 284.722656 217.507812 C 279.261719 225.785156 269.664062 232.566406 263.171875 239.292969 Z M 220.351562 235.84375 C 216.671875 240.039062 212.765625 244.175781 208.910156 248.371094 C 202.761719 243.484375 196.554688 238.71875 190.347656 233.886719 C 193.851562 229.460938 197.359375 225.039062 200.921875 220.613281 C 204.3125 216.472656 207.707031 212.335938 211.097656 208.195312 C 213.507812 210.148438 215.867188 212.046875 218.28125 214.003906 C 222.363281 217.335938 226.441406 220.78125 230.464844 224.230469 C 227.074219 228.140625 223.742188 231.992188 220.351562 235.84375 Z M 175.175781 221.992188 C 169.371094 217.335938 163.5625 212.679688 157.703125 208.023438 C 164.597656 199.402344 171.496094 190.78125 178.335938 182.160156 C 188.277344 189.976562 198.222656 197.851562 208.050781 205.78125 C 204.257812 210.324219 200.464844 214.863281 196.726562 219.460938 C 193.511719 223.429688 190.289062 227.394531 187.070312 231.414062 C 183.105469 228.253906 179.082031 225.152344 175.175781 221.992188 Z M 133.449219 231.359375 C 125.6875 224.863281 117.871094 218.429688 109.996094 212.046875 C 116.089844 204.460938 122.179688 196.875 128.214844 189.230469 C 136.089844 195.609375 143.964844 201.988281 151.839844 208.371094 C 145.6875 216.015625 139.539062 223.65625 133.449219 231.359375 Z M 117.238281 251.648438 C 109.882812 246.246094 102.125 241.246094 94.765625 235.84375 C 93.84375 235.210938 92.984375 234.519531 92.121094 233.886719 C 97.292969 227.679688 102.410156 221.359375 107.523438 215.09375 C 115.285156 221.589844 123.042969 228.140625 130.804688 234.695312 C 126.261719 240.324219 121.722656 245.957031 117.238281 251.648438 Z M 66.71875 257.222656 C 62.347656 251.878906 56.429688 247.394531 51.3125 242.742188 C 47.464844 239.234375 43.613281 235.785156 39.703125 232.277344 C 45.566406 225.324219 51.488281 218.371094 57.347656 211.417969 C 58.785156 212.621094 60.222656 213.828125 61.660156 215.035156 C 69.53125 221.53125 77.464844 227.851562 85.570312 234.0625 C 79.246094 241.761719 72.925781 249.40625 66.71875 257.222656 Z M 35.105469 228.085938 C 28.957031 222.507812 22.75 217.046875 16.480469 211.644531 C 22.230469 204.574219 27.808594 197.390625 33.382812 190.148438 C 40.046875 196.355469 46.886719 202.449219 53.839844 208.425781 C 47.980469 215.324219 42.117188 222.21875 36.3125 229.175781 C 35.910156 228.828125 35.507812 228.484375 35.105469 228.085938 Z M 49.816406 168.597656 C 57.40625 174.515625 64.933594 180.492188 72.464844 186.46875 C 69.1875 190.320312 65.96875 194.113281 62.695312 197.964844 C 60.507812 200.496094 58.382812 203.082031 56.199219 205.609375 C 49.128906 199.691406 42.175781 193.714844 35.277344 187.621094 C 40.21875 181.296875 44.992188 174.917969 49.816406 168.597656 Z M 24.472656 145.03125 C 30.621094 136.699219 36.773438 128.417969 42.921875 120.144531 C 50.851562 126.640625 58.84375 133.132812 66.832031 139.570312 C 62.808594 144.6875 58.785156 149.800781 54.820312 154.972656 C 52.691406 157.675781 50.566406 160.378906 48.441406 163.078125 C 40.507812 156.984375 32.519531 150.949219 24.472656 145.03125 Z M 18.09375 96.636719 C 19.300781 94.96875 20.503906 93.246094 21.773438 91.695312 C 25.621094 86.695312 29.472656 81.75 33.382812 76.75 C 34.585938 75.199219 35.796875 73.644531 37.003906 72.09375 C 44.703125 78.300781 52.519531 84.394531 60.109375 90.429688 C 53.839844 98.589844 47.691406 106.808594 41.484375 115.027344 C 33.726562 108.820312 25.910156 102.730469 18.09375 96.636719 Z M 16.3125 50.484375 C 24.988281 40.539062 32.519531 29.21875 40.394531 18.640625 C 40.566406 18.410156 40.679688 18.238281 40.851562 18.011719 C 48.09375 23.410156 55.277344 28.871094 62.519531 34.332031 C 59.53125 38.011719 56.488281 41.632812 53.5 45.3125 C 47.691406 52.496094 41.945312 59.679688 36.195312 66.980469 C 29.53125 61.519531 23.035156 55.828125 16.3125 50.484375 Z M 52.40625 2.085938 C 54.875 -1.359375 57.0625 -4.636719 58.382812 -8.488281 C 66.945312 -2.855469 75.511719 2.835938 84.074219 8.527344 C 77.464844 16.285156 70.855469 24.101562 64.359375 32.035156 C 57.003906 26.746094 49.589844 21.457031 42.117188 16.285156 C 45.625 11.570312 49.015625 6.859375 52.40625 2.085938 Z M 110.171875 26.171875 C 103.503906 34.503906 96.890625 42.894531 90.339844 51.289062 C 86.835938 48.644531 83.328125 46 79.824219 43.414062 C 75.453125 40.195312 71.085938 36.976562 66.71875 33.816406 C 73.039062 25.769531 79.476562 17.777344 85.914062 9.847656 C 94.078125 15.25 102.125 20.710938 110.171875 26.171875 Z M 134.652344 1.628906 C 143.847656 8.871094 153.21875 15.941406 162.644531 22.953125 C 156.496094 29.847656 150.460938 36.859375 144.425781 43.929688 C 135.113281 37.550781 125.804688 31.285156 116.375 25.136719 C 122.582031 17.320312 128.675781 9.503906 134.652344 1.628906 Z M 187.242188 -0.5 C 196.039062 5.652344 204.832031 11.800781 213.625 17.953125 C 207.417969 26.058594 201.097656 34.101562 194.660156 42.035156 C 185.808594 35.421875 176.957031 28.8125 168.046875 22.261719 C 174.425781 14.617188 180.867188 7.089844 187.242188 -0.5 Z M 234.199219 -7.453125 C 243.054688 -1.703125 251.617188 4.503906 259.949219 10.996094 C 254.433594 18.355469 248.855469 25.710938 243.339844 33.011719 C 234.949219 27.320312 226.558594 21.6875 218.109375 16.113281 C 223.625 8.410156 229.027344 0.59375 234.199219 -7.453125 Z M 271.503906 58.125 C 265.183594 66.804688 258.6875 75.371094 252.019531 83.820312 C 242.878906 77.152344 233.742188 70.542969 224.660156 63.933594 C 227.363281 60.253906 230.121094 56.632812 232.765625 52.953125 C 236.269531 48.125 239.777344 43.300781 243.28125 38.46875 C 252.710938 45.023438 262.078125 51.574219 271.503906 58.125 Z M 281.675781 111.464844 C 276.617188 119.222656 271.332031 126.867188 265.8125 134.339844 C 255.753906 126.292969 245.582031 118.246094 235.410156 110.375 C 240.867188 103.363281 246.269531 96.347656 251.558594 89.28125 C 261.558594 96.808594 271.558594 104.222656 281.675781 111.464844 Z M 237.59375 170.378906 C 227.765625 161.871094 217.878906 153.480469 207.933594 145.085938 C 208.394531 144.511719 208.910156 143.882812 209.371094 143.308594 C 217.132812 133.535156 224.890625 123.820312 232.59375 114.050781 C 242.878906 121.925781 253.113281 129.855469 263.226562 137.960938 C 254.949219 148.9375 246.328125 159.6875 237.59375 170.378906 Z M 205.347656 148.363281 C 215.292969 156.699219 225.121094 165.148438 234.949219 173.597656 C 232.765625 176.238281 230.636719 178.824219 228.453125 181.46875 C 222.589844 188.480469 216.730469 195.492188 210.867188 202.5625 C 200.980469 194.632812 190.980469 186.816406 180.921875 179.058594 C 189.027344 168.765625 197.1875 158.539062 205.347656 148.363281 Z M 176.726562 175.78125 C 168.851562 169.6875 160.976562 163.652344 153.046875 157.617188 C 153.105469 157.558594 153.160156 157.503906 153.21875 157.445312 C 161.550781 146.871094 169.828125 136.238281 178.046875 125.605469 C 186.152344 132.269531 194.199219 138.9375 202.1875 145.664062 C 193.96875 155.894531 185.75 166.125 177.53125 176.355469 C 177.242188 176.183594 177.011719 175.953125 176.726562 175.78125 Z M 150.691406 160.722656 C 158.792969 166.988281 166.898438 173.25 175 179.574219 C 168.105469 188.136719 161.207031 196.761719 154.308594 205.324219 C 146.378906 199 138.503906 192.621094 130.574219 186.296875 C 137.296875 177.734375 144.023438 169.226562 150.691406 160.722656 Z M 118.160156 176.296875 C 111.949219 171.296875 105.6875 166.296875 99.480469 161.296875 C 101.316406 159.113281 103.101562 156.984375 104.9375 154.800781 C 109.9375 148.882812 114.9375 142.960938 119.941406 137.042969 C 129.019531 144.054688 138.160156 151.007812 147.242188 158.019531 C 140.515625 166.527344 133.792969 174.976562 127.066406 183.421875 C 124.078125 181.011719 121.089844 178.65625 118.160156 176.296875 Z M 93.789062 161.414062 C 87.46875 168.882812 81.085938 176.296875 74.765625 183.769531 C 67.179688 177.734375 59.589844 171.757812 51.945312 165.835938 C 54.417969 162.617188 56.886719 159.402344 59.359375 156.238281 C 62.980469 151.582031 66.601562 146.984375 70.222656 142.386719 C 78.097656 148.710938 85.914062 155.089844 93.789062 161.414062 Z M 91.660156 115.199219 C 98.214844 120.316406 104.765625 125.375 111.320312 130.429688 C 113.101562 131.8125 114.882812 133.191406 116.664062 134.570312 C 109.824219 142.617188 102.984375 150.664062 96.144531 158.710938 C 88.210938 152.332031 80.28125 146.007812 72.40625 139.628906 C 78.789062 131.40625 85.222656 123.304688 91.660156 115.199219 Z M 63.382812 93.015625 C 71.601562 99.566406 79.878906 106.0625 88.210938 112.558594 C 81.777344 120.660156 75.398438 128.765625 68.957031 136.867188 C 60.910156 130.429688 52.863281 124.054688 44.816406 117.613281 C 50.96875 109.398438 57.175781 101.175781 63.382812 93.015625 Z M 76.199219 69.566406 C 71.488281 75.601562 66.832031 81.691406 62.121094 87.785156 C 54.417969 81.691406 46.714844 75.542969 39.070312 69.394531 C 44.875 61.863281 50.738281 54.335938 56.601562 46.863281 C 59.359375 43.300781 62.121094 39.792969 64.933594 36.230469 C 72.753906 42.148438 80.511719 48.125 88.269531 54.101562 C 84.1875 59.21875 80.164062 64.394531 76.199219 69.566406 Z M 117.183594 76.636719 C 111.375 83.703125 105.628906 90.832031 99.9375 97.902344 C 96.71875 101.867188 93.558594 105.832031 90.398438 109.796875 C 82.925781 104.050781 75.453125 98.246094 68.039062 92.382812 C 67.179688 91.695312 66.316406 91.003906 65.453125 90.3125 C 70.339844 83.875 75.28125 77.4375 80.222656 71.058594 C 83.960938 66.171875 87.753906 61.347656 91.546875 56.519531 C 100.113281 63.242188 108.675781 69.910156 117.183594 76.636719 Z M 119.652344 73.644531 C 111.03125 66.980469 102.410156 60.3125 93.671875 53.757812 C 100.339844 45.3125 107.007812 36.917969 113.675781 28.527344 C 122.929688 34.847656 132.125 41.171875 141.320312 47.550781 C 134.023438 56.230469 126.78125 64.910156 119.652344 73.644531 Z M 172.070312 69.277344 C 165.175781 77.4375 158.277344 85.601562 151.378906 93.707031 C 150.574219 94.683594 149.710938 95.660156 148.90625 96.636719 C 140.285156 89.796875 131.664062 82.957031 122.984375 76.230469 C 130.167969 67.4375 137.472656 58.703125 144.769531 49.964844 C 153.851562 56.347656 162.988281 62.78125 172.070312 69.277344 Z M 175.230469 65.484375 C 166.152344 58.988281 157.011719 52.550781 147.816406 46.171875 C 153.734375 39.101562 159.65625 32.089844 165.574219 25.078125 C 174.484375 31.6875 183.453125 38.183594 192.359375 44.792969 C 186.726562 51.746094 180.980469 58.644531 175.230469 65.484375 Z M 206.441406 88.359375 C 211.730469 81.347656 217.015625 74.277344 222.246094 67.207031 C 231.210938 73.992188 240.179688 80.773438 249.144531 87.496094 C 243.683594 94.453125 238.109375 101.351562 232.59375 108.1875 C 223.914062 101.519531 215.234375 94.910156 206.441406 88.359375 Z M 151.953125 99.105469 C 159.65625 89.910156 167.359375 80.660156 174.945312 71.347656 C 183.394531 77.4375 191.84375 83.589844 200.234375 89.738281 C 192.589844 99.683594 184.945312 109.683594 177.242188 119.570312 C 168.851562 112.726562 160.402344 105.890625 151.953125 99.105469 Z M 119.019531 131.753906 C 110.570312 125.375 102.179688 118.9375 93.789062 112.5 C 97.066406 108.363281 100.398438 104.164062 103.675781 100.027344 C 109.25 93.070312 114.824219 86.175781 120.457031 79.277344 C 129.078125 86.0625 137.640625 92.898438 146.207031 99.796875 C 137.183594 110.429688 128.101562 121.0625 119.019531 131.753906 Z M 149.308594 102.210938 C 157.816406 109.050781 166.265625 115.949219 174.714844 122.902344 C 166.378906 133.652344 157.988281 144.339844 149.597656 154.972656 C 140.515625 148.019531 131.378906 141.121094 122.296875 134.226562 C 131.320312 123.59375 140.34375 112.902344 149.308594 102.210938 Z M 204.832031 142.445312 C 196.785156 135.71875 188.738281 128.996094 180.578125 122.328125 C 188.277344 112.328125 195.921875 102.269531 203.566406 92.210938 C 212.304688 98.707031 221.039062 105.199219 229.660156 111.808594 C 221.386719 121.984375 213.109375 132.101562 204.945312 142.273438 C 204.886719 142.328125 204.886719 142.386719 204.832031 142.445312 Z M 197.128906 43.875 C 203.453125 35.828125 209.71875 27.664062 215.753906 19.390625 C 224.027344 25.136719 232.304688 30.882812 240.640625 36.632812 C 234.316406 45.023438 227.996094 53.359375 221.613281 61.746094 C 217.878906 59.046875 214.144531 56.347656 210.40625 53.585938 C 205.980469 50.367188 201.554688 47.148438 197.128906 43.875 Z M 206.554688 55.371094 C 210.753906 58.53125 215.003906 61.691406 219.203125 64.910156 C 213.855469 71.921875 208.511719 78.933594 203.164062 85.945312 C 194.832031 79.738281 186.496094 73.589844 178.046875 67.554688 C 182.761719 61.746094 187.476562 55.945312 192.1875 50.136719 C 193.105469 48.988281 194.027344 47.839844 194.886719 46.691406 C 198.796875 49.5625 202.707031 52.4375 206.554688 55.371094 Z M 103.847656 211.992188 C 98.617188 218.3125 93.386719 224.636719 88.15625 230.957031 C 79.824219 224.691406 71.601562 218.253906 63.496094 211.644531 C 62.234375 210.609375 60.96875 209.574219 59.761719 208.542969 C 65.167969 202.101562 70.566406 195.667969 75.972656 189.289062 C 79.476562 192.101562 82.925781 194.863281 86.433594 197.679688 C 92.292969 202.390625 98.101562 207.160156 103.847656 211.992188 Z M 88.042969 194.34375 C 84.765625 191.757812 81.488281 189.113281 78.269531 186.527344 C 84.535156 179.058594 90.855469 171.585938 97.121094 164.113281 C 103.902344 169.574219 110.628906 175.035156 117.410156 180.492188 C 119.824219 182.445312 122.238281 184.402344 124.652344 186.355469 C 120.917969 191.070312 117.125 195.726562 113.332031 200.4375 C 110.972656 203.3125 108.617188 206.183594 106.261719 209.058594 C 100.226562 204.113281 94.132812 199.230469 88.042969 194.34375 Z M 237.765625 176.011719 C 244.375 181.699219 250.925781 187.503906 257.480469 193.253906 C 252.480469 199.058594 247.421875 204.863281 242.363281 210.726562 C 239.433594 214.117188 236.445312 217.507812 233.457031 220.898438 C 231.730469 219.519531 230.0625 218.140625 228.339844 216.703125 C 223.511719 212.738281 218.683594 208.828125 213.855469 204.921875 C 220.292969 197.160156 226.730469 189.402344 233.109375 181.585938 C 234.660156 179.6875 236.15625 177.847656 237.707031 175.953125 C 237.707031 176.011719 237.707031 176.011719 237.765625 176.011719 Z M 300.988281 226.53125 C 296.679688 222.625 292.425781 218.769531 288.113281 214.863281 C 288.460938 213.945312 288.804688 213.023438 289.035156 212.105469 C 289.261719 211.128906 287.828125 210.726562 287.539062 211.703125 C 287.308594 212.394531 287.023438 213.023438 286.734375 213.65625 C 278.804688 206.53125 270.871094 199.460938 262.882812 192.390625 C 271.792969 182.046875 280.527344 171.46875 288.058594 160.261719 C 288.574219 159.515625 287.425781 158.710938 286.851562 159.34375 C 279.03125 167.160156 272.136719 176.125 264.949219 184.515625 C 263.398438 186.355469 261.789062 188.195312 260.183594 190.035156 C 253.570312 184.230469 246.902344 178.421875 240.292969 172.675781 C 248.972656 161.8125 257.363281 150.835938 265.355469 139.511719 C 273.402344 145.894531 281.390625 152.386719 289.320312 158.882812 C 291.449219 160.664062 294.550781 157.617188 292.367188 155.835938 C 284.261719 149.167969 276.042969 142.5 267.824219 135.890625 C 273.113281 128.246094 278.285156 120.429688 283.113281 112.441406 C 287.195312 115.375 291.21875 118.246094 295.355469 121.121094 C 297.195312 122.441406 299.609375 119.339844 297.828125 117.960938 C 293.746094 114.796875 289.664062 111.636719 285.527344 108.535156 C 287.078125 105.949219 288.632812 103.304688 290.125 100.660156 C 290.585938 99.855469 289.320312 99.105469 288.863281 99.914062 C 287.367188 102.441406 285.757812 104.96875 284.203125 107.5 C 274.378906 100.027344 264.433594 92.671875 254.433594 85.425781 C 260.871094 76.804688 267.136719 68.070312 273.226562 59.21875 C 278.054688 62.609375 282.941406 66.003906 287.769531 69.394531 C 290.070312 71.003906 292.136719 67.265625 289.953125 65.65625 C 288.976562 64.910156 288 64.160156 287.023438 63.417969 C 286.734375 63.183594 286.503906 63.070312 286.214844 63.011719 C 282.710938 60.542969 279.261719 58.011719 275.757812 55.539062 C 280.816406 48.066406 285.816406 40.425781 290.585938 32.722656 C 290.988281 32.089844 289.953125 31.515625 289.550781 32.148438 C 284.609375 39.679688 279.492188 47.148438 274.203125 54.449219 C 264.835938 47.839844 255.46875 41.289062 245.984375 34.792969 C 251.328125 27.378906 256.558594 19.90625 261.847656 12.433594 C 269.433594 18.46875 276.792969 24.734375 283.976562 31.285156 C 285.988281 33.070312 288.917969 30.195312 286.964844 28.296875 C 279.78125 21.457031 272.136719 15.019531 264.207031 9.101562 C 268.515625 2.894531 272.828125 -3.3125 277.078125 -9.523438 C 277.539062 -10.210938 276.445312 -10.84375 275.929688 -10.152344 C 271.445312 -4.175781 266.90625 1.859375 262.421875 7.835938 C 253.859375 1.511719 244.890625 -4.234375 235.636719 -9.523438 C 236.15625 -10.324219 234.949219 -11.015625 234.375 -10.269531 C 230.8125 -12.28125 227.1875 -14.234375 223.566406 -16.074219 C 222.648438 -16.535156 221.84375 -15.210938 222.765625 -14.695312 C 226.210938 -12.625 229.601562 -10.5 232.996094 -8.3125 C 227.476562 -0.5 221.84375 7.144531 216.097656 14.730469 C 207.132812 8.871094 198.109375 3.066406 189.027344 -2.625 C 191.382812 -5.441406 193.796875 -8.257812 196.152344 -11.074219 C 196.726562 -11.761719 195.808594 -12.738281 195.117188 -12.109375 C 192.417969 -9.347656 189.773438 -6.589844 187.128906 -3.832031 C 182.070312 -6.992188 177.011719 -10.097656 171.898438 -13.199219 C 171.09375 -13.71875 170.402344 -12.453125 171.152344 -11.9375 C 175.863281 -8.601562 180.632812 -5.265625 185.347656 -1.992188 C 178.507812 5.191406 171.785156 12.550781 165.175781 19.964844 C 155.632812 12.953125 146.09375 5.996094 136.378906 -0.726562 C 138.847656 -4.003906 141.320312 -7.277344 143.792969 -10.613281 C 144.425781 -11.476562 142.988281 -12.570312 142.296875 -11.761719 C 139.484375 -8.660156 136.722656 -5.554688 133.964844 -2.394531 C 129.652344 -5.382812 125.285156 -8.3125 120.917969 -11.1875 C 120.285156 -11.589844 119.535156 -10.613281 120.113281 -10.152344 C 124.078125 -6.878906 128.15625 -3.601562 132.238281 -0.382812 C 125.6875 7.203125 119.25 14.90625 112.925781 22.722656 C 104.765625 17.378906 96.492188 12.089844 88.210938 6.917969 C 93.445312 0.480469 98.675781 -5.902344 104.019531 -12.28125 C 104.59375 -12.96875 103.617188 -14.003906 102.984375 -13.3125 C 97.410156 -6.992188 91.890625 -0.613281 86.375 5.765625 C 77.292969 0.132812 68.210938 -5.441406 59.015625 -10.84375 C 59.074219 -11.132812 59.1875 -11.476562 59.246094 -11.761719 C 59.417969 -12.570312 58.210938 -12.914062 58.039062 -12.109375 C 57.980469 -11.9375 57.921875 -11.707031 57.863281 -11.535156 C 57.289062 -11.878906 56.660156 -12.222656 56.085938 -12.625 C 54.875 -13.3125 53.898438 -11.535156 54.992188 -10.785156 C 55.683594 -10.324219 56.371094 -9.867188 57.0625 -9.40625 C 54.875 -4.347656 50.625 -0.09375 47.230469 4.097656 C 44.53125 7.433594 41.886719 10.765625 39.242188 14.15625 C 33.785156 10.421875 28.265625 6.570312 22.75 2.722656 C 26.082031 -1.703125 29.472656 -6.074219 32.632812 -10.671875 C 33.324219 -11.648438 31.773438 -12.914062 30.96875 -11.992188 C 27.289062 -7.683594 23.898438 -3.253906 20.449219 1.109375 C 18.09375 -0.554688 15.679688 -2.164062 13.320312 -3.832031 C 12.691406 -4.234375 12.171875 -3.253906 12.746094 -2.855469 C 15.046875 -1.1875 17.289062 0.535156 19.585938 2.203125 C 19.070312 2.894531 18.492188 3.582031 17.976562 4.273438 C 14.585938 8.527344 9.929688 12.71875 8.148438 17.835938 C 7.859375 18.699219 8.953125 19.503906 9.703125 19.042969 C 14.183594 15.941406 17.117188 10.421875 20.335938 6.054688 C 20.851562 5.367188 21.367188 4.617188 21.941406 3.929688 C 27.347656 7.894531 32.691406 11.917969 38.09375 15.941406 C 37.632812 16.574219 37.117188 17.203125 36.65625 17.777344 C 28.785156 27.78125 20.277344 37.609375 13.320312 48.125 C 12.171875 47.265625 11.023438 46.402344 9.871094 45.539062 C 9.011719 44.90625 8.035156 46.289062 8.722656 46.976562 C 16.597656 54.964844 25.21875 62.4375 34.011719 69.621094 C 32.632812 71.347656 31.253906 73.128906 29.875 74.851562 C 26.023438 79.796875 22.117188 84.796875 18.265625 89.738281 C 17.171875 91.175781 15.964844 92.554688 14.816406 93.992188 C 11.65625 91.519531 8.4375 89.050781 5.273438 86.578125 C 4.472656 85.945312 3.378906 87.324219 4.183594 88.015625 C 7.285156 90.601562 10.332031 93.1875 13.4375 95.71875 C 11.195312 98.476562 9.070312 101.292969 7.515625 104.339844 C 6.769531 105.890625 8.550781 107.269531 9.871094 106.117188 C 12.402344 103.878906 14.585938 101.175781 16.714844 98.359375 C 24.359375 104.683594 32 111.003906 39.644531 117.269531 C 33.4375 125.605469 27.230469 133.9375 21.082031 142.328125 C 16.425781 138.9375 11.769531 135.546875 7.058594 132.269531 C 6.136719 131.640625 4.988281 133.132812 5.847656 133.824219 C 10.390625 137.441406 14.875 141.007812 19.414062 144.570312 C 17.691406 146.925781 15.964844 149.285156 14.242188 151.640625 C 12.632812 153.824219 16.3125 155.953125 17.917969 153.765625 C 19.527344 151.582031 21.140625 149.398438 22.75 147.15625 C 30.5625 153.308594 38.441406 159.457031 46.3125 165.605469 C 41.429688 171.8125 36.542969 177.964844 31.714844 184.171875 C 23.550781 176.871094 15.5625 169.515625 7.632812 162.042969 C 6.828125 161.238281 5.5625 162.445312 6.367188 163.308594 C 14.011719 171.296875 21.828125 179.058594 29.820312 186.644531 C 24.183594 193.886719 18.609375 201.242188 13.152344 208.597656 C 9.527344 205.4375 5.847656 202.335938 2.230469 199.171875 C 1.367188 198.425781 0.101562 199.632812 0.964844 200.4375 C 4.527344 203.886719 8.035156 207.277344 11.597656 210.726562 C 11.539062 210.78125 11.480469 210.898438 11.425781 210.957031 C 10.046875 212.851562 13.09375 215.324219 14.703125 213.65625 C 20.910156 219.578125 27.117188 225.496094 33.382812 231.359375 C 33.554688 231.53125 33.726562 231.703125 33.898438 231.820312 C 26.539062 240.730469 19.242188 249.40625 11.941406 258.140625 C 10.160156 260.328125 13.207031 263.433594 15.046875 261.246094 C 22.460938 252.566406 29.875 243.832031 37.230469 235.152344 C 41.253906 238.886719 45.335938 242.625 49.359375 246.359375 C 54.359375 251.015625 59.246094 256.363281 64.992188 260.152344 C 65.050781 261.820312 67.003906 263.257812 68.382812 261.648438 C 75.511719 253.542969 82.523438 245.382812 89.421875 237.109375 C 99.535156 244.808594 109.824219 253.027344 120.859375 259.292969 C 122.699219 260.328125 124.996094 257.683594 123.214844 256.246094 C 122.355469 255.554688 121.433594 254.867188 120.570312 254.175781 C 125.054688 248.601562 129.59375 243.027344 134.078125 237.449219 C 144.425781 246.246094 154.714844 255.039062 165.117188 263.832031 C 167.070312 265.445312 169.828125 262.742188 167.933594 261.015625 C 157.703125 251.9375 147.296875 242.96875 136.78125 234.175781 C 142.929688 226.53125 149.136719 218.828125 155.289062 211.128906 C 161.609375 216.242188 167.933594 221.359375 174.195312 226.417969 C 177.644531 229.175781 181.035156 231.992188 184.429688 234.808594 C 183.394531 236.128906 182.359375 237.394531 181.324219 238.71875 C 176.496094 244.921875 170.808594 251.246094 167.128906 258.199219 C 166.207031 259.984375 168.507812 261.9375 170 260.386719 C 175.460938 254.636719 179.832031 247.507812 184.65625 241.246094 C 185.632812 239.980469 186.667969 238.71875 187.644531 237.449219 C 193.566406 242.394531 199.488281 247.394531 205.464844 252.28125 C 203.164062 254.925781 200.921875 257.625 198.796875 260.386719 C 197.535156 262.050781 200.175781 263.890625 201.613281 262.570312 C 204.144531 260.210938 206.554688 257.683594 208.910156 255.097656 C 215.695312 260.558594 222.535156 265.902344 229.546875 270.902344 C 231.445312 272.222656 233.683594 269.234375 232.019531 267.742188 C 225.695312 261.996094 219.144531 256.535156 212.476562 251.1875 C 216.328125 246.707031 220.121094 242.105469 223.914062 237.738281 C 227.074219 234.117188 230.234375 230.4375 233.398438 226.816406 C 240.984375 233.371094 248.515625 240.039062 256.101562 246.648438 C 250.125 252.796875 244.203125 259.351562 240.121094 266.476562 C 239.316406 267.914062 241.214844 269.351562 242.363281 268.199219 C 247.078125 263.660156 250.925781 258.027344 255.179688 253.027344 C 256.386719 251.648438 257.59375 250.269531 258.800781 248.945312 C 264.664062 254.003906 270.527344 259.0625 276.503906 263.949219 C 278.515625 265.558594 281.273438 262.972656 279.378906 261.074219 C 273.917969 255.5 268.171875 250.152344 262.308594 244.980469 C 264.605469 242.453125 266.90625 239.980469 269.261719 237.507812 C 274.894531 231.648438 282.078125 226.074219 286.273438 218.945312 C 290.238281 222.507812 294.148438 226.074219 298.058594 229.636719 C 300.011719 231.414062 303.058594 228.425781 300.988281 226.53125 " fill-opacity="1" fill-rule="nonzero"/></g></g></g></g></svg>