<?xml version="1.0" encoding="utf-8"?>
<!-- Generator: Adobe Illustrator 24.2.3, SVG Export Plug-In . SVG Version: 6.00 Build 0)  -->
<svg version="1.1" id="Layer_1" xmlns="http://www.w3.org/2000/svg" xmlns:xlink="http://www.w3.org/1999/xlink" x="0px" y="0px"
	 viewBox="0 0 408.08 216.16" style="enable-background:new 0 0 408.08 216.16;" xml:space="preserve">
<style type="text/css">
	.st0{fill:url(#XMLID_2_);}
	.st1{fill:url(#XMLID_3_);}
	.st2{fill:#010201;}
</style>
<g id="XMLID_15_">
	<linearGradient id="XMLID_2_" gradientUnits="userSpaceOnUse" x1="86.5909" y1="107.2301" x2="67.9139" y2="113.861">
		<stop  offset="0" style="stop-color:#EE3124"/>
		<stop  offset="1" style="stop-color:#9E1C0F"/>
	</linearGradient>
	<path id="XMLID_17_" class="st0" d="M30.45,148.5l38.7-79.86c0.59-1.23,2.29-1.39,3.1-0.29l37.32,50.59
		c9.04,12.25,0.3,29.58-14.92,29.6l0,0c-6.06,0.01-11.74-2.93-15.22-7.89l-6.48-9.23c-2.21-3.13-6.45-4.05-9.76-2.11L30.45,148.5z"
		/>
	<linearGradient id="XMLID_3_" gradientUnits="userSpaceOnUse" x1="51.1219" y1="108.2015" x2="110.8956" y2="138.6577">
		<stop  offset="0" style="stop-color:#9E1C0F"/>
		<stop  offset="0.4" style="stop-color:#EE3124"/>
	</linearGradient>
	<path id="XMLID_16_" class="st1" d="M109.58,118.95L72.25,68.35c-0.81-1.1-2.51-0.94-3.1,0.29l-38.7,79.86l48.19-28.26
		c3.31-1.94,8.16-1.02,10.37,2.12l6.48,9.22c3.49,4.96,9.02,7.9,15.08,7.89h0.01c0,0,0,0,0.01,0
		C114.16,133.45,114.39,125.48,109.58,118.95z"/>
</g>
<g>
	<g>
		<path d="M237.83,136.55c3.03-8.19,7.55-19.55,10.54-26.16l-0.98-2.3c1.28-0.3,2.77-0.51,4.35-0.6c4.01,9.3,7.9,19.33,11.27,29.06
			h-4.27l-2.48-7.13h-11.95c-0.9,2.43-1.84,5.04-2.52,7.13H237.83z M255.2,126.39c-1.66-4.57-3.12-8.41-4.78-12.68
			c-1.54,3.76-3.33,8.28-4.99,12.68H255.2z"/>
		<path d="M269.63,136.55h-3.93v-26.16c-0.6-1.24-1.2-2.86-1.49-3.93c1.54-0.68,3.63-1.24,5.42-1.45V136.55z"/>
		<path d="M280.3,118.2v18.35h-3.93V118.2h-4.05c-0.04-0.34-0.08-0.85-0.08-1.11c0-0.3,0.04-0.81,0.08-1.15
			c1.11-0.26,2.43-0.43,4.05-0.6v-2.69c0-5.08,2.6-7.9,7.21-7.9c1.88,0,3.84,0.38,6.36,1.2c-0.17,0.73-0.81,2.39-1.32,3.46
			c-3.12-1.11-5.42-1.66-6.96-1.66c-0.85,0.94-1.37,2.94-1.37,5.25v2.22h7v2.99H280.3z"/>
		<path d="M300.31,134.2c-2.22,1.66-4.99,2.77-7.08,2.77c-3.58,0-6.06-2.48-6.06-6.02c0-3.63,2.94-6.23,7.38-6.53l5.08-0.34v-1.41
			c0-3.29-1.37-4.87-4.23-4.87c-1.79,0-3.76,0.55-5.68,1.54c-0.38-0.73-0.77-1.79-0.94-2.56c2.47-1.45,5.16-2.22,7.81-2.22
			c4.44,0,6.83,2.65,6.83,7.55v9.69l2.39,3.2c-1.02,0.68-2.99,1.49-4.27,1.83L300.31,134.2z M299.63,131.81v-4.91
			c-1.92,0-6.15,0.3-7.72,0.51c-0.51,0.81-0.81,1.83-0.81,2.86c0,2.26,1.11,3.5,3.16,3.5C295.87,133.78,297.84,133.05,299.63,131.81
			z"/>
		<path d="M313.16,136.55h-3.93v-26.16c-0.6-1.24-1.2-2.86-1.49-3.93c1.54-0.68,3.63-1.24,5.42-1.45V136.55z"/>
		<path d="M330.14,134.2c-2.22,1.66-4.99,2.77-7.08,2.77c-3.59,0-6.06-2.48-6.06-6.02c0-3.63,2.94-6.23,7.38-6.53l5.08-0.34v-1.41
			c0-3.29-1.37-4.87-4.23-4.87c-1.79,0-3.76,0.55-5.68,1.54c-0.38-0.73-0.77-1.79-0.94-2.56c2.47-1.45,5.16-2.22,7.81-2.22
			c4.44,0,6.83,2.65,6.83,7.55v9.69l2.39,3.2c-1.02,0.68-2.99,1.49-4.27,1.83L330.14,134.2z M329.46,131.81v-4.91
			c-1.92,0-6.15,0.3-7.72,0.51c-0.51,0.81-0.81,1.83-0.81,2.86c0,2.26,1.11,3.5,3.16,3.5C325.71,133.78,327.67,133.05,329.46,131.81
			z"/>
		<path d="M342.99,118.16c2.99-2.26,5.98-3.58,8.02-3.58c3.2,0,5.46,2.94,5.46,7.17v14.81h-3.93v-13.4c0-2.6-0.85-4.61-2.22-5.29
			c-2.35,0.38-5.42,1.66-7.34,3.16v15.53h-3.93v-26.16c-0.6-1.24-1.2-2.86-1.49-3.93c1.54-0.68,3.63-1.24,5.42-1.45V118.16z"/>
	</g>
	<g>
		<path class="st2" d="M213.19,122.44c-0.48-0.64-0.52-0.97,0.11-1.51c2.42-2.09,4.77-4.26,7.18-6.36c0.51-0.44,0.52-0.69,0.04-1.14
			c-0.63-0.58-1.3-1.1-1.97-1.62c-0.59-0.46-0.99-0.48-1.58,0.11c-3.76,3.77-7.39,7.67-11.02,11.92c0-0.6,0-0.95,0-1.29
			c0-5.97,0-11.94,0-17.91c0-1.21-0.02-2.42,0.01-3.62c0.02-0.53-0.13-0.66-0.66-0.58c-1.27,0.19-2.51,0.46-3.71,0.88
			c-2.42,0.83-2.12,0.46-1.24,2.59c0.83,1.99,1.08,3.97,1.06,6.08c-0.05,8.38-0.02,16.77-0.02,25.15c0,0.25,0.02,0.5,0,0.75
			c-0.04,0.47,0.16,0.61,0.62,0.6c1.07-0.03,2.13-0.04,3.2,0.01c0.63,0.03,0.76-0.21,0.75-0.79c-0.03-2.27-0.02-4.55-0.01-6.82
			c0-0.34-0.12-0.71,0.2-1c1.16-1.04,2.31-2.09,3.46-3.13c2.51,3.55,5.15,7.28,7.8,11.01c0.2,0.28,0.31,0.7,0.72,0.71
			c1.82,0.02,3.63,0.01,5.62,0.01C220.15,131.68,216.69,127.04,213.19,122.44z"/>
		<path class="st2" d="M193.34,113.97c-1.19-1.78-2.82-2.73-5.01-2.66c-1.56,0.05-2.97,0.59-4.37,1.22
			c-1.61,0.72-3.07,1.7-4.69,2.77c0-1.14-0.04-2.12,0.01-3.09c0.03-0.65-0.19-0.77-0.79-0.66c-1.26,0.21-2.51,0.5-3.7,0.94
			c-2.04,0.76-1.8,0.52-1.05,2.21c0.94,2.13,1.19,4.31,1.14,6.61c-0.08,4.69,0,9.38-0.05,14.07c-0.01,0.85,0.16,1.23,1.08,1.13
			c0.81-0.08,1.64-0.08,2.45,0c0.88,0.08,1.12-0.21,1.11-1.1c-0.04-5.29-0.01-10.59-0.04-15.88c0-0.7,0.22-1.08,0.8-1.44
			c1.82-1.11,3.73-2.03,5.78-2.61c1.93-0.55,2.63-0.21,3.48,1.65c0.67,1.46,0.74,3.01,0.74,4.58c0,4.62,0.02,9.24-0.02,13.86
			c-0.01,0.75,0.21,0.99,0.95,0.94c0.96-0.06,1.92-0.05,2.88,0c0.6,0.03,0.78-0.15,0.78-0.77c-0.03-5.58,0.01-11.16-0.04-16.74
			C194.81,117.21,194.36,115.49,193.34,113.97z"/>
		<path class="st2" d="M142.31,120.74c-0.93-0.67-1.96-1.12-3.06-1.57c1.58-1.34,2.77-2.9,3.48-4.8c1.62-4.34-0.18-8.57-4.31-10.15
			c-1.2-0.46-2.45-0.73-3.73-0.74c-4.23-0.03-8.46,0-12.69-0.03c-0.62,0-0.82,0.12-0.61,0.77c1.12,3.46,1.13,7.03,1.1,10.62
			c-0.06,6.89,0,13.79-0.04,20.68c0,0.8,0.19,1.01,1,1c3.48-0.05,6.97,0.02,10.45-0.05c2.35-0.04,4.64-0.45,6.81-1.44
			C146.23,132.5,146.66,123.88,142.31,120.74z M127.02,117.2c0.06-1.56,0.02-3.12,0.02-4.69c0-1.74,0.01-3.48,0-5.22
			c0-0.39-0.01-0.68,0.54-0.65c2.06,0.1,4.13,0.03,6.17,0.28c3.76,0.47,5.48,3.22,4.53,7c-0.08,0.31-0.18,0.61-0.28,0.91
			c-1.08,3.2-1.28,3.35-4.58,3.35c-1.81,0-3.62-0.05-5.43,0.02C127.14,118.25,126.99,117.96,127.02,117.2z M140.43,128.36
			c-0.02,0.39-0.1,0.77-0.17,1.16c-0.48,2.54-1.31,3.27-3.87,3.37c-2.95,0.11-5.88-0.05-8.81-0.4c-0.51-0.06-0.54-0.27-0.54-0.67
			c0.01-1.67,0.01-3.34,0.01-5.01c0-1.6-0.01-3.19,0.01-4.79c0-0.27-0.18-0.7,0.38-0.68c2.8,0.1,5.62-0.23,8.39,0.34
			C139.41,122.43,140.61,124.94,140.43,128.36z"/>
		<path class="st2" d="M168.64,132.33c-0.75-0.8-0.96-1.71-0.96-2.8c0-3.8,0.18-7.6-0.12-11.4c-0.32-4.06-3.02-6.62-7.07-6.79
			c-2.68-0.11-5.23,0.37-7.64,1.51c-2.39,1.14-2.21,0.52-1.27,3.2c0.23,0.67,0.52,0.75,1.16,0.44c1.7-0.84,3.5-1.31,5.41-1.4
			c2.67-0.13,4.42,1.04,4.91,3.39c0.21,1.01,0.24,2.04,0.26,3.07c0.01,0.59-0.22,0.69-0.74,0.71c-1.42,0.05-2.84,0.14-4.25,0.24
			c-2.03,0.14-4.01,0.46-5.8,1.53c-3.1,1.85-4.34,5.5-2.99,8.87c1.21,3.02,4.54,4.64,7.99,3.94c2.4-0.49,4.52-1.57,6.55-2.97
			c0.4,0.83,0.8,1.58,1.12,2.36c0.21,0.52,0.5,0.62,0.98,0.43c0.95-0.39,1.91-0.74,2.84-1.17c1.49-0.69,1.48-0.71,0.47-2.04
			C169.2,133.06,168.95,132.66,168.64,132.33z M160.98,132.32c-1,0.35-1.98,0.72-3.04,0.86c-2.84,0.36-4.56-1.25-4.36-4.13
			c0.02-0.25,0.07-0.49,0.1-0.74c0.27-2,0.68-2.36,2.64-2.48c1.98-0.11,3.96-0.23,5.93-0.4c0.77-0.06,1.19,0.07,1.07,0.98
			c-0.08,0.59-0.02,1.2-0.02,1.8c0,0.18-0.03,0.36,0,0.53C163.75,130.74,162.7,131.71,160.98,132.32z"/>
	</g>
</g>
</svg>
